<svg xmlns="http://www.w3.org/2000/svg" xmlns:xlink="http://www.w3.org/1999/xlink" version="1.1" class="marks" width="188" height="137" viewBox="0 0 188 137"><rect width="188" height="137" fill="white"/><g fill="none" stroke-miterlimit="10" transform="translate(37,5)"><g class="mark-group role-frame root" role="graphics-object" aria-roledescription="group mark container"><g transform="translate(0,0)"><path class="background" aria-hidden="true" d="M0,0h100v100h-100Z" fill="lightgray"/><g><g class="mark-group role-axis" role="graphics-symbol" aria-roledescription="axis" aria-label="X-axis titled 'x' for a linear scale with values from 0.0 to 1.0"><g transform="translate(0.5,100.5)"><path class="background" aria-hidden="true" d="M0,0h0v0h0Z" pointer-events="none"/><g><g class="mark-rule role-axis-grid" pointer-events="none"><line transform="translate(0,0)" x2="0" y2="-100" stroke="white" stroke-width="0.5" stroke-dasharray="0" opacity="1"/><line transform="translate(50,0)" x2="0" y2="-100" stroke="white" stroke-width="0.5" stroke-dasharray="0" opacity="1"/><line transform="translate(100,0)" x2="0" y2="-100" stroke="white" stroke-width="0.5" stroke-dasharray="0" opacity="1"/></g><g class="mark-rule role-axis-tick" pointer-events="none"><line transform="translate(0,0)" x2="0" y2="5" stroke="black" stroke-width="1.01" opacity="1"/><line transform="translate(50,0)" x2="0" y2="5" stroke="black" stroke-width="1.01" opacity="1"/><line transform="translate(100,0)" x2="0" y2="5" stroke="black" stroke-width="1.01" opacity="1"/></g><g class="mark-text role-axis-label" pointer-events="none"><text text-anchor="middle" transform="translate(0,15)" font-family="sans-serif" font-size="10px" font-style="normal" font-weight="400" fill="black" opacity="1">0.0</text><text text-anchor="middle" transform="translate(50,15)" font-family="sans-serif" font-size="10px" font-style="normal" font-weight="400" fill="black" opacity="1">0.5</text><text text-anchor="middle" transform="translate(100,15)" font-family="sans-serif" font-size="10px" font-style="normal" font-weight="400" fill="black" opacity="1">1.0</text></g><g class="mark-rule role-axis-domain" pointer-events="none"><line transform="translate(0,0)" x2="100" y2="0" stroke="black" stroke-width="1.01" opacity="1"/></g><g class="mark-text role-axis-title" pointer-events="none"><text text-anchor="middle" transform="translate(50,30)" font-family="sans-serif" font-size="11px" font-style="normal" font-weight="400" fill="black" opacity="1">x</text></g></g><path class="foreground" aria-hidden="true" d="" pointer-events="none" display="none"/></g></g><g class="mark-group role-axis" role="graphics-symbol" aria-roledescription="axis" aria-label="Y-axis titled 'y' for a linear scale with values from 0.0 to 1.0"><g transform="translate(0.5,0.5)"><path class="background" aria-hidden="true" d="M0,0h0v0h0Z" pointer-events="none"/><g><g class="mark-rule role-axis-grid" pointer-events="none"><line transform="translate(0,100)" x2="100" y2="0" stroke="white" stroke-width="0.5" stroke-dasharray="0" opacity="1"/><line transform="translate(0,50)" x2="100" y2="0" stroke="white" stroke-width="0.5" stroke-dasharray="0" opacity="1"/><line transform="translate(0,0)" x2="100" y2="0" stroke="white" stroke-width="0.5" stroke-dasharray="0" opacity="1"/></g><g class="mark-rule role-axis-tick" pointer-events="none"><line transform="translate(0,100)" x2="-5" y2="0" stroke="black" stroke-width="1.01" opacity="1"/><line transform="translate(0,50)" x2="-5" y2="0" stroke="black" stroke-width="1.01" opacity="1"/><line transform="translate(0,0)" x2="-5" y2="0" stroke="black" stroke-width="1.01" opacity="1"/></g><g class="mark-text role-axis-label" pointer-events="none"><text text-anchor="end" transform="translate(-7,103)" font-family="sans-serif" font-size="10px" font-style="normal" font-weight="400" fill="black" opacity="1">0.0</text><text text-anchor="end" transform="translate(-7,53)" font-family="sans-serif" font-size="10px" font-style="normal" font-weight="400" fill="black" opacity="1">0.5</text><text text-anchor="end" transform="translate(-7,3)" font-family="sans-serif" font-size="10px" font-style="normal" font-weight="400" fill="black" opacity="1">1.0</text></g><g class="mark-rule role-axis-domain" pointer-events="none"><line transform="translate(0,100)" x2="0" y2="-100" stroke="black" stroke-width="1.01" opacity="1"/></g><g class="mark-text role-axis-title" pointer-events="none"><text text-anchor="middle" transform="translate(-26,50) rotate(-90) translate(0,-2)" font-family="sans-serif" font-size="11px" font-style="normal" font-weight="400" fill="black" opacity="1">y</text></g></g><path class="foreground" aria-hidden="true" d="" pointer-events="none" display="none"/></g></g><g class="mark-group role-scope" role="graphics-object" aria-roledescription="group mark container"><g transform="translate(0,0)"><path class="background" aria-hidden="true" d="M0,0h0v0h0Z"/><g><g class="mark-symbol role-mark points" role="graphics-symbol" aria-roledescription="symbol mark container"><path transform="translate(16.783825581858125,36.1502205883808)" d="M5,0A5,5,0,1,1,-5,0A5,5,0,1,1,5,0" fill="rgb(160, 196, 61)" stroke="white" stroke-width="1" opacity="1"/><path transform="translate(19.959689242328704,93.55759459537182)" d="M5,0A5,5,0,1,1,-5,0A5,5,0,1,1,5,0" fill="rgb(47, 71, 64)" stroke="white" stroke-width="1" opacity="1"/><path transform="translate(16.885562085882544,35.5282124642842)" d="M5,0A5,5,0,1,1,-5,0A5,5,0,1,1,5,0" fill="rgb(163, 197, 61)" stroke="white" stroke-width="1" opacity="1"/><path transform="translate(88.17596296718816,55.20081539278038)" d="M5,0A5,5,0,1,1,-5,0A5,5,0,1,1,5,0" fill="rgb(76, 160, 66)" stroke="white" stroke-width="1" opacity="1"/><path transform="translate(49.80397505762417,47.82481002880702)" d="M5,0A5,5,0,1,1,-5,0A5,5,0,1,1,5,0" fill="rgb(108, 174, 64)" stroke="white" stroke-width="1" opacity="1"/><path transform="translate(52.623878453588546,57.93327664203169)" d="M5,0A5,5,0,1,1,-5,0A5,5,0,1,1,5,0" fill="rgb(60, 154, 66)" stroke="white" stroke-width="1" opacity="1"/><path transform="translate(57.58739892346738,68.17285049049832)" d="M5,0A5,5,0,1,1,-5,0A5,5,0,1,1,5,0" fill="rgb(3, 133, 68)" stroke="white" stroke-width="1" opacity="1"/><path transform="translate(97.87047185203099,69.10863966166262)" d="M5,0A5,5,0,1,1,-5,0A5,5,0,1,1,5,0" fill="rgb(3, 131, 69)" stroke="white" stroke-width="1" opacity="1"/><path transform="translate(25.694717301837102,61.57618652452078)" d="M5,0A5,5,0,1,1,-5,0A5,5,0,1,1,5,0" fill="rgb(36, 147, 66)" stroke="white" stroke-width="1" opacity="1"/><path transform="translate(72.30700732482741,96.20515239572426)" d="M5,0A5,5,0,1,1,-5,0A5,5,0,1,1,5,0" fill="rgb(53, 64, 61)" stroke="white" stroke-width="1" opacity="1"/><path transform="translate(41.798336529696954,47.51017789807565)" d="M5,0A5,5,0,1,1,-5,0A5,5,0,1,1,5,0" fill="rgb(109, 175, 64)" stroke="white" stroke-width="1" opacity="1"/><path transform="translate(78.23498102407,75.12101832769012)" d="M5,0A5,5,0,1,1,-5,0A5,5,0,1,1,5,0" fill="rgb(1, 116, 75)" stroke="white" stroke-width="1" opacity="1"/><path transform="translate(11.170593747140945,21.016552468910188)" d="M5,0A5,5,0,1,1,-5,0A5,5,0,1,1,5,0" fill="rgb(224, 222, 51)" stroke="white" stroke-width="1" opacity="1"/><path transform="translate(14.283570875791195,37.2424974125873)" d="M5,0A5,5,0,1,1,-5,0A5,5,0,1,1,5,0" fill="rgb(155, 194, 62)" stroke="white" stroke-width="1" opacity="1"/><path transform="translate(47.56023641487431,97.53863064918649)" d="M5,0A5,5,0,1,1,-5,0A5,5,0,1,1,5,0" fill="rgb(56, 60, 59)" stroke="white" stroke-width="1" opacity="1"/><path transform="translate(96.84042411795866,46.49891523316163)" d="M5,0A5,5,0,1,1,-5,0A5,5,0,1,1,5,0" fill="rgb(113, 177, 64)" stroke="white" stroke-width="1" opacity="1"/><path transform="translate(55.26266037613223,27.79088317068512)" d="M5,0A5,5,0,1,1,-5,0A5,5,0,1,1,5,0" fill="rgb(196, 210, 56)" stroke="white" stroke-width="1" opacity="1"/><path transform="translate(47.29309026358904,67.97830357263274)" d="M5,0A5,5,0,1,1,-5,0A5,5,0,1,1,5,0" fill="rgb(3, 134, 67)" stroke="white" stroke-width="1" opacity="1"/><path transform="translate(58.295243905354155,45.558909221034625)" d="M5,0A5,5,0,1,1,-5,0A5,5,0,1,1,5,0" fill="rgb(118, 179, 64)" stroke="white" stroke-width="1" opacity="1"/><path transform="translate(78.26902241335848,29.56281054849219)" d="M5,0A5,5,0,1,1,-5,0A5,5,0,1,1,5,0" fill="rgb(188, 207, 57)" stroke="white" stroke-width="1" opacity="1"/><path transform="translate(34.93129039855868,39.48564149420364)" d="M5,0A5,5,0,1,1,-5,0A5,5,0,1,1,5,0" fill="rgb(145, 190, 62)" stroke="white" stroke-width="1" opacity="1"/><path transform="translate(85.40766000453245,74.18327775991096)" d="M5,0A5,5,0,1,1,-5,0A5,5,0,1,1,5,0" fill="rgb(1, 118, 74)" stroke="white" stroke-width="1" opacity="1"/><path transform="translate(31.373554621778656,66.90960119426465)" d="M5,0A5,5,0,1,1,-5,0A5,5,0,1,1,5,0" fill="rgb(4, 136, 66)" stroke="white" stroke-width="1" opacity="1"/><path transform="translate(87.58841209531955,67.39551290432568)" d="M5,0A5,5,0,1,1,-5,0A5,5,0,1,1,5,0" fill="rgb(4, 135, 67)" stroke="white" stroke-width="1" opacity="1"/><path transform="translate(71.94552269281898,74.1154512278549)" d="M5,0A5,5,0,1,1,-5,0A5,5,0,1,1,5,0" fill="rgb(1, 119, 74)" stroke="white" stroke-width="1" opacity="1"/><path transform="translate(27.711790107274613,11.136291979136303)" d="M5,0A5,5,0,1,1,-5,0A5,5,0,1,1,5,0" fill="rgb(255, 240, 75)" stroke="white" stroke-width="1" opacity="1"/><path transform="translate(82.15051393630651,64.72034206473174)" d="M5,0A5,5,0,1,1,-5,0A5,5,0,1,1,5,0" fill="rgb(16, 141, 66)" stroke="white" stroke-width="1" opacity="1"/><path transform="translate(60.96254136071533,38.39571361460297)" d="M5,0A5,5,0,1,1,-5,0A5,5,0,1,1,5,0" fill="rgb(150, 192, 62)" stroke="white" stroke-width="1" opacity="1"/><path transform="translate(48.89997652407687,25.079896550801518)" d="M5,0A5,5,0,1,1,-5,0A5,5,0,1,1,5,0" fill="rgb(207, 215, 55)" stroke="white" stroke-width="1" opacity="1"/><path transform="translate(7.558917866295333,36.24697531762608)" d="M5,0A5,5,0,1,1,-5,0A5,5,0,1,1,5,0" fill="rgb(160, 196, 61)" stroke="white" stroke-width="1" opacity="1"/><path transform="translate(1.5667773313126854,78.18165044784213)" d="M5,0A5,5,0,1,1,-5,0A5,5,0,1,1,5,0" fill="rgb(3, 109, 77)" stroke="white" stroke-width="1" opacity="1"/><path transform="translate(90.97976643450941,32.969954203000206)" d="M5,0A5,5,0,1,1,-5,0A5,5,0,1,1,5,0" fill="rgb(174, 201, 60)" stroke="white" stroke-width="1" opacity="1"/><path transform="translate(32.524452639629544,36.56167967766017)" d="M5,0A5,5,0,1,1,-5,0A5,5,0,1,1,5,0" fill="rgb(158, 195, 61)" stroke="white" stroke-width="1" opacity="1"/><path transform="translate(18.793829427010923,32.10340418904374)" d="M5,0A5,5,0,1,1,-5,0A5,5,0,1,1,5,0" fill="rgb(178, 203, 59)" stroke="white" stroke-width="1" opacity="1"/><path transform="translate(57.02856010675795,98.32483497845057)" d="M5,0A5,5,0,1,1,-5,0A5,5,0,1,1,5,0" fill="rgb(58, 58, 58)" stroke="white" stroke-width="1" opacity="1"/><path transform="translate(89.14231933252866,34.19323982196738)" d="M5,0A5,5,0,1,1,-5,0A5,5,0,1,1,5,0" fill="rgb(169, 199, 61)" stroke="white" stroke-width="1" opacity="1"/><path transform="translate(42.69387025927801,91.65217424617964)" d="M5,0A5,5,0,1,1,-5,0A5,5,0,1,1,5,0" fill="rgb(42, 76, 67)" stroke="white" stroke-width="1" opacity="1"/><path transform="translate(33.88316018367692,38.22690985678372)" d="M5,0A5,5,0,1,1,-5,0A5,5,0,1,1,5,0" fill="rgb(151, 192, 62)" stroke="white" stroke-width="1" opacity="1"/><path transform="translate(36.84174837967438,23.34194122935197)" d="M5,0A5,5,0,1,1,-5,0A5,5,0,1,1,5,0" fill="rgb(214, 218, 53)" stroke="white" stroke-width="1" opacity="1"/><path transform="translate(3.9891851714861537,80.82775829158471)" d="M5,0A5,5,0,1,1,-5,0A5,5,0,1,1,5,0" fill="rgb(11, 103, 75)" stroke="white" stroke-width="1" opacity="1"/><path transform="translate(3.070867162412194,50.39997659744452)" d="M5,0A5,5,0,1,1,-5,0A5,5,0,1,1,5,0" fill="rgb(97, 169, 65)" stroke="white" stroke-width="1" opacity="1"/><path transform="translate(97.65356995072779,29.87980515599088)" d="M5,0A5,5,0,1,1,-5,0A5,5,0,1,1,5,0" fill="rgb(187, 207, 58)" stroke="white" stroke-width="1" opacity="1"/><path transform="translate(20.526693573330725,26.63722466858931)" d="M5,0A5,5,0,1,1,-5,0A5,5,0,1,1,5,0" fill="rgb(200, 212, 56)" stroke="white" stroke-width="1" opacity="1"/><path transform="translate(89.2061665543846,60.1769713251905)" d="M5,0A5,5,0,1,1,-5,0A5,5,0,1,1,5,0" fill="rgb(45, 150, 66)" stroke="white" stroke-width="1" opacity="1"/><path transform="translate(60.12129190331647,63.806428172060635)" d="M5,0A5,5,0,1,1,-5,0A5,5,0,1,1,5,0" fill="rgb(22, 143, 66)" stroke="white" stroke-width="1" opacity="1"/><path transform="translate(27.875780695376363,55.39264608163127)" d="M5,0A5,5,0,1,1,-5,0A5,5,0,1,1,5,0" fill="rgb(75, 159, 66)" stroke="white" stroke-width="1" opacity="1"/><path transform="translate(81.96818229120828,63.45946664791396)" d="M5,0A5,5,0,1,1,-5,0A5,5,0,1,1,5,0" fill="rgb(24, 143, 66)" stroke="white" stroke-width="1" opacity="1"/><path transform="translate(75.72923988843137,93.25341214014243)" d="M5,0A5,5,0,1,1,-5,0A5,5,0,1,1,5,0" fill="rgb(46, 72, 65)" stroke="white" stroke-width="1" opacity="1"/><path transform="translate(85.54455405104162,65.73187650698742)" d="M5,0A5,5,0,1,1,-5,0A5,5,0,1,1,5,0" fill="rgb(10, 139, 66)" stroke="white" stroke-width="1" opacity="1"/><path transform="translate(98.92955685719218,28.971209653943674)" d="M5,0A5,5,0,1,1,-5,0A5,5,0,1,1,5,0" fill="rgb(191, 208, 57)" stroke="white" stroke-width="1" opacity="1"/><path transform="translate(69.7513630478181,48.50964593301742)" d="M5,0A5,5,0,1,1,-5,0A5,5,0,1,1,5,0" fill="rgb(105, 173, 65)" stroke="white" stroke-width="1" opacity="1"/><path transform="translate(98.2432330332507,55.77600838302792)" d="M5,0A5,5,0,1,1,-5,0A5,5,0,1,1,5,0" fill="rgb(73, 159, 66)" stroke="white" stroke-width="1" opacity="1"/><path transform="translate(31.103017042543414,47.61340968506843)" d="M5,0A5,5,0,1,1,-5,0A5,5,0,1,1,5,0" fill="rgb(109, 175, 64)" stroke="white" stroke-width="1" opacity="1"/><path transform="translate(70.61417793877813,82.68940489118145)" d="M5,0A5,5,0,1,1,-5,0A5,5,0,1,1,5,0" fill="rgb(17, 98, 74)" stroke="white" stroke-width="1" opacity="1"/><path transform="translate(74.93902501504162,74.4916888122101)" d="M5,0A5,5,0,1,1,-5,0A5,5,0,1,1,5,0" fill="rgb(1, 118, 74)" stroke="white" stroke-width="1" opacity="1"/><path transform="translate(33.93262284035599,24.223180357525067)" d="M5,0A5,5,0,1,1,-5,0A5,5,0,1,1,5,0" fill="rgb(210, 216, 54)" stroke="white" stroke-width="1" opacity="1"/><path transform="translate(86.36323117310211,22.386762221538024)" d="M5,0A5,5,0,1,1,-5,0A5,5,0,1,1,5,0" fill="rgb(218, 219, 52)" stroke="white" stroke-width="1" opacity="1"/><path transform="translate(6.345910917214004,41.40296552422632)" d="M5,0A5,5,0,1,1,-5,0A5,5,0,1,1,5,0" fill="rgb(136, 186, 63)" stroke="white" stroke-width="1" opacity="1"/><path transform="translate(74.83794089002588,19.864593004770203)" d="M5,0A5,5,0,1,1,-5,0A5,5,0,1,1,5,0" fill="rgb(229, 224, 50)" stroke="white" stroke-width="1" opacity="1"/><path transform="translate(90.6059105643844,17.81693840058809)" d="M5,0A5,5,0,1,1,-5,0A5,5,0,1,1,5,0" fill="rgb(238, 228, 48)" stroke="white" stroke-width="1" opacity="1"/><path transform="translate(97.61674812304182,4.838928215193306)" d="M5,0A5,5,0,1,1,-5,0A5,5,0,1,1,5,0" fill="rgb(255, 252, 150)" stroke="white" stroke-width="1" opacity="1"/><path transform="translate(20.804101332959345,78.58604711124208)" d="M5,0A5,5,0,1,1,-5,0A5,5,0,1,1,5,0" fill="rgb(4, 108, 76)" stroke="white" stroke-width="1" opacity="1"/><path transform="translate(80.45953992475661,4.801765541602466)" d="M5,0A5,5,0,1,1,-5,0A5,5,0,1,1,5,0" fill="rgb(255, 252, 151)" stroke="white" stroke-width="1" opacity="1"/><path transform="translate(2.1623180873858394,3.172165524063697)" d="M5,0A5,5,0,1,1,-5,0A5,5,0,1,1,5,0" fill="rgb(255, 255, 170)" stroke="white" stroke-width="1" opacity="1"/><path transform="translate(42.66021554064998,87.69336962728104)" d="M5,0A5,5,0,1,1,-5,0A5,5,0,1,1,5,0" fill="rgb(33, 87, 72)" stroke="white" stroke-width="1" opacity="1"/><path transform="translate(55.906125680010135,70.65268454206915)" d="M5,0A5,5,0,1,1,-5,0A5,5,0,1,1,5,0" fill="rgb(2, 127, 70)" stroke="white" stroke-width="1" opacity="1"/><path transform="translate(93.9998687738563,93.56769413063323)" d="M5,0A5,5,0,1,1,-5,0A5,5,0,1,1,5,0" fill="rgb(47, 71, 64)" stroke="white" stroke-width="1" opacity="1"/><path transform="translate(96.80966456294875,44.794112031314995)" d="M5,0A5,5,0,1,1,-5,0A5,5,0,1,1,5,0" fill="rgb(121, 180, 64)" stroke="white" stroke-width="1" opacity="1"/><path transform="translate(82.10594596794587,12.904442809771687)" d="M5,0A5,5,0,1,1,-5,0A5,5,0,1,1,5,0" fill="rgb(255, 237, 54)" stroke="white" stroke-width="1" opacity="1"/><path transform="translate(77.71682604951702,19.506959668733494)" d="M5,0A5,5,0,1,1,-5,0A5,5,0,1,1,5,0" fill="rgb(230, 225, 49)" stroke="white" stroke-width="1" opacity="1"/><path transform="translate(82.3290932436739,73.756017665424)" d="M5,0A5,5,0,1,1,-5,0A5,5,0,1,1,5,0" fill="rgb(1, 119, 73)" stroke="white" stroke-width="1" opacity="1"/><path transform="translate(11.76630713164386,42.787487299984036)" d="M5,0A5,5,0,1,1,-5,0A5,5,0,1,1,5,0" fill="rgb(130, 184, 63)" stroke="white" stroke-width="1" opacity="1"/><path transform="translate(87.48123281074686,64.08449207979994)" d="M5,0A5,5,0,1,1,-5,0A5,5,0,1,1,5,0" fill="rgb(20, 142, 66)" stroke="white" stroke-width="1" opacity="1"/><path transform="translate(68.75470935097577,66.28069871475165)" d="M5,0A5,5,0,1,1,-5,0A5,5,0,1,1,5,0" fill="rgb(6, 138, 66)" stroke="white" stroke-width="1" opacity="1"/><path transform="translate(37.90895161921103,17.985996819422223)" d="M5,0A5,5,0,1,1,-5,0A5,5,0,1,1,5,0" fill="rgb(237, 227, 48)" stroke="white" stroke-width="1" opacity="1"/><path transform="translate(68.4403222899315,8.564494318948302)" d="M5,0A5,5,0,1,1,-5,0A5,5,0,1,1,5,0" fill="rgb(255, 245, 106)" stroke="white" stroke-width="1" opacity="1"/><path transform="translate(56.49458409729776,57.797946371806276)" d="M5,0A5,5,0,1,1,-5,0A5,5,0,1,1,5,0" fill="rgb(61, 154, 66)" stroke="white" stroke-width="1" opacity="1"/><path transform="translate(99.0383277377841,67.06026037617137)" d="M5,0A5,5,0,1,1,-5,0A5,5,0,1,1,5,0" fill="rgb(4, 136, 66)" stroke="white" stroke-width="1" opacity="1"/><path transform="translate(17.44731793403319,17.45863667691885)" d="M5,0A5,5,0,1,1,-5,0A5,5,0,1,1,5,0" fill="rgb(239, 228, 48)" stroke="white" stroke-width="1" opacity="1"/><path transform="translate(66.53067846023006,79.7196694032055)" d="M5,0A5,5,0,1,1,-5,0A5,5,0,1,1,5,0" fill="rgb(8, 105, 76)" stroke="white" stroke-width="1" opacity="1"/><path transform="translate(15.759006734534175,10.741752439025742)" d="M5,0A5,5,0,1,1,-5,0A5,5,0,1,1,5,0" fill="rgb(255, 241, 80)" stroke="white" stroke-width="1" opacity="1"/><path transform="translate(86.4818653537376,3.7128613528242482)" d="M5,0A5,5,0,1,1,-5,0A5,5,0,1,1,5,0" fill="rgb(255, 254, 164)" stroke="white" stroke-width="1" opacity="1"/><path transform="translate(24.40962577368464,81.33286936699679)" d="M5,0A5,5,0,1,1,-5,0A5,5,0,1,1,5,0" fill="rgb(13, 102, 75)" stroke="white" stroke-width="1" opacity="1"/><path transform="translate(27.610624567412433,72.31693575662054)" d="M5,0A5,5,0,1,1,-5,0A5,5,0,1,1,5,0" fill="rgb(2, 123, 72)" stroke="white" stroke-width="1" opacity="1"/><path transform="translate(46.809111487313196,77.28809341735926)" d="M5,0A5,5,0,1,1,-5,0A5,5,0,1,1,5,0" fill="rgb(0, 111, 77)" stroke="white" stroke-width="1" opacity="1"/><path transform="translate(64.27879173619661,18.308884816446934)" d="M5,0A5,5,0,1,1,-5,0A5,5,0,1,1,5,0" fill="rgb(236, 227, 48)" stroke="white" stroke-width="1" opacity="1"/><path transform="translate(1.051746036301926,25.799716687041073)" d="M5,0A5,5,0,1,1,-5,0A5,5,0,1,1,5,0" fill="rgb(204, 213, 55)" stroke="white" stroke-width="1" opacity="1"/><path transform="translate(55.37889491303375,30.078617235660598)" d="M5,0A5,5,0,1,1,-5,0A5,5,0,1,1,5,0" fill="rgb(186, 206, 58)" stroke="white" stroke-width="1" opacity="1"/><path transform="translate(49.85841962217974,18.155966388189615)" d="M5,0A5,5,0,1,1,-5,0A5,5,0,1,1,5,0" fill="rgb(236, 227, 48)" stroke="white" stroke-width="1" opacity="1"/><path transform="translate(86.57843507924481,84.45971565740757)" d="M5,0A5,5,0,1,1,-5,0A5,5,0,1,1,5,0" fill="rgb(23, 94, 74)" stroke="white" stroke-width="1" opacity="1"/><path transform="translate(88.10697561533262,12.324067595588083)" d="M5,0A5,5,0,1,1,-5,0A5,5,0,1,1,5,0" fill="rgb(255, 238, 61)" stroke="white" stroke-width="1" opacity="1"/><path transform="translate(87.4282647809206,57.092519481443105)" d="M5,0A5,5,0,1,1,-5,0A5,5,0,1,1,5,0" fill="rgb(65, 156, 66)" stroke="white" stroke-width="1" opacity="1"/><path transform="translate(57.006107069256196,23.524020905884758)" d="M5,0A5,5,0,1,1,-5,0A5,5,0,1,1,5,0" fill="rgb(213, 217, 53)" stroke="white" stroke-width="1" opacity="1"/><path transform="translate(65.54729847956129,36.46730210055279)" d="M5,0A5,5,0,1,1,-5,0A5,5,0,1,1,5,0" fill="rgb(159, 195, 61)" stroke="white" stroke-width="1" opacity="1"/><path transform="translate(15.537098238827474,35.630424669345274)" d="M5,0A5,5,0,1,1,-5,0A5,5,0,1,1,5,0" fill="rgb(163, 197, 61)" stroke="white" stroke-width="1" opacity="1"/><path transform="translate(27.432972240713504,26.364999885156625)" d="M5,0A5,5,0,1,1,-5,0A5,5,0,1,1,5,0" fill="rgb(201, 213, 55)" stroke="white" stroke-width="1" opacity="1"/><path transform="translate(14.493432928763362,56.44277535631631)" d="M5,0A5,5,0,1,1,-5,0A5,5,0,1,1,5,0" fill="rgb(69, 157, 66)" stroke="white" stroke-width="1" opacity="1"/><path transform="translate(75.74542635649412,57.254488244029645)" d="M5,0A5,5,0,1,1,-5,0A5,5,0,1,1,5,0" fill="rgb(64, 156, 66)" stroke="white" stroke-width="1" opacity="1"/><path transform="translate(7.9087241446095025,89.11615201960912)" d="M5,0A5,5,0,1,1,-5,0A5,5,0,1,1,5,0" fill="rgb(36, 83, 70)" stroke="white" stroke-width="1" opacity="1"/><path transform="translate(69.55901111512114,27.368919516860025)" d="M5,0A5,5,0,1,1,-5,0A5,5,0,1,1,5,0" fill="rgb(197, 211, 56)" stroke="white" stroke-width="1" opacity="1"/></g></g><path class="foreground" aria-hidden="true" d="" display="none"/></g></g><g class="mark-group role-legend" role="graphics-symbol" aria-roledescription="legend" aria-label="Gradient legend titled 'y' for fill color with values from 0.0 to 1.0"><g transform="translate(124,0)"><path class="background" aria-hidden="true" d="M0,0h27v96h-27Z" pointer-events="none"/><g><g class="mark-group role-legend-entry"><g transform="translate(0,16)"><path class="background" aria-hidden="true" d="M0,0h0v0h0Z" pointer-events="none"/><g><g class="mark-rect role-legend-gradient" pointer-events="none"><path d="M0,0h10v80h-10Z" fill="url(#gradient_0)" stroke="#ddd" stroke-width="0" opacity="1"/></g><g class="mark-text role-legend-label" pointer-events="none"><text text-anchor="start" transform="translate(12,78)" font-family="sans-serif" font-size="10px" font-style="normal" font-weight="400" fill="#000" opacity="1">0.0</text><text text-anchor="start" transform="translate(12,8)" font-family="sans-serif" font-size="10px" font-style="normal" font-weight="400" fill="#000" opacity="1">1.0</text></g></g><path class="foreground" aria-hidden="true" d="" pointer-events="none" display="none"/></g></g><g class="mark-text role-legend-title" pointer-events="none"><text text-anchor="start" transform="translate(0,9)" font-family="sans-serif" font-size="11px" font-style="normal" font-weight="400" fill="#000" opacity="1">y</text></g></g><path class="foreground" aria-hidden="true" d="" pointer-events="none" display="none"/></g></g></g><path class="foreground" aria-hidden="true" d="" display="none"/></g></g></g><defs><linearGradient id="gradient_0" x1="0" x2="0" y1="1" y2="0"><stop offset="0" stop-color="rgb(58, 58, 58)"/><stop offset="0.03494210932300107" stop-color="rgb(50, 67, 62)"/><stop offset="0.08748924256340732" stop-color="rgb(38, 81, 69)"/><stop offset="0.14003637580381353" stop-color="rgb(24, 93, 73)"/><stop offset="0.1925835090442198" stop-color="rgb(9, 105, 76)"/><stop offset="0.24513064228462603" stop-color="rgb(1, 116, 75)"/><stop offset="0.2976777755250323" stop-color="rgb(3, 129, 70)"/><stop offset="0.3502249087654385" stop-color="rgb(14, 140, 66)"/><stop offset="0.40277204200584477" stop-color="rgb(46, 150, 66)"/><stop offset="0.455319175246251" stop-color="rgb(77, 160, 66)"/><stop offset="0.5078663084866573" stop-color="rgb(98, 170, 65)"/><stop offset="0.5604134417270635" stop-color="rgb(120, 180, 64)"/><stop offset="0.6129605749674697" stop-color="rgb(143, 189, 62)"/><stop offset="0.665507708207876" stop-color="rgb(165, 198, 61)"/><stop offset="0.7180548414482821" stop-color="rgb(186, 206, 58)"/><stop offset="0.7706019746886884" stop-color="rgb(207, 215, 54)"/><stop offset="0.8231491079290947" stop-color="rgb(228, 224, 50)"/><stop offset="0.8756962411695008" stop-color="rgb(250, 233, 45)"/><stop offset="0.9282433744099072" stop-color="rgb(255, 242, 89)"/><stop offset="0.9807905076503134" stop-color="rgb(255, 252, 148)"/><stop offset="1" stop-color="rgb(255, 255, 170)"/></linearGradient></defs></svg>