<svg xmlns="http://www.w3.org/2000/svg" xmlns:xlink="http://www.w3.org/1999/xlink" version="1.1" class="marks" width="145" height="137" viewBox="0 0 145 137"><rect width="145" height="137" fill="white"/><g fill="none" stroke-miterlimit="10" transform="translate(37,5)"><g class="mark-group role-frame root" role="graphics-object" aria-roledescription="group mark container"><g transform="translate(0,0)"><path class="background" aria-hidden="true" d="M0,0h100v100h-100Z" fill="lightgray"/><g><g class="mark-group role-axis" role="graphics-symbol" aria-roledescription="axis" aria-label="X-axis titled 'x' for a linear scale with values from 0.0 to 1.0"><g transform="translate(0.5,100.5)"><path class="background" aria-hidden="true" d="M0,0h0v0h0Z" pointer-events="none"/><g><g class="mark-rule role-axis-grid" pointer-events="none"><line transform="translate(0,0)" x2="0" y2="-100" stroke="white" stroke-width="0.5" stroke-dasharray="0" opacity="1"/><line transform="translate(50,0)" x2="0" y2="-100" stroke="white" stroke-width="0.5" stroke-dasharray="0" opacity="1"/><line transform="translate(100,0)" x2="0" y2="-100" stroke="white" stroke-width="0.5" stroke-dasharray="0" opacity="1"/></g><g class="mark-rule role-axis-tick" pointer-events="none"><line transform="translate(0,0)" x2="0" y2="5" stroke="black" stroke-width="1.01" opacity="1"/><line transform="translate(50,0)" x2="0" y2="5" stroke="black" stroke-width="1.01" opacity="1"/><line transform="translate(100,0)" x2="0" y2="5" stroke="black" stroke-width="1.01" opacity="1"/></g><g class="mark-text role-axis-label" pointer-events="none"><text text-anchor="middle" transform="translate(0,15)" font-family="sans-serif" font-size="10px" font-style="normal" font-weight="400" fill="black" opacity="1">0.0</text><text text-anchor="middle" transform="translate(50,15)" font-family="sans-serif" font-size="10px" font-style="normal" font-weight="400" fill="black" opacity="1">0.5</text><text text-anchor="middle" transform="translate(100,15)" font-family="sans-serif" font-size="10px" font-style="normal" font-weight="400" fill="black" opacity="1">1.0</text></g><g class="mark-rule role-axis-domain" pointer-events="none"><line transform="translate(0,0)" x2="100" y2="0" stroke="black" stroke-width="1.01" opacity="1"/></g><g class="mark-text role-axis-title" pointer-events="none"><text text-anchor="middle" transform="translate(50,30)" font-family="sans-serif" font-size="11px" font-style="normal" font-weight="400" fill="black" opacity="1">x</text></g></g><path class="foreground" aria-hidden="true" d="" pointer-events="none" display="none"/></g></g><g class="mark-group role-axis" role="graphics-symbol" aria-roledescription="axis" aria-label="Y-axis titled 'y' for a linear scale with values from 0.0 to 1.0"><g transform="translate(0.5,0.5)"><path class="background" aria-hidden="true" d="M0,0h0v0h0Z" pointer-events="none"/><g><g class="mark-rule role-axis-grid" pointer-events="none"><line transform="translate(0,100)" x2="100" y2="0" stroke="white" stroke-width="0.5" stroke-dasharray="0" opacity="1"/><line transform="translate(0,50)" x2="100" y2="0" stroke="white" stroke-width="0.5" stroke-dasharray="0" opacity="1"/><line transform="translate(0,0)" x2="100" y2="0" stroke="white" stroke-width="0.5" stroke-dasharray="0" opacity="1"/></g><g class="mark-rule role-axis-tick" pointer-events="none"><line transform="translate(0,100)" x2="-5" y2="0" stroke="black" stroke-width="1.01" opacity="1"/><line transform="translate(0,50)" x2="-5" y2="0" stroke="black" stroke-width="1.01" opacity="1"/><line transform="translate(0,0)" x2="-5" y2="0" stroke="black" stroke-width="1.01" opacity="1"/></g><g class="mark-text role-axis-label" pointer-events="none"><text text-anchor="end" transform="translate(-7,103)" font-family="sans-serif" font-size="10px" font-style="normal" font-weight="400" fill="black" opacity="1">0.0</text><text text-anchor="end" transform="translate(-7,53)" font-family="sans-serif" font-size="10px" font-style="normal" font-weight="400" fill="black" opacity="1">0.5</text><text text-anchor="end" transform="translate(-7,3)" font-family="sans-serif" font-size="10px" font-style="normal" font-weight="400" fill="black" opacity="1">1.0</text></g><g class="mark-rule role-axis-domain" pointer-events="none"><line transform="translate(0,100)" x2="0" y2="-100" stroke="black" stroke-width="1.01" opacity="1"/></g><g class="mark-text role-axis-title" pointer-events="none"><text text-anchor="middle" transform="translate(-26,50) rotate(-90) translate(0,-2)" font-family="sans-serif" font-size="11px" font-style="normal" font-weight="400" fill="black" opacity="1">y</text></g></g><path class="foreground" aria-hidden="true" d="" pointer-events="none" display="none"/></g></g><g class="mark-group role-scope" role="graphics-object" aria-roledescription="group mark container"><g transform="translate(0,0)"><path class="background" aria-hidden="true" d="M0,0h0v0h0Z"/><g><g class="mark-symbol role-mark points" role="graphics-symbol" aria-roledescription="symbol mark container"><path transform="translate(40.41038146244951,12.94611458902949)" d="M5,0A5,5,0,1,1,-5,0A5,5,0,1,1,5,0" fill="white" stroke="steelblue" stroke-width="1" opacity="1"/><path transform="translate(7.334568472874848,91.62114709045619)" d="M5,0A5,5,0,1,1,-5,0A5,5,0,1,1,5,0" fill="white" stroke="steelblue" stroke-width="1" opacity="1"/><path transform="translate(81.87285750296257,68.45164053987416)" d="M5,0A5,5,0,1,1,-5,0A5,5,0,1,1,5,0" fill="white" stroke="steelblue" stroke-width="1" opacity="1"/><path transform="translate(60.84654975277372,26.123981409246365)" d="M5,0A5,5,0,1,1,-5,0A5,5,0,1,1,5,0" fill="white" stroke="steelblue" stroke-width="1" opacity="1"/><path transform="translate(45.78705528457812,72.12000065927923)" d="M5,0A5,5,0,1,1,-5,0A5,5,0,1,1,5,0" fill="white" stroke="steelblue" stroke-width="1" opacity="1"/><path transform="translate(64.8003586966962,8.461959900897964)" d="M5,0A5,5,0,1,1,-5,0A5,5,0,1,1,5,0" fill="white" stroke="steelblue" stroke-width="1" opacity="1"/><path transform="translate(68.58968559622018,86.69902361551254)" d="M5,0A5,5,0,1,1,-5,0A5,5,0,1,1,5,0" fill="white" stroke="steelblue" stroke-width="1" opacity="1"/><path transform="translate(93.99504003047927,2.730791727034898)" d="M5,0A5,5,0,1,1,-5,0A5,5,0,1,1,5,0" fill="white" stroke="steelblue" stroke-width="1" opacity="1"/><path transform="translate(66.7599892241737,66.70552585224816)" d="M5,0A5,5,0,1,1,-5,0A5,5,0,1,1,5,0" fill="white" stroke="steelblue" stroke-width="1" opacity="1"/><path transform="translate(77.24511033546555,72.99977737618988)" d="M5,0A5,5,0,1,1,-5,0A5,5,0,1,1,5,0" fill="white" stroke="steelblue" stroke-width="1" opacity="1"/><path transform="translate(57.43994437745431,10.608679939695131)" d="M5,0A5,5,0,1,1,-5,0A5,5,0,1,1,5,0" fill="white" stroke="steelblue" stroke-width="1" opacity="1"/><path transform="translate(92.25417717908383,99.53211751332591)" d="M5,0A5,5,0,1,1,-5,0A5,5,0,1,1,5,0" fill="white" stroke="steelblue" stroke-width="1" opacity="1"/><path transform="translate(92.62836274921263,50.278259267285165)" d="M5,0A5,5,0,1,1,-5,0A5,5,0,1,1,5,0" fill="white" stroke="steelblue" stroke-width="1" opacity="1"/><path transform="translate(27.769250330268925,94.08111149722586)" d="M5,0A5,5,0,1,1,-5,0A5,5,0,1,1,5,0" fill="white" stroke="steelblue" stroke-width="1" opacity="1"/><path transform="translate(24.28147275900242,61.021335897151666)" d="M5,0A5,5,0,1,1,-5,0A5,5,0,1,1,5,0" fill="white" stroke="steelblue" stroke-width="1" opacity="1"/><path transform="translate(80.35415050811359,5.648416709415239)" d="M5,0A5,5,0,1,1,-5,0A5,5,0,1,1,5,0" fill="white" stroke="steelblue" stroke-width="1" opacity="1"/><path transform="translate(79.4850730725094,42.05531151199875)" d="M5,0A5,5,0,1,1,-5,0A5,5,0,1,1,5,0" fill="white" stroke="steelblue" stroke-width="1" opacity="1"/><path transform="translate(6.038979625248353,69.94177170048542)" d="M5,0A5,5,0,1,1,-5,0A5,5,0,1,1,5,0" fill="white" stroke="steelblue" stroke-width="1" opacity="1"/><path transform="translate(47.824539683918644,47.64837246347409)" d="M5,0A5,5,0,1,1,-5,0A5,5,0,1,1,5,0" fill="white" stroke="steelblue" stroke-width="1" opacity="1"/><path transform="translate(60.88645189556274,42.18949751217065)" d="M5,0A5,5,0,1,1,-5,0A5,5,0,1,1,5,0" fill="white" stroke="steelblue" stroke-width="1" opacity="1"/></g></g><path class="foreground" aria-hidden="true" d="" display="none"/></g></g></g><path class="foreground" aria-hidden="true" d="" display="none"/></g></g></g></svg>