<svg xmlns="http://www.w3.org/2000/svg" xmlns:xlink="http://www.w3.org/1999/xlink" version="1.1" class="marks" width="145" height="132" viewBox="0 0 145 132"><rect width="145" height="132" fill="white"/><g fill="none" stroke-miterlimit="10" transform="translate(38,0)"><g class="mark-group role-frame root" role="graphics-object" aria-roledescription="group mark container"><g transform="translate(0,0)"><path class="background" aria-hidden="true" d="M0,0h100v100h-100Z"/><g><g class="mark-group role-axis" role="graphics-symbol" aria-roledescription="axis" aria-label="X-axis titled 'x' for a linear scale with values from −3 to 10"><g transform="translate(0,100)"><path class="background" aria-hidden="true" d="M0,0h0v0h0Z" pointer-events="none"/><g><g class="mark-rule role-axis-grid" pointer-events="none"><line transform="translate(23,0)" x2="0" y2="-100" stroke="lightgray" stroke-width="0.5" stroke-dasharray="3" opacity="1"/><line transform="translate(62,0)" x2="0" y2="-100" stroke="lightgray" stroke-width="0.5" stroke-dasharray="3" opacity="1"/><line transform="translate(100,0)" x2="0" y2="-100" stroke="lightgray" stroke-width="0.5" stroke-dasharray="3" opacity="1"/></g><g class="mark-rule role-axis-tick" pointer-events="none"><line transform="translate(23,0)" x2="0" y2="5" stroke="black" stroke-width="1.01" opacity="1"/><line transform="translate(62,0)" x2="0" y2="5" stroke="black" stroke-width="1.01" opacity="1"/><line transform="translate(100,0)" x2="0" y2="5" stroke="black" stroke-width="1.01" opacity="1"/></g><g class="mark-text role-axis-label" pointer-events="none"><text text-anchor="middle" transform="translate(23.076923076923077,15)" font-family="sans-serif" font-size="10px" font-style="normal" font-weight="400" fill="black" opacity="1">0</text><text text-anchor="middle" transform="translate(61.53846153846154,15)" font-family="sans-serif" font-size="10px" font-style="normal" font-weight="400" fill="black" opacity="1">5</text><text text-anchor="middle" transform="translate(100,15)" font-family="sans-serif" font-size="10px" font-style="normal" font-weight="400" fill="black" opacity="1">10</text></g><g class="mark-rule role-axis-domain" pointer-events="none"><line transform="translate(0,0)" x2="100" y2="0" stroke="black" stroke-width="1.01" opacity="1"/></g><g class="mark-text role-axis-title" pointer-events="none"><text text-anchor="middle" transform="translate(50,30)" font-family="sans-serif" font-size="11px" font-style="normal" font-weight="400" fill="black" opacity="1">x</text></g></g><path class="foreground" aria-hidden="true" d="" pointer-events="none" display="none"/></g></g><g class="mark-group role-axis" role="graphics-symbol" aria-roledescription="axis" aria-label="Y-axis titled 'pdf' for a linear scale with values from 0.0 to 0.5"><g transform="translate(0,0)"><path class="background" aria-hidden="true" d="M0,0h0v0h0Z" pointer-events="none"/><g><g class="mark-rule role-axis-grid" pointer-events="none"><line transform="translate(0,100)" x2="100" y2="0" stroke="lightgray" stroke-width="0.5" stroke-dasharray="3" opacity="1"/><line transform="translate(0,56)" x2="100" y2="0" stroke="lightgray" stroke-width="0.5" stroke-dasharray="3" opacity="1"/><line transform="translate(0,11)" x2="100" y2="0" stroke="lightgray" stroke-width="0.5" stroke-dasharray="3" opacity="1"/></g><g class="mark-rule role-axis-tick" pointer-events="none"><line transform="translate(0,100)" x2="-5" y2="0" stroke="black" stroke-width="1.01" opacity="1"/><line transform="translate(0,56)" x2="-5" y2="0" stroke="black" stroke-width="1.01" opacity="1"/><line transform="translate(0,11)" x2="-5" y2="0" stroke="black" stroke-width="1.01" opacity="1"/></g><g class="mark-text role-axis-label" pointer-events="none"><text text-anchor="end" transform="translate(-7,103)" font-family="sans-serif" font-size="10px" font-style="normal" font-weight="400" fill="black" opacity="1">0.0</text><text text-anchor="end" transform="translate(-7,58.55555555555556)" font-family="sans-serif" font-size="10px" font-style="normal" font-weight="400" fill="black" opacity="1">0.2</text><text text-anchor="end" transform="translate(-7,14.111111111111105)" font-family="sans-serif" font-size="10px" font-style="normal" font-weight="400" fill="black" opacity="1">0.4</text></g><g class="mark-rule role-axis-domain" pointer-events="none"><line transform="translate(0,100)" x2="0" y2="-100" stroke="black" stroke-width="1.01" opacity="1"/></g><g class="mark-text role-axis-title" pointer-events="none"><text text-anchor="middle" transform="translate(-26.9033203125,50) rotate(-90) translate(0,-2)" font-family="sans-serif" font-size="11px" font-style="normal" font-weight="400" fill="black" opacity="1">pdf</text></g></g><path class="foreground" aria-hidden="true" d="" pointer-events="none" display="none"/></g></g><g class="mark-group role-scope" clip-path="url(#clip1)" role="graphics-object" aria-roledescription="group mark container"><g transform="translate(0,0)"><path class="background" aria-hidden="true" d="M0,0h0v0h0Z"/><g><g class="mark-area role-mark" role="graphics-symbol" aria-roledescription="area mark container"><path d="M0.844,99.936L1.356,99.899L1.867,99.843L2.379,99.763L2.89,99.65L3.402,99.493L3.914,99.282L4.425,99.006L4.937,98.65L5.449,98.203L5.96,97.654L6.472,96.99L6.983,96.201L7.495,95.278L8.007,94.209L8.518,92.985L9.03,91.593L9.542,90.018L10.053,88.244L10.565,86.254L11.076,84.036L11.588,81.579L12.1,78.881L12.611,75.949L13.123,72.799L13.635,69.46L14.146,65.966L14.658,62.354L15.169,58.662L15.681,54.919L16.193,51.146L16.704,47.354L17.216,43.543L17.728,39.707L18.239,35.842L18.751,31.947L19.262,28.037L19.774,24.143L20.286,20.318L20.797,16.63L21.309,13.164L21.821,10.01L22.332,7.257L22.844,4.985L23.356,3.254L23.867,2.107L24.379,1.562L24.89,1.615L25.402,2.248L25.914,3.426L26.425,5.11L26.937,7.259L27.449,9.831L27.96,12.789L28.472,16.097L28.983,19.724L29.495,23.637L30.007,27.802L30.518,32.182L31.03,36.733L31.542,41.406L32.053,46.146L32.565,50.893L33.076,55.584L33.588,60.153L34.1,64.538L34.611,68.68L35.123,72.526L35.635,76.034L36.146,79.173L36.658,81.924L37.169,84.284L37.681,86.261L38.193,87.881L38.704,89.18L39.216,90.205L39.728,91.011L40.239,91.652L40.751,92.186L41.263,92.662L41.774,93.121L42.286,93.593L42.797,94.095L43.309,94.633L43.821,95.203L44.332,95.791L44.844,96.381L45.356,96.953L45.867,97.491L46.379,97.981L46.89,98.412L47.402,98.78L47.914,99.084L48.425,99.329L48.937,99.52L49.449,99.665L49.96,99.772L50.472,99.848L50.983,99.901L51.495,99.938L51.495,100L50.983,100L50.472,100L49.96,100L49.449,100L48.937,100L48.425,100L47.914,100L47.402,100L46.89,100L46.379,100L45.867,100L45.356,100L44.844,100L44.332,100L43.821,100L43.309,100L42.797,100L42.286,100L41.774,100L41.263,100L40.751,100L40.239,100L39.728,100L39.216,100L38.704,100L38.193,100L37.681,100L37.169,100L36.658,100L36.146,100L35.635,100L35.123,100L34.611,100L34.1,100L33.588,100L33.076,100L32.565,100L32.053,100L31.542,100L31.03,100L30.518,100L30.007,100L29.495,100L28.983,100L28.472,100L27.96,100L27.449,100L26.937,100L26.425,100L25.914,100L25.402,100L24.89,100L24.379,100L23.867,100L23.356,100L22.844,100L22.332,100L21.821,100L21.309,100L20.797,100L20.286,100L19.774,100L19.262,100L18.751,100L18.239,100L17.728,100L17.216,100L16.704,100L16.193,100L15.681,100L15.169,100L14.658,100L14.146,100L13.635,100L13.123,100L12.611,100L12.1,100L11.588,100L11.076,100L10.565,100L10.053,100L9.542,100L9.03,100L8.518,100L8.007,100L7.495,100L6.983,100L6.472,100L5.96,100L5.449,100L4.937,100L4.425,100L3.914,100L3.402,100L2.89,100L2.379,100L1.867,100L1.356,100L0.844,100Z" fill="#4c78a8" fill-opacity="0.5" stroke="#4c78a8" stroke-width="1" opacity="1"/></g></g><path class="foreground" aria-hidden="true" d="" display="none"/></g><g transform="translate(0,0)"><path class="background" aria-hidden="true" d="M0,0h0v0h0Z"/><g><g class="mark-area role-mark" role="graphics-symbol" aria-roledescription="area mark container"><path d="M13.319,99.9L13.84,99.847L14.361,99.77L14.882,99.661L15.403,99.508L15.924,99.298L16.445,99.016L16.966,98.644L17.487,98.162L18.007,97.549L18.528,96.783L19.049,95.841L19.57,94.702L20.091,93.347L20.612,91.758L21.133,89.92L21.654,87.825L22.175,85.464L22.696,82.837L23.217,79.945L23.738,76.796L24.258,73.401L24.779,69.777L25.3,65.947L25.821,61.94L26.342,57.789L26.863,53.537L27.384,49.228L27.905,44.914L28.426,40.65L28.947,36.493L29.468,32.5L29.988,28.728L30.509,25.233L31.03,22.064L31.551,19.27L32.072,16.893L32.593,14.967L33.114,13.522L33.635,12.576L34.156,12.14L34.677,12.211L35.198,12.775L35.718,13.805L36.239,15.259L36.76,17.086L37.281,19.224L37.802,21.606L38.323,24.162L38.844,26.827L39.365,29.541L39.886,32.255L40.407,34.932L40.928,37.55L41.449,40.098L41.969,42.576L42.49,44.991L43.011,47.356L43.532,49.685L44.053,51.989L44.574,54.279L45.095,56.558L45.616,58.828L46.137,61.086L46.658,63.326L47.179,65.542L47.699,67.725L48.22,69.866L48.741,71.958L49.262,73.991L49.783,75.961L50.304,77.859L50.825,79.681L51.346,81.423L51.867,83.083L52.388,84.659L52.909,86.151L53.429,87.562L53.95,88.892L54.471,90.143L54.992,91.317L55.513,92.414L56.034,93.432L56.555,94.372L57.076,95.231L57.597,96.009L58.118,96.703L58.639,97.314L59.16,97.844L59.68,98.296L60.201,98.675L60.722,98.987L61.243,99.238L61.764,99.437L62.285,99.591L62.806,99.709L63.327,99.796L63.848,99.86L64.369,99.905L64.89,99.937L64.89,100L64.369,100L63.848,100L63.327,100L62.806,100L62.285,100L61.764,100L61.243,100L60.722,100L60.201,100L59.68,100L59.16,100L58.639,100L58.118,100L57.597,100L57.076,100L56.555,100L56.034,100L55.513,100L54.992,100L54.471,100L53.95,100L53.429,100L52.909,100L52.388,100L51.867,100L51.346,100L50.825,100L50.304,100L49.783,100L49.262,100L48.741,100L48.22,100L47.699,100L47.179,100L46.658,100L46.137,100L45.616,100L45.095,100L44.574,100L44.053,100L43.532,100L43.011,100L42.49,100L41.969,100L41.449,100L40.928,100L40.407,100L39.886,100L39.365,100L38.844,100L38.323,100L37.802,100L37.281,100L36.76,100L36.239,100L35.718,100L35.198,100L34.677,100L34.156,100L33.635,100L33.114,100L32.593,100L32.072,100L31.551,100L31.03,100L30.509,100L29.988,100L29.468,100L28.947,100L28.426,100L27.905,100L27.384,100L26.863,100L26.342,100L25.821,100L25.3,100L24.779,100L24.258,100L23.738,100L23.217,100L22.696,100L22.175,100L21.654,100L21.133,100L20.612,100L20.091,100L19.57,100L19.049,100L18.528,100L18.007,100L17.487,100L16.966,100L16.445,100L15.924,100L15.403,100L14.882,100L14.361,100L13.84,100L13.319,100Z" fill="#f58518" fill-opacity="0.5" stroke="#f58518" stroke-width="1" opacity="1"/></g></g><path class="foreground" aria-hidden="true" d="" display="none"/></g><g transform="translate(0,0)"><path class="background" aria-hidden="true" d="M0,0h0v0h0Z"/><g><g class="mark-area role-mark" role="graphics-symbol" aria-roledescription="area mark container"><path d="M41.45,99.881L42.018,99.825L42.586,99.747L43.155,99.639L43.723,99.492L44.291,99.295L44.86,99.035L45.428,98.696L45.996,98.261L46.565,97.712L47.133,97.027L47.701,96.187L48.27,95.171L48.838,93.959L49.406,92.534L49.975,90.882L50.543,88.994L51.111,86.865L51.68,84.499L52.248,81.904L52.816,79.097L53.385,76.102L53.953,72.949L54.521,69.676L55.09,66.325L55.658,62.944L56.226,59.583L56.795,56.294L57.363,53.13L57.931,50.142L58.5,47.379L59.068,44.885L59.636,42.698L60.205,40.846L60.773,39.352L61.341,38.225L61.91,37.464L62.478,37.053L63.046,36.969L63.615,37.173L64.183,37.619L64.751,38.252L65.32,39.013L65.888,39.842L66.456,40.683L67.025,41.483L67.593,42.201L68.161,42.809L68.73,43.291L69.298,43.645L69.866,43.885L70.435,44.037L71.003,44.134L71.571,44.216L72.14,44.327L72.708,44.508L73.276,44.794L73.845,45.215L74.413,45.791L74.981,46.533L75.55,47.442L76.118,48.513L76.686,49.734L77.255,51.091L77.823,52.569L78.391,54.154L78.96,55.833L79.528,57.6L80.096,59.448L80.665,61.374L81.233,63.377L81.801,65.455L82.37,67.604L82.938,69.815L83.506,72.076L84.075,74.371L84.643,76.679L85.211,78.974L85.78,81.228L86.348,83.414L86.916,85.504L87.485,87.473L88.053,89.301L88.621,90.972L89.19,92.476L89.758,93.808L90.326,94.97L90.895,95.966L91.463,96.808L92.031,97.508L92.6,98.081L93.168,98.542L93.736,98.907L94.305,99.192L94.873,99.411L95.441,99.577L96.01,99.7L96.578,99.791L97.146,99.856L97.715,99.902L97.715,100L97.146,100L96.578,100L96.01,100L95.441,100L94.873,100L94.305,100L93.736,100L93.168,100L92.6,100L92.031,100L91.463,100L90.895,100L90.326,100L89.758,100L89.19,100L88.621,100L88.053,100L87.485,100L86.916,100L86.348,100L85.78,100L85.211,100L84.643,100L84.075,100L83.506,100L82.938,100L82.37,100L81.801,100L81.233,100L80.665,100L80.096,100L79.528,100L78.96,100L78.391,100L77.823,100L77.255,100L76.686,100L76.118,100L75.55,100L74.981,100L74.413,100L73.845,100L73.276,100L72.708,100L72.14,100L71.571,100L71.003,100L70.435,100L69.866,100L69.298,100L68.73,100L68.161,100L67.593,100L67.025,100L66.456,100L65.888,100L65.32,100L64.751,100L64.183,100L63.615,100L63.046,100L62.478,100L61.91,100L61.341,100L60.773,100L60.205,100L59.636,100L59.068,100L58.5,100L57.931,100L57.363,100L56.795,100L56.226,100L55.658,100L55.09,100L54.521,100L53.953,100L53.385,100L52.816,100L52.248,100L51.68,100L51.111,100L50.543,100L49.975,100L49.406,100L48.838,100L48.27,100L47.701,100L47.133,100L46.565,100L45.996,100L45.428,100L44.86,100L44.291,100L43.723,100L43.155,100L42.586,100L42.018,100L41.45,100Z" fill="#e45756" fill-opacity="0.5" stroke="#e45756" stroke-width="1" opacity="1"/></g></g><path class="foreground" aria-hidden="true" d="" display="none"/></g></g></g><path class="foreground" aria-hidden="true" d="" display="none"/></g></g></g><defs><clipPath id="clip1"><rect x="0" y="0" width="100" height="100"/></clipPath></defs></svg>