<svg xmlns="http://www.w3.org/2000/svg" xmlns:xlink="http://www.w3.org/1999/xlink" version="1.1" class="marks" width="924" height="445" viewBox="0 0 924 445"><rect width="924" height="445" fill="white"/><g fill="none" stroke-miterlimit="10" transform="translate(38,11)"><g class="mark-group role-frame root" role="graphics-object" aria-roledescription="group mark container"><g transform="translate(0,0)"><path class="background" aria-hidden="true" d="M0,0h0v0h0Z"/><g><g class="mark-group role-scope" role="graphics-object" aria-roledescription="group mark container"><g transform="translate(0,0)"><path class="background" aria-hidden="true" d="M0,0h0v0h0Z"/><g><g class="mark-group role-scope" role="graphics-object" aria-roledescription="group mark container"><g transform="translate(0,0)"><path class="background" aria-hidden="true" d="M0,0h400v400h-400Z" stroke="gray" stroke-width="0.1"/><g><g class="mark-group role-axis" role="graphics-symbol" aria-roledescription="axis" aria-label="X-axis titled 'x' for a linear scale with values from 0 to 100"><g transform="translate(0.5,401.5)"><path class="background" aria-hidden="true" d="M0,0h0v0h0Z" pointer-events="none"/><g><g class="mark-rule role-axis-tick" pointer-events="none"><line transform="translate(0,0)" x2="0" y2="5" stroke="black" stroke-width="1.01" opacity="1"/><line transform="translate(40,0)" x2="0" y2="5" stroke="black" stroke-width="1.01" opacity="1"/><line transform="translate(80,0)" x2="0" y2="5" stroke="black" stroke-width="1.01" opacity="1"/><line transform="translate(120,0)" x2="0" y2="5" stroke="black" stroke-width="1.01" opacity="1"/><line transform="translate(160,0)" x2="0" y2="5" stroke="black" stroke-width="1.01" opacity="1"/><line transform="translate(200,0)" x2="0" y2="5" stroke="black" stroke-width="1.01" opacity="1"/><line transform="translate(240,0)" x2="0" y2="5" stroke="black" stroke-width="1.01" opacity="1"/><line transform="translate(280,0)" x2="0" y2="5" stroke="black" stroke-width="1.01" opacity="1"/><line transform="translate(320,0)" x2="0" y2="5" stroke="black" stroke-width="1.01" opacity="1"/><line transform="translate(360,0)" x2="0" y2="5" stroke="black" stroke-width="1.01" opacity="1"/><line transform="translate(400,0)" x2="0" y2="5" stroke="black" stroke-width="1.01" opacity="1"/></g><g class="mark-text role-axis-label" pointer-events="none"><text text-anchor="middle" transform="translate(0,15)" font-family="sans-serif" font-size="10px" font-style="normal" font-weight="400" fill="black" opacity="1">0</text><text text-anchor="middle" transform="translate(40,15)" font-family="sans-serif" font-size="10px" font-style="normal" font-weight="400" fill="black" opacity="1">10</text><text text-anchor="middle" transform="translate(80,15)" font-family="sans-serif" font-size="10px" font-style="normal" font-weight="400" fill="black" opacity="1">20</text><text text-anchor="middle" transform="translate(120,15)" font-family="sans-serif" font-size="10px" font-style="normal" font-weight="400" fill="black" opacity="1">30</text><text text-anchor="middle" transform="translate(160,15)" font-family="sans-serif" font-size="10px" font-style="normal" font-weight="400" fill="black" opacity="1">40</text><text text-anchor="middle" transform="translate(200,15)" font-family="sans-serif" font-size="10px" font-style="normal" font-weight="400" fill="black" opacity="1">50</text><text text-anchor="middle" transform="translate(240,15)" font-family="sans-serif" font-size="10px" font-style="normal" font-weight="400" fill="black" opacity="1">60</text><text text-anchor="middle" transform="translate(280,15)" font-family="sans-serif" font-size="10px" font-style="normal" font-weight="400" fill="black" opacity="1">70</text><text text-anchor="middle" transform="translate(320,15)" font-family="sans-serif" font-size="10px" font-style="normal" font-weight="400" fill="black" opacity="1">80</text><text text-anchor="middle" transform="translate(360,15)" font-family="sans-serif" font-size="10px" font-style="normal" font-weight="400" fill="black" opacity="1">90</text><text text-anchor="middle" transform="translate(400,15)" font-family="sans-serif" font-size="10px" font-style="normal" font-weight="400" fill="black" opacity="1">100</text></g><g class="mark-rule role-axis-domain" pointer-events="none"><line transform="translate(0,0)" x2="400" y2="0" stroke="black" stroke-width="1.01" opacity="1"/></g><g class="mark-text role-axis-title" pointer-events="none"><text text-anchor="middle" transform="translate(200,30)" font-family="sans-serif" font-size="11px" font-style="normal" font-weight="400" fill="black" opacity="1">x</text></g></g><path class="foreground" aria-hidden="true" d="" pointer-events="none" display="none"/></g></g><g class="mark-group role-axis" role="graphics-symbol" aria-roledescription="axis" aria-label="Y-axis titled 'y' for a linear scale with values from 0.0 to 1.0"><g transform="translate(-0.5,0.5)"><path class="background" aria-hidden="true" d="M0,0h0v0h0Z" pointer-events="none"/><g><g class="mark-rule role-axis-tick" pointer-events="none"><line transform="translate(0,400)" x2="-5" y2="0" stroke="black" stroke-width="1.01" opacity="1"/><line transform="translate(0,360)" x2="-5" y2="0" stroke="black" stroke-width="1.01" opacity="1"/><line transform="translate(0,320)" x2="-5" y2="0" stroke="black" stroke-width="1.01" opacity="1"/><line transform="translate(0,280)" x2="-5" y2="0" stroke="black" stroke-width="1.01" opacity="1"/><line transform="translate(0,240)" x2="-5" y2="0" stroke="black" stroke-width="1.01" opacity="1"/><line transform="translate(0,200)" x2="-5" y2="0" stroke="black" stroke-width="1.01" opacity="1"/><line transform="translate(0,160)" x2="-5" y2="0" stroke="black" stroke-width="1.01" opacity="1"/><line transform="translate(0,120)" x2="-5" y2="0" stroke="black" stroke-width="1.01" opacity="1"/><line transform="translate(0,80)" x2="-5" y2="0" stroke="black" stroke-width="1.01" opacity="1"/><line transform="translate(0,40)" x2="-5" y2="0" stroke="black" stroke-width="1.01" opacity="1"/><line transform="translate(0,0)" x2="-5" y2="0" stroke="black" stroke-width="1.01" opacity="1"/></g><g class="mark-text role-axis-label" pointer-events="none"><text text-anchor="end" transform="translate(-7,403)" font-family="sans-serif" font-size="10px" font-style="normal" font-weight="400" fill="black" opacity="1">0.0</text><text text-anchor="end" transform="translate(-7,363)" font-family="sans-serif" font-size="10px" font-style="normal" font-weight="400" fill="black" opacity="1">0.1</text><text text-anchor="end" transform="translate(-7,323)" font-family="sans-serif" font-size="10px" font-style="normal" font-weight="400" fill="black" opacity="1">0.2</text><text text-anchor="end" transform="translate(-7,283)" font-family="sans-serif" font-size="10px" font-style="normal" font-weight="400" fill="black" opacity="1">0.3</text><text text-anchor="end" transform="translate(-7,243)" font-family="sans-serif" font-size="10px" font-style="normal" font-weight="400" fill="black" opacity="1">0.4</text><text text-anchor="end" transform="translate(-7,203)" font-family="sans-serif" font-size="10px" font-style="normal" font-weight="400" fill="black" opacity="1">0.5</text><text text-anchor="end" transform="translate(-7,163)" font-family="sans-serif" font-size="10px" font-style="normal" font-weight="400" fill="black" opacity="1">0.6</text><text text-anchor="end" transform="translate(-7,123.00000000000001)" font-family="sans-serif" font-size="10px" font-style="normal" font-weight="400" fill="black" opacity="1">0.7</text><text text-anchor="end" transform="translate(-7,82.99999999999999)" font-family="sans-serif" font-size="10px" font-style="normal" font-weight="400" fill="black" opacity="1">0.8</text><text text-anchor="end" transform="translate(-7,42.99999999999999)" font-family="sans-serif" font-size="10px" font-style="normal" font-weight="400" fill="black" opacity="1">0.9</text><text text-anchor="end" transform="translate(-7,3)" font-family="sans-serif" font-size="10px" font-style="normal" font-weight="400" fill="black" opacity="1">1.0</text></g><g class="mark-rule role-axis-domain" pointer-events="none"><line transform="translate(0,400)" x2="0" y2="-400" stroke="black" stroke-width="1.01" opacity="1"/></g><g class="mark-text role-axis-title" pointer-events="none"><text text-anchor="middle" transform="translate(-24.9013671875,200) rotate(-90) translate(0,-2)" font-family="sans-serif" font-size="11px" font-style="normal" font-weight="400" fill="black" opacity="1">y</text></g></g><path class="foreground" aria-hidden="true" d="" pointer-events="none" display="none"/></g></g><g class="mark-group role-axis" role="graphics-symbol" aria-roledescription="axis" aria-label="X-axis titled 'group=g1' for a linear scale with values from 0.0 to 1.0"><g transform="translate(0.5,0.5)"><path class="background" aria-hidden="true" d="M0,0h0v0h0Z" pointer-events="none"/><g><g class="mark-text role-axis-title" pointer-events="none"><text text-anchor="middle" transform="translate(200,-2)" font-family="sans-serif" font-size="10px" font-style="normal" font-weight="400" fill="#000" opacity="1">group=g1</text></g></g><path class="foreground" aria-hidden="true" d="" pointer-events="none" display="none"/></g></g><g class="mark-group role-scope" clip-path="url(#clip1)" role="graphics-object" aria-roledescription="group mark container"><g transform="translate(0,0)"><path class="background" aria-hidden="true" d="M0,0h0v0h0Z"/><g><g class="mark-line role-mark" role="graphics-symbol" aria-roledescription="line mark container"><path d="M16,213.69040855363534L28.000000000000004,88.32670105705218L32,394.71763850053946L64,81.48616021293118L72,5.407974629952417L76,326.07241684913595L84,250.86464349998244L88,75.16559387664041L112.00000000000001,185.90774064413714L124,277.4575499495013L128,85.92065334901054L132,21.923362867606944L140,379.1614662530618L144,26.39276340302672L152,371.17967230179795L156,272.0520693604945L160,305.7075546558509L168,151.35763820101747L172,356.6433220152442L192,140.32871379166352L200,195.93009695020876L204,235.44938762965285L208,117.83008491303919L212,130.43413353137825L220.00000000000003,185.33498288002463L224.00000000000003,117.22416620658666L227.99999999999997,114.45097469937129L231.99999999999997,297.1577936572884L240,221.27048915404202L244,10.983854966914164L256,134.09087788374939L260,69.86280993997336L264,210.8483574482575L272,81.1165748890426L284,167.97988433474384L288,87.56287379456644L296,260.48230250262594L300,371.3468431321473L320,115.66619703404415L328,289.9159257383369L332,215.80595973415691L336,26.939835507077305L340,81.75658842273559L356,45.65785466338297L360,127.87064175743951L372,105.84092494570272L388,243.85936545450625L392,121.68337956245577L396,232.8453267217214L400,296.0309673309316" stroke="#f58518" stroke-width="1" stroke-dasharray="0" opacity="1"/></g></g><path class="foreground" aria-hidden="true" d="" display="none"/></g></g><g class="mark-group role-scope" clip-path="url(#clip2)" role="graphics-object" aria-roledescription="group mark container"><g transform="translate(0,0)"><path class="background" aria-hidden="true" d="M0,0h0v0h0Z"/><g><g class="mark-symbol role-mark" role="graphics-symbol" aria-roledescription="symbol mark container"><path transform="translate(16,213.69040855363534)" d="M3.5355339059327378,0A3.5355339059327378,3.5355339059327378,0,1,1,-3.5355339059327378,0A3.5355339059327378,3.5355339059327378,0,1,1,3.5355339059327378,0" fill="white" stroke="#f58518" stroke-width="1" opacity="1"/><path transform="translate(28.000000000000004,88.32670105705218)" d="M3.5355339059327378,0A3.5355339059327378,3.5355339059327378,0,1,1,-3.5355339059327378,0A3.5355339059327378,3.5355339059327378,0,1,1,3.5355339059327378,0" fill="white" stroke="#f58518" stroke-width="1" opacity="1"/><path transform="translate(32,394.71763850053946)" d="M3.5355339059327378,0A3.5355339059327378,3.5355339059327378,0,1,1,-3.5355339059327378,0A3.5355339059327378,3.5355339059327378,0,1,1,3.5355339059327378,0" fill="white" stroke="#f58518" stroke-width="1" opacity="1"/><path transform="translate(64,81.48616021293118)" d="M3.5355339059327378,0A3.5355339059327378,3.5355339059327378,0,1,1,-3.5355339059327378,0A3.5355339059327378,3.5355339059327378,0,1,1,3.5355339059327378,0" fill="white" stroke="#f58518" stroke-width="1" opacity="1"/><path transform="translate(72,5.407974629952417)" d="M3.5355339059327378,0A3.5355339059327378,3.5355339059327378,0,1,1,-3.5355339059327378,0A3.5355339059327378,3.5355339059327378,0,1,1,3.5355339059327378,0" fill="white" stroke="#f58518" stroke-width="1" opacity="1"/><path transform="translate(76,326.07241684913595)" d="M3.5355339059327378,0A3.5355339059327378,3.5355339059327378,0,1,1,-3.5355339059327378,0A3.5355339059327378,3.5355339059327378,0,1,1,3.5355339059327378,0" fill="white" stroke="#f58518" stroke-width="1" opacity="1"/><path transform="translate(84,250.86464349998244)" d="M3.5355339059327378,0A3.5355339059327378,3.5355339059327378,0,1,1,-3.5355339059327378,0A3.5355339059327378,3.5355339059327378,0,1,1,3.5355339059327378,0" fill="white" stroke="#f58518" stroke-width="1" opacity="1"/><path transform="translate(88,75.16559387664041)" d="M3.5355339059327378,0A3.5355339059327378,3.5355339059327378,0,1,1,-3.5355339059327378,0A3.5355339059327378,3.5355339059327378,0,1,1,3.5355339059327378,0" fill="white" stroke="#f58518" stroke-width="1" opacity="1"/><path transform="translate(112.00000000000001,185.90774064413714)" d="M3.5355339059327378,0A3.5355339059327378,3.5355339059327378,0,1,1,-3.5355339059327378,0A3.5355339059327378,3.5355339059327378,0,1,1,3.5355339059327378,0" fill="white" stroke="#f58518" stroke-width="1" opacity="1"/><path transform="translate(124,277.4575499495013)" d="M3.5355339059327378,0A3.5355339059327378,3.5355339059327378,0,1,1,-3.5355339059327378,0A3.5355339059327378,3.5355339059327378,0,1,1,3.5355339059327378,0" fill="white" stroke="#f58518" stroke-width="1" opacity="1"/><path transform="translate(128,85.92065334901054)" d="M3.5355339059327378,0A3.5355339059327378,3.5355339059327378,0,1,1,-3.5355339059327378,0A3.5355339059327378,3.5355339059327378,0,1,1,3.5355339059327378,0" fill="white" stroke="#f58518" stroke-width="1" opacity="1"/><path transform="translate(132,21.923362867606944)" d="M3.5355339059327378,0A3.5355339059327378,3.5355339059327378,0,1,1,-3.5355339059327378,0A3.5355339059327378,3.5355339059327378,0,1,1,3.5355339059327378,0" fill="white" stroke="#f58518" stroke-width="1" opacity="1"/><path transform="translate(140,379.1614662530618)" d="M3.5355339059327378,0A3.5355339059327378,3.5355339059327378,0,1,1,-3.5355339059327378,0A3.5355339059327378,3.5355339059327378,0,1,1,3.5355339059327378,0" fill="white" stroke="#f58518" stroke-width="1" opacity="1"/><path transform="translate(144,26.39276340302672)" d="M3.5355339059327378,0A3.5355339059327378,3.5355339059327378,0,1,1,-3.5355339059327378,0A3.5355339059327378,3.5355339059327378,0,1,1,3.5355339059327378,0" fill="white" stroke="#f58518" stroke-width="1" opacity="1"/><path transform="translate(152,371.17967230179795)" d="M3.5355339059327378,0A3.5355339059327378,3.5355339059327378,0,1,1,-3.5355339059327378,0A3.5355339059327378,3.5355339059327378,0,1,1,3.5355339059327378,0" fill="white" stroke="#f58518" stroke-width="1" opacity="1"/><path transform="translate(156,272.0520693604945)" d="M3.5355339059327378,0A3.5355339059327378,3.5355339059327378,0,1,1,-3.5355339059327378,0A3.5355339059327378,3.5355339059327378,0,1,1,3.5355339059327378,0" fill="white" stroke="#f58518" stroke-width="1" opacity="1"/><path transform="translate(160,305.7075546558509)" d="M3.5355339059327378,0A3.5355339059327378,3.5355339059327378,0,1,1,-3.5355339059327378,0A3.5355339059327378,3.5355339059327378,0,1,1,3.5355339059327378,0" fill="white" stroke="#f58518" stroke-width="1" opacity="1"/><path transform="translate(168,151.35763820101747)" d="M3.5355339059327378,0A3.5355339059327378,3.5355339059327378,0,1,1,-3.5355339059327378,0A3.5355339059327378,3.5355339059327378,0,1,1,3.5355339059327378,0" fill="white" stroke="#f58518" stroke-width="1" opacity="1"/><path transform="translate(172,356.6433220152442)" d="M3.5355339059327378,0A3.5355339059327378,3.5355339059327378,0,1,1,-3.5355339059327378,0A3.5355339059327378,3.5355339059327378,0,1,1,3.5355339059327378,0" fill="white" stroke="#f58518" stroke-width="1" opacity="1"/><path transform="translate(192,140.32871379166352)" d="M3.5355339059327378,0A3.5355339059327378,3.5355339059327378,0,1,1,-3.5355339059327378,0A3.5355339059327378,3.5355339059327378,0,1,1,3.5355339059327378,0" fill="white" stroke="#f58518" stroke-width="1" opacity="1"/><path transform="translate(200,195.93009695020876)" d="M3.5355339059327378,0A3.5355339059327378,3.5355339059327378,0,1,1,-3.5355339059327378,0A3.5355339059327378,3.5355339059327378,0,1,1,3.5355339059327378,0" fill="white" stroke="#f58518" stroke-width="1" opacity="1"/><path transform="translate(204,235.44938762965285)" d="M3.5355339059327378,0A3.5355339059327378,3.5355339059327378,0,1,1,-3.5355339059327378,0A3.5355339059327378,3.5355339059327378,0,1,1,3.5355339059327378,0" fill="white" stroke="#f58518" stroke-width="1" opacity="1"/><path transform="translate(208,117.83008491303919)" d="M3.5355339059327378,0A3.5355339059327378,3.5355339059327378,0,1,1,-3.5355339059327378,0A3.5355339059327378,3.5355339059327378,0,1,1,3.5355339059327378,0" fill="white" stroke="#f58518" stroke-width="1" opacity="1"/><path transform="translate(212,130.43413353137825)" d="M3.5355339059327378,0A3.5355339059327378,3.5355339059327378,0,1,1,-3.5355339059327378,0A3.5355339059327378,3.5355339059327378,0,1,1,3.5355339059327378,0" fill="white" stroke="#f58518" stroke-width="1" opacity="1"/><path transform="translate(220.00000000000003,185.33498288002463)" d="M3.5355339059327378,0A3.5355339059327378,3.5355339059327378,0,1,1,-3.5355339059327378,0A3.5355339059327378,3.5355339059327378,0,1,1,3.5355339059327378,0" fill="white" stroke="#f58518" stroke-width="1" opacity="1"/><path transform="translate(224.00000000000003,117.22416620658666)" d="M3.5355339059327378,0A3.5355339059327378,3.5355339059327378,0,1,1,-3.5355339059327378,0A3.5355339059327378,3.5355339059327378,0,1,1,3.5355339059327378,0" fill="white" stroke="#f58518" stroke-width="1" opacity="1"/><path transform="translate(227.99999999999997,114.45097469937129)" d="M3.5355339059327378,0A3.5355339059327378,3.5355339059327378,0,1,1,-3.5355339059327378,0A3.5355339059327378,3.5355339059327378,0,1,1,3.5355339059327378,0" fill="white" stroke="#f58518" stroke-width="1" opacity="1"/><path transform="translate(231.99999999999997,297.1577936572884)" d="M3.5355339059327378,0A3.5355339059327378,3.5355339059327378,0,1,1,-3.5355339059327378,0A3.5355339059327378,3.5355339059327378,0,1,1,3.5355339059327378,0" fill="white" stroke="#f58518" stroke-width="1" opacity="1"/><path transform="translate(240,221.27048915404202)" d="M3.5355339059327378,0A3.5355339059327378,3.5355339059327378,0,1,1,-3.5355339059327378,0A3.5355339059327378,3.5355339059327378,0,1,1,3.5355339059327378,0" fill="white" stroke="#f58518" stroke-width="1" opacity="1"/><path transform="translate(244,10.983854966914164)" d="M3.5355339059327378,0A3.5355339059327378,3.5355339059327378,0,1,1,-3.5355339059327378,0A3.5355339059327378,3.5355339059327378,0,1,1,3.5355339059327378,0" fill="white" stroke="#f58518" stroke-width="1" opacity="1"/><path transform="translate(256,134.09087788374939)" d="M3.5355339059327378,0A3.5355339059327378,3.5355339059327378,0,1,1,-3.5355339059327378,0A3.5355339059327378,3.5355339059327378,0,1,1,3.5355339059327378,0" fill="white" stroke="#f58518" stroke-width="1" opacity="1"/><path transform="translate(260,69.86280993997336)" d="M3.5355339059327378,0A3.5355339059327378,3.5355339059327378,0,1,1,-3.5355339059327378,0A3.5355339059327378,3.5355339059327378,0,1,1,3.5355339059327378,0" fill="white" stroke="#f58518" stroke-width="1" opacity="1"/><path transform="translate(264,210.8483574482575)" d="M3.5355339059327378,0A3.5355339059327378,3.5355339059327378,0,1,1,-3.5355339059327378,0A3.5355339059327378,3.5355339059327378,0,1,1,3.5355339059327378,0" fill="white" stroke="#f58518" stroke-width="1" opacity="1"/><path transform="translate(272,81.1165748890426)" d="M3.5355339059327378,0A3.5355339059327378,3.5355339059327378,0,1,1,-3.5355339059327378,0A3.5355339059327378,3.5355339059327378,0,1,1,3.5355339059327378,0" fill="white" stroke="#f58518" stroke-width="1" opacity="1"/><path transform="translate(284,167.97988433474384)" d="M3.5355339059327378,0A3.5355339059327378,3.5355339059327378,0,1,1,-3.5355339059327378,0A3.5355339059327378,3.5355339059327378,0,1,1,3.5355339059327378,0" fill="white" stroke="#f58518" stroke-width="1" opacity="1"/><path transform="translate(288,87.56287379456644)" d="M3.5355339059327378,0A3.5355339059327378,3.5355339059327378,0,1,1,-3.5355339059327378,0A3.5355339059327378,3.5355339059327378,0,1,1,3.5355339059327378,0" fill="white" stroke="#f58518" stroke-width="1" opacity="1"/><path transform="translate(296,260.48230250262594)" d="M3.5355339059327378,0A3.5355339059327378,3.5355339059327378,0,1,1,-3.5355339059327378,0A3.5355339059327378,3.5355339059327378,0,1,1,3.5355339059327378,0" fill="white" stroke="#f58518" stroke-width="1" opacity="1"/><path transform="translate(300,371.3468431321473)" d="M3.5355339059327378,0A3.5355339059327378,3.5355339059327378,0,1,1,-3.5355339059327378,0A3.5355339059327378,3.5355339059327378,0,1,1,3.5355339059327378,0" fill="white" stroke="#f58518" stroke-width="1" opacity="1"/><path transform="translate(320,115.66619703404415)" d="M3.5355339059327378,0A3.5355339059327378,3.5355339059327378,0,1,1,-3.5355339059327378,0A3.5355339059327378,3.5355339059327378,0,1,1,3.5355339059327378,0" fill="white" stroke="#f58518" stroke-width="1" opacity="1"/><path transform="translate(328,289.9159257383369)" d="M3.5355339059327378,0A3.5355339059327378,3.5355339059327378,0,1,1,-3.5355339059327378,0A3.5355339059327378,3.5355339059327378,0,1,1,3.5355339059327378,0" fill="white" stroke="#f58518" stroke-width="1" opacity="1"/><path transform="translate(332,215.80595973415691)" d="M3.5355339059327378,0A3.5355339059327378,3.5355339059327378,0,1,1,-3.5355339059327378,0A3.5355339059327378,3.5355339059327378,0,1,1,3.5355339059327378,0" fill="white" stroke="#f58518" stroke-width="1" opacity="1"/><path transform="translate(336,26.939835507077305)" d="M3.5355339059327378,0A3.5355339059327378,3.5355339059327378,0,1,1,-3.5355339059327378,0A3.5355339059327378,3.5355339059327378,0,1,1,3.5355339059327378,0" fill="white" stroke="#f58518" stroke-width="1" opacity="1"/><path transform="translate(340,81.75658842273559)" d="M3.5355339059327378,0A3.5355339059327378,3.5355339059327378,0,1,1,-3.5355339059327378,0A3.5355339059327378,3.5355339059327378,0,1,1,3.5355339059327378,0" fill="white" stroke="#f58518" stroke-width="1" opacity="1"/><path transform="translate(356,45.65785466338297)" d="M3.5355339059327378,0A3.5355339059327378,3.5355339059327378,0,1,1,-3.5355339059327378,0A3.5355339059327378,3.5355339059327378,0,1,1,3.5355339059327378,0" fill="white" stroke="#f58518" stroke-width="1" opacity="1"/><path transform="translate(360,127.87064175743951)" d="M3.5355339059327378,0A3.5355339059327378,3.5355339059327378,0,1,1,-3.5355339059327378,0A3.5355339059327378,3.5355339059327378,0,1,1,3.5355339059327378,0" fill="white" stroke="#f58518" stroke-width="1" opacity="1"/><path transform="translate(372,105.84092494570272)" d="M3.5355339059327378,0A3.5355339059327378,3.5355339059327378,0,1,1,-3.5355339059327378,0A3.5355339059327378,3.5355339059327378,0,1,1,3.5355339059327378,0" fill="white" stroke="#f58518" stroke-width="1" opacity="1"/><path transform="translate(388,243.85936545450625)" d="M3.5355339059327378,0A3.5355339059327378,3.5355339059327378,0,1,1,-3.5355339059327378,0A3.5355339059327378,3.5355339059327378,0,1,1,3.5355339059327378,0" fill="white" stroke="#f58518" stroke-width="1" opacity="1"/><path transform="translate(392,121.68337956245577)" d="M3.5355339059327378,0A3.5355339059327378,3.5355339059327378,0,1,1,-3.5355339059327378,0A3.5355339059327378,3.5355339059327378,0,1,1,3.5355339059327378,0" fill="white" stroke="#f58518" stroke-width="1" opacity="1"/><path transform="translate(396,232.8453267217214)" d="M3.5355339059327378,0A3.5355339059327378,3.5355339059327378,0,1,1,-3.5355339059327378,0A3.5355339059327378,3.5355339059327378,0,1,1,3.5355339059327378,0" fill="white" stroke="#f58518" stroke-width="1" opacity="1"/><path transform="translate(400,296.0309673309316)" d="M3.5355339059327378,0A3.5355339059327378,3.5355339059327378,0,1,1,-3.5355339059327378,0A3.5355339059327378,3.5355339059327378,0,1,1,3.5355339059327378,0" fill="white" stroke="#f58518" stroke-width="1" opacity="1"/></g></g><path class="foreground" aria-hidden="true" d="" display="none"/></g></g></g><path class="foreground" aria-hidden="true" d="" display="none"/></g></g><g class="mark-group role-scope" role="graphics-object" aria-roledescription="group mark container"><g transform="translate(430,0)"><path class="background" aria-hidden="true" d="M0,0h400v400h-400Z" stroke="gray" stroke-width="0.1"/><g><g class="mark-group role-axis" role="graphics-symbol" aria-roledescription="axis" aria-label="X-axis titled 'x' for a linear scale with values from 0 to 100"><g transform="translate(0.5,401.5)"><path class="background" aria-hidden="true" d="M0,0h0v0h0Z" pointer-events="none"/><g><g class="mark-rule role-axis-tick" pointer-events="none"><line transform="translate(0,0)" x2="0" y2="5" stroke="black" stroke-width="1.01" opacity="1"/><line transform="translate(40,0)" x2="0" y2="5" stroke="black" stroke-width="1.01" opacity="1"/><line transform="translate(80,0)" x2="0" y2="5" stroke="black" stroke-width="1.01" opacity="1"/><line transform="translate(120,0)" x2="0" y2="5" stroke="black" stroke-width="1.01" opacity="1"/><line transform="translate(160,0)" x2="0" y2="5" stroke="black" stroke-width="1.01" opacity="1"/><line transform="translate(200,0)" x2="0" y2="5" stroke="black" stroke-width="1.01" opacity="1"/><line transform="translate(240,0)" x2="0" y2="5" stroke="black" stroke-width="1.01" opacity="1"/><line transform="translate(280,0)" x2="0" y2="5" stroke="black" stroke-width="1.01" opacity="1"/><line transform="translate(320,0)" x2="0" y2="5" stroke="black" stroke-width="1.01" opacity="1"/><line transform="translate(360,0)" x2="0" y2="5" stroke="black" stroke-width="1.01" opacity="1"/><line transform="translate(400,0)" x2="0" y2="5" stroke="black" stroke-width="1.01" opacity="1"/></g><g class="mark-text role-axis-label" pointer-events="none"><text text-anchor="middle" transform="translate(0,15)" font-family="sans-serif" font-size="10px" font-style="normal" font-weight="400" fill="black" opacity="1">0</text><text text-anchor="middle" transform="translate(40,15)" font-family="sans-serif" font-size="10px" font-style="normal" font-weight="400" fill="black" opacity="1">10</text><text text-anchor="middle" transform="translate(80,15)" font-family="sans-serif" font-size="10px" font-style="normal" font-weight="400" fill="black" opacity="1">20</text><text text-anchor="middle" transform="translate(120,15)" font-family="sans-serif" font-size="10px" font-style="normal" font-weight="400" fill="black" opacity="1">30</text><text text-anchor="middle" transform="translate(160,15)" font-family="sans-serif" font-size="10px" font-style="normal" font-weight="400" fill="black" opacity="1">40</text><text text-anchor="middle" transform="translate(200,15)" font-family="sans-serif" font-size="10px" font-style="normal" font-weight="400" fill="black" opacity="1">50</text><text text-anchor="middle" transform="translate(240,15)" font-family="sans-serif" font-size="10px" font-style="normal" font-weight="400" fill="black" opacity="1">60</text><text text-anchor="middle" transform="translate(280,15)" font-family="sans-serif" font-size="10px" font-style="normal" font-weight="400" fill="black" opacity="1">70</text><text text-anchor="middle" transform="translate(320,15)" font-family="sans-serif" font-size="10px" font-style="normal" font-weight="400" fill="black" opacity="1">80</text><text text-anchor="middle" transform="translate(360,15)" font-family="sans-serif" font-size="10px" font-style="normal" font-weight="400" fill="black" opacity="1">90</text><text text-anchor="middle" transform="translate(400,15)" font-family="sans-serif" font-size="10px" font-style="normal" font-weight="400" fill="black" opacity="1">100</text></g><g class="mark-rule role-axis-domain" pointer-events="none"><line transform="translate(0,0)" x2="400" y2="0" stroke="black" stroke-width="1.01" opacity="1"/></g><g class="mark-text role-axis-title" pointer-events="none"><text text-anchor="middle" transform="translate(200,30)" font-family="sans-serif" font-size="11px" font-style="normal" font-weight="400" fill="black" opacity="1">x</text></g></g><path class="foreground" aria-hidden="true" d="" pointer-events="none" display="none"/></g></g><g class="mark-group role-axis"><g transform="translate(-0.5,0.5)"><path class="background" aria-hidden="true" d="M0,0h0v0h0Z" pointer-events="none"/><g/><path class="foreground" aria-hidden="true" d="" pointer-events="none" display="none"/></g></g><g class="mark-group role-axis" role="graphics-symbol" aria-roledescription="axis" aria-label="X-axis titled 'group=g2' for a linear scale with values from 0.0 to 1.0"><g transform="translate(0.5,0.5)"><path class="background" aria-hidden="true" d="M0,0h0v0h0Z" pointer-events="none"/><g><g class="mark-text role-axis-title" pointer-events="none"><text text-anchor="middle" transform="translate(200,-2)" font-family="sans-serif" font-size="10px" font-style="normal" font-weight="400" fill="#000" opacity="1">group=g2</text></g></g><path class="foreground" aria-hidden="true" d="" pointer-events="none" display="none"/></g></g><g class="mark-group role-scope" clip-path="url(#clip3)" role="graphics-object" aria-roledescription="group mark container"><g transform="translate(0,0)"><path class="background" aria-hidden="true" d="M0,0h0v0h0Z"/><g><g class="mark-line role-mark" role="graphics-symbol" aria-roledescription="line mark container"><path d="M4,262.30558454343793L8,326.6767657090324L12,217.7719031623897L20,123.72904659297018L24,309.97059661404546L36,162.3730982444379L40,151.2706488040226L44,277.2435669073186L48,185.43808791707855L52,377.9416672606289L56.00000000000001,153.09629090959214L60,267.4991700600565L68,270.7178617936738L80,260.4566825302806L92,140.2204402188993L96,83.25499690593712L100,246.4488161472639L104,11.0853450748722L108,200.26379276078333L115.99999999999999,368.7140156214596L120,64.71588082001145L136,388.7929851569135L148,198.87898943836487L164,14.055397482030907L176,84.19261490906074L180,44.153569068264176L184,180.6122018951762L188,383.0130540249379L196,206.78574420692027L216,25.57014672086808L236,279.51000782452735L248,260.2328475416869L252,202.6680609977491L268,168.2723459423375L276,373.1453141717538L280,186.950562841817L292,99.51691111417426L304,274.7056748654442L308,387.1763185752467L312,376.9022493850994L316,17.99902033737539L324,192.61921836352934L344,155.98859880989755L348,37.06777063874025L352,282.43417510774134L364,207.66580116454853L368,12.441662637671902L376,175.75178877672437L380,276.4503989284616L384,247.04024491870547" stroke="#4c78a8" stroke-width="1" stroke-dasharray="0" opacity="1"/></g></g><path class="foreground" aria-hidden="true" d="" display="none"/></g></g><g class="mark-group role-scope" clip-path="url(#clip4)" role="graphics-object" aria-roledescription="group mark container"><g transform="translate(0,0)"><path class="background" aria-hidden="true" d="M0,0h0v0h0Z"/><g><g class="mark-symbol role-mark" role="graphics-symbol" aria-roledescription="symbol mark container"><path transform="translate(4,262.30558454343793)" d="M3.5355339059327378,0A3.5355339059327378,3.5355339059327378,0,1,1,-3.5355339059327378,0A3.5355339059327378,3.5355339059327378,0,1,1,3.5355339059327378,0" fill="white" stroke="#4c78a8" stroke-width="1" opacity="1"/><path transform="translate(8,326.6767657090324)" d="M3.5355339059327378,0A3.5355339059327378,3.5355339059327378,0,1,1,-3.5355339059327378,0A3.5355339059327378,3.5355339059327378,0,1,1,3.5355339059327378,0" fill="white" stroke="#4c78a8" stroke-width="1" opacity="1"/><path transform="translate(12,217.7719031623897)" d="M3.5355339059327378,0A3.5355339059327378,3.5355339059327378,0,1,1,-3.5355339059327378,0A3.5355339059327378,3.5355339059327378,0,1,1,3.5355339059327378,0" fill="white" stroke="#4c78a8" stroke-width="1" opacity="1"/><path transform="translate(20,123.72904659297018)" d="M3.5355339059327378,0A3.5355339059327378,3.5355339059327378,0,1,1,-3.5355339059327378,0A3.5355339059327378,3.5355339059327378,0,1,1,3.5355339059327378,0" fill="white" stroke="#4c78a8" stroke-width="1" opacity="1"/><path transform="translate(24,309.97059661404546)" d="M3.5355339059327378,0A3.5355339059327378,3.5355339059327378,0,1,1,-3.5355339059327378,0A3.5355339059327378,3.5355339059327378,0,1,1,3.5355339059327378,0" fill="white" stroke="#4c78a8" stroke-width="1" opacity="1"/><path transform="translate(36,162.3730982444379)" d="M3.5355339059327378,0A3.5355339059327378,3.5355339059327378,0,1,1,-3.5355339059327378,0A3.5355339059327378,3.5355339059327378,0,1,1,3.5355339059327378,0" fill="white" stroke="#4c78a8" stroke-width="1" opacity="1"/><path transform="translate(40,151.2706488040226)" d="M3.5355339059327378,0A3.5355339059327378,3.5355339059327378,0,1,1,-3.5355339059327378,0A3.5355339059327378,3.5355339059327378,0,1,1,3.5355339059327378,0" fill="white" stroke="#4c78a8" stroke-width="1" opacity="1"/><path transform="translate(44,277.2435669073186)" d="M3.5355339059327378,0A3.5355339059327378,3.5355339059327378,0,1,1,-3.5355339059327378,0A3.5355339059327378,3.5355339059327378,0,1,1,3.5355339059327378,0" fill="white" stroke="#4c78a8" stroke-width="1" opacity="1"/><path transform="translate(48,185.43808791707855)" d="M3.5355339059327378,0A3.5355339059327378,3.5355339059327378,0,1,1,-3.5355339059327378,0A3.5355339059327378,3.5355339059327378,0,1,1,3.5355339059327378,0" fill="white" stroke="#4c78a8" stroke-width="1" opacity="1"/><path transform="translate(52,377.9416672606289)" d="M3.5355339059327378,0A3.5355339059327378,3.5355339059327378,0,1,1,-3.5355339059327378,0A3.5355339059327378,3.5355339059327378,0,1,1,3.5355339059327378,0" fill="white" stroke="#4c78a8" stroke-width="1" opacity="1"/><path transform="translate(56.00000000000001,153.09629090959214)" d="M3.5355339059327378,0A3.5355339059327378,3.5355339059327378,0,1,1,-3.5355339059327378,0A3.5355339059327378,3.5355339059327378,0,1,1,3.5355339059327378,0" fill="white" stroke="#4c78a8" stroke-width="1" opacity="1"/><path transform="translate(60,267.4991700600565)" d="M3.5355339059327378,0A3.5355339059327378,3.5355339059327378,0,1,1,-3.5355339059327378,0A3.5355339059327378,3.5355339059327378,0,1,1,3.5355339059327378,0" fill="white" stroke="#4c78a8" stroke-width="1" opacity="1"/><path transform="translate(68,270.7178617936738)" d="M3.5355339059327378,0A3.5355339059327378,3.5355339059327378,0,1,1,-3.5355339059327378,0A3.5355339059327378,3.5355339059327378,0,1,1,3.5355339059327378,0" fill="white" stroke="#4c78a8" stroke-width="1" opacity="1"/><path transform="translate(80,260.4566825302806)" d="M3.5355339059327378,0A3.5355339059327378,3.5355339059327378,0,1,1,-3.5355339059327378,0A3.5355339059327378,3.5355339059327378,0,1,1,3.5355339059327378,0" fill="white" stroke="#4c78a8" stroke-width="1" opacity="1"/><path transform="translate(92,140.2204402188993)" d="M3.5355339059327378,0A3.5355339059327378,3.5355339059327378,0,1,1,-3.5355339059327378,0A3.5355339059327378,3.5355339059327378,0,1,1,3.5355339059327378,0" fill="white" stroke="#4c78a8" stroke-width="1" opacity="1"/><path transform="translate(96,83.25499690593712)" d="M3.5355339059327378,0A3.5355339059327378,3.5355339059327378,0,1,1,-3.5355339059327378,0A3.5355339059327378,3.5355339059327378,0,1,1,3.5355339059327378,0" fill="white" stroke="#4c78a8" stroke-width="1" opacity="1"/><path transform="translate(100,246.4488161472639)" d="M3.5355339059327378,0A3.5355339059327378,3.5355339059327378,0,1,1,-3.5355339059327378,0A3.5355339059327378,3.5355339059327378,0,1,1,3.5355339059327378,0" fill="white" stroke="#4c78a8" stroke-width="1" opacity="1"/><path transform="translate(104,11.0853450748722)" d="M3.5355339059327378,0A3.5355339059327378,3.5355339059327378,0,1,1,-3.5355339059327378,0A3.5355339059327378,3.5355339059327378,0,1,1,3.5355339059327378,0" fill="white" stroke="#4c78a8" stroke-width="1" opacity="1"/><path transform="translate(108,200.26379276078333)" d="M3.5355339059327378,0A3.5355339059327378,3.5355339059327378,0,1,1,-3.5355339059327378,0A3.5355339059327378,3.5355339059327378,0,1,1,3.5355339059327378,0" fill="white" stroke="#4c78a8" stroke-width="1" opacity="1"/><path transform="translate(115.99999999999999,368.7140156214596)" d="M3.5355339059327378,0A3.5355339059327378,3.5355339059327378,0,1,1,-3.5355339059327378,0A3.5355339059327378,3.5355339059327378,0,1,1,3.5355339059327378,0" fill="white" stroke="#4c78a8" stroke-width="1" opacity="1"/><path transform="translate(120,64.71588082001145)" d="M3.5355339059327378,0A3.5355339059327378,3.5355339059327378,0,1,1,-3.5355339059327378,0A3.5355339059327378,3.5355339059327378,0,1,1,3.5355339059327378,0" fill="white" stroke="#4c78a8" stroke-width="1" opacity="1"/><path transform="translate(136,388.7929851569135)" d="M3.5355339059327378,0A3.5355339059327378,3.5355339059327378,0,1,1,-3.5355339059327378,0A3.5355339059327378,3.5355339059327378,0,1,1,3.5355339059327378,0" fill="white" stroke="#4c78a8" stroke-width="1" opacity="1"/><path transform="translate(148,198.87898943836487)" d="M3.5355339059327378,0A3.5355339059327378,3.5355339059327378,0,1,1,-3.5355339059327378,0A3.5355339059327378,3.5355339059327378,0,1,1,3.5355339059327378,0" fill="white" stroke="#4c78a8" stroke-width="1" opacity="1"/><path transform="translate(164,14.055397482030907)" d="M3.5355339059327378,0A3.5355339059327378,3.5355339059327378,0,1,1,-3.5355339059327378,0A3.5355339059327378,3.5355339059327378,0,1,1,3.5355339059327378,0" fill="white" stroke="#4c78a8" stroke-width="1" opacity="1"/><path transform="translate(176,84.19261490906074)" d="M3.5355339059327378,0A3.5355339059327378,3.5355339059327378,0,1,1,-3.5355339059327378,0A3.5355339059327378,3.5355339059327378,0,1,1,3.5355339059327378,0" fill="white" stroke="#4c78a8" stroke-width="1" opacity="1"/><path transform="translate(180,44.153569068264176)" d="M3.5355339059327378,0A3.5355339059327378,3.5355339059327378,0,1,1,-3.5355339059327378,0A3.5355339059327378,3.5355339059327378,0,1,1,3.5355339059327378,0" fill="white" stroke="#4c78a8" stroke-width="1" opacity="1"/><path transform="translate(184,180.6122018951762)" d="M3.5355339059327378,0A3.5355339059327378,3.5355339059327378,0,1,1,-3.5355339059327378,0A3.5355339059327378,3.5355339059327378,0,1,1,3.5355339059327378,0" fill="white" stroke="#4c78a8" stroke-width="1" opacity="1"/><path transform="translate(188,383.0130540249379)" d="M3.5355339059327378,0A3.5355339059327378,3.5355339059327378,0,1,1,-3.5355339059327378,0A3.5355339059327378,3.5355339059327378,0,1,1,3.5355339059327378,0" fill="white" stroke="#4c78a8" stroke-width="1" opacity="1"/><path transform="translate(196,206.78574420692027)" d="M3.5355339059327378,0A3.5355339059327378,3.5355339059327378,0,1,1,-3.5355339059327378,0A3.5355339059327378,3.5355339059327378,0,1,1,3.5355339059327378,0" fill="white" stroke="#4c78a8" stroke-width="1" opacity="1"/><path transform="translate(216,25.57014672086808)" d="M3.5355339059327378,0A3.5355339059327378,3.5355339059327378,0,1,1,-3.5355339059327378,0A3.5355339059327378,3.5355339059327378,0,1,1,3.5355339059327378,0" fill="white" stroke="#4c78a8" stroke-width="1" opacity="1"/><path transform="translate(236,279.51000782452735)" d="M3.5355339059327378,0A3.5355339059327378,3.5355339059327378,0,1,1,-3.5355339059327378,0A3.5355339059327378,3.5355339059327378,0,1,1,3.5355339059327378,0" fill="white" stroke="#4c78a8" stroke-width="1" opacity="1"/><path transform="translate(248,260.2328475416869)" d="M3.5355339059327378,0A3.5355339059327378,3.5355339059327378,0,1,1,-3.5355339059327378,0A3.5355339059327378,3.5355339059327378,0,1,1,3.5355339059327378,0" fill="white" stroke="#4c78a8" stroke-width="1" opacity="1"/><path transform="translate(252,202.6680609977491)" d="M3.5355339059327378,0A3.5355339059327378,3.5355339059327378,0,1,1,-3.5355339059327378,0A3.5355339059327378,3.5355339059327378,0,1,1,3.5355339059327378,0" fill="white" stroke="#4c78a8" stroke-width="1" opacity="1"/><path transform="translate(268,168.2723459423375)" d="M3.5355339059327378,0A3.5355339059327378,3.5355339059327378,0,1,1,-3.5355339059327378,0A3.5355339059327378,3.5355339059327378,0,1,1,3.5355339059327378,0" fill="white" stroke="#4c78a8" stroke-width="1" opacity="1"/><path transform="translate(276,373.1453141717538)" d="M3.5355339059327378,0A3.5355339059327378,3.5355339059327378,0,1,1,-3.5355339059327378,0A3.5355339059327378,3.5355339059327378,0,1,1,3.5355339059327378,0" fill="white" stroke="#4c78a8" stroke-width="1" opacity="1"/><path transform="translate(280,186.950562841817)" d="M3.5355339059327378,0A3.5355339059327378,3.5355339059327378,0,1,1,-3.5355339059327378,0A3.5355339059327378,3.5355339059327378,0,1,1,3.5355339059327378,0" fill="white" stroke="#4c78a8" stroke-width="1" opacity="1"/><path transform="translate(292,99.51691111417426)" d="M3.5355339059327378,0A3.5355339059327378,3.5355339059327378,0,1,1,-3.5355339059327378,0A3.5355339059327378,3.5355339059327378,0,1,1,3.5355339059327378,0" fill="white" stroke="#4c78a8" stroke-width="1" opacity="1"/><path transform="translate(304,274.7056748654442)" d="M3.5355339059327378,0A3.5355339059327378,3.5355339059327378,0,1,1,-3.5355339059327378,0A3.5355339059327378,3.5355339059327378,0,1,1,3.5355339059327378,0" fill="white" stroke="#4c78a8" stroke-width="1" opacity="1"/><path transform="translate(308,387.1763185752467)" d="M3.5355339059327378,0A3.5355339059327378,3.5355339059327378,0,1,1,-3.5355339059327378,0A3.5355339059327378,3.5355339059327378,0,1,1,3.5355339059327378,0" fill="white" stroke="#4c78a8" stroke-width="1" opacity="1"/><path transform="translate(312,376.9022493850994)" d="M3.5355339059327378,0A3.5355339059327378,3.5355339059327378,0,1,1,-3.5355339059327378,0A3.5355339059327378,3.5355339059327378,0,1,1,3.5355339059327378,0" fill="white" stroke="#4c78a8" stroke-width="1" opacity="1"/><path transform="translate(316,17.99902033737539)" d="M3.5355339059327378,0A3.5355339059327378,3.5355339059327378,0,1,1,-3.5355339059327378,0A3.5355339059327378,3.5355339059327378,0,1,1,3.5355339059327378,0" fill="white" stroke="#4c78a8" stroke-width="1" opacity="1"/><path transform="translate(324,192.61921836352934)" d="M3.5355339059327378,0A3.5355339059327378,3.5355339059327378,0,1,1,-3.5355339059327378,0A3.5355339059327378,3.5355339059327378,0,1,1,3.5355339059327378,0" fill="white" stroke="#4c78a8" stroke-width="1" opacity="1"/><path transform="translate(344,155.98859880989755)" d="M3.5355339059327378,0A3.5355339059327378,3.5355339059327378,0,1,1,-3.5355339059327378,0A3.5355339059327378,3.5355339059327378,0,1,1,3.5355339059327378,0" fill="white" stroke="#4c78a8" stroke-width="1" opacity="1"/><path transform="translate(348,37.06777063874025)" d="M3.5355339059327378,0A3.5355339059327378,3.5355339059327378,0,1,1,-3.5355339059327378,0A3.5355339059327378,3.5355339059327378,0,1,1,3.5355339059327378,0" fill="white" stroke="#4c78a8" stroke-width="1" opacity="1"/><path transform="translate(352,282.43417510774134)" d="M3.5355339059327378,0A3.5355339059327378,3.5355339059327378,0,1,1,-3.5355339059327378,0A3.5355339059327378,3.5355339059327378,0,1,1,3.5355339059327378,0" fill="white" stroke="#4c78a8" stroke-width="1" opacity="1"/><path transform="translate(364,207.66580116454853)" d="M3.5355339059327378,0A3.5355339059327378,3.5355339059327378,0,1,1,-3.5355339059327378,0A3.5355339059327378,3.5355339059327378,0,1,1,3.5355339059327378,0" fill="white" stroke="#4c78a8" stroke-width="1" opacity="1"/><path transform="translate(368,12.441662637671902)" d="M3.5355339059327378,0A3.5355339059327378,3.5355339059327378,0,1,1,-3.5355339059327378,0A3.5355339059327378,3.5355339059327378,0,1,1,3.5355339059327378,0" fill="white" stroke="#4c78a8" stroke-width="1" opacity="1"/><path transform="translate(376,175.75178877672437)" d="M3.5355339059327378,0A3.5355339059327378,3.5355339059327378,0,1,1,-3.5355339059327378,0A3.5355339059327378,3.5355339059327378,0,1,1,3.5355339059327378,0" fill="white" stroke="#4c78a8" stroke-width="1" opacity="1"/><path transform="translate(380,276.4503989284616)" d="M3.5355339059327378,0A3.5355339059327378,3.5355339059327378,0,1,1,-3.5355339059327378,0A3.5355339059327378,3.5355339059327378,0,1,1,3.5355339059327378,0" fill="white" stroke="#4c78a8" stroke-width="1" opacity="1"/><path transform="translate(384,247.04024491870547)" d="M3.5355339059327378,0A3.5355339059327378,3.5355339059327378,0,1,1,-3.5355339059327378,0A3.5355339059327378,3.5355339059327378,0,1,1,3.5355339059327378,0" fill="white" stroke="#4c78a8" stroke-width="1" opacity="1"/></g></g><path class="foreground" aria-hidden="true" d="" display="none"/></g></g></g><path class="foreground" aria-hidden="true" d="" display="none"/></g></g></g><path class="foreground" aria-hidden="true" d="" display="none"/></g></g><g class="mark-group role-legend" role="graphics-symbol" aria-roledescription="legend" aria-label="Symbol legend titled 'group' for stroke color with 2 values: g2, g1"><g transform="translate(857,0)"><path class="background" aria-hidden="true" d="M0,0h29v39h-29Z" pointer-events="none"/><g><g class="mark-group role-legend-entry"><g transform="translate(0,16)"><path class="background" aria-hidden="true" d="M0,0h0v0h0Z" pointer-events="none"/><g><g class="mark-group role-scope" role="graphics-object" aria-roledescription="group mark container"><g transform="translate(0,0)"><path class="background" aria-hidden="true" d="M0,0h27.123046875v11h-27.123046875Z" pointer-events="none" opacity="1"/><g><g class="mark-symbol role-legend-symbol" pointer-events="none"><path transform="translate(6,6)" d="M-5,0L5,0" stroke="#4c78a8" stroke-width="1.5" stroke-dasharray="0" opacity="1"/></g><g class="mark-text role-legend-label" pointer-events="none"><text text-anchor="start" transform="translate(16,9)" font-family="sans-serif" font-size="10px" font-style="normal" font-weight="400" fill="#000" opacity="1">g2</text></g></g><path class="foreground" aria-hidden="true" d="" pointer-events="none" display="none"/></g><g transform="translate(0,12)"><path class="background" aria-hidden="true" d="M0,0h27.123046875v11h-27.123046875Z" pointer-events="none" opacity="1"/><g><g class="mark-symbol role-legend-symbol" pointer-events="none"><path transform="translate(6,6)" d="M-5,0L5,0" stroke="#f58518" stroke-width="1.5" stroke-dasharray="0" opacity="1"/></g><g class="mark-text role-legend-label" pointer-events="none"><text text-anchor="start" transform="translate(16,9)" font-family="sans-serif" font-size="10px" font-style="normal" font-weight="400" fill="#000" opacity="1">g1</text></g></g><path class="foreground" aria-hidden="true" d="" pointer-events="none" display="none"/></g></g></g><path class="foreground" aria-hidden="true" d="" pointer-events="none" display="none"/></g></g><g class="mark-text role-legend-title" pointer-events="none"><text text-anchor="start" transform="translate(0,9)" font-family="sans-serif" font-size="11px" font-style="normal" font-weight="400" fill="#000" opacity="1">group</text></g></g><path class="foreground" aria-hidden="true" d="" pointer-events="none" display="none"/></g></g></g><path class="foreground" aria-hidden="true" d="" display="none"/></g></g></g><defs><clipPath id="clip1"><rect x="0" y="0" width="400" height="400"/></clipPath><clipPath id="clip2"><rect x="0" y="0" width="400" height="400"/></clipPath><clipPath id="clip3"><rect x="0" y="0" width="400" height="400"/></clipPath><clipPath id="clip4"><rect x="0" y="0" width="400" height="400"/></clipPath></defs></svg>