<svg xmlns="http://www.w3.org/2000/svg" xmlns:xlink="http://www.w3.org/1999/xlink" version="1.1" class="marks" width="123" height="122" viewBox="0 0 123 122"><rect width="123" height="122" fill="white"/><g fill="none" stroke-miterlimit="10" transform="translate(22,5)"><g class="mark-group role-frame root" role="graphics-object" aria-roledescription="group mark container"><g transform="translate(0,0)"><path class="background" aria-hidden="true" d="M0,0h100v100h-100Z"/><g><g class="mark-group role-axis" role="graphics-symbol" aria-roledescription="axis" aria-label="X-axis for a discrete scale with 1 value: variable(s)"><g transform="translate(0.5,100.5)"><path class="background" aria-hidden="true" d="M0,0h0v0h0Z" pointer-events="none"/><g><g class="mark-rule role-axis-tick" pointer-events="none"><line transform="translate(50,0)" x2="0" y2="5" stroke="white" stroke-width="1.01" opacity="1"/></g><g class="mark-text role-axis-label" pointer-events="none"><text text-anchor="middle" transform="translate(49.5,15)" font-family="sans-serif" font-size="10px" font-style="normal" font-weight="400" fill="black" opacity="1">variable(s)</text></g></g><path class="foreground" aria-hidden="true" d="" pointer-events="none" display="none"/></g></g><g class="mark-group role-axis" role="graphics-symbol" aria-roledescription="axis" aria-label="Y-axis for a linear scale with values from −5 to 5"><g transform="translate(0.5,0.5)"><path class="background" aria-hidden="true" d="M0,0h0v0h0Z" pointer-events="none"/><g><g class="mark-rule role-axis-tick" pointer-events="none"><line transform="translate(0,100)" x2="-5" y2="0" stroke="white" stroke-width="1.01" opacity="1"/><line transform="translate(0,50)" x2="-5" y2="0" stroke="white" stroke-width="1.01" opacity="1"/><line transform="translate(0,0)" x2="-5" y2="0" stroke="white" stroke-width="1.01" opacity="1"/></g><g class="mark-text role-axis-label" pointer-events="none"><text text-anchor="end" transform="translate(-7,103)" font-family="sans-serif" font-size="10px" font-style="normal" font-weight="400" fill="white" opacity="1">−5</text><text text-anchor="end" transform="translate(-7,53)" font-family="sans-serif" font-size="10px" font-style="normal" font-weight="400" fill="white" opacity="1">0</text><text text-anchor="end" transform="translate(-7,3)" font-family="sans-serif" font-size="10px" font-style="normal" font-weight="400" fill="white" opacity="1">5</text></g></g><path class="foreground" aria-hidden="true" d="" pointer-events="none" display="none"/></g></g><g class="mark-group role-scope" role="graphics-object" aria-roledescription="group mark container"><g transform="translate(0,0)"><path class="background" aria-hidden="true" d="M0,0h0v0h0Z"/><g><g class="mark-group role-scope" role="graphics-object" aria-roledescription="group mark container"><g transform="translate(0,0)"><path class="background" aria-hidden="true" d="M0,0h24.050632911392405v100h-24.050632911392405Z"/><g><g class="mark-area role-mark" role="graphics-symbol" aria-roledescription="area mark container"><path d="M12.029,93.565L12.031,92.669L12.036,91.774L12.044,90.878L12.055,89.982L12.072,89.086L12.094,88.191L12.123,87.295L12.157,86.399L12.196,85.503L12.236,84.608L12.274,83.712L12.308,82.816L12.335,81.92L12.354,81.025L12.366,80.129L12.376,79.233L12.387,78.337L12.406,77.442L12.439,76.546L12.49,75.65L12.561,74.754L12.652,73.859L12.762,72.963L12.888,72.067L13.028,71.171L13.18,70.276L13.348,69.38L13.535,68.484L13.751,67.588L14.004,66.693L14.304,65.797L14.66,64.901L15.079,64.005L15.562,63.11L16.11,62.214L16.717,61.318L17.375,60.422L18.075,59.526L18.804,58.631L19.543,57.735L20.274,56.839L20.973,55.943L21.619,55.048L22.19,54.152L22.673,53.256L23.061,52.36L23.356,51.465L23.569,50.569L23.713,49.673L23.802,48.777L23.843,47.882L23.835,46.986L23.768,46.09L23.628,45.194L23.401,44.299L23.079,43.403L22.664,42.507L22.169,41.611L21.618,40.716L21.034,39.82L20.44,38.924L19.851,38.028L19.27,37.133L18.694,36.237L18.112,35.341L17.515,34.445L16.901,33.55L16.273,32.654L15.644,31.758L15.033,30.862L14.46,29.967L13.942,29.071L13.494,28.175L13.123,27.279L12.83,26.384L12.611,25.488L12.457,24.592L12.358,23.696L12.304,22.801L12.282,21.905L12.283,21.009L12.296,20.113L12.312,19.218L12.324,18.322L12.327,17.426L12.318,16.53L12.298,15.635L12.269,14.739L12.233,13.843L12.194,12.947L12.156,12.052L12.123,11.156L12.094,10.26L12.072,9.364L12.055,8.469L12.044,7.573L12.036,6.677L12.031,5.781L12.029,4.886L12.022,4.886L12.019,5.781L12.014,6.677L12.007,7.573L11.995,8.469L11.979,9.364L11.956,10.26L11.928,11.156L11.894,12.052L11.857,12.947L11.818,13.843L11.782,14.739L11.752,15.635L11.732,16.53L11.724,17.426L11.727,18.322L11.739,19.218L11.755,20.113L11.768,21.009L11.768,21.905L11.747,22.801L11.693,23.696L11.594,24.592L11.44,25.488L11.22,26.384L10.927,27.279L10.556,28.175L10.108,29.071L9.591,29.967L9.018,30.862L8.406,31.758L7.778,32.654L7.15,33.55L6.535,34.445L5.939,35.341L5.357,36.237L4.78,37.133L4.2,38.028L3.611,38.924L3.017,39.82L2.433,40.716L1.881,41.611L1.387,42.507L0.972,43.403L0.649,44.299L0.422,45.194L0.282,46.09L0.216,46.986L0.208,47.882L0.249,48.777L0.338,49.673L0.482,50.569L0.694,51.465L0.99,52.36L1.377,53.256L1.86,54.152L2.432,55.048L3.078,55.943L3.777,56.839L4.508,57.735L5.247,58.631L5.975,59.526L6.675,60.422L7.334,61.318L7.941,62.214L8.488,63.11L8.972,64.005L9.39,64.901L9.747,65.797L10.047,66.693L10.3,67.588L10.515,68.484L10.703,69.38L10.87,70.276L11.023,71.171L11.163,72.067L11.288,72.963L11.398,73.859L11.49,74.754L11.561,75.65L11.611,76.546L11.644,77.442L11.664,78.337L11.675,79.233L11.684,80.129L11.697,81.025L11.716,81.92L11.743,82.816L11.777,83.712L11.815,84.608L11.855,85.503L11.893,86.399L11.928,87.295L11.956,88.191L11.979,89.086L11.995,89.982L12.007,90.878L12.014,91.774L12.019,92.669L12.022,93.565Z" fill="#4c78a8" fill-opacity="0.5" stroke="#4c78a8" stroke-width="1"/></g></g><path class="foreground" aria-hidden="true" d="" display="none"/></g><g transform="translate(25.31645569620253,0)"><path class="background" aria-hidden="true" d="M0,0h24.050632911392405v100h-24.050632911392405Z"/><g><g class="mark-area role-mark" role="graphics-symbol" aria-roledescription="area mark container"><path d="M12.036,81.168L12.043,80.445L12.056,79.721L12.075,78.997L12.104,78.274L12.148,77.55L12.21,76.827L12.297,76.103L12.415,75.379L12.57,74.656L12.767,73.932L13.012,73.209L13.306,72.485L13.651,71.761L14.042,71.038L14.475,70.314L14.94,69.591L15.428,68.867L15.927,68.143L16.426,67.42L16.915,66.696L17.385,65.973L17.832,65.249L18.251,64.525L18.642,63.802L19.005,63.078L19.339,62.355L19.645,61.631L19.924,60.907L20.173,60.184L20.392,59.46L20.582,58.737L20.744,58.013L20.88,57.289L20.996,56.566L21.1,55.842L21.201,55.119L21.309,54.395L21.434,53.671L21.585,52.948L21.764,52.224L21.973,51.501L22.205,50.777L22.45,50.053L22.69,49.33L22.906,48.606L23.076,47.883L23.179,47.159L23.199,46.435L23.122,45.712L22.944,44.988L22.665,44.265L22.294,43.541L21.842,42.817L21.327,42.094L20.767,41.37L20.179,40.647L19.579,39.923L18.982,39.199L18.397,38.476L17.832,37.752L17.292,37.029L16.778,36.305L16.292,35.581L15.835,34.858L15.406,34.134L15.006,33.411L14.636,32.687L14.298,31.963L13.992,31.24L13.719,30.516L13.481,29.793L13.277,29.069L13.105,28.345L12.964,27.622L12.849,26.898L12.757,26.175L12.683,25.451L12.623,24.727L12.574,24.004L12.53,23.28L12.489,22.557L12.45,21.833L12.409,21.109L12.368,20.386L12.326,19.662L12.284,18.939L12.243,18.215L12.204,17.491L12.168,16.768L12.137,16.044L12.11,15.321L12.088,14.597L12.07,13.873L12.057,13.15L12.046,12.426L12.039,11.703L12.034,10.979L12.031,10.255L12.029,9.532L12.022,9.532L12.02,10.255L12.016,10.979L12.011,11.703L12.004,12.426L11.994,13.15L11.98,13.873L11.963,14.597L11.941,15.321L11.914,16.044L11.882,16.768L11.847,17.491L11.808,18.215L11.767,18.939L11.725,19.662L11.682,20.386L11.641,21.109L11.601,21.833L11.561,22.557L11.521,23.28L11.477,24.004L11.427,24.727L11.368,25.451L11.294,26.175L11.202,26.898L11.087,27.622L10.945,28.345L10.774,29.069L10.569,29.793L10.331,30.516L10.059,31.24L9.753,31.963L9.414,32.687L9.045,33.411L8.645,34.134L8.216,34.858L7.758,35.581L7.273,36.305L6.759,37.029L6.218,37.752L5.653,38.476L5.069,39.199L4.471,39.923L3.872,40.647L3.284,41.37L2.723,42.094L2.208,42.817L1.757,43.541L1.385,44.265L1.107,44.988L0.928,45.712L0.852,46.435L0.871,47.159L0.975,47.883L1.145,48.606L1.361,49.33L1.601,50.053L1.845,50.777L2.078,51.501L2.286,52.224L2.466,52.948L2.616,53.671L2.742,54.395L2.85,55.119L2.951,55.842L3.055,56.566L3.171,57.289L3.307,58.013L3.469,58.737L3.658,59.46L3.878,60.184L4.127,60.907L4.405,61.631L4.711,62.355L5.046,63.078L5.408,63.802L5.799,64.525L6.219,65.249L6.666,65.973L7.136,66.696L7.625,67.42L8.124,68.143L8.623,68.867L9.111,69.591L9.576,70.314L10.009,71.038L10.4,71.761L10.744,72.485L11.039,73.209L11.283,73.932L11.481,74.656L11.636,75.379L11.753,76.103L11.84,76.827L11.903,77.55L11.946,78.274L11.976,78.997L11.995,79.721L12.007,80.445L12.015,81.168Z" fill="#f58518" fill-opacity="0.5" stroke="#f58518" stroke-width="1"/></g></g><path class="foreground" aria-hidden="true" d="" display="none"/></g><g transform="translate(50.63291139240506,0)"><path class="background" aria-hidden="true" d="M0,0h24.050632911392405v100h-24.050632911392405Z"/><g><g class="mark-area role-mark" role="graphics-symbol" aria-roledescription="area mark container"><path d="M12.028,93.368L12.03,92.496L12.033,91.625L12.037,90.754L12.043,89.882L12.052,89.011L12.064,88.139L12.08,87.268L12.1,86.397L12.124,85.525L12.154,84.654L12.19,83.782L12.231,82.911L12.279,82.039L12.333,81.168L12.396,80.297L12.468,79.425L12.554,78.554L12.657,77.682L12.78,76.811L12.929,75.939L13.108,75.068L13.32,74.197L13.57,73.325L13.858,72.454L14.184,71.582L14.546,70.711L14.941,69.839L15.362,68.968L15.806,68.097L16.264,67.225L16.732,66.354L17.202,65.482L17.669,64.611L18.127,63.74L18.57,62.868L18.993,61.997L19.391,61.125L19.76,60.254L20.095,59.382L20.395,58.511L20.657,57.64L20.88,56.768L21.064,55.897L21.21,55.025L21.316,54.154L21.383,53.282L21.409,52.411L21.394,51.54L21.336,50.668L21.236,49.797L21.096,48.925L20.918,48.054L20.709,47.182L20.475,46.311L20.224,45.44L19.962,44.568L19.698,43.697L19.435,42.825L19.175,41.954L18.92,41.083L18.666,40.211L18.41,39.34L18.146,38.468L17.87,37.597L17.579,36.725L17.271,35.854L16.95,34.983L16.619,34.111L16.286,33.24L15.957,32.368L15.641,31.497L15.344,30.625L15.07,29.754L14.82,28.883L14.593,28.011L14.385,27.14L14.193,26.268L14.009,25.397L13.831,24.525L13.654,23.654L13.477,22.783L13.301,21.911L13.127,21.04L12.959,20.168L12.8,19.297L12.654,18.426L12.525,17.554L12.412,16.683L12.318,15.811L12.241,14.94L12.18,14.068L12.134,13.197L12.099,12.326L12.074,11.454L12.057,10.583L12.045,9.711L12.038,8.84L12.033,7.968L12.03,7.097L12.021,7.097L12.018,7.968L12.013,8.84L12.005,9.711L11.994,10.583L11.976,11.454L11.951,12.326L11.917,13.197L11.87,14.068L11.81,14.94L11.733,15.811L11.639,16.683L11.526,17.554L11.396,18.426L11.251,19.297L11.092,20.168L10.924,21.04L10.75,21.911L10.574,22.783L10.397,23.654L10.22,24.525L10.041,25.397L9.858,26.268L9.665,27.14L9.458,28.011L9.231,28.883L8.981,29.754L8.707,30.625L8.409,31.497L8.093,32.368L7.765,33.24L7.431,34.111L7.1,34.983L6.779,35.854L6.472,36.725L6.181,37.597L5.905,38.468L5.641,39.34L5.384,40.211L5.13,41.083L4.875,41.954L4.616,42.825L4.353,43.697L4.088,44.568L3.827,45.44L3.575,46.311L3.341,47.182L3.132,48.054L2.955,48.925L2.815,49.797L2.715,50.668L2.657,51.54L2.641,52.411L2.667,53.282L2.734,54.154L2.841,55.025L2.986,55.897L3.171,56.768L3.394,57.64L3.656,58.511L3.955,59.382L4.291,60.254L4.66,61.125L5.058,61.997L5.481,62.868L5.924,63.74L6.382,64.611L6.848,65.482L7.319,66.354L7.786,67.225L8.245,68.097L8.688,68.968L9.11,69.839L9.504,70.711L9.866,71.582L10.192,72.454L10.48,73.325L10.73,74.197L10.943,75.068L11.122,75.939L11.271,76.811L11.394,77.682L11.496,78.554L11.582,79.425L11.655,80.297L11.718,81.168L11.772,82.039L11.819,82.911L11.861,83.782L11.896,84.654L11.926,85.525L11.951,86.397L11.971,87.268L11.987,88.139L11.999,89.011L12.007,89.882L12.013,90.754L12.018,91.625L12.021,92.496L12.023,93.368Z" fill="#e45756" fill-opacity="0.5" stroke="#e45756" stroke-width="1"/></g></g><path class="foreground" aria-hidden="true" d="" display="none"/></g><g transform="translate(75.9493670886076,0)"><path class="background" aria-hidden="true" d="M0,0h24.050632911392405v100h-24.050632911392405Z"/><g><g class="mark-area role-mark" role="graphics-symbol" aria-roledescription="area mark container"><path d="M12.029,90.91L12.031,90.177L12.035,89.444L12.042,88.711L12.05,87.977L12.063,87.244L12.08,86.511L12.101,85.778L12.128,85.045L12.159,84.312L12.193,83.579L12.229,82.846L12.265,82.113L12.297,81.38L12.323,80.647L12.341,79.914L12.351,79.18L12.352,78.447L12.347,77.714L12.338,76.981L12.33,76.248L12.329,75.515L12.339,74.782L12.367,74.049L12.419,73.316L12.498,72.583L12.608,71.85L12.754,71.117L12.936,70.383L13.156,69.65L13.415,68.917L13.711,68.184L14.042,67.451L14.404,66.718L14.793,65.985L15.201,65.252L15.623,64.519L16.052,63.786L16.481,63.053L16.908,62.32L17.327,61.586L17.74,60.853L18.145,60.12L18.543,59.387L18.936,58.654L19.323,57.921L19.703,57.188L20.074,56.455L20.432,55.722L20.772,54.989L21.092,54.256L21.388,53.523L21.66,52.789L21.911,52.056L22.144,51.323L22.366,50.59L22.585,49.857L22.806,49.124L23.032,48.391L23.261,47.658L23.487,46.925L23.696,46.192L23.872,45.459L23.996,44.725L24.051,43.992L24.02,43.259L23.896,42.526L23.676,41.793L23.363,41.06L22.965,40.327L22.492,39.594L21.956,38.861L21.366,38.128L20.731,37.395L20.058,36.662L19.355,35.928L18.632,35.195L17.899,34.462L17.17,33.729L16.46,32.996L15.784,32.263L15.156,31.53L14.587,30.797L14.084,30.064L13.65,29.331L13.285,28.598L12.985,27.865L12.743,27.131L12.553,26.398L12.405,25.665L12.294,24.932L12.212,24.199L12.152,23.466L12.109,22.733L12.079,22L12.059,21.267L12.046,20.534L12.038,19.801L12.033,19.068L12.029,18.334L12.021,18.334L12.018,19.068L12.013,19.801L12.004,20.534L11.991,21.267L11.971,22L11.942,22.733L11.899,23.466L11.839,24.199L11.757,24.932L11.645,25.665L11.498,26.398L11.308,27.131L11.066,27.865L10.766,28.598L10.401,29.331L9.967,30.064L9.464,30.797L8.895,31.53L8.267,32.263L7.591,32.996L6.881,33.729L6.152,34.462L5.419,35.195L4.695,35.928L3.993,36.662L3.32,37.395L2.685,38.128L2.095,38.861L1.558,39.594L1.086,40.327L0.687,41.06L0.374,41.793L0.154,42.526L0.03,43.259L0,43.992L0.054,44.725L0.178,45.459L0.354,46.192L0.564,46.925L0.789,47.658L1.019,48.391L1.245,49.124L1.465,49.857L1.684,50.59L1.907,51.323L2.14,52.056L2.39,52.789L2.663,53.523L2.959,54.256L3.279,54.989L3.619,55.722L3.977,56.455L4.347,57.188L4.727,57.921L5.115,58.654L5.507,59.387L5.906,60.12L6.311,60.853L6.723,61.586L7.143,62.32L7.569,63.053L7.999,63.786L8.428,64.519L8.849,65.252L9.258,65.985L9.646,66.718L10.009,67.451L10.34,68.184L10.636,68.917L10.894,69.65L11.115,70.383L11.297,71.117L11.442,71.85L11.553,72.583L11.632,73.316L11.683,74.049L11.711,74.782L11.722,75.515L11.721,76.248L11.713,76.981L11.704,77.714L11.699,78.447L11.7,79.18L11.709,79.914L11.728,80.647L11.754,81.38L11.786,82.113L11.821,82.846L11.857,83.579L11.892,84.312L11.923,85.045L11.949,85.778L11.971,86.511L11.988,87.244L12,87.977L12.009,88.711L12.015,89.444L12.019,90.177L12.022,90.91Z" fill="#72b7b2" fill-opacity="0.5" stroke="#72b7b2" stroke-width="1"/></g></g><path class="foreground" aria-hidden="true" d="" display="none"/></g></g></g><path class="foreground" aria-hidden="true" d="" display="none"/></g></g></g><path class="foreground" aria-hidden="true" d="" display="none"/></g></g></g></svg>