<svg xmlns="http://www.w3.org/2000/svg" xmlns:xlink="http://www.w3.org/1999/xlink" version="1.1" class="marks" width="187" height="137" viewBox="0 0 187 137"><rect width="187" height="137" fill="white"/><g fill="none" stroke-miterlimit="10" transform="translate(37,5)"><g class="mark-group role-frame root" role="graphics-object" aria-roledescription="group mark container"><g transform="translate(0,0)"><path class="background" aria-hidden="true" d="M0,0h100v100h-100Z" fill="lightgray"/><g><g class="mark-group role-axis" role="graphics-symbol" aria-roledescription="axis" aria-label="X-axis titled 'x' for a linear scale with values from 0.0 to 1.0"><g transform="translate(0.5,100.5)"><path class="background" aria-hidden="true" d="M0,0h0v0h0Z" pointer-events="none"/><g><g class="mark-rule role-axis-grid" pointer-events="none"><line transform="translate(0,0)" x2="0" y2="-100" stroke="white" stroke-width="0.5" stroke-dasharray="0" opacity="1"/><line transform="translate(50,0)" x2="0" y2="-100" stroke="white" stroke-width="0.5" stroke-dasharray="0" opacity="1"/><line transform="translate(100,0)" x2="0" y2="-100" stroke="white" stroke-width="0.5" stroke-dasharray="0" opacity="1"/></g><g class="mark-rule role-axis-tick" pointer-events="none"><line transform="translate(0,0)" x2="0" y2="5" stroke="black" stroke-width="1.01" opacity="1"/><line transform="translate(50,0)" x2="0" y2="5" stroke="black" stroke-width="1.01" opacity="1"/><line transform="translate(100,0)" x2="0" y2="5" stroke="black" stroke-width="1.01" opacity="1"/></g><g class="mark-text role-axis-label" pointer-events="none"><text text-anchor="middle" transform="translate(0,15)" font-family="sans-serif" font-size="10px" font-style="normal" font-weight="400" fill="black" opacity="1">0.0</text><text text-anchor="middle" transform="translate(50,15)" font-family="sans-serif" font-size="10px" font-style="normal" font-weight="400" fill="black" opacity="1">0.5</text><text text-anchor="middle" transform="translate(100,15)" font-family="sans-serif" font-size="10px" font-style="normal" font-weight="400" fill="black" opacity="1">1.0</text></g><g class="mark-rule role-axis-domain" pointer-events="none"><line transform="translate(0,0)" x2="100" y2="0" stroke="black" stroke-width="1.01" opacity="1"/></g><g class="mark-text role-axis-title" pointer-events="none"><text text-anchor="middle" transform="translate(50,30)" font-family="sans-serif" font-size="11px" font-style="normal" font-weight="400" fill="black" opacity="1">x</text></g></g><path class="foreground" aria-hidden="true" d="" pointer-events="none" display="none"/></g></g><g class="mark-group role-axis" role="graphics-symbol" aria-roledescription="axis" aria-label="Y-axis titled 'y' for a linear scale with values from 0.0 to 1.0"><g transform="translate(0.5,0.5)"><path class="background" aria-hidden="true" d="M0,0h0v0h0Z" pointer-events="none"/><g><g class="mark-rule role-axis-grid" pointer-events="none"><line transform="translate(0,100)" x2="100" y2="0" stroke="white" stroke-width="0.5" stroke-dasharray="0" opacity="1"/><line transform="translate(0,50)" x2="100" y2="0" stroke="white" stroke-width="0.5" stroke-dasharray="0" opacity="1"/><line transform="translate(0,0)" x2="100" y2="0" stroke="white" stroke-width="0.5" stroke-dasharray="0" opacity="1"/></g><g class="mark-rule role-axis-tick" pointer-events="none"><line transform="translate(0,100)" x2="-5" y2="0" stroke="black" stroke-width="1.01" opacity="1"/><line transform="translate(0,50)" x2="-5" y2="0" stroke="black" stroke-width="1.01" opacity="1"/><line transform="translate(0,0)" x2="-5" y2="0" stroke="black" stroke-width="1.01" opacity="1"/></g><g class="mark-text role-axis-label" pointer-events="none"><text text-anchor="end" transform="translate(-7,103)" font-family="sans-serif" font-size="10px" font-style="normal" font-weight="400" fill="black" opacity="1">0.0</text><text text-anchor="end" transform="translate(-7,53)" font-family="sans-serif" font-size="10px" font-style="normal" font-weight="400" fill="black" opacity="1">0.5</text><text text-anchor="end" transform="translate(-7,3)" font-family="sans-serif" font-size="10px" font-style="normal" font-weight="400" fill="black" opacity="1">1.0</text></g><g class="mark-rule role-axis-domain" pointer-events="none"><line transform="translate(0,100)" x2="0" y2="-100" stroke="black" stroke-width="1.01" opacity="1"/></g><g class="mark-text role-axis-title" pointer-events="none"><text text-anchor="middle" transform="translate(-26,50) rotate(-90) translate(0,-2)" font-family="sans-serif" font-size="11px" font-style="normal" font-weight="400" fill="black" opacity="1">y</text></g></g><path class="foreground" aria-hidden="true" d="" pointer-events="none" display="none"/></g></g><g class="mark-group role-scope" role="graphics-object" aria-roledescription="group mark container"><g transform="translate(0,0)"><path class="background" aria-hidden="true" d="M0,0h0v0h0Z"/><g><g class="mark-symbol role-mark points" role="graphics-symbol" aria-roledescription="symbol mark container"><path transform="translate(70.02566243353914,77.46433343561011)" d="M5,0A5,5,0,1,1,-5,0A5,5,0,1,1,5,0" fill="rgb(0, 111, 77)" stroke="white" stroke-width="1" opacity="1"/><path transform="translate(16.97760610407316,83.79164784336746)" d="M5,0A5,5,0,1,1,-5,0A5,5,0,1,1,5,0" fill="rgb(19, 97, 74)" stroke="white" stroke-width="1" opacity="1"/><path transform="translate(28.13177601058855,54.80654231339387)" d="M5,0A5,5,0,1,1,-5,0A5,5,0,1,1,5,0" fill="rgb(78, 161, 66)" stroke="white" stroke-width="1" opacity="1"/><path transform="translate(52.66770188070723,93.35186261078677)" d="M5,0A5,5,0,1,1,-5,0A5,5,0,1,1,5,0" fill="rgb(45, 73, 65)" stroke="white" stroke-width="1" opacity="1"/><path transform="translate(52.7050604746342,41.1905153336418)" d="M5,0A5,5,0,1,1,-5,0A5,5,0,1,1,5,0" fill="rgb(138, 187, 63)" stroke="white" stroke-width="1" opacity="1"/><path transform="translate(22.004815385025502,23.095750869468866)" d="M5,0A5,5,0,1,1,-5,0A5,5,0,1,1,5,0" fill="rgb(215, 218, 53)" stroke="white" stroke-width="1" opacity="1"/><path transform="translate(22.377822003698135,26.64003205436498)" d="M5,0A5,5,0,1,1,-5,0A5,5,0,1,1,5,0" fill="rgb(200, 212, 56)" stroke="white" stroke-width="1" opacity="1"/><path transform="translate(95.37733501397527,81.62877507864653)" d="M5,0A5,5,0,1,1,-5,0A5,5,0,1,1,5,0" fill="rgb(13, 102, 75)" stroke="white" stroke-width="1" opacity="1"/><path transform="translate(36.8860112481573,52.38026108003676)" d="M5,0A5,5,0,1,1,-5,0A5,5,0,1,1,5,0" fill="rgb(89, 166, 65)" stroke="white" stroke-width="1" opacity="1"/><path transform="translate(28.805969604551873,60.71776687812063)" d="M5,0A5,5,0,1,1,-5,0A5,5,0,1,1,5,0" fill="rgb(43, 149, 66)" stroke="white" stroke-width="1" opacity="1"/><path transform="translate(70.23071389924941,97.4801102266813)" d="M5,0A5,5,0,1,1,-5,0A5,5,0,1,1,5,0" fill="rgb(55, 62, 60)" stroke="white" stroke-width="1" opacity="1"/><path transform="translate(98.24322807720571,33.56375200054823)" d="M5,0A5,5,0,1,1,-5,0A5,5,0,1,1,5,0" fill="rgb(171, 200, 60)" stroke="white" stroke-width="1" opacity="1"/><path transform="translate(77.6463403798583,33.80424386896435)" d="M5,0A5,5,0,1,1,-5,0A5,5,0,1,1,5,0" fill="rgb(170, 200, 60)" stroke="white" stroke-width="1" opacity="1"/><path transform="translate(5.644602049162284,69.9693559651755)" d="M5,0A5,5,0,1,1,-5,0A5,5,0,1,1,5,0" fill="rgb(3, 130, 69)" stroke="white" stroke-width="1" opacity="1"/><path transform="translate(85.33779180883262,62.12558843858144)" d="M5,0A5,5,0,1,1,-5,0A5,5,0,1,1,5,0" fill="rgb(34, 146, 66)" stroke="white" stroke-width="1" opacity="1"/><path transform="translate(73.33315778716597,70.32667579419886)" d="M5,0A5,5,0,1,1,-5,0A5,5,0,1,1,5,0" fill="rgb(3, 129, 70)" stroke="white" stroke-width="1" opacity="1"/><path transform="translate(19.15562018235397,88.42442983307926)" d="M5,0A5,5,0,1,1,-5,0A5,5,0,1,1,5,0" fill="rgb(33, 87, 72)" stroke="white" stroke-width="1" opacity="1"/><path transform="translate(60.33557771496374,90.60435491558385)" d="M5,0A5,5,0,1,1,-5,0A5,5,0,1,1,5,0" fill="rgb(39, 81, 69)" stroke="white" stroke-width="1" opacity="1"/><path transform="translate(24.231834031592705,48.711402580454845)" d="M5,0A5,5,0,1,1,-5,0A5,5,0,1,1,5,0" fill="rgb(104, 173, 65)" stroke="white" stroke-width="1" opacity="1"/><path transform="translate(21.437456130931743,53.993669454411844)" d="M5,0A5,5,0,1,1,-5,0A5,5,0,1,1,5,0" fill="rgb(82, 162, 66)" stroke="white" stroke-width="1" opacity="1"/><path transform="translate(4.954298368596211,98.34158792362777)" d="M5,0A5,5,0,1,1,-5,0A5,5,0,1,1,5,0" fill="rgb(57, 60, 59)" stroke="white" stroke-width="1" opacity="1"/><path transform="translate(39.28184679379337,28.96174829704572)" d="M5,0A5,5,0,1,1,-5,0A5,5,0,1,1,5,0" fill="rgb(190, 208, 57)" stroke="white" stroke-width="1" opacity="1"/><path transform="translate(38.07932132276181,72.69143368629447)" d="M5,0A5,5,0,1,1,-5,0A5,5,0,1,1,5,0" fill="rgb(2, 123, 72)" stroke="white" stroke-width="1" opacity="1"/><path transform="translate(12.269707748052184,87.02261180171523)" d="M5,0A5,5,0,1,1,-5,0A5,5,0,1,1,5,0" fill="rgb(29, 90, 73)" stroke="white" stroke-width="1" opacity="1"/><path transform="translate(86.49764211477117,58.36654321730599)" d="M5,0A5,5,0,1,1,-5,0A5,5,0,1,1,5,0" fill="rgb(58, 154, 66)" stroke="white" stroke-width="1" opacity="1"/><path transform="translate(60.50254007530137,52.89800500181886)" d="M5,0A5,5,0,1,1,-5,0A5,5,0,1,1,5,0" fill="rgb(86, 165, 65)" stroke="white" stroke-width="1" opacity="1"/><path transform="translate(42.4059576900229,20.742632677169127)" d="M5,0A5,5,0,1,1,-5,0A5,5,0,1,1,5,0" fill="rgb(225, 222, 51)" stroke="white" stroke-width="1" opacity="1"/><path transform="translate(62.81266029546833,62.03629184420012)" d="M5,0A5,5,0,1,1,-5,0A5,5,0,1,1,5,0" fill="rgb(35, 147, 66)" stroke="white" stroke-width="1" opacity="1"/><path transform="translate(3.0623125052359312,44.9470577319443)" d="M5,0A5,5,0,1,1,-5,0A5,5,0,1,1,5,0" fill="rgb(121, 180, 64)" stroke="white" stroke-width="1" opacity="1"/><path transform="translate(18.0101610615472,82.99250591779432)" d="M5,0A5,5,0,1,1,-5,0A5,5,0,1,1,5,0" fill="rgb(17, 99, 74)" stroke="white" stroke-width="1" opacity="1"/><path transform="translate(50.949044121842945,36.74350698768693)" d="M5,0A5,5,0,1,1,-5,0A5,5,0,1,1,5,0" fill="rgb(158, 195, 62)" stroke="white" stroke-width="1" opacity="1"/><path transform="translate(36.29594284920137,18.397145218209577)" d="M5,0A5,5,0,1,1,-5,0A5,5,0,1,1,5,0" fill="rgb(235, 226, 49)" stroke="white" stroke-width="1" opacity="1"/><path transform="translate(88.502660335746,57.27315998739012)" d="M5,0A5,5,0,1,1,-5,0A5,5,0,1,1,5,0" fill="rgb(65, 156, 66)" stroke="white" stroke-width="1" opacity="1"/><path transform="translate(16.876888232175837,68.95313464818206)" d="M5,0A5,5,0,1,1,-5,0A5,5,0,1,1,5,0" fill="rgb(3, 132, 68)" stroke="white" stroke-width="1" opacity="1"/><path transform="translate(15.358250847243049,76.87119942405934)" d="M5,0A5,5,0,1,1,-5,0A5,5,0,1,1,5,0" fill="rgb(0, 113, 76)" stroke="white" stroke-width="1" opacity="1"/><path transform="translate(86.2271959357465,2.871326998162438)" d="M5,0A5,5,0,1,1,-5,0A5,5,0,1,1,5,0" fill="rgb(255, 255, 170)" stroke="white" stroke-width="1" opacity="1"/><path transform="translate(72.36412530715735,86.39744833160285)" d="M5,0A5,5,0,1,1,-5,0A5,5,0,1,1,5,0" fill="rgb(27, 91, 73)" stroke="white" stroke-width="1" opacity="1"/><path transform="translate(4.700142321039625,8.900038400858568)" d="M5,0A5,5,0,1,1,-5,0A5,5,0,1,1,5,0" fill="rgb(255, 244, 99)" stroke="white" stroke-width="1" opacity="1"/><path transform="translate(81.43159812864641,18.360375422012897)" d="M5,0A5,5,0,1,1,-5,0A5,5,0,1,1,5,0" fill="rgb(235, 226, 49)" stroke="white" stroke-width="1" opacity="1"/><path transform="translate(93.46802204456591,52.3802647147737)" d="M5,0A5,5,0,1,1,-5,0A5,5,0,1,1,5,0" fill="rgb(89, 166, 65)" stroke="white" stroke-width="1" opacity="1"/><path transform="translate(53.44294970177261,55.30416596388428)" d="M5,0A5,5,0,1,1,-5,0A5,5,0,1,1,5,0" fill="rgb(76, 160, 66)" stroke="white" stroke-width="1" opacity="1"/><path transform="translate(16.491170038756884,29.943357357532975)" d="M5,0A5,5,0,1,1,-5,0A5,5,0,1,1,5,0" fill="rgb(186, 206, 58)" stroke="white" stroke-width="1" opacity="1"/><path transform="translate(82.0989477387926,12.196223876552391)" d="M5,0A5,5,0,1,1,-5,0A5,5,0,1,1,5,0" fill="rgb(255, 238, 60)" stroke="white" stroke-width="1" opacity="1"/><path transform="translate(26.306927297761828,76.54797815032937)" d="M5,0A5,5,0,1,1,-5,0A5,5,0,1,1,5,0" fill="rgb(0, 114, 76)" stroke="white" stroke-width="1" opacity="1"/><path transform="translate(63.399089429880576,12.678059821620536)" d="M5,0A5,5,0,1,1,-5,0A5,5,0,1,1,5,0" fill="rgb(255, 237, 54)" stroke="white" stroke-width="1" opacity="1"/><path transform="translate(27.90871237913538,62.055462614719026)" d="M5,0A5,5,0,1,1,-5,0A5,5,0,1,1,5,0" fill="rgb(35, 147, 66)" stroke="white" stroke-width="1" opacity="1"/><path transform="translate(83.10142687276381,56.26659336471839)" d="M5,0A5,5,0,1,1,-5,0A5,5,0,1,1,5,0" fill="rgb(72, 158, 66)" stroke="white" stroke-width="1" opacity="1"/><path transform="translate(76.78796222557617,61.65496203122582)" d="M5,0A5,5,0,1,1,-5,0A5,5,0,1,1,5,0" fill="rgb(37, 147, 66)" stroke="white" stroke-width="1" opacity="1"/><path transform="translate(60.32979394245751,34.48279041697941)" d="M5,0A5,5,0,1,1,-5,0A5,5,0,1,1,5,0" fill="rgb(168, 199, 61)" stroke="white" stroke-width="1" opacity="1"/><path transform="translate(80.91951167004143,44.053917417922094)" d="M5,0A5,5,0,1,1,-5,0A5,5,0,1,1,5,0" fill="rgb(125, 182, 64)" stroke="white" stroke-width="1" opacity="1"/><path transform="translate(41.95074100060027,66.0539490691636)" d="M5,0A5,5,0,1,1,-5,0A5,5,0,1,1,5,0" fill="rgb(9, 139, 66)" stroke="white" stroke-width="1" opacity="1"/><path transform="translate(96.85432884777398,9.131789586783512)" d="M5,0A5,5,0,1,1,-5,0A5,5,0,1,1,5,0" fill="rgb(255, 243, 96)" stroke="white" stroke-width="1" opacity="1"/><path transform="translate(45.1924010872284,93.55226730219611)" d="M5,0A5,5,0,1,1,-5,0A5,5,0,1,1,5,0" fill="rgb(45, 73, 65)" stroke="white" stroke-width="1" opacity="1"/><path transform="translate(53.83339870902937,81.65632170350986)" d="M5,0A5,5,0,1,1,-5,0A5,5,0,1,1,5,0" fill="rgb(13, 102, 75)" stroke="white" stroke-width="1" opacity="1"/><path transform="translate(30.93843860197464,57.782336349915255)" d="M5,0A5,5,0,1,1,-5,0A5,5,0,1,1,5,0" fill="rgb(62, 155, 66)" stroke="white" stroke-width="1" opacity="1"/><path transform="translate(18.94092913464247,70.33661325251808)" d="M5,0A5,5,0,1,1,-5,0A5,5,0,1,1,5,0" fill="rgb(3, 129, 70)" stroke="white" stroke-width="1" opacity="1"/><path transform="translate(53.003612920456945,61.913675666783654)" d="M5,0A5,5,0,1,1,-5,0A5,5,0,1,1,5,0" fill="rgb(36, 147, 66)" stroke="white" stroke-width="1" opacity="1"/><path transform="translate(34.07723414249965,59.63777016010412)" d="M5,0A5,5,0,1,1,-5,0A5,5,0,1,1,5,0" fill="rgb(50, 151, 66)" stroke="white" stroke-width="1" opacity="1"/><path transform="translate(87.72275144358917,15.741860206640313)" d="M5,0A5,5,0,1,1,-5,0A5,5,0,1,1,5,0" fill="rgb(246, 231, 46)" stroke="white" stroke-width="1" opacity="1"/><path transform="translate(42.54124505708755,25.01512422175869)" d="M5,0A5,5,0,1,1,-5,0A5,5,0,1,1,5,0" fill="rgb(207, 215, 55)" stroke="white" stroke-width="1" opacity="1"/><path transform="translate(80.28883093699304,79.36964889641457)" d="M5,0A5,5,0,1,1,-5,0A5,5,0,1,1,5,0" fill="rgb(6, 107, 76)" stroke="white" stroke-width="1" opacity="1"/><path transform="translate(24.834700747849837,58.906728508282725)" d="M5,0A5,5,0,1,1,-5,0A5,5,0,1,1,5,0" fill="rgb(55, 153, 66)" stroke="white" stroke-width="1" opacity="1"/><path transform="translate(76.41738104644236,98.92507524806896)" d="M5,0A5,5,0,1,1,-5,0A5,5,0,1,1,5,0" fill="rgb(58, 58, 58)" stroke="white" stroke-width="1" opacity="1"/><path transform="translate(41.54284627447592,46.22616663934483)" d="M5,0A5,5,0,1,1,-5,0A5,5,0,1,1,5,0" fill="rgb(115, 178, 64)" stroke="white" stroke-width="1" opacity="1"/><path transform="translate(11.748640228354446,72.37190697892953)" d="M5,0A5,5,0,1,1,-5,0A5,5,0,1,1,5,0" fill="rgb(2, 124, 72)" stroke="white" stroke-width="1" opacity="1"/><path transform="translate(84.30638964050272,90.83424079599732)" d="M5,0A5,5,0,1,1,-5,0A5,5,0,1,1,5,0" fill="rgb(39, 80, 69)" stroke="white" stroke-width="1" opacity="1"/><path transform="translate(49.32668415742651,97.96545068918311)" d="M5,0A5,5,0,1,1,-5,0A5,5,0,1,1,5,0" fill="rgb(56, 61, 59)" stroke="white" stroke-width="1" opacity="1"/><path transform="translate(53.53331554424005,60.510063659398085)" d="M5,0A5,5,0,1,1,-5,0A5,5,0,1,1,5,0" fill="rgb(45, 150, 66)" stroke="white" stroke-width="1" opacity="1"/><path transform="translate(61.286777218131206,49.88660694034037)" d="M5,0A5,5,0,1,1,-5,0A5,5,0,1,1,5,0" fill="rgb(99, 170, 65)" stroke="white" stroke-width="1" opacity="1"/><path transform="translate(0.09013318298307649,13.411034184563796)" d="M5,0A5,5,0,1,1,-5,0A5,5,0,1,1,5,0" fill="rgb(255, 235, 46)" stroke="white" stroke-width="1" opacity="1"/><path transform="translate(8.047180696570633,37.0107719893724)" d="M5,0A5,5,0,1,1,-5,0A5,5,0,1,1,5,0" fill="rgb(156, 194, 62)" stroke="white" stroke-width="1" opacity="1"/><path transform="translate(57.12650043622269,53.80376024823287)" d="M5,0A5,5,0,1,1,-5,0A5,5,0,1,1,5,0" fill="rgb(82, 163, 66)" stroke="white" stroke-width="1" opacity="1"/><path transform="translate(84.33511373131809,60.77572132950879)" d="M5,0A5,5,0,1,1,-5,0A5,5,0,1,1,5,0" fill="rgb(43, 149, 66)" stroke="white" stroke-width="1" opacity="1"/><path transform="translate(96.97927275255789,88.29423087286872)" d="M5,0A5,5,0,1,1,-5,0A5,5,0,1,1,5,0" fill="rgb(33, 87, 72)" stroke="white" stroke-width="1" opacity="1"/><path transform="translate(34.48224156047694,7.611249278279397)" d="M5,0A5,5,0,1,1,-5,0A5,5,0,1,1,5,0" fill="rgb(255, 246, 114)" stroke="white" stroke-width="1" opacity="1"/><path transform="translate(33.22090539446252,32.998999843114085)" d="M5,0A5,5,0,1,1,-5,0A5,5,0,1,1,5,0" fill="rgb(174, 201, 60)" stroke="white" stroke-width="1" opacity="1"/><path transform="translate(29.893197219382404,92.67467590703664)" d="M5,0A5,5,0,1,1,-5,0A5,5,0,1,1,5,0" fill="rgb(43, 75, 66)" stroke="white" stroke-width="1" opacity="1"/><path transform="translate(27.782569459010098,24.005933950197655)" d="M5,0A5,5,0,1,1,-5,0A5,5,0,1,1,5,0" fill="rgb(211, 216, 54)" stroke="white" stroke-width="1" opacity="1"/><path transform="translate(53.00853357760937,28.77010064871568)" d="M5,0A5,5,0,1,1,-5,0A5,5,0,1,1,5,0" fill="rgb(191, 208, 57)" stroke="white" stroke-width="1" opacity="1"/><path transform="translate(75.22545212665811,64.40969449392992)" d="M5,0A5,5,0,1,1,-5,0A5,5,0,1,1,5,0" fill="rgb(20, 142, 66)" stroke="white" stroke-width="1" opacity="1"/><path transform="translate(18.791742884822416,4.565662245901225)" d="M5,0A5,5,0,1,1,-5,0A5,5,0,1,1,5,0" fill="rgb(255, 252, 150)" stroke="white" stroke-width="1" opacity="1"/><path transform="translate(90.12255773664539,58.243193059933404)" d="M5,0A5,5,0,1,1,-5,0A5,5,0,1,1,5,0" fill="rgb(59, 154, 66)" stroke="white" stroke-width="1" opacity="1"/><path transform="translate(1.0233571028219979,14.96323182468785)" d="M5,0A5,5,0,1,1,-5,0A5,5,0,1,1,5,0" fill="rgb(249, 232, 45)" stroke="white" stroke-width="1" opacity="1"/><path transform="translate(44.61044454337673,39.5211127183838)" d="M5,0A5,5,0,1,1,-5,0A5,5,0,1,1,5,0" fill="rgb(145, 190, 62)" stroke="white" stroke-width="1" opacity="1"/><path transform="translate(62.02862785801665,66.35309031609016)" d="M5,0A5,5,0,1,1,-5,0A5,5,0,1,1,5,0" fill="rgb(8, 138, 66)" stroke="white" stroke-width="1" opacity="1"/><path transform="translate(36.04242672368893,23.126931799001404)" d="M5,0A5,5,0,1,1,-5,0A5,5,0,1,1,5,0" fill="rgb(215, 218, 53)" stroke="white" stroke-width="1" opacity="1"/><path transform="translate(50.11057056944702,76.1429274470646)" d="M5,0A5,5,0,1,1,-5,0A5,5,0,1,1,5,0" fill="rgb(1, 115, 76)" stroke="white" stroke-width="1" opacity="1"/><path transform="translate(94.24129377525826,81.07502109690972)" d="M5,0A5,5,0,1,1,-5,0A5,5,0,1,1,5,0" fill="rgb(11, 103, 75)" stroke="white" stroke-width="1" opacity="1"/><path transform="translate(78.83094838344904,31.39822898354471)" d="M5,0A5,5,0,1,1,-5,0A5,5,0,1,1,5,0" fill="rgb(180, 204, 59)" stroke="white" stroke-width="1" opacity="1"/><path transform="translate(41.52508407322665,38.99117368080369)" d="M5,0A5,5,0,1,1,-5,0A5,5,0,1,1,5,0" fill="rgb(148, 191, 62)" stroke="white" stroke-width="1" opacity="1"/><path transform="translate(78.63121364846123,45.21478465328036)" d="M5,0A5,5,0,1,1,-5,0A5,5,0,1,1,5,0" fill="rgb(120, 180, 64)" stroke="white" stroke-width="1" opacity="1"/><path transform="translate(96.3563717614097,55.96419517440915)" d="M5,0A5,5,0,1,1,-5,0A5,5,0,1,1,5,0" fill="rgb(73, 159, 66)" stroke="white" stroke-width="1" opacity="1"/><path transform="translate(28.414830263482248,58.551776987490776)" d="M5,0A5,5,0,1,1,-5,0A5,5,0,1,1,5,0" fill="rgb(57, 153, 66)" stroke="white" stroke-width="1" opacity="1"/><path transform="translate(97.29279465915322,94.19868673923169)" d="M5,0A5,5,0,1,1,-5,0A5,5,0,1,1,5,0" fill="rgb(47, 71, 64)" stroke="white" stroke-width="1" opacity="1"/><path transform="translate(57.70185507390764,75.42968547392559)" d="M5,0A5,5,0,1,1,-5,0A5,5,0,1,1,5,0" fill="rgb(1, 116, 75)" stroke="white" stroke-width="1" opacity="1"/><path transform="translate(13.887132458891859,83.36329847625463)" d="M5,0A5,5,0,1,1,-5,0A5,5,0,1,1,5,0" fill="rgb(18, 98, 74)" stroke="white" stroke-width="1" opacity="1"/><path transform="translate(41.44852908060673,43.05546249101617)" d="M5,0A5,5,0,1,1,-5,0A5,5,0,1,1,5,0" fill="rgb(129, 183, 63)" stroke="white" stroke-width="1" opacity="1"/><path transform="translate(13.956297662581797,10.25756572367078)" d="M5,0A5,5,0,1,1,-5,0A5,5,0,1,1,5,0" fill="rgb(255, 241, 83)" stroke="white" stroke-width="1" opacity="1"/><path transform="translate(29.89514013959922,67.88996578762585)" d="M5,0A5,5,0,1,1,-5,0A5,5,0,1,1,5,0" fill="rgb(4, 135, 67)" stroke="white" stroke-width="1" opacity="1"/><path transform="translate(62.539327336991526,23.767495531068526)" d="M5,0A5,5,0,1,1,-5,0A5,5,0,1,1,5,0" fill="rgb(212, 217, 54)" stroke="white" stroke-width="1" opacity="1"/></g></g><path class="foreground" aria-hidden="true" d="" display="none"/></g></g><g class="mark-group role-legend" role="graphics-symbol" aria-roledescription="legend" aria-label="Gradient legend titled 'y' for fill color with values from 0.0 to 1.0"><g transform="translate(123,0)"><path class="background" aria-hidden="true" d="M0,0h27v96h-27Z" pointer-events="none"/><g><g class="mark-group role-legend-entry"><g transform="translate(0,16)"><path class="background" aria-hidden="true" d="M0,0h0v0h0Z" pointer-events="none"/><g><g class="mark-rect role-legend-gradient" pointer-events="none"><path d="M0,0h10v80h-10Z" fill="url(#gradient_0)" stroke="#ddd" stroke-width="0" opacity="1"/></g><g class="mark-text role-legend-label" pointer-events="none"><text text-anchor="start" transform="translate(12,78)" font-family="sans-serif" font-size="10px" font-style="normal" font-weight="400" fill="#000" opacity="1">0.0</text><text text-anchor="start" transform="translate(12,8)" font-family="sans-serif" font-size="10px" font-style="normal" font-weight="400" fill="#000" opacity="1">1.0</text></g></g><path class="foreground" aria-hidden="true" d="" pointer-events="none" display="none"/></g></g><g class="mark-text role-legend-title" pointer-events="none"><text text-anchor="start" transform="translate(0,9)" font-family="sans-serif" font-size="11px" font-style="normal" font-weight="400" fill="#000" opacity="1">y</text></g></g><path class="foreground" aria-hidden="true" d="" pointer-events="none" display="none"/></g></g></g><path class="foreground" aria-hidden="true" d="" display="none"/></g></g></g><defs><linearGradient id="gradient_0" x1="0" x2="0" y1="1" y2="0"><stop offset="0" stop-color="rgb(58, 58, 58)"/><stop offset="0.04086332204191502" stop-color="rgb(49, 69, 63)"/><stop offset="0.09291751140047413" stop-color="rgb(37, 82, 70)"/><stop offset="0.14497170075903323" stop-color="rgb(23, 94, 74)"/><stop offset="0.19702589011759236" stop-color="rgb(7, 106, 76)"/><stop offset="0.24908007947615146" stop-color="rgb(1, 117, 74)"/><stop offset="0.30113426883471056" stop-color="rgb(3, 129, 69)"/><stop offset="0.35318845819326966" stop-color="rgb(16, 141, 66)"/><stop offset="0.4052426475518288" stop-color="rgb(48, 151, 66)"/><stop offset="0.4572968369103879" stop-color="rgb(77, 160, 66)"/><stop offset="0.509351026268947" stop-color="rgb(99, 170, 65)"/><stop offset="0.5614052156275062" stop-color="rgb(121, 180, 64)"/><stop offset="0.6134594049860652" stop-color="rgb(143, 189, 62)"/><stop offset="0.6655135943446244" stop-color="rgb(166, 198, 61)"/><stop offset="0.7175677837031834" stop-color="rgb(186, 206, 58)"/><stop offset="0.7696219730617426" stop-color="rgb(207, 215, 55)"/><stop offset="0.8216761624203017" stop-color="rgb(228, 224, 50)"/><stop offset="0.8737303517788608" stop-color="rgb(249, 232, 45)"/><stop offset="0.9257845411374199" stop-color="rgb(255, 242, 86)"/><stop offset="0.977838730495979" stop-color="rgb(255, 251, 145)"/><stop offset="1" stop-color="rgb(255, 255, 170)"/></linearGradient></defs></svg>