<svg xmlns="http://www.w3.org/2000/svg" xmlns:xlink="http://www.w3.org/1999/xlink" version="1.1" class="marks" width="145" height="137" viewBox="0 0 145 137"><rect width="145" height="137" fill="white"/><g fill="none" stroke-miterlimit="10" transform="translate(37,5)"><g class="mark-group role-frame root" role="graphics-object" aria-roledescription="group mark container"><g transform="translate(0,0)"><path class="background" aria-hidden="true" d="M0,0h100v100h-100Z"/><g><g class="mark-group role-axis" role="graphics-symbol" aria-roledescription="axis" aria-label="X-axis titled 'x' for a linear scale with values from 0.0 to 1.0"><g transform="translate(0.5,100.5)"><path class="background" aria-hidden="true" d="M0,0h0v0h0Z" pointer-events="none"/><g><g class="mark-rule role-axis-tick" pointer-events="none"><line transform="translate(0,0)" x2="0" y2="5" stroke="black" stroke-width="1.01" opacity="1"/><line transform="translate(50,0)" x2="0" y2="5" stroke="black" stroke-width="1.01" opacity="1"/><line transform="translate(100,0)" x2="0" y2="5" stroke="black" stroke-width="1.01" opacity="1"/></g><g class="mark-text role-axis-label" pointer-events="none"><text text-anchor="middle" transform="translate(0,15)" font-family="sans-serif" font-size="10px" font-style="normal" font-weight="400" fill="black" opacity="1">0.0</text><text text-anchor="middle" transform="translate(50,15)" font-family="sans-serif" font-size="10px" font-style="normal" font-weight="400" fill="black" opacity="1">0.5</text><text text-anchor="middle" transform="translate(100,15)" font-family="sans-serif" font-size="10px" font-style="normal" font-weight="400" fill="black" opacity="1">1.0</text></g><g class="mark-rule role-axis-domain" pointer-events="none"><line transform="translate(0,0)" x2="100" y2="0" stroke="black" stroke-width="1.01" opacity="1"/></g><g class="mark-text role-axis-title" pointer-events="none"><text text-anchor="middle" transform="translate(50,30)" font-family="sans-serif" font-size="11px" font-style="normal" font-weight="400" fill="black" opacity="1">x</text></g></g><path class="foreground" aria-hidden="true" d="" pointer-events="none" display="none"/></g></g><g class="mark-group role-axis" role="graphics-symbol" aria-roledescription="axis" aria-label="Y-axis titled 'y' for a linear scale with values from 0.0 to 1.0"><g transform="translate(0.5,0.5)"><path class="background" aria-hidden="true" d="M0,0h0v0h0Z" pointer-events="none"/><g><g class="mark-rule role-axis-tick" pointer-events="none"><line transform="translate(0,100)" x2="-5" y2="0" stroke="black" stroke-width="1.01" opacity="1"/><line transform="translate(0,50)" x2="-5" y2="0" stroke="black" stroke-width="1.01" opacity="1"/><line transform="translate(0,0)" x2="-5" y2="0" stroke="black" stroke-width="1.01" opacity="1"/></g><g class="mark-text role-axis-label" pointer-events="none"><text text-anchor="end" transform="translate(-7,103)" font-family="sans-serif" font-size="10px" font-style="normal" font-weight="400" fill="black" opacity="1">0.0</text><text text-anchor="end" transform="translate(-7,53)" font-family="sans-serif" font-size="10px" font-style="normal" font-weight="400" fill="black" opacity="1">0.5</text><text text-anchor="end" transform="translate(-7,3)" font-family="sans-serif" font-size="10px" font-style="normal" font-weight="400" fill="black" opacity="1">1.0</text></g><g class="mark-rule role-axis-domain" pointer-events="none"><line transform="translate(0,100)" x2="0" y2="-100" stroke="black" stroke-width="1.01" opacity="1"/></g><g class="mark-text role-axis-title" pointer-events="none"><text text-anchor="middle" transform="translate(-26,50) rotate(-90) translate(0,-2)" font-family="sans-serif" font-size="11px" font-style="normal" font-weight="400" fill="black" opacity="1">y</text></g></g><path class="foreground" aria-hidden="true" d="" pointer-events="none" display="none"/></g></g><g class="mark-group role-scope" clip-path="url(#clip1)" role="graphics-object" aria-roledescription="group mark container"><g transform="translate(0,0)"><path class="background" aria-hidden="true" d="M0,0h0v0h0Z"/><g><g class="mark-symbol role-mark points" role="graphics-symbol" aria-roledescription="symbol mark container"><path transform="translate(70.76210477986321,62.507435392161206)" d="M3.5355339059327378,0A3.5355339059327378,3.5355339059327378,0,1,1,-3.5355339059327378,0A3.5355339059327378,3.5355339059327378,0,1,1,3.5355339059327378,0" fill="white" stroke="steelblue" stroke-width="1" opacity="1"/><path transform="translate(51.856400527291946,89.11418088325118)" d="M3.5355339059327378,0A3.5355339059327378,3.5355339059327378,0,1,1,-3.5355339059327378,0A3.5355339059327378,3.5355339059327378,0,1,1,3.5355339059327378,0" fill="white" stroke="steelblue" stroke-width="1" opacity="1"/><path transform="translate(60.960148280095304,3.4793797487098765)" d="M3.5355339059327378,0A3.5355339059327378,3.5355339059327378,0,1,1,-3.5355339059327378,0A3.5355339059327378,3.5355339059327378,0,1,1,3.5355339059327378,0" fill="white" stroke="steelblue" stroke-width="1" opacity="1"/><path transform="translate(93.14117381879761,3.282622701434823)" d="M3.5355339059327378,0A3.5355339059327378,3.5355339059327378,0,1,1,-3.5355339059327378,0A3.5355339059327378,3.5355339059327378,0,1,1,3.5355339059327378,0" fill="white" stroke="steelblue" stroke-width="1" opacity="1"/><path transform="translate(64.05704438761764,74.73875486743151)" d="M3.5355339059327378,0A3.5355339059327378,3.5355339059327378,0,1,1,-3.5355339059327378,0A3.5355339059327378,3.5355339059327378,0,1,1,3.5355339059327378,0" fill="white" stroke="steelblue" stroke-width="1" opacity="1"/><path transform="translate(37.59911713015159,19.65962356456572)" d="M3.5355339059327378,0A3.5355339059327378,3.5355339059327378,0,1,1,-3.5355339059327378,0A3.5355339059327378,3.5355339059327378,0,1,1,3.5355339059327378,0" fill="white" stroke="steelblue" stroke-width="1" opacity="1"/><path transform="translate(15.554066885981733,63.117609361309036)" d="M3.5355339059327378,0A3.5355339059327378,3.5355339059327378,0,1,1,-3.5355339059327378,0A3.5355339059327378,3.5355339059327378,0,1,1,3.5355339059327378,0" fill="white" stroke="steelblue" stroke-width="1" opacity="1"/><path transform="translate(82.23821824712698,18.510846992529494)" d="M3.5355339059327378,0A3.5355339059327378,3.5355339059327378,0,1,1,-3.5355339059327378,0A3.5355339059327378,3.5355339059327378,0,1,1,3.5355339059327378,0" fill="white" stroke="steelblue" stroke-width="1" opacity="1"/><path transform="translate(0.9126258305490298,74.81195267236888)" d="M3.5355339059327378,0A3.5355339059327378,3.5355339059327378,0,1,1,-3.5355339059327378,0A3.5355339059327378,3.5355339059327378,0,1,1,3.5355339059327378,0" fill="white" stroke="steelblue" stroke-width="1" opacity="1"/><path transform="translate(65.51328258446081,4.977735196407318)" d="M3.5355339059327378,0A3.5355339059327378,3.5355339059327378,0,1,1,-3.5355339059327378,0A3.5355339059327378,3.5355339059327378,0,1,1,3.5355339059327378,0" fill="white" stroke="steelblue" stroke-width="1" opacity="1"/><path transform="translate(58.08910066474174,23.25680472367202)" d="M3.5355339059327378,0A3.5355339059327378,3.5355339059327378,0,1,1,-3.5355339059327378,0A3.5355339059327378,3.5355339059327378,0,1,1,3.5355339059327378,0" fill="white" stroke="steelblue" stroke-width="1" opacity="1"/><path transform="translate(0.21282038251657642,26.632729987944103)" d="M3.5355339059327378,0A3.5355339059327378,3.5355339059327378,0,1,1,-3.5355339059327378,0A3.5355339059327378,3.5355339059327378,0,1,1,3.5355339059327378,0" fill="white" stroke="steelblue" stroke-width="1" opacity="1"/><path transform="translate(80.00831972976589,50.920226658909286)" d="M3.5355339059327378,0A3.5355339059327378,3.5355339059327378,0,1,1,-3.5355339059327378,0A3.5355339059327378,3.5355339059327378,0,1,1,3.5355339059327378,0" fill="white" stroke="steelblue" stroke-width="1" opacity="1"/><path transform="translate(41.61782494348565,11.37498734309248)" d="M3.5355339059327378,0A3.5355339059327378,3.5355339059327378,0,1,1,-3.5355339059327378,0A3.5355339059327378,3.5355339059327378,0,1,1,3.5355339059327378,0" fill="white" stroke="steelblue" stroke-width="1" opacity="1"/><path transform="translate(12.4416173511129,26.233199753900706)" d="M3.5355339059327378,0A3.5355339059327378,3.5355339059327378,0,1,1,-3.5355339059327378,0A3.5355339059327378,3.5355339059327378,0,1,1,3.5355339059327378,0" fill="white" stroke="steelblue" stroke-width="1" opacity="1"/><path transform="translate(25.706136323397722,59.507637294473085)" d="M3.5355339059327378,0A3.5355339059327378,3.5355339059327378,0,1,1,-3.5355339059327378,0A3.5355339059327378,3.5355339059327378,0,1,1,3.5355339059327378,0" fill="white" stroke="steelblue" stroke-width="1" opacity="1"/><path transform="translate(56.39158844428428,5.807864028290188)" d="M3.5355339059327378,0A3.5355339059327378,3.5355339059327378,0,1,1,-3.5355339059327378,0A3.5355339059327378,3.5355339059327378,0,1,1,3.5355339059327378,0" fill="white" stroke="steelblue" stroke-width="1" opacity="1"/><path transform="translate(87.45129909197094,82.22326255740458)" d="M3.5355339059327378,0A3.5355339059327378,3.5355339059327378,0,1,1,-3.5355339059327378,0A3.5355339059327378,3.5355339059327378,0,1,1,3.5355339059327378,0" fill="white" stroke="steelblue" stroke-width="1" opacity="1"/><path transform="translate(48.171335717244354,62.47501019412057)" d="M3.5355339059327378,0A3.5355339059327378,3.5355339059327378,0,1,1,-3.5355339059327378,0A3.5355339059327378,3.5355339059327378,0,1,1,3.5355339059327378,0" fill="white" stroke="steelblue" stroke-width="1" opacity="1"/><path transform="translate(81.30423717620927,31.393866782490075)" d="M3.5355339059327378,0A3.5355339059327378,3.5355339059327378,0,1,1,-3.5355339059327378,0A3.5355339059327378,3.5355339059327378,0,1,1,3.5355339059327378,0" fill="white" stroke="steelblue" stroke-width="1" opacity="1"/><path transform="translate(25.003368992729758,18.18501276220331)" d="M3.5355339059327378,0A3.5355339059327378,3.5355339059327378,0,1,1,-3.5355339059327378,0A3.5355339059327378,3.5355339059327378,0,1,1,3.5355339059327378,0" fill="white" stroke="steelblue" stroke-width="1" opacity="1"/><path transform="translate(43.140384861792015,54.064979998628836)" d="M3.5355339059327378,0A3.5355339059327378,3.5355339059327378,0,1,1,-3.5355339059327378,0A3.5355339059327378,3.5355339059327378,0,1,1,3.5355339059327378,0" fill="white" stroke="steelblue" stroke-width="1" opacity="1"/><path transform="translate(18.36763701966082,37.128810857768116)" d="M3.5355339059327378,0A3.5355339059327378,3.5355339059327378,0,1,1,-3.5355339059327378,0A3.5355339059327378,3.5355339059327378,0,1,1,3.5355339059327378,0" fill="white" stroke="steelblue" stroke-width="1" opacity="1"/><path transform="translate(13.180525193321223,19.793527345173402)" d="M3.5355339059327378,0A3.5355339059327378,3.5355339059327378,0,1,1,-3.5355339059327378,0A3.5355339059327378,3.5355339059327378,0,1,1,3.5355339059327378,0" fill="white" stroke="steelblue" stroke-width="1" opacity="1"/><path transform="translate(84.80763484728836,4.88175121535892)" d="M3.5355339059327378,0A3.5355339059327378,3.5355339059327378,0,1,1,-3.5355339059327378,0A3.5355339059327378,3.5355339059327378,0,1,1,3.5355339059327378,0" fill="white" stroke="steelblue" stroke-width="1" opacity="1"/><path transform="translate(90.62643121323593,3.3836997817098258)" d="M3.5355339059327378,0A3.5355339059327378,3.5355339059327378,0,1,1,-3.5355339059327378,0A3.5355339059327378,3.5355339059327378,0,1,1,3.5355339059327378,0" fill="white" stroke="steelblue" stroke-width="1" opacity="1"/><path transform="translate(20.46324181614584,23.59259996375095)" d="M3.5355339059327378,0A3.5355339059327378,3.5355339059327378,0,1,1,-3.5355339059327378,0A3.5355339059327378,3.5355339059327378,0,1,1,3.5355339059327378,0" fill="white" stroke="steelblue" stroke-width="1" opacity="1"/><path transform="translate(63.515417997914724,84.2144289781779)" d="M3.5355339059327378,0A3.5355339059327378,3.5355339059327378,0,1,1,-3.5355339059327378,0A3.5355339059327378,3.5355339059327378,0,1,1,3.5355339059327378,0" fill="white" stroke="steelblue" stroke-width="1" opacity="1"/><path transform="translate(63.703797220039625,38.745139677441756)" d="M3.5355339059327378,0A3.5355339059327378,3.5355339059327378,0,1,1,-3.5355339059327378,0A3.5355339059327378,3.5355339059327378,0,1,1,3.5355339059327378,0" fill="white" stroke="steelblue" stroke-width="1" opacity="1"/><path transform="translate(18.155336075757567,18.743946038351535)" d="M3.5355339059327378,0A3.5355339059327378,3.5355339059327378,0,1,1,-3.5355339059327378,0A3.5355339059327378,3.5355339059327378,0,1,1,3.5355339059327378,0" fill="white" stroke="steelblue" stroke-width="1" opacity="1"/><path transform="translate(53.22423765055012,11.639429355681163)" d="M3.5355339059327378,0A3.5355339059327378,3.5355339059327378,0,1,1,-3.5355339059327378,0A3.5355339059327378,3.5355339059327378,0,1,1,3.5355339059327378,0" fill="white" stroke="steelblue" stroke-width="1" opacity="1"/><path transform="translate(63.081146661885946,0.313774318691884)" d="M3.5355339059327378,0A3.5355339059327378,3.5355339059327378,0,1,1,-3.5355339059327378,0A3.5355339059327378,3.5355339059327378,0,1,1,3.5355339059327378,0" fill="white" stroke="steelblue" stroke-width="1" opacity="1"/><path transform="translate(95.08032382528012,66.10147072035504)" d="M3.5355339059327378,0A3.5355339059327378,3.5355339059327378,0,1,1,-3.5355339059327378,0A3.5355339059327378,3.5355339059327378,0,1,1,3.5355339059327378,0" fill="white" stroke="steelblue" stroke-width="1" opacity="1"/><path transform="translate(93.08391055379866,98.85659653183004)" d="M3.5355339059327378,0A3.5355339059327378,3.5355339059327378,0,1,1,-3.5355339059327378,0A3.5355339059327378,3.5355339059327378,0,1,1,3.5355339059327378,0" fill="white" stroke="steelblue" stroke-width="1" opacity="1"/><path transform="translate(27.569330309472072,46.70945758047249)" d="M3.5355339059327378,0A3.5355339059327378,3.5355339059327378,0,1,1,-3.5355339059327378,0A3.5355339059327378,3.5355339059327378,0,1,1,3.5355339059327378,0" fill="white" stroke="steelblue" stroke-width="1" opacity="1"/><path transform="translate(20.31193390674574,73.47246740789957)" d="M3.5355339059327378,0A3.5355339059327378,3.5355339059327378,0,1,1,-3.5355339059327378,0A3.5355339059327378,3.5355339059327378,0,1,1,3.5355339059327378,0" fill="white" stroke="steelblue" stroke-width="1" opacity="1"/><path transform="translate(3.4890168277385225,4.383254949713988)" d="M3.5355339059327378,0A3.5355339059327378,3.5355339059327378,0,1,1,-3.5355339059327378,0A3.5355339059327378,3.5355339059327378,0,1,1,3.5355339059327378,0" fill="white" stroke="steelblue" stroke-width="1" opacity="1"/><path transform="translate(88.13212115295585,37.22663003736184)" d="M3.5355339059327378,0A3.5355339059327378,3.5355339059327378,0,1,1,-3.5355339059327378,0A3.5355339059327378,3.5355339059327378,0,1,1,3.5355339059327378,0" fill="white" stroke="steelblue" stroke-width="1" opacity="1"/><path transform="translate(83.65272351019425,76.15745875554754)" d="M3.5355339059327378,0A3.5355339059327378,3.5355339059327378,0,1,1,-3.5355339059327378,0A3.5355339059327378,3.5355339059327378,0,1,1,3.5355339059327378,0" fill="white" stroke="steelblue" stroke-width="1" opacity="1"/><path transform="translate(55.621648769224805,35.31624723016304)" d="M3.5355339059327378,0A3.5355339059327378,3.5355339059327378,0,1,1,-3.5355339059327378,0A3.5355339059327378,3.5355339059327378,0,1,1,3.5355339059327378,0" fill="white" stroke="steelblue" stroke-width="1" opacity="1"/><path transform="translate(21.539378823083656,18.851620861426387)" d="M3.5355339059327378,0A3.5355339059327378,3.5355339059327378,0,1,1,-3.5355339059327378,0A3.5355339059327378,3.5355339059327378,0,1,1,3.5355339059327378,0" fill="white" stroke="steelblue" stroke-width="1" opacity="1"/><path transform="translate(19.075599413335077,51.744777096082686)" d="M3.5355339059327378,0A3.5355339059327378,3.5355339059327378,0,1,1,-3.5355339059327378,0A3.5355339059327378,3.5355339059327378,0,1,1,3.5355339059327378,0" fill="white" stroke="steelblue" stroke-width="1" opacity="1"/><path transform="translate(54.15304430272882,30.076512567021684)" d="M3.5355339059327378,0A3.5355339059327378,3.5355339059327378,0,1,1,-3.5355339059327378,0A3.5355339059327378,3.5355339059327378,0,1,1,3.5355339059327378,0" fill="white" stroke="steelblue" stroke-width="1" opacity="1"/><path transform="translate(60.80819727252358,32.576552811937965)" d="M3.5355339059327378,0A3.5355339059327378,3.5355339059327378,0,1,1,-3.5355339059327378,0A3.5355339059327378,3.5355339059327378,0,1,1,3.5355339059327378,0" fill="white" stroke="steelblue" stroke-width="1" opacity="1"/><path transform="translate(98.11524632436395,19.96784806162918)" d="M3.5355339059327378,0A3.5355339059327378,3.5355339059327378,0,1,1,-3.5355339059327378,0A3.5355339059327378,3.5355339059327378,0,1,1,3.5355339059327378,0" fill="white" stroke="steelblue" stroke-width="1" opacity="1"/><path transform="translate(65.05633253503332,15.944955611891098)" d="M3.5355339059327378,0A3.5355339059327378,3.5355339059327378,0,1,1,-3.5355339059327378,0A3.5355339059327378,3.5355339059327378,0,1,1,3.5355339059327378,0" fill="white" stroke="steelblue" stroke-width="1" opacity="1"/><path transform="translate(81.38776006690325,30.50945040889481)" d="M3.5355339059327378,0A3.5355339059327378,3.5355339059327378,0,1,1,-3.5355339059327378,0A3.5355339059327378,3.5355339059327378,0,1,1,3.5355339059327378,0" fill="white" stroke="steelblue" stroke-width="1" opacity="1"/><path transform="translate(9.439816270542378,95.19706788358384)" d="M3.5355339059327378,0A3.5355339059327378,3.5355339059327378,0,1,1,-3.5355339059327378,0A3.5355339059327378,3.5355339059327378,0,1,1,3.5355339059327378,0" fill="white" stroke="steelblue" stroke-width="1" opacity="1"/><path transform="translate(46.901144992743106,8.617109837018766)" d="M3.5355339059327378,0A3.5355339059327378,3.5355339059327378,0,1,1,-3.5355339059327378,0A3.5355339059327378,3.5355339059327378,0,1,1,3.5355339059327378,0" fill="white" stroke="steelblue" stroke-width="1" opacity="1"/><path transform="translate(8.675569089467228,98.30905036754946)" d="M3.5355339059327378,0A3.5355339059327378,3.5355339059327378,0,1,1,-3.5355339059327378,0A3.5355339059327378,3.5355339059327378,0,1,1,3.5355339059327378,0" fill="white" stroke="steelblue" stroke-width="1" opacity="1"/><path transform="translate(11.820166807174548,53.95413125243429)" d="M3.5355339059327378,0A3.5355339059327378,3.5355339059327378,0,1,1,-3.5355339059327378,0A3.5355339059327378,3.5355339059327378,0,1,1,3.5355339059327378,0" fill="white" stroke="steelblue" stroke-width="1" opacity="1"/><path transform="translate(51.0369518161137,97.67467164250718)" d="M3.5355339059327378,0A3.5355339059327378,3.5355339059327378,0,1,1,-3.5355339059327378,0A3.5355339059327378,3.5355339059327378,0,1,1,3.5355339059327378,0" fill="white" stroke="steelblue" stroke-width="1" opacity="1"/><path transform="translate(16.74810016276247,0.1873185413616807)" d="M3.5355339059327378,0A3.5355339059327378,3.5355339059327378,0,1,1,-3.5355339059327378,0A3.5355339059327378,3.5355339059327378,0,1,1,3.5355339059327378,0" fill="white" stroke="steelblue" stroke-width="1" opacity="1"/><path transform="translate(15.2277010860833,41.95483221595394)" d="M3.5355339059327378,0A3.5355339059327378,3.5355339059327378,0,1,1,-3.5355339059327378,0A3.5355339059327378,3.5355339059327378,0,1,1,3.5355339059327378,0" fill="white" stroke="steelblue" stroke-width="1" opacity="1"/><path transform="translate(33.32359387795737,34.83988180064082)" d="M3.5355339059327378,0A3.5355339059327378,3.5355339059327378,0,1,1,-3.5355339059327378,0A3.5355339059327378,3.5355339059327378,0,1,1,3.5355339059327378,0" fill="white" stroke="steelblue" stroke-width="1" opacity="1"/><path transform="translate(63.54950935664677,16.37871556481795)" d="M3.5355339059327378,0A3.5355339059327378,3.5355339059327378,0,1,1,-3.5355339059327378,0A3.5355339059327378,3.5355339059327378,0,1,1,3.5355339059327378,0" fill="white" stroke="steelblue" stroke-width="1" opacity="1"/><path transform="translate(31.333987263133356,86.16035288653349)" d="M3.5355339059327378,0A3.5355339059327378,3.5355339059327378,0,1,1,-3.5355339059327378,0A3.5355339059327378,3.5355339059327378,0,1,1,3.5355339059327378,0" fill="white" stroke="steelblue" stroke-width="1" opacity="1"/><path transform="translate(14.073223297329617,21.534679908412357)" d="M3.5355339059327378,0A3.5355339059327378,3.5355339059327378,0,1,1,-3.5355339059327378,0A3.5355339059327378,3.5355339059327378,0,1,1,3.5355339059327378,0" fill="white" stroke="steelblue" stroke-width="1" opacity="1"/><path transform="translate(28.60537032714682,78.75121938005621)" d="M3.5355339059327378,0A3.5355339059327378,3.5355339059327378,0,1,1,-3.5355339059327378,0A3.5355339059327378,3.5355339059327378,0,1,1,3.5355339059327378,0" fill="white" stroke="steelblue" stroke-width="1" opacity="1"/><path transform="translate(52.74340570243916,88.32368098949314)" d="M3.5355339059327378,0A3.5355339059327378,3.5355339059327378,0,1,1,-3.5355339059327378,0A3.5355339059327378,3.5355339059327378,0,1,1,3.5355339059327378,0" fill="white" stroke="steelblue" stroke-width="1" opacity="1"/><path transform="translate(46.76441879804113,20.832629834339112)" d="M3.5355339059327378,0A3.5355339059327378,3.5355339059327378,0,1,1,-3.5355339059327378,0A3.5355339059327378,3.5355339059327378,0,1,1,3.5355339059327378,0" fill="white" stroke="steelblue" stroke-width="1" opacity="1"/><path transform="translate(69.12634279747408,29.82652967329801)" d="M3.5355339059327378,0A3.5355339059327378,3.5355339059327378,0,1,1,-3.5355339059327378,0A3.5355339059327378,3.5355339059327378,0,1,1,3.5355339059327378,0" fill="white" stroke="steelblue" stroke-width="1" opacity="1"/><path transform="translate(30.007938796074995,39.026214934949074)" d="M3.5355339059327378,0A3.5355339059327378,3.5355339059327378,0,1,1,-3.5355339059327378,0A3.5355339059327378,3.5355339059327378,0,1,1,3.5355339059327378,0" fill="white" stroke="steelblue" stroke-width="1" opacity="1"/><path transform="translate(25.56886468749856,39.24074948750932)" d="M3.5355339059327378,0A3.5355339059327378,3.5355339059327378,0,1,1,-3.5355339059327378,0A3.5355339059327378,3.5355339059327378,0,1,1,3.5355339059327378,0" fill="white" stroke="steelblue" stroke-width="1" opacity="1"/><path transform="translate(69.11586113663536,90.46883810210998)" d="M3.5355339059327378,0A3.5355339059327378,3.5355339059327378,0,1,1,-3.5355339059327378,0A3.5355339059327378,3.5355339059327378,0,1,1,3.5355339059327378,0" fill="white" stroke="steelblue" stroke-width="1" opacity="1"/><path transform="translate(10.872703580713472,11.93059007068672)" d="M3.5355339059327378,0A3.5355339059327378,3.5355339059327378,0,1,1,-3.5355339059327378,0A3.5355339059327378,3.5355339059327378,0,1,1,3.5355339059327378,0" fill="white" stroke="steelblue" stroke-width="1" opacity="1"/><path transform="translate(40.311025778568265,85.38018824352453)" d="M3.5355339059327378,0A3.5355339059327378,3.5355339059327378,0,1,1,-3.5355339059327378,0A3.5355339059327378,3.5355339059327378,0,1,1,3.5355339059327378,0" fill="white" stroke="steelblue" stroke-width="1" opacity="1"/><path transform="translate(20.7980012060373,58.78760151687492)" d="M3.5355339059327378,0A3.5355339059327378,3.5355339059327378,0,1,1,-3.5355339059327378,0A3.5355339059327378,3.5355339059327378,0,1,1,3.5355339059327378,0" fill="white" stroke="steelblue" stroke-width="1" opacity="1"/><path transform="translate(90.83211352202632,37.38355534479728)" d="M3.5355339059327378,0A3.5355339059327378,3.5355339059327378,0,1,1,-3.5355339059327378,0A3.5355339059327378,3.5355339059327378,0,1,1,3.5355339059327378,0" fill="white" stroke="steelblue" stroke-width="1" opacity="1"/><path transform="translate(14.119558745591188,51.474968922006234)" d="M3.5355339059327378,0A3.5355339059327378,3.5355339059327378,0,1,1,-3.5355339059327378,0A3.5355339059327378,3.5355339059327378,0,1,1,3.5355339059327378,0" fill="white" stroke="steelblue" stroke-width="1" opacity="1"/><path transform="translate(97.52175628694253,72.87268754568885)" d="M3.5355339059327378,0A3.5355339059327378,3.5355339059327378,0,1,1,-3.5355339059327378,0A3.5355339059327378,3.5355339059327378,0,1,1,3.5355339059327378,0" fill="white" stroke="steelblue" stroke-width="1" opacity="1"/><path transform="translate(31.652299068252677,89.38557906776148)" d="M3.5355339059327378,0A3.5355339059327378,3.5355339059327378,0,1,1,-3.5355339059327378,0A3.5355339059327378,3.5355339059327378,0,1,1,3.5355339059327378,0" fill="white" stroke="steelblue" stroke-width="1" opacity="1"/><path transform="translate(84.88209774163948,95.93608318090563)" d="M3.5355339059327378,0A3.5355339059327378,3.5355339059327378,0,1,1,-3.5355339059327378,0A3.5355339059327378,3.5355339059327378,0,1,1,3.5355339059327378,0" fill="white" stroke="steelblue" stroke-width="1" opacity="1"/><path transform="translate(0.3965673199717634,90.73806089270776)" d="M3.5355339059327378,0A3.5355339059327378,3.5355339059327378,0,1,1,-3.5355339059327378,0A3.5355339059327378,3.5355339059327378,0,1,1,3.5355339059327378,0" fill="white" stroke="steelblue" stroke-width="1" opacity="1"/><path transform="translate(13.91723997119233,69.90168275837986)" d="M3.5355339059327378,0A3.5355339059327378,3.5355339059327378,0,1,1,-3.5355339059327378,0A3.5355339059327378,3.5355339059327378,0,1,1,3.5355339059327378,0" fill="white" stroke="steelblue" stroke-width="1" opacity="1"/><path transform="translate(81.1638090627718,77.1728850597097)" d="M3.5355339059327378,0A3.5355339059327378,3.5355339059327378,0,1,1,-3.5355339059327378,0A3.5355339059327378,3.5355339059327378,0,1,1,3.5355339059327378,0" fill="white" stroke="steelblue" stroke-width="1" opacity="1"/><path transform="translate(93.64302501476956,19.366123189983586)" d="M3.5355339059327378,0A3.5355339059327378,3.5355339059327378,0,1,1,-3.5355339059327378,0A3.5355339059327378,3.5355339059327378,0,1,1,3.5355339059327378,0" fill="white" stroke="steelblue" stroke-width="1" opacity="1"/><path transform="translate(65.65726095340575,11.373995844703233)" d="M3.5355339059327378,0A3.5355339059327378,3.5355339059327378,0,1,1,-3.5355339059327378,0A3.5355339059327378,3.5355339059327378,0,1,1,3.5355339059327378,0" fill="white" stroke="steelblue" stroke-width="1" opacity="1"/><path transform="translate(84.81282100313756,55.63741951935979)" d="M3.5355339059327378,0A3.5355339059327378,3.5355339059327378,0,1,1,-3.5355339059327378,0A3.5355339059327378,3.5355339059327378,0,1,1,3.5355339059327378,0" fill="white" stroke="steelblue" stroke-width="1" opacity="1"/><path transform="translate(24.75584044373803,71.6193457827055)" d="M3.5355339059327378,0A3.5355339059327378,3.5355339059327378,0,1,1,-3.5355339059327378,0A3.5355339059327378,3.5355339059327378,0,1,1,3.5355339059327378,0" fill="white" stroke="steelblue" stroke-width="1" opacity="1"/><path transform="translate(10.92095013138401,19.996045555215304)" d="M3.5355339059327378,0A3.5355339059327378,3.5355339059327378,0,1,1,-3.5355339059327378,0A3.5355339059327378,3.5355339059327378,0,1,1,3.5355339059327378,0" fill="white" stroke="steelblue" stroke-width="1" opacity="1"/><path transform="translate(53.81874084312949,94.84094298354465)" d="M3.5355339059327378,0A3.5355339059327378,3.5355339059327378,0,1,1,-3.5355339059327378,0A3.5355339059327378,3.5355339059327378,0,1,1,3.5355339059327378,0" fill="white" stroke="steelblue" stroke-width="1" opacity="1"/><path transform="translate(62.98637416676901,82.03828553251718)" d="M3.5355339059327378,0A3.5355339059327378,3.5355339059327378,0,1,1,-3.5355339059327378,0A3.5355339059327378,3.5355339059327378,0,1,1,3.5355339059327378,0" fill="white" stroke="steelblue" stroke-width="1" opacity="1"/><path transform="translate(7.83907487239447,31.6581163080054)" d="M3.5355339059327378,0A3.5355339059327378,3.5355339059327378,0,1,1,-3.5355339059327378,0A3.5355339059327378,3.5355339059327378,0,1,1,3.5355339059327378,0" fill="white" stroke="steelblue" stroke-width="1" opacity="1"/><path transform="translate(45.9982023695211,38.85860928280195)" d="M3.5355339059327378,0A3.5355339059327378,3.5355339059327378,0,1,1,-3.5355339059327378,0A3.5355339059327378,3.5355339059327378,0,1,1,3.5355339059327378,0" fill="white" stroke="steelblue" stroke-width="1" opacity="1"/><path transform="translate(62.91461531060973,53.7805249463307)" d="M3.5355339059327378,0A3.5355339059327378,3.5355339059327378,0,1,1,-3.5355339059327378,0A3.5355339059327378,3.5355339059327378,0,1,1,3.5355339059327378,0" fill="white" stroke="steelblue" stroke-width="1" opacity="1"/><path transform="translate(93.96079741881105,57.297123641339354)" d="M3.5355339059327378,0A3.5355339059327378,3.5355339059327378,0,1,1,-3.5355339059327378,0A3.5355339059327378,3.5355339059327378,0,1,1,3.5355339059327378,0" fill="white" stroke="steelblue" stroke-width="1" opacity="1"/><path transform="translate(37.632847015574875,33.42993266125163)" d="M3.5355339059327378,0A3.5355339059327378,3.5355339059327378,0,1,1,-3.5355339059327378,0A3.5355339059327378,3.5355339059327378,0,1,1,3.5355339059327378,0" fill="white" stroke="steelblue" stroke-width="1" opacity="1"/><path transform="translate(73.18022798723378,66.33497187298852)" d="M3.5355339059327378,0A3.5355339059327378,3.5355339059327378,0,1,1,-3.5355339059327378,0A3.5355339059327378,3.5355339059327378,0,1,1,3.5355339059327378,0" fill="white" stroke="steelblue" stroke-width="1" opacity="1"/><path transform="translate(77.31320022779563,9.522852847264263)" d="M3.5355339059327378,0A3.5355339059327378,3.5355339059327378,0,1,1,-3.5355339059327378,0A3.5355339059327378,3.5355339059327378,0,1,1,3.5355339059327378,0" fill="white" stroke="steelblue" stroke-width="1" opacity="1"/><path transform="translate(70.88811928943723,75.5867843042214)" d="M3.5355339059327378,0A3.5355339059327378,3.5355339059327378,0,1,1,-3.5355339059327378,0A3.5355339059327378,3.5355339059327378,0,1,1,3.5355339059327378,0" fill="white" stroke="steelblue" stroke-width="1" opacity="1"/><path transform="translate(45.24276193578993,96.02819702879842)" d="M3.5355339059327378,0A3.5355339059327378,3.5355339059327378,0,1,1,-3.5355339059327378,0A3.5355339059327378,3.5355339059327378,0,1,1,3.5355339059327378,0" fill="white" stroke="steelblue" stroke-width="1" opacity="1"/><path transform="translate(64.45740246776005,62.085941229421515)" d="M3.5355339059327378,0A3.5355339059327378,3.5355339059327378,0,1,1,-3.5355339059327378,0A3.5355339059327378,3.5355339059327378,0,1,1,3.5355339059327378,0" fill="white" stroke="steelblue" stroke-width="1" opacity="1"/><path transform="translate(66.38218154926409,36.17551821983949)" d="M3.5355339059327378,0A3.5355339059327378,3.5355339059327378,0,1,1,-3.5355339059327378,0A3.5355339059327378,3.5355339059327378,0,1,1,3.5355339059327378,0" fill="white" stroke="steelblue" stroke-width="1" opacity="1"/><path transform="translate(14.307559485896782,98.8023406245584)" d="M3.5355339059327378,0A3.5355339059327378,3.5355339059327378,0,1,1,-3.5355339059327378,0A3.5355339059327378,3.5355339059327378,0,1,1,3.5355339059327378,0" fill="white" stroke="steelblue" stroke-width="1" opacity="1"/><path transform="translate(11.269301995504112,5.072026421852771)" d="M3.5355339059327378,0A3.5355339059327378,3.5355339059327378,0,1,1,-3.5355339059327378,0A3.5355339059327378,3.5355339059327378,0,1,1,3.5355339059327378,0" fill="white" stroke="steelblue" stroke-width="1" opacity="1"/><path transform="translate(63.381377629096924,69.83521765549118)" d="M3.5355339059327378,0A3.5355339059327378,3.5355339059327378,0,1,1,-3.5355339059327378,0A3.5355339059327378,3.5355339059327378,0,1,1,3.5355339059327378,0" fill="white" stroke="steelblue" stroke-width="1" opacity="1"/><path transform="translate(95.75088010337424,5.023304455888056)" d="M3.5355339059327378,0A3.5355339059327378,3.5355339059327378,0,1,1,-3.5355339059327378,0A3.5355339059327378,3.5355339059327378,0,1,1,3.5355339059327378,0" fill="white" stroke="steelblue" stroke-width="1" opacity="1"/><path transform="translate(36.71615936142234,88.47154763180195)" d="M3.5355339059327378,0A3.5355339059327378,3.5355339059327378,0,1,1,-3.5355339059327378,0A3.5355339059327378,3.5355339059327378,0,1,1,3.5355339059327378,0" fill="white" stroke="steelblue" stroke-width="1" opacity="1"/><path transform="translate(47.34624096906078,81.32978945973055)" d="M3.5355339059327378,0A3.5355339059327378,3.5355339059327378,0,1,1,-3.5355339059327378,0A3.5355339059327378,3.5355339059327378,0,1,1,3.5355339059327378,0" fill="white" stroke="steelblue" stroke-width="1" opacity="1"/></g></g><path class="foreground" aria-hidden="true" d="" display="none"/></g></g></g><path class="foreground" aria-hidden="true" d="" display="none"/></g></g></g><defs><clipPath id="clip1"><rect x="0" y="0" width="100" height="100"/></clipPath></defs></svg>