<svg xmlns="http://www.w3.org/2000/svg" xmlns:xlink="http://www.w3.org/1999/xlink" version="1.1" class="marks" width="145" height="137" viewBox="0 0 145 137"><rect width="145" height="137" fill="white"/><g fill="none" stroke-miterlimit="10" transform="translate(37,5)"><g class="mark-group role-frame root" role="graphics-object" aria-roledescription="group mark container"><g transform="translate(0,0)"><path class="background" aria-hidden="true" d="M0,0h100v100h-100Z" fill="lightgray"/><g><g class="mark-group role-axis" role="graphics-symbol" aria-roledescription="axis" aria-label="X-axis titled 'x' for a linear scale with values from 0.0 to 1.0"><g transform="translate(0.5,100.5)"><path class="background" aria-hidden="true" d="M0,0h0v0h0Z" pointer-events="none"/><g><g class="mark-rule role-axis-grid" pointer-events="none"><line transform="translate(0,0)" x2="0" y2="-100" stroke="white" stroke-width="0.5" stroke-dasharray="0" opacity="1"/><line transform="translate(50,0)" x2="0" y2="-100" stroke="white" stroke-width="0.5" stroke-dasharray="0" opacity="1"/><line transform="translate(100,0)" x2="0" y2="-100" stroke="white" stroke-width="0.5" stroke-dasharray="0" opacity="1"/></g><g class="mark-rule role-axis-tick" pointer-events="none"><line transform="translate(0,0)" x2="0" y2="5" stroke="black" stroke-width="1.01" opacity="1"/><line transform="translate(50,0)" x2="0" y2="5" stroke="black" stroke-width="1.01" opacity="1"/><line transform="translate(100,0)" x2="0" y2="5" stroke="black" stroke-width="1.01" opacity="1"/></g><g class="mark-text role-axis-label" pointer-events="none"><text text-anchor="middle" transform="translate(0,15)" font-family="sans-serif" font-size="10px" font-style="normal" font-weight="400" fill="black" opacity="1">0.0</text><text text-anchor="middle" transform="translate(50,15)" font-family="sans-serif" font-size="10px" font-style="normal" font-weight="400" fill="black" opacity="1">0.5</text><text text-anchor="middle" transform="translate(100,15)" font-family="sans-serif" font-size="10px" font-style="normal" font-weight="400" fill="black" opacity="1">1.0</text></g><g class="mark-rule role-axis-domain" pointer-events="none"><line transform="translate(0,0)" x2="100" y2="0" stroke="black" stroke-width="1.01" opacity="1"/></g><g class="mark-text role-axis-title" pointer-events="none"><text text-anchor="middle" transform="translate(50,30)" font-family="sans-serif" font-size="11px" font-style="normal" font-weight="400" fill="black" opacity="1">x</text></g></g><path class="foreground" aria-hidden="true" d="" pointer-events="none" display="none"/></g></g><g class="mark-group role-axis" role="graphics-symbol" aria-roledescription="axis" aria-label="Y-axis titled 'y' for a linear scale with values from 0.0 to 1.0"><g transform="translate(0.5,0.5)"><path class="background" aria-hidden="true" d="M0,0h0v0h0Z" pointer-events="none"/><g><g class="mark-rule role-axis-grid" pointer-events="none"><line transform="translate(0,100)" x2="100" y2="0" stroke="white" stroke-width="0.5" stroke-dasharray="0" opacity="1"/><line transform="translate(0,50)" x2="100" y2="0" stroke="white" stroke-width="0.5" stroke-dasharray="0" opacity="1"/><line transform="translate(0,0)" x2="100" y2="0" stroke="white" stroke-width="0.5" stroke-dasharray="0" opacity="1"/></g><g class="mark-rule role-axis-tick" pointer-events="none"><line transform="translate(0,100)" x2="-5" y2="0" stroke="black" stroke-width="1.01" opacity="1"/><line transform="translate(0,50)" x2="-5" y2="0" stroke="black" stroke-width="1.01" opacity="1"/><line transform="translate(0,0)" x2="-5" y2="0" stroke="black" stroke-width="1.01" opacity="1"/></g><g class="mark-text role-axis-label" pointer-events="none"><text text-anchor="end" transform="translate(-7,103)" font-family="sans-serif" font-size="10px" font-style="normal" font-weight="400" fill="black" opacity="1">0.0</text><text text-anchor="end" transform="translate(-7,53)" font-family="sans-serif" font-size="10px" font-style="normal" font-weight="400" fill="black" opacity="1">0.5</text><text text-anchor="end" transform="translate(-7,3)" font-family="sans-serif" font-size="10px" font-style="normal" font-weight="400" fill="black" opacity="1">1.0</text></g><g class="mark-rule role-axis-domain" pointer-events="none"><line transform="translate(0,100)" x2="0" y2="-100" stroke="black" stroke-width="1.01" opacity="1"/></g><g class="mark-text role-axis-title" pointer-events="none"><text text-anchor="middle" transform="translate(-26,50) rotate(-90) translate(0,-2)" font-family="sans-serif" font-size="11px" font-style="normal" font-weight="400" fill="black" opacity="1">y</text></g></g><path class="foreground" aria-hidden="true" d="" pointer-events="none" display="none"/></g></g><g class="mark-group role-scope" role="graphics-object" aria-roledescription="group mark container"><g transform="translate(0,0)"><path class="background" aria-hidden="true" d="M0,0h0v0h0Z"/><g><g class="mark-symbol role-mark points" role="graphics-symbol" aria-roledescription="symbol mark container"><path transform="translate(75.27829936188924,21.634870293811847)" d="M5,0A5,5,0,1,1,-5,0A5,5,0,1,1,5,0" fill="white" stroke="steelblue" stroke-width="1" opacity="1"/><path transform="translate(34.08128950371817,31.63491237469217)" d="M5,0A5,5,0,1,1,-5,0A5,5,0,1,1,5,0" fill="white" stroke="steelblue" stroke-width="1" opacity="1"/><path transform="translate(89.59557691236488,60.82420127669206)" d="M5,0A5,5,0,1,1,-5,0A5,5,0,1,1,5,0" fill="white" stroke="steelblue" stroke-width="1" opacity="1"/><path transform="translate(25.352477842845122,89.25074969649502)" d="M5,0A5,5,0,1,1,-5,0A5,5,0,1,1,5,0" fill="white" stroke="steelblue" stroke-width="1" opacity="1"/><path transform="translate(47.07206031650254,25.50854627463648)" d="M5,0A5,5,0,1,1,-5,0A5,5,0,1,1,5,0" fill="white" stroke="steelblue" stroke-width="1" opacity="1"/><path transform="translate(92.97267413414768,61.98189019490297)" d="M5,0A5,5,0,1,1,-5,0A5,5,0,1,1,5,0" fill="white" stroke="steelblue" stroke-width="1" opacity="1"/><path transform="translate(41.26394758735837,16.134018545095497)" d="M5,0A5,5,0,1,1,-5,0A5,5,0,1,1,5,0" fill="white" stroke="steelblue" stroke-width="1" opacity="1"/><path transform="translate(14.056229359420291,63.076023184750305)" d="M5,0A5,5,0,1,1,-5,0A5,5,0,1,1,5,0" fill="white" stroke="steelblue" stroke-width="1" opacity="1"/><path transform="translate(78.49227250396743,22.037008601338425)" d="M5,0A5,5,0,1,1,-5,0A5,5,0,1,1,5,0" fill="white" stroke="steelblue" stroke-width="1" opacity="1"/><path transform="translate(2.7482982993350946,4.968864006626839)" d="M5,0A5,5,0,1,1,-5,0A5,5,0,1,1,5,0" fill="white" stroke="steelblue" stroke-width="1" opacity="1"/><path transform="translate(33.84884227192513,6.03999655232621)" d="M5,0A5,5,0,1,1,-5,0A5,5,0,1,1,5,0" fill="white" stroke="steelblue" stroke-width="1" opacity="1"/><path transform="translate(8.490076264900747,14.315739497384461)" d="M5,0A5,5,0,1,1,-5,0A5,5,0,1,1,5,0" fill="white" stroke="steelblue" stroke-width="1" opacity="1"/><path transform="translate(15.33146017120689,94.18215092333715)" d="M5,0A5,5,0,1,1,-5,0A5,5,0,1,1,5,0" fill="white" stroke="steelblue" stroke-width="1" opacity="1"/><path transform="translate(93.37286595407865,80.72603391705225)" d="M5,0A5,5,0,1,1,-5,0A5,5,0,1,1,5,0" fill="white" stroke="steelblue" stroke-width="1" opacity="1"/><path transform="translate(90.52553163882601,76.98850359994444)" d="M5,0A5,5,0,1,1,-5,0A5,5,0,1,1,5,0" fill="white" stroke="steelblue" stroke-width="1" opacity="1"/><path transform="translate(12.159850649796278,87.48478704714493)" d="M5,0A5,5,0,1,1,-5,0A5,5,0,1,1,5,0" fill="white" stroke="steelblue" stroke-width="1" opacity="1"/><path transform="translate(22.209380409863044,12.645116499057918)" d="M5,0A5,5,0,1,1,-5,0A5,5,0,1,1,5,0" fill="white" stroke="steelblue" stroke-width="1" opacity="1"/><path transform="translate(5.898391818073434,86.05377842782879)" d="M5,0A5,5,0,1,1,-5,0A5,5,0,1,1,5,0" fill="white" stroke="steelblue" stroke-width="1" opacity="1"/><path transform="translate(16.89318431500817,82.70368284794574)" d="M5,0A5,5,0,1,1,-5,0A5,5,0,1,1,5,0" fill="white" stroke="steelblue" stroke-width="1" opacity="1"/><path transform="translate(79.74967273555494,79.42608883744278)" d="M5,0A5,5,0,1,1,-5,0A5,5,0,1,1,5,0" fill="white" stroke="steelblue" stroke-width="1" opacity="1"/></g></g><path class="foreground" aria-hidden="true" d="" display="none"/></g></g></g><path class="foreground" aria-hidden="true" d="" display="none"/></g></g></g></svg>