<svg xmlns="http://www.w3.org/2000/svg" xmlns:xlink="http://www.w3.org/1999/xlink" version="1.1" class="marks" width="129" height="133" viewBox="0 0 129 133"><rect width="129" height="133" fill="white"/><g fill="none" stroke-miterlimit="10" transform="translate(29,1)"><g class="mark-group role-frame root" role="graphics-object" aria-roledescription="group mark container"><g transform="translate(0,0)"><path class="background" aria-hidden="true" d="M0,0h100v100h-100Z"/><g><g class="mark-group role-axis" role="graphics-symbol" aria-roledescription="axis" aria-label="X-axis titled 'low' for a linear scale with values from −0.2 to 2.6"><g transform="translate(0.5,100.5)"><path class="background" aria-hidden="true" d="M0,0h0v0h0Z" pointer-events="none"/><g><g class="mark-rule role-axis-tick" pointer-events="none"><line transform="translate(7,0)" x2="0" y2="5" stroke="black" stroke-width="1.01" opacity="1"/><line transform="translate(43,0)" x2="0" y2="5" stroke="black" stroke-width="1.01" opacity="1"/><line transform="translate(79,0)" x2="0" y2="5" stroke="black" stroke-width="1.01" opacity="1"/></g><g class="mark-text role-axis-label" pointer-events="none"><text text-anchor="middle" transform="translate(7.142857142857142,15)" font-family="sans-serif" font-size="10px" font-style="normal" font-weight="400" fill="black" opacity="1">0</text><text text-anchor="middle" transform="translate(42.85714285714285,15)" font-family="sans-serif" font-size="10px" font-style="normal" font-weight="400" fill="black" opacity="1">1</text><text text-anchor="middle" transform="translate(78.57142857142857,15)" font-family="sans-serif" font-size="10px" font-style="normal" font-weight="400" fill="black" opacity="1">2</text></g><g class="mark-rule role-axis-domain" pointer-events="none"><line transform="translate(0,0)" x2="100" y2="0" stroke="black" stroke-width="1.01" opacity="1"/></g><g class="mark-text role-axis-title" pointer-events="none"><text text-anchor="middle" transform="translate(50,30)" font-family="sans-serif" font-size="11px" font-style="normal" font-weight="400" fill="white" opacity="1">low</text></g></g><path class="foreground" aria-hidden="true" d="" pointer-events="none" display="none"/></g></g><g class="mark-group role-axis" role="graphics-symbol" aria-roledescription="axis" aria-label="Y-axis titled 'y' for a linear scale with values from 1 to 5"><g transform="translate(0.5,0.5)"><path class="background" aria-hidden="true" d="M0,0h0v0h0Z" pointer-events="none"/><g><g class="mark-rule role-axis-tick" pointer-events="none"><line transform="translate(0,88)" x2="-5" y2="0" stroke="black" stroke-width="1.01" opacity="1"/><line transform="translate(0,63)" x2="-5" y2="0" stroke="black" stroke-width="1.01" opacity="1"/><line transform="translate(0,38)" x2="-5" y2="0" stroke="black" stroke-width="1.01" opacity="1"/><line transform="translate(0,13)" x2="-5" y2="0" stroke="black" stroke-width="1.01" opacity="1"/></g><g class="mark-text role-axis-label" pointer-events="none"><text text-anchor="end" transform="translate(-7,90.5)" font-family="sans-serif" font-size="10px" font-style="normal" font-weight="400" fill="black" opacity="1">1</text><text text-anchor="end" transform="translate(-7,65.5)" font-family="sans-serif" font-size="10px" font-style="normal" font-weight="400" fill="black" opacity="1">2</text><text text-anchor="end" transform="translate(-7,40.5)" font-family="sans-serif" font-size="10px" font-style="normal" font-weight="400" fill="black" opacity="1">3</text><text text-anchor="end" transform="translate(-7,15.5)" font-family="sans-serif" font-size="10px" font-style="normal" font-weight="400" fill="black" opacity="1">4</text></g><g class="mark-rule role-axis-domain" pointer-events="none"><line transform="translate(0,100)" x2="0" y2="-100" stroke="black" stroke-width="1.01" opacity="1"/></g><g class="mark-text role-axis-title" pointer-events="none"><text text-anchor="middle" transform="translate(-17.3623046875,50) rotate(-90) translate(0,-2)" font-family="sans-serif" font-size="11px" font-style="normal" font-weight="400" fill="white" opacity="1">y</text></g></g><path class="foreground" aria-hidden="true" d="" pointer-events="none" display="none"/></g></g><g class="mark-group role-scope" role="graphics-object" aria-roledescription="group mark container"><g transform="translate(0,0)"><path class="background" aria-hidden="true" d="M0,0h0v0h0Z"/><g><g class="mark-rect role-mark" role="graphics-symbol" aria-roledescription="rect mark container"><path d="M25.918490481400198,87.5h59.58632385218533v0h-59.58632385218533Z" stroke="#4682b4" stroke-width="1" opacity="1"/><path d="M37.24105917441794,62.5h44.34723027016685v0h-44.34723027016685Z" stroke="#4682b4" stroke-width="1" opacity="1"/><path d="M23.6642130667403,37.5h42.03416243499075v0h-42.03416243499075Z" stroke="#4682b4" stroke-width="1" opacity="1"/><path d="M10.187957717894754,12.5h63.364744086342675v0h-63.364744086342675Z" stroke="#4682b4" stroke-width="1" opacity="1"/></g></g><path class="foreground" aria-hidden="true" d="" display="none"/></g></g><g class="mark-group role-scope" role="graphics-object" aria-roledescription="group mark container"><g transform="translate(0,0)"><path class="background" aria-hidden="true" d="M0,0h0v0h0Z"/><g><g class="mark-symbol role-mark points" role="graphics-symbol" aria-roledescription="symbol mark container"><path transform="translate(25.918490481400198,87.5) rotate(90)" d="M-3.536,0L3.536,0" fill="white" stroke="steelblue" stroke-width="1" opacity="1"/><path transform="translate(37.24105917441794,62.5) rotate(90)" d="M-3.536,0L3.536,0" fill="white" stroke="steelblue" stroke-width="1" opacity="1"/><path transform="translate(23.6642130667403,37.5) rotate(90)" d="M-3.536,0L3.536,0" fill="white" stroke="steelblue" stroke-width="1" opacity="1"/><path transform="translate(10.187957717894754,12.5) rotate(90)" d="M-3.536,0L3.536,0" fill="white" stroke="steelblue" stroke-width="1" opacity="1"/></g></g><path class="foreground" aria-hidden="true" d="" display="none"/></g></g><g class="mark-group role-scope" role="graphics-object" aria-roledescription="group mark container"><g transform="translate(0,0)"><path class="background" aria-hidden="true" d="M0,0h0v0h0Z"/><g><g class="mark-symbol role-mark points" role="graphics-symbol" aria-roledescription="symbol mark container"><path transform="translate(85.50481433358553,87.5) rotate(90)" d="M-3.536,0L3.536,0" fill="white" stroke="steelblue" stroke-width="1" opacity="1"/><path transform="translate(81.58828944458479,62.5) rotate(90)" d="M-3.536,0L3.536,0" fill="white" stroke="steelblue" stroke-width="1" opacity="1"/><path transform="translate(65.69837550173105,37.5) rotate(90)" d="M-3.536,0L3.536,0" fill="white" stroke="steelblue" stroke-width="1" opacity="1"/><path transform="translate(73.55270180423743,12.5) rotate(90)" d="M-3.536,0L3.536,0" fill="white" stroke="steelblue" stroke-width="1" opacity="1"/></g></g><path class="foreground" aria-hidden="true" d="" display="none"/></g></g><g class="mark-rule role-mark" role="graphics-symbol" aria-roledescription="rule mark container"><line transform="translate(42.85714285714285,0)" x2="0" y2="100" stroke="grey" stroke-width="1" stroke-dasharray="2" opacity="1"/></g></g><path class="foreground" aria-hidden="true" d="" display="none"/></g></g></g></svg>