<svg xmlns="http://www.w3.org/2000/svg" xmlns:xlink="http://www.w3.org/1999/xlink" version="1.1" class="marks" width="123" height="122" viewBox="0 0 123 122"><rect width="123" height="122" fill="white"/><g fill="none" stroke-miterlimit="10" transform="translate(22,5)"><g class="mark-group role-frame root" role="graphics-object" aria-roledescription="group mark container"><g transform="translate(0,0)"><path class="background" aria-hidden="true" d="M0,0h100v100h-100Z"/><g><g class="mark-group role-axis" role="graphics-symbol" aria-roledescription="axis" aria-label="X-axis for a discrete scale with 1 value: variable(s)"><g transform="translate(0.5,100.5)"><path class="background" aria-hidden="true" d="M0,0h0v0h0Z" pointer-events="none"/><g><g class="mark-rule role-axis-tick" pointer-events="none"><line transform="translate(50,0)" x2="0" y2="5" stroke="white" stroke-width="1.01" opacity="1"/></g><g class="mark-text role-axis-label" pointer-events="none"><text text-anchor="middle" transform="translate(49.5,15)" font-family="sans-serif" font-size="10px" font-style="normal" font-weight="400" fill="black" opacity="1">variable(s)</text></g></g><path class="foreground" aria-hidden="true" d="" pointer-events="none" display="none"/></g></g><g class="mark-group role-axis" role="graphics-symbol" aria-roledescription="axis" aria-label="Y-axis for a linear scale with values from −5 to 4"><g transform="translate(0.5,0.5)"><path class="background" aria-hidden="true" d="M0,0h0v0h0Z" pointer-events="none"/><g><g class="mark-rule role-axis-tick" pointer-events="none"><line transform="translate(0,89)" x2="-5" y2="0" stroke="white" stroke-width="1.01" opacity="1"/><line transform="translate(0,67)" x2="-5" y2="0" stroke="white" stroke-width="1.01" opacity="1"/><line transform="translate(0,44)" x2="-5" y2="0" stroke="white" stroke-width="1.01" opacity="1"/><line transform="translate(0,22)" x2="-5" y2="0" stroke="white" stroke-width="1.01" opacity="1"/><line transform="translate(0,0)" x2="-5" y2="0" stroke="white" stroke-width="1.01" opacity="1"/></g><g class="mark-text role-axis-label" pointer-events="none"><text text-anchor="end" transform="translate(-7,91.88888888888889)" font-family="sans-serif" font-size="10px" font-style="normal" font-weight="400" fill="white" opacity="1">−4</text><text text-anchor="end" transform="translate(-7,69.66666666666667)" font-family="sans-serif" font-size="10px" font-style="normal" font-weight="400" fill="white" opacity="1">−2</text><text text-anchor="end" transform="translate(-7,47.44444444444444)" font-family="sans-serif" font-size="10px" font-style="normal" font-weight="400" fill="white" opacity="1">0</text><text text-anchor="end" transform="translate(-7,25.22222222222222)" font-family="sans-serif" font-size="10px" font-style="normal" font-weight="400" fill="white" opacity="1">2</text><text text-anchor="end" transform="translate(-7,3)" font-family="sans-serif" font-size="10px" font-style="normal" font-weight="400" fill="white" opacity="1">4</text></g></g><path class="foreground" aria-hidden="true" d="" pointer-events="none" display="none"/></g></g><g class="mark-group role-scope" role="graphics-object" aria-roledescription="group mark container"><g transform="translate(0,0)"><path class="background" aria-hidden="true" d="M0,0h0v0h0Z"/><g><g class="mark-group role-scope" role="graphics-object" aria-roledescription="group mark container"><g transform="translate(0,0)"><path class="background" aria-hidden="true" d="M0,0h24.050632911392405v100h-24.050632911392405Z"/><g><g class="mark-area role-mark" role="graphics-symbol" aria-roledescription="area mark container"><path d="M12.034,75.58L12.04,74.882L12.049,74.183L12.064,73.485L12.086,72.787L12.118,72.089L12.163,71.391L12.224,70.693L12.304,69.995L12.406,69.297L12.533,68.599L12.685,67.901L12.863,67.203L13.064,66.505L13.287,65.807L13.527,65.109L13.783,64.41L14.05,63.712L14.328,63.014L14.616,62.316L14.917,61.618L15.235,60.92L15.574,60.222L15.942,59.524L16.342,58.826L16.78,58.128L17.259,57.43L17.779,56.732L18.339,56.034L18.933,55.335L19.555,54.637L20.194,53.939L20.837,53.241L21.467,52.543L22.068,51.845L22.619,51.147L23.101,50.449L23.497,49.751L23.793,49.053L23.978,48.355L24.051,47.657L24.013,46.959L23.877,46.26L23.658,45.562L23.375,44.864L23.051,44.166L22.705,43.468L22.358,42.77L22.022,42.072L21.71,41.374L21.426,40.676L21.172,39.978L20.945,39.28L20.74,38.582L20.549,37.884L20.362,37.186L20.171,36.487L19.964,35.789L19.733,35.091L19.471,34.393L19.172,33.695L18.834,32.997L18.457,32.299L18.042,31.601L17.595,30.903L17.123,30.205L16.637,29.507L16.146,28.809L15.664,28.111L15.201,27.412L14.768,26.714L14.374,26.016L14.025,25.318L13.723,24.62L13.47,23.922L13.262,23.224L13.095,22.526L12.961,21.828L12.854,21.13L12.767,20.432L12.694,19.734L12.628,19.036L12.567,18.337L12.508,17.639L12.45,16.941L12.392,16.243L12.337,15.545L12.284,14.847L12.235,14.149L12.191,13.451L12.153,12.753L12.121,12.055L12.095,11.357L12.075,10.659L12.06,9.961L12.048,9.263L12.04,8.564L12.035,7.866L12.031,7.168L12.029,6.47L12.022,6.47L12.02,7.168L12.016,7.866L12.01,8.564L12.002,9.263L11.991,9.961L11.976,10.659L11.955,11.357L11.929,12.055L11.897,12.753L11.859,13.451L11.816,14.149L11.767,14.847L11.714,15.545L11.658,16.243L11.601,16.941L11.543,17.639L11.483,18.337L11.422,19.036L11.357,19.734L11.283,20.432L11.196,21.13L11.09,21.828L10.956,22.526L10.788,23.224L10.58,23.922L10.327,24.62L10.026,25.318L9.677,26.016L9.283,26.714L8.85,27.412L8.387,28.111L7.904,28.809L7.414,29.507L6.927,30.205L6.456,30.903L6.009,31.601L5.594,32.299L5.216,32.997L4.878,33.695L4.58,34.393L4.318,35.091L4.087,35.789L3.88,36.487L3.688,37.186L3.502,37.884L3.31,38.582L3.105,39.28L2.879,39.978L2.625,40.676L2.341,41.374L2.028,42.072L1.693,42.77L1.345,43.468L1,44.166L0.675,44.864L0.393,45.562L0.173,46.26L0.037,46.959L0,47.657L0.072,48.355L0.258,49.053L0.553,49.751L0.949,50.449L1.432,51.147L1.983,51.845L2.583,52.543L3.214,53.241L3.856,53.939L4.495,54.637L5.117,55.335L5.712,56.034L6.271,56.732L6.792,57.43L7.27,58.128L7.709,58.826L8.109,59.524L8.476,60.222L8.816,60.92L9.134,61.618L9.435,62.316L9.723,63.014L10.001,63.712L10.268,64.41L10.523,65.109L10.764,65.807L10.987,66.505L11.188,67.203L11.365,67.901L11.518,68.599L11.644,69.297L11.747,69.995L11.827,70.693L11.888,71.391L11.933,72.089L11.965,72.787L11.987,73.485L12.001,74.183L12.011,74.882L12.017,75.58Z" fill="#4c78a8" fill-opacity="0.5" stroke="#4c78a8" stroke-width="1"/></g></g><path class="foreground" aria-hidden="true" d="" display="none"/></g><g transform="translate(25.31645569620253,0)"><path class="background" aria-hidden="true" d="M0,0h24.050632911392405v100h-24.050632911392405Z"/><g><g class="mark-area role-mark" role="graphics-symbol" aria-roledescription="area mark container"><path d="M12.028,85.442L12.03,84.616L12.033,83.789L12.038,82.962L12.045,82.136L12.055,81.309L12.069,80.482L12.087,79.656L12.111,78.829L12.142,78.002L12.18,77.176L12.225,76.349L12.279,75.522L12.342,74.696L12.414,73.869L12.495,73.042L12.586,72.216L12.686,71.389L12.796,70.562L12.915,69.736L13.044,68.909L13.182,68.083L13.33,67.256L13.49,66.429L13.664,65.603L13.855,64.776L14.069,63.949L14.311,63.123L14.586,62.296L14.901,61.469L15.259,60.643L15.66,59.816L16.102,58.989L16.576,58.163L17.072,57.336L17.572,56.509L18.061,55.683L18.519,54.856L18.931,54.029L19.285,53.203L19.578,52.376L19.81,51.549L19.993,50.723L20.139,49.896L20.269,49.069L20.398,48.243L20.541,47.416L20.709,46.59L20.902,45.763L21.115,44.936L21.336,44.11L21.548,43.283L21.732,42.456L21.868,41.63L21.941,40.803L21.937,39.976L21.85,39.15L21.677,38.323L21.423,37.496L21.098,36.67L20.715,35.843L20.289,35.016L19.838,34.19L19.377,33.363L18.919,32.536L18.476,31.71L18.053,30.883L17.653,30.056L17.276,29.23L16.92,28.403L16.58,27.576L16.253,26.75L15.935,25.923L15.624,25.096L15.32,24.27L15.022,23.443L14.732,22.617L14.451,21.79L14.182,20.963L13.925,20.137L13.683,19.31L13.456,18.483L13.246,17.657L13.052,16.83L12.877,16.003L12.72,15.177L12.582,14.35L12.463,13.523L12.362,12.697L12.279,11.87L12.212,11.043L12.16,10.217L12.119,9.39L12.09,8.563L12.068,7.737L12.053,6.91L12.043,6.083L12.036,5.257L12.032,4.43L12.029,3.603L12.022,3.603L12.019,4.43L12.015,5.257L12.008,6.083L11.997,6.91L11.982,7.737L11.961,8.563L11.931,9.39L11.891,10.217L11.839,11.043L11.772,11.87L11.689,12.697L11.588,13.523L11.469,14.35L11.331,15.177L11.174,16.003L10.998,16.83L10.805,17.657L10.594,18.483L10.368,19.31L10.125,20.137L9.869,20.963L9.599,21.79L9.319,22.617L9.029,23.443L8.731,24.27L8.426,25.096L8.116,25.923L7.798,26.75L7.47,27.576L7.13,28.403L6.774,29.23L6.397,30.056L5.998,30.883L5.575,31.71L5.131,32.536L4.674,33.363L4.213,34.19L3.762,35.016L3.336,35.843L2.953,36.67L2.628,37.496L2.374,38.323L2.201,39.15L2.113,39.976L2.109,40.803L2.182,41.63L2.319,42.456L2.503,43.283L2.715,44.11L2.936,44.936L3.149,45.763L3.342,46.59L3.509,47.416L3.653,48.243L3.782,49.069L3.911,49.896L4.058,50.723L4.24,51.549L4.473,52.376L4.765,53.203L5.12,54.029L5.532,54.856L5.99,55.683L6.478,56.509L6.979,57.336L7.475,58.163L7.949,58.989L8.391,59.816L8.792,60.643L9.149,61.469L9.464,62.296L9.74,63.123L9.981,63.949L10.195,64.776L10.387,65.603L10.56,66.429L10.72,67.256L10.869,68.083L11.007,68.909L11.135,69.736L11.255,70.562L11.364,71.389L11.465,72.216L11.555,73.042L11.637,73.869L11.709,74.696L11.771,75.522L11.825,76.349L11.871,77.176L11.909,78.002L11.939,78.829L11.963,79.656L11.982,80.482L11.996,81.309L12.005,82.136L12.012,82.962L12.017,83.789L12.02,84.616L12.022,85.442Z" fill="#f58518" fill-opacity="0.5" stroke="#f58518" stroke-width="1"/></g></g><path class="foreground" aria-hidden="true" d="" display="none"/></g><g transform="translate(50.63291139240506,0)"><path class="background" aria-hidden="true" d="M0,0h24.050632911392405v100h-24.050632911392405Z"/><g><g class="mark-area role-mark" role="graphics-symbol" aria-roledescription="area mark container"><path d="M12.028,95.767L12.03,94.826L12.033,93.885L12.038,92.944L12.046,92.003L12.056,91.063L12.071,90.122L12.089,89.181L12.111,88.24L12.137,87.299L12.165,86.358L12.194,85.417L12.222,84.476L12.247,83.535L12.267,82.594L12.281,81.654L12.29,80.713L12.296,79.772L12.301,78.831L12.312,77.89L12.333,76.949L12.373,76.008L12.437,75.067L12.529,74.126L12.654,73.185L12.811,72.245L12.997,71.304L13.209,70.363L13.44,69.422L13.683,68.481L13.932,67.54L14.183,66.599L14.436,65.658L14.695,64.717L14.966,63.776L15.258,62.836L15.579,61.895L15.936,60.954L16.336,60.013L16.779,59.072L17.263,58.131L17.78,57.19L18.319,56.249L18.867,55.308L19.409,54.367L19.926,53.427L20.404,52.486L20.827,51.545L21.184,50.604L21.465,49.663L21.667,48.722L21.789,47.781L21.836,46.84L21.815,45.899L21.736,44.958L21.611,44.018L21.449,43.077L21.259,42.136L21.047,41.195L20.813,40.254L20.557,39.313L20.277,38.372L19.968,37.431L19.627,36.49L19.253,35.549L18.848,34.609L18.416,33.668L17.964,32.727L17.5,31.786L17.033,30.845L16.574,29.904L16.13,28.963L15.71,28.022L15.317,27.081L14.958,26.14L14.632,25.2L14.34,24.259L14.08,23.318L13.848,22.377L13.641,21.436L13.453,20.495L13.28,19.554L13.12,18.613L12.97,17.672L12.83,16.731L12.699,15.791L12.578,14.85L12.469,13.909L12.374,12.968L12.292,12.027L12.223,11.086L12.168,10.145L12.126,9.204L12.094,8.263L12.07,7.322L12.054,6.382L12.043,5.441L12.036,4.5L12.031,3.559L12.029,2.618L12.022,2.618L12.019,3.559L12.015,4.5L12.008,5.441L11.997,6.382L11.98,7.322L11.957,8.263L11.925,9.204L11.882,10.145L11.827,11.086L11.759,12.027L11.677,12.968L11.581,13.909L11.472,14.85L11.352,15.791L11.221,16.731L11.081,17.672L10.931,18.613L10.77,19.554L10.598,20.495L10.41,21.436L10.202,22.377L9.971,23.318L9.711,24.259L9.419,25.2L9.093,26.14L8.733,27.081L8.341,28.022L7.92,28.963L7.477,29.904L7.017,30.845L6.551,31.786L6.087,32.727L5.634,33.668L5.202,34.609L4.797,35.549L4.424,36.49L4.083,37.431L3.774,38.372L3.493,39.313L3.238,40.254L3.004,41.195L2.791,42.136L2.602,43.077L2.44,44.018L2.315,44.958L2.236,45.899L2.215,46.84L2.262,47.781L2.384,48.722L2.585,49.663L2.867,50.604L3.223,51.545L3.647,52.486L4.124,53.427L4.642,54.367L5.183,55.308L5.731,56.249L6.271,57.19L6.788,58.131L7.271,59.072L7.714,60.013L8.114,60.954L8.472,61.895L8.793,62.836L9.084,63.776L9.355,64.717L9.614,65.658L9.868,66.599L10.119,67.54L10.368,68.481L10.61,69.422L10.841,70.363L11.053,71.304L11.24,72.245L11.397,73.185L11.521,74.126L11.614,75.067L11.678,76.008L11.717,76.949L11.739,77.89L11.75,78.831L11.755,79.772L11.76,80.713L11.769,81.654L11.784,82.594L11.804,83.535L11.829,84.476L11.857,85.417L11.886,86.358L11.914,87.299L11.94,88.24L11.962,89.181L11.98,90.122L11.994,91.063L12.005,92.003L12.012,92.944L12.017,93.885L12.021,94.826L12.023,95.767Z" fill="#e45756" fill-opacity="0.5" stroke="#e45756" stroke-width="1"/></g></g><path class="foreground" aria-hidden="true" d="" display="none"/></g><g transform="translate(75.9493670886076,0)"><path class="background" aria-hidden="true" d="M0,0h24.050632911392405v100h-24.050632911392405Z"/><g><g class="mark-area role-mark" role="graphics-symbol" aria-roledescription="area mark container"><path d="M12.028,81.694L12.031,80.918L12.034,80.143L12.04,79.368L12.048,78.593L12.059,77.817L12.075,77.042L12.098,76.267L12.127,75.491L12.166,74.716L12.216,73.941L12.28,73.166L12.359,72.39L12.457,71.615L12.576,70.84L12.719,70.064L12.889,69.289L13.086,68.514L13.313,67.739L13.567,66.963L13.849,66.188L14.153,65.413L14.476,64.637L14.814,63.862L15.161,63.087L15.514,62.312L15.869,61.536L16.225,60.761L16.58,59.986L16.936,59.21L17.292,58.435L17.651,57.66L18.016,56.885L18.388,56.109L18.771,55.334L19.166,54.559L19.575,53.783L19.997,53.008L20.43,52.233L20.871,51.458L21.312,50.682L21.747,49.907L22.167,49.132L22.562,48.356L22.919,47.581L23.227,46.806L23.472,46.031L23.638,45.255L23.713,44.48L23.686,43.705L23.549,42.929L23.3,42.154L22.944,41.379L22.493,40.604L21.964,39.828L21.379,39.053L20.759,38.278L20.127,37.502L19.505,36.727L18.907,35.952L18.345,35.177L17.826,34.401L17.354,33.626L16.928,32.851L16.547,32.075L16.205,31.3L15.9,30.525L15.626,29.75L15.378,28.974L15.152,28.199L14.944,27.424L14.748,26.648L14.564,25.873L14.387,25.098L14.216,24.323L14.05,23.547L13.889,22.772L13.732,21.997L13.578,21.221L13.428,20.446L13.281,19.671L13.138,18.896L13,18.12L12.867,17.345L12.741,16.57L12.623,15.794L12.515,15.019L12.418,14.244L12.334,13.469L12.262,12.693L12.202,11.918L12.154,11.143L12.117,10.367L12.089,9.592L12.068,8.817L12.053,8.042L12.043,7.266L12.036,6.491L12.032,5.716L12.029,4.94L12.022,4.94L12.019,5.716L12.014,6.491L12.008,7.266L11.998,8.042L11.983,8.817L11.962,9.592L11.934,10.367L11.896,11.143L11.849,11.918L11.789,12.693L11.717,13.469L11.632,14.244L11.535,15.019L11.427,15.794L11.31,16.57L11.183,17.345L11.051,18.12L10.912,18.896L10.769,19.671L10.623,20.446L10.473,21.221L10.319,21.997L10.162,22.772L10,23.547L9.835,24.323L9.664,25.098L9.487,25.873L9.302,26.648L9.107,27.424L8.898,28.199L8.673,28.974L8.425,29.75L8.151,30.525L7.845,31.3L7.504,32.075L7.122,32.851L6.696,33.626L6.224,34.401L5.706,35.177L5.144,35.952L4.546,36.727L3.923,37.502L3.292,38.278L2.672,39.053L2.086,39.828L1.557,40.604L1.107,41.379L0.751,42.154L0.502,42.929L0.365,43.705L0.337,44.48L0.412,45.255L0.579,46.031L0.823,46.806L1.131,47.581L1.489,48.356L1.884,49.132L2.304,49.907L2.739,50.682L3.18,51.458L3.62,52.233L4.053,53.008L4.476,53.783L4.884,54.559L5.28,55.334L5.663,56.109L6.035,56.885L6.399,57.66L6.759,58.435L7.115,59.21L7.47,59.986L7.826,60.761L8.181,61.536L8.537,62.312L8.889,63.087L9.237,63.862L9.574,64.637L9.898,65.413L10.202,66.188L10.483,66.963L10.738,67.739L10.964,68.514L11.162,69.289L11.331,70.064L11.474,70.84L11.593,71.615L11.691,72.39L11.771,73.166L11.834,73.941L11.884,74.716L11.923,75.491L11.953,76.267L11.975,77.042L11.992,77.817L12.003,78.593L12.011,79.368L12.016,80.143L12.02,80.918L12.022,81.694Z" fill="#72b7b2" fill-opacity="0.5" stroke="#72b7b2" stroke-width="1"/></g></g><path class="foreground" aria-hidden="true" d="" display="none"/></g></g></g><path class="foreground" aria-hidden="true" d="" display="none"/></g></g></g><path class="foreground" aria-hidden="true" d="" display="none"/></g></g></g></svg>