<svg xmlns="http://www.w3.org/2000/svg" xmlns:xlink="http://www.w3.org/1999/xlink" version="1.1" class="marks" width="138" height="132" viewBox="0 0 138 132"><rect width="138" height="132" fill="white"/><g fill="none" stroke-miterlimit="10" transform="translate(38,0)"><g class="mark-group role-frame root" role="graphics-object" aria-roledescription="group mark container"><g transform="translate(0,0)"><path class="background" aria-hidden="true" d="M0,0h100v100h-100Z"/><g><g class="mark-group role-axis" role="graphics-symbol" aria-roledescription="axis" aria-label="X-axis titled 'x' for a linear scale with values from −3 to 11"><g transform="translate(0,100)"><path class="background" aria-hidden="true" d="M0,0h0v0h0Z" pointer-events="none"/><g><g class="mark-rule role-axis-grid" pointer-events="none"><line transform="translate(21,0)" x2="0" y2="-100" stroke="lightgray" stroke-width="0.5" stroke-dasharray="3" opacity="1"/><line transform="translate(57,0)" x2="0" y2="-100" stroke="lightgray" stroke-width="0.5" stroke-dasharray="3" opacity="1"/><line transform="translate(93,0)" x2="0" y2="-100" stroke="lightgray" stroke-width="0.5" stroke-dasharray="3" opacity="1"/></g><g class="mark-rule role-axis-tick" pointer-events="none"><line transform="translate(21,0)" x2="0" y2="5" stroke="black" stroke-width="1.01" opacity="1"/><line transform="translate(57,0)" x2="0" y2="5" stroke="black" stroke-width="1.01" opacity="1"/><line transform="translate(93,0)" x2="0" y2="5" stroke="black" stroke-width="1.01" opacity="1"/></g><g class="mark-text role-axis-label" pointer-events="none"><text text-anchor="middle" transform="translate(21.428571428571427,15)" font-family="sans-serif" font-size="10px" font-style="normal" font-weight="400" fill="black" opacity="1">0</text><text text-anchor="middle" transform="translate(57.14285714285714,15)" font-family="sans-serif" font-size="10px" font-style="normal" font-weight="400" fill="black" opacity="1">5</text><text text-anchor="middle" transform="translate(92.85714285714286,15)" font-family="sans-serif" font-size="10px" font-style="normal" font-weight="400" fill="black" opacity="1">10</text></g><g class="mark-rule role-axis-domain" pointer-events="none"><line transform="translate(0,0)" x2="100" y2="0" stroke="black" stroke-width="1.01" opacity="1"/></g><g class="mark-text role-axis-title" pointer-events="none"><text text-anchor="middle" transform="translate(50,30)" font-family="sans-serif" font-size="11px" font-style="normal" font-weight="400" fill="black" opacity="1">x</text></g></g><path class="foreground" aria-hidden="true" d="" pointer-events="none" display="none"/></g></g><g class="mark-group role-axis" role="graphics-symbol" aria-roledescription="axis" aria-label="Y-axis titled 'pdf' for a linear scale with values from 0.0 to 0.5"><g transform="translate(0,0)"><path class="background" aria-hidden="true" d="M0,0h0v0h0Z" pointer-events="none"/><g><g class="mark-rule role-axis-grid" pointer-events="none"><line transform="translate(0,100)" x2="100" y2="0" stroke="lightgray" stroke-width="0.5" stroke-dasharray="3" opacity="1"/><line transform="translate(0,56)" x2="100" y2="0" stroke="lightgray" stroke-width="0.5" stroke-dasharray="3" opacity="1"/><line transform="translate(0,11)" x2="100" y2="0" stroke="lightgray" stroke-width="0.5" stroke-dasharray="3" opacity="1"/></g><g class="mark-rule role-axis-tick" pointer-events="none"><line transform="translate(0,100)" x2="-5" y2="0" stroke="black" stroke-width="1.01" opacity="1"/><line transform="translate(0,56)" x2="-5" y2="0" stroke="black" stroke-width="1.01" opacity="1"/><line transform="translate(0,11)" x2="-5" y2="0" stroke="black" stroke-width="1.01" opacity="1"/></g><g class="mark-text role-axis-label" pointer-events="none"><text text-anchor="end" transform="translate(-7,103)" font-family="sans-serif" font-size="10px" font-style="normal" font-weight="400" fill="black" opacity="1">0.0</text><text text-anchor="end" transform="translate(-7,58.55555555555556)" font-family="sans-serif" font-size="10px" font-style="normal" font-weight="400" fill="black" opacity="1">0.2</text><text text-anchor="end" transform="translate(-7,14.111111111111105)" font-family="sans-serif" font-size="10px" font-style="normal" font-weight="400" fill="black" opacity="1">0.4</text></g><g class="mark-rule role-axis-domain" pointer-events="none"><line transform="translate(0,100)" x2="0" y2="-100" stroke="black" stroke-width="1.01" opacity="1"/></g><g class="mark-text role-axis-title" pointer-events="none"><text text-anchor="middle" transform="translate(-26.9033203125,50) rotate(-90) translate(0,-2)" font-family="sans-serif" font-size="11px" font-style="normal" font-weight="400" fill="black" opacity="1">pdf</text></g></g><path class="foreground" aria-hidden="true" d="" pointer-events="none" display="none"/></g></g><g class="mark-group role-scope" clip-path="url(#clip1)" role="graphics-object" aria-roledescription="group mark container"><g transform="translate(0,0)"><path class="background" aria-hidden="true" d="M0,0h0v0h0Z"/><g><g class="mark-area role-mark" role="graphics-symbol" aria-roledescription="area mark container"><path d="M1.155,99.865L1.581,99.796L2.007,99.697L2.433,99.556L2.858,99.362L3.284,99.098L3.71,98.745L4.136,98.283L4.561,97.689L4.987,96.938L5.413,96.006L5.838,94.871L6.264,93.512L6.69,91.915L7.116,90.068L7.541,87.971L7.967,85.627L8.393,83.051L8.819,80.262L9.244,77.286L9.67,74.154L10.096,70.897L10.521,67.546L10.947,64.128L11.373,60.665L11.799,57.172L12.224,53.655L12.65,50.115L13.076,46.548L13.501,42.946L13.927,39.301L14.353,35.611L14.779,31.879L15.204,28.121L15.63,24.363L16.056,20.648L16.482,17.032L16.907,13.586L17.333,10.389L17.759,7.529L18.184,5.094L18.61,3.168L19.036,1.825L19.462,1.119L19.887,1.085L20.313,1.731L20.739,3.032L21.165,4.939L21.59,7.374L22.016,10.237L22.442,13.415L22.867,16.79L23.293,20.248L23.719,23.687L24.145,27.028L24.57,30.218L24.996,33.234L25.422,36.079L25.848,38.781L26.273,41.382L26.699,43.932L27.125,46.482L27.55,49.071L27.976,51.722L28.402,54.441L28.828,57.212L29.253,60.005L29.679,62.777L30.105,65.482L30.531,68.075L30.956,70.518L31.382,72.787L31.808,74.874L32.233,76.782L32.659,78.529L33.085,80.144L33.511,81.655L33.936,83.095L34.362,84.489L34.788,85.857L35.214,87.207L35.639,88.542L36.065,89.853L36.491,91.127L36.916,92.347L37.342,93.496L37.768,94.557L38.194,95.517L38.619,96.368L39.045,97.107L39.471,97.735L39.897,98.257L40.322,98.682L40.748,99.021L41.174,99.286L41.599,99.488L42.025,99.64L42.451,99.751L42.877,99.831L43.302,99.887L43.302,100L42.877,100L42.451,100L42.025,100L41.599,100L41.174,100L40.748,100L40.322,100L39.897,100L39.471,100L39.045,100L38.619,100L38.194,100L37.768,100L37.342,100L36.916,100L36.491,100L36.065,100L35.639,100L35.214,100L34.788,100L34.362,100L33.936,100L33.511,100L33.085,100L32.659,100L32.233,100L31.808,100L31.382,100L30.956,100L30.531,100L30.105,100L29.679,100L29.253,100L28.828,100L28.402,100L27.976,100L27.55,100L27.125,100L26.699,100L26.273,100L25.848,100L25.422,100L24.996,100L24.57,100L24.145,100L23.719,100L23.293,100L22.867,100L22.442,100L22.016,100L21.59,100L21.165,100L20.739,100L20.313,100L19.887,100L19.462,100L19.036,100L18.61,100L18.184,100L17.759,100L17.333,100L16.907,100L16.482,100L16.056,100L15.63,100L15.204,100L14.779,100L14.353,100L13.927,100L13.501,100L13.076,100L12.65,100L12.224,100L11.799,100L11.373,100L10.947,100L10.521,100L10.096,100L9.67,100L9.244,100L8.819,100L8.393,100L7.967,100L7.541,100L7.116,100L6.69,100L6.264,100L5.838,100L5.413,100L4.987,100L4.561,100L4.136,100L3.71,100L3.284,100L2.858,100L2.433,100L2.007,100L1.581,100L1.155,100Z" fill="#4c78a8" fill-opacity="0.5" stroke="#4c78a8" stroke-width="1" opacity="1"/></g></g><path class="foreground" aria-hidden="true" d="" display="none"/></g><g transform="translate(0,0)"><path class="background" aria-hidden="true" d="M0,0h0v0h0Z"/><g><g class="mark-area role-mark" role="graphics-symbol" aria-roledescription="area mark container"><path d="M37.077,99.921L37.643,99.88L38.208,99.82L38.773,99.734L39.338,99.614L39.903,99.449L40.469,99.225L41.034,98.927L41.599,98.538L42.164,98.039L42.73,97.411L43.295,96.633L43.86,95.688L44.425,94.56L44.99,93.238L45.556,91.719L46.121,90.002L46.686,88.099L47.251,86.026L47.816,83.808L48.382,81.475L48.947,79.06L49.512,76.598L50.077,74.121L50.642,71.657L51.208,69.223L51.773,66.831L52.338,64.48L52.903,62.162L53.468,59.86L54.034,57.555L54.599,55.226L55.164,52.856L55.729,50.436L56.295,47.966L56.86,45.459L57.425,42.937L57.99,40.438L58.555,38.005L59.121,35.69L59.686,33.549L60.251,31.639L60.816,30.013L61.381,28.722L61.947,27.809L62.512,27.309L63.077,27.25L63.642,27.645L64.207,28.498L64.773,29.8L65.338,31.526L65.903,33.641L66.468,36.094L67.033,38.824L67.599,41.762L68.164,44.83L68.729,47.952L69.294,51.05L69.859,54.053L70.425,56.902L70.99,59.545L71.555,61.95L72.12,64.096L72.686,65.979L73.251,67.611L73.816,69.012L74.381,70.218L74.946,71.266L75.512,72.204L76.077,73.076L76.642,73.928L77.207,74.8L77.772,75.727L78.338,76.736L78.903,77.844L79.468,79.06L80.033,80.381L80.598,81.798L81.164,83.292L81.729,84.839L82.294,86.408L82.859,87.971L83.424,89.495L83.99,90.952L84.555,92.318L85.12,93.573L85.685,94.703L86.25,95.701L86.816,96.565L87.381,97.298L87.946,97.909L88.511,98.408L89.077,98.808L89.642,99.122L90.207,99.364L90.772,99.547L91.337,99.682L91.903,99.781L92.468,99.852L93.033,99.902L93.033,100L92.468,100L91.903,100L91.337,100L90.772,100L90.207,100L89.642,100L89.077,100L88.511,100L87.946,100L87.381,100L86.816,100L86.25,100L85.685,100L85.12,100L84.555,100L83.99,100L83.424,100L82.859,100L82.294,100L81.729,100L81.164,100L80.598,100L80.033,100L79.468,100L78.903,100L78.338,100L77.772,100L77.207,100L76.642,100L76.077,100L75.512,100L74.946,100L74.381,100L73.816,100L73.251,100L72.686,100L72.12,100L71.555,100L70.99,100L70.425,100L69.859,100L69.294,100L68.729,100L68.164,100L67.599,100L67.033,100L66.468,100L65.903,100L65.338,100L64.773,100L64.207,100L63.642,100L63.077,100L62.512,100L61.947,100L61.381,100L60.816,100L60.251,100L59.686,100L59.121,100L58.555,100L57.99,100L57.425,100L56.86,100L56.295,100L55.729,100L55.164,100L54.599,100L54.034,100L53.468,100L52.903,100L52.338,100L51.773,100L51.208,100L50.642,100L50.077,100L49.512,100L48.947,100L48.382,100L47.816,100L47.251,100L46.686,100L46.121,100L45.556,100L44.99,100L44.425,100L43.86,100L43.295,100L42.73,100L42.164,100L41.599,100L41.034,100L40.469,100L39.903,100L39.338,100L38.773,100L38.208,100L37.643,100L37.077,100Z" fill="#f58518" fill-opacity="0.5" stroke="#f58518" stroke-width="1" opacity="1"/></g></g><path class="foreground" aria-hidden="true" d="" display="none"/></g><g transform="translate(0,0)"><path class="background" aria-hidden="true" d="M0,0h0v0h0Z"/><g><g class="mark-area role-mark" role="graphics-symbol" aria-roledescription="area mark container"><path d="M13.778,99.929L14.246,99.891L14.714,99.835L15.181,99.756L15.649,99.646L16.116,99.497L16.584,99.3L17.051,99.045L17.519,98.723L17.987,98.324L18.454,97.844L18.922,97.276L19.389,96.62L19.857,95.878L20.325,95.057L20.792,94.164L21.26,93.21L21.727,92.206L22.195,91.162L22.662,90.087L23.13,88.984L23.598,87.852L24.065,86.682L24.533,85.46L25,84.164L25.468,82.767L25.935,81.234L26.403,79.529L26.871,77.611L27.338,75.442L27.806,72.986L28.273,70.216L28.741,67.116L29.208,63.686L29.676,59.943L30.144,55.925L30.611,51.688L31.079,47.308L31.546,42.87L32.014,38.468L32.482,34.194L32.949,30.128L33.417,26.338L33.884,22.869L34.352,19.743L34.819,16.961L35.287,14.505L35.755,12.345L36.222,10.452L36.69,8.798L37.157,7.371L37.625,6.18L38.092,5.255L38.56,4.645L39.028,4.418L39.495,4.648L39.963,5.407L40.43,6.754L40.898,8.727L41.365,11.331L41.833,14.542L42.301,18.299L42.768,22.515L43.236,27.079L43.703,31.872L44.171,36.771L44.639,41.663L45.106,46.449L45.574,51.051L46.041,55.416L46.509,59.51L46.976,63.321L47.444,66.849L47.912,70.108L48.379,73.116L48.847,75.895L49.314,78.465L49.782,80.845L50.249,83.051L50.717,85.096L51.185,86.987L51.652,88.732L52.12,90.334L52.587,91.793L53.055,93.111L53.522,94.29L53.99,95.33L54.458,96.235L54.925,97.011L55.393,97.665L55.86,98.207L56.328,98.647L56.795,98.997L57.263,99.27L57.731,99.479L58.198,99.635L58.666,99.75L59.133,99.832L59.601,99.889L60.069,99.928L60.069,100L59.601,100L59.133,100L58.666,100L58.198,100L57.731,100L57.263,100L56.795,100L56.328,100L55.86,100L55.393,100L54.925,100L54.458,100L53.99,100L53.522,100L53.055,100L52.587,100L52.12,100L51.652,100L51.185,100L50.717,100L50.249,100L49.782,100L49.314,100L48.847,100L48.379,100L47.912,100L47.444,100L46.976,100L46.509,100L46.041,100L45.574,100L45.106,100L44.639,100L44.171,100L43.703,100L43.236,100L42.768,100L42.301,100L41.833,100L41.365,100L40.898,100L40.43,100L39.963,100L39.495,100L39.028,100L38.56,100L38.092,100L37.625,100L37.157,100L36.69,100L36.222,100L35.755,100L35.287,100L34.819,100L34.352,100L33.884,100L33.417,100L32.949,100L32.482,100L32.014,100L31.546,100L31.079,100L30.611,100L30.144,100L29.676,100L29.208,100L28.741,100L28.273,100L27.806,100L27.338,100L26.871,100L26.403,100L25.935,100L25.468,100L25,100L24.533,100L24.065,100L23.598,100L23.13,100L22.662,100L22.195,100L21.727,100L21.26,100L20.792,100L20.325,100L19.857,100L19.389,100L18.922,100L18.454,100L17.987,100L17.519,100L17.051,100L16.584,100L16.116,100L15.649,100L15.181,100L14.714,100L14.246,100L13.778,100Z" fill="#e45756" fill-opacity="0.5" stroke="#e45756" stroke-width="1" opacity="1"/></g></g><path class="foreground" aria-hidden="true" d="" display="none"/></g></g></g><path class="foreground" aria-hidden="true" d="" display="none"/></g></g></g><defs><clipPath id="clip1"><rect x="0" y="0" width="100" height="100"/></clipPath></defs></svg>