<svg xmlns="http://www.w3.org/2000/svg" xmlns:xlink="http://www.w3.org/1999/xlink" version="1.1" class="marks" width="185" height="138" viewBox="0 0 185 138"><rect width="185" height="138" fill="white"/><g fill="none" stroke-miterlimit="10" transform="translate(37,6)"><g class="mark-group role-frame root" role="graphics-object" aria-roledescription="group mark container"><g transform="translate(0,0)"><path class="background" aria-hidden="true" d="M0,0h100v100h-100Z" fill="lightgray"/><g><g class="mark-group role-axis" role="graphics-symbol" aria-roledescription="axis" aria-label="X-axis titled 'x' for a linear scale with values from 0.0 to 1.0"><g transform="translate(0.5,100.5)"><path class="background" aria-hidden="true" d="M0,0h0v0h0Z" pointer-events="none"/><g><g class="mark-rule role-axis-grid" pointer-events="none"><line transform="translate(0,0)" x2="0" y2="-100" stroke="white" stroke-width="0.5" stroke-dasharray="0" opacity="1"/><line transform="translate(50,0)" x2="0" y2="-100" stroke="white" stroke-width="0.5" stroke-dasharray="0" opacity="1"/><line transform="translate(100,0)" x2="0" y2="-100" stroke="white" stroke-width="0.5" stroke-dasharray="0" opacity="1"/></g><g class="mark-rule role-axis-tick" pointer-events="none"><line transform="translate(0,0)" x2="0" y2="5" stroke="black" stroke-width="1.01" opacity="1"/><line transform="translate(50,0)" x2="0" y2="5" stroke="black" stroke-width="1.01" opacity="1"/><line transform="translate(100,0)" x2="0" y2="5" stroke="black" stroke-width="1.01" opacity="1"/></g><g class="mark-text role-axis-label" pointer-events="none"><text text-anchor="middle" transform="translate(0,15)" font-family="sans-serif" font-size="10px" font-style="normal" font-weight="400" fill="black" opacity="1">0.0</text><text text-anchor="middle" transform="translate(50,15)" font-family="sans-serif" font-size="10px" font-style="normal" font-weight="400" fill="black" opacity="1">0.5</text><text text-anchor="middle" transform="translate(100,15)" font-family="sans-serif" font-size="10px" font-style="normal" font-weight="400" fill="black" opacity="1">1.0</text></g><g class="mark-rule role-axis-domain" pointer-events="none"><line transform="translate(0,0)" x2="100" y2="0" stroke="black" stroke-width="1.01" opacity="1"/></g><g class="mark-text role-axis-title" pointer-events="none"><text text-anchor="middle" transform="translate(50,30)" font-family="sans-serif" font-size="11px" font-style="normal" font-weight="400" fill="black" opacity="1">x</text></g></g><path class="foreground" aria-hidden="true" d="" pointer-events="none" display="none"/></g></g><g class="mark-group role-axis" role="graphics-symbol" aria-roledescription="axis" aria-label="Y-axis titled 'y' for a linear scale with values from 0.0 to 1.0"><g transform="translate(0.5,0.5)"><path class="background" aria-hidden="true" d="M0,0h0v0h0Z" pointer-events="none"/><g><g class="mark-rule role-axis-grid" pointer-events="none"><line transform="translate(0,100)" x2="100" y2="0" stroke="white" stroke-width="0.5" stroke-dasharray="0" opacity="1"/><line transform="translate(0,50)" x2="100" y2="0" stroke="white" stroke-width="0.5" stroke-dasharray="0" opacity="1"/><line transform="translate(0,0)" x2="100" y2="0" stroke="white" stroke-width="0.5" stroke-dasharray="0" opacity="1"/></g><g class="mark-rule role-axis-tick" pointer-events="none"><line transform="translate(0,100)" x2="-5" y2="0" stroke="black" stroke-width="1.01" opacity="1"/><line transform="translate(0,50)" x2="-5" y2="0" stroke="black" stroke-width="1.01" opacity="1"/><line transform="translate(0,0)" x2="-5" y2="0" stroke="black" stroke-width="1.01" opacity="1"/></g><g class="mark-text role-axis-label" pointer-events="none"><text text-anchor="end" transform="translate(-7,103)" font-family="sans-serif" font-size="10px" font-style="normal" font-weight="400" fill="black" opacity="1">0.0</text><text text-anchor="end" transform="translate(-7,53)" font-family="sans-serif" font-size="10px" font-style="normal" font-weight="400" fill="black" opacity="1">0.5</text><text text-anchor="end" transform="translate(-7,3)" font-family="sans-serif" font-size="10px" font-style="normal" font-weight="400" fill="black" opacity="1">1.0</text></g><g class="mark-rule role-axis-domain" pointer-events="none"><line transform="translate(0,100)" x2="0" y2="-100" stroke="black" stroke-width="1.01" opacity="1"/></g><g class="mark-text role-axis-title" pointer-events="none"><text text-anchor="middle" transform="translate(-26,50) rotate(-90) translate(0,-2)" font-family="sans-serif" font-size="11px" font-style="normal" font-weight="400" fill="black" opacity="1">y</text></g></g><path class="foreground" aria-hidden="true" d="" pointer-events="none" display="none"/></g></g><g class="mark-group role-scope" role="graphics-object" aria-roledescription="group mark container"><g transform="translate(0,0)"><path class="background" aria-hidden="true" d="M0,0h0v0h0Z"/><g><g class="mark-symbol role-mark points" role="graphics-symbol" aria-roledescription="symbol mark container"><path transform="translate(62.77649885632511,0.09034210207067295)" d="M5,0A5,5,0,1,1,-5,0A5,5,0,1,1,5,0" fill="rgb(255, 255, 170)" stroke="white" stroke-width="1" opacity="1"/><path transform="translate(47.87995152805361,84.14799000823649)" d="M5,0A5,5,0,1,1,-5,0A5,5,0,1,1,5,0" fill="rgb(20, 97, 74)" stroke="white" stroke-width="1" opacity="1"/><path transform="translate(96.00002776136563,37.220821548495955)" d="M5,0A5,5,0,1,1,-5,0A5,5,0,1,1,5,0" fill="rgb(149, 191, 62)" stroke="white" stroke-width="1" opacity="1"/><path transform="translate(25.40226448437609,57.71383840508317)" d="M5,0A5,5,0,1,1,-5,0A5,5,0,1,1,5,0" fill="rgb(58, 154, 66)" stroke="white" stroke-width="1" opacity="1"/><path transform="translate(86.81168273505648,38.953865695362374)" d="M5,0A5,5,0,1,1,-5,0A5,5,0,1,1,5,0" fill="rgb(141, 188, 63)" stroke="white" stroke-width="1" opacity="1"/><path transform="translate(50.546698344553064,32.08990672803074)" d="M5,0A5,5,0,1,1,-5,0A5,5,0,1,1,5,0" fill="rgb(171, 200, 60)" stroke="white" stroke-width="1" opacity="1"/><path transform="translate(85.69198441799361,45.91319059134311)" d="M5,0A5,5,0,1,1,-5,0A5,5,0,1,1,5,0" fill="rgb(112, 176, 64)" stroke="white" stroke-width="1" opacity="1"/><path transform="translate(96.82300118563174,60.908732585716464)" d="M5,0A5,5,0,1,1,-5,0A5,5,0,1,1,5,0" fill="rgb(38, 148, 66)" stroke="white" stroke-width="1" opacity="1"/><path transform="translate(54.80598020826156,18.909365302870174)" d="M5,0A5,5,0,1,1,-5,0A5,5,0,1,1,5,0" fill="rgb(223, 222, 51)" stroke="white" stroke-width="1" opacity="1"/><path transform="translate(62.894756573910236,0.8228456721410593)" d="M5,0A5,5,0,1,1,-5,0A5,5,0,1,1,5,0" fill="rgb(255, 254, 161)" stroke="white" stroke-width="1" opacity="1"/><path transform="translate(8.917835543256302,69.17615445216278)" d="M5,0A5,5,0,1,1,-5,0A5,5,0,1,1,5,0" fill="rgb(3, 131, 69)" stroke="white" stroke-width="1" opacity="1"/><path transform="translate(25.352014636461785,90.42001328052041)" d="M5,0A5,5,0,1,1,-5,0A5,5,0,1,1,5,0" fill="rgb(37, 82, 70)" stroke="white" stroke-width="1" opacity="1"/><path transform="translate(42.98213988860796,32.700452933817246)" d="M5,0A5,5,0,1,1,-5,0A5,5,0,1,1,5,0" fill="rgb(168, 199, 61)" stroke="white" stroke-width="1" opacity="1"/><path transform="translate(54.04248078116088,97.1258538647788)" d="M5,0A5,5,0,1,1,-5,0A5,5,0,1,1,5,0" fill="rgb(52, 65, 61)" stroke="white" stroke-width="1" opacity="1"/><path transform="translate(69.78167400493362,14.529740396721191)" d="M5,0A5,5,0,1,1,-5,0A5,5,0,1,1,5,0" fill="rgb(241, 229, 47)" stroke="white" stroke-width="1" opacity="1"/><path transform="translate(20.976071114043084,57.07306774639691)" d="M5,0A5,5,0,1,1,-5,0A5,5,0,1,1,5,0" fill="rgb(62, 155, 66)" stroke="white" stroke-width="1" opacity="1"/><path transform="translate(75.85198484680868,74.88076252045654)" d="M5,0A5,5,0,1,1,-5,0A5,5,0,1,1,5,0" fill="rgb(1, 117, 74)" stroke="white" stroke-width="1" opacity="1"/><path transform="translate(96.3828736069383,50.59290467909796)" d="M5,0A5,5,0,1,1,-5,0A5,5,0,1,1,5,0" fill="rgb(92, 167, 65)" stroke="white" stroke-width="1" opacity="1"/><path transform="translate(41.58511871293216,18.704378064304038)" d="M5,0A5,5,0,1,1,-5,0A5,5,0,1,1,5,0" fill="rgb(224, 222, 51)" stroke="white" stroke-width="1" opacity="1"/><path transform="translate(64.32943120388734,46.3067245368588)" d="M5,0A5,5,0,1,1,-5,0A5,5,0,1,1,5,0" fill="rgb(110, 175, 64)" stroke="white" stroke-width="1" opacity="1"/><path transform="translate(46.24379126113847,3.177281767901574)" d="M5,0A5,5,0,1,1,-5,0A5,5,0,1,1,5,0" fill="rgb(255, 249, 135)" stroke="white" stroke-width="1" opacity="1"/><path transform="translate(10.560371246188005,69.34710806677695)" d="M5,0A5,5,0,1,1,-5,0A5,5,0,1,1,5,0" fill="rgb(3, 130, 69)" stroke="white" stroke-width="1" opacity="1"/><path transform="translate(38.13305458582409,81.57262861016076)" d="M5,0A5,5,0,1,1,-5,0A5,5,0,1,1,5,0" fill="rgb(12, 102, 75)" stroke="white" stroke-width="1" opacity="1"/><path transform="translate(46.65021914521039,27.687563707686625)" d="M5,0A5,5,0,1,1,-5,0A5,5,0,1,1,5,0" fill="rgb(188, 207, 57)" stroke="white" stroke-width="1" opacity="1"/><path transform="translate(21.056894506627643,50.415514555223226)" d="M5,0A5,5,0,1,1,-5,0A5,5,0,1,1,5,0" fill="rgb(93, 168, 65)" stroke="white" stroke-width="1" opacity="1"/><path transform="translate(92.20617772555832,9.701797118307587)" d="M5,0A5,5,0,1,1,-5,0A5,5,0,1,1,5,0" fill="rgb(255, 238, 60)" stroke="white" stroke-width="1" opacity="1"/><path transform="translate(27.41155430273149,10.872270176712606)" d="M5,0A5,5,0,1,1,-5,0A5,5,0,1,1,5,0" fill="rgb(255, 235, 47)" stroke="white" stroke-width="1" opacity="1"/><path transform="translate(86.2362191395928,64.48192293229215)" d="M5,0A5,5,0,1,1,-5,0A5,5,0,1,1,5,0" fill="rgb(16, 141, 66)" stroke="white" stroke-width="1" opacity="1"/><path transform="translate(46.98330244071881,56.06298246456798)" d="M5,0A5,5,0,1,1,-5,0A5,5,0,1,1,5,0" fill="rgb(68, 157, 66)" stroke="white" stroke-width="1" opacity="1"/><path transform="translate(21.494274259721678,77.30324522845885)" d="M5,0A5,5,0,1,1,-5,0A5,5,0,1,1,5,0" fill="rgb(0, 112, 77)" stroke="white" stroke-width="1" opacity="1"/><path transform="translate(86.04143201617673,75.95021064193593)" d="M5,0A5,5,0,1,1,-5,0A5,5,0,1,1,5,0" fill="rgb(1, 115, 75)" stroke="white" stroke-width="1" opacity="1"/><path transform="translate(57.955836567460906,39.868883550091724)" d="M5,0A5,5,0,1,1,-5,0A5,5,0,1,1,5,0" fill="rgb(137, 187, 63)" stroke="white" stroke-width="1" opacity="1"/><path transform="translate(47.051690817174055,4.3741616628478415)" d="M5,0A5,5,0,1,1,-5,0A5,5,0,1,1,5,0" fill="rgb(255, 247, 121)" stroke="white" stroke-width="1" opacity="1"/><path transform="translate(63.29456448836297,98.96717071542315)" d="M5,0A5,5,0,1,1,-5,0A5,5,0,1,1,5,0" fill="rgb(56, 60, 59)" stroke="white" stroke-width="1" opacity="1"/><path transform="translate(30.426729359016203,42.90790500775938)" d="M5,0A5,5,0,1,1,-5,0A5,5,0,1,1,5,0" fill="rgb(124, 181, 64)" stroke="white" stroke-width="1" opacity="1"/><path transform="translate(16.209961992491618,78.1282256774106)" d="M5,0A5,5,0,1,1,-5,0A5,5,0,1,1,5,0" fill="rgb(2, 110, 77)" stroke="white" stroke-width="1" opacity="1"/><path transform="translate(10.652689736543286,70.41040279453033)" d="M5,0A5,5,0,1,1,-5,0A5,5,0,1,1,5,0" fill="rgb(3, 128, 70)" stroke="white" stroke-width="1" opacity="1"/><path transform="translate(58.21353662290737,1.105798884830811)" d="M5,0A5,5,0,1,1,-5,0A5,5,0,1,1,5,0" fill="rgb(255, 253, 158)" stroke="white" stroke-width="1" opacity="1"/><path transform="translate(40.39574371647462,33.0556083798338)" d="M5,0A5,5,0,1,1,-5,0A5,5,0,1,1,5,0" fill="rgb(167, 198, 61)" stroke="white" stroke-width="1" opacity="1"/><path transform="translate(79.2858322531043,70.6197885765626)" d="M5,0A5,5,0,1,1,-5,0A5,5,0,1,1,5,0" fill="rgb(3, 127, 70)" stroke="white" stroke-width="1" opacity="1"/><path transform="translate(28.594218868583464,64.33877719394151)" d="M5,0A5,5,0,1,1,-5,0A5,5,0,1,1,5,0" fill="rgb(17, 141, 66)" stroke="white" stroke-width="1" opacity="1"/><path transform="translate(72.68243922191164,4.942426234708453)" d="M5,0A5,5,0,1,1,-5,0A5,5,0,1,1,5,0" fill="rgb(255, 246, 115)" stroke="white" stroke-width="1" opacity="1"/><path transform="translate(88.21639560682661,56.02687017685594)" d="M5,0A5,5,0,1,1,-5,0A5,5,0,1,1,5,0" fill="rgb(68, 157, 66)" stroke="white" stroke-width="1" opacity="1"/><path transform="translate(72.43544643770183,32.22422588775334)" d="M5,0A5,5,0,1,1,-5,0A5,5,0,1,1,5,0" fill="rgb(170, 200, 60)" stroke="white" stroke-width="1" opacity="1"/><path transform="translate(25.842447109945777,58.002608566274816)" d="M5,0A5,5,0,1,1,-5,0A5,5,0,1,1,5,0" fill="rgb(56, 153, 66)" stroke="white" stroke-width="1" opacity="1"/><path transform="translate(59.287850503799,90.75507219247385)" d="M5,0A5,5,0,1,1,-5,0A5,5,0,1,1,5,0" fill="rgb(38, 81, 69)" stroke="white" stroke-width="1" opacity="1"/><path transform="translate(58.492440289167135,60.37940368345298)" d="M5,0A5,5,0,1,1,-5,0A5,5,0,1,1,5,0" fill="rgb(42, 149, 66)" stroke="white" stroke-width="1" opacity="1"/><path transform="translate(41.28994669933862,0.07157028412695388)" d="M5,0A5,5,0,1,1,-5,0A5,5,0,1,1,5,0" fill="rgb(255, 255, 170)" stroke="white" stroke-width="1" opacity="1"/><path transform="translate(60.589098503043246,46.658830877303394)" d="M5,0A5,5,0,1,1,-5,0A5,5,0,1,1,5,0" fill="rgb(108, 175, 64)" stroke="white" stroke-width="1" opacity="1"/><path transform="translate(22.778340640521865,10.607871261534818)" d="M5,0A5,5,0,1,1,-5,0A5,5,0,1,1,5,0" fill="rgb(255, 236, 50)" stroke="white" stroke-width="1" opacity="1"/><path transform="translate(19.963962174278983,31.124497909082816)" d="M5,0A5,5,0,1,1,-5,0A5,5,0,1,1,5,0" fill="rgb(175, 202, 60)" stroke="white" stroke-width="1" opacity="1"/><path transform="translate(54.60458272700852,87.66138108483592)" d="M5,0A5,5,0,1,1,-5,0A5,5,0,1,1,5,0" fill="rgb(30, 89, 72)" stroke="white" stroke-width="1" opacity="1"/><path transform="translate(48.69078909570342,86.07851797723261)" d="M5,0A5,5,0,1,1,-5,0A5,5,0,1,1,5,0" fill="rgb(25, 93, 73)" stroke="white" stroke-width="1" opacity="1"/><path transform="translate(51.71465242290966,79.39967309613327)" d="M5,0A5,5,0,1,1,-5,0A5,5,0,1,1,5,0" fill="rgb(5, 107, 76)" stroke="white" stroke-width="1" opacity="1"/><path transform="translate(23.989426043065563,79.86844034292021)" d="M5,0A5,5,0,1,1,-5,0A5,5,0,1,1,5,0" fill="rgb(7, 106, 76)" stroke="white" stroke-width="1" opacity="1"/><path transform="translate(62.37057937848595,89.2397138919437)" d="M5,0A5,5,0,1,1,-5,0A5,5,0,1,1,5,0" fill="rgb(34, 85, 71)" stroke="white" stroke-width="1" opacity="1"/><path transform="translate(48.73718237915546,56.66320261682911)" d="M5,0A5,5,0,1,1,-5,0A5,5,0,1,1,5,0" fill="rgb(64, 156, 66)" stroke="white" stroke-width="1" opacity="1"/><path transform="translate(70.50171985493715,38.97477763107646)" d="M5,0A5,5,0,1,1,-5,0A5,5,0,1,1,5,0" fill="rgb(141, 188, 63)" stroke="white" stroke-width="1" opacity="1"/><path transform="translate(13.77020657883632,25.00488109621792)" d="M5,0A5,5,0,1,1,-5,0A5,5,0,1,1,5,0" fill="rgb(199, 211, 56)" stroke="white" stroke-width="1" opacity="1"/><path transform="translate(6.584600814628139,73.16499192907771)" d="M5,0A5,5,0,1,1,-5,0A5,5,0,1,1,5,0" fill="rgb(2, 121, 73)" stroke="white" stroke-width="1" opacity="1"/><path transform="translate(8.403331738345454,0.8739842350003024)" d="M5,0A5,5,0,1,1,-5,0A5,5,0,1,1,5,0" fill="rgb(255, 254, 161)" stroke="white" stroke-width="1" opacity="1"/><path transform="translate(0.621565350210862,36.721680611493944)" d="M5,0A5,5,0,1,1,-5,0A5,5,0,1,1,5,0" fill="rgb(151, 192, 62)" stroke="white" stroke-width="1" opacity="1"/><path transform="translate(62.53822029327861,17.16456863547692)" d="M5,0A5,5,0,1,1,-5,0A5,5,0,1,1,5,0" fill="rgb(231, 225, 49)" stroke="white" stroke-width="1" opacity="1"/><path transform="translate(41.900658023440265,69.0019902688041)" d="M5,0A5,5,0,1,1,-5,0A5,5,0,1,1,5,0" fill="rgb(3, 131, 68)" stroke="white" stroke-width="1" opacity="1"/><path transform="translate(92.98904698455698,52.98521195056487)" d="M5,0A5,5,0,1,1,-5,0A5,5,0,1,1,5,0" fill="rgb(82, 163, 66)" stroke="white" stroke-width="1" opacity="1"/><path transform="translate(0.5220769067776354,22.147287803614425)" d="M5,0A5,5,0,1,1,-5,0A5,5,0,1,1,5,0" fill="rgb(210, 216, 54)" stroke="white" stroke-width="1" opacity="1"/><path transform="translate(60.19775325818595,75.28175860173474)" d="M5,0A5,5,0,1,1,-5,0A5,5,0,1,1,5,0" fill="rgb(1, 116, 75)" stroke="white" stroke-width="1" opacity="1"/><path transform="translate(81.24310577628322,87.7481874146173)" d="M5,0A5,5,0,1,1,-5,0A5,5,0,1,1,5,0" fill="rgb(30, 89, 72)" stroke="white" stroke-width="1" opacity="1"/><path transform="translate(37.74504211911227,0.49123495650541527)" d="M5,0A5,5,0,1,1,-5,0A5,5,0,1,1,5,0" fill="rgb(255, 254, 165)" stroke="white" stroke-width="1" opacity="1"/><path transform="translate(34.958129489052546,91.31144166690768)" d="M5,0A5,5,0,1,1,-5,0A5,5,0,1,1,5,0" fill="rgb(39, 80, 69)" stroke="white" stroke-width="1" opacity="1"/><path transform="translate(54.78501470915704,3.1019676568257437)" d="M5,0A5,5,0,1,1,-5,0A5,5,0,1,1,5,0" fill="rgb(255, 250, 136)" stroke="white" stroke-width="1" opacity="1"/><path transform="translate(23.994641736968404,87.97118061519855)" d="M5,0A5,5,0,1,1,-5,0A5,5,0,1,1,5,0" fill="rgb(31, 88, 72)" stroke="white" stroke-width="1" opacity="1"/><path transform="translate(44.68946428608638,3.695384912579547)" d="M5,0A5,5,0,1,1,-5,0A5,5,0,1,1,5,0" fill="rgb(255, 248, 129)" stroke="white" stroke-width="1" opacity="1"/><path transform="translate(94.79368070980709,19.722321729069748)" d="M5,0A5,5,0,1,1,-5,0A5,5,0,1,1,5,0" fill="rgb(220, 220, 52)" stroke="white" stroke-width="1" opacity="1"/><path transform="translate(62.68725401179267,15.79057712739369)" d="M5,0A5,5,0,1,1,-5,0A5,5,0,1,1,5,0" fill="rgb(236, 227, 48)" stroke="white" stroke-width="1" opacity="1"/><path transform="translate(13.98871427159717,59.261666419666426)" d="M5,0A5,5,0,1,1,-5,0A5,5,0,1,1,5,0" fill="rgb(48, 151, 66)" stroke="white" stroke-width="1" opacity="1"/><path transform="translate(58.83560899893781,65.35722898231954)" d="M5,0A5,5,0,1,1,-5,0A5,5,0,1,1,5,0" fill="rgb(11, 139, 66)" stroke="white" stroke-width="1" opacity="1"/><path transform="translate(59.371058625488914,99.0982976882158)" d="M5,0A5,5,0,1,1,-5,0A5,5,0,1,1,5,0" fill="rgb(57, 60, 59)" stroke="white" stroke-width="1" opacity="1"/><path transform="translate(49.97400682142869,99.72078648800931)" d="M5,0A5,5,0,1,1,-5,0A5,5,0,1,1,5,0" fill="rgb(58, 58, 58)" stroke="white" stroke-width="1" opacity="1"/><path transform="translate(16.33012037116278,45.11318347208205)" d="M5,0A5,5,0,1,1,-5,0A5,5,0,1,1,5,0" fill="rgb(115, 178, 64)" stroke="white" stroke-width="1" opacity="1"/><path transform="translate(91.71119516798711,14.353508627346168)" d="M5,0A5,5,0,1,1,-5,0A5,5,0,1,1,5,0" fill="rgb(242, 229, 47)" stroke="white" stroke-width="1" opacity="1"/><path transform="translate(49.82520827215951,6.883329222576706)" d="M5,0A5,5,0,1,1,-5,0A5,5,0,1,1,5,0" fill="rgb(255, 243, 92)" stroke="white" stroke-width="1" opacity="1"/><path transform="translate(39.22378057504234,66.89640410326864)" d="M5,0A5,5,0,1,1,-5,0A5,5,0,1,1,5,0" fill="rgb(4, 136, 66)" stroke="white" stroke-width="1" opacity="1"/><path transform="translate(21.665870906423066,61.00736213952458)" d="M5,0A5,5,0,1,1,-5,0A5,5,0,1,1,5,0" fill="rgb(38, 147, 66)" stroke="white" stroke-width="1" opacity="1"/><path transform="translate(58.82271506222835,99.35671521968426)" d="M5,0A5,5,0,1,1,-5,0A5,5,0,1,1,5,0" fill="rgb(57, 59, 58)" stroke="white" stroke-width="1" opacity="1"/><path transform="translate(13.9989969748315,43.11238669374091)" d="M5,0A5,5,0,1,1,-5,0A5,5,0,1,1,5,0" fill="rgb(123, 181, 64)" stroke="white" stroke-width="1" opacity="1"/><path transform="translate(34.572011249042376,4.814128798383665)" d="M5,0A5,5,0,1,1,-5,0A5,5,0,1,1,5,0" fill="rgb(255, 246, 116)" stroke="white" stroke-width="1" opacity="1"/><path transform="translate(57.08614530054391,26.183983542451404)" d="M5,0A5,5,0,1,1,-5,0A5,5,0,1,1,5,0" fill="rgb(194, 210, 57)" stroke="white" stroke-width="1" opacity="1"/><path transform="translate(71.89324181718152,51.90126682240644)" d="M5,0A5,5,0,1,1,-5,0A5,5,0,1,1,5,0" fill="rgb(87, 165, 65)" stroke="white" stroke-width="1" opacity="1"/><path transform="translate(45.77201265151165,7.926080332352514)" d="M5,0A5,5,0,1,1,-5,0A5,5,0,1,1,5,0" fill="rgb(255, 241, 81)" stroke="white" stroke-width="1" opacity="1"/><path transform="translate(48.33227839573407,41.33038859628688)" d="M5,0A5,5,0,1,1,-5,0A5,5,0,1,1,5,0" fill="rgb(131, 184, 63)" stroke="white" stroke-width="1" opacity="1"/><path transform="translate(23.020348281156167,79.39912596076145)" d="M5,0A5,5,0,1,1,-5,0A5,5,0,1,1,5,0" fill="rgb(5, 107, 76)" stroke="white" stroke-width="1" opacity="1"/><path transform="translate(40.310974019148084,10.12382091028603)" d="M5,0A5,5,0,1,1,-5,0A5,5,0,1,1,5,0" fill="rgb(255, 237, 56)" stroke="white" stroke-width="1" opacity="1"/><path transform="translate(67.37321807580416,21.02817644040296)" d="M5,0A5,5,0,1,1,-5,0A5,5,0,1,1,5,0" fill="rgb(215, 218, 53)" stroke="white" stroke-width="1" opacity="1"/><path transform="translate(61.91679359562436,44.91989237276779)" d="M5,0A5,5,0,1,1,-5,0A5,5,0,1,1,5,0" fill="rgb(116, 178, 64)" stroke="white" stroke-width="1" opacity="1"/><path transform="translate(28.553981280422015,64.58351542970715)" d="M5,0A5,5,0,1,1,-5,0A5,5,0,1,1,5,0" fill="rgb(16, 141, 66)" stroke="white" stroke-width="1" opacity="1"/><path transform="translate(65.51934965478648,92.84402907154039)" d="M5,0A5,5,0,1,1,-5,0A5,5,0,1,1,5,0" fill="rgb(42, 76, 67)" stroke="white" stroke-width="1" opacity="1"/><path transform="translate(69.84085382962049,86.21154582390135)" d="M5,0A5,5,0,1,1,-5,0A5,5,0,1,1,5,0" fill="rgb(26, 92, 73)" stroke="white" stroke-width="1" opacity="1"/><path transform="translate(87.43157976238624,10.36732449982497)" d="M5,0A5,5,0,1,1,-5,0A5,5,0,1,1,5,0" fill="rgb(255, 236, 53)" stroke="white" stroke-width="1" opacity="1"/><path transform="translate(22.745861645237973,63.39362191480329)" d="M5,0A5,5,0,1,1,-5,0A5,5,0,1,1,5,0" fill="rgb(23, 143, 66)" stroke="white" stroke-width="1" opacity="1"/></g></g><path class="foreground" aria-hidden="true" d="" display="none"/></g></g><g class="mark-group role-legend" role="graphics-symbol" aria-roledescription="legend" aria-label="Gradient legend titled 'y' for fill color with values from 0.0 to 1.0"><g transform="translate(121,0)"><path class="background" aria-hidden="true" d="M0,0h27v96h-27Z" pointer-events="none"/><g><g class="mark-group role-legend-entry"><g transform="translate(0,16)"><path class="background" aria-hidden="true" d="M0,0h0v0h0Z" pointer-events="none"/><g><g class="mark-rect role-legend-gradient" pointer-events="none"><path d="M0,0h10v80h-10Z" fill="url(#gradient_0)" stroke="#ddd" stroke-width="0" opacity="1"/></g><g class="mark-text role-legend-label" pointer-events="none"><text text-anchor="start" transform="translate(12,78)" font-family="sans-serif" font-size="10px" font-style="normal" font-weight="400" fill="#000" opacity="1">0.0</text><text text-anchor="start" transform="translate(12,8)" font-family="sans-serif" font-size="10px" font-style="normal" font-weight="400" fill="#000" opacity="1">1.0</text></g></g><path class="foreground" aria-hidden="true" d="" pointer-events="none" display="none"/></g></g><g class="mark-text role-legend-title" pointer-events="none"><text text-anchor="start" transform="translate(0,9)" font-family="sans-serif" font-size="11px" font-style="normal" font-weight="400" fill="#000" opacity="1">y</text></g></g><path class="foreground" aria-hidden="true" d="" pointer-events="none" display="none"/></g></g></g><path class="foreground" aria-hidden="true" d="" display="none"/></g></g></g><defs><linearGradient id="gradient_0" x1="0" x2="0" y1="1" y2="0"><stop offset="0" stop-color="rgb(58, 58, 58)"/><stop offset="0.04737404535476299" stop-color="rgb(47, 70, 64)"/><stop offset="0.09755005466496165" stop-color="rgb(36, 83, 70)"/><stop offset="0.1477260639751603" stop-color="rgb(22, 95, 74)"/><stop offset="0.19790207328535897" stop-color="rgb(7, 106, 76)"/><stop offset="0.24807808259555764" stop-color="rgb(1, 117, 74)"/><stop offset="0.29825409190575625" stop-color="rgb(3, 129, 69)"/><stop offset="0.3484301012159549" stop-color="rgb(13, 140, 66)"/><stop offset="0.39860611052615363" stop-color="rgb(44, 149, 66)"/><stop offset="0.4487821198363523" stop-color="rgb(74, 159, 66)"/><stop offset="0.4989581291465509" stop-color="rgb(95, 168, 65)"/><stop offset="0.5491341384567496" stop-color="rgb(115, 178, 64)"/><stop offset="0.5993101477669482" stop-color="rgb(137, 186, 63)"/><stop offset="0.649486157077147" stop-color="rgb(159, 195, 61)"/><stop offset="0.6996621663873455" stop-color="rgb(179, 203, 59)"/><stop offset="0.7498381756975442" stop-color="rgb(199, 211, 56)"/><stop offset="0.8000141850077429" stop-color="rgb(219, 220, 52)"/><stop offset="0.8501901943179415" stop-color="rgb(239, 228, 47)"/><stop offset="0.9003662036281402" stop-color="rgb(255, 237, 57)"/><stop offset="0.9505422129383388" stop-color="rgb(255, 246, 114)"/><stop offset="1" stop-color="rgb(255, 255, 170)"/></linearGradient></defs></svg>