<svg xmlns="http://www.w3.org/2000/svg" xmlns:xlink="http://www.w3.org/1999/xlink" version="1.1" class="marks" width="145" height="137" viewBox="0 0 145 137"><rect width="145" height="137" fill="white"/><g fill="none" stroke-miterlimit="10" transform="translate(37,5)"><g class="mark-group role-frame root" role="graphics-object" aria-roledescription="group mark container"><g transform="translate(0,0)"><path class="background" aria-hidden="true" d="M0,0h100v100h-100Z"/><g><g class="mark-group role-axis" role="graphics-symbol" aria-roledescription="axis" aria-label="X-axis titled 'x' for a linear scale with values from 0.0 to 1.0"><g transform="translate(0.5,100.5)"><path class="background" aria-hidden="true" d="M0,0h0v0h0Z" pointer-events="none"/><g><g class="mark-rule role-axis-tick" pointer-events="none"><line transform="translate(0,0)" x2="0" y2="5" stroke="black" stroke-width="1.01" opacity="1"/><line transform="translate(50,0)" x2="0" y2="5" stroke="black" stroke-width="1.01" opacity="1"/><line transform="translate(100,0)" x2="0" y2="5" stroke="black" stroke-width="1.01" opacity="1"/></g><g class="mark-text role-axis-label" pointer-events="none"><text text-anchor="middle" transform="translate(0,15)" font-family="sans-serif" font-size="10px" font-style="normal" font-weight="400" fill="black" opacity="1">0.0</text><text text-anchor="middle" transform="translate(50,15)" font-family="sans-serif" font-size="10px" font-style="normal" font-weight="400" fill="black" opacity="1">0.5</text><text text-anchor="middle" transform="translate(100,15)" font-family="sans-serif" font-size="10px" font-style="normal" font-weight="400" fill="black" opacity="1">1.0</text></g><g class="mark-rule role-axis-domain" pointer-events="none"><line transform="translate(0,0)" x2="100" y2="0" stroke="black" stroke-width="1.01" opacity="1"/></g><g class="mark-text role-axis-title" pointer-events="none"><text text-anchor="middle" transform="translate(50,30)" font-family="sans-serif" font-size="11px" font-style="normal" font-weight="400" fill="black" opacity="1">x</text></g></g><path class="foreground" aria-hidden="true" d="" pointer-events="none" display="none"/></g></g><g class="mark-group role-axis" role="graphics-symbol" aria-roledescription="axis" aria-label="Y-axis titled 'y' for a linear scale with values from 0.0 to 1.0"><g transform="translate(0.5,0.5)"><path class="background" aria-hidden="true" d="M0,0h0v0h0Z" pointer-events="none"/><g><g class="mark-rule role-axis-tick" pointer-events="none"><line transform="translate(0,100)" x2="-5" y2="0" stroke="black" stroke-width="1.01" opacity="1"/><line transform="translate(0,50)" x2="-5" y2="0" stroke="black" stroke-width="1.01" opacity="1"/><line transform="translate(0,0)" x2="-5" y2="0" stroke="black" stroke-width="1.01" opacity="1"/></g><g class="mark-text role-axis-label" pointer-events="none"><text text-anchor="end" transform="translate(-7,103)" font-family="sans-serif" font-size="10px" font-style="normal" font-weight="400" fill="black" opacity="1">0.0</text><text text-anchor="end" transform="translate(-7,53)" font-family="sans-serif" font-size="10px" font-style="normal" font-weight="400" fill="black" opacity="1">0.5</text><text text-anchor="end" transform="translate(-7,3)" font-family="sans-serif" font-size="10px" font-style="normal" font-weight="400" fill="black" opacity="1">1.0</text></g><g class="mark-rule role-axis-domain" pointer-events="none"><line transform="translate(0,100)" x2="0" y2="-100" stroke="black" stroke-width="1.01" opacity="1"/></g><g class="mark-text role-axis-title" pointer-events="none"><text text-anchor="middle" transform="translate(-26,50) rotate(-90) translate(0,-2)" font-family="sans-serif" font-size="11px" font-style="normal" font-weight="400" fill="black" opacity="1">y</text></g></g><path class="foreground" aria-hidden="true" d="" pointer-events="none" display="none"/></g></g><g class="mark-group role-scope" clip-path="url(#clip1)" role="graphics-object" aria-roledescription="group mark container"><g transform="translate(0,0)"><path class="background" aria-hidden="true" d="M0,0h0v0h0Z"/><g><g class="mark-symbol role-mark points" role="graphics-symbol" aria-roledescription="symbol mark container"><path transform="translate(3.273314544920203,67.71471052846067)" d="M3.5355339059327378,0A3.5355339059327378,3.5355339059327378,0,1,1,-3.5355339059327378,0A3.5355339059327378,3.5355339059327378,0,1,1,3.5355339059327378,0" fill="white" stroke="steelblue" stroke-width="1" opacity="1"/><path transform="translate(74.723957561109,70.79351653785058)" d="M3.5355339059327378,0A3.5355339059327378,3.5355339059327378,0,1,1,-3.5355339059327378,0A3.5355339059327378,3.5355339059327378,0,1,1,3.5355339059327378,0" fill="white" stroke="steelblue" stroke-width="1" opacity="1"/><path transform="translate(68.5618743609912,40.38519971908776)" d="M3.5355339059327378,0A3.5355339059327378,3.5355339059327378,0,1,1,-3.5355339059327378,0A3.5355339059327378,3.5355339059327378,0,1,1,3.5355339059327378,0" fill="white" stroke="steelblue" stroke-width="1" opacity="1"/><path transform="translate(40.34007145386179,47.82198795799658)" d="M3.5355339059327378,0A3.5355339059327378,3.5355339059327378,0,1,1,-3.5355339059327378,0A3.5355339059327378,3.5355339059327378,0,1,1,3.5355339059327378,0" fill="white" stroke="steelblue" stroke-width="1" opacity="1"/><path transform="translate(73.59697603760597,50.453180430381764)" d="M3.5355339059327378,0A3.5355339059327378,3.5355339059327378,0,1,1,-3.5355339059327378,0A3.5355339059327378,3.5355339059327378,0,1,1,3.5355339059327378,0" fill="white" stroke="steelblue" stroke-width="1" opacity="1"/><path transform="translate(66.49901974146614,24.805606935326963)" d="M3.5355339059327378,0A3.5355339059327378,3.5355339059327378,0,1,1,-3.5355339059327378,0A3.5355339059327378,3.5355339059327378,0,1,1,3.5355339059327378,0" fill="white" stroke="steelblue" stroke-width="1" opacity="1"/><path transform="translate(84.92505702766262,4.698108616016916)" d="M3.5355339059327378,0A3.5355339059327378,3.5355339059327378,0,1,1,-3.5355339059327378,0A3.5355339059327378,3.5355339059327378,0,1,1,3.5355339059327378,0" fill="white" stroke="steelblue" stroke-width="1" opacity="1"/><path transform="translate(65.59989020106953,26.80962312588785)" d="M3.5355339059327378,0A3.5355339059327378,3.5355339059327378,0,1,1,-3.5355339059327378,0A3.5355339059327378,3.5355339059327378,0,1,1,3.5355339059327378,0" fill="white" stroke="steelblue" stroke-width="1" opacity="1"/><path transform="translate(54.60821391831835,14.721783700403602)" d="M3.5355339059327378,0A3.5355339059327378,3.5355339059327378,0,1,1,-3.5355339059327378,0A3.5355339059327378,3.5355339059327378,0,1,1,3.5355339059327378,0" fill="white" stroke="steelblue" stroke-width="1" opacity="1"/><path transform="translate(85.14968098762394,31.742216351879105)" d="M3.5355339059327378,0A3.5355339059327378,3.5355339059327378,0,1,1,-3.5355339059327378,0A3.5355339059327378,3.5355339059327378,0,1,1,3.5355339059327378,0" fill="white" stroke="steelblue" stroke-width="1" opacity="1"/><path transform="translate(64.89231329354912,69.03914205652246)" d="M3.5355339059327378,0A3.5355339059327378,3.5355339059327378,0,1,1,-3.5355339059327378,0A3.5355339059327378,3.5355339059327378,0,1,1,3.5355339059327378,0" fill="white" stroke="steelblue" stroke-width="1" opacity="1"/><path transform="translate(37.33029756061802,66.61858097130111)" d="M3.5355339059327378,0A3.5355339059327378,3.5355339059327378,0,1,1,-3.5355339059327378,0A3.5355339059327378,3.5355339059327378,0,1,1,3.5355339059327378,0" fill="white" stroke="steelblue" stroke-width="1" opacity="1"/><path transform="translate(45.342577556533236,65.02093052924177)" d="M3.5355339059327378,0A3.5355339059327378,3.5355339059327378,0,1,1,-3.5355339059327378,0A3.5355339059327378,3.5355339059327378,0,1,1,3.5355339059327378,0" fill="white" stroke="steelblue" stroke-width="1" opacity="1"/><path transform="translate(22.42942027585758,36.96798279005823)" d="M3.5355339059327378,0A3.5355339059327378,3.5355339059327378,0,1,1,-3.5355339059327378,0A3.5355339059327378,3.5355339059327378,0,1,1,3.5355339059327378,0" fill="white" stroke="steelblue" stroke-width="1" opacity="1"/><path transform="translate(10.675116302952059,38.32860399071939)" d="M3.5355339059327378,0A3.5355339059327378,3.5355339059327378,0,1,1,-3.5355339059327378,0A3.5355339059327378,3.5355339059327378,0,1,1,3.5355339059327378,0" fill="white" stroke="steelblue" stroke-width="1" opacity="1"/><path transform="translate(17.82368947435431,3.085657598299174)" d="M3.5355339059327378,0A3.5355339059327378,3.5355339059327378,0,1,1,-3.5355339059327378,0A3.5355339059327378,3.5355339059327378,0,1,1,3.5355339059327378,0" fill="white" stroke="steelblue" stroke-width="1" opacity="1"/><path transform="translate(37.017991609364664,84.45871912075943)" d="M3.5355339059327378,0A3.5355339059327378,3.5355339059327378,0,1,1,-3.5355339059327378,0A3.5355339059327378,3.5355339059327378,0,1,1,3.5355339059327378,0" fill="white" stroke="steelblue" stroke-width="1" opacity="1"/><path transform="translate(6.6049714856171615,89.48420484198152)" d="M3.5355339059327378,0A3.5355339059327378,3.5355339059327378,0,1,1,-3.5355339059327378,0A3.5355339059327378,3.5355339059327378,0,1,1,3.5355339059327378,0" fill="white" stroke="steelblue" stroke-width="1" opacity="1"/><path transform="translate(77.01732295929395,96.07678944328885)" d="M3.5355339059327378,0A3.5355339059327378,3.5355339059327378,0,1,1,-3.5355339059327378,0A3.5355339059327378,3.5355339059327378,0,1,1,3.5355339059327378,0" fill="white" stroke="steelblue" stroke-width="1" opacity="1"/><path transform="translate(80.453560481113,72.54295254259027)" d="M3.5355339059327378,0A3.5355339059327378,3.5355339059327378,0,1,1,-3.5355339059327378,0A3.5355339059327378,3.5355339059327378,0,1,1,3.5355339059327378,0" fill="white" stroke="steelblue" stroke-width="1" opacity="1"/><path transform="translate(25.158408955936885,8.227084977353073)" d="M3.5355339059327378,0A3.5355339059327378,3.5355339059327378,0,1,1,-3.5355339059327378,0A3.5355339059327378,3.5355339059327378,0,1,1,3.5355339059327378,0" fill="white" stroke="steelblue" stroke-width="1" opacity="1"/><path transform="translate(90.38123199008828,37.310773489186786)" d="M3.5355339059327378,0A3.5355339059327378,3.5355339059327378,0,1,1,-3.5355339059327378,0A3.5355339059327378,3.5355339059327378,0,1,1,3.5355339059327378,0" fill="white" stroke="steelblue" stroke-width="1" opacity="1"/><path transform="translate(67.83966275156882,51.05671242349087)" d="M3.5355339059327378,0A3.5355339059327378,3.5355339059327378,0,1,1,-3.5355339059327378,0A3.5355339059327378,3.5355339059327378,0,1,1,3.5355339059327378,0" fill="white" stroke="steelblue" stroke-width="1" opacity="1"/><path transform="translate(30.30969660435362,90.9401631999857)" d="M3.5355339059327378,0A3.5355339059327378,3.5355339059327378,0,1,1,-3.5355339059327378,0A3.5355339059327378,3.5355339059327378,0,1,1,3.5355339059327378,0" fill="white" stroke="steelblue" stroke-width="1" opacity="1"/><path transform="translate(32.41856613273216,67.20941996511655)" d="M3.5355339059327378,0A3.5355339059327378,3.5355339059327378,0,1,1,-3.5355339059327378,0A3.5355339059327378,3.5355339059327378,0,1,1,3.5355339059327378,0" fill="white" stroke="steelblue" stroke-width="1" opacity="1"/><path transform="translate(8.850544753114253,35.35132968397517)" d="M3.5355339059327378,0A3.5355339059327378,3.5355339059327378,0,1,1,-3.5355339059327378,0A3.5355339059327378,3.5355339059327378,0,1,1,3.5355339059327378,0" fill="white" stroke="steelblue" stroke-width="1" opacity="1"/><path transform="translate(63.18445978225672,49.573224413556304)" d="M3.5355339059327378,0A3.5355339059327378,3.5355339059327378,0,1,1,-3.5355339059327378,0A3.5355339059327378,3.5355339059327378,0,1,1,3.5355339059327378,0" fill="white" stroke="steelblue" stroke-width="1" opacity="1"/><path transform="translate(34.81197633084222,79.97987378756825)" d="M3.5355339059327378,0A3.5355339059327378,3.5355339059327378,0,1,1,-3.5355339059327378,0A3.5355339059327378,3.5355339059327378,0,1,1,3.5355339059327378,0" fill="white" stroke="steelblue" stroke-width="1" opacity="1"/><path transform="translate(14.043753461086272,50.43255400337732)" d="M3.5355339059327378,0A3.5355339059327378,3.5355339059327378,0,1,1,-3.5355339059327378,0A3.5355339059327378,3.5355339059327378,0,1,1,3.5355339059327378,0" fill="white" stroke="steelblue" stroke-width="1" opacity="1"/><path transform="translate(11.986120621768869,18.19038293734554)" d="M3.5355339059327378,0A3.5355339059327378,3.5355339059327378,0,1,1,-3.5355339059327378,0A3.5355339059327378,3.5355339059327378,0,1,1,3.5355339059327378,0" fill="white" stroke="steelblue" stroke-width="1" opacity="1"/><path transform="translate(57.331682943865616,93.16112347670159)" d="M3.5355339059327378,0A3.5355339059327378,3.5355339059327378,0,1,1,-3.5355339059327378,0A3.5355339059327378,3.5355339059327378,0,1,1,3.5355339059327378,0" fill="white" stroke="steelblue" stroke-width="1" opacity="1"/><path transform="translate(27.57542015632476,81.39511517156225)" d="M3.5355339059327378,0A3.5355339059327378,3.5355339059327378,0,1,1,-3.5355339059327378,0A3.5355339059327378,3.5355339059327378,0,1,1,3.5355339059327378,0" fill="white" stroke="steelblue" stroke-width="1" opacity="1"/><path transform="translate(51.62719289386183,82.92529318011587)" d="M3.5355339059327378,0A3.5355339059327378,3.5355339059327378,0,1,1,-3.5355339059327378,0A3.5355339059327378,3.5355339059327378,0,1,1,3.5355339059327378,0" fill="white" stroke="steelblue" stroke-width="1" opacity="1"/><path transform="translate(44.47534545358598,32.55180923611613)" d="M3.5355339059327378,0A3.5355339059327378,3.5355339059327378,0,1,1,-3.5355339059327378,0A3.5355339059327378,3.5355339059327378,0,1,1,3.5355339059327378,0" fill="white" stroke="steelblue" stroke-width="1" opacity="1"/><path transform="translate(18.0253959822422,21.26141962860828)" d="M3.5355339059327378,0A3.5355339059327378,3.5355339059327378,0,1,1,-3.5355339059327378,0A3.5355339059327378,3.5355339059327378,0,1,1,3.5355339059327378,0" fill="white" stroke="steelblue" stroke-width="1" opacity="1"/><path transform="translate(64.5652262130381,27.22838806247081)" d="M3.5355339059327378,0A3.5355339059327378,3.5355339059327378,0,1,1,-3.5355339059327378,0A3.5355339059327378,3.5355339059327378,0,1,1,3.5355339059327378,0" fill="white" stroke="steelblue" stroke-width="1" opacity="1"/><path transform="translate(48.99311570052398,20.51906406423424)" d="M3.5355339059327378,0A3.5355339059327378,3.5355339059327378,0,1,1,-3.5355339059327378,0A3.5355339059327378,3.5355339059327378,0,1,1,3.5355339059327378,0" fill="white" stroke="steelblue" stroke-width="1" opacity="1"/><path transform="translate(85.12813324675136,39.64098886190214)" d="M3.5355339059327378,0A3.5355339059327378,3.5355339059327378,0,1,1,-3.5355339059327378,0A3.5355339059327378,3.5355339059327378,0,1,1,3.5355339059327378,0" fill="white" stroke="steelblue" stroke-width="1" opacity="1"/><path transform="translate(37.317150997056814,65.96427151305103)" d="M3.5355339059327378,0A3.5355339059327378,3.5355339059327378,0,1,1,-3.5355339059327378,0A3.5355339059327378,3.5355339059327378,0,1,1,3.5355339059327378,0" fill="white" stroke="steelblue" stroke-width="1" opacity="1"/><path transform="translate(93.71515140011746,5.022659824109632)" d="M3.5355339059327378,0A3.5355339059327378,3.5355339059327378,0,1,1,-3.5355339059327378,0A3.5355339059327378,3.5355339059327378,0,1,1,3.5355339059327378,0" fill="white" stroke="steelblue" stroke-width="1" opacity="1"/><path transform="translate(47.1656493147313,3.5899751895545284)" d="M3.5355339059327378,0A3.5355339059327378,3.5355339059327378,0,1,1,-3.5355339059327378,0A3.5355339059327378,3.5355339059327378,0,1,1,3.5355339059327378,0" fill="white" stroke="steelblue" stroke-width="1" opacity="1"/><path transform="translate(62.40531705326394,94.61967326848759)" d="M3.5355339059327378,0A3.5355339059327378,3.5355339059327378,0,1,1,-3.5355339059327378,0A3.5355339059327378,3.5355339059327378,0,1,1,3.5355339059327378,0" fill="white" stroke="steelblue" stroke-width="1" opacity="1"/><path transform="translate(62.134859577916245,87.32931017809983)" d="M3.5355339059327378,0A3.5355339059327378,3.5355339059327378,0,1,1,-3.5355339059327378,0A3.5355339059327378,3.5355339059327378,0,1,1,3.5355339059327378,0" fill="white" stroke="steelblue" stroke-width="1" opacity="1"/><path transform="translate(38.100411436418746,83.21772911039774)" d="M3.5355339059327378,0A3.5355339059327378,3.5355339059327378,0,1,1,-3.5355339059327378,0A3.5355339059327378,3.5355339059327378,0,1,1,3.5355339059327378,0" fill="white" stroke="steelblue" stroke-width="1" opacity="1"/><path transform="translate(9.57023595673655,97.51307735173641)" d="M3.5355339059327378,0A3.5355339059327378,3.5355339059327378,0,1,1,-3.5355339059327378,0A3.5355339059327378,3.5355339059327378,0,1,1,3.5355339059327378,0" fill="white" stroke="steelblue" stroke-width="1" opacity="1"/><path transform="translate(21.30119139492397,79.97257109309129)" d="M3.5355339059327378,0A3.5355339059327378,3.5355339059327378,0,1,1,-3.5355339059327378,0A3.5355339059327378,3.5355339059327378,0,1,1,3.5355339059327378,0" fill="white" stroke="steelblue" stroke-width="1" opacity="1"/><path transform="translate(86.82647012588541,53.10925157728058)" d="M3.5355339059327378,0A3.5355339059327378,3.5355339059327378,0,1,1,-3.5355339059327378,0A3.5355339059327378,3.5355339059327378,0,1,1,3.5355339059327378,0" fill="white" stroke="steelblue" stroke-width="1" opacity="1"/><path transform="translate(49.28464895185991,79.83289202362087)" d="M3.5355339059327378,0A3.5355339059327378,3.5355339059327378,0,1,1,-3.5355339059327378,0A3.5355339059327378,3.5355339059327378,0,1,1,3.5355339059327378,0" fill="white" stroke="steelblue" stroke-width="1" opacity="1"/><path transform="translate(4.4263492180244395,39.79858849233453)" d="M3.5355339059327378,0A3.5355339059327378,3.5355339059327378,0,1,1,-3.5355339059327378,0A3.5355339059327378,3.5355339059327378,0,1,1,3.5355339059327378,0" fill="white" stroke="steelblue" stroke-width="1" opacity="1"/><path transform="translate(63.04950119606849,93.12184028300865)" d="M3.5355339059327378,0A3.5355339059327378,3.5355339059327378,0,1,1,-3.5355339059327378,0A3.5355339059327378,3.5355339059327378,0,1,1,3.5355339059327378,0" fill="white" stroke="steelblue" stroke-width="1" opacity="1"/><path transform="translate(73.40442791073033,88.24884092299432)" d="M3.5355339059327378,0A3.5355339059327378,3.5355339059327378,0,1,1,-3.5355339059327378,0A3.5355339059327378,3.5355339059327378,0,1,1,3.5355339059327378,0" fill="white" stroke="steelblue" stroke-width="1" opacity="1"/><path transform="translate(37.119687131987234,87.16388935955398)" d="M3.5355339059327378,0A3.5355339059327378,3.5355339059327378,0,1,1,-3.5355339059327378,0A3.5355339059327378,3.5355339059327378,0,1,1,3.5355339059327378,0" fill="white" stroke="steelblue" stroke-width="1" opacity="1"/><path transform="translate(36.171082002977805,33.381685101171655)" d="M3.5355339059327378,0A3.5355339059327378,3.5355339059327378,0,1,1,-3.5355339059327378,0A3.5355339059327378,3.5355339059327378,0,1,1,3.5355339059327378,0" fill="white" stroke="steelblue" stroke-width="1" opacity="1"/><path transform="translate(45.109733959583856,66.17098670442691)" d="M3.5355339059327378,0A3.5355339059327378,3.5355339059327378,0,1,1,-3.5355339059327378,0A3.5355339059327378,3.5355339059327378,0,1,1,3.5355339059327378,0" fill="white" stroke="steelblue" stroke-width="1" opacity="1"/><path transform="translate(15.658502814765473,49.94445581700329)" d="M3.5355339059327378,0A3.5355339059327378,3.5355339059327378,0,1,1,-3.5355339059327378,0A3.5355339059327378,3.5355339059327378,0,1,1,3.5355339059327378,0" fill="white" stroke="steelblue" stroke-width="1" opacity="1"/><path transform="translate(28.686000936338562,81.04225604518945)" d="M3.5355339059327378,0A3.5355339059327378,3.5355339059327378,0,1,1,-3.5355339059327378,0A3.5355339059327378,3.5355339059327378,0,1,1,3.5355339059327378,0" fill="white" stroke="steelblue" stroke-width="1" opacity="1"/><path transform="translate(2.3693511071096407,32.00985936498242)" d="M3.5355339059327378,0A3.5355339059327378,3.5355339059327378,0,1,1,-3.5355339059327378,0A3.5355339059327378,3.5355339059327378,0,1,1,3.5355339059327378,0" fill="white" stroke="steelblue" stroke-width="1" opacity="1"/><path transform="translate(91.04091552079774,88.82078428682408)" d="M3.5355339059327378,0A3.5355339059327378,3.5355339059327378,0,1,1,-3.5355339059327378,0A3.5355339059327378,3.5355339059327378,0,1,1,3.5355339059327378,0" fill="white" stroke="steelblue" stroke-width="1" opacity="1"/><path transform="translate(12.005008007460205,41.9799731967573)" d="M3.5355339059327378,0A3.5355339059327378,3.5355339059327378,0,1,1,-3.5355339059327378,0A3.5355339059327378,3.5355339059327378,0,1,1,3.5355339059327378,0" fill="white" stroke="steelblue" stroke-width="1" opacity="1"/><path transform="translate(18.2293553297303,35.552973873401164)" d="M3.5355339059327378,0A3.5355339059327378,3.5355339059327378,0,1,1,-3.5355339059327378,0A3.5355339059327378,3.5355339059327378,0,1,1,3.5355339059327378,0" fill="white" stroke="steelblue" stroke-width="1" opacity="1"/><path transform="translate(34.08931083922033,55.43996921338727)" d="M3.5355339059327378,0A3.5355339059327378,3.5355339059327378,0,1,1,-3.5355339059327378,0A3.5355339059327378,3.5355339059327378,0,1,1,3.5355339059327378,0" fill="white" stroke="steelblue" stroke-width="1" opacity="1"/><path transform="translate(98.47369115862004,97.03457260664351)" d="M3.5355339059327378,0A3.5355339059327378,3.5355339059327378,0,1,1,-3.5355339059327378,0A3.5355339059327378,3.5355339059327378,0,1,1,3.5355339059327378,0" fill="white" stroke="steelblue" stroke-width="1" opacity="1"/><path transform="translate(3.329499500174371,9.88313871531198)" d="M3.5355339059327378,0A3.5355339059327378,3.5355339059327378,0,1,1,-3.5355339059327378,0A3.5355339059327378,3.5355339059327378,0,1,1,3.5355339059327378,0" fill="white" stroke="steelblue" stroke-width="1" opacity="1"/><path transform="translate(83.80327031577677,55.156957377790015)" d="M3.5355339059327378,0A3.5355339059327378,3.5355339059327378,0,1,1,-3.5355339059327378,0A3.5355339059327378,3.5355339059327378,0,1,1,3.5355339059327378,0" fill="white" stroke="steelblue" stroke-width="1" opacity="1"/><path transform="translate(55.172368548190974,39.60919823925032)" d="M3.5355339059327378,0A3.5355339059327378,3.5355339059327378,0,1,1,-3.5355339059327378,0A3.5355339059327378,3.5355339059327378,0,1,1,3.5355339059327378,0" fill="white" stroke="steelblue" stroke-width="1" opacity="1"/><path transform="translate(10.21277763129107,50.673602756306835)" d="M3.5355339059327378,0A3.5355339059327378,3.5355339059327378,0,1,1,-3.5355339059327378,0A3.5355339059327378,3.5355339059327378,0,1,1,3.5355339059327378,0" fill="white" stroke="steelblue" stroke-width="1" opacity="1"/><path transform="translate(75.44688675147275,36.73477276293484)" d="M3.5355339059327378,0A3.5355339059327378,3.5355339059327378,0,1,1,-3.5355339059327378,0A3.5355339059327378,3.5355339059327378,0,1,1,3.5355339059327378,0" fill="white" stroke="steelblue" stroke-width="1" opacity="1"/><path transform="translate(36.21393612608885,65.37812347356054)" d="M3.5355339059327378,0A3.5355339059327378,3.5355339059327378,0,1,1,-3.5355339059327378,0A3.5355339059327378,3.5355339059327378,0,1,1,3.5355339059327378,0" fill="white" stroke="steelblue" stroke-width="1" opacity="1"/><path transform="translate(76.84314991350945,61.2573889936928)" d="M3.5355339059327378,0A3.5355339059327378,3.5355339059327378,0,1,1,-3.5355339059327378,0A3.5355339059327378,3.5355339059327378,0,1,1,3.5355339059327378,0" fill="white" stroke="steelblue" stroke-width="1" opacity="1"/><path transform="translate(91.8647375945651,81.01015083132125)" d="M3.5355339059327378,0A3.5355339059327378,3.5355339059327378,0,1,1,-3.5355339059327378,0A3.5355339059327378,3.5355339059327378,0,1,1,3.5355339059327378,0" fill="white" stroke="steelblue" stroke-width="1" opacity="1"/><path transform="translate(7.513492771592989,91.86592244607652)" d="M3.5355339059327378,0A3.5355339059327378,3.5355339059327378,0,1,1,-3.5355339059327378,0A3.5355339059327378,3.5355339059327378,0,1,1,3.5355339059327378,0" fill="white" stroke="steelblue" stroke-width="1" opacity="1"/><path transform="translate(15.803684426574538,13.00985237717911)" d="M3.5355339059327378,0A3.5355339059327378,3.5355339059327378,0,1,1,-3.5355339059327378,0A3.5355339059327378,3.5355339059327378,0,1,1,3.5355339059327378,0" fill="white" stroke="steelblue" stroke-width="1" opacity="1"/><path transform="translate(15.228817412470598,77.93490013319311)" d="M3.5355339059327378,0A3.5355339059327378,3.5355339059327378,0,1,1,-3.5355339059327378,0A3.5355339059327378,3.5355339059327378,0,1,1,3.5355339059327378,0" fill="white" stroke="steelblue" stroke-width="1" opacity="1"/><path transform="translate(26.479662059583863,80.87729141128116)" d="M3.5355339059327378,0A3.5355339059327378,3.5355339059327378,0,1,1,-3.5355339059327378,0A3.5355339059327378,3.5355339059327378,0,1,1,3.5355339059327378,0" fill="white" stroke="steelblue" stroke-width="1" opacity="1"/><path transform="translate(71.73597885461778,17.58364578131677)" d="M3.5355339059327378,0A3.5355339059327378,3.5355339059327378,0,1,1,-3.5355339059327378,0A3.5355339059327378,3.5355339059327378,0,1,1,3.5355339059327378,0" fill="white" stroke="steelblue" stroke-width="1" opacity="1"/><path transform="translate(6.3255079240190915,38.78096170344414)" d="M3.5355339059327378,0A3.5355339059327378,3.5355339059327378,0,1,1,-3.5355339059327378,0A3.5355339059327378,3.5355339059327378,0,1,1,3.5355339059327378,0" fill="white" stroke="steelblue" stroke-width="1" opacity="1"/><path transform="translate(37.66226593384745,1.8725655729214585)" d="M3.5355339059327378,0A3.5355339059327378,3.5355339059327378,0,1,1,-3.5355339059327378,0A3.5355339059327378,3.5355339059327378,0,1,1,3.5355339059327378,0" fill="white" stroke="steelblue" stroke-width="1" opacity="1"/><path transform="translate(87.52023599086192,38.00213634122471)" d="M3.5355339059327378,0A3.5355339059327378,3.5355339059327378,0,1,1,-3.5355339059327378,0A3.5355339059327378,3.5355339059327378,0,1,1,3.5355339059327378,0" fill="white" stroke="steelblue" stroke-width="1" opacity="1"/><path transform="translate(90.37470761063221,32.63121654530746)" d="M3.5355339059327378,0A3.5355339059327378,3.5355339059327378,0,1,1,-3.5355339059327378,0A3.5355339059327378,3.5355339059327378,0,1,1,3.5355339059327378,0" fill="white" stroke="steelblue" stroke-width="1" opacity="1"/><path transform="translate(99.90774190893814,81.42517915767064)" d="M3.5355339059327378,0A3.5355339059327378,3.5355339059327378,0,1,1,-3.5355339059327378,0A3.5355339059327378,3.5355339059327378,0,1,1,3.5355339059327378,0" fill="white" stroke="steelblue" stroke-width="1" opacity="1"/><path transform="translate(5.944674536423344,93.42049458576889)" d="M3.5355339059327378,0A3.5355339059327378,3.5355339059327378,0,1,1,-3.5355339059327378,0A3.5355339059327378,3.5355339059327378,0,1,1,3.5355339059327378,0" fill="white" stroke="steelblue" stroke-width="1" opacity="1"/><path transform="translate(7.057585661535015,77.03056413932556)" d="M3.5355339059327378,0A3.5355339059327378,3.5355339059327378,0,1,1,-3.5355339059327378,0A3.5355339059327378,3.5355339059327378,0,1,1,3.5355339059327378,0" fill="white" stroke="steelblue" stroke-width="1" opacity="1"/><path transform="translate(97.98567141811628,15.436616043726026)" d="M3.5355339059327378,0A3.5355339059327378,3.5355339059327378,0,1,1,-3.5355339059327378,0A3.5355339059327378,3.5355339059327378,0,1,1,3.5355339059327378,0" fill="white" stroke="steelblue" stroke-width="1" opacity="1"/><path transform="translate(98.78656747545529,92.69038017043452)" d="M3.5355339059327378,0A3.5355339059327378,3.5355339059327378,0,1,1,-3.5355339059327378,0A3.5355339059327378,3.5355339059327378,0,1,1,3.5355339059327378,0" fill="white" stroke="steelblue" stroke-width="1" opacity="1"/><path transform="translate(7.435305960323635,60.53414863304091)" d="M3.5355339059327378,0A3.5355339059327378,3.5355339059327378,0,1,1,-3.5355339059327378,0A3.5355339059327378,3.5355339059327378,0,1,1,3.5355339059327378,0" fill="white" stroke="steelblue" stroke-width="1" opacity="1"/><path transform="translate(18.815332998016398,58.49784758858251)" d="M3.5355339059327378,0A3.5355339059327378,3.5355339059327378,0,1,1,-3.5355339059327378,0A3.5355339059327378,3.5355339059327378,0,1,1,3.5355339059327378,0" fill="white" stroke="steelblue" stroke-width="1" opacity="1"/><path transform="translate(1.4948953342573401,75.12129067769587)" d="M3.5355339059327378,0A3.5355339059327378,3.5355339059327378,0,1,1,-3.5355339059327378,0A3.5355339059327378,3.5355339059327378,0,1,1,3.5355339059327378,0" fill="white" stroke="steelblue" stroke-width="1" opacity="1"/><path transform="translate(57.5606394395927,5.34746127689335)" d="M3.5355339059327378,0A3.5355339059327378,3.5355339059327378,0,1,1,-3.5355339059327378,0A3.5355339059327378,3.5355339059327378,0,1,1,3.5355339059327378,0" fill="white" stroke="steelblue" stroke-width="1" opacity="1"/><path transform="translate(85.72565835406259,10.395922873291063)" d="M3.5355339059327378,0A3.5355339059327378,3.5355339059327378,0,1,1,-3.5355339059327378,0A3.5355339059327378,3.5355339059327378,0,1,1,3.5355339059327378,0" fill="white" stroke="steelblue" stroke-width="1" opacity="1"/><path transform="translate(42.54287820859197,68.6509047882693)" d="M3.5355339059327378,0A3.5355339059327378,3.5355339059327378,0,1,1,-3.5355339059327378,0A3.5355339059327378,3.5355339059327378,0,1,1,3.5355339059327378,0" fill="white" stroke="steelblue" stroke-width="1" opacity="1"/><path transform="translate(25.159018624652052,31.587861626034197)" d="M3.5355339059327378,0A3.5355339059327378,3.5355339059327378,0,1,1,-3.5355339059327378,0A3.5355339059327378,3.5355339059327378,0,1,1,3.5355339059327378,0" fill="white" stroke="steelblue" stroke-width="1" opacity="1"/><path transform="translate(6.548403793012203,62.92153227580225)" d="M3.5355339059327378,0A3.5355339059327378,3.5355339059327378,0,1,1,-3.5355339059327378,0A3.5355339059327378,3.5355339059327378,0,1,1,3.5355339059327378,0" fill="white" stroke="steelblue" stroke-width="1" opacity="1"/><path transform="translate(35.5673227997595,87.44968953157723)" d="M3.5355339059327378,0A3.5355339059327378,3.5355339059327378,0,1,1,-3.5355339059327378,0A3.5355339059327378,3.5355339059327378,0,1,1,3.5355339059327378,0" fill="white" stroke="steelblue" stroke-width="1" opacity="1"/><path transform="translate(12.272981484247635,71.43884261084126)" d="M3.5355339059327378,0A3.5355339059327378,3.5355339059327378,0,1,1,-3.5355339059327378,0A3.5355339059327378,3.5355339059327378,0,1,1,3.5355339059327378,0" fill="white" stroke="steelblue" stroke-width="1" opacity="1"/><path transform="translate(1.5806734235875863,9.07236554825669)" d="M3.5355339059327378,0A3.5355339059327378,3.5355339059327378,0,1,1,-3.5355339059327378,0A3.5355339059327378,3.5355339059327378,0,1,1,3.5355339059327378,0" fill="white" stroke="steelblue" stroke-width="1" opacity="1"/><path transform="translate(11.64630895299048,49.94661165171388)" d="M3.5355339059327378,0A3.5355339059327378,3.5355339059327378,0,1,1,-3.5355339059327378,0A3.5355339059327378,3.5355339059327378,0,1,1,3.5355339059327378,0" fill="white" stroke="steelblue" stroke-width="1" opacity="1"/><path transform="translate(54.774860698094976,98.13488357363309)" d="M3.5355339059327378,0A3.5355339059327378,3.5355339059327378,0,1,1,-3.5355339059327378,0A3.5355339059327378,3.5355339059327378,0,1,1,3.5355339059327378,0" fill="white" stroke="steelblue" stroke-width="1" opacity="1"/><path transform="translate(66.37432084649096,20.044530797815263)" d="M3.5355339059327378,0A3.5355339059327378,3.5355339059327378,0,1,1,-3.5355339059327378,0A3.5355339059327378,3.5355339059327378,0,1,1,3.5355339059327378,0" fill="white" stroke="steelblue" stroke-width="1" opacity="1"/><path transform="translate(49.22373031695325,75.63825637490604)" d="M3.5355339059327378,0A3.5355339059327378,3.5355339059327378,0,1,1,-3.5355339059327378,0A3.5355339059327378,3.5355339059327378,0,1,1,3.5355339059327378,0" fill="white" stroke="steelblue" stroke-width="1" opacity="1"/><path transform="translate(12.13771428287096,45.880766745335634)" d="M3.5355339059327378,0A3.5355339059327378,3.5355339059327378,0,1,1,-3.5355339059327378,0A3.5355339059327378,3.5355339059327378,0,1,1,3.5355339059327378,0" fill="white" stroke="steelblue" stroke-width="1" opacity="1"/></g></g><path class="foreground" aria-hidden="true" d="" display="none"/></g></g></g><path class="foreground" aria-hidden="true" d="" display="none"/></g></g></g><defs><clipPath id="clip1"><rect x="0" y="0" width="100" height="100"/></clipPath></defs></svg>