<svg xmlns="http://www.w3.org/2000/svg" xmlns:xlink="http://www.w3.org/1999/xlink" version="1.1" class="marks" width="145" height="137" viewBox="0 0 145 137"><rect width="145" height="137" fill="white"/><g fill="none" stroke-miterlimit="10" transform="translate(37,5)"><g class="mark-group role-frame root" role="graphics-object" aria-roledescription="group mark container"><g transform="translate(0,0)"><path class="background" aria-hidden="true" d="M0,0h100v100h-100Z" fill="lightgray"/><g><g class="mark-group role-axis" role="graphics-symbol" aria-roledescription="axis" aria-label="X-axis titled 'x' for a linear scale with values from 0.0 to 1.0"><g transform="translate(0.5,100.5)"><path class="background" aria-hidden="true" d="M0,0h0v0h0Z" pointer-events="none"/><g><g class="mark-rule role-axis-grid" pointer-events="none"><line transform="translate(0,0)" x2="0" y2="-100" stroke="white" stroke-width="0.5" stroke-dasharray="0" opacity="1"/><line transform="translate(50,0)" x2="0" y2="-100" stroke="white" stroke-width="0.5" stroke-dasharray="0" opacity="1"/><line transform="translate(100,0)" x2="0" y2="-100" stroke="white" stroke-width="0.5" stroke-dasharray="0" opacity="1"/></g><g class="mark-rule role-axis-tick" pointer-events="none"><line transform="translate(0,0)" x2="0" y2="5" stroke="black" stroke-width="1.01" opacity="1"/><line transform="translate(50,0)" x2="0" y2="5" stroke="black" stroke-width="1.01" opacity="1"/><line transform="translate(100,0)" x2="0" y2="5" stroke="black" stroke-width="1.01" opacity="1"/></g><g class="mark-text role-axis-label" pointer-events="none"><text text-anchor="middle" transform="translate(0,15)" font-family="sans-serif" font-size="10px" font-style="normal" font-weight="400" fill="black" opacity="1">0.0</text><text text-anchor="middle" transform="translate(50,15)" font-family="sans-serif" font-size="10px" font-style="normal" font-weight="400" fill="black" opacity="1">0.5</text><text text-anchor="middle" transform="translate(100,15)" font-family="sans-serif" font-size="10px" font-style="normal" font-weight="400" fill="black" opacity="1">1.0</text></g><g class="mark-rule role-axis-domain" pointer-events="none"><line transform="translate(0,0)" x2="100" y2="0" stroke="black" stroke-width="1.01" opacity="1"/></g><g class="mark-text role-axis-title" pointer-events="none"><text text-anchor="middle" transform="translate(50,30)" font-family="sans-serif" font-size="11px" font-style="normal" font-weight="400" fill="black" opacity="1">x</text></g></g><path class="foreground" aria-hidden="true" d="" pointer-events="none" display="none"/></g></g><g class="mark-group role-axis" role="graphics-symbol" aria-roledescription="axis" aria-label="Y-axis titled 'y' for a linear scale with values from 0.0 to 1.0"><g transform="translate(0.5,0.5)"><path class="background" aria-hidden="true" d="M0,0h0v0h0Z" pointer-events="none"/><g><g class="mark-rule role-axis-grid" pointer-events="none"><line transform="translate(0,100)" x2="100" y2="0" stroke="white" stroke-width="0.5" stroke-dasharray="0" opacity="1"/><line transform="translate(0,50)" x2="100" y2="0" stroke="white" stroke-width="0.5" stroke-dasharray="0" opacity="1"/><line transform="translate(0,0)" x2="100" y2="0" stroke="white" stroke-width="0.5" stroke-dasharray="0" opacity="1"/></g><g class="mark-rule role-axis-tick" pointer-events="none"><line transform="translate(0,100)" x2="-5" y2="0" stroke="black" stroke-width="1.01" opacity="1"/><line transform="translate(0,50)" x2="-5" y2="0" stroke="black" stroke-width="1.01" opacity="1"/><line transform="translate(0,0)" x2="-5" y2="0" stroke="black" stroke-width="1.01" opacity="1"/></g><g class="mark-text role-axis-label" pointer-events="none"><text text-anchor="end" transform="translate(-7,103)" font-family="sans-serif" font-size="10px" font-style="normal" font-weight="400" fill="black" opacity="1">0.0</text><text text-anchor="end" transform="translate(-7,53)" font-family="sans-serif" font-size="10px" font-style="normal" font-weight="400" fill="black" opacity="1">0.5</text><text text-anchor="end" transform="translate(-7,3)" font-family="sans-serif" font-size="10px" font-style="normal" font-weight="400" fill="black" opacity="1">1.0</text></g><g class="mark-rule role-axis-domain" pointer-events="none"><line transform="translate(0,100)" x2="0" y2="-100" stroke="black" stroke-width="1.01" opacity="1"/></g><g class="mark-text role-axis-title" pointer-events="none"><text text-anchor="middle" transform="translate(-26,50) rotate(-90) translate(0,-2)" font-family="sans-serif" font-size="11px" font-style="normal" font-weight="400" fill="black" opacity="1">y</text></g></g><path class="foreground" aria-hidden="true" d="" pointer-events="none" display="none"/></g></g><g class="mark-group role-scope" role="graphics-object" aria-roledescription="group mark container"><g transform="translate(0,0)"><path class="background" aria-hidden="true" d="M0,0h0v0h0Z"/><g><g class="mark-symbol role-mark points" role="graphics-symbol" aria-roledescription="symbol mark container"><path transform="translate(95.46351496460626,45.15427131789529)" d="M5,0A5,5,0,1,1,-5,0A5,5,0,1,1,5,0" fill="white" stroke="steelblue" stroke-width="1" opacity="1"/><path transform="translate(95.0222255049986,70.61778453727203)" d="M5,0A5,5,0,1,1,-5,0A5,5,0,1,1,5,0" fill="white" stroke="steelblue" stroke-width="1" opacity="1"/><path transform="translate(14.731683759366598,44.123804237771644)" d="M5,0A5,5,0,1,1,-5,0A5,5,0,1,1,5,0" fill="white" stroke="steelblue" stroke-width="1" opacity="1"/><path transform="translate(7.353897053327374,98.07875836889394)" d="M5,0A5,5,0,1,1,-5,0A5,5,0,1,1,5,0" fill="white" stroke="steelblue" stroke-width="1" opacity="1"/><path transform="translate(20.196139000803658,55.68964800243899)" d="M5,0A5,5,0,1,1,-5,0A5,5,0,1,1,5,0" fill="white" stroke="steelblue" stroke-width="1" opacity="1"/><path transform="translate(27.06877841684523,11.658803940837291)" d="M5,0A5,5,0,1,1,-5,0A5,5,0,1,1,5,0" fill="white" stroke="steelblue" stroke-width="1" opacity="1"/><path transform="translate(77.75000939163364,48.58227199731289)" d="M5,0A5,5,0,1,1,-5,0A5,5,0,1,1,5,0" fill="white" stroke="steelblue" stroke-width="1" opacity="1"/><path transform="translate(55.79739797365105,10.232441564339101)" d="M5,0A5,5,0,1,1,-5,0A5,5,0,1,1,5,0" fill="white" stroke="steelblue" stroke-width="1" opacity="1"/><path transform="translate(74.94602435241242,22.519704001076178)" d="M5,0A5,5,0,1,1,-5,0A5,5,0,1,1,5,0" fill="white" stroke="steelblue" stroke-width="1" opacity="1"/><path transform="translate(38.61262513031166,71.47284797125276)" d="M5,0A5,5,0,1,1,-5,0A5,5,0,1,1,5,0" fill="white" stroke="steelblue" stroke-width="1" opacity="1"/><path transform="translate(89.15090660780594,2.0024627162121056)" d="M5,0A5,5,0,1,1,-5,0A5,5,0,1,1,5,0" fill="white" stroke="steelblue" stroke-width="1" opacity="1"/><path transform="translate(38.70058545118737,38.94065439944527)" d="M5,0A5,5,0,1,1,-5,0A5,5,0,1,1,5,0" fill="white" stroke="steelblue" stroke-width="1" opacity="1"/><path transform="translate(74.49571151987973,73.84102141161839)" d="M5,0A5,5,0,1,1,-5,0A5,5,0,1,1,5,0" fill="white" stroke="steelblue" stroke-width="1" opacity="1"/><path transform="translate(95.18278443052074,25.459736332453186)" d="M5,0A5,5,0,1,1,-5,0A5,5,0,1,1,5,0" fill="white" stroke="steelblue" stroke-width="1" opacity="1"/><path transform="translate(96.7518634607954,20.76545484131218)" d="M5,0A5,5,0,1,1,-5,0A5,5,0,1,1,5,0" fill="white" stroke="steelblue" stroke-width="1" opacity="1"/><path transform="translate(18.05844935251407,77.06760224324036)" d="M5,0A5,5,0,1,1,-5,0A5,5,0,1,1,5,0" fill="white" stroke="steelblue" stroke-width="1" opacity="1"/><path transform="translate(70.54581897180604,39.00593527128429)" d="M5,0A5,5,0,1,1,-5,0A5,5,0,1,1,5,0" fill="white" stroke="steelblue" stroke-width="1" opacity="1"/><path transform="translate(19.092881994136455,16.214150018269358)" d="M5,0A5,5,0,1,1,-5,0A5,5,0,1,1,5,0" fill="white" stroke="steelblue" stroke-width="1" opacity="1"/><path transform="translate(73.65880116933447,62.85695009107217)" d="M5,0A5,5,0,1,1,-5,0A5,5,0,1,1,5,0" fill="white" stroke="steelblue" stroke-width="1" opacity="1"/><path transform="translate(10.397940106414605,42.31379903108793)" d="M5,0A5,5,0,1,1,-5,0A5,5,0,1,1,5,0" fill="white" stroke="steelblue" stroke-width="1" opacity="1"/></g></g><path class="foreground" aria-hidden="true" d="" display="none"/></g></g></g><path class="foreground" aria-hidden="true" d="" display="none"/></g></g></g></svg>