<svg xmlns="http://www.w3.org/2000/svg" xmlns:xlink="http://www.w3.org/1999/xlink" version="1.1" class="marks" width="122" height="118" viewBox="0 0 122 118"><rect width="122" height="118" fill="white"/><g fill="none" stroke-miterlimit="10" transform="translate(21,1)"><g class="mark-group role-frame root" role="graphics-object" aria-roledescription="group mark container"><g transform="translate(0,0)"><path class="background" aria-hidden="true" d="M0,0h100v100h-100Z"/><g><g class="mark-group role-axis" role="graphics-symbol" aria-roledescription="axis" aria-label="X-axis for a discrete scale with 1 value: variable(s)"><g transform="translate(0.5,100.5)"><path class="background" aria-hidden="true" d="M0,0h0v0h0Z" pointer-events="none"/><g><g class="mark-rule role-axis-tick" pointer-events="none"><line transform="translate(50,0)" x2="0" y2="5" stroke="white" stroke-width="1.01" opacity="1"/></g><g class="mark-text role-axis-label" pointer-events="none"><text text-anchor="middle" transform="translate(49.5,15)" font-family="sans-serif" font-size="10px" font-style="normal" font-weight="400" fill="black" opacity="1">variable(s)</text></g></g><path class="foreground" aria-hidden="true" d="" pointer-events="none" display="none"/></g></g><g class="mark-group role-axis" role="graphics-symbol" aria-roledescription="axis" aria-label="Y-axis for a linear scale with values from −4 to 3"><g transform="translate(0.5,0.5)"><path class="background" aria-hidden="true" d="M0,0h0v0h0Z" pointer-events="none"/><g><g class="mark-rule role-axis-tick" pointer-events="none"><line transform="translate(0,77)" x2="-5" y2="0" stroke="white" stroke-width="1.01" opacity="1"/><line transform="translate(0,46)" x2="-5" y2="0" stroke="white" stroke-width="1.01" opacity="1"/><line transform="translate(0,15)" x2="-5" y2="0" stroke="white" stroke-width="1.01" opacity="1"/></g><g class="mark-text role-axis-label" pointer-events="none"><text text-anchor="end" transform="translate(-7,79.92307692307692)" font-family="sans-serif" font-size="10px" font-style="normal" font-weight="400" fill="white" opacity="1">−2</text><text text-anchor="end" transform="translate(-7,49.15384615384615)" font-family="sans-serif" font-size="10px" font-style="normal" font-weight="400" fill="white" opacity="1">0</text><text text-anchor="end" transform="translate(-7,18.384615384615387)" font-family="sans-serif" font-size="10px" font-style="normal" font-weight="400" fill="white" opacity="1">2</text></g></g><path class="foreground" aria-hidden="true" d="" pointer-events="none" display="none"/></g></g><g class="mark-group role-scope" role="graphics-object" aria-roledescription="group mark container"><g transform="translate(0,0)"><path class="background" aria-hidden="true" d="M0,0h0v0h0Z"/><g><g class="mark-rect role-mark" role="graphics-symbol" aria-roledescription="rect mark container"><path d="M0,36.2926046805665h24.050632911392405v22.878961449026548h-24.050632911392405Z" fill="#4c78a8" stroke="white" stroke-width="1" opacity="1"/><path d="M25.31645569620253,35.93259235932867h24.050632911392405v20.13262156754466h-24.050632911392405Z" fill="#f58518" stroke="white" stroke-width="1" opacity="1"/><path d="M50.63291139240506,35.4218298249368h24.050632911392405v19.646592682209608h-24.050632911392405Z" fill="#e45756" stroke="white" stroke-width="1" opacity="1"/><path d="M75.9493670886076,34.42817402313957h24.050632911392405v21.638789112716353h-24.050632911392405Z" fill="#72b7b2" stroke="white" stroke-width="1" opacity="1"/></g><g class="mark-rule role-mark" role="graphics-symbol" aria-roledescription="rule mark container"><line transform="translate(0,47.9704951494804)" x2="24.050632911392405" y2="0" fill="#4c78a8" stroke="white" stroke-width="1" opacity="1"/><line transform="translate(25.31645569620253,46.221649490398285)" x2="24.050632911392405" y2="0" fill="#f58518" stroke="white" stroke-width="1" opacity="1"/><line transform="translate(50.63291139240506,44.097902624081456)" x2="24.050632911392412" y2="0" fill="#e45756" stroke="white" stroke-width="1" opacity="1"/><line transform="translate(75.9493670886076,44.7190200409898)" x2="24.0506329113924" y2="0" fill="#72b7b2" stroke="white" stroke-width="1" opacity="1"/></g><g class="mark-symbol role-mark" role="graphics-symbol" aria-roledescription="symbol mark container"><path transform="translate(12.025316455696203,47.411509604194016)" d="M-3.1622776601683795,0L0,-3.1622776601683795L3.1622776601683795,0L0,3.1622776601683795Z" fill="#4c78a8" stroke="white" stroke-width="1" opacity="1"/><path transform="translate(37.34177215189874,45.585223118518236)" d="M-3.1622776601683795,0L0,-3.1622776601683795L3.1622776601683795,0L0,3.1622776601683795Z" fill="#f58518" stroke="white" stroke-width="1" opacity="1"/><path transform="translate(62.65822784810126,44.666493829430685)" d="M-3.1622776601683795,0L0,-3.1622776601683795L3.1622776601683795,0L0,3.1622776601683795Z" fill="#e45756" stroke="white" stroke-width="1" opacity="1"/><path transform="translate(87.9746835443038,44.4872451916594)" d="M-3.1622776601683795,0L0,-3.1622776601683795L3.1622776601683795,0L0,3.1622776601683795Z" fill="#72b7b2" stroke="white" stroke-width="1" opacity="1"/></g><g class="mark-rule role-mark" role="graphics-symbol" aria-roledescription="rule mark container"><line transform="translate(12.025316455696203,59.171566129593046)" x2="0" y2="18.05460058331944" fill="#4c78a8" stroke="black" stroke-width="1" stroke-dasharray="0" opacity="1"/><line transform="translate(37.34177215189874,56.065213926873334)" x2="0" y2="28.07562369041232" fill="#f58518" stroke="black" stroke-width="1" stroke-dasharray="0" opacity="1"/><line transform="translate(62.65822784810126,55.06842250714641)" x2="0" y2="29.469889023314394" fill="#e45756" stroke="black" stroke-width="1" stroke-dasharray="0" opacity="1"/><line transform="translate(87.9746835443038,56.06696313585592)" x2="0" y2="32.45818366907452" fill="#72b7b2" stroke="black" stroke-width="1" stroke-dasharray="0" opacity="1"/></g><g class="mark-rule role-mark" role="graphics-symbol" aria-roledescription="rule mark container"><line transform="translate(12.025316455696203,36.2926046805665)" x2="0" y2="-27.460010077353026" fill="#4c78a8" stroke="black" stroke-width="1" stroke-dasharray="0" opacity="1"/><line transform="translate(37.34177215189874,35.93259235932867)" x2="0" y2="-30.198932351316998" fill="#f58518" stroke="black" stroke-width="1" stroke-dasharray="0" opacity="1"/><line transform="translate(62.65822784810126,35.4218298249368)" x2="0" y2="-20.118920251993167" fill="#e45756" stroke="black" stroke-width="1" stroke-dasharray="0" opacity="1"/><line transform="translate(87.9746835443038,34.42817402313957)" x2="0" y2="-23.494313186662296" fill="#72b7b2" stroke="black" stroke-width="1" stroke-dasharray="0" opacity="1"/></g><g class="mark-rule role-mark lower_fence" role="graphics-symbol" aria-roledescription="rule mark container"><line transform="translate(6.012658227848101,77.22616671291249)" x2="12.025316455696204" y2="0" fill="#4c78a8" stroke="black" stroke-width="1" opacity="1"/><line transform="translate(31.32911392405063,84.14083761728565)" x2="12.025316455696206" y2="0" fill="#f58518" stroke="black" stroke-width="1" opacity="1"/><line transform="translate(56.64556962025316,84.5383115304608)" x2="12.025316455696206" y2="0" fill="#e45756" stroke="black" stroke-width="1" opacity="1"/><line transform="translate(81.96202531645571,88.52514680493044)" x2="12.0253164556962" y2="0" fill="#72b7b2" stroke="black" stroke-width="1" opacity="1"/></g><g class="mark-rule role-mark upper_fence" role="graphics-symbol" aria-roledescription="rule mark container"><line transform="translate(6.012658227848101,8.832594603213472)" x2="12.025316455696204" y2="0" fill="#4c78a8" stroke="black" stroke-width="1" opacity="1"/><line transform="translate(31.32911392405063,5.733660008011676)" x2="12.025316455696206" y2="0" fill="#f58518" stroke="black" stroke-width="1" opacity="1"/><line transform="translate(56.64556962025316,15.302909572943635)" x2="12.025316455696206" y2="0" fill="#e45756" stroke="black" stroke-width="1" opacity="1"/><line transform="translate(81.96202531645571,10.933860836477272)" x2="12.0253164556962" y2="0" fill="#72b7b2" stroke="black" stroke-width="1" opacity="1"/></g></g><path class="foreground" aria-hidden="true" d="" display="none"/></g></g><g class="mark-group role-scope" role="graphics-object" aria-roledescription="group mark container"><g transform="translate(0,0)"><path class="background" aria-hidden="true" d="M0,0h0v0h0Z"/><g><g class="mark-symbol role-mark" role="graphics-symbol" aria-roledescription="symbol mark container"><path transform="translate(37.34177215189874,3.3932584166839863)" d="M2.7386127875258306,0A2.7386127875258306,2.7386127875258306,0,1,1,-2.7386127875258306,0A2.7386127875258306,2.7386127875258306,0,1,1,2.7386127875258306,0" fill="#f58518" stroke="white" stroke-width="1" opacity="1"/><path transform="translate(37.34177215189874,3.377655554638015)" d="M2.7386127875258306,0A2.7386127875258306,2.7386127875258306,0,1,1,-2.7386127875258306,0A2.7386127875258306,2.7386127875258306,0,1,1,2.7386127875258306,0" fill="#f58518" stroke="white" stroke-width="1" opacity="1"/><path transform="translate(62.65822784810126,86.4678748182435)" d="M2.7386127875258306,0A2.7386127875258306,2.7386127875258306,0,1,1,-2.7386127875258306,0A2.7386127875258306,2.7386127875258306,0,1,1,2.7386127875258306,0" fill="#e45756" stroke="white" stroke-width="1" opacity="1"/><path transform="translate(87.9746835443038,97.15185397847782)" d="M2.7386127875258306,0A2.7386127875258306,2.7386127875258306,0,1,1,-2.7386127875258306,0A2.7386127875258306,2.7386127875258306,0,1,1,2.7386127875258306,0" fill="#72b7b2" stroke="white" stroke-width="1" opacity="1"/><path transform="translate(87.9746835443038,91.1839191690606)" d="M2.7386127875258306,0A2.7386127875258306,2.7386127875258306,0,1,1,-2.7386127875258306,0A2.7386127875258306,2.7386127875258306,0,1,1,2.7386127875258306,0" fill="#72b7b2" stroke="white" stroke-width="1" opacity="1"/></g></g><path class="foreground" aria-hidden="true" d="" display="none"/></g></g></g><path class="foreground" aria-hidden="true" d="" display="none"/></g></g></g></svg>