<svg xmlns="http://www.w3.org/2000/svg" xmlns:xlink="http://www.w3.org/1999/xlink" version="1.1" class="marks" width="188" height="137" viewBox="0 0 188 137"><rect width="188" height="137" fill="white"/><g fill="none" stroke-miterlimit="10" transform="translate(37,5)"><g class="mark-group role-frame root" role="graphics-object" aria-roledescription="group mark container"><g transform="translate(0,0)"><path class="background" aria-hidden="true" d="M0,0h100v100h-100Z" fill="lightgray"/><g><g class="mark-group role-axis" role="graphics-symbol" aria-roledescription="axis" aria-label="X-axis titled 'x' for a linear scale with values from 0.0 to 1.0"><g transform="translate(0.5,100.5)"><path class="background" aria-hidden="true" d="M0,0h0v0h0Z" pointer-events="none"/><g><g class="mark-rule role-axis-grid" pointer-events="none"><line transform="translate(0,0)" x2="0" y2="-100" stroke="white" stroke-width="0.5" stroke-dasharray="0" opacity="1"/><line transform="translate(50,0)" x2="0" y2="-100" stroke="white" stroke-width="0.5" stroke-dasharray="0" opacity="1"/><line transform="translate(100,0)" x2="0" y2="-100" stroke="white" stroke-width="0.5" stroke-dasharray="0" opacity="1"/></g><g class="mark-rule role-axis-tick" pointer-events="none"><line transform="translate(0,0)" x2="0" y2="5" stroke="black" stroke-width="1.01" opacity="1"/><line transform="translate(50,0)" x2="0" y2="5" stroke="black" stroke-width="1.01" opacity="1"/><line transform="translate(100,0)" x2="0" y2="5" stroke="black" stroke-width="1.01" opacity="1"/></g><g class="mark-text role-axis-label" pointer-events="none"><text text-anchor="middle" transform="translate(0,15)" font-family="sans-serif" font-size="10px" font-style="normal" font-weight="400" fill="black" opacity="1">0.0</text><text text-anchor="middle" transform="translate(50,15)" font-family="sans-serif" font-size="10px" font-style="normal" font-weight="400" fill="black" opacity="1">0.5</text><text text-anchor="middle" transform="translate(100,15)" font-family="sans-serif" font-size="10px" font-style="normal" font-weight="400" fill="black" opacity="1">1.0</text></g><g class="mark-rule role-axis-domain" pointer-events="none"><line transform="translate(0,0)" x2="100" y2="0" stroke="black" stroke-width="1.01" opacity="1"/></g><g class="mark-text role-axis-title" pointer-events="none"><text text-anchor="middle" transform="translate(50,30)" font-family="sans-serif" font-size="11px" font-style="normal" font-weight="400" fill="black" opacity="1">x</text></g></g><path class="foreground" aria-hidden="true" d="" pointer-events="none" display="none"/></g></g><g class="mark-group role-axis" role="graphics-symbol" aria-roledescription="axis" aria-label="Y-axis titled 'y' for a linear scale with values from 0.0 to 1.0"><g transform="translate(0.5,0.5)"><path class="background" aria-hidden="true" d="M0,0h0v0h0Z" pointer-events="none"/><g><g class="mark-rule role-axis-grid" pointer-events="none"><line transform="translate(0,100)" x2="100" y2="0" stroke="white" stroke-width="0.5" stroke-dasharray="0" opacity="1"/><line transform="translate(0,50)" x2="100" y2="0" stroke="white" stroke-width="0.5" stroke-dasharray="0" opacity="1"/><line transform="translate(0,0)" x2="100" y2="0" stroke="white" stroke-width="0.5" stroke-dasharray="0" opacity="1"/></g><g class="mark-rule role-axis-tick" pointer-events="none"><line transform="translate(0,100)" x2="-5" y2="0" stroke="black" stroke-width="1.01" opacity="1"/><line transform="translate(0,50)" x2="-5" y2="0" stroke="black" stroke-width="1.01" opacity="1"/><line transform="translate(0,0)" x2="-5" y2="0" stroke="black" stroke-width="1.01" opacity="1"/></g><g class="mark-text role-axis-label" pointer-events="none"><text text-anchor="end" transform="translate(-7,103)" font-family="sans-serif" font-size="10px" font-style="normal" font-weight="400" fill="black" opacity="1">0.0</text><text text-anchor="end" transform="translate(-7,53)" font-family="sans-serif" font-size="10px" font-style="normal" font-weight="400" fill="black" opacity="1">0.5</text><text text-anchor="end" transform="translate(-7,3)" font-family="sans-serif" font-size="10px" font-style="normal" font-weight="400" fill="black" opacity="1">1.0</text></g><g class="mark-rule role-axis-domain" pointer-events="none"><line transform="translate(0,100)" x2="0" y2="-100" stroke="black" stroke-width="1.01" opacity="1"/></g><g class="mark-text role-axis-title" pointer-events="none"><text text-anchor="middle" transform="translate(-26,50) rotate(-90) translate(0,-2)" font-family="sans-serif" font-size="11px" font-style="normal" font-weight="400" fill="black" opacity="1">y</text></g></g><path class="foreground" aria-hidden="true" d="" pointer-events="none" display="none"/></g></g><g class="mark-group role-scope" role="graphics-object" aria-roledescription="group mark container"><g transform="translate(0,0)"><path class="background" aria-hidden="true" d="M0,0h0v0h0Z"/><g><g class="mark-symbol role-mark points" role="graphics-symbol" aria-roledescription="symbol mark container"><path transform="translate(57.788257722147264,87.3321173190761)" d="M5,0A5,5,0,1,1,-5,0A5,5,0,1,1,5,0" fill="rgb(32, 88, 72)" stroke="white" stroke-width="1" opacity="1"/><path transform="translate(77.16297425855161,73.44823331894116)" d="M5,0A5,5,0,1,1,-5,0A5,5,0,1,1,5,0" fill="rgb(1, 120, 73)" stroke="white" stroke-width="1" opacity="1"/><path transform="translate(50.76543044113503,31.647878912517456)" d="M5,0A5,5,0,1,1,-5,0A5,5,0,1,1,5,0" fill="rgb(177, 202, 59)" stroke="white" stroke-width="1" opacity="1"/><path transform="translate(57.76995699823105,2.261870231221652)" d="M5,0A5,5,0,1,1,-5,0A5,5,0,1,1,5,0" fill="rgb(255, 255, 169)" stroke="white" stroke-width="1" opacity="1"/><path transform="translate(34.015167151158344,62.12318563832151)" d="M5,0A5,5,0,1,1,-5,0A5,5,0,1,1,5,0" fill="rgb(31, 145, 66)" stroke="white" stroke-width="1" opacity="1"/><path transform="translate(16.749609111936458,88.45840500576783)" d="M5,0A5,5,0,1,1,-5,0A5,5,0,1,1,5,0" fill="rgb(35, 85, 71)" stroke="white" stroke-width="1" opacity="1"/><path transform="translate(71.20002446507371,63.53716964854671)" d="M5,0A5,5,0,1,1,-5,0A5,5,0,1,1,5,0" fill="rgb(22, 143, 66)" stroke="white" stroke-width="1" opacity="1"/><path transform="translate(58.61655507008524,45.7564873824279)" d="M5,0A5,5,0,1,1,-5,0A5,5,0,1,1,5,0" fill="rgb(115, 177, 64)" stroke="white" stroke-width="1" opacity="1"/><path transform="translate(32.98288270594798,41.54849570301645)" d="M5,0A5,5,0,1,1,-5,0A5,5,0,1,1,5,0" fill="rgb(133, 185, 63)" stroke="white" stroke-width="1" opacity="1"/><path transform="translate(97.3872185071052,4.732856475214097)" d="M5,0A5,5,0,1,1,-5,0A5,5,0,1,1,5,0" fill="rgb(255, 250, 140)" stroke="white" stroke-width="1" opacity="1"/><path transform="translate(24.96122879403544,47.6353840626557)" d="M5,0A5,5,0,1,1,-5,0A5,5,0,1,1,5,0" fill="rgb(107, 174, 64)" stroke="white" stroke-width="1" opacity="1"/><path transform="translate(41.936726510953534,3.9453841114516996)" d="M5,0A5,5,0,1,1,-5,0A5,5,0,1,1,5,0" fill="rgb(255, 252, 150)" stroke="white" stroke-width="1" opacity="1"/><path transform="translate(96.36670729098694,18.034211344471217)" d="M5,0A5,5,0,1,1,-5,0A5,5,0,1,1,5,0" fill="rgb(233, 226, 49)" stroke="white" stroke-width="1" opacity="1"/><path transform="translate(5.69440831874537,10.468532705315925)" d="M5,0A5,5,0,1,1,-5,0A5,5,0,1,1,5,0" fill="rgb(255, 240, 73)" stroke="white" stroke-width="1" opacity="1"/><path transform="translate(99.00775372924403,68.26544040183464)" d="M5,0A5,5,0,1,1,-5,0A5,5,0,1,1,5,0" fill="rgb(3, 132, 68)" stroke="white" stroke-width="1" opacity="1"/><path transform="translate(0.004638709219195736,36.242424447722144)" d="M5,0A5,5,0,1,1,-5,0A5,5,0,1,1,5,0" fill="rgb(157, 195, 62)" stroke="white" stroke-width="1" opacity="1"/><path transform="translate(96.8469962577478,73.8685360092304)" d="M5,0A5,5,0,1,1,-5,0A5,5,0,1,1,5,0" fill="rgb(1, 119, 74)" stroke="white" stroke-width="1" opacity="1"/><path transform="translate(50.915432037907905,37.5993519572989)" d="M5,0A5,5,0,1,1,-5,0A5,5,0,1,1,5,0" fill="rgb(151, 192, 62)" stroke="white" stroke-width="1" opacity="1"/><path transform="translate(86.1535407914451,30.93402776824724)" d="M5,0A5,5,0,1,1,-5,0A5,5,0,1,1,5,0" fill="rgb(180, 204, 59)" stroke="white" stroke-width="1" opacity="1"/><path transform="translate(41.21473380941666,49.23039541015349)" d="M5,0A5,5,0,1,1,-5,0A5,5,0,1,1,5,0" fill="rgb(100, 171, 65)" stroke="white" stroke-width="1" opacity="1"/><path transform="translate(26.889944239964024,41.1663818821067)" d="M5,0A5,5,0,1,1,-5,0A5,5,0,1,1,5,0" fill="rgb(135, 186, 63)" stroke="white" stroke-width="1" opacity="1"/><path transform="translate(77.31133396207375,71.01286324696838)" d="M5,0A5,5,0,1,1,-5,0A5,5,0,1,1,5,0" fill="rgb(2, 126, 71)" stroke="white" stroke-width="1" opacity="1"/><path transform="translate(51.17362672942654,82.4066417882128)" d="M5,0A5,5,0,1,1,-5,0A5,5,0,1,1,5,0" fill="rgb(17, 99, 74)" stroke="white" stroke-width="1" opacity="1"/><path transform="translate(44.185543327005114,60.58505102624743)" d="M5,0A5,5,0,1,1,-5,0A5,5,0,1,1,5,0" fill="rgb(41, 148, 66)" stroke="white" stroke-width="1" opacity="1"/><path transform="translate(59.38262618408564,17.58905731619773)" d="M5,0A5,5,0,1,1,-5,0A5,5,0,1,1,5,0" fill="rgb(235, 227, 48)" stroke="white" stroke-width="1" opacity="1"/><path transform="translate(34.54274652062727,54.10075227829473)" d="M5,0A5,5,0,1,1,-5,0A5,5,0,1,1,5,0" fill="rgb(79, 161, 66)" stroke="white" stroke-width="1" opacity="1"/><path transform="translate(84.55118746320551,48.38329095625846)" d="M5,0A5,5,0,1,1,-5,0A5,5,0,1,1,5,0" fill="rgb(103, 172, 65)" stroke="white" stroke-width="1" opacity="1"/><path transform="translate(89.351540890682,31.991844108580835)" d="M5,0A5,5,0,1,1,-5,0A5,5,0,1,1,5,0" fill="rgb(175, 202, 59)" stroke="white" stroke-width="1" opacity="1"/><path transform="translate(65.1198133626386,32.00237261581478)" d="M5,0A5,5,0,1,1,-5,0A5,5,0,1,1,5,0" fill="rgb(175, 202, 60)" stroke="white" stroke-width="1" opacity="1"/><path transform="translate(67.41864962491024,69.72054629635322)" d="M5,0A5,5,0,1,1,-5,0A5,5,0,1,1,5,0" fill="rgb(3, 129, 69)" stroke="white" stroke-width="1" opacity="1"/><path transform="translate(9.954278159553386,21.08273528225455)" d="M5,0A5,5,0,1,1,-5,0A5,5,0,1,1,5,0" fill="rgb(221, 220, 52)" stroke="white" stroke-width="1" opacity="1"/><path transform="translate(17.12892728627765,90.11963073828437)" d="M5,0A5,5,0,1,1,-5,0A5,5,0,1,1,5,0" fill="rgb(39, 81, 69)" stroke="white" stroke-width="1" opacity="1"/><path transform="translate(82.72228590440132,33.190867117793424)" d="M5,0A5,5,0,1,1,-5,0A5,5,0,1,1,5,0" fill="rgb(171, 200, 60)" stroke="white" stroke-width="1" opacity="1"/><path transform="translate(41.78074865987984,28.584904858823947)" d="M5,0A5,5,0,1,1,-5,0A5,5,0,1,1,5,0" fill="rgb(189, 208, 57)" stroke="white" stroke-width="1" opacity="1"/><path transform="translate(79.76644442288513,16.37862047348799)" d="M5,0A5,5,0,1,1,-5,0A5,5,0,1,1,5,0" fill="rgb(240, 229, 47)" stroke="white" stroke-width="1" opacity="1"/><path transform="translate(69.83478858234139,85.6448321233894)" d="M5,0A5,5,0,1,1,-5,0A5,5,0,1,1,5,0" fill="rgb(27, 92, 73)" stroke="white" stroke-width="1" opacity="1"/><path transform="translate(95.80477008574022,60.860572898776496)" d="M5,0A5,5,0,1,1,-5,0A5,5,0,1,1,5,0" fill="rgb(39, 148, 66)" stroke="white" stroke-width="1" opacity="1"/><path transform="translate(41.592831824578,2.2646191391195947)" d="M5,0A5,5,0,1,1,-5,0A5,5,0,1,1,5,0" fill="rgb(255, 255, 169)" stroke="white" stroke-width="1" opacity="1"/><path transform="translate(34.322150151922315,60.03120401438711)" d="M5,0A5,5,0,1,1,-5,0A5,5,0,1,1,5,0" fill="rgb(44, 149, 66)" stroke="white" stroke-width="1" opacity="1"/><path transform="translate(97.76291400516757,45.9584043475145)" d="M5,0A5,5,0,1,1,-5,0A5,5,0,1,1,5,0" fill="rgb(114, 177, 64)" stroke="white" stroke-width="1" opacity="1"/><path transform="translate(90.15930836672209,44.901737774002825)" d="M5,0A5,5,0,1,1,-5,0A5,5,0,1,1,5,0" fill="rgb(118, 179, 64)" stroke="white" stroke-width="1" opacity="1"/><path transform="translate(19.583476440352587,41.30653519320053)" d="M5,0A5,5,0,1,1,-5,0A5,5,0,1,1,5,0" fill="rgb(134, 186, 63)" stroke="white" stroke-width="1" opacity="1"/><path transform="translate(2.68513072755443,4.961518302060719)" d="M5,0A5,5,0,1,1,-5,0A5,5,0,1,1,5,0" fill="rgb(255, 250, 138)" stroke="white" stroke-width="1" opacity="1"/><path transform="translate(90.85909359717252,54.42271391360576)" d="M5,0A5,5,0,1,1,-5,0A5,5,0,1,1,5,0" fill="rgb(77, 160, 66)" stroke="white" stroke-width="1" opacity="1"/><path transform="translate(69.53101416173288,18.13810842853696)" d="M5,0A5,5,0,1,1,-5,0A5,5,0,1,1,5,0" fill="rgb(233, 226, 49)" stroke="white" stroke-width="1" opacity="1"/><path transform="translate(46.158890435692804,28.64312650916493)" d="M5,0A5,5,0,1,1,-5,0A5,5,0,1,1,5,0" fill="rgb(189, 207, 57)" stroke="white" stroke-width="1" opacity="1"/><path transform="translate(43.84083275813626,27.36663611150717)" d="M5,0A5,5,0,1,1,-5,0A5,5,0,1,1,5,0" fill="rgb(194, 210, 56)" stroke="white" stroke-width="1" opacity="1"/><path transform="translate(85.60491779643769,19.446536759210787)" d="M5,0A5,5,0,1,1,-5,0A5,5,0,1,1,5,0" fill="rgb(227, 223, 50)" stroke="white" stroke-width="1" opacity="1"/><path transform="translate(7.390505612986309,13.242155374108044)" d="M5,0A5,5,0,1,1,-5,0A5,5,0,1,1,5,0" fill="rgb(254, 234, 44)" stroke="white" stroke-width="1" opacity="1"/><path transform="translate(8.196150398470204,52.189617345866814)" d="M5,0A5,5,0,1,1,-5,0A5,5,0,1,1,5,0" fill="rgb(87, 165, 65)" stroke="white" stroke-width="1" opacity="1"/><path transform="translate(43.94229155684588,26.4507914978375)" d="M5,0A5,5,0,1,1,-5,0A5,5,0,1,1,5,0" fill="rgb(198, 211, 56)" stroke="white" stroke-width="1" opacity="1"/><path transform="translate(30.089186478671447,2.3882502230345493)" d="M5,0A5,5,0,1,1,-5,0A5,5,0,1,1,5,0" fill="rgb(255, 255, 168)" stroke="white" stroke-width="1" opacity="1"/><path transform="translate(77.03420928161991,32.34484596710268)" d="M5,0A5,5,0,1,1,-5,0A5,5,0,1,1,5,0" fill="rgb(174, 201, 60)" stroke="white" stroke-width="1" opacity="1"/><path transform="translate(28.296585682277964,87.08820567619394)" d="M5,0A5,5,0,1,1,-5,0A5,5,0,1,1,5,0" fill="rgb(31, 88, 72)" stroke="white" stroke-width="1" opacity="1"/><path transform="translate(44.59161808344555,54.09167929911948)" d="M5,0A5,5,0,1,1,-5,0A5,5,0,1,1,5,0" fill="rgb(79, 161, 66)" stroke="white" stroke-width="1" opacity="1"/><path transform="translate(53.58320948214549,76.38441091925861)" d="M5,0A5,5,0,1,1,-5,0A5,5,0,1,1,5,0" fill="rgb(0, 113, 76)" stroke="white" stroke-width="1" opacity="1"/><path transform="translate(20.670448828911624,2.575080934155305)" d="M5,0A5,5,0,1,1,-5,0A5,5,0,1,1,5,0" fill="rgb(255, 254, 166)" stroke="white" stroke-width="1" opacity="1"/><path transform="translate(37.85578701309679,6.378270874935776)" d="M5,0A5,5,0,1,1,-5,0A5,5,0,1,1,5,0" fill="rgb(255, 247, 121)" stroke="white" stroke-width="1" opacity="1"/><path transform="translate(9.842800626995585,65.95295783555325)" d="M5,0A5,5,0,1,1,-5,0A5,5,0,1,1,5,0" fill="rgb(7, 138, 66)" stroke="white" stroke-width="1" opacity="1"/><path transform="translate(12.758178990962632,76.16683696807927)" d="M5,0A5,5,0,1,1,-5,0A5,5,0,1,1,5,0" fill="rgb(0, 113, 76)" stroke="white" stroke-width="1" opacity="1"/><path transform="translate(51.62950172328086,89.45637743064823)" d="M5,0A5,5,0,1,1,-5,0A5,5,0,1,1,5,0" fill="rgb(37, 82, 70)" stroke="white" stroke-width="1" opacity="1"/><path transform="translate(42.006141114034726,63.902592154241034)" d="M5,0A5,5,0,1,1,-5,0A5,5,0,1,1,5,0" fill="rgb(20, 142, 66)" stroke="white" stroke-width="1" opacity="1"/><path transform="translate(55.67763558124934,70.69824161280138)" d="M5,0A5,5,0,1,1,-5,0A5,5,0,1,1,5,0" fill="rgb(2, 126, 70)" stroke="white" stroke-width="1" opacity="1"/><path transform="translate(62.2597395461357,2.211385351528339)" d="M5,0A5,5,0,1,1,-5,0A5,5,0,1,1,5,0" fill="rgb(255, 255, 170)" stroke="white" stroke-width="1" opacity="1"/><path transform="translate(88.89782625948428,75.7833319748795)" d="M5,0A5,5,0,1,1,-5,0A5,5,0,1,1,5,0" fill="rgb(0, 114, 76)" stroke="white" stroke-width="1" opacity="1"/><path transform="translate(38.30526416215893,34.85791770542972)" d="M5,0A5,5,0,1,1,-5,0A5,5,0,1,1,5,0" fill="rgb(163, 197, 61)" stroke="white" stroke-width="1" opacity="1"/><path transform="translate(35.45414854207883,68.20932993327003)" d="M5,0A5,5,0,1,1,-5,0A5,5,0,1,1,5,0" fill="rgb(3, 132, 68)" stroke="white" stroke-width="1" opacity="1"/><path transform="translate(61.829912685903,53.91172967094043)" d="M5,0A5,5,0,1,1,-5,0A5,5,0,1,1,5,0" fill="rgb(80, 161, 66)" stroke="white" stroke-width="1" opacity="1"/><path transform="translate(48.86323978820701,13.542123143156992)" d="M5,0A5,5,0,1,1,-5,0A5,5,0,1,1,5,0" fill="rgb(252, 234, 45)" stroke="white" stroke-width="1" opacity="1"/><path transform="translate(17.231599447969593,58.86230463028579)" d="M5,0A5,5,0,1,1,-5,0A5,5,0,1,1,5,0" fill="rgb(52, 152, 66)" stroke="white" stroke-width="1" opacity="1"/><path transform="translate(52.41981783960713,60.82229074677799)" d="M5,0A5,5,0,1,1,-5,0A5,5,0,1,1,5,0" fill="rgb(39, 148, 66)" stroke="white" stroke-width="1" opacity="1"/><path transform="translate(98.77819932257938,39.46815302288421)" d="M5,0A5,5,0,1,1,-5,0A5,5,0,1,1,5,0" fill="rgb(143, 189, 62)" stroke="white" stroke-width="1" opacity="1"/><path transform="translate(69.76620937898632,32.413699138770426)" d="M5,0A5,5,0,1,1,-5,0A5,5,0,1,1,5,0" fill="rgb(174, 201, 60)" stroke="white" stroke-width="1" opacity="1"/><path transform="translate(42.10946149784029,89.0201075983044)" d="M5,0A5,5,0,1,1,-5,0A5,5,0,1,1,5,0" fill="rgb(36, 84, 70)" stroke="white" stroke-width="1" opacity="1"/><path transform="translate(18.161303572558918,54.72561236555408)" d="M5,0A5,5,0,1,1,-5,0A5,5,0,1,1,5,0" fill="rgb(76, 160, 66)" stroke="white" stroke-width="1" opacity="1"/><path transform="translate(67.12143976602925,76.76857845516706)" d="M5,0A5,5,0,1,1,-5,0A5,5,0,1,1,5,0" fill="rgb(0, 112, 77)" stroke="white" stroke-width="1" opacity="1"/><path transform="translate(22.609288055806452,4.895222636276941)" d="M5,0A5,5,0,1,1,-5,0A5,5,0,1,1,5,0" fill="rgb(255, 250, 138)" stroke="white" stroke-width="1" opacity="1"/><path transform="translate(83.13537968247692,92.93021406763431)" d="M5,0A5,5,0,1,1,-5,0A5,5,0,1,1,5,0" fill="rgb(45, 73, 65)" stroke="white" stroke-width="1" opacity="1"/><path transform="translate(27.553406987926532,41.61436134435061)" d="M5,0A5,5,0,1,1,-5,0A5,5,0,1,1,5,0" fill="rgb(133, 185, 63)" stroke="white" stroke-width="1" opacity="1"/><path transform="translate(37.74200431066045,39.461673141386065)" d="M5,0A5,5,0,1,1,-5,0A5,5,0,1,1,5,0" fill="rgb(143, 189, 62)" stroke="white" stroke-width="1" opacity="1"/><path transform="translate(64.53747324705192,94.38275250773556)" d="M5,0A5,5,0,1,1,-5,0A5,5,0,1,1,5,0" fill="rgb(49, 69, 63)" stroke="white" stroke-width="1" opacity="1"/><path transform="translate(97.99680536879578,14.892651911224375)" d="M5,0A5,5,0,1,1,-5,0A5,5,0,1,1,5,0" fill="rgb(247, 231, 46)" stroke="white" stroke-width="1" opacity="1"/><path transform="translate(20.612980137640903,84.02385348329317)" d="M5,0A5,5,0,1,1,-5,0A5,5,0,1,1,5,0" fill="rgb(22, 95, 74)" stroke="white" stroke-width="1" opacity="1"/><path transform="translate(89.19028561302338,15.584168578865032)" d="M5,0A5,5,0,1,1,-5,0A5,5,0,1,1,5,0" fill="rgb(244, 230, 47)" stroke="white" stroke-width="1" opacity="1"/><path transform="translate(38.08096975593628,70.14915902116581)" d="M5,0A5,5,0,1,1,-5,0A5,5,0,1,1,5,0" fill="rgb(3, 128, 70)" stroke="white" stroke-width="1" opacity="1"/><path transform="translate(65.36243537852978,84.90118856970345)" d="M5,0A5,5,0,1,1,-5,0A5,5,0,1,1,5,0" fill="rgb(24, 93, 73)" stroke="white" stroke-width="1" opacity="1"/><path transform="translate(3.2125374250856265,39.742555884691875)" d="M5,0A5,5,0,1,1,-5,0A5,5,0,1,1,5,0" fill="rgb(141, 188, 63)" stroke="white" stroke-width="1" opacity="1"/><path transform="translate(46.97038914929548,41.75408719061632)" d="M5,0A5,5,0,1,1,-5,0A5,5,0,1,1,5,0" fill="rgb(132, 185, 63)" stroke="white" stroke-width="1" opacity="1"/><path transform="translate(59.855893127262846,36.25127728810843)" d="M5,0A5,5,0,1,1,-5,0A5,5,0,1,1,5,0" fill="rgb(157, 195, 62)" stroke="white" stroke-width="1" opacity="1"/><path transform="translate(85.15950310233514,30.552619983064776)" d="M5,0A5,5,0,1,1,-5,0A5,5,0,1,1,5,0" fill="rgb(181, 204, 59)" stroke="white" stroke-width="1" opacity="1"/><path transform="translate(16.5839402022405,9.709422802420665)" d="M5,0A5,5,0,1,1,-5,0A5,5,0,1,1,5,0" fill="rgb(255, 241, 82)" stroke="white" stroke-width="1" opacity="1"/><path transform="translate(3.81977343901585,55.58073549910105)" d="M5,0A5,5,0,1,1,-5,0A5,5,0,1,1,5,0" fill="rgb(72, 158, 66)" stroke="white" stroke-width="1" opacity="1"/><path transform="translate(66.03379968285775,86.76305723673691)" d="M5,0A5,5,0,1,1,-5,0A5,5,0,1,1,5,0" fill="rgb(30, 89, 72)" stroke="white" stroke-width="1" opacity="1"/><path transform="translate(62.303226852550694,61.05514926779825)" d="M5,0A5,5,0,1,1,-5,0A5,5,0,1,1,5,0" fill="rgb(38, 147, 66)" stroke="white" stroke-width="1" opacity="1"/><path transform="translate(51.49810435189397,14.263662908260876)" d="M5,0A5,5,0,1,1,-5,0A5,5,0,1,1,5,0" fill="rgb(249, 233, 45)" stroke="white" stroke-width="1" opacity="1"/><path transform="translate(71.88090353889353,98.43046656506962)" d="M5,0A5,5,0,1,1,-5,0A5,5,0,1,1,5,0" fill="rgb(58, 58, 58)" stroke="white" stroke-width="1" opacity="1"/><path transform="translate(59.054620351316224,3.466665499389676)" d="M5,0A5,5,0,1,1,-5,0A5,5,0,1,1,5,0" fill="rgb(255, 253, 155)" stroke="white" stroke-width="1" opacity="1"/><path transform="translate(49.894899376352896,36.46345567019166)" d="M5,0A5,5,0,1,1,-5,0A5,5,0,1,1,5,0" fill="rgb(156, 194, 62)" stroke="white" stroke-width="1" opacity="1"/><path transform="translate(80.37765298665171,34.47357292416564)" d="M5,0A5,5,0,1,1,-5,0A5,5,0,1,1,5,0" fill="rgb(165, 198, 61)" stroke="white" stroke-width="1" opacity="1"/><path transform="translate(63.959131849880066,67.37834286410221)" d="M5,0A5,5,0,1,1,-5,0A5,5,0,1,1,5,0" fill="rgb(4, 135, 67)" stroke="white" stroke-width="1" opacity="1"/></g></g><path class="foreground" aria-hidden="true" d="" display="none"/></g></g><g class="mark-group role-legend" role="graphics-symbol" aria-roledescription="legend" aria-label="Gradient legend titled 'y' for fill color with values from 0.0 to 1.0"><g transform="translate(124,0)"><path class="background" aria-hidden="true" d="M0,0h27v96h-27Z" pointer-events="none"/><g><g class="mark-group role-legend-entry"><g transform="translate(0,16)"><path class="background" aria-hidden="true" d="M0,0h0v0h0Z" pointer-events="none"/><g><g class="mark-rect role-legend-gradient" pointer-events="none"><path d="M0,0h10v80h-10Z" fill="url(#gradient_0)" stroke="#ddd" stroke-width="0" opacity="1"/></g><g class="mark-text role-legend-label" pointer-events="none"><text text-anchor="start" transform="translate(12,78)" font-family="sans-serif" font-size="10px" font-style="normal" font-weight="400" fill="#000" opacity="1">0.0</text><text text-anchor="start" transform="translate(12,8)" font-family="sans-serif" font-size="10px" font-style="normal" font-weight="400" fill="#000" opacity="1">1.0</text></g></g><path class="foreground" aria-hidden="true" d="" pointer-events="none" display="none"/></g></g><g class="mark-text role-legend-title" pointer-events="none"><text text-anchor="start" transform="translate(0,9)" font-family="sans-serif" font-size="11px" font-style="normal" font-weight="400" fill="#000" opacity="1">y</text></g></g><path class="foreground" aria-hidden="true" d="" pointer-events="none" display="none"/></g></g></g><path class="foreground" aria-hidden="true" d="" display="none"/></g></g></g><defs><linearGradient id="gradient_0" x1="0" x2="0" y1="1" y2="0"><stop offset="0" stop-color="rgb(58, 58, 58)"/><stop offset="0.03565266391867018" stop-color="rgb(50, 67, 62)"/><stop offset="0.08761740871708892" stop-color="rgb(38, 81, 69)"/><stop offset="0.13958215351550765" stop-color="rgb(25, 93, 73)"/><stop offset="0.19154689831392643" stop-color="rgb(9, 104, 76)"/><stop offset="0.24351164311234516" stop-color="rgb(1, 116, 75)"/><stop offset="0.2954763879107639" stop-color="rgb(3, 128, 70)"/><stop offset="0.34744113270918264" stop-color="rgb(13, 140, 66)"/><stop offset="0.3994058775076014" stop-color="rgb(44, 149, 66)"/><stop offset="0.45137062230602015" stop-color="rgb(75, 159, 66)"/><stop offset="0.5033353671044389" stop-color="rgb(96, 169, 65)"/><stop offset="0.5553001119028577" stop-color="rgb(118, 179, 64)"/><stop offset="0.6072648567012764" stop-color="rgb(140, 188, 63)"/><stop offset="0.6592296014996951" stop-color="rgb(163, 197, 61)"/><stop offset="0.7111943462981138" stop-color="rgb(184, 205, 58)"/><stop offset="0.7631590910965326" stop-color="rgb(204, 214, 55)"/><stop offset="0.8151238358949514" stop-color="rgb(225, 222, 51)"/><stop offset="0.86708858069337" stop-color="rgb(246, 231, 46)"/><stop offset="0.9190533254917889" stop-color="rgb(255, 240, 78)"/><stop offset="0.9710180702902076" stop-color="rgb(255, 250, 137)"/><stop offset="1" stop-color="rgb(255, 255, 170)"/></linearGradient></defs></svg>