<svg xmlns="http://www.w3.org/2000/svg" xmlns:xlink="http://www.w3.org/1999/xlink" version="1.1" class="marks" width="123" height="117" viewBox="0 0 123 117"><rect width="123" height="117" fill="white"/><g fill="none" stroke-miterlimit="10" transform="translate(22,0)"><g class="mark-group role-frame root" role="graphics-object" aria-roledescription="group mark container"><g transform="translate(0,0)"><path class="background" aria-hidden="true" d="M0,0h100v100h-100Z"/><g><g class="mark-group role-axis" role="graphics-symbol" aria-roledescription="axis" aria-label="X-axis for a discrete scale with 1 value: variable(s)"><g transform="translate(0.5,100.5)"><path class="background" aria-hidden="true" d="M0,0h0v0h0Z" pointer-events="none"/><g><g class="mark-rule role-axis-tick" pointer-events="none"><line transform="translate(50,0)" x2="0" y2="5" stroke="white" stroke-width="1.01" opacity="1"/></g><g class="mark-text role-axis-label" pointer-events="none"><text text-anchor="middle" transform="translate(49.5,15)" font-family="sans-serif" font-size="10px" font-style="normal" font-weight="400" fill="black" opacity="1">variable(s)</text></g></g><path class="foreground" aria-hidden="true" d="" pointer-events="none" display="none"/></g></g><g class="mark-group role-axis" role="graphics-symbol" aria-roledescription="axis" aria-label="Y-axis for a linear scale with values from −4 to 3"><g transform="translate(0.5,0.5)"><path class="background" aria-hidden="true" d="M0,0h0v0h0Z" pointer-events="none"/><g><g class="mark-rule role-axis-tick" pointer-events="none"><line transform="translate(0,77)" x2="-5" y2="0" stroke="white" stroke-width="1.01" opacity="1"/><line transform="translate(0,46)" x2="-5" y2="0" stroke="white" stroke-width="1.01" opacity="1"/><line transform="translate(0,15)" x2="-5" y2="0" stroke="white" stroke-width="1.01" opacity="1"/></g><g class="mark-text role-axis-label" pointer-events="none"><text text-anchor="end" transform="translate(-7,79.92307692307692)" font-family="sans-serif" font-size="10px" font-style="normal" font-weight="400" fill="white" opacity="1">−2</text><text text-anchor="end" transform="translate(-7,49.15384615384615)" font-family="sans-serif" font-size="10px" font-style="normal" font-weight="400" fill="white" opacity="1">0</text><text text-anchor="end" transform="translate(-7,18.384615384615387)" font-family="sans-serif" font-size="10px" font-style="normal" font-weight="400" fill="white" opacity="1">2</text></g></g><path class="foreground" aria-hidden="true" d="" pointer-events="none" display="none"/></g></g><g class="mark-group role-scope" role="graphics-object" aria-roledescription="group mark container"><g transform="translate(0,0)"><path class="background" aria-hidden="true" d="M0,0h0v0h0Z"/><g><g class="mark-rect role-mark" role="graphics-symbol" aria-roledescription="rect mark container"><path d="M0,34.437135994754975h24.050632911392405v23.249567351626666h-24.050632911392405Z" fill="#4c78a8" stroke="white" stroke-width="1" opacity="1"/><path d="M25.31645569620253,34.716336100456836h24.050632911392405v25.17612277944248h-24.050632911392405Z" fill="#f58518" stroke="white" stroke-width="1" opacity="1"/><path d="M50.63291139240506,38.04204853111997h24.050632911392405v18.902713546248506h-24.050632911392405Z" fill="#e45756" stroke="white" stroke-width="1" opacity="1"/><path d="M75.9493670886076,35.98927072428793h24.050632911392405v18.37648350127285h-24.050632911392405Z" fill="#72b7b2" stroke="white" stroke-width="1" opacity="1"/></g><g class="mark-rule role-mark" role="graphics-symbol" aria-roledescription="rule mark container"><line transform="translate(0,47.640967178308635)" x2="24.050632911392405" y2="0" fill="#4c78a8" stroke="white" stroke-width="1" opacity="1"/><line transform="translate(25.31645569620253,47.85519048602297)" x2="24.050632911392405" y2="0" fill="#f58518" stroke="white" stroke-width="1" opacity="1"/><line transform="translate(50.63291139240506,48.943583852382325)" x2="24.050632911392412" y2="0" fill="#e45756" stroke="white" stroke-width="1" opacity="1"/><line transform="translate(75.9493670886076,48.462460193313106)" x2="24.0506329113924" y2="0" fill="#72b7b2" stroke="white" stroke-width="1" opacity="1"/></g><g class="mark-symbol role-mark" role="graphics-symbol" aria-roledescription="symbol mark container"><path transform="translate(12.025316455696203,47.211747441524956)" d="M-3.162,0L0,-3.162L3.162,0L0,3.162Z" fill="#4c78a8" stroke="white" stroke-width="1" opacity="1"/><path transform="translate(37.34177215189874,47.29525767288627)" d="M-3.162,0L0,-3.162L3.162,0L0,3.162Z" fill="#f58518" stroke="white" stroke-width="1" opacity="1"/><path transform="translate(62.65822784810126,47.34371658843689)" d="M-3.162,0L0,-3.162L3.162,0L0,3.162Z" fill="#e45756" stroke="white" stroke-width="1" opacity="1"/><path transform="translate(87.9746835443038,46.730382742820694)" d="M-3.162,0L0,-3.162L3.162,0L0,3.162Z" fill="#72b7b2" stroke="white" stroke-width="1" opacity="1"/></g><g class="mark-rule role-mark" role="graphics-symbol" aria-roledescription="rule mark container"><line transform="translate(12.025316455696203,57.68670334638164)" x2="0" y2="26.573170789089538" fill="#4c78a8" stroke="black" stroke-width="1" stroke-dasharray="0" opacity="1"/><line transform="translate(37.34177215189874,59.892458879899316)" x2="0" y2="31.221688482472693" fill="#f58518" stroke="black" stroke-width="1" stroke-dasharray="0" opacity="1"/><line transform="translate(62.65822784810126,56.94476207736847)" x2="0" y2="25.031870431027507" fill="#e45756" stroke="black" stroke-width="1" stroke-dasharray="0" opacity="1"/><line transform="translate(87.9746835443038,54.36575422556078)" x2="0" y2="27.56472525190928" fill="#72b7b2" stroke="black" stroke-width="1" stroke-dasharray="0" opacity="1"/></g><g class="mark-rule role-mark" role="graphics-symbol" aria-roledescription="rule mark container"><line transform="translate(12.025316455696203,34.437135994754975)" x2="0" y2="-16.122325560985274" fill="#4c78a8" stroke="black" stroke-width="1" stroke-dasharray="0" opacity="1"/><line transform="translate(37.34177215189874,34.716336100456836)" x2="0" y2="-21.694987669012534" fill="#f58518" stroke="black" stroke-width="1" stroke-dasharray="0" opacity="1"/><line transform="translate(62.65822784810126,38.04204853111997)" x2="0" y2="-23.74630385521618" fill="#e45756" stroke="black" stroke-width="1" stroke-dasharray="0" opacity="1"/><line transform="translate(87.9746835443038,35.98927072428793)" x2="0" y2="-27.564725251909273" fill="#72b7b2" stroke="black" stroke-width="1" stroke-dasharray="0" opacity="1"/></g><g class="mark-rule role-mark lower_fence" role="graphics-symbol" aria-roledescription="rule mark container"><line transform="translate(6.012658227848101,84.25987413547118)" x2="12.025316455696204" y2="0" fill="#4c78a8" stroke="black" stroke-width="1" opacity="1"/><line transform="translate(31.32911392405063,91.11414736237201)" x2="12.025316455696206" y2="0" fill="#f58518" stroke="black" stroke-width="1" opacity="1"/><line transform="translate(56.64556962025316,81.97663250839598)" x2="12.025316455696206" y2="0" fill="#e45756" stroke="black" stroke-width="1" opacity="1"/><line transform="translate(81.96202531645571,81.93047947747006)" x2="12.0253164556962" y2="0" fill="#72b7b2" stroke="black" stroke-width="1" opacity="1"/></g><g class="mark-rule role-mark upper_fence" role="graphics-symbol" aria-roledescription="rule mark container"><line transform="translate(6.012658227848101,18.3148104337697)" x2="12.025316455696204" y2="0" fill="#4c78a8" stroke="black" stroke-width="1" opacity="1"/><line transform="translate(31.32911392405063,13.021348431444302)" x2="12.025316455696206" y2="0" fill="#f58518" stroke="black" stroke-width="1" opacity="1"/><line transform="translate(56.64556962025316,14.295744675903787)" x2="12.025316455696206" y2="0" fill="#e45756" stroke="black" stroke-width="1" opacity="1"/><line transform="translate(81.96202531645571,8.424545472378654)" x2="12.0253164556962" y2="0" fill="#72b7b2" stroke="black" stroke-width="1" opacity="1"/></g></g><path class="foreground" aria-hidden="true" d="" display="none"/></g></g><g class="mark-group role-scope" role="graphics-object" aria-roledescription="group mark container"><g transform="translate(0,0)"><path class="background" aria-hidden="true" d="M0,0h0v0h0Z"/><g><g class="mark-symbol role-mark" role="graphics-symbol" aria-roledescription="symbol mark container"><path transform="translate(87.9746835443038,5.791571375687276)" d="M2.739,0A2.739,2.739,0,1,1,-2.739,0A2.739,2.739,0,1,1,2.739,0" fill="#72b7b2" stroke="white" stroke-width="1" opacity="1"/><path transform="translate(87.9746835443038,95.31282491003913)" d="M2.739,0A2.739,2.739,0,1,1,-2.739,0A2.739,2.739,0,1,1,2.739,0" fill="#72b7b2" stroke="white" stroke-width="1" opacity="1"/><path transform="translate(87.9746835443038,5.64357675346705)" d="M2.739,0A2.739,2.739,0,1,1,-2.739,0A2.739,2.739,0,1,1,2.739,0" fill="#72b7b2" stroke="white" stroke-width="1" opacity="1"/></g></g><path class="foreground" aria-hidden="true" d="" display="none"/></g></g></g><path class="foreground" aria-hidden="true" d="" display="none"/></g></g></g></svg>