<svg xmlns="http://www.w3.org/2000/svg" xmlns:xlink="http://www.w3.org/1999/xlink" version="1.1" class="marks" width="122" height="118" viewBox="0 0 122 118"><rect width="122" height="118" fill="white"/><g fill="none" stroke-miterlimit="10" transform="translate(21,1)"><g class="mark-group role-frame root" role="graphics-object" aria-roledescription="group mark container"><g transform="translate(0,0)"><path class="background" aria-hidden="true" d="M0,0h100v100h-100Z"/><g><g class="mark-group role-axis" role="graphics-symbol" aria-roledescription="axis" aria-label="X-axis for a discrete scale with 1 value: variable(s)"><g transform="translate(0.5,100.5)"><path class="background" aria-hidden="true" d="M0,0h0v0h0Z" pointer-events="none"/><g><g class="mark-rule role-axis-tick" pointer-events="none"><line transform="translate(50,0)" x2="0" y2="5" stroke="white" stroke-width="1.01" opacity="1"/></g><g class="mark-text role-axis-label" pointer-events="none"><text text-anchor="middle" transform="translate(49.5,15)" font-family="sans-serif" font-size="10px" font-style="normal" font-weight="400" fill="black" opacity="1">variable(s)</text></g></g><path class="foreground" aria-hidden="true" d="" pointer-events="none" display="none"/></g></g><g class="mark-group role-axis" role="graphics-symbol" aria-roledescription="axis" aria-label="Y-axis for a linear scale with values from −4 to 4"><g transform="translate(0.5,0.5)"><path class="background" aria-hidden="true" d="M0,0h0v0h0Z" pointer-events="none"/><g><g class="mark-rule role-axis-tick" pointer-events="none"><line transform="translate(0,79)" x2="-5" y2="0" stroke="white" stroke-width="1.01" opacity="1"/><line transform="translate(0,50)" x2="-5" y2="0" stroke="white" stroke-width="1.01" opacity="1"/><line transform="translate(0,21)" x2="-5" y2="0" stroke="white" stroke-width="1.01" opacity="1"/></g><g class="mark-text role-axis-label" pointer-events="none"><text text-anchor="end" transform="translate(-7,81.57142857142857)" font-family="sans-serif" font-size="10px" font-style="normal" font-weight="400" fill="white" opacity="1">−2</text><text text-anchor="end" transform="translate(-7,53)" font-family="sans-serif" font-size="10px" font-style="normal" font-weight="400" fill="white" opacity="1">0</text><text text-anchor="end" transform="translate(-7,24.42857142857143)" font-family="sans-serif" font-size="10px" font-style="normal" font-weight="400" fill="white" opacity="1">2</text></g></g><path class="foreground" aria-hidden="true" d="" pointer-events="none" display="none"/></g></g><g class="mark-group role-scope" role="graphics-object" aria-roledescription="group mark container"><g transform="translate(0,0)"><path class="background" aria-hidden="true" d="M0,0h0v0h0Z"/><g><g class="mark-rect role-mark" role="graphics-symbol" aria-roledescription="rect mark container"><path d="M0,40.09289224993877h24.050632911392405v17.1127867839367h-24.050632911392405Z" fill="#4c78a8" stroke="white" stroke-width="1" opacity="1"/><path d="M25.31645569620253,40.17942618607784h24.050632911392405v21.33720503016616h-24.050632911392405Z" fill="#f58518" stroke="white" stroke-width="1" opacity="1"/><path d="M50.63291139240506,39.522352760362445h24.050632911392405v20.092326434085095h-24.050632911392405Z" fill="#e45756" stroke="white" stroke-width="1" opacity="1"/><path d="M75.9493670886076,38.17586145230967h24.050632911392405v22.621285131243475h-24.050632911392405Z" fill="#72b7b2" stroke="white" stroke-width="1" opacity="1"/></g><g class="mark-rule role-mark" role="graphics-symbol" aria-roledescription="rule mark container"><line transform="translate(0,50.20657087652258)" x2="24.050632911392405" y2="0" fill="#4c78a8" stroke="white" stroke-width="1" opacity="1"/><line transform="translate(25.31645569620253,51.47539403037092)" x2="24.050632911392405" y2="0" fill="#f58518" stroke="white" stroke-width="1" opacity="1"/><line transform="translate(50.63291139240506,49.2272864084735)" x2="24.050632911392412" y2="0" fill="#e45756" stroke="white" stroke-width="1" opacity="1"/><line transform="translate(75.9493670886076,50.101407591809945)" x2="24.0506329113924" y2="0" fill="#72b7b2" stroke="white" stroke-width="1" opacity="1"/></g><g class="mark-symbol role-mark" role="graphics-symbol" aria-roledescription="symbol mark container"><path transform="translate(12.025316455696203,49.14193093243146)" d="M-3.1622776601683795,0L0,-3.1622776601683795L3.1622776601683795,0L0,3.1622776601683795Z" fill="#4c78a8" stroke="white" stroke-width="1" opacity="1"/><path transform="translate(37.34177215189874,51.04373158391624)" d="M-3.1622776601683795,0L0,-3.1622776601683795L3.1622776601683795,0L0,3.1622776601683795Z" fill="#f58518" stroke="white" stroke-width="1" opacity="1"/><path transform="translate(62.65822784810126,49.606570804561024)" d="M-3.1622776601683795,0L0,-3.1622776601683795L3.1622776601683795,0L0,3.1622776601683795Z" fill="#e45756" stroke="white" stroke-width="1" opacity="1"/><path transform="translate(87.9746835443038,49.364841797088374)" d="M-3.1622776601683795,0L0,-3.1622776601683795L3.1622776601683795,0L0,3.1622776601683795Z" fill="#72b7b2" stroke="white" stroke-width="1" opacity="1"/></g><g class="mark-rule role-mark" role="graphics-symbol" aria-roledescription="rule mark container"><line transform="translate(12.025316455696203,57.20567903387547)" x2="0" y2="25.406085130985915" fill="#4c78a8" stroke="black" stroke-width="1" stroke-dasharray="0" opacity="1"/><line transform="translate(37.34177215189874,61.516631216244)" x2="0" y2="32.00580754524923" fill="#f58518" stroke="black" stroke-width="1" stroke-dasharray="0" opacity="1"/><line transform="translate(62.65822784810126,59.61467919444754)" x2="0" y2="26.272352348331445" fill="#e45756" stroke="black" stroke-width="1" stroke-dasharray="0" opacity="1"/><line transform="translate(87.9746835443038,60.79714658355314)" x2="0" y2="21.77794869153952" fill="#72b7b2" stroke="black" stroke-width="1" stroke-dasharray="0" opacity="1"/></g><g class="mark-rule role-mark" role="graphics-symbol" aria-roledescription="rule mark container"><line transform="translate(12.025316455696203,40.09289224993877)" x2="0" y2="-25.669180175905037" fill="#4c78a8" stroke="black" stroke-width="1" stroke-dasharray="0" opacity="1"/><line transform="translate(37.34177215189874,40.17942618607784)" x2="0" y2="-20.061395772854" fill="#f58518" stroke="black" stroke-width="1" stroke-dasharray="0" opacity="1"/><line transform="translate(62.65822784810126,39.522352760362445)" x2="0" y2="-21.827064709420775" fill="#e45756" stroke="black" stroke-width="1" stroke-dasharray="0" opacity="1"/><line transform="translate(87.9746835443038,38.17586145230967)" x2="0" y2="-23.004315045975332" fill="#72b7b2" stroke="black" stroke-width="1" stroke-dasharray="0" opacity="1"/></g><g class="mark-rule role-mark lower_fence" role="graphics-symbol" aria-roledescription="rule mark container"><line transform="translate(6.012658227848101,82.61176416486138)" x2="12.025316455696204" y2="0" fill="#4c78a8" stroke="black" stroke-width="1" opacity="1"/><line transform="translate(31.32911392405063,93.52243876149323)" x2="12.025316455696206" y2="0" fill="#f58518" stroke="black" stroke-width="1" opacity="1"/><line transform="translate(56.64556962025316,85.88703154277898)" x2="12.025316455696206" y2="0" fill="#e45756" stroke="black" stroke-width="1" opacity="1"/><line transform="translate(81.96202531645571,82.57509527509266)" x2="12.0253164556962" y2="0" fill="#72b7b2" stroke="black" stroke-width="1" opacity="1"/></g><g class="mark-rule role-mark upper_fence" role="graphics-symbol" aria-roledescription="rule mark container"><line transform="translate(6.012658227848101,14.423712074033734)" x2="12.025316455696204" y2="0" fill="#4c78a8" stroke="black" stroke-width="1" opacity="1"/><line transform="translate(31.32911392405063,20.118030413223842)" x2="12.025316455696206" y2="0" fill="#f58518" stroke="black" stroke-width="1" opacity="1"/><line transform="translate(56.64556962025316,17.69528805094167)" x2="12.025316455696206" y2="0" fill="#e45756" stroke="black" stroke-width="1" opacity="1"/><line transform="translate(81.96202531645571,15.171546406334336)" x2="12.0253164556962" y2="0" fill="#72b7b2" stroke="black" stroke-width="1" opacity="1"/></g></g><path class="foreground" aria-hidden="true" d="" display="none"/></g></g><g class="mark-group role-scope" role="graphics-object" aria-roledescription="group mark container"><g transform="translate(0,0)"><path class="background" aria-hidden="true" d="M0,0h0v0h0Z"/><g><g class="mark-symbol role-mark" role="graphics-symbol" aria-roledescription="symbol mark container"><path transform="translate(12.025316455696203,3.6385990048408146)" d="M2.7386127875258306,0A2.7386127875258306,2.7386127875258306,0,1,1,-2.7386127875258306,0A2.7386127875258306,2.7386127875258306,0,1,1,2.7386127875258306,0" fill="#4c78a8" stroke="white" stroke-width="1" opacity="1"/><path transform="translate(37.34177215189874,95.54128556780907)" d="M2.7386127875258306,0A2.7386127875258306,2.7386127875258306,0,1,1,-2.7386127875258306,0A2.7386127875258306,2.7386127875258306,0,1,1,2.7386127875258306,0" fill="#f58518" stroke="white" stroke-width="1" opacity="1"/></g></g><path class="foreground" aria-hidden="true" d="" display="none"/></g></g></g><path class="foreground" aria-hidden="true" d="" display="none"/></g></g></g></svg>