<svg xmlns="http://www.w3.org/2000/svg" xmlns:xlink="http://www.w3.org/1999/xlink" version="1.1" class="marks" width="187" height="138" viewBox="0 0 187 138"><rect width="187" height="138" fill="white"/><g fill="none" stroke-miterlimit="10" transform="translate(37,6)"><g class="mark-group role-frame root" role="graphics-object" aria-roledescription="group mark container"><g transform="translate(0,0)"><path class="background" aria-hidden="true" d="M0,0h100v100h-100Z" fill="lightgray"/><g><g class="mark-group role-axis" role="graphics-symbol" aria-roledescription="axis" aria-label="X-axis titled 'x' for a linear scale with values from 0.0 to 1.0"><g transform="translate(0.5,100.5)"><path class="background" aria-hidden="true" d="M0,0h0v0h0Z" pointer-events="none"/><g><g class="mark-rule role-axis-grid" pointer-events="none"><line transform="translate(0,0)" x2="0" y2="-100" stroke="white" stroke-width="0.5" stroke-dasharray="0" opacity="1"/><line transform="translate(50,0)" x2="0" y2="-100" stroke="white" stroke-width="0.5" stroke-dasharray="0" opacity="1"/><line transform="translate(100,0)" x2="0" y2="-100" stroke="white" stroke-width="0.5" stroke-dasharray="0" opacity="1"/></g><g class="mark-rule role-axis-tick" pointer-events="none"><line transform="translate(0,0)" x2="0" y2="5" stroke="black" stroke-width="1.01" opacity="1"/><line transform="translate(50,0)" x2="0" y2="5" stroke="black" stroke-width="1.01" opacity="1"/><line transform="translate(100,0)" x2="0" y2="5" stroke="black" stroke-width="1.01" opacity="1"/></g><g class="mark-text role-axis-label" pointer-events="none"><text text-anchor="middle" transform="translate(0,15)" font-family="sans-serif" font-size="10px" font-style="normal" font-weight="400" fill="black" opacity="1">0.0</text><text text-anchor="middle" transform="translate(50,15)" font-family="sans-serif" font-size="10px" font-style="normal" font-weight="400" fill="black" opacity="1">0.5</text><text text-anchor="middle" transform="translate(100,15)" font-family="sans-serif" font-size="10px" font-style="normal" font-weight="400" fill="black" opacity="1">1.0</text></g><g class="mark-rule role-axis-domain" pointer-events="none"><line transform="translate(0,0)" x2="100" y2="0" stroke="black" stroke-width="1.01" opacity="1"/></g><g class="mark-text role-axis-title" pointer-events="none"><text text-anchor="middle" transform="translate(50,30)" font-family="sans-serif" font-size="11px" font-style="normal" font-weight="400" fill="black" opacity="1">x</text></g></g><path class="foreground" aria-hidden="true" d="" pointer-events="none" display="none"/></g></g><g class="mark-group role-axis" role="graphics-symbol" aria-roledescription="axis" aria-label="Y-axis titled 'y' for a linear scale with values from 0.0 to 1.0"><g transform="translate(0.5,0.5)"><path class="background" aria-hidden="true" d="M0,0h0v0h0Z" pointer-events="none"/><g><g class="mark-rule role-axis-grid" pointer-events="none"><line transform="translate(0,100)" x2="100" y2="0" stroke="white" stroke-width="0.5" stroke-dasharray="0" opacity="1"/><line transform="translate(0,50)" x2="100" y2="0" stroke="white" stroke-width="0.5" stroke-dasharray="0" opacity="1"/><line transform="translate(0,0)" x2="100" y2="0" stroke="white" stroke-width="0.5" stroke-dasharray="0" opacity="1"/></g><g class="mark-rule role-axis-tick" pointer-events="none"><line transform="translate(0,100)" x2="-5" y2="0" stroke="black" stroke-width="1.01" opacity="1"/><line transform="translate(0,50)" x2="-5" y2="0" stroke="black" stroke-width="1.01" opacity="1"/><line transform="translate(0,0)" x2="-5" y2="0" stroke="black" stroke-width="1.01" opacity="1"/></g><g class="mark-text role-axis-label" pointer-events="none"><text text-anchor="end" transform="translate(-7,103)" font-family="sans-serif" font-size="10px" font-style="normal" font-weight="400" fill="black" opacity="1">0.0</text><text text-anchor="end" transform="translate(-7,53)" font-family="sans-serif" font-size="10px" font-style="normal" font-weight="400" fill="black" opacity="1">0.5</text><text text-anchor="end" transform="translate(-7,3)" font-family="sans-serif" font-size="10px" font-style="normal" font-weight="400" fill="black" opacity="1">1.0</text></g><g class="mark-rule role-axis-domain" pointer-events="none"><line transform="translate(0,100)" x2="0" y2="-100" stroke="black" stroke-width="1.01" opacity="1"/></g><g class="mark-text role-axis-title" pointer-events="none"><text text-anchor="middle" transform="translate(-26,50) rotate(-90) translate(0,-2)" font-family="sans-serif" font-size="11px" font-style="normal" font-weight="400" fill="black" opacity="1">y</text></g></g><path class="foreground" aria-hidden="true" d="" pointer-events="none" display="none"/></g></g><g class="mark-group role-scope" role="graphics-object" aria-roledescription="group mark container"><g transform="translate(0,0)"><path class="background" aria-hidden="true" d="M0,0h0v0h0Z"/><g><g class="mark-symbol role-mark points" role="graphics-symbol" aria-roledescription="symbol mark container"><path transform="translate(35.83829808403224,62.54445588394524)" d="M5,0A5,5,0,1,1,-5,0A5,5,0,1,1,5,0" fill="rgb(29, 145, 66)" stroke="white" stroke-width="1" opacity="1"/><path transform="translate(52.290702747997976,48.80355682555607)" d="M5,0A5,5,0,1,1,-5,0A5,5,0,1,1,5,0" fill="rgb(101, 171, 65)" stroke="white" stroke-width="1" opacity="1"/><path transform="translate(63.44983920724086,38.28889883484435)" d="M5,0A5,5,0,1,1,-5,0A5,5,0,1,1,5,0" fill="rgb(146, 190, 62)" stroke="white" stroke-width="1" opacity="1"/><path transform="translate(62.59111337402348,88.627095233941)" d="M5,0A5,5,0,1,1,-5,0A5,5,0,1,1,5,0" fill="rgb(33, 87, 72)" stroke="white" stroke-width="1" opacity="1"/><path transform="translate(37.92948464505015,89.66334500992345)" d="M5,0A5,5,0,1,1,-5,0A5,5,0,1,1,5,0" fill="rgb(35, 84, 71)" stroke="white" stroke-width="1" opacity="1"/><path transform="translate(8.710871809824416,37.08781515142927)" d="M5,0A5,5,0,1,1,-5,0A5,5,0,1,1,5,0" fill="rgb(151, 192, 62)" stroke="white" stroke-width="1" opacity="1"/><path transform="translate(69.50035544910595,99.37891858302564)" d="M5,0A5,5,0,1,1,-5,0A5,5,0,1,1,5,0" fill="rgb(58, 59, 58)" stroke="white" stroke-width="1" opacity="1"/><path transform="translate(38.55514018708306,99.42520204369416)" d="M5,0A5,5,0,1,1,-5,0A5,5,0,1,1,5,0" fill="rgb(58, 58, 58)" stroke="white" stroke-width="1" opacity="1"/><path transform="translate(50.7913472572854,98.36679134807122)" d="M5,0A5,5,0,1,1,-5,0A5,5,0,1,1,5,0" fill="rgb(55, 61, 60)" stroke="white" stroke-width="1" opacity="1"/><path transform="translate(63.63535054632634,43.96485612401334)" d="M5,0A5,5,0,1,1,-5,0A5,5,0,1,1,5,0" fill="rgb(121, 180, 64)" stroke="white" stroke-width="1" opacity="1"/><path transform="translate(81.33443143933361,86.33711331615368)" d="M5,0A5,5,0,1,1,-5,0A5,5,0,1,1,5,0" fill="rgb(26, 92, 73)" stroke="white" stroke-width="1" opacity="1"/><path transform="translate(51.8263689817589,17.446587858053352)" d="M5,0A5,5,0,1,1,-5,0A5,5,0,1,1,5,0" fill="rgb(231, 225, 49)" stroke="white" stroke-width="1" opacity="1"/><path transform="translate(67.94767197921556,92.47922993684489)" d="M5,0A5,5,0,1,1,-5,0A5,5,0,1,1,5,0" fill="rgb(42, 77, 67)" stroke="white" stroke-width="1" opacity="1"/><path transform="translate(46.50039174740158,51.79118557398675)" d="M5,0A5,5,0,1,1,-5,0A5,5,0,1,1,5,0" fill="rgb(88, 165, 65)" stroke="white" stroke-width="1" opacity="1"/><path transform="translate(72.48155367378035,33.98605916571279)" d="M5,0A5,5,0,1,1,-5,0A5,5,0,1,1,5,0" fill="rgb(165, 197, 61)" stroke="white" stroke-width="1" opacity="1"/><path transform="translate(54.931262553921364,5.276937709938934)" d="M5,0A5,5,0,1,1,-5,0A5,5,0,1,1,5,0" fill="rgb(255, 247, 118)" stroke="white" stroke-width="1" opacity="1"/><path transform="translate(70.98774857413596,43.83502142757697)" d="M5,0A5,5,0,1,1,-5,0A5,5,0,1,1,5,0" fill="rgb(122, 180, 64)" stroke="white" stroke-width="1" opacity="1"/><path transform="translate(50.65571040292779,12.131286237207139)" d="M5,0A5,5,0,1,1,-5,0A5,5,0,1,1,5,0" fill="rgb(253, 234, 44)" stroke="white" stroke-width="1" opacity="1"/><path transform="translate(38.84989059262445,33.27205953494138)" d="M5,0A5,5,0,1,1,-5,0A5,5,0,1,1,5,0" fill="rgb(168, 199, 61)" stroke="white" stroke-width="1" opacity="1"/><path transform="translate(53.12788552702321,91.48900223463991)" d="M5,0A5,5,0,1,1,-5,0A5,5,0,1,1,5,0" fill="rgb(40, 79, 68)" stroke="white" stroke-width="1" opacity="1"/><path transform="translate(69.58346266754359,11.86560128326658)" d="M5,0A5,5,0,1,1,-5,0A5,5,0,1,1,5,0" fill="rgb(254, 235, 44)" stroke="white" stroke-width="1" opacity="1"/><path transform="translate(76.60440713687791,58.643393933997345)" d="M5,0A5,5,0,1,1,-5,0A5,5,0,1,1,5,0" fill="rgb(53, 152, 66)" stroke="white" stroke-width="1" opacity="1"/><path transform="translate(60.83470391267145,90.30339802679683)" d="M5,0A5,5,0,1,1,-5,0A5,5,0,1,1,5,0" fill="rgb(37, 83, 70)" stroke="white" stroke-width="1" opacity="1"/><path transform="translate(79.34946933390805,44.83035207841942)" d="M5,0A5,5,0,1,1,-5,0A5,5,0,1,1,5,0" fill="rgb(117, 179, 64)" stroke="white" stroke-width="1" opacity="1"/><path transform="translate(78.76111803572616,93.38357071236312)" d="M5,0A5,5,0,1,1,-5,0A5,5,0,1,1,5,0" fill="rgb(44, 74, 66)" stroke="white" stroke-width="1" opacity="1"/><path transform="translate(72.40149708227841,23.71533079906556)" d="M5,0A5,5,0,1,1,-5,0A5,5,0,1,1,5,0" fill="rgb(206, 214, 55)" stroke="white" stroke-width="1" opacity="1"/><path transform="translate(48.407716851707136,63.21203478003598)" d="M5,0A5,5,0,1,1,-5,0A5,5,0,1,1,5,0" fill="rgb(25, 144, 66)" stroke="white" stroke-width="1" opacity="1"/><path transform="translate(19.886780296160378,43.8529772175224)" d="M5,0A5,5,0,1,1,-5,0A5,5,0,1,1,5,0" fill="rgb(122, 180, 64)" stroke="white" stroke-width="1" opacity="1"/><path transform="translate(71.8234832014813,96.987771544927)" d="M5,0A5,5,0,1,1,-5,0A5,5,0,1,1,5,0" fill="rgb(52, 65, 61)" stroke="white" stroke-width="1" opacity="1"/><path transform="translate(81.26523509009,61.69990992697395)" d="M5,0A5,5,0,1,1,-5,0A5,5,0,1,1,5,0" fill="rgb(35, 146, 66)" stroke="white" stroke-width="1" opacity="1"/><path transform="translate(59.29776624203065,82.38805603650569)" d="M5,0A5,5,0,1,1,-5,0A5,5,0,1,1,5,0" fill="rgb(14, 101, 75)" stroke="white" stroke-width="1" opacity="1"/><path transform="translate(23.779542328726166,14.626560346108054)" d="M5,0A5,5,0,1,1,-5,0A5,5,0,1,1,5,0" fill="rgb(243, 230, 47)" stroke="white" stroke-width="1" opacity="1"/><path transform="translate(18.46981501198982,39.10056693575249)" d="M5,0A5,5,0,1,1,-5,0A5,5,0,1,1,5,0" fill="rgb(142, 189, 62)" stroke="white" stroke-width="1" opacity="1"/><path transform="translate(2.4152048794822467,36.57690132050274)" d="M5,0A5,5,0,1,1,-5,0A5,5,0,1,1,5,0" fill="rgb(153, 193, 62)" stroke="white" stroke-width="1" opacity="1"/><path transform="translate(7.96302885559248,97.99368959857453)" d="M5,0A5,5,0,1,1,-5,0A5,5,0,1,1,5,0" fill="rgb(54, 62, 60)" stroke="white" stroke-width="1" opacity="1"/><path transform="translate(69.99178486113105,78.05132068552348)" d="M5,0A5,5,0,1,1,-5,0A5,5,0,1,1,5,0" fill="rgb(1, 110, 77)" stroke="white" stroke-width="1" opacity="1"/><path transform="translate(87.10789591753417,32.32397677557848)" d="M5,0A5,5,0,1,1,-5,0A5,5,0,1,1,5,0" fill="rgb(171, 200, 60)" stroke="white" stroke-width="1" opacity="1"/><path transform="translate(98.2554049292258,77.76778966641619)" d="M5,0A5,5,0,1,1,-5,0A5,5,0,1,1,5,0" fill="rgb(0, 111, 77)" stroke="white" stroke-width="1" opacity="1"/><path transform="translate(81.58554372317484,80.25243808404745)" d="M5,0A5,5,0,1,1,-5,0A5,5,0,1,1,5,0" fill="rgb(8, 105, 76)" stroke="white" stroke-width="1" opacity="1"/><path transform="translate(22.358946919097356,33.311986794353864)" d="M5,0A5,5,0,1,1,-5,0A5,5,0,1,1,5,0" fill="rgb(167, 199, 61)" stroke="white" stroke-width="1" opacity="1"/><path transform="translate(50.67407801870319,13.77978742350865)" d="M5,0A5,5,0,1,1,-5,0A5,5,0,1,1,5,0" fill="rgb(246, 231, 46)" stroke="white" stroke-width="1" opacity="1"/><path transform="translate(23.246383882950372,86.31044514056984)" d="M5,0A5,5,0,1,1,-5,0A5,5,0,1,1,5,0" fill="rgb(26, 92, 73)" stroke="white" stroke-width="1" opacity="1"/><path transform="translate(18.143276658741758,47.2646326427199)" d="M5,0A5,5,0,1,1,-5,0A5,5,0,1,1,5,0" fill="rgb(107, 174, 64)" stroke="white" stroke-width="1" opacity="1"/><path transform="translate(54.77356127561944,58.26122749015655)" d="M5,0A5,5,0,1,1,-5,0A5,5,0,1,1,5,0" fill="rgb(56, 153, 66)" stroke="white" stroke-width="1" opacity="1"/><path transform="translate(72.20523853961627,46.720342312564064)" d="M5,0A5,5,0,1,1,-5,0A5,5,0,1,1,5,0" fill="rgb(109, 175, 64)" stroke="white" stroke-width="1" opacity="1"/><path transform="translate(40.84898699559236,17.792495467942835)" d="M5,0A5,5,0,1,1,-5,0A5,5,0,1,1,5,0" fill="rgb(230, 224, 50)" stroke="white" stroke-width="1" opacity="1"/><path transform="translate(26.368574496101438,4.125232318526228)" d="M5,0A5,5,0,1,1,-5,0A5,5,0,1,1,5,0" fill="rgb(255, 249, 131)" stroke="white" stroke-width="1" opacity="1"/><path transform="translate(81.62573846397213,48.89531557746304)" d="M5,0A5,5,0,1,1,-5,0A5,5,0,1,1,5,0" fill="rgb(100, 171, 65)" stroke="white" stroke-width="1" opacity="1"/><path transform="translate(62.01832479459637,41.83109361966571)" d="M5,0A5,5,0,1,1,-5,0A5,5,0,1,1,5,0" fill="rgb(130, 184, 63)" stroke="white" stroke-width="1" opacity="1"/><path transform="translate(93.30798824439994,5.709180700471029)" d="M5,0A5,5,0,1,1,-5,0A5,5,0,1,1,5,0" fill="rgb(255, 246, 113)" stroke="white" stroke-width="1" opacity="1"/><path transform="translate(64.54279290314724,45.38766462651588)" d="M5,0A5,5,0,1,1,-5,0A5,5,0,1,1,5,0" fill="rgb(115, 178, 64)" stroke="white" stroke-width="1" opacity="1"/><path transform="translate(1.5914133664631902,15.589927740763155)" d="M5,0A5,5,0,1,1,-5,0A5,5,0,1,1,5,0" fill="rgb(239, 228, 48)" stroke="white" stroke-width="1" opacity="1"/><path transform="translate(51.14618908909071,44.05419256243556)" d="M5,0A5,5,0,1,1,-5,0A5,5,0,1,1,5,0" fill="rgb(121, 180, 64)" stroke="white" stroke-width="1" opacity="1"/><path transform="translate(64.29865382128746,9.843614129216894)" d="M5,0A5,5,0,1,1,-5,0A5,5,0,1,1,5,0" fill="rgb(255, 238, 65)" stroke="white" stroke-width="1" opacity="1"/><path transform="translate(90.86636972674901,4.176024039133786)" d="M5,0A5,5,0,1,1,-5,0A5,5,0,1,1,5,0" fill="rgb(255, 249, 130)" stroke="white" stroke-width="1" opacity="1"/><path transform="translate(82.0964471064896,90.48548745793742)" d="M5,0A5,5,0,1,1,-5,0A5,5,0,1,1,5,0" fill="rgb(37, 82, 70)" stroke="white" stroke-width="1" opacity="1"/><path transform="translate(29.223583201824045,60.89886342698594)" d="M5,0A5,5,0,1,1,-5,0A5,5,0,1,1,5,0" fill="rgb(39, 148, 66)" stroke="white" stroke-width="1" opacity="1"/><path transform="translate(33.23319624054483,64.82546156584334)" d="M5,0A5,5,0,1,1,-5,0A5,5,0,1,1,5,0" fill="rgb(15, 140, 66)" stroke="white" stroke-width="1" opacity="1"/><path transform="translate(8.655992771757104,88.2908207418737)" d="M5,0A5,5,0,1,1,-5,0A5,5,0,1,1,5,0" fill="rgb(32, 88, 72)" stroke="white" stroke-width="1" opacity="1"/><path transform="translate(19.612304305475227,50.46617168807356)" d="M5,0A5,5,0,1,1,-5,0A5,5,0,1,1,5,0" fill="rgb(94, 168, 65)" stroke="white" stroke-width="1" opacity="1"/><path transform="translate(44.67331602529973,76.16988306821398)" d="M5,0A5,5,0,1,1,-5,0A5,5,0,1,1,5,0" fill="rgb(1, 114, 76)" stroke="white" stroke-width="1" opacity="1"/><path transform="translate(22.089150692047976,65.90903005760246)" d="M5,0A5,5,0,1,1,-5,0A5,5,0,1,1,5,0" fill="rgb(8, 138, 66)" stroke="white" stroke-width="1" opacity="1"/><path transform="translate(18.561492116960345,75.15759606424032)" d="M5,0A5,5,0,1,1,-5,0A5,5,0,1,1,5,0" fill="rgb(1, 117, 75)" stroke="white" stroke-width="1" opacity="1"/><path transform="translate(89.16082472133002,70.5132401160166)" d="M5,0A5,5,0,1,1,-5,0A5,5,0,1,1,5,0" fill="rgb(3, 128, 70)" stroke="white" stroke-width="1" opacity="1"/><path transform="translate(30.510259314340836,38.97973269154814)" d="M5,0A5,5,0,1,1,-5,0A5,5,0,1,1,5,0" fill="rgb(143, 189, 62)" stroke="white" stroke-width="1" opacity="1"/><path transform="translate(39.22114754855984,9.083635339194473)" d="M5,0A5,5,0,1,1,-5,0A5,5,0,1,1,5,0" fill="rgb(255, 240, 74)" stroke="white" stroke-width="1" opacity="1"/><path transform="translate(7.412776947945787,24.415969154587223)" d="M5,0A5,5,0,1,1,-5,0A5,5,0,1,1,5,0" fill="rgb(203, 213, 55)" stroke="white" stroke-width="1" opacity="1"/><path transform="translate(74.1605500514133,29.718772763477432)" d="M5,0A5,5,0,1,1,-5,0A5,5,0,1,1,5,0" fill="rgb(182, 204, 58)" stroke="white" stroke-width="1" opacity="1"/><path transform="translate(17.014041039913174,85.97828617195552)" d="M5,0A5,5,0,1,1,-5,0A5,5,0,1,1,5,0" fill="rgb(25, 93, 73)" stroke="white" stroke-width="1" opacity="1"/><path transform="translate(38.803428598553225,5.439014730297121)" d="M5,0A5,5,0,1,1,-5,0A5,5,0,1,1,5,0" fill="rgb(255, 246, 116)" stroke="white" stroke-width="1" opacity="1"/><path transform="translate(74.73740582521586,35.573981423900115)" d="M5,0A5,5,0,1,1,-5,0A5,5,0,1,1,5,0" fill="rgb(158, 195, 62)" stroke="white" stroke-width="1" opacity="1"/><path transform="translate(31.470747713875934,14.11138177900596)" d="M5,0A5,5,0,1,1,-5,0A5,5,0,1,1,5,0" fill="rgb(245, 231, 46)" stroke="white" stroke-width="1" opacity="1"/><path transform="translate(35.020038848083146,80.7445160528047)" d="M5,0A5,5,0,1,1,-5,0A5,5,0,1,1,5,0" fill="rgb(9, 104, 76)" stroke="white" stroke-width="1" opacity="1"/><path transform="translate(85.06274918921788,45.89608910257541)" d="M5,0A5,5,0,1,1,-5,0A5,5,0,1,1,5,0" fill="rgb(113, 177, 64)" stroke="white" stroke-width="1" opacity="1"/><path transform="translate(56.58772139198434,58.272876758535595)" d="M5,0A5,5,0,1,1,-5,0A5,5,0,1,1,5,0" fill="rgb(56, 153, 66)" stroke="white" stroke-width="1" opacity="1"/><path transform="translate(62.019765889319736,99.4588352296065)" d="M5,0A5,5,0,1,1,-5,0A5,5,0,1,1,5,0" fill="rgb(58, 58, 58)" stroke="white" stroke-width="1" opacity="1"/><path transform="translate(88.3561248285495,46.92422059806714)" d="M5,0A5,5,0,1,1,-5,0A5,5,0,1,1,5,0" fill="rgb(109, 175, 64)" stroke="white" stroke-width="1" opacity="1"/><path transform="translate(25.51807753434202,72.30735456726052)" d="M5,0A5,5,0,1,1,-5,0A5,5,0,1,1,5,0" fill="rgb(2, 124, 72)" stroke="white" stroke-width="1" opacity="1"/><path transform="translate(42.91753109089208,0.706411126720663)" d="M5,0A5,5,0,1,1,-5,0A5,5,0,1,1,5,0" fill="rgb(255, 255, 170)" stroke="white" stroke-width="1" opacity="1"/><path transform="translate(50.793995669476985,19.93607435033471)" d="M5,0A5,5,0,1,1,-5,0A5,5,0,1,1,5,0" fill="rgb(221, 221, 52)" stroke="white" stroke-width="1" opacity="1"/><path transform="translate(87.06962855690082,29.545404628621974)" d="M5,0A5,5,0,1,1,-5,0A5,5,0,1,1,5,0" fill="rgb(183, 205, 58)" stroke="white" stroke-width="1" opacity="1"/><path transform="translate(80.87394301616415,15.789059298832198)" d="M5,0A5,5,0,1,1,-5,0A5,5,0,1,1,5,0" fill="rgb(238, 228, 48)" stroke="white" stroke-width="1" opacity="1"/><path transform="translate(20.21905170901728,93.8669875887286)" d="M5,0A5,5,0,1,1,-5,0A5,5,0,1,1,5,0" fill="rgb(45, 73, 65)" stroke="white" stroke-width="1" opacity="1"/><path transform="translate(88.20393038705157,51.10972835124707)" d="M5,0A5,5,0,1,1,-5,0A5,5,0,1,1,5,0" fill="rgb(91, 167, 65)" stroke="white" stroke-width="1" opacity="1"/><path transform="translate(96.28193068929228,31.620640360998053)" d="M5,0A5,5,0,1,1,-5,0A5,5,0,1,1,5,0" fill="rgb(174, 201, 60)" stroke="white" stroke-width="1" opacity="1"/><path transform="translate(21.586591217846586,99.59167840146412)" d="M5,0A5,5,0,1,1,-5,0A5,5,0,1,1,5,0" fill="rgb(58, 58, 58)" stroke="white" stroke-width="1" opacity="1"/><path transform="translate(70.0927443655787,31.014664142556867)" d="M5,0A5,5,0,1,1,-5,0A5,5,0,1,1,5,0" fill="rgb(177, 202, 59)" stroke="white" stroke-width="1" opacity="1"/><path transform="translate(86.1758506248525,25.901532881399948)" d="M5,0A5,5,0,1,1,-5,0A5,5,0,1,1,5,0" fill="rgb(197, 211, 56)" stroke="white" stroke-width="1" opacity="1"/><path transform="translate(87.89839765074657,45.36650303226626)" d="M5,0A5,5,0,1,1,-5,0A5,5,0,1,1,5,0" fill="rgb(115, 178, 64)" stroke="white" stroke-width="1" opacity="1"/><path transform="translate(95.4939388956365,90.04738768321248)" d="M5,0A5,5,0,1,1,-5,0A5,5,0,1,1,5,0" fill="rgb(36, 83, 70)" stroke="white" stroke-width="1" opacity="1"/><path transform="translate(24.552720855440946,80.69234149145721)" d="M5,0A5,5,0,1,1,-5,0A5,5,0,1,1,5,0" fill="rgb(9, 104, 76)" stroke="white" stroke-width="1" opacity="1"/><path transform="translate(13.33724869263303,47.98083450959246)" d="M5,0A5,5,0,1,1,-5,0A5,5,0,1,1,5,0" fill="rgb(104, 173, 65)" stroke="white" stroke-width="1" opacity="1"/><path transform="translate(26.88249217265404,72.97480586251642)" d="M5,0A5,5,0,1,1,-5,0A5,5,0,1,1,5,0" fill="rgb(2, 122, 72)" stroke="white" stroke-width="1" opacity="1"/><path transform="translate(69.1544885197766,82.53195042049882)" d="M5,0A5,5,0,1,1,-5,0A5,5,0,1,1,5,0" fill="rgb(15, 100, 75)" stroke="white" stroke-width="1" opacity="1"/><path transform="translate(20.3486031866958,90.73537038157765)" d="M5,0A5,5,0,1,1,-5,0A5,5,0,1,1,5,0" fill="rgb(38, 81, 69)" stroke="white" stroke-width="1" opacity="1"/><path transform="translate(83.72389913111101,72.57786216769324)" d="M5,0A5,5,0,1,1,-5,0A5,5,0,1,1,5,0" fill="rgb(2, 123, 72)" stroke="white" stroke-width="1" opacity="1"/><path transform="translate(41.106606965592675,17.44901618568415)" d="M5,0A5,5,0,1,1,-5,0A5,5,0,1,1,5,0" fill="rgb(231, 225, 49)" stroke="white" stroke-width="1" opacity="1"/><path transform="translate(88.82280291382398,7.40732622261997)" d="M5,0A5,5,0,1,1,-5,0A5,5,0,1,1,5,0" fill="rgb(255, 243, 93)" stroke="white" stroke-width="1" opacity="1"/><path transform="translate(82.00866932910446,43.33153289981458)" d="M5,0A5,5,0,1,1,-5,0A5,5,0,1,1,5,0" fill="rgb(124, 181, 64)" stroke="white" stroke-width="1" opacity="1"/><path transform="translate(77.02343592929353,12.032317375533685)" d="M5,0A5,5,0,1,1,-5,0A5,5,0,1,1,5,0" fill="rgb(254, 234, 44)" stroke="white" stroke-width="1" opacity="1"/></g></g><path class="foreground" aria-hidden="true" d="" display="none"/></g></g><g class="mark-group role-legend" role="graphics-symbol" aria-roledescription="legend" aria-label="Gradient legend titled 'y' for fill color with values from 0.0 to 1.0"><g transform="translate(123,0)"><path class="background" aria-hidden="true" d="M0,0h27v96h-27Z" pointer-events="none"/><g><g class="mark-group role-legend-entry"><g transform="translate(0,16)"><path class="background" aria-hidden="true" d="M0,0h0v0h0Z" pointer-events="none"/><g><g class="mark-rect role-legend-gradient" pointer-events="none"><path d="M0,0h10v80h-10Z" fill="url(#gradient_0)" stroke="#ddd" stroke-width="0" opacity="1"/></g><g class="mark-text role-legend-label" pointer-events="none"><text text-anchor="start" transform="translate(12,78)" font-family="sans-serif" font-size="10px" font-style="normal" font-weight="400" fill="#000" opacity="1">0.0</text><text text-anchor="start" transform="translate(12,8)" font-family="sans-serif" font-size="10px" font-style="normal" font-weight="400" fill="#000" opacity="1">1.0</text></g></g><path class="foreground" aria-hidden="true" d="" pointer-events="none" display="none"/></g></g><g class="mark-text role-legend-title" pointer-events="none"><text text-anchor="start" transform="translate(0,9)" font-family="sans-serif" font-size="11px" font-style="normal" font-weight="400" fill="#000" opacity="1">y</text></g></g><path class="foreground" aria-hidden="true" d="" pointer-events="none" display="none"/></g></g></g><path class="foreground" aria-hidden="true" d="" display="none"/></g></g></g><defs><linearGradient id="gradient_0" x1="0" x2="0" y1="1" y2="0"><stop offset="0" stop-color="rgb(58, 58, 58)"/><stop offset="0.04643440350630367" stop-color="rgb(48, 70, 64)"/><stop offset="0.09699805305490597" stop-color="rgb(36, 83, 70)"/><stop offset="0.14756170260350826" stop-color="rgb(22, 95, 74)"/><stop offset="0.19812535215211058" stop-color="rgb(7, 106, 76)"/><stop offset="0.24868900170071287" stop-color="rgb(1, 117, 74)"/><stop offset="0.29925265124931516" stop-color="rgb(3, 129, 69)"/><stop offset="0.3498163007979174" stop-color="rgb(14, 140, 66)"/><stop offset="0.4003799503465198" stop-color="rgb(45, 150, 66)"/><stop offset="0.45094359989512206" stop-color="rgb(75, 159, 66)"/><stop offset="0.5015072494437244" stop-color="rgb(96, 169, 65)"/><stop offset="0.5520708989923268" stop-color="rgb(117, 178, 64)"/><stop offset="0.6026345485409289" stop-color="rgb(138, 187, 63)"/><stop offset="0.6531981980895313" stop-color="rgb(160, 196, 61)"/><stop offset="0.7037618476381335" stop-color="rgb(181, 204, 59)"/><stop offset="0.7543254971867359" stop-color="rgb(201, 212, 55)"/><stop offset="0.8048891467353382" stop-color="rgb(221, 221, 52)"/><stop offset="0.8554527962839404" stop-color="rgb(241, 229, 47)"/><stop offset="0.9060164458325428" stop-color="rgb(255, 238, 63)"/><stop offset="0.9565800953811451" stop-color="rgb(255, 247, 121)"/><stop offset="1" stop-color="rgb(255, 255, 170)"/></linearGradient></defs></svg>