<svg xmlns="http://www.w3.org/2000/svg" xmlns:xlink="http://www.w3.org/1999/xlink" version="1.1" class="marks" width="145" height="137" viewBox="0 0 145 137"><rect width="145" height="137" fill="white"/><g fill="none" stroke-miterlimit="10" transform="translate(37,5)"><g class="mark-group role-frame root" role="graphics-object" aria-roledescription="group mark container"><g transform="translate(0,0)"><path class="background" aria-hidden="true" d="M0,0h100v100h-100Z"/><g><g class="mark-group role-axis" role="graphics-symbol" aria-roledescription="axis" aria-label="X-axis titled 'x' for a linear scale with values from 0.0 to 1.0"><g transform="translate(0.5,100.5)"><path class="background" aria-hidden="true" d="M0,0h0v0h0Z" pointer-events="none"/><g><g class="mark-rule role-axis-tick" pointer-events="none"><line transform="translate(0,0)" x2="0" y2="5" stroke="black" stroke-width="1.01" opacity="1"/><line transform="translate(50,0)" x2="0" y2="5" stroke="black" stroke-width="1.01" opacity="1"/><line transform="translate(100,0)" x2="0" y2="5" stroke="black" stroke-width="1.01" opacity="1"/></g><g class="mark-text role-axis-label" pointer-events="none"><text text-anchor="middle" transform="translate(0,15)" font-family="sans-serif" font-size="10px" font-style="normal" font-weight="400" fill="black" opacity="1">0.0</text><text text-anchor="middle" transform="translate(50,15)" font-family="sans-serif" font-size="10px" font-style="normal" font-weight="400" fill="black" opacity="1">0.5</text><text text-anchor="middle" transform="translate(100,15)" font-family="sans-serif" font-size="10px" font-style="normal" font-weight="400" fill="black" opacity="1">1.0</text></g><g class="mark-rule role-axis-domain" pointer-events="none"><line transform="translate(0,0)" x2="100" y2="0" stroke="black" stroke-width="1.01" opacity="1"/></g><g class="mark-text role-axis-title" pointer-events="none"><text text-anchor="middle" transform="translate(50,30)" font-family="sans-serif" font-size="11px" font-style="normal" font-weight="400" fill="black" opacity="1">x</text></g></g><path class="foreground" aria-hidden="true" d="" pointer-events="none" display="none"/></g></g><g class="mark-group role-axis" role="graphics-symbol" aria-roledescription="axis" aria-label="Y-axis titled 'y' for a linear scale with values from 0.0 to 1.0"><g transform="translate(0.5,0.5)"><path class="background" aria-hidden="true" d="M0,0h0v0h0Z" pointer-events="none"/><g><g class="mark-rule role-axis-tick" pointer-events="none"><line transform="translate(0,100)" x2="-5" y2="0" stroke="black" stroke-width="1.01" opacity="1"/><line transform="translate(0,50)" x2="-5" y2="0" stroke="black" stroke-width="1.01" opacity="1"/><line transform="translate(0,0)" x2="-5" y2="0" stroke="black" stroke-width="1.01" opacity="1"/></g><g class="mark-text role-axis-label" pointer-events="none"><text text-anchor="end" transform="translate(-7,103)" font-family="sans-serif" font-size="10px" font-style="normal" font-weight="400" fill="black" opacity="1">0.0</text><text text-anchor="end" transform="translate(-7,53)" font-family="sans-serif" font-size="10px" font-style="normal" font-weight="400" fill="black" opacity="1">0.5</text><text text-anchor="end" transform="translate(-7,3)" font-family="sans-serif" font-size="10px" font-style="normal" font-weight="400" fill="black" opacity="1">1.0</text></g><g class="mark-rule role-axis-domain" pointer-events="none"><line transform="translate(0,100)" x2="0" y2="-100" stroke="black" stroke-width="1.01" opacity="1"/></g><g class="mark-text role-axis-title" pointer-events="none"><text text-anchor="middle" transform="translate(-26,50) rotate(-90) translate(0,-2)" font-family="sans-serif" font-size="11px" font-style="normal" font-weight="400" fill="black" opacity="1">y</text></g></g><path class="foreground" aria-hidden="true" d="" pointer-events="none" display="none"/></g></g><g class="mark-group role-scope" clip-path="url(#clip1)" role="graphics-object" aria-roledescription="group mark container"><g transform="translate(0,0)"><path class="background" aria-hidden="true" d="M0,0h0v0h0Z"/><g><g class="mark-symbol role-mark points" role="graphics-symbol" aria-roledescription="symbol mark container"><path transform="translate(75.93676308993274,7.74505086628452)" d="M3.5355339059327378,0A3.5355339059327378,3.5355339059327378,0,1,1,-3.5355339059327378,0A3.5355339059327378,3.5355339059327378,0,1,1,3.5355339059327378,0" fill="white" stroke="steelblue" stroke-width="1" opacity="1"/><path transform="translate(1.7793968567201834,6.240945999708314)" d="M3.5355339059327378,0A3.5355339059327378,3.5355339059327378,0,1,1,-3.5355339059327378,0A3.5355339059327378,3.5355339059327378,0,1,1,3.5355339059327378,0" fill="white" stroke="steelblue" stroke-width="1" opacity="1"/><path transform="translate(94.33346207656629,27.6319634494018)" d="M3.5355339059327378,0A3.5355339059327378,3.5355339059327378,0,1,1,-3.5355339059327378,0A3.5355339059327378,3.5355339059327378,0,1,1,3.5355339059327378,0" fill="white" stroke="steelblue" stroke-width="1" opacity="1"/><path transform="translate(30.036133990818335,97.80676460927366)" d="M3.5355339059327378,0A3.5355339059327378,3.5355339059327378,0,1,1,-3.5355339059327378,0A3.5355339059327378,3.5355339059327378,0,1,1,3.5355339059327378,0" fill="white" stroke="steelblue" stroke-width="1" opacity="1"/><path transform="translate(14.996604292937521,56.01029232998604)" d="M3.5355339059327378,0A3.5355339059327378,3.5355339059327378,0,1,1,-3.5355339059327378,0A3.5355339059327378,3.5355339059327378,0,1,1,3.5355339059327378,0" fill="white" stroke="steelblue" stroke-width="1" opacity="1"/><path transform="translate(51.44612095340051,69.71435361027709)" d="M3.5355339059327378,0A3.5355339059327378,3.5355339059327378,0,1,1,-3.5355339059327378,0A3.5355339059327378,3.5355339059327378,0,1,1,3.5355339059327378,0" fill="white" stroke="steelblue" stroke-width="1" opacity="1"/><path transform="translate(33.19558550939913,43.46943213054366)" d="M3.5355339059327378,0A3.5355339059327378,3.5355339059327378,0,1,1,-3.5355339059327378,0A3.5355339059327378,3.5355339059327378,0,1,1,3.5355339059327378,0" fill="white" stroke="steelblue" stroke-width="1" opacity="1"/><path transform="translate(63.86564021430955,97.38443673329479)" d="M3.5355339059327378,0A3.5355339059327378,3.5355339059327378,0,1,1,-3.5355339059327378,0A3.5355339059327378,3.5355339059327378,0,1,1,3.5355339059327378,0" fill="white" stroke="steelblue" stroke-width="1" opacity="1"/><path transform="translate(95.59693058300809,49.675204101680514)" d="M3.5355339059327378,0A3.5355339059327378,3.5355339059327378,0,1,1,-3.5355339059327378,0A3.5355339059327378,3.5355339059327378,0,1,1,3.5355339059327378,0" fill="white" stroke="steelblue" stroke-width="1" opacity="1"/><path transform="translate(1.0793899716666888,1.503676610483251)" d="M3.5355339059327378,0A3.5355339059327378,3.5355339059327378,0,1,1,-3.5355339059327378,0A3.5355339059327378,3.5355339059327378,0,1,1,3.5355339059327378,0" fill="white" stroke="steelblue" stroke-width="1" opacity="1"/><path transform="translate(79.36805342666366,21.130485390192433)" d="M3.5355339059327378,0A3.5355339059327378,3.5355339059327378,0,1,1,-3.5355339059327378,0A3.5355339059327378,3.5355339059327378,0,1,1,3.5355339059327378,0" fill="white" stroke="steelblue" stroke-width="1" opacity="1"/><path transform="translate(41.489725691576275,63.33831533307944)" d="M3.5355339059327378,0A3.5355339059327378,3.5355339059327378,0,1,1,-3.5355339059327378,0A3.5355339059327378,3.5355339059327378,0,1,1,3.5355339059327378,0" fill="white" stroke="steelblue" stroke-width="1" opacity="1"/><path transform="translate(44.68928287541081,40.10868895187629)" d="M3.5355339059327378,0A3.5355339059327378,3.5355339059327378,0,1,1,-3.5355339059327378,0A3.5355339059327378,3.5355339059327378,0,1,1,3.5355339059327378,0" fill="white" stroke="steelblue" stroke-width="1" opacity="1"/><path transform="translate(85.2323412819629,32.709407047344015)" d="M3.5355339059327378,0A3.5355339059327378,3.5355339059327378,0,1,1,-3.5355339059327378,0A3.5355339059327378,3.5355339059327378,0,1,1,3.5355339059327378,0" fill="white" stroke="steelblue" stroke-width="1" opacity="1"/><path transform="translate(52.061919108148615,86.61194762005839)" d="M3.5355339059327378,0A3.5355339059327378,3.5355339059327378,0,1,1,-3.5355339059327378,0A3.5355339059327378,3.5355339059327378,0,1,1,3.5355339059327378,0" fill="white" stroke="steelblue" stroke-width="1" opacity="1"/><path transform="translate(32.66185444854697,27.969692173298245)" d="M3.5355339059327378,0A3.5355339059327378,3.5355339059327378,0,1,1,-3.5355339059327378,0A3.5355339059327378,3.5355339059327378,0,1,1,3.5355339059327378,0" fill="white" stroke="steelblue" stroke-width="1" opacity="1"/><path transform="translate(39.40626727803125,3.816293104041224)" d="M3.5355339059327378,0A3.5355339059327378,3.5355339059327378,0,1,1,-3.5355339059327378,0A3.5355339059327378,3.5355339059327378,0,1,1,3.5355339059327378,0" fill="white" stroke="steelblue" stroke-width="1" opacity="1"/><path transform="translate(87.07747608314861,3.9523432758369226)" d="M3.5355339059327378,0A3.5355339059327378,3.5355339059327378,0,1,1,-3.5355339059327378,0A3.5355339059327378,3.5355339059327378,0,1,1,3.5355339059327378,0" fill="white" stroke="steelblue" stroke-width="1" opacity="1"/><path transform="translate(41.92054266019135,91.89096234812658)" d="M3.5355339059327378,0A3.5355339059327378,3.5355339059327378,0,1,1,-3.5355339059327378,0A3.5355339059327378,3.5355339059327378,0,1,1,3.5355339059327378,0" fill="white" stroke="steelblue" stroke-width="1" opacity="1"/><path transform="translate(35.874147674397314,24.66350331482473)" d="M3.5355339059327378,0A3.5355339059327378,3.5355339059327378,0,1,1,-3.5355339059327378,0A3.5355339059327378,3.5355339059327378,0,1,1,3.5355339059327378,0" fill="white" stroke="steelblue" stroke-width="1" opacity="1"/><path transform="translate(76.34767327753957,92.4211673817027)" d="M3.5355339059327378,0A3.5355339059327378,3.5355339059327378,0,1,1,-3.5355339059327378,0A3.5355339059327378,3.5355339059327378,0,1,1,3.5355339059327378,0" fill="white" stroke="steelblue" stroke-width="1" opacity="1"/><path transform="translate(4.194106471020165,53.236467972302414)" d="M3.5355339059327378,0A3.5355339059327378,3.5355339059327378,0,1,1,-3.5355339059327378,0A3.5355339059327378,3.5355339059327378,0,1,1,3.5355339059327378,0" fill="white" stroke="steelblue" stroke-width="1" opacity="1"/><path transform="translate(42.21232625151148,36.45744789410249)" d="M3.5355339059327378,0A3.5355339059327378,3.5355339059327378,0,1,1,-3.5355339059327378,0A3.5355339059327378,3.5355339059327378,0,1,1,3.5355339059327378,0" fill="white" stroke="steelblue" stroke-width="1" opacity="1"/><path transform="translate(54.22709150146121,85.19894845881433)" d="M3.5355339059327378,0A3.5355339059327378,3.5355339059327378,0,1,1,-3.5355339059327378,0A3.5355339059327378,3.5355339059327378,0,1,1,3.5355339059327378,0" fill="white" stroke="steelblue" stroke-width="1" opacity="1"/><path transform="translate(37.31240957693658,90.0817942814044)" d="M3.5355339059327378,0A3.5355339059327378,3.5355339059327378,0,1,1,-3.5355339059327378,0A3.5355339059327378,3.5355339059327378,0,1,1,3.5355339059327378,0" fill="white" stroke="steelblue" stroke-width="1" opacity="1"/><path transform="translate(53.679933603230644,39.23558868661119)" d="M3.5355339059327378,0A3.5355339059327378,3.5355339059327378,0,1,1,-3.5355339059327378,0A3.5355339059327378,3.5355339059327378,0,1,1,3.5355339059327378,0" fill="white" stroke="steelblue" stroke-width="1" opacity="1"/><path transform="translate(12.903001198468633,5.024117342145484)" d="M3.5355339059327378,0A3.5355339059327378,3.5355339059327378,0,1,1,-3.5355339059327378,0A3.5355339059327378,3.5355339059327378,0,1,1,3.5355339059327378,0" fill="white" stroke="steelblue" stroke-width="1" opacity="1"/><path transform="translate(18.157141205938178,98.74568102233484)" d="M3.5355339059327378,0A3.5355339059327378,3.5355339059327378,0,1,1,-3.5355339059327378,0A3.5355339059327378,3.5355339059327378,0,1,1,3.5355339059327378,0" fill="white" stroke="steelblue" stroke-width="1" opacity="1"/><path transform="translate(70.1230049946307,7.8776397610846765)" d="M3.5355339059327378,0A3.5355339059327378,3.5355339059327378,0,1,1,-3.5355339059327378,0A3.5355339059327378,3.5355339059327378,0,1,1,3.5355339059327378,0" fill="white" stroke="steelblue" stroke-width="1" opacity="1"/><path transform="translate(40.31745621734062,41.420579788152864)" d="M3.5355339059327378,0A3.5355339059327378,3.5355339059327378,0,1,1,-3.5355339059327378,0A3.5355339059327378,3.5355339059327378,0,1,1,3.5355339059327378,0" fill="white" stroke="steelblue" stroke-width="1" opacity="1"/><path transform="translate(87.56647065885616,0.7324830881481503)" d="M3.5355339059327378,0A3.5355339059327378,3.5355339059327378,0,1,1,-3.5355339059327378,0A3.5355339059327378,3.5355339059327378,0,1,1,3.5355339059327378,0" fill="white" stroke="steelblue" stroke-width="1" opacity="1"/><path transform="translate(69.93062066747702,44.30741446073386)" d="M3.5355339059327378,0A3.5355339059327378,3.5355339059327378,0,1,1,-3.5355339059327378,0A3.5355339059327378,3.5355339059327378,0,1,1,3.5355339059327378,0" fill="white" stroke="steelblue" stroke-width="1" opacity="1"/><path transform="translate(73.14600858854375,78.04859241473989)" d="M3.5355339059327378,0A3.5355339059327378,3.5355339059327378,0,1,1,-3.5355339059327378,0A3.5355339059327378,3.5355339059327378,0,1,1,3.5355339059327378,0" fill="white" stroke="steelblue" stroke-width="1" opacity="1"/><path transform="translate(0.8876124916577299,32.268245732506216)" d="M3.5355339059327378,0A3.5355339059327378,3.5355339059327378,0,1,1,-3.5355339059327378,0A3.5355339059327378,3.5355339059327378,0,1,1,3.5355339059327378,0" fill="white" stroke="steelblue" stroke-width="1" opacity="1"/><path transform="translate(9.242469592031233,88.05114136733198)" d="M3.5355339059327378,0A3.5355339059327378,3.5355339059327378,0,1,1,-3.5355339059327378,0A3.5355339059327378,3.5355339059327378,0,1,1,3.5355339059327378,0" fill="white" stroke="steelblue" stroke-width="1" opacity="1"/><path transform="translate(63.23687225395989,13.955353093901069)" d="M3.5355339059327378,0A3.5355339059327378,3.5355339059327378,0,1,1,-3.5355339059327378,0A3.5355339059327378,3.5355339059327378,0,1,1,3.5355339059327378,0" fill="white" stroke="steelblue" stroke-width="1" opacity="1"/><path transform="translate(11.067190824899642,14.11354127693729)" d="M3.5355339059327378,0A3.5355339059327378,3.5355339059327378,0,1,1,-3.5355339059327378,0A3.5355339059327378,3.5355339059327378,0,1,1,3.5355339059327378,0" fill="white" stroke="steelblue" stroke-width="1" opacity="1"/><path transform="translate(69.69340432267553,17.659256911167887)" d="M3.5355339059327378,0A3.5355339059327378,3.5355339059327378,0,1,1,-3.5355339059327378,0A3.5355339059327378,3.5355339059327378,0,1,1,3.5355339059327378,0" fill="white" stroke="steelblue" stroke-width="1" opacity="1"/><path transform="translate(95.17402034725121,54.59115201890336)" d="M3.5355339059327378,0A3.5355339059327378,3.5355339059327378,0,1,1,-3.5355339059327378,0A3.5355339059327378,3.5355339059327378,0,1,1,3.5355339059327378,0" fill="white" stroke="steelblue" stroke-width="1" opacity="1"/><path transform="translate(67.81098124832411,39.26081915052308)" d="M3.5355339059327378,0A3.5355339059327378,3.5355339059327378,0,1,1,-3.5355339059327378,0A3.5355339059327378,3.5355339059327378,0,1,1,3.5355339059327378,0" fill="white" stroke="steelblue" stroke-width="1" opacity="1"/><path transform="translate(38.61094105912215,36.71904817396339)" d="M3.5355339059327378,0A3.5355339059327378,3.5355339059327378,0,1,1,-3.5355339059327378,0A3.5355339059327378,3.5355339059327378,0,1,1,3.5355339059327378,0" fill="white" stroke="steelblue" stroke-width="1" opacity="1"/><path transform="translate(72.28478609384678,55.43496704785703)" d="M3.5355339059327378,0A3.5355339059327378,3.5355339059327378,0,1,1,-3.5355339059327378,0A3.5355339059327378,3.5355339059327378,0,1,1,3.5355339059327378,0" fill="white" stroke="steelblue" stroke-width="1" opacity="1"/><path transform="translate(34.890819715652555,61.457458382294526)" d="M3.5355339059327378,0A3.5355339059327378,3.5355339059327378,0,1,1,-3.5355339059327378,0A3.5355339059327378,3.5355339059327378,0,1,1,3.5355339059327378,0" fill="white" stroke="steelblue" stroke-width="1" opacity="1"/><path transform="translate(42.80017448101774,82.05130607119011)" d="M3.5355339059327378,0A3.5355339059327378,3.5355339059327378,0,1,1,-3.5355339059327378,0A3.5355339059327378,3.5355339059327378,0,1,1,3.5355339059327378,0" fill="white" stroke="steelblue" stroke-width="1" opacity="1"/><path transform="translate(22.561961936968768,78.47598368330861)" d="M3.5355339059327378,0A3.5355339059327378,3.5355339059327378,0,1,1,-3.5355339059327378,0A3.5355339059327378,3.5355339059327378,0,1,1,3.5355339059327378,0" fill="white" stroke="steelblue" stroke-width="1" opacity="1"/><path transform="translate(43.51582610779522,58.571077478068965)" d="M3.5355339059327378,0A3.5355339059327378,3.5355339059327378,0,1,1,-3.5355339059327378,0A3.5355339059327378,3.5355339059327378,0,1,1,3.5355339059327378,0" fill="white" stroke="steelblue" stroke-width="1" opacity="1"/><path transform="translate(21.810103012061166,72.89956096966637)" d="M3.5355339059327378,0A3.5355339059327378,3.5355339059327378,0,1,1,-3.5355339059327378,0A3.5355339059327378,3.5355339059327378,0,1,1,3.5355339059327378,0" fill="white" stroke="steelblue" stroke-width="1" opacity="1"/><path transform="translate(52.4393580492496,80.84086228244504)" d="M3.5355339059327378,0A3.5355339059327378,3.5355339059327378,0,1,1,-3.5355339059327378,0A3.5355339059327378,3.5355339059327378,0,1,1,3.5355339059327378,0" fill="white" stroke="steelblue" stroke-width="1" opacity="1"/><path transform="translate(6.961453964750797,39.191791953639935)" d="M3.5355339059327378,0A3.5355339059327378,3.5355339059327378,0,1,1,-3.5355339059327378,0A3.5355339059327378,3.5355339059327378,0,1,1,3.5355339059327378,0" fill="white" stroke="steelblue" stroke-width="1" opacity="1"/><path transform="translate(53.78156881648639,81.00166474854747)" d="M3.5355339059327378,0A3.5355339059327378,3.5355339059327378,0,1,1,-3.5355339059327378,0A3.5355339059327378,3.5355339059327378,0,1,1,3.5355339059327378,0" fill="white" stroke="steelblue" stroke-width="1" opacity="1"/><path transform="translate(18.135285045163585,1.8747283553370186)" d="M3.5355339059327378,0A3.5355339059327378,3.5355339059327378,0,1,1,-3.5355339059327378,0A3.5355339059327378,3.5355339059327378,0,1,1,3.5355339059327378,0" fill="white" stroke="steelblue" stroke-width="1" opacity="1"/><path transform="translate(71.66839611653957,84.33727824260787)" d="M3.5355339059327378,0A3.5355339059327378,3.5355339059327378,0,1,1,-3.5355339059327378,0A3.5355339059327378,3.5355339059327378,0,1,1,3.5355339059327378,0" fill="white" stroke="steelblue" stroke-width="1" opacity="1"/><path transform="translate(73.00347582788713,63.5237593302494)" d="M3.5355339059327378,0A3.5355339059327378,3.5355339059327378,0,1,1,-3.5355339059327378,0A3.5355339059327378,3.5355339059327378,0,1,1,3.5355339059327378,0" fill="white" stroke="steelblue" stroke-width="1" opacity="1"/><path transform="translate(52.61403343540165,99.15869314087405)" d="M3.5355339059327378,0A3.5355339059327378,3.5355339059327378,0,1,1,-3.5355339059327378,0A3.5355339059327378,3.5355339059327378,0,1,1,3.5355339059327378,0" fill="white" stroke="steelblue" stroke-width="1" opacity="1"/><path transform="translate(86.8829865605171,48.74163465029307)" d="M3.5355339059327378,0A3.5355339059327378,3.5355339059327378,0,1,1,-3.5355339059327378,0A3.5355339059327378,3.5355339059327378,0,1,1,3.5355339059327378,0" fill="white" stroke="steelblue" stroke-width="1" opacity="1"/><path transform="translate(36.27082976648085,43.57311747654226)" d="M3.5355339059327378,0A3.5355339059327378,3.5355339059327378,0,1,1,-3.5355339059327378,0A3.5355339059327378,3.5355339059327378,0,1,1,3.5355339059327378,0" fill="white" stroke="steelblue" stroke-width="1" opacity="1"/><path transform="translate(29.618491925513478,44.05043734506437)" d="M3.5355339059327378,0A3.5355339059327378,3.5355339059327378,0,1,1,-3.5355339059327378,0A3.5355339059327378,3.5355339059327378,0,1,1,3.5355339059327378,0" fill="white" stroke="steelblue" stroke-width="1" opacity="1"/><path transform="translate(56.48093184063949,28.216415499906887)" d="M3.5355339059327378,0A3.5355339059327378,3.5355339059327378,0,1,1,-3.5355339059327378,0A3.5355339059327378,3.5355339059327378,0,1,1,3.5355339059327378,0" fill="white" stroke="steelblue" stroke-width="1" opacity="1"/><path transform="translate(49.56930203239753,19.79465699825783)" d="M3.5355339059327378,0A3.5355339059327378,3.5355339059327378,0,1,1,-3.5355339059327378,0A3.5355339059327378,3.5355339059327378,0,1,1,3.5355339059327378,0" fill="white" stroke="steelblue" stroke-width="1" opacity="1"/><path transform="translate(71.4246609742425,92.44406680753696)" d="M3.5355339059327378,0A3.5355339059327378,3.5355339059327378,0,1,1,-3.5355339059327378,0A3.5355339059327378,3.5355339059327378,0,1,1,3.5355339059327378,0" fill="white" stroke="steelblue" stroke-width="1" opacity="1"/><path transform="translate(59.8274519717896,90.82831503186488)" d="M3.5355339059327378,0A3.5355339059327378,3.5355339059327378,0,1,1,-3.5355339059327378,0A3.5355339059327378,3.5355339059327378,0,1,1,3.5355339059327378,0" fill="white" stroke="steelblue" stroke-width="1" opacity="1"/><path transform="translate(54.785932788428745,5.258354762273698)" d="M3.5355339059327378,0A3.5355339059327378,3.5355339059327378,0,1,1,-3.5355339059327378,0A3.5355339059327378,3.5355339059327378,0,1,1,3.5355339059327378,0" fill="white" stroke="steelblue" stroke-width="1" opacity="1"/><path transform="translate(33.11995015211693,10.840005406265718)" d="M3.5355339059327378,0A3.5355339059327378,3.5355339059327378,0,1,1,-3.5355339059327378,0A3.5355339059327378,3.5355339059327378,0,1,1,3.5355339059327378,0" fill="white" stroke="steelblue" stroke-width="1" opacity="1"/><path transform="translate(89.19061138846732,35.48662597078128)" d="M3.5355339059327378,0A3.5355339059327378,3.5355339059327378,0,1,1,-3.5355339059327378,0A3.5355339059327378,3.5355339059327378,0,1,1,3.5355339059327378,0" fill="white" stroke="steelblue" stroke-width="1" opacity="1"/><path transform="translate(51.189248694064496,21.12433824203889)" d="M3.5355339059327378,0A3.5355339059327378,3.5355339059327378,0,1,1,-3.5355339059327378,0A3.5355339059327378,3.5355339059327378,0,1,1,3.5355339059327378,0" fill="white" stroke="steelblue" stroke-width="1" opacity="1"/><path transform="translate(80.48674256182875,57.136945278550485)" d="M3.5355339059327378,0A3.5355339059327378,3.5355339059327378,0,1,1,-3.5355339059327378,0A3.5355339059327378,3.5355339059327378,0,1,1,3.5355339059327378,0" fill="white" stroke="steelblue" stroke-width="1" opacity="1"/><path transform="translate(65.34848155701147,15.206452650303227)" d="M3.5355339059327378,0A3.5355339059327378,3.5355339059327378,0,1,1,-3.5355339059327378,0A3.5355339059327378,3.5355339059327378,0,1,1,3.5355339059327378,0" fill="white" stroke="steelblue" stroke-width="1" opacity="1"/><path transform="translate(78.00639810037566,70.26721754203783)" d="M3.5355339059327378,0A3.5355339059327378,3.5355339059327378,0,1,1,-3.5355339059327378,0A3.5355339059327378,3.5355339059327378,0,1,1,3.5355339059327378,0" fill="white" stroke="steelblue" stroke-width="1" opacity="1"/><path transform="translate(3.3016395121019615,17.23839701597134)" d="M3.5355339059327378,0A3.5355339059327378,3.5355339059327378,0,1,1,-3.5355339059327378,0A3.5355339059327378,3.5355339059327378,0,1,1,3.5355339059327378,0" fill="white" stroke="steelblue" stroke-width="1" opacity="1"/><path transform="translate(5.430313089448314,46.80273847648798)" d="M3.5355339059327378,0A3.5355339059327378,3.5355339059327378,0,1,1,-3.5355339059327378,0A3.5355339059327378,3.5355339059327378,0,1,1,3.5355339059327378,0" fill="white" stroke="steelblue" stroke-width="1" opacity="1"/><path transform="translate(56.536392668912015,20.730349585657304)" d="M3.5355339059327378,0A3.5355339059327378,3.5355339059327378,0,1,1,-3.5355339059327378,0A3.5355339059327378,3.5355339059327378,0,1,1,3.5355339059327378,0" fill="white" stroke="steelblue" stroke-width="1" opacity="1"/><path transform="translate(62.58044294375096,17.914411877609858)" d="M3.5355339059327378,0A3.5355339059327378,3.5355339059327378,0,1,1,-3.5355339059327378,0A3.5355339059327378,3.5355339059327378,0,1,1,3.5355339059327378,0" fill="white" stroke="steelblue" stroke-width="1" opacity="1"/><path transform="translate(95.05778506900221,18.09740151306798)" d="M3.5355339059327378,0A3.5355339059327378,3.5355339059327378,0,1,1,-3.5355339059327378,0A3.5355339059327378,3.5355339059327378,0,1,1,3.5355339059327378,0" fill="white" stroke="steelblue" stroke-width="1" opacity="1"/><path transform="translate(98.23745128771915,20.7357490890169)" d="M3.5355339059327378,0A3.5355339059327378,3.5355339059327378,0,1,1,-3.5355339059327378,0A3.5355339059327378,3.5355339059327378,0,1,1,3.5355339059327378,0" fill="white" stroke="steelblue" stroke-width="1" opacity="1"/><path transform="translate(49.423391432815414,14.857113762845731)" d="M3.5355339059327378,0A3.5355339059327378,3.5355339059327378,0,1,1,-3.5355339059327378,0A3.5355339059327378,3.5355339059327378,0,1,1,3.5355339059327378,0" fill="white" stroke="steelblue" stroke-width="1" opacity="1"/><path transform="translate(94.10286884786348,83.03394336089156)" d="M3.5355339059327378,0A3.5355339059327378,3.5355339059327378,0,1,1,-3.5355339059327378,0A3.5355339059327378,3.5355339059327378,0,1,1,3.5355339059327378,0" fill="white" stroke="steelblue" stroke-width="1" opacity="1"/><path transform="translate(25.548345532675533,90.96152187664059)" d="M3.5355339059327378,0A3.5355339059327378,3.5355339059327378,0,1,1,-3.5355339059327378,0A3.5355339059327378,3.5355339059327378,0,1,1,3.5355339059327378,0" fill="white" stroke="steelblue" stroke-width="1" opacity="1"/><path transform="translate(17.544475752749346,61.38019488503868)" d="M3.5355339059327378,0A3.5355339059327378,3.5355339059327378,0,1,1,-3.5355339059327378,0A3.5355339059327378,3.5355339059327378,0,1,1,3.5355339059327378,0" fill="white" stroke="steelblue" stroke-width="1" opacity="1"/><path transform="translate(83.63743647934112,79.49093675966967)" d="M3.5355339059327378,0A3.5355339059327378,3.5355339059327378,0,1,1,-3.5355339059327378,0A3.5355339059327378,3.5355339059327378,0,1,1,3.5355339059327378,0" fill="white" stroke="steelblue" stroke-width="1" opacity="1"/><path transform="translate(67.56687229173825,25.0903605821723)" d="M3.5355339059327378,0A3.5355339059327378,3.5355339059327378,0,1,1,-3.5355339059327378,0A3.5355339059327378,3.5355339059327378,0,1,1,3.5355339059327378,0" fill="white" stroke="steelblue" stroke-width="1" opacity="1"/><path transform="translate(79.64410596073962,47.37841279815266)" d="M3.5355339059327378,0A3.5355339059327378,3.5355339059327378,0,1,1,-3.5355339059327378,0A3.5355339059327378,3.5355339059327378,0,1,1,3.5355339059327378,0" fill="white" stroke="steelblue" stroke-width="1" opacity="1"/><path transform="translate(18.530862536175118,51.95093593262668)" d="M3.5355339059327378,0A3.5355339059327378,3.5355339059327378,0,1,1,-3.5355339059327378,0A3.5355339059327378,3.5355339059327378,0,1,1,3.5355339059327378,0" fill="white" stroke="steelblue" stroke-width="1" opacity="1"/><path transform="translate(86.35271744514274,49.06745181504086)" d="M3.5355339059327378,0A3.5355339059327378,3.5355339059327378,0,1,1,-3.5355339059327378,0A3.5355339059327378,3.5355339059327378,0,1,1,3.5355339059327378,0" fill="white" stroke="steelblue" stroke-width="1" opacity="1"/><path transform="translate(7.775742525060836,23.93545207799236)" d="M3.5355339059327378,0A3.5355339059327378,3.5355339059327378,0,1,1,-3.5355339059327378,0A3.5355339059327378,3.5355339059327378,0,1,1,3.5355339059327378,0" fill="white" stroke="steelblue" stroke-width="1" opacity="1"/><path transform="translate(2.0650643485511266,83.71495279132684)" d="M3.5355339059327378,0A3.5355339059327378,3.5355339059327378,0,1,1,-3.5355339059327378,0A3.5355339059327378,3.5355339059327378,0,1,1,3.5355339059327378,0" fill="white" stroke="steelblue" stroke-width="1" opacity="1"/><path transform="translate(15.99734171444146,10.495812063077448)" d="M3.5355339059327378,0A3.5355339059327378,3.5355339059327378,0,1,1,-3.5355339059327378,0A3.5355339059327378,3.5355339059327378,0,1,1,3.5355339059327378,0" fill="white" stroke="steelblue" stroke-width="1" opacity="1"/><path transform="translate(31.959702058848716,87.48961506912804)" d="M3.5355339059327378,0A3.5355339059327378,3.5355339059327378,0,1,1,-3.5355339059327378,0A3.5355339059327378,3.5355339059327378,0,1,1,3.5355339059327378,0" fill="white" stroke="steelblue" stroke-width="1" opacity="1"/><path transform="translate(46.869505099318296,11.890646396585058)" d="M3.5355339059327378,0A3.5355339059327378,3.5355339059327378,0,1,1,-3.5355339059327378,0A3.5355339059327378,3.5355339059327378,0,1,1,3.5355339059327378,0" fill="white" stroke="steelblue" stroke-width="1" opacity="1"/><path transform="translate(17.39877643595429,19.688641492035043)" d="M3.5355339059327378,0A3.5355339059327378,3.5355339059327378,0,1,1,-3.5355339059327378,0A3.5355339059327378,3.5355339059327378,0,1,1,3.5355339059327378,0" fill="white" stroke="steelblue" stroke-width="1" opacity="1"/><path transform="translate(98.78617103546318,1.9153966242282716)" d="M3.5355339059327378,0A3.5355339059327378,3.5355339059327378,0,1,1,-3.5355339059327378,0A3.5355339059327378,3.5355339059327378,0,1,1,3.5355339059327378,0" fill="white" stroke="steelblue" stroke-width="1" opacity="1"/><path transform="translate(39.802707329426724,21.898232395124584)" d="M3.5355339059327378,0A3.5355339059327378,3.5355339059327378,0,1,1,-3.5355339059327378,0A3.5355339059327378,3.5355339059327378,0,1,1,3.5355339059327378,0" fill="white" stroke="steelblue" stroke-width="1" opacity="1"/><path transform="translate(36.24024389007137,39.295531222621484)" d="M3.5355339059327378,0A3.5355339059327378,3.5355339059327378,0,1,1,-3.5355339059327378,0A3.5355339059327378,3.5355339059327378,0,1,1,3.5355339059327378,0" fill="white" stroke="steelblue" stroke-width="1" opacity="1"/><path transform="translate(23.438080766333357,74.72808370994484)" d="M3.5355339059327378,0A3.5355339059327378,3.5355339059327378,0,1,1,-3.5355339059327378,0A3.5355339059327378,3.5355339059327378,0,1,1,3.5355339059327378,0" fill="white" stroke="steelblue" stroke-width="1" opacity="1"/><path transform="translate(42.779602897318405,0.9131926094788856)" d="M3.5355339059327378,0A3.5355339059327378,3.5355339059327378,0,1,1,-3.5355339059327378,0A3.5355339059327378,3.5355339059327378,0,1,1,3.5355339059327378,0" fill="white" stroke="steelblue" stroke-width="1" opacity="1"/><path transform="translate(99.82681082198211,80.21310472779085)" d="M3.5355339059327378,0A3.5355339059327378,3.5355339059327378,0,1,1,-3.5355339059327378,0A3.5355339059327378,3.5355339059327378,0,1,1,3.5355339059327378,0" fill="white" stroke="steelblue" stroke-width="1" opacity="1"/><path transform="translate(61.80111892761262,94.09173076634903)" d="M3.5355339059327378,0A3.5355339059327378,3.5355339059327378,0,1,1,-3.5355339059327378,0A3.5355339059327378,3.5355339059327378,0,1,1,3.5355339059327378,0" fill="white" stroke="steelblue" stroke-width="1" opacity="1"/><path transform="translate(45.92273520649095,16.433654712779976)" d="M3.5355339059327378,0A3.5355339059327378,3.5355339059327378,0,1,1,-3.5355339059327378,0A3.5355339059327378,3.5355339059327378,0,1,1,3.5355339059327378,0" fill="white" stroke="steelblue" stroke-width="1" opacity="1"/><path transform="translate(23.262792999997252,16.25755816378407)" d="M3.5355339059327378,0A3.5355339059327378,3.5355339059327378,0,1,1,-3.5355339059327378,0A3.5355339059327378,3.5355339059327378,0,1,1,3.5355339059327378,0" fill="white" stroke="steelblue" stroke-width="1" opacity="1"/><path transform="translate(61.41374769425511,14.602730329803993)" d="M3.5355339059327378,0A3.5355339059327378,3.5355339059327378,0,1,1,-3.5355339059327378,0A3.5355339059327378,3.5355339059327378,0,1,1,3.5355339059327378,0" fill="white" stroke="steelblue" stroke-width="1" opacity="1"/><path transform="translate(91.7663793083359,61.001600196370376)" d="M3.5355339059327378,0A3.5355339059327378,3.5355339059327378,0,1,1,-3.5355339059327378,0A3.5355339059327378,3.5355339059327378,0,1,1,3.5355339059327378,0" fill="white" stroke="steelblue" stroke-width="1" opacity="1"/></g></g><path class="foreground" aria-hidden="true" d="" display="none"/></g></g></g><path class="foreground" aria-hidden="true" d="" display="none"/></g></g></g><defs><clipPath id="clip1"><rect x="0" y="0" width="100" height="100"/></clipPath></defs></svg>