<svg xmlns="http://www.w3.org/2000/svg" xmlns:xlink="http://www.w3.org/1999/xlink" version="1.1" class="marks" width="129" height="133" viewBox="0 0 129 133"><rect width="129" height="133" fill="white"/><g fill="none" stroke-miterlimit="10" transform="translate(29,0)"><g class="mark-group role-frame root" role="graphics-object" aria-roledescription="group mark container"><g transform="translate(0,0)"><path class="background" aria-hidden="true" d="M0,0h100v100h-100Z"/><g><g class="mark-group role-axis" role="graphics-symbol" aria-roledescription="axis" aria-label="X-axis titled 'sum of y' for a linear scale with values from −8 to 8"><g transform="translate(0.5,101.5)"><path class="background" aria-hidden="true" d="M0,0h0v0h0Z" pointer-events="none"/><g><g class="mark-rule role-axis-tick" pointer-events="none"><line transform="translate(25,0)" x2="0" y2="5" stroke="white" stroke-width="1.01" opacity="1"/><line transform="translate(75,0)" x2="0" y2="5" stroke="white" stroke-width="1.01" opacity="1"/></g><g class="mark-text role-axis-label" pointer-events="none"><text text-anchor="middle" transform="translate(25,15)" font-family="sans-serif" font-size="10px" font-style="normal" font-weight="400" fill="black" opacity="1">Male</text><text text-anchor="middle" transform="translate(75,15)" font-family="sans-serif" font-size="10px" font-style="normal" font-weight="400" fill="black" opacity="1">Female</text></g><g class="mark-text role-axis-title" pointer-events="none"><text text-anchor="middle" transform="translate(50,30)" font-family="sans-serif" font-size="11px" font-style="normal" font-weight="400" fill="white" opacity="1">sum of y</text></g></g><path class="foreground" aria-hidden="true" d="" pointer-events="none" display="none"/></g></g><g class="mark-group role-axis" role="graphics-symbol" aria-roledescription="axis" aria-label="Y-axis titled 'x' for a discrete scale with 5 values: 1, 2, 3, 4, 5"><g transform="translate(-0.5,0.5)"><path class="background" aria-hidden="true" d="M0,0h0v0h0Z" pointer-events="none"/><g><g class="mark-rule role-axis-tick" pointer-events="none"><line transform="translate(0,90)" x2="-5" y2="0" stroke="white" stroke-width="1.01" opacity="1"/><line transform="translate(0,70)" x2="-5" y2="0" stroke="white" stroke-width="1.01" opacity="1"/><line transform="translate(0,50)" x2="-5" y2="0" stroke="white" stroke-width="1.01" opacity="1"/><line transform="translate(0,30)" x2="-5" y2="0" stroke="white" stroke-width="1.01" opacity="1"/><line transform="translate(0,10)" x2="-5" y2="0" stroke="white" stroke-width="1.01" opacity="1"/></g><g class="mark-text role-axis-label" pointer-events="none"><text text-anchor="end" transform="translate(-7,92.5)" font-family="sans-serif" font-size="10px" font-style="normal" font-weight="400" fill="white" opacity="1">1</text><text text-anchor="end" transform="translate(-7,72.5)" font-family="sans-serif" font-size="10px" font-style="normal" font-weight="400" fill="white" opacity="1">2</text><text text-anchor="end" transform="translate(-7,52.5)" font-family="sans-serif" font-size="10px" font-style="normal" font-weight="400" fill="white" opacity="1">3</text><text text-anchor="end" transform="translate(-7,32.5)" font-family="sans-serif" font-size="10px" font-style="normal" font-weight="400" fill="white" opacity="1">4</text><text text-anchor="end" transform="translate(-7,12.5)" font-family="sans-serif" font-size="10px" font-style="normal" font-weight="400" fill="white" opacity="1">5</text></g><g class="mark-text role-axis-title" pointer-events="none"><text text-anchor="middle" transform="translate(-17,50) rotate(-90) translate(0,-2)" font-family="sans-serif" font-size="11px" font-style="normal" font-weight="400" fill="white" opacity="1">x</text></g></g><path class="foreground" aria-hidden="true" d="" pointer-events="none" display="none"/></g></g><g class="mark-group role-scope" clip-path="url(#clip1)" role="graphics-object" aria-roledescription="group mark container"><g transform="translate(0,0)"><path class="background" aria-hidden="true" d="M0,0h0v0h0Z"/><g><g class="mark-rect role-mark" role="graphics-symbol" aria-roledescription="rect mark container"><path d="M18.75,80h31.25v20h-31.25Z" fill="#4c78a8" stroke="white" stroke-width="1" opacity="1"/><path d="M6.25,60h43.75v20h-43.75Z" fill="#4c78a8" stroke="white" stroke-width="1" opacity="1"/><path d="M12.5,40h37.5v20h-37.5Z" fill="#4c78a8" stroke="white" stroke-width="1" opacity="1"/><path d="M25,20h25v20h-25Z" fill="#4c78a8" stroke="white" stroke-width="1" opacity="1"/><path d="M37.5,0h12.5v20h-12.5Z" fill="#4c78a8" stroke="white" stroke-width="1" opacity="1"/></g></g><path class="foreground" aria-hidden="true" d="" display="none"/></g><g transform="translate(0,0)"><path class="background" aria-hidden="true" d="M0,0h0v0h0Z"/><g><g class="mark-rect role-mark" role="graphics-symbol" aria-roledescription="rect mark container"><path d="M50,80h37.5v20h-37.5Z" fill="#f58518" stroke="white" stroke-width="1" opacity="1"/><path d="M50,60h50v20h-50Z" fill="#f58518" stroke="white" stroke-width="1" opacity="1"/><path d="M50,40h43.75v20h-43.75Z" fill="#f58518" stroke="white" stroke-width="1" opacity="1"/><path d="M50,20h25v20h-25Z" fill="#f58518" stroke="white" stroke-width="1" opacity="1"/><path d="M50,0h6.25v20h-6.25Z" fill="#f58518" stroke="white" stroke-width="1" opacity="1"/></g></g><path class="foreground" aria-hidden="true" d="" display="none"/></g></g></g><path class="foreground" aria-hidden="true" d="" display="none"/></g></g></g><defs><clipPath id="clip1"><rect x="0" y="0" width="100" height="100"/></clipPath></defs></svg>