<svg xmlns="http://www.w3.org/2000/svg" xmlns:xlink="http://www.w3.org/1999/xlink" version="1.1" class="marks" width="137" height="132" viewBox="0 0 137 132"><rect width="137" height="132" fill="white"/><g fill="none" stroke-miterlimit="10" transform="translate(37,0)"><g class="mark-group role-frame root" role="graphics-object" aria-roledescription="group mark container"><g transform="translate(0,0)"><path class="background" aria-hidden="true" d="M0,0h100v100h-100Z"/><g><g class="mark-group role-axis" role="graphics-symbol" aria-roledescription="axis" aria-label="X-axis titled 'x' for a linear scale with values from −4 to 3"><g transform="translate(0,100)"><path class="background" aria-hidden="true" d="M0,0h0v0h0Z" pointer-events="none"/><g><g class="mark-rule role-axis-grid" pointer-events="none"><line transform="translate(0,0)" x2="0" y2="-100" stroke="lightgray" stroke-width="0.5" stroke-dasharray="3" opacity="1"/><line transform="translate(29,0)" x2="0" y2="-100" stroke="lightgray" stroke-width="0.5" stroke-dasharray="3" opacity="1"/><line transform="translate(57,0)" x2="0" y2="-100" stroke="lightgray" stroke-width="0.5" stroke-dasharray="3" opacity="1"/><line transform="translate(86,0)" x2="0" y2="-100" stroke="lightgray" stroke-width="0.5" stroke-dasharray="3" opacity="1"/></g><g class="mark-rule role-axis-tick" pointer-events="none"><line transform="translate(0,0)" x2="0" y2="5" stroke="black" stroke-width="1.01" opacity="1"/><line transform="translate(29,0)" x2="0" y2="5" stroke="black" stroke-width="1.01" opacity="1"/><line transform="translate(57,0)" x2="0" y2="5" stroke="black" stroke-width="1.01" opacity="1"/><line transform="translate(86,0)" x2="0" y2="5" stroke="black" stroke-width="1.01" opacity="1"/></g><g class="mark-text role-axis-label" pointer-events="none"><text text-anchor="middle" transform="translate(0,15)" font-family="sans-serif" font-size="10px" font-style="normal" font-weight="400" fill="black" opacity="1">−4</text><text text-anchor="middle" transform="translate(28.57142857142857,15)" font-family="sans-serif" font-size="10px" font-style="normal" font-weight="400" fill="black" opacity="1">−2</text><text text-anchor="middle" transform="translate(57.14285714285714,15)" font-family="sans-serif" font-size="10px" font-style="normal" font-weight="400" fill="black" opacity="1">0</text><text text-anchor="middle" transform="translate(85.71428571428571,15)" font-family="sans-serif" font-size="10px" font-style="normal" font-weight="400" fill="black" opacity="1">2</text></g><g class="mark-rule role-axis-domain" pointer-events="none"><line transform="translate(0,0)" x2="100" y2="0" stroke="black" stroke-width="1.01" opacity="1"/></g><g class="mark-text role-axis-title" pointer-events="none"><text text-anchor="middle" transform="translate(50,30)" font-family="sans-serif" font-size="11px" font-style="normal" font-weight="400" fill="black" opacity="1">x</text></g></g><path class="foreground" aria-hidden="true" d="" pointer-events="none" display="none"/></g></g><g class="mark-group role-axis" role="graphics-symbol" aria-roledescription="axis" aria-label="Y-axis titled 'y' for a linear scale with values from −4 to 3"><g transform="translate(0,0)"><path class="background" aria-hidden="true" d="M0,0h0v0h0Z" pointer-events="none"/><g><g class="mark-rule role-axis-grid" pointer-events="none"><line transform="translate(0,77)" x2="100" y2="0" stroke="lightgray" stroke-width="0.5" stroke-dasharray="3" opacity="1"/><line transform="translate(0,46)" x2="100" y2="0" stroke="lightgray" stroke-width="0.5" stroke-dasharray="3" opacity="1"/><line transform="translate(0,15)" x2="100" y2="0" stroke="lightgray" stroke-width="0.5" stroke-dasharray="3" opacity="1"/></g><g class="mark-rule role-axis-tick" pointer-events="none"><line transform="translate(0,77)" x2="-5" y2="0" stroke="black" stroke-width="1.01" opacity="1"/><line transform="translate(0,46)" x2="-5" y2="0" stroke="black" stroke-width="1.01" opacity="1"/><line transform="translate(0,15)" x2="-5" y2="0" stroke="black" stroke-width="1.01" opacity="1"/></g><g class="mark-text role-axis-label" pointer-events="none"><text text-anchor="end" transform="translate(-7,79.92307692307692)" font-family="sans-serif" font-size="10px" font-style="normal" font-weight="400" fill="black" opacity="1">−2</text><text text-anchor="end" transform="translate(-7,49.15384615384615)" font-family="sans-serif" font-size="10px" font-style="normal" font-weight="400" fill="black" opacity="1">0</text><text text-anchor="end" transform="translate(-7,18.384615384615387)" font-family="sans-serif" font-size="10px" font-style="normal" font-weight="400" fill="black" opacity="1">2</text></g><g class="mark-rule role-axis-domain" pointer-events="none"><line transform="translate(0,100)" x2="0" y2="-100" stroke="black" stroke-width="1.01" opacity="1"/></g><g class="mark-text role-axis-title" pointer-events="none"><text text-anchor="middle" transform="translate(-25.7412109375,50) rotate(-90) translate(0,-2)" font-family="sans-serif" font-size="11px" font-style="normal" font-weight="400" fill="black" opacity="1">y</text></g></g><path class="foreground" aria-hidden="true" d="" pointer-events="none" display="none"/></g></g><g class="mark-group role-scope" clip-path="url(#clip1)" role="graphics-object" aria-roledescription="group mark container"><g transform="translate(0,0)"><path class="background" aria-hidden="true" d="M0,0h0v0h0Z"/><g><g class="mark-rect role-mark" role="graphics-symbol" aria-roledescription="rect mark container"><path d="M6.06351069391902,73.73463471270726h22.874137379961674v23.083385544580295h-22.874137379961674Z" fill="rgb(68, 1, 84)" opacity="1"/><path d="M28.937648073880695,73.73463471270726h22.874137379961688v23.083385544580295h-22.874137379961688Z" fill="rgb(71, 19, 101)" opacity="1"/><path d="M51.81178545384238,73.73463471270726h22.874137379961674v23.083385544580295h-22.874137379961674Z" fill="rgb(72, 26, 108)" opacity="1"/><path d="M74.68592283380406,73.73463471270726h22.87413737996168v23.083385544580295h-22.87413737996168Z" fill="rgb(68, 3, 86)" opacity="1"/><path d="M6.06351069391902,50.65124916812695h22.874137379961674v23.08338554458031h-22.874137379961674Z" fill="rgb(69, 7, 90)" opacity="1"/><path d="M28.937648073880695,50.65124916812695h22.874137379961688v23.08338554458031h-22.874137379961688Z" fill="rgb(36, 134, 142)" opacity="1"/><path d="M51.81178545384238,50.65124916812695h22.874137379961674v23.08338554458031h-22.874137379961674Z" fill="rgb(111, 206, 88)" opacity="1"/><path d="M74.68592283380406,50.65124916812695h22.87413737996168v23.08338554458031h-22.87413737996168Z" fill="rgb(69, 53, 128)" opacity="1"/><path d="M6.06351069391902,27.56786362354665h22.874137379961674v23.083385544580302h-22.874137379961674Z" fill="rgb(72, 23, 105)" opacity="1"/><path d="M28.937648073880695,27.56786362354665h22.874137379961688v23.083385544580302h-22.874137379961688Z" fill="rgb(46, 178, 125)" opacity="1"/><path d="M51.81178545384238,27.56786362354665h22.874137379961674v23.083385544580302h-22.874137379961674Z" fill="rgb(253, 231, 37)" opacity="1"/><path d="M74.68592283380406,27.56786362354665h22.87413737996168v23.083385544580302h-22.87413737996168Z" fill="rgb(61, 77, 138)" opacity="1"/><path d="M6.06351069391902,4.484478078966347h22.874137379961674v23.083385544580302h-22.874137379961674Z" fill="rgb(69, 4, 87)" opacity="1"/><path d="M28.937648073880695,4.484478078966347h22.874137379961688v23.083385544580302h-22.874137379961688Z" fill="rgb(71, 43, 122)" opacity="1"/><path d="M51.81178545384238,4.484478078966347h22.874137379961674v23.083385544580302h-22.874137379961674Z" fill="rgb(63, 72, 136)" opacity="1"/><path d="M74.68592283380406,4.484478078966347h22.87413737996168v23.083385544580302h-22.87413737996168Z" fill="rgb(71, 17, 100)" opacity="1"/></g></g><path class="foreground" aria-hidden="true" d="" display="none"/></g></g></g><path class="foreground" aria-hidden="true" d="" display="none"/></g></g></g><defs><clipPath id="clip1"><rect x="0" y="0" width="100" height="100"/></clipPath></defs></svg>