<svg xmlns="http://www.w3.org/2000/svg" xmlns:xlink="http://www.w3.org/1999/xlink" version="1.1" class="marks" width="123" height="117" viewBox="0 0 123 117"><rect width="123" height="117" fill="white"/><g fill="none" stroke-miterlimit="10" transform="translate(22,0)"><g class="mark-group role-frame root" role="graphics-object" aria-roledescription="group mark container"><g transform="translate(0,0)"><path class="background" aria-hidden="true" d="M0,0h100v100h-100Z"/><g><g class="mark-group role-axis" role="graphics-symbol" aria-roledescription="axis" aria-label="X-axis for a discrete scale with 1 value: variable(s)"><g transform="translate(0.5,100.5)"><path class="background" aria-hidden="true" d="M0,0h0v0h0Z" pointer-events="none"/><g><g class="mark-rule role-axis-tick" pointer-events="none"><line transform="translate(50,0)" x2="0" y2="5" stroke="white" stroke-width="1.01" opacity="1"/></g><g class="mark-text role-axis-label" pointer-events="none"><text text-anchor="middle" transform="translate(49.5,15)" font-family="sans-serif" font-size="10px" font-style="normal" font-weight="400" fill="black" opacity="1">variable(s)</text></g></g><path class="foreground" aria-hidden="true" d="" pointer-events="none" display="none"/></g></g><g class="mark-group role-axis" role="graphics-symbol" aria-roledescription="axis" aria-label="Y-axis for a linear scale with values from −3 to 4"><g transform="translate(0.5,0.5)"><path class="background" aria-hidden="true" d="M0,0h0v0h0Z" pointer-events="none"/><g><g class="mark-rule role-axis-tick" pointer-events="none"><line transform="translate(0,85)" x2="-5" y2="0" stroke="white" stroke-width="1.01" opacity="1"/><line transform="translate(0,54)" x2="-5" y2="0" stroke="white" stroke-width="1.01" opacity="1"/><line transform="translate(0,23)" x2="-5" y2="0" stroke="white" stroke-width="1.01" opacity="1"/></g><g class="mark-text role-axis-label" pointer-events="none"><text text-anchor="end" transform="translate(-7,87.61538461538461)" font-family="sans-serif" font-size="10px" font-style="normal" font-weight="400" fill="white" opacity="1">−2</text><text text-anchor="end" transform="translate(-7,56.84615384615385)" font-family="sans-serif" font-size="10px" font-style="normal" font-weight="400" fill="white" opacity="1">0</text><text text-anchor="end" transform="translate(-7,26.076923076923073)" font-family="sans-serif" font-size="10px" font-style="normal" font-weight="400" fill="white" opacity="1">2</text></g></g><path class="foreground" aria-hidden="true" d="" pointer-events="none" display="none"/></g></g><g class="mark-group role-scope" role="graphics-object" aria-roledescription="group mark container"><g transform="translate(0,0)"><path class="background" aria-hidden="true" d="M0,0h0v0h0Z"/><g><g class="mark-rect role-mark" role="graphics-symbol" aria-roledescription="rect mark container"><path d="M0,41.383973459088516h24.050632911392405v19.981096642644708h-24.050632911392405Z" fill="#4c78a8" stroke="white" stroke-width="1" opacity="1"/><path d="M25.31645569620253,44.71123992681368h24.050632911392405v21.250442933147617h-24.050632911392405Z" fill="#f58518" stroke="white" stroke-width="1" opacity="1"/><path d="M50.63291139240506,43.619974056393154h24.050632911392405v19.21670443172234h-24.050632911392405Z" fill="#e45756" stroke="white" stroke-width="1" opacity="1"/><path d="M75.9493670886076,42.96068561044698h24.050632911392405v17.57225665134864h-24.050632911392405Z" fill="#72b7b2" stroke="white" stroke-width="1" opacity="1"/></g><g class="mark-rule role-mark" role="graphics-symbol" aria-roledescription="rule mark container"><line transform="translate(0,50.48397689088486)" x2="24.050632911392405" y2="0" fill="#4c78a8" stroke="white" stroke-width="1" opacity="1"/><line transform="translate(25.31645569620253,55.495265132644576)" x2="24.050632911392405" y2="0" fill="#f58518" stroke="white" stroke-width="1" opacity="1"/><line transform="translate(50.63291139240506,53.29703703226972)" x2="24.050632911392412" y2="0" fill="#e45756" stroke="white" stroke-width="1" opacity="1"/><line transform="translate(75.9493670886076,50.241759867647794)" x2="24.0506329113924" y2="0" fill="#72b7b2" stroke="white" stroke-width="1" opacity="1"/></g><g class="mark-symbol role-mark" role="graphics-symbol" aria-roledescription="symbol mark container"><path transform="translate(12.025316455696203,52.570620474118776)" d="M-3.162,0L0,-3.162L3.162,0L0,3.162Z" fill="#4c78a8" stroke="white" stroke-width="1" opacity="1"/><path transform="translate(37.34177215189874,56.16049020819851)" d="M-3.162,0L0,-3.162L3.162,0L0,3.162Z" fill="#f58518" stroke="white" stroke-width="1" opacity="1"/><path transform="translate(62.65822784810126,53.18962179244804)" d="M-3.162,0L0,-3.162L3.162,0L0,3.162Z" fill="#e45756" stroke="white" stroke-width="1" opacity="1"/><path transform="translate(87.9746835443038,51.8046371720553)" d="M-3.162,0L0,-3.162L3.162,0L0,3.162Z" fill="#72b7b2" stroke="white" stroke-width="1" opacity="1"/></g><g class="mark-rule role-mark" role="graphics-symbol" aria-roledescription="rule mark container"><line transform="translate(12.025316455696203,61.365070101733224)" x2="0" y2="29.971644963967066" fill="#4c78a8" stroke="black" stroke-width="1" stroke-dasharray="0" opacity="1"/><line transform="translate(37.34177215189874,65.9616828599613)" x2="0" y2="31.875664399721444" fill="#f58518" stroke="black" stroke-width="1" stroke-dasharray="0" opacity="1"/><line transform="translate(62.65822784810126,62.836678488115496)" x2="0" y2="18.90092368320731" fill="#e45756" stroke="black" stroke-width="1" stroke-dasharray="0" opacity="1"/><line transform="translate(87.9746835443038,60.53294226179562)" x2="0" y2="26.358384977022958" fill="#72b7b2" stroke="black" stroke-width="1" stroke-dasharray="0" opacity="1"/></g><g class="mark-rule role-mark" role="graphics-symbol" aria-roledescription="rule mark container"><line transform="translate(12.025316455696203,41.383973459088516)" x2="0" y2="-28.243420867321674" fill="#4c78a8" stroke="black" stroke-width="1" stroke-dasharray="0" opacity="1"/><line transform="translate(37.34177215189874,44.71123992681368)" x2="0" y2="-24.693187560092476" fill="#f58518" stroke="black" stroke-width="1" stroke-dasharray="0" opacity="1"/><line transform="translate(62.65822784810126,43.619974056393154)" x2="0" y2="-27.572608876927344" fill="#e45756" stroke="black" stroke-width="1" stroke-dasharray="0" opacity="1"/><line transform="translate(87.9746835443038,42.96068561044698)" x2="0" y2="-26.358384977022965" fill="#72b7b2" stroke="black" stroke-width="1" stroke-dasharray="0" opacity="1"/></g><g class="mark-rule role-mark lower_fence" role="graphics-symbol" aria-roledescription="rule mark container"><line transform="translate(6.012658227848101,91.33671506570029)" x2="12.025316455696204" y2="0" fill="#4c78a8" stroke="black" stroke-width="1" opacity="1"/><line transform="translate(31.32911392405063,97.83734725968274)" x2="12.025316455696206" y2="0" fill="#f58518" stroke="black" stroke-width="1" opacity="1"/><line transform="translate(56.64556962025316,81.7376021713228)" x2="12.025316455696206" y2="0" fill="#e45756" stroke="black" stroke-width="1" opacity="1"/><line transform="translate(81.96202531645571,86.89132723881858)" x2="12.0253164556962" y2="0" fill="#72b7b2" stroke="black" stroke-width="1" opacity="1"/></g><g class="mark-rule role-mark upper_fence" role="graphics-symbol" aria-roledescription="rule mark container"><line transform="translate(6.012658227848101,13.140552591766841)" x2="12.025316455696204" y2="0" fill="#4c78a8" stroke="black" stroke-width="1" opacity="1"/><line transform="translate(31.32911392405063,20.018052366721207)" x2="12.025316455696206" y2="0" fill="#f58518" stroke="black" stroke-width="1" opacity="1"/><line transform="translate(56.64556962025316,16.04736517946581)" x2="12.025316455696206" y2="0" fill="#e45756" stroke="black" stroke-width="1" opacity="1"/><line transform="translate(81.96202531645571,16.602300633424015)" x2="12.0253164556962" y2="0" fill="#72b7b2" stroke="black" stroke-width="1" opacity="1"/></g></g><path class="foreground" aria-hidden="true" d="" display="none"/></g></g><g class="mark-group role-scope" role="graphics-object" aria-roledescription="group mark container"><g transform="translate(0,0)"><path class="background" aria-hidden="true" d="M0,0h0v0h0Z"/><g><g class="mark-symbol role-mark" role="graphics-symbol" aria-roledescription="symbol mark container"><path transform="translate(12.025316455696203,91.40398746366863)" d="M2.739,0A2.739,2.739,0,1,1,-2.739,0A2.739,2.739,0,1,1,2.739,0" fill="#4c78a8" stroke="white" stroke-width="1" opacity="1"/><path transform="translate(37.34177215189874,99.85101200936096)" d="M2.739,0A2.739,2.739,0,1,1,-2.739,0A2.739,2.739,0,1,1,2.739,0" fill="#f58518" stroke="white" stroke-width="1" opacity="1"/><path transform="translate(87.9746835443038,89.97902801319003)" d="M2.739,0A2.739,2.739,0,1,1,-2.739,0A2.739,2.739,0,1,1,2.739,0" fill="#72b7b2" stroke="white" stroke-width="1" opacity="1"/><path transform="translate(87.9746835443038,4.043684677443338)" d="M2.739,0A2.739,2.739,0,1,1,-2.739,0A2.739,2.739,0,1,1,2.739,0" fill="#72b7b2" stroke="white" stroke-width="1" opacity="1"/></g></g><path class="foreground" aria-hidden="true" d="" display="none"/></g></g></g><path class="foreground" aria-hidden="true" d="" display="none"/></g></g></g></svg>