<svg xmlns="http://www.w3.org/2000/svg" xmlns:xlink="http://www.w3.org/1999/xlink" version="1.1" class="marks" width="145" height="137" viewBox="0 0 145 137"><rect width="145" height="137" fill="white"/><g fill="none" stroke-miterlimit="10" transform="translate(38,5)"><g class="mark-group role-frame root" role="graphics-object" aria-roledescription="group mark container"><g transform="translate(0,0)"><path class="background" aria-hidden="true" d="M0,0h100v100h-100Z"/><g><g class="mark-group role-axis" role="graphics-symbol" aria-roledescription="axis" aria-label="X-axis titled 'x' for a linear scale with values from −4 to 10"><g transform="translate(0,100)"><path class="background" aria-hidden="true" d="M0,0h0v0h0Z" pointer-events="none"/><g><g class="mark-rule role-axis-grid" pointer-events="none"><line transform="translate(29,0)" x2="0" y2="-100" stroke="lightgray" stroke-width="0.5" stroke-dasharray="3" opacity="1"/><line transform="translate(64,0)" x2="0" y2="-100" stroke="lightgray" stroke-width="0.5" stroke-dasharray="3" opacity="1"/><line transform="translate(100,0)" x2="0" y2="-100" stroke="lightgray" stroke-width="0.5" stroke-dasharray="3" opacity="1"/></g><g class="mark-rule role-axis-tick" pointer-events="none"><line transform="translate(29,0)" x2="0" y2="5" stroke="black" stroke-width="1.01" opacity="1"/><line transform="translate(64,0)" x2="0" y2="5" stroke="black" stroke-width="1.01" opacity="1"/><line transform="translate(100,0)" x2="0" y2="5" stroke="black" stroke-width="1.01" opacity="1"/></g><g class="mark-text role-axis-label" pointer-events="none"><text text-anchor="middle" transform="translate(28.57142857142857,15)" font-family="sans-serif" font-size="10px" font-style="normal" font-weight="400" fill="black" opacity="1">0</text><text text-anchor="middle" transform="translate(64.28571428571429,15)" font-family="sans-serif" font-size="10px" font-style="normal" font-weight="400" fill="black" opacity="1">5</text><text text-anchor="middle" transform="translate(100,15)" font-family="sans-serif" font-size="10px" font-style="normal" font-weight="400" fill="black" opacity="1">10</text></g><g class="mark-rule role-axis-domain" pointer-events="none"><line transform="translate(0,0)" x2="100" y2="0" stroke="black" stroke-width="1.01" opacity="1"/></g><g class="mark-text role-axis-title" pointer-events="none"><text text-anchor="middle" transform="translate(50,30)" font-family="sans-serif" font-size="11px" font-style="normal" font-weight="400" fill="black" opacity="1">x</text></g></g><path class="foreground" aria-hidden="true" d="" pointer-events="none" display="none"/></g></g><g class="mark-group role-axis" role="graphics-symbol" aria-roledescription="axis" aria-label="Y-axis titled 'pdf' for a linear scale with values from 0.0 to 0.4"><g transform="translate(0,0)"><path class="background" aria-hidden="true" d="M0,0h0v0h0Z" pointer-events="none"/><g><g class="mark-rule role-axis-grid" pointer-events="none"><line transform="translate(0,100)" x2="100" y2="0" stroke="lightgray" stroke-width="0.5" stroke-dasharray="3" opacity="1"/><line transform="translate(0,75)" x2="100" y2="0" stroke="lightgray" stroke-width="0.5" stroke-dasharray="3" opacity="1"/><line transform="translate(0,50)" x2="100" y2="0" stroke="lightgray" stroke-width="0.5" stroke-dasharray="3" opacity="1"/><line transform="translate(0,25)" x2="100" y2="0" stroke="lightgray" stroke-width="0.5" stroke-dasharray="3" opacity="1"/><line transform="translate(0,0)" x2="100" y2="0" stroke="lightgray" stroke-width="0.5" stroke-dasharray="3" opacity="1"/></g><g class="mark-rule role-axis-tick" pointer-events="none"><line transform="translate(0,100)" x2="-5" y2="0" stroke="black" stroke-width="1.01" opacity="1"/><line transform="translate(0,75)" x2="-5" y2="0" stroke="black" stroke-width="1.01" opacity="1"/><line transform="translate(0,50)" x2="-5" y2="0" stroke="black" stroke-width="1.01" opacity="1"/><line transform="translate(0,25)" x2="-5" y2="0" stroke="black" stroke-width="1.01" opacity="1"/><line transform="translate(0,0)" x2="-5" y2="0" stroke="black" stroke-width="1.01" opacity="1"/></g><g class="mark-text role-axis-label" pointer-events="none"><text text-anchor="end" transform="translate(-7,103)" font-family="sans-serif" font-size="10px" font-style="normal" font-weight="400" fill="black" opacity="1">0.0</text><text text-anchor="end" transform="translate(-7,78)" font-family="sans-serif" font-size="10px" font-style="normal" font-weight="400" fill="black" opacity="1">0.1</text><text text-anchor="end" transform="translate(-7,53)" font-family="sans-serif" font-size="10px" font-style="normal" font-weight="400" fill="black" opacity="1">0.2</text><text text-anchor="end" transform="translate(-7,28.00000000000001)" font-family="sans-serif" font-size="10px" font-style="normal" font-weight="400" fill="black" opacity="1">0.3</text><text text-anchor="end" transform="translate(-7,3)" font-family="sans-serif" font-size="10px" font-style="normal" font-weight="400" fill="black" opacity="1">0.4</text></g><g class="mark-rule role-axis-domain" pointer-events="none"><line transform="translate(0,100)" x2="0" y2="-100" stroke="black" stroke-width="1.01" opacity="1"/></g><g class="mark-text role-axis-title" pointer-events="none"><text text-anchor="middle" transform="translate(-26.9033203125,50) rotate(-90) translate(0,-2)" font-family="sans-serif" font-size="11px" font-style="normal" font-weight="400" fill="black" opacity="1">pdf</text></g></g><path class="foreground" aria-hidden="true" d="" pointer-events="none" display="none"/></g></g><g class="mark-group role-scope" clip-path="url(#clip1)" role="graphics-object" aria-roledescription="group mark container"><g transform="translate(0,0)"><path class="background" aria-hidden="true" d="M0,0h0v0h0Z"/><g><g class="mark-area role-mark" role="graphics-symbol" aria-roledescription="area mark container"><path d="M6.678,99.917L7.193,99.876L7.709,99.816L8.224,99.733L8.739,99.617L9.255,99.459L9.77,99.245L10.285,98.962L10.801,98.591L11.316,98.112L11.832,97.502L12.347,96.736L12.862,95.786L13.378,94.625L13.893,93.223L14.409,91.554L14.924,89.591L15.439,87.314L15.955,84.706L16.47,81.76L16.986,78.476L17.501,74.864L18.016,70.945L18.532,66.752L19.047,62.329L19.563,57.729L20.078,53.013L20.593,48.25L21.109,43.511L21.624,38.869L22.139,34.396L22.655,30.163L23.17,26.231L23.686,22.66L24.201,19.501L24.716,16.797L25.232,14.581L25.747,12.879L26.263,11.704L26.778,11.06L27.293,10.937L27.809,11.314L28.324,12.157L28.84,13.423L29.355,15.057L29.87,17.002L30.386,19.196L30.901,21.578L31.417,24.093L31.932,26.691L32.447,29.33L32.963,31.975L33.478,34.6L33.993,37.184L34.509,39.709L35.024,42.158L35.54,44.514L36.055,46.761L36.57,48.883L37.086,50.864L37.601,52.693L38.117,54.367L38.632,55.89L39.147,57.275L39.663,58.548L40.178,59.742L40.694,60.897L41.209,62.06L41.724,63.273L42.24,64.576L42.755,66.002L43.27,67.571L43.786,69.293L44.301,71.164L44.817,73.166L45.332,75.274L45.847,77.452L46.363,79.661L46.878,81.86L47.394,84.008L47.909,86.069L48.424,88.01L48.94,89.807L49.455,91.442L49.971,92.906L50.486,94.195L51.001,95.311L51.517,96.262L52.032,97.06L52.548,97.719L53.063,98.255L53.578,98.683L54.094,99.02L54.609,99.281L55.124,99.481L55.64,99.63L56.155,99.74L56.671,99.821L57.186,99.878L57.701,99.918L57.701,100L57.186,100L56.671,100L56.155,100L55.64,100L55.124,100L54.609,100L54.094,100L53.578,100L53.063,100L52.548,100L52.032,100L51.517,100L51.001,100L50.486,100L49.971,100L49.455,100L48.94,100L48.424,100L47.909,100L47.394,100L46.878,100L46.363,100L45.847,100L45.332,100L44.817,100L44.301,100L43.786,100L43.27,100L42.755,100L42.24,100L41.724,100L41.209,100L40.694,100L40.178,100L39.663,100L39.147,100L38.632,100L38.117,100L37.601,100L37.086,100L36.57,100L36.055,100L35.54,100L35.024,100L34.509,100L33.993,100L33.478,100L32.963,100L32.447,100L31.932,100L31.417,100L30.901,100L30.386,100L29.87,100L29.355,100L28.84,100L28.324,100L27.809,100L27.293,100L26.778,100L26.263,100L25.747,100L25.232,100L24.716,100L24.201,100L23.686,100L23.17,100L22.655,100L22.139,100L21.624,100L21.109,100L20.593,100L20.078,100L19.563,100L19.047,100L18.532,100L18.016,100L17.501,100L16.986,100L16.47,100L15.955,100L15.439,100L14.924,100L14.409,100L13.893,100L13.378,100L12.862,100L12.347,100L11.832,100L11.316,100L10.801,100L10.285,100L9.77,100L9.255,100L8.739,100L8.224,100L7.709,100L7.193,100L6.678,100Z" fill="#4c78a8" fill-opacity="0.5" stroke="#4c78a8" stroke-width="1" opacity="1"/></g></g><path class="foreground" aria-hidden="true" d="" display="none"/></g><g transform="translate(0,0)"><path class="background" aria-hidden="true" d="M0,0h0v0h0Z"/><g><g class="mark-area role-mark" role="graphics-symbol" aria-roledescription="area mark container"><path d="M45.874,99.941L46.394,99.907L46.915,99.857L47.435,99.785L47.955,99.685L48.475,99.547L48.995,99.363L49.515,99.124L50.036,98.82L50.556,98.442L51.076,97.982L51.596,97.435L52.116,96.796L52.637,96.063L53.157,95.233L53.677,94.305L54.197,93.273L54.717,92.13L55.237,90.864L55.758,89.46L56.278,87.895L56.798,86.147L57.318,84.191L57.838,82.005L58.359,79.574L58.879,76.891L59.399,73.96L59.919,70.8L60.439,67.44L60.959,63.918L61.48,60.282L62,56.579L62.52,52.854L63.04,49.141L63.56,45.467L64.081,41.843L64.601,38.27L65.121,34.738L65.641,31.239L66.161,27.763L66.681,24.318L67.202,20.924L67.722,17.626L68.242,14.49L68.762,11.602L69.282,9.061L69.803,6.971L70.323,5.428L70.843,4.512L71.363,4.27L71.883,4.717L72.403,5.825L72.924,7.525L73.444,9.718L73.964,12.278L74.484,15.072L75.004,17.972L75.525,20.873L76.045,23.703L76.565,26.43L77.085,29.068L77.605,31.665L78.125,34.297L78.646,37.049L79.166,40.005L79.686,43.224L80.206,46.737L80.726,50.533L81.247,54.564L81.767,58.749L82.287,62.984L82.807,67.155L83.327,71.153L83.847,74.882L84.368,78.273L84.888,81.286L85.408,83.908L85.928,86.156L86.448,88.064L86.969,89.678L87.489,91.051L88.009,92.233L88.529,93.268L89.049,94.189L89.569,95.021L90.09,95.777L90.61,96.464L91.13,97.084L91.65,97.636L92.17,98.119L92.691,98.533L93.211,98.879L93.731,99.161L94.251,99.386L94.771,99.561L95.291,99.693L95.812,99.79L96.332,99.86L96.852,99.908L97.372,99.941L97.372,100L96.852,100L96.332,100L95.812,100L95.291,100L94.771,100L94.251,100L93.731,100L93.211,100L92.691,100L92.17,100L91.65,100L91.13,100L90.61,100L90.09,100L89.569,100L89.049,100L88.529,100L88.009,100L87.489,100L86.969,100L86.448,100L85.928,100L85.408,100L84.888,100L84.368,100L83.847,100L83.327,100L82.807,100L82.287,100L81.767,100L81.247,100L80.726,100L80.206,100L79.686,100L79.166,100L78.646,100L78.125,100L77.605,100L77.085,100L76.565,100L76.045,100L75.525,100L75.004,100L74.484,100L73.964,100L73.444,100L72.924,100L72.403,100L71.883,100L71.363,100L70.843,100L70.323,100L69.803,100L69.282,100L68.762,100L68.242,100L67.722,100L67.202,100L66.681,100L66.161,100L65.641,100L65.121,100L64.601,100L64.081,100L63.56,100L63.04,100L62.52,100L62,100L61.48,100L60.959,100L60.439,100L59.919,100L59.399,100L58.879,100L58.359,100L57.838,100L57.318,100L56.798,100L56.278,100L55.758,100L55.237,100L54.717,100L54.197,100L53.677,100L53.157,100L52.637,100L52.116,100L51.596,100L51.076,100L50.556,100L50.036,100L49.515,100L48.995,100L48.475,100L47.955,100L47.435,100L46.915,100L46.394,100L45.874,100Z" fill="#f58518" fill-opacity="0.5" stroke="#f58518" stroke-width="1" opacity="1"/></g></g><path class="foreground" aria-hidden="true" d="" display="none"/></g><g transform="translate(0,0)"><path class="background" aria-hidden="true" d="M0,0h0v0h0Z"/><g><g class="mark-area role-mark" role="graphics-symbol" aria-roledescription="area mark container"><path d="M15.346,99.931L15.948,99.894L16.549,99.839L17.151,99.76L17.753,99.651L18.354,99.501L18.956,99.302L19.558,99.042L20.159,98.71L20.761,98.296L21.362,97.791L21.964,97.19L22.566,96.49L23.167,95.692L23.769,94.803L24.371,93.833L24.972,92.796L25.574,91.704L26.176,90.572L26.777,89.411L27.379,88.222L27.98,87.003L28.582,85.738L29.184,84.405L29.785,82.969L30.387,81.393L30.989,79.636L31.59,77.66L32.192,75.431L32.794,72.931L33.395,70.152L33.997,67.102L34.598,63.806L35.2,60.299L35.802,56.627L36.403,52.84L37.005,48.987L37.607,45.113L38.208,41.259L38.81,37.456L39.412,33.732L40.013,30.114L40.615,26.628L41.216,23.31L41.818,20.208L42.42,17.379L43.021,14.898L43.623,12.847L44.225,11.314L44.826,10.384L45.428,10.134L46.03,10.619L46.631,11.866L47.233,13.874L47.834,16.602L48.436,19.979L49.038,23.902L49.639,28.242L50.241,32.859L50.843,37.605L51.444,42.339L52.046,46.934L52.648,51.285L53.249,55.314L53.851,58.973L54.452,62.243L55.054,65.132L55.656,67.671L56.257,69.904L56.859,71.886L57.461,73.677L58.062,75.332L58.664,76.9L59.266,78.42L59.867,79.92L60.469,81.418L61.07,82.921L61.672,84.425L62.274,85.923L62.875,87.4L63.477,88.841L64.079,90.229L64.68,91.546L65.282,92.778L65.884,93.912L66.485,94.94L67.087,95.855L67.688,96.656L68.29,97.345L68.892,97.926L69.493,98.407L70.095,98.798L70.697,99.109L71.298,99.351L71.9,99.537L72.502,99.675L73.103,99.777L73.705,99.849L74.306,99.9L74.908,99.935L74.908,100L74.306,100L73.705,100L73.103,100L72.502,100L71.9,100L71.298,100L70.697,100L70.095,100L69.493,100L68.892,100L68.29,100L67.688,100L67.087,100L66.485,100L65.884,100L65.282,100L64.68,100L64.079,100L63.477,100L62.875,100L62.274,100L61.672,100L61.07,100L60.469,100L59.867,100L59.266,100L58.664,100L58.062,100L57.461,100L56.859,100L56.257,100L55.656,100L55.054,100L54.452,100L53.851,100L53.249,100L52.648,100L52.046,100L51.444,100L50.843,100L50.241,100L49.639,100L49.038,100L48.436,100L47.834,100L47.233,100L46.631,100L46.03,100L45.428,100L44.826,100L44.225,100L43.623,100L43.021,100L42.42,100L41.818,100L41.216,100L40.615,100L40.013,100L39.412,100L38.81,100L38.208,100L37.607,100L37.005,100L36.403,100L35.802,100L35.2,100L34.598,100L33.997,100L33.395,100L32.794,100L32.192,100L31.59,100L30.989,100L30.387,100L29.785,100L29.184,100L28.582,100L27.98,100L27.379,100L26.777,100L26.176,100L25.574,100L24.972,100L24.371,100L23.769,100L23.167,100L22.566,100L21.964,100L21.362,100L20.761,100L20.159,100L19.558,100L18.956,100L18.354,100L17.753,100L17.151,100L16.549,100L15.948,100L15.346,100Z" fill="#e45756" fill-opacity="0.5" stroke="#e45756" stroke-width="1" opacity="1"/></g></g><path class="foreground" aria-hidden="true" d="" display="none"/></g></g></g><path class="foreground" aria-hidden="true" d="" display="none"/></g></g></g><defs><clipPath id="clip1"><rect x="0" y="0" width="100" height="100"/></clipPath></defs></svg>