<svg xmlns="http://www.w3.org/2000/svg" xmlns:xlink="http://www.w3.org/1999/xlink" version="1.1" class="marks" width="146" height="137" viewBox="0 0 146 137"><rect width="146" height="137" fill="white"/><g fill="none" stroke-miterlimit="10" transform="translate(38,5)"><g class="mark-group role-frame root" role="graphics-object" aria-roledescription="group mark container"><g transform="translate(0,0)"><path class="background" aria-hidden="true" d="M0,0h100v100h-100Z" fill="lightgray"/><g><g class="mark-group role-axis" role="graphics-symbol" aria-roledescription="axis" aria-label="X-axis titled 'x' for a linear scale with values from 0.0 to 1.0"><g transform="translate(0.5,100.5)"><path class="background" aria-hidden="true" d="M0,0h0v0h0Z" pointer-events="none"/><g><g class="mark-rule role-axis-grid" pointer-events="none"><line transform="translate(0,0)" x2="0" y2="-100" stroke="white" stroke-width="0.5" stroke-dasharray="0" opacity="1"/><line transform="translate(50,0)" x2="0" y2="-100" stroke="white" stroke-width="0.5" stroke-dasharray="0" opacity="1"/><line transform="translate(100,0)" x2="0" y2="-100" stroke="white" stroke-width="0.5" stroke-dasharray="0" opacity="1"/></g><g class="mark-rule role-axis-tick" pointer-events="none"><line transform="translate(0,0)" x2="0" y2="5" stroke="black" stroke-width="1.01" opacity="1"/><line transform="translate(50,0)" x2="0" y2="5" stroke="black" stroke-width="1.01" opacity="1"/><line transform="translate(100,0)" x2="0" y2="5" stroke="black" stroke-width="1.01" opacity="1"/></g><g class="mark-text role-axis-label" pointer-events="none"><text text-anchor="middle" transform="translate(0,15)" font-family="sans-serif" font-size="10px" font-style="normal" font-weight="400" fill="black" opacity="1">0.0</text><text text-anchor="middle" transform="translate(50,15)" font-family="sans-serif" font-size="10px" font-style="normal" font-weight="400" fill="black" opacity="1">0.5</text><text text-anchor="middle" transform="translate(100,15)" font-family="sans-serif" font-size="10px" font-style="normal" font-weight="400" fill="black" opacity="1">1.0</text></g><g class="mark-rule role-axis-domain" pointer-events="none"><line transform="translate(0,0)" x2="100" y2="0" stroke="black" stroke-width="1.01" opacity="1"/></g><g class="mark-text role-axis-title" pointer-events="none"><text text-anchor="middle" transform="translate(50,30)" font-family="sans-serif" font-size="11px" font-style="normal" font-weight="400" fill="black" opacity="1">x</text></g></g><path class="foreground" aria-hidden="true" d="" pointer-events="none" display="none"/></g></g><g class="mark-group role-axis" role="graphics-symbol" aria-roledescription="axis" aria-label="Y-axis titled 'y' for a linear scale with values from 0.1 to 1.0"><g transform="translate(0.5,0.5)"><path class="background" aria-hidden="true" d="M0,0h0v0h0Z" pointer-events="none"/><g><g class="mark-rule role-axis-grid" pointer-events="none"><line transform="translate(0,89)" x2="100" y2="0" stroke="white" stroke-width="0.5" stroke-dasharray="0" opacity="1"/><line transform="translate(0,67)" x2="100" y2="0" stroke="white" stroke-width="0.5" stroke-dasharray="0" opacity="1"/><line transform="translate(0,44)" x2="100" y2="0" stroke="white" stroke-width="0.5" stroke-dasharray="0" opacity="1"/><line transform="translate(0,22)" x2="100" y2="0" stroke="white" stroke-width="0.5" stroke-dasharray="0" opacity="1"/><line transform="translate(0,0)" x2="100" y2="0" stroke="white" stroke-width="0.5" stroke-dasharray="0" opacity="1"/></g><g class="mark-rule role-axis-tick" pointer-events="none"><line transform="translate(0,89)" x2="-5" y2="0" stroke="black" stroke-width="1.01" opacity="1"/><line transform="translate(0,67)" x2="-5" y2="0" stroke="black" stroke-width="1.01" opacity="1"/><line transform="translate(0,44)" x2="-5" y2="0" stroke="black" stroke-width="1.01" opacity="1"/><line transform="translate(0,22)" x2="-5" y2="0" stroke="black" stroke-width="1.01" opacity="1"/><line transform="translate(0,0)" x2="-5" y2="0" stroke="black" stroke-width="1.01" opacity="1"/></g><g class="mark-text role-axis-label" pointer-events="none"><text text-anchor="end" transform="translate(-7,91.88888888888889)" font-family="sans-serif" font-size="10px" font-style="normal" font-weight="400" fill="black" opacity="1">0.2</text><text text-anchor="end" transform="translate(-7,69.66666666666666)" font-family="sans-serif" font-size="10px" font-style="normal" font-weight="400" fill="black" opacity="1">0.4</text><text text-anchor="end" transform="translate(-7,47.44444444444444)" font-family="sans-serif" font-size="10px" font-style="normal" font-weight="400" fill="black" opacity="1">0.6</text><text text-anchor="end" transform="translate(-7,25.22222222222222)" font-family="sans-serif" font-size="10px" font-style="normal" font-weight="400" fill="black" opacity="1">0.8</text><text text-anchor="end" transform="translate(-7,3)" font-family="sans-serif" font-size="10px" font-style="normal" font-weight="400" fill="black" opacity="1">1.0</text></g><g class="mark-rule role-axis-domain" pointer-events="none"><line transform="translate(0,100)" x2="0" y2="-100" stroke="black" stroke-width="1.01" opacity="1"/></g><g class="mark-text role-axis-title" pointer-events="none"><text text-anchor="middle" transform="translate(-26.9033203125,50) rotate(-90) translate(0,-2)" font-family="sans-serif" font-size="11px" font-style="normal" font-weight="400" fill="black" opacity="1">y</text></g></g><path class="foreground" aria-hidden="true" d="" pointer-events="none" display="none"/></g></g><g class="mark-group role-scope" role="graphics-object" aria-roledescription="group mark container"><g transform="translate(0,0)"><path class="background" aria-hidden="true" d="M0,0h0v0h0Z"/><g><g class="mark-symbol role-mark points" role="graphics-symbol" aria-roledescription="symbol mark container"><path transform="translate(35.235785857278564,41.48257130423231)" d="M5,0A5,5,0,1,1,-5,0A5,5,0,1,1,5,0" fill="white" stroke="steelblue" stroke-width="1" opacity="1"/><path transform="translate(31.106418638483568,70.54696209323536)" d="M5,0A5,5,0,1,1,-5,0A5,5,0,1,1,5,0" fill="white" stroke="steelblue" stroke-width="1" opacity="1"/><path transform="translate(52.57563219985807,2.867761812754055)" d="M5,0A5,5,0,1,1,-5,0A5,5,0,1,1,5,0" fill="white" stroke="steelblue" stroke-width="1" opacity="1"/><path transform="translate(63.183518011730165,67.58226727933065)" d="M5,0A5,5,0,1,1,-5,0A5,5,0,1,1,5,0" fill="white" stroke="steelblue" stroke-width="1" opacity="1"/><path transform="translate(52.32908504018404,61.86048364942336)" d="M5,0A5,5,0,1,1,-5,0A5,5,0,1,1,5,0" fill="white" stroke="steelblue" stroke-width="1" opacity="1"/><path transform="translate(93.69315181383114,94.10539226213956)" d="M5,0A5,5,0,1,1,-5,0A5,5,0,1,1,5,0" fill="white" stroke="steelblue" stroke-width="1" opacity="1"/><path transform="translate(66.0937423601179,38.35884944302328)" d="M5,0A5,5,0,1,1,-5,0A5,5,0,1,1,5,0" fill="white" stroke="steelblue" stroke-width="1" opacity="1"/><path transform="translate(52.718511400558974,72.6075817232208)" d="M5,0A5,5,0,1,1,-5,0A5,5,0,1,1,5,0" fill="white" stroke="steelblue" stroke-width="1" opacity="1"/><path transform="translate(40.80307470533631,36.52898087054254)" d="M5,0A5,5,0,1,1,-5,0A5,5,0,1,1,5,0" fill="white" stroke="steelblue" stroke-width="1" opacity="1"/><path transform="translate(84.26583580583262,17.427403002593888)" d="M5,0A5,5,0,1,1,-5,0A5,5,0,1,1,5,0" fill="white" stroke="steelblue" stroke-width="1" opacity="1"/><path transform="translate(50.7974350607904,78.3676249966565)" d="M5,0A5,5,0,1,1,-5,0A5,5,0,1,1,5,0" fill="white" stroke="steelblue" stroke-width="1" opacity="1"/><path transform="translate(0.18221892387245697,90.4616274782082)" d="M5,0A5,5,0,1,1,-5,0A5,5,0,1,1,5,0" fill="white" stroke="steelblue" stroke-width="1" opacity="1"/><path transform="translate(76.97653331750413,61.53092963562522)" d="M5,0A5,5,0,1,1,-5,0A5,5,0,1,1,5,0" fill="white" stroke="steelblue" stroke-width="1" opacity="1"/><path transform="translate(58.79258790922497,49.01007288190341)" d="M5,0A5,5,0,1,1,-5,0A5,5,0,1,1,5,0" fill="white" stroke="steelblue" stroke-width="1" opacity="1"/><path transform="translate(77.25032339356952,82.56572689660587)" d="M5,0A5,5,0,1,1,-5,0A5,5,0,1,1,5,0" fill="white" stroke="steelblue" stroke-width="1" opacity="1"/><path transform="translate(38.415179812466235,84.35480531677489)" d="M5,0A5,5,0,1,1,-5,0A5,5,0,1,1,5,0" fill="white" stroke="steelblue" stroke-width="1" opacity="1"/><path transform="translate(45.969225180694416,1.5455369365566796)" d="M5,0A5,5,0,1,1,-5,0A5,5,0,1,1,5,0" fill="white" stroke="steelblue" stroke-width="1" opacity="1"/><path transform="translate(4.385626356328098,42.47807826686676)" d="M5,0A5,5,0,1,1,-5,0A5,5,0,1,1,5,0" fill="white" stroke="steelblue" stroke-width="1" opacity="1"/><path transform="translate(40.55044536885526,25.209949210763995)" d="M5,0A5,5,0,1,1,-5,0A5,5,0,1,1,5,0" fill="white" stroke="steelblue" stroke-width="1" opacity="1"/><path transform="translate(80.75731596409416,43.23405360747201)" d="M5,0A5,5,0,1,1,-5,0A5,5,0,1,1,5,0" fill="white" stroke="steelblue" stroke-width="1" opacity="1"/></g></g><path class="foreground" aria-hidden="true" d="" display="none"/></g></g></g><path class="foreground" aria-hidden="true" d="" display="none"/></g></g></g></svg>