<svg xmlns="http://www.w3.org/2000/svg" xmlns:xlink="http://www.w3.org/1999/xlink" version="1.1" class="marks" width="146" height="137" viewBox="0 0 146 137"><rect width="146" height="137" fill="white"/><g fill="none" stroke-miterlimit="10" transform="translate(38,5)"><g class="mark-group role-frame root" role="graphics-object" aria-roledescription="group mark container"><g transform="translate(0,0)"><path class="background" aria-hidden="true" d="M0,0h100v100h-100Z"/><g><g class="mark-group role-axis" role="graphics-symbol" aria-roledescription="axis" aria-label="X-axis titled 'x' for a linear scale with values from 0.0 to 1.0"><g transform="translate(0.5,100.5)"><path class="background" aria-hidden="true" d="M0,0h0v0h0Z" pointer-events="none"/><g><g class="mark-rule role-axis-tick" pointer-events="none"><line transform="translate(0,0)" x2="0" y2="5" stroke="black" stroke-width="1.01" opacity="1"/><line transform="translate(50,0)" x2="0" y2="5" stroke="black" stroke-width="1.01" opacity="1"/><line transform="translate(100,0)" x2="0" y2="5" stroke="black" stroke-width="1.01" opacity="1"/></g><g class="mark-text role-axis-label" pointer-events="none"><text text-anchor="middle" transform="translate(0,15)" font-family="sans-serif" font-size="10px" font-style="normal" font-weight="400" fill="black" opacity="1">0.0</text><text text-anchor="middle" transform="translate(50,15)" font-family="sans-serif" font-size="10px" font-style="normal" font-weight="400" fill="black" opacity="1">0.5</text><text text-anchor="middle" transform="translate(100,15)" font-family="sans-serif" font-size="10px" font-style="normal" font-weight="400" fill="black" opacity="1">1.0</text></g><g class="mark-rule role-axis-domain" pointer-events="none"><line transform="translate(0,0)" x2="100" y2="0" stroke="black" stroke-width="1.01" opacity="1"/></g><g class="mark-text role-axis-title" pointer-events="none"><text text-anchor="middle" transform="translate(50,30)" font-family="sans-serif" font-size="11px" font-style="normal" font-weight="400" fill="black" opacity="1">x</text></g></g><path class="foreground" aria-hidden="true" d="" pointer-events="none" display="none"/></g></g><g class="mark-group role-axis" role="graphics-symbol" aria-roledescription="axis" aria-label="Y-axis titled 'y' for a linear scale with values from 0.0 to 1.0"><g transform="translate(0.5,0.5)"><path class="background" aria-hidden="true" d="M0,0h0v0h0Z" pointer-events="none"/><g><g class="mark-rule role-axis-tick" pointer-events="none"><line transform="translate(0,100)" x2="-5" y2="0" stroke="black" stroke-width="1.01" opacity="1"/><line transform="translate(0,50)" x2="-5" y2="0" stroke="black" stroke-width="1.01" opacity="1"/><line transform="translate(0,0)" x2="-5" y2="0" stroke="black" stroke-width="1.01" opacity="1"/></g><g class="mark-text role-axis-label" pointer-events="none"><text text-anchor="end" transform="translate(-7,103)" font-family="sans-serif" font-size="10px" font-style="normal" font-weight="400" fill="black" opacity="1">0.0</text><text text-anchor="end" transform="translate(-7,53)" font-family="sans-serif" font-size="10px" font-style="normal" font-weight="400" fill="black" opacity="1">0.5</text><text text-anchor="end" transform="translate(-7,3)" font-family="sans-serif" font-size="10px" font-style="normal" font-weight="400" fill="black" opacity="1">1.0</text></g><g class="mark-rule role-axis-domain" pointer-events="none"><line transform="translate(0,100)" x2="0" y2="-100" stroke="black" stroke-width="1.01" opacity="1"/></g><g class="mark-text role-axis-title" pointer-events="none"><text text-anchor="middle" transform="translate(-26.9033203125,50) rotate(-90) translate(0,-2)" font-family="sans-serif" font-size="11px" font-style="normal" font-weight="400" fill="black" opacity="1">y</text></g></g><path class="foreground" aria-hidden="true" d="" pointer-events="none" display="none"/></g></g><g class="mark-group role-scope" clip-path="url(#clip1)" role="graphics-object" aria-roledescription="group mark container"><g transform="translate(0,0)"><path class="background" aria-hidden="true" d="M0,0h0v0h0Z"/><g><g class="mark-symbol role-mark points" role="graphics-symbol" aria-roledescription="symbol mark container"><path transform="translate(23.24030961677113,26.403354781271883)" d="M3.536,0A3.536,3.536,0,1,1,-3.536,0A3.536,3.536,0,1,1,3.536,0" fill="white" stroke="steelblue" stroke-width="1" opacity="1"/><path transform="translate(56.80265517231514,97.60385132621762)" d="M3.536,0A3.536,3.536,0,1,1,-3.536,0A3.536,3.536,0,1,1,3.536,0" fill="white" stroke="steelblue" stroke-width="1" opacity="1"/><path transform="translate(39.32200750422727,2.4985771962662606)" d="M3.536,0A3.536,3.536,0,1,1,-3.536,0A3.536,3.536,0,1,1,3.536,0" fill="white" stroke="steelblue" stroke-width="1" opacity="1"/><path transform="translate(16.430404566463107,82.87822488804379)" d="M3.536,0A3.536,3.536,0,1,1,-3.536,0A3.536,3.536,0,1,1,3.536,0" fill="white" stroke="steelblue" stroke-width="1" opacity="1"/><path transform="translate(51.9210359911945,50.63654961793579)" d="M3.536,0A3.536,3.536,0,1,1,-3.536,0A3.536,3.536,0,1,1,3.536,0" fill="white" stroke="steelblue" stroke-width="1" opacity="1"/><path transform="translate(58.34438652765607,24.35222961413366)" d="M3.536,0A3.536,3.536,0,1,1,-3.536,0A3.536,3.536,0,1,1,3.536,0" fill="white" stroke="steelblue" stroke-width="1" opacity="1"/><path transform="translate(23.782859200503083,11.814380850952066)" d="M3.536,0A3.536,3.536,0,1,1,-3.536,0A3.536,3.536,0,1,1,3.536,0" fill="white" stroke="steelblue" stroke-width="1" opacity="1"/><path transform="translate(96.80029316292882,36.77550027368666)" d="M3.536,0A3.536,3.536,0,1,1,-3.536,0A3.536,3.536,0,1,1,3.536,0" fill="white" stroke="steelblue" stroke-width="1" opacity="1"/><path transform="translate(48.079513120842165,35.97542920693082)" d="M3.536,0A3.536,3.536,0,1,1,-3.536,0A3.536,3.536,0,1,1,3.536,0" fill="white" stroke="steelblue" stroke-width="1" opacity="1"/><path transform="translate(4.795480589541334,74.06756361536823)" d="M3.536,0A3.536,3.536,0,1,1,-3.536,0A3.536,3.536,0,1,1,3.536,0" fill="white" stroke="steelblue" stroke-width="1" opacity="1"/><path transform="translate(70.75957629702076,36.80128811725296)" d="M3.536,0A3.536,3.536,0,1,1,-3.536,0A3.536,3.536,0,1,1,3.536,0" fill="white" stroke="steelblue" stroke-width="1" opacity="1"/><path transform="translate(54.60061352564406,60.98207502135984)" d="M3.536,0A3.536,3.536,0,1,1,-3.536,0A3.536,3.536,0,1,1,3.536,0" fill="white" stroke="steelblue" stroke-width="1" opacity="1"/><path transform="translate(92.84646285966768,89.5979109483303)" d="M3.536,0A3.536,3.536,0,1,1,-3.536,0A3.536,3.536,0,1,1,3.536,0" fill="white" stroke="steelblue" stroke-width="1" opacity="1"/><path transform="translate(78.23680859835017,74.76489486296877)" d="M3.536,0A3.536,3.536,0,1,1,-3.536,0A3.536,3.536,0,1,1,3.536,0" fill="white" stroke="steelblue" stroke-width="1" opacity="1"/><path transform="translate(15.190458852691046,88.34941905530648)" d="M3.536,0A3.536,3.536,0,1,1,-3.536,0A3.536,3.536,0,1,1,3.536,0" fill="white" stroke="steelblue" stroke-width="1" opacity="1"/><path transform="translate(77.21416844735776,64.41758172021557)" d="M3.536,0A3.536,3.536,0,1,1,-3.536,0A3.536,3.536,0,1,1,3.536,0" fill="white" stroke="steelblue" stroke-width="1" opacity="1"/><path transform="translate(12.564432891193988,49.68875436734819)" d="M3.536,0A3.536,3.536,0,1,1,-3.536,0A3.536,3.536,0,1,1,3.536,0" fill="white" stroke="steelblue" stroke-width="1" opacity="1"/><path transform="translate(31.97516449188794,65.35742635859637)" d="M3.536,0A3.536,3.536,0,1,1,-3.536,0A3.536,3.536,0,1,1,3.536,0" fill="white" stroke="steelblue" stroke-width="1" opacity="1"/><path transform="translate(84.53716797684402,67.06728728899306)" d="M3.536,0A3.536,3.536,0,1,1,-3.536,0A3.536,3.536,0,1,1,3.536,0" fill="white" stroke="steelblue" stroke-width="1" opacity="1"/><path transform="translate(11.626313762189366,24.236842928844226)" d="M3.536,0A3.536,3.536,0,1,1,-3.536,0A3.536,3.536,0,1,1,3.536,0" fill="white" stroke="steelblue" stroke-width="1" opacity="1"/><path transform="translate(5.116227794036654,0.6723988056377417)" d="M3.536,0A3.536,3.536,0,1,1,-3.536,0A3.536,3.536,0,1,1,3.536,0" fill="white" stroke="steelblue" stroke-width="1" opacity="1"/><path transform="translate(42.65909333146814,91.18542199304555)" d="M3.536,0A3.536,3.536,0,1,1,-3.536,0A3.536,3.536,0,1,1,3.536,0" fill="white" stroke="steelblue" stroke-width="1" opacity="1"/><path transform="translate(93.72406315423363,77.16230385155632)" d="M3.536,0A3.536,3.536,0,1,1,-3.536,0A3.536,3.536,0,1,1,3.536,0" fill="white" stroke="steelblue" stroke-width="1" opacity="1"/><path transform="translate(42.74842031512137,5.573773303631457)" d="M3.536,0A3.536,3.536,0,1,1,-3.536,0A3.536,3.536,0,1,1,3.536,0" fill="white" stroke="steelblue" stroke-width="1" opacity="1"/><path transform="translate(36.35421860633748,81.5902996895516)" d="M3.536,0A3.536,3.536,0,1,1,-3.536,0A3.536,3.536,0,1,1,3.536,0" fill="white" stroke="steelblue" stroke-width="1" opacity="1"/><path transform="translate(57.22762396228453,87.44722762336933)" d="M3.536,0A3.536,3.536,0,1,1,-3.536,0A3.536,3.536,0,1,1,3.536,0" fill="white" stroke="steelblue" stroke-width="1" opacity="1"/><path transform="translate(79.34510233891346,14.625575103328837)" d="M3.536,0A3.536,3.536,0,1,1,-3.536,0A3.536,3.536,0,1,1,3.536,0" fill="white" stroke="steelblue" stroke-width="1" opacity="1"/><path transform="translate(53.60975071207456,92.58754834588846)" d="M3.536,0A3.536,3.536,0,1,1,-3.536,0A3.536,3.536,0,1,1,3.536,0" fill="white" stroke="steelblue" stroke-width="1" opacity="1"/><path transform="translate(80.58475549976157,56.486139875257216)" d="M3.536,0A3.536,3.536,0,1,1,-3.536,0A3.536,3.536,0,1,1,3.536,0" fill="white" stroke="steelblue" stroke-width="1" opacity="1"/><path transform="translate(57.83823374015552,20.0946225263655)" d="M3.536,0A3.536,3.536,0,1,1,-3.536,0A3.536,3.536,0,1,1,3.536,0" fill="white" stroke="steelblue" stroke-width="1" opacity="1"/><path transform="translate(52.85753896956618,22.234032896830914)" d="M3.536,0A3.536,3.536,0,1,1,-3.536,0A3.536,3.536,0,1,1,3.536,0" fill="white" stroke="steelblue" stroke-width="1" opacity="1"/><path transform="translate(27.067940577909933,17.40827513351294)" d="M3.536,0A3.536,3.536,0,1,1,-3.536,0A3.536,3.536,0,1,1,3.536,0" fill="white" stroke="steelblue" stroke-width="1" opacity="1"/><path transform="translate(52.70626514506668,71.73451742899022)" d="M3.536,0A3.536,3.536,0,1,1,-3.536,0A3.536,3.536,0,1,1,3.536,0" fill="white" stroke="steelblue" stroke-width="1" opacity="1"/><path transform="translate(68.45565411344822,75.4460947013993)" d="M3.536,0A3.536,3.536,0,1,1,-3.536,0A3.536,3.536,0,1,1,3.536,0" fill="white" stroke="steelblue" stroke-width="1" opacity="1"/><path transform="translate(66.39697225984177,62.92553241417465)" d="M3.536,0A3.536,3.536,0,1,1,-3.536,0A3.536,3.536,0,1,1,3.536,0" fill="white" stroke="steelblue" stroke-width="1" opacity="1"/><path transform="translate(9.946711923774298,67.07853792441468)" d="M3.536,0A3.536,3.536,0,1,1,-3.536,0A3.536,3.536,0,1,1,3.536,0" fill="white" stroke="steelblue" stroke-width="1" opacity="1"/><path transform="translate(85.56453165846388,6.0751320292233295)" d="M3.536,0A3.536,3.536,0,1,1,-3.536,0A3.536,3.536,0,1,1,3.536,0" fill="white" stroke="steelblue" stroke-width="1" opacity="1"/><path transform="translate(0.09269256940859227,70.59362281530078)" d="M3.536,0A3.536,3.536,0,1,1,-3.536,0A3.536,3.536,0,1,1,3.536,0" fill="white" stroke="steelblue" stroke-width="1" opacity="1"/><path transform="translate(7.224564107749776,9.220318932106286)" d="M3.536,0A3.536,3.536,0,1,1,-3.536,0A3.536,3.536,0,1,1,3.536,0" fill="white" stroke="steelblue" stroke-width="1" opacity="1"/><path transform="translate(78.33579715894531,45.980697628108814)" d="M3.536,0A3.536,3.536,0,1,1,-3.536,0A3.536,3.536,0,1,1,3.536,0" fill="white" stroke="steelblue" stroke-width="1" opacity="1"/><path transform="translate(39.43261553763002,44.33616258398049)" d="M3.536,0A3.536,3.536,0,1,1,-3.536,0A3.536,3.536,0,1,1,3.536,0" fill="white" stroke="steelblue" stroke-width="1" opacity="1"/><path transform="translate(42.959431544161255,3.811132418370544)" d="M3.536,0A3.536,3.536,0,1,1,-3.536,0A3.536,3.536,0,1,1,3.536,0" fill="white" stroke="steelblue" stroke-width="1" opacity="1"/><path transform="translate(41.42657471951276,13.216270339579806)" d="M3.536,0A3.536,3.536,0,1,1,-3.536,0A3.536,3.536,0,1,1,3.536,0" fill="white" stroke="steelblue" stroke-width="1" opacity="1"/><path transform="translate(98.68876742926548,74.2860834554549)" d="M3.536,0A3.536,3.536,0,1,1,-3.536,0A3.536,3.536,0,1,1,3.536,0" fill="white" stroke="steelblue" stroke-width="1" opacity="1"/><path transform="translate(14.796377711680876,24.35268130234538)" d="M3.536,0A3.536,3.536,0,1,1,-3.536,0A3.536,3.536,0,1,1,3.536,0" fill="white" stroke="steelblue" stroke-width="1" opacity="1"/><path transform="translate(72.94660751997282,61.275202653378635)" d="M3.536,0A3.536,3.536,0,1,1,-3.536,0A3.536,3.536,0,1,1,3.536,0" fill="white" stroke="steelblue" stroke-width="1" opacity="1"/><path transform="translate(38.82051695932106,84.4432912356277)" d="M3.536,0A3.536,3.536,0,1,1,-3.536,0A3.536,3.536,0,1,1,3.536,0" fill="white" stroke="steelblue" stroke-width="1" opacity="1"/><path transform="translate(64.83222575413123,25.90454760478782)" d="M3.536,0A3.536,3.536,0,1,1,-3.536,0A3.536,3.536,0,1,1,3.536,0" fill="white" stroke="steelblue" stroke-width="1" opacity="1"/><path transform="translate(34.24473304920158,55.67666257355934)" d="M3.536,0A3.536,3.536,0,1,1,-3.536,0A3.536,3.536,0,1,1,3.536,0" fill="white" stroke="steelblue" stroke-width="1" opacity="1"/><path transform="translate(73.33488486646252,14.797459484532173)" d="M3.536,0A3.536,3.536,0,1,1,-3.536,0A3.536,3.536,0,1,1,3.536,0" fill="white" stroke="steelblue" stroke-width="1" opacity="1"/><path transform="translate(31.123465878329093,63.437103669853435)" d="M3.536,0A3.536,3.536,0,1,1,-3.536,0A3.536,3.536,0,1,1,3.536,0" fill="white" stroke="steelblue" stroke-width="1" opacity="1"/><path transform="translate(73.6706820583632,35.93806791999453)" d="M3.536,0A3.536,3.536,0,1,1,-3.536,0A3.536,3.536,0,1,1,3.536,0" fill="white" stroke="steelblue" stroke-width="1" opacity="1"/><path transform="translate(84.86722843840468,94.14777532325319)" d="M3.536,0A3.536,3.536,0,1,1,-3.536,0A3.536,3.536,0,1,1,3.536,0" fill="white" stroke="steelblue" stroke-width="1" opacity="1"/><path transform="translate(29.04050628208096,41.83027156713893)" d="M3.536,0A3.536,3.536,0,1,1,-3.536,0A3.536,3.536,0,1,1,3.536,0" fill="white" stroke="steelblue" stroke-width="1" opacity="1"/><path transform="translate(74.6494399116375,24.01732598129822)" d="M3.536,0A3.536,3.536,0,1,1,-3.536,0A3.536,3.536,0,1,1,3.536,0" fill="white" stroke="steelblue" stroke-width="1" opacity="1"/><path transform="translate(66.17133010223229,35.87831360024819)" d="M3.536,0A3.536,3.536,0,1,1,-3.536,0A3.536,3.536,0,1,1,3.536,0" fill="white" stroke="steelblue" stroke-width="1" opacity="1"/><path transform="translate(48.63961811804891,40.54314239147406)" d="M3.536,0A3.536,3.536,0,1,1,-3.536,0A3.536,3.536,0,1,1,3.536,0" fill="white" stroke="steelblue" stroke-width="1" opacity="1"/><path transform="translate(8.077027388181069,43.76065998599618)" d="M3.536,0A3.536,3.536,0,1,1,-3.536,0A3.536,3.536,0,1,1,3.536,0" fill="white" stroke="steelblue" stroke-width="1" opacity="1"/><path transform="translate(71.66388293009632,90.68670329459212)" d="M3.536,0A3.536,3.536,0,1,1,-3.536,0A3.536,3.536,0,1,1,3.536,0" fill="white" stroke="steelblue" stroke-width="1" opacity="1"/><path transform="translate(30.542599658068504,86.65628142175274)" d="M3.536,0A3.536,3.536,0,1,1,-3.536,0A3.536,3.536,0,1,1,3.536,0" fill="white" stroke="steelblue" stroke-width="1" opacity="1"/><path transform="translate(94.09108287137892,42.080064792831216)" d="M3.536,0A3.536,3.536,0,1,1,-3.536,0A3.536,3.536,0,1,1,3.536,0" fill="white" stroke="steelblue" stroke-width="1" opacity="1"/><path transform="translate(64.66287410295119,10.2405502904933)" d="M3.536,0A3.536,3.536,0,1,1,-3.536,0A3.536,3.536,0,1,1,3.536,0" fill="white" stroke="steelblue" stroke-width="1" opacity="1"/><path transform="translate(11.158952844461457,78.76791617730778)" d="M3.536,0A3.536,3.536,0,1,1,-3.536,0A3.536,3.536,0,1,1,3.536,0" fill="white" stroke="steelblue" stroke-width="1" opacity="1"/><path transform="translate(90.40327497926125,21.668762987406286)" d="M3.536,0A3.536,3.536,0,1,1,-3.536,0A3.536,3.536,0,1,1,3.536,0" fill="white" stroke="steelblue" stroke-width="1" opacity="1"/><path transform="translate(14.693579349936336,32.16736577683499)" d="M3.536,0A3.536,3.536,0,1,1,-3.536,0A3.536,3.536,0,1,1,3.536,0" fill="white" stroke="steelblue" stroke-width="1" opacity="1"/><path transform="translate(24.70933700970608,52.30696099765404)" d="M3.536,0A3.536,3.536,0,1,1,-3.536,0A3.536,3.536,0,1,1,3.536,0" fill="white" stroke="steelblue" stroke-width="1" opacity="1"/><path transform="translate(83.42203384727213,67.5241801092265)" d="M3.536,0A3.536,3.536,0,1,1,-3.536,0A3.536,3.536,0,1,1,3.536,0" fill="white" stroke="steelblue" stroke-width="1" opacity="1"/><path transform="translate(53.52399851379611,54.97772689049313)" d="M3.536,0A3.536,3.536,0,1,1,-3.536,0A3.536,3.536,0,1,1,3.536,0" fill="white" stroke="steelblue" stroke-width="1" opacity="1"/><path transform="translate(85.20177847442363,32.810976245167524)" d="M3.536,0A3.536,3.536,0,1,1,-3.536,0A3.536,3.536,0,1,1,3.536,0" fill="white" stroke="steelblue" stroke-width="1" opacity="1"/><path transform="translate(83.65984210796347,55.74446273050171)" d="M3.536,0A3.536,3.536,0,1,1,-3.536,0A3.536,3.536,0,1,1,3.536,0" fill="white" stroke="steelblue" stroke-width="1" opacity="1"/><path transform="translate(52.875511773706144,98.88155198851769)" d="M3.536,0A3.536,3.536,0,1,1,-3.536,0A3.536,3.536,0,1,1,3.536,0" fill="white" stroke="steelblue" stroke-width="1" opacity="1"/><path transform="translate(82.81477153014917,93.97024194074106)" d="M3.536,0A3.536,3.536,0,1,1,-3.536,0A3.536,3.536,0,1,1,3.536,0" fill="white" stroke="steelblue" stroke-width="1" opacity="1"/><path transform="translate(3.8606298781185377,96.92230995118997)" d="M3.536,0A3.536,3.536,0,1,1,-3.536,0A3.536,3.536,0,1,1,3.536,0" fill="white" stroke="steelblue" stroke-width="1" opacity="1"/><path transform="translate(1.4629164900124114,74.15920431352757)" d="M3.536,0A3.536,3.536,0,1,1,-3.536,0A3.536,3.536,0,1,1,3.536,0" fill="white" stroke="steelblue" stroke-width="1" opacity="1"/><path transform="translate(33.99430132578526,92.60106250020124)" d="M3.536,0A3.536,3.536,0,1,1,-3.536,0A3.536,3.536,0,1,1,3.536,0" fill="white" stroke="steelblue" stroke-width="1" opacity="1"/><path transform="translate(27.95064071441501,98.09762773262285)" d="M3.536,0A3.536,3.536,0,1,1,-3.536,0A3.536,3.536,0,1,1,3.536,0" fill="white" stroke="steelblue" stroke-width="1" opacity="1"/><path transform="translate(41.50427054225455,50.2671700014451)" d="M3.536,0A3.536,3.536,0,1,1,-3.536,0A3.536,3.536,0,1,1,3.536,0" fill="white" stroke="steelblue" stroke-width="1" opacity="1"/><path transform="translate(54.11099345528436,27.9120130330473)" d="M3.536,0A3.536,3.536,0,1,1,-3.536,0A3.536,3.536,0,1,1,3.536,0" fill="white" stroke="steelblue" stroke-width="1" opacity="1"/><path transform="translate(50.953479322582794,26.556652619270306)" d="M3.536,0A3.536,3.536,0,1,1,-3.536,0A3.536,3.536,0,1,1,3.536,0" fill="white" stroke="steelblue" stroke-width="1" opacity="1"/><path transform="translate(36.19431027882415,95.38835661202381)" d="M3.536,0A3.536,3.536,0,1,1,-3.536,0A3.536,3.536,0,1,1,3.536,0" fill="white" stroke="steelblue" stroke-width="1" opacity="1"/><path transform="translate(18.26591882403552,45.40733061264105)" d="M3.536,0A3.536,3.536,0,1,1,-3.536,0A3.536,3.536,0,1,1,3.536,0" fill="white" stroke="steelblue" stroke-width="1" opacity="1"/><path transform="translate(2.5155440065059986,77.42724456244993)" d="M3.536,0A3.536,3.536,0,1,1,-3.536,0A3.536,3.536,0,1,1,3.536,0" fill="white" stroke="steelblue" stroke-width="1" opacity="1"/><path transform="translate(24.160545110486197,26.68103041175002)" d="M3.536,0A3.536,3.536,0,1,1,-3.536,0A3.536,3.536,0,1,1,3.536,0" fill="white" stroke="steelblue" stroke-width="1" opacity="1"/><path transform="translate(47.51399632347769,45.44996778236915)" d="M3.536,0A3.536,3.536,0,1,1,-3.536,0A3.536,3.536,0,1,1,3.536,0" fill="white" stroke="steelblue" stroke-width="1" opacity="1"/><path transform="translate(56.91735563014176,12.240333096152977)" d="M3.536,0A3.536,3.536,0,1,1,-3.536,0A3.536,3.536,0,1,1,3.536,0" fill="white" stroke="steelblue" stroke-width="1" opacity="1"/><path transform="translate(13.154804112555219,51.12937840175814)" d="M3.536,0A3.536,3.536,0,1,1,-3.536,0A3.536,3.536,0,1,1,3.536,0" fill="white" stroke="steelblue" stroke-width="1" opacity="1"/><path transform="translate(88.35733106318543,65.86860399261145)" d="M3.536,0A3.536,3.536,0,1,1,-3.536,0A3.536,3.536,0,1,1,3.536,0" fill="white" stroke="steelblue" stroke-width="1" opacity="1"/><path transform="translate(92.4394026199792,75.65361992614288)" d="M3.536,0A3.536,3.536,0,1,1,-3.536,0A3.536,3.536,0,1,1,3.536,0" fill="white" stroke="steelblue" stroke-width="1" opacity="1"/><path transform="translate(9.214866531780064,33.47600208195507)" d="M3.536,0A3.536,3.536,0,1,1,-3.536,0A3.536,3.536,0,1,1,3.536,0" fill="white" stroke="steelblue" stroke-width="1" opacity="1"/><path transform="translate(11.761622445710874,4.1731352019112595)" d="M3.536,0A3.536,3.536,0,1,1,-3.536,0A3.536,3.536,0,1,1,3.536,0" fill="white" stroke="steelblue" stroke-width="1" opacity="1"/><path transform="translate(27.77237175316606,97.4507762932136)" d="M3.536,0A3.536,3.536,0,1,1,-3.536,0A3.536,3.536,0,1,1,3.536,0" fill="white" stroke="steelblue" stroke-width="1" opacity="1"/><path transform="translate(22.15707726659136,39.51235651953455)" d="M3.536,0A3.536,3.536,0,1,1,-3.536,0A3.536,3.536,0,1,1,3.536,0" fill="white" stroke="steelblue" stroke-width="1" opacity="1"/><path transform="translate(16.768617271750085,62.16472026219153)" d="M3.536,0A3.536,3.536,0,1,1,-3.536,0A3.536,3.536,0,1,1,3.536,0" fill="white" stroke="steelblue" stroke-width="1" opacity="1"/><path transform="translate(31.93985798635556,13.244601310513849)" d="M3.536,0A3.536,3.536,0,1,1,-3.536,0A3.536,3.536,0,1,1,3.536,0" fill="white" stroke="steelblue" stroke-width="1" opacity="1"/><path transform="translate(32.4222621034702,67.22320622308764)" d="M3.536,0A3.536,3.536,0,1,1,-3.536,0A3.536,3.536,0,1,1,3.536,0" fill="white" stroke="steelblue" stroke-width="1" opacity="1"/><path transform="translate(60.998676216595925,35.88069758021317)" d="M3.536,0A3.536,3.536,0,1,1,-3.536,0A3.536,3.536,0,1,1,3.536,0" fill="white" stroke="steelblue" stroke-width="1" opacity="1"/><path transform="translate(3.1291342988292947,55.28137193070436)" d="M3.536,0A3.536,3.536,0,1,1,-3.536,0A3.536,3.536,0,1,1,3.536,0" fill="white" stroke="steelblue" stroke-width="1" opacity="1"/><path transform="translate(34.563271343225345,33.62110573236408)" d="M3.536,0A3.536,3.536,0,1,1,-3.536,0A3.536,3.536,0,1,1,3.536,0" fill="white" stroke="steelblue" stroke-width="1" opacity="1"/><path transform="translate(85.45494197306446,35.54245959839215)" d="M3.536,0A3.536,3.536,0,1,1,-3.536,0A3.536,3.536,0,1,1,3.536,0" fill="white" stroke="steelblue" stroke-width="1" opacity="1"/><path transform="translate(74.50657427766608,87.33906695822118)" d="M3.536,0A3.536,3.536,0,1,1,-3.536,0A3.536,3.536,0,1,1,3.536,0" fill="white" stroke="steelblue" stroke-width="1" opacity="1"/></g></g><path class="foreground" aria-hidden="true" d="" display="none"/></g></g></g><path class="foreground" aria-hidden="true" d="" display="none"/></g></g></g><defs><clipPath id="clip1"><rect x="0" y="0" width="100" height="100"/></clipPath></defs></svg>