<svg xmlns="http://www.w3.org/2000/svg" xmlns:xlink="http://www.w3.org/1999/xlink" version="1.1" class="marks" width="190" height="138" viewBox="0 0 190 138"><rect width="190" height="138" fill="white"/><g fill="none" stroke-miterlimit="10" transform="translate(38,6)"><g class="mark-group role-frame root" role="graphics-object" aria-roledescription="group mark container"><g transform="translate(0,0)"><path class="background" aria-hidden="true" d="M0,0h100v100h-100Z" fill="lightgray"/><g><g class="mark-group role-axis" role="graphics-symbol" aria-roledescription="axis" aria-label="X-axis titled 'x' for a linear scale with values from 0.0 to 1.0"><g transform="translate(0.5,100.5)"><path class="background" aria-hidden="true" d="M0,0h0v0h0Z" pointer-events="none"/><g><g class="mark-rule role-axis-grid" pointer-events="none"><line transform="translate(0,0)" x2="0" y2="-100" stroke="white" stroke-width="0.5" stroke-dasharray="0" opacity="1"/><line transform="translate(50,0)" x2="0" y2="-100" stroke="white" stroke-width="0.5" stroke-dasharray="0" opacity="1"/><line transform="translate(100,0)" x2="0" y2="-100" stroke="white" stroke-width="0.5" stroke-dasharray="0" opacity="1"/></g><g class="mark-rule role-axis-tick" pointer-events="none"><line transform="translate(0,0)" x2="0" y2="5" stroke="black" stroke-width="1.01" opacity="1"/><line transform="translate(50,0)" x2="0" y2="5" stroke="black" stroke-width="1.01" opacity="1"/><line transform="translate(100,0)" x2="0" y2="5" stroke="black" stroke-width="1.01" opacity="1"/></g><g class="mark-text role-axis-label" pointer-events="none"><text text-anchor="middle" transform="translate(0,15)" font-family="sans-serif" font-size="10px" font-style="normal" font-weight="400" fill="black" opacity="1">0.0</text><text text-anchor="middle" transform="translate(50,15)" font-family="sans-serif" font-size="10px" font-style="normal" font-weight="400" fill="black" opacity="1">0.5</text><text text-anchor="middle" transform="translate(100,15)" font-family="sans-serif" font-size="10px" font-style="normal" font-weight="400" fill="black" opacity="1">1.0</text></g><g class="mark-rule role-axis-domain" pointer-events="none"><line transform="translate(0,0)" x2="100" y2="0" stroke="black" stroke-width="1.01" opacity="1"/></g><g class="mark-text role-axis-title" pointer-events="none"><text text-anchor="middle" transform="translate(50,30)" font-family="sans-serif" font-size="11px" font-style="normal" font-weight="400" fill="black" opacity="1">x</text></g></g><path class="foreground" aria-hidden="true" d="" pointer-events="none" display="none"/></g></g><g class="mark-group role-axis" role="graphics-symbol" aria-roledescription="axis" aria-label="Y-axis titled 'y' for a linear scale with values from 0.0 to 1.0"><g transform="translate(0.5,0.5)"><path class="background" aria-hidden="true" d="M0,0h0v0h0Z" pointer-events="none"/><g><g class="mark-rule role-axis-grid" pointer-events="none"><line transform="translate(0,100)" x2="100" y2="0" stroke="white" stroke-width="0.5" stroke-dasharray="0" opacity="1"/><line transform="translate(0,50)" x2="100" y2="0" stroke="white" stroke-width="0.5" stroke-dasharray="0" opacity="1"/><line transform="translate(0,0)" x2="100" y2="0" stroke="white" stroke-width="0.5" stroke-dasharray="0" opacity="1"/></g><g class="mark-rule role-axis-tick" pointer-events="none"><line transform="translate(0,100)" x2="-5" y2="0" stroke="black" stroke-width="1.01" opacity="1"/><line transform="translate(0,50)" x2="-5" y2="0" stroke="black" stroke-width="1.01" opacity="1"/><line transform="translate(0,0)" x2="-5" y2="0" stroke="black" stroke-width="1.01" opacity="1"/></g><g class="mark-text role-axis-label" pointer-events="none"><text text-anchor="end" transform="translate(-7,103)" font-family="sans-serif" font-size="10px" font-style="normal" font-weight="400" fill="black" opacity="1">0.0</text><text text-anchor="end" transform="translate(-7,53)" font-family="sans-serif" font-size="10px" font-style="normal" font-weight="400" fill="black" opacity="1">0.5</text><text text-anchor="end" transform="translate(-7,3)" font-family="sans-serif" font-size="10px" font-style="normal" font-weight="400" fill="black" opacity="1">1.0</text></g><g class="mark-rule role-axis-domain" pointer-events="none"><line transform="translate(0,100)" x2="0" y2="-100" stroke="black" stroke-width="1.01" opacity="1"/></g><g class="mark-text role-axis-title" pointer-events="none"><text text-anchor="middle" transform="translate(-26.9033203125,50) rotate(-90) translate(0,-2)" font-family="sans-serif" font-size="11px" font-style="normal" font-weight="400" fill="black" opacity="1">y</text></g></g><path class="foreground" aria-hidden="true" d="" pointer-events="none" display="none"/></g></g><g class="mark-group role-scope" role="graphics-object" aria-roledescription="group mark container"><g transform="translate(0,0)"><path class="background" aria-hidden="true" d="M0,0h0v0h0Z"/><g><g class="mark-symbol role-mark points" role="graphics-symbol" aria-roledescription="symbol mark container"><path transform="translate(79.23214641900458,46.133134300725565)" d="M5,0A5,5,0,1,1,-5,0A5,5,0,1,1,5,0" fill="rgb(111, 176, 64)" stroke="white" stroke-width="1" opacity="1"/><path transform="translate(82.50902269417608,0.9208390532218558)" d="M5,0A5,5,0,1,1,-5,0A5,5,0,1,1,5,0" fill="rgb(255, 255, 168)" stroke="white" stroke-width="1" opacity="1"/><path transform="translate(66.31538107275509,82.59287087783427)" d="M5,0A5,5,0,1,1,-5,0A5,5,0,1,1,5,0" fill="rgb(15, 100, 75)" stroke="white" stroke-width="1" opacity="1"/><path transform="translate(43.91608758723916,21.566064126361507)" d="M5,0A5,5,0,1,1,-5,0A5,5,0,1,1,5,0" fill="rgb(215, 218, 53)" stroke="white" stroke-width="1" opacity="1"/><path transform="translate(82.06629291956875,68.61028993435693)" d="M5,0A5,5,0,1,1,-5,0A5,5,0,1,1,5,0" fill="rgb(3, 132, 68)" stroke="white" stroke-width="1" opacity="1"/><path transform="translate(12.034703019533332,28.255011463035096)" d="M5,0A5,5,0,1,1,-5,0A5,5,0,1,1,5,0" fill="rgb(188, 207, 58)" stroke="white" stroke-width="1" opacity="1"/><path transform="translate(18.05426851305201,18.904281630990173)" d="M5,0A5,5,0,1,1,-5,0A5,5,0,1,1,5,0" fill="rgb(225, 223, 51)" stroke="white" stroke-width="1" opacity="1"/><path transform="translate(11.955066392021518,13.101109448114611)" d="M5,0A5,5,0,1,1,-5,0A5,5,0,1,1,5,0" fill="rgb(249, 233, 45)" stroke="white" stroke-width="1" opacity="1"/><path transform="translate(98.59053442349799,22.946763760568878)" d="M5,0A5,5,0,1,1,-5,0A5,5,0,1,1,5,0" fill="rgb(209, 216, 54)" stroke="white" stroke-width="1" opacity="1"/><path transform="translate(76.91339318576857,72.05709128406184)" d="M5,0A5,5,0,1,1,-5,0A5,5,0,1,1,5,0" fill="rgb(2, 124, 72)" stroke="white" stroke-width="1" opacity="1"/><path transform="translate(10.707495569212366,45.87646383304509)" d="M5,0A5,5,0,1,1,-5,0A5,5,0,1,1,5,0" fill="rgb(113, 177, 64)" stroke="white" stroke-width="1" opacity="1"/><path transform="translate(37.999754437405265,80.71609092788177)" d="M5,0A5,5,0,1,1,-5,0A5,5,0,1,1,5,0" fill="rgb(10, 104, 76)" stroke="white" stroke-width="1" opacity="1"/><path transform="translate(46.792627381216725,70.73251515362413)" d="M5,0A5,5,0,1,1,-5,0A5,5,0,1,1,5,0" fill="rgb(2, 127, 70)" stroke="white" stroke-width="1" opacity="1"/><path transform="translate(45.49328222246276,29.49718145993717)" d="M5,0A5,5,0,1,1,-5,0A5,5,0,1,1,5,0" fill="rgb(183, 205, 58)" stroke="white" stroke-width="1" opacity="1"/><path transform="translate(84.63766616006204,24.807245742974892)" d="M5,0A5,5,0,1,1,-5,0A5,5,0,1,1,5,0" fill="rgb(201, 212, 55)" stroke="white" stroke-width="1" opacity="1"/><path transform="translate(9.905297670268542,61.80101088541073)" d="M5,0A5,5,0,1,1,-5,0A5,5,0,1,1,5,0" fill="rgb(33, 146, 66)" stroke="white" stroke-width="1" opacity="1"/><path transform="translate(3.2036360901261496,95.6144428531851)" d="M5,0A5,5,0,1,1,-5,0A5,5,0,1,1,5,0" fill="rgb(49, 68, 63)" stroke="white" stroke-width="1" opacity="1"/><path transform="translate(9.914769506900068,17.6581594173454)" d="M5,0A5,5,0,1,1,-5,0A5,5,0,1,1,5,0" fill="rgb(231, 225, 49)" stroke="white" stroke-width="1" opacity="1"/><path transform="translate(73.44990075010159,22.201082313551744)" d="M5,0A5,5,0,1,1,-5,0A5,5,0,1,1,5,0" fill="rgb(212, 217, 54)" stroke="white" stroke-width="1" opacity="1"/><path transform="translate(13.201219688806543,59.43552487844003)" d="M5,0A5,5,0,1,1,-5,0A5,5,0,1,1,5,0" fill="rgb(48, 151, 66)" stroke="white" stroke-width="1" opacity="1"/><path transform="translate(13.201016939922528,51.18195781238954)" d="M5,0A5,5,0,1,1,-5,0A5,5,0,1,1,5,0" fill="rgb(90, 166, 65)" stroke="white" stroke-width="1" opacity="1"/><path transform="translate(2.553449101628469,19.89717419321564)" d="M5,0A5,5,0,1,1,-5,0A5,5,0,1,1,5,0" fill="rgb(221, 221, 51)" stroke="white" stroke-width="1" opacity="1"/><path transform="translate(42.082876504832626,70.39274954555964)" d="M5,0A5,5,0,1,1,-5,0A5,5,0,1,1,5,0" fill="rgb(3, 128, 70)" stroke="white" stroke-width="1" opacity="1"/><path transform="translate(89.75755778350444,35.91665313199529)" d="M5,0A5,5,0,1,1,-5,0A5,5,0,1,1,5,0" fill="rgb(156, 194, 62)" stroke="white" stroke-width="1" opacity="1"/><path transform="translate(36.958132618282576,21.553551608347377)" d="M5,0A5,5,0,1,1,-5,0A5,5,0,1,1,5,0" fill="rgb(215, 218, 53)" stroke="white" stroke-width="1" opacity="1"/><path transform="translate(83.25982298363452,64.46108483590322)" d="M5,0A5,5,0,1,1,-5,0A5,5,0,1,1,5,0" fill="rgb(17, 141, 66)" stroke="white" stroke-width="1" opacity="1"/><path transform="translate(21.389412038102506,79.71412503684098)" d="M5,0A5,5,0,1,1,-5,0A5,5,0,1,1,5,0" fill="rgb(7, 106, 76)" stroke="white" stroke-width="1" opacity="1"/><path transform="translate(41.82076216075268,3.8449580409649187)" d="M5,0A5,5,0,1,1,-5,0A5,5,0,1,1,5,0" fill="rgb(255, 249, 134)" stroke="white" stroke-width="1" opacity="1"/><path transform="translate(92.30722462272276,44.15468452769177)" d="M5,0A5,5,0,1,1,-5,0A5,5,0,1,1,5,0" fill="rgb(120, 180, 64)" stroke="white" stroke-width="1" opacity="1"/><path transform="translate(72.1912085654183,54.139874995379145)" d="M5,0A5,5,0,1,1,-5,0A5,5,0,1,1,5,0" fill="rgb(78, 161, 66)" stroke="white" stroke-width="1" opacity="1"/><path transform="translate(77.91556731388056,52.34809745639127)" d="M5,0A5,5,0,1,1,-5,0A5,5,0,1,1,5,0" fill="rgb(85, 164, 65)" stroke="white" stroke-width="1" opacity="1"/><path transform="translate(93.27390707877069,54.52376190745323)" d="M5,0A5,5,0,1,1,-5,0A5,5,0,1,1,5,0" fill="rgb(76, 160, 66)" stroke="white" stroke-width="1" opacity="1"/><path transform="translate(25.66156507248443,98.19804705344927)" d="M5,0A5,5,0,1,1,-5,0A5,5,0,1,1,5,0" fill="rgb(55, 61, 60)" stroke="white" stroke-width="1" opacity="1"/><path transform="translate(71.57759369122928,18.640163587112646)" d="M5,0A5,5,0,1,1,-5,0A5,5,0,1,1,5,0" fill="rgb(227, 223, 50)" stroke="white" stroke-width="1" opacity="1"/><path transform="translate(80.19111991709543,14.581030346764845)" d="M5,0A5,5,0,1,1,-5,0A5,5,0,1,1,5,0" fill="rgb(243, 230, 47)" stroke="white" stroke-width="1" opacity="1"/><path transform="translate(19.59545666731376,26.55710883926925)" d="M5,0A5,5,0,1,1,-5,0A5,5,0,1,1,5,0" fill="rgb(194, 210, 56)" stroke="white" stroke-width="1" opacity="1"/><path transform="translate(39.75003372110344,52.150766683406616)" d="M5,0A5,5,0,1,1,-5,0A5,5,0,1,1,5,0" fill="rgb(86, 164, 65)" stroke="white" stroke-width="1" opacity="1"/><path transform="translate(8.634942421144952,68.33092835269741)" d="M5,0A5,5,0,1,1,-5,0A5,5,0,1,1,5,0" fill="rgb(3, 133, 68)" stroke="white" stroke-width="1" opacity="1"/><path transform="translate(27.39802989771185,0.7461974849481301)" d="M5,0A5,5,0,1,1,-5,0A5,5,0,1,1,5,0" fill="rgb(255, 255, 170)" stroke="white" stroke-width="1" opacity="1"/><path transform="translate(40.265787885856255,10.275917587041539)" d="M5,0A5,5,0,1,1,-5,0A5,5,0,1,1,5,0" fill="rgb(255, 238, 60)" stroke="white" stroke-width="1" opacity="1"/><path transform="translate(99.60388125324229,2.143312456000901)" d="M5,0A5,5,0,1,1,-5,0A5,5,0,1,1,5,0" fill="rgb(255, 252, 154)" stroke="white" stroke-width="1" opacity="1"/><path transform="translate(43.21936637454278,21.24424823857517)" d="M5,0A5,5,0,1,1,-5,0A5,5,0,1,1,5,0" fill="rgb(216, 218, 53)" stroke="white" stroke-width="1" opacity="1"/><path transform="translate(16.25221685563266,77.24506022221914)" d="M5,0A5,5,0,1,1,-5,0A5,5,0,1,1,5,0" fill="rgb(0, 112, 77)" stroke="white" stroke-width="1" opacity="1"/><path transform="translate(7.4105355481260515,7.081600156063928)" d="M5,0A5,5,0,1,1,-5,0A5,5,0,1,1,5,0" fill="rgb(255, 243, 97)" stroke="white" stroke-width="1" opacity="1"/><path transform="translate(96.07289785978058,48.91270012448776)" d="M5,0A5,5,0,1,1,-5,0A5,5,0,1,1,5,0" fill="rgb(100, 171, 65)" stroke="white" stroke-width="1" opacity="1"/><path transform="translate(18.76018463861604,82.73063349856609)" d="M5,0A5,5,0,1,1,-5,0A5,5,0,1,1,5,0" fill="rgb(16, 99, 75)" stroke="white" stroke-width="1" opacity="1"/><path transform="translate(16.467368886412014,63.01956119780847)" d="M5,0A5,5,0,1,1,-5,0A5,5,0,1,1,5,0" fill="rgb(26, 144, 66)" stroke="white" stroke-width="1" opacity="1"/><path transform="translate(94.354959562298,57.08982445628714)" d="M5,0A5,5,0,1,1,-5,0A5,5,0,1,1,5,0" fill="rgb(62, 155, 66)" stroke="white" stroke-width="1" opacity="1"/><path transform="translate(6.786649144608681,45.03324222785734)" d="M5,0A5,5,0,1,1,-5,0A5,5,0,1,1,5,0" fill="rgb(116, 178, 64)" stroke="white" stroke-width="1" opacity="1"/><path transform="translate(76.41517063215473,44.34308990243269)" d="M5,0A5,5,0,1,1,-5,0A5,5,0,1,1,5,0" fill="rgb(119, 179, 64)" stroke="white" stroke-width="1" opacity="1"/><path transform="translate(22.916002403824255,83.09116566610447)" d="M5,0A5,5,0,1,1,-5,0A5,5,0,1,1,5,0" fill="rgb(17, 99, 74)" stroke="white" stroke-width="1" opacity="1"/><path transform="translate(54.210712544465345,17.72493823269522)" d="M5,0A5,5,0,1,1,-5,0A5,5,0,1,1,5,0" fill="rgb(230, 225, 49)" stroke="white" stroke-width="1" opacity="1"/><path transform="translate(4.088675227722649,22.772029099407774)" d="M5,0A5,5,0,1,1,-5,0A5,5,0,1,1,5,0" fill="rgb(210, 216, 54)" stroke="white" stroke-width="1" opacity="1"/><path transform="translate(31.550233478636247,57.08846741862694)" d="M5,0A5,5,0,1,1,-5,0A5,5,0,1,1,5,0" fill="rgb(62, 155, 66)" stroke="white" stroke-width="1" opacity="1"/><path transform="translate(77.91367288157628,50.07572947670892)" d="M5,0A5,5,0,1,1,-5,0A5,5,0,1,1,5,0" fill="rgb(95, 168, 65)" stroke="white" stroke-width="1" opacity="1"/><path transform="translate(95.19568267331383,83.28953149833056)" d="M5,0A5,5,0,1,1,-5,0A5,5,0,1,1,5,0" fill="rgb(18, 98, 74)" stroke="white" stroke-width="1" opacity="1"/><path transform="translate(53.72972801124155,17.47523788218216)" d="M5,0A5,5,0,1,1,-5,0A5,5,0,1,1,5,0" fill="rgb(231, 225, 49)" stroke="white" stroke-width="1" opacity="1"/><path transform="translate(97.37351564736636,19.858600621751286)" d="M5,0A5,5,0,1,1,-5,0A5,5,0,1,1,5,0" fill="rgb(222, 221, 51)" stroke="white" stroke-width="1" opacity="1"/><path transform="translate(48.37577923514964,33.81866385921425)" d="M5,0A5,5,0,1,1,-5,0A5,5,0,1,1,5,0" fill="rgb(165, 198, 61)" stroke="white" stroke-width="1" opacity="1"/><path transform="translate(7.279329241198129,16.033359262064074)" d="M5,0A5,5,0,1,1,-5,0A5,5,0,1,1,5,0" fill="rgb(237, 227, 48)" stroke="white" stroke-width="1" opacity="1"/><path transform="translate(55.68556699011179,34.60517759626327)" d="M5,0A5,5,0,1,1,-5,0A5,5,0,1,1,5,0" fill="rgb(162, 196, 61)" stroke="white" stroke-width="1" opacity="1"/><path transform="translate(25.695605803796585,52.06976319711533)" d="M5,0A5,5,0,1,1,-5,0A5,5,0,1,1,5,0" fill="rgb(87, 165, 65)" stroke="white" stroke-width="1" opacity="1"/><path transform="translate(81.54967875088413,48.286461634746026)" d="M5,0A5,5,0,1,1,-5,0A5,5,0,1,1,5,0" fill="rgb(102, 172, 65)" stroke="white" stroke-width="1" opacity="1"/><path transform="translate(41.099476381547504,40.81397584746392)" d="M5,0A5,5,0,1,1,-5,0A5,5,0,1,1,5,0" fill="rgb(134, 186, 63)" stroke="white" stroke-width="1" opacity="1"/><path transform="translate(57.21023149506157,87.6222970371112)" d="M5,0A5,5,0,1,1,-5,0A5,5,0,1,1,5,0" fill="rgb(31, 89, 72)" stroke="white" stroke-width="1" opacity="1"/><path transform="translate(10.803183885248401,50.79593992653635)" d="M5,0A5,5,0,1,1,-5,0A5,5,0,1,1,5,0" fill="rgb(92, 167, 65)" stroke="white" stroke-width="1" opacity="1"/><path transform="translate(13.646293573914681,52.74822678152287)" d="M5,0A5,5,0,1,1,-5,0A5,5,0,1,1,5,0" fill="rgb(84, 163, 65)" stroke="white" stroke-width="1" opacity="1"/><path transform="translate(40.475364416934056,50.69094210758019)" d="M5,0A5,5,0,1,1,-5,0A5,5,0,1,1,5,0" fill="rgb(92, 167, 65)" stroke="white" stroke-width="1" opacity="1"/><path transform="translate(22.083557675997,27.29131776903585)" d="M5,0A5,5,0,1,1,-5,0A5,5,0,1,1,5,0" fill="rgb(191, 208, 57)" stroke="white" stroke-width="1" opacity="1"/><path transform="translate(11.703527893406218,54.22320617488977)" d="M5,0A5,5,0,1,1,-5,0A5,5,0,1,1,5,0" fill="rgb(78, 161, 66)" stroke="white" stroke-width="1" opacity="1"/><path transform="translate(45.68197029515617,2.7598957662285373)" d="M5,0A5,5,0,1,1,-5,0A5,5,0,1,1,5,0" fill="rgb(255, 251, 147)" stroke="white" stroke-width="1" opacity="1"/><path transform="translate(12.682846592232233,7.295111865018889)" d="M5,0A5,5,0,1,1,-5,0A5,5,0,1,1,5,0" fill="rgb(255, 243, 95)" stroke="white" stroke-width="1" opacity="1"/><path transform="translate(88.41918419113385,98.97975708212063)" d="M5,0A5,5,0,1,1,-5,0A5,5,0,1,1,5,0" fill="rgb(57, 59, 59)" stroke="white" stroke-width="1" opacity="1"/><path transform="translate(55.46091604685006,87.91408387000745)" d="M5,0A5,5,0,1,1,-5,0A5,5,0,1,1,5,0" fill="rgb(31, 88, 72)" stroke="white" stroke-width="1" opacity="1"/><path transform="translate(61.37552983175137,71.88213501079642)" d="M5,0A5,5,0,1,1,-5,0A5,5,0,1,1,5,0" fill="rgb(2, 124, 71)" stroke="white" stroke-width="1" opacity="1"/><path transform="translate(63.94317305780795,77.43270142336472)" d="M5,0A5,5,0,1,1,-5,0A5,5,0,1,1,5,0" fill="rgb(0, 111, 77)" stroke="white" stroke-width="1" opacity="1"/><path transform="translate(22.94277960834328,45.4757796636986)" d="M5,0A5,5,0,1,1,-5,0A5,5,0,1,1,5,0" fill="rgb(114, 177, 64)" stroke="white" stroke-width="1" opacity="1"/><path transform="translate(60.720940394889375,14.90698278271746)" d="M5,0A5,5,0,1,1,-5,0A5,5,0,1,1,5,0" fill="rgb(242, 229, 47)" stroke="white" stroke-width="1" opacity="1"/><path transform="translate(97.96669516051006,52.160507052417074)" d="M5,0A5,5,0,1,1,-5,0A5,5,0,1,1,5,0" fill="rgb(86, 164, 65)" stroke="white" stroke-width="1" opacity="1"/><path transform="translate(88.87208536510688,89.7689911594071)" d="M5,0A5,5,0,1,1,-5,0A5,5,0,1,1,5,0" fill="rgb(36, 83, 70)" stroke="white" stroke-width="1" opacity="1"/><path transform="translate(20.22601086953104,38.449033067888294)" d="M5,0A5,5,0,1,1,-5,0A5,5,0,1,1,5,0" fill="rgb(145, 190, 62)" stroke="white" stroke-width="1" opacity="1"/><path transform="translate(59.41632586353205,29.27567173231912)" d="M5,0A5,5,0,1,1,-5,0A5,5,0,1,1,5,0" fill="rgb(183, 205, 58)" stroke="white" stroke-width="1" opacity="1"/><path transform="translate(19.42561085325808,8.11866706875286)" d="M5,0A5,5,0,1,1,-5,0A5,5,0,1,1,5,0" fill="rgb(255, 242, 85)" stroke="white" stroke-width="1" opacity="1"/><path transform="translate(6.334184459522996,99.37357146779152)" d="M5,0A5,5,0,1,1,-5,0A5,5,0,1,1,5,0" fill="rgb(58, 58, 58)" stroke="white" stroke-width="1" opacity="1"/><path transform="translate(97.8557289592744,94.2941713808696)" d="M5,0A5,5,0,1,1,-5,0A5,5,0,1,1,5,0" fill="rgb(46, 71, 64)" stroke="white" stroke-width="1" opacity="1"/><path transform="translate(60.91898440263641,6.512658375993663)" d="M5,0A5,5,0,1,1,-5,0A5,5,0,1,1,5,0" fill="rgb(255, 244, 104)" stroke="white" stroke-width="1" opacity="1"/><path transform="translate(51.38175078346715,77.14006829869439)" d="M5,0A5,5,0,1,1,-5,0A5,5,0,1,1,5,0" fill="rgb(0, 112, 77)" stroke="white" stroke-width="1" opacity="1"/><path transform="translate(32.3480831619289,20.918892432496595)" d="M5,0A5,5,0,1,1,-5,0A5,5,0,1,1,5,0" fill="rgb(217, 219, 52)" stroke="white" stroke-width="1" opacity="1"/><path transform="translate(55.89636211076531,63.23405849966159)" d="M5,0A5,5,0,1,1,-5,0A5,5,0,1,1,5,0" fill="rgb(24, 143, 66)" stroke="white" stroke-width="1" opacity="1"/><path transform="translate(86.07871497531242,53.72351263330103)" d="M5,0A5,5,0,1,1,-5,0A5,5,0,1,1,5,0" fill="rgb(80, 161, 66)" stroke="white" stroke-width="1" opacity="1"/><path transform="translate(50.64521678539524,18.708134678151968)" d="M5,0A5,5,0,1,1,-5,0A5,5,0,1,1,5,0" fill="rgb(226, 223, 50)" stroke="white" stroke-width="1" opacity="1"/><path transform="translate(6.184242230013737,73.51973918768147)" d="M5,0A5,5,0,1,1,-5,0A5,5,0,1,1,5,0" fill="rgb(1, 120, 73)" stroke="white" stroke-width="1" opacity="1"/><path transform="translate(94.05477180703139,23.109967976209955)" d="M5,0A5,5,0,1,1,-5,0A5,5,0,1,1,5,0" fill="rgb(208, 215, 54)" stroke="white" stroke-width="1" opacity="1"/><path transform="translate(54.045499978082624,86.15342957706595)" d="M5,0A5,5,0,1,1,-5,0A5,5,0,1,1,5,0" fill="rgb(26, 92, 73)" stroke="white" stroke-width="1" opacity="1"/><path transform="translate(11.805486229219142,52.19332985302451)" d="M5,0A5,5,0,1,1,-5,0A5,5,0,1,1,5,0" fill="rgb(86, 164, 65)" stroke="white" stroke-width="1" opacity="1"/><path transform="translate(15.811704832213724,72.03353246729759)" d="M5,0A5,5,0,1,1,-5,0A5,5,0,1,1,5,0" fill="rgb(2, 124, 72)" stroke="white" stroke-width="1" opacity="1"/><path transform="translate(2.787323442036349,4.850286565396711)" d="M5,0A5,5,0,1,1,-5,0A5,5,0,1,1,5,0" fill="rgb(255, 248, 123)" stroke="white" stroke-width="1" opacity="1"/><path transform="translate(0.5331627725442045,98.41521236999516)" d="M5,0A5,5,0,1,1,-5,0A5,5,0,1,1,5,0" fill="rgb(56, 61, 59)" stroke="white" stroke-width="1" opacity="1"/><path transform="translate(45.33812442174662,59.183518197901584)" d="M5,0A5,5,0,1,1,-5,0A5,5,0,1,1,5,0" fill="rgb(49, 151, 66)" stroke="white" stroke-width="1" opacity="1"/><path transform="translate(30.58164308317597,88.07484263603462)" d="M5,0A5,5,0,1,1,-5,0A5,5,0,1,1,5,0" fill="rgb(32, 88, 72)" stroke="white" stroke-width="1" opacity="1"/></g></g><path class="foreground" aria-hidden="true" d="" display="none"/></g></g><g class="mark-group role-legend" role="graphics-symbol" aria-roledescription="legend" aria-label="Gradient legend titled 'y' for fill color with values from 0.0 to 1.0"><g transform="translate(124,0)"><path class="background" aria-hidden="true" d="M0,0h28v96h-28Z" pointer-events="none"/><g><g class="mark-group role-legend-entry"><g transform="translate(0,16)"><path class="background" aria-hidden="true" d="M0,0h0v0h0Z" pointer-events="none"/><g><g class="mark-rect role-legend-gradient" pointer-events="none"><path d="M0,0h10v80h-10Z" fill="url(#gradient_0)" stroke="#ddd" stroke-width="0" opacity="1"/></g><g class="mark-text role-legend-label" pointer-events="none"><text text-anchor="start" transform="translate(12,78)" font-family="sans-serif" font-size="10px" font-style="normal" font-weight="400" fill="#000" opacity="1">0.0</text><text text-anchor="start" transform="translate(12,8)" font-family="sans-serif" font-size="10px" font-style="normal" font-weight="400" fill="#000" opacity="1">1.0</text></g></g><path class="foreground" aria-hidden="true" d="" pointer-events="none" display="none"/></g></g><g class="mark-text role-legend-title" pointer-events="none"><text text-anchor="start" transform="translate(0,9)" font-family="sans-serif" font-size="11px" font-style="normal" font-weight="400" fill="#000" opacity="1">y</text></g></g><path class="foreground" aria-hidden="true" d="" pointer-events="none" display="none"/></g></g></g><path class="foreground" aria-hidden="true" d="" display="none"/></g></g></g><defs><linearGradient id="gradient_0" x1="0" x2="0" y1="1" y2="0"><stop offset="0" stop-color="rgb(58, 58, 58)"/><stop offset="0.044344397413970706" stop-color="rgb(48, 70, 64)"/><stop offset="0.09504026204147026" stop-color="rgb(37, 83, 70)"/><stop offset="0.1457361266689698" stop-color="rgb(23, 94, 74)"/><stop offset="0.19643199129646938" stop-color="rgb(8, 105, 76)"/><stop offset="0.2471278559239689" stop-color="rgb(1, 117, 75)"/><stop offset="0.29782372055146844" stop-color="rgb(3, 129, 70)"/><stop offset="0.34851958517896797" stop-color="rgb(13, 140, 66)"/><stop offset="0.3992154498064676" stop-color="rgb(44, 149, 66)"/><stop offset="0.44991131443396715" stop-color="rgb(74, 159, 66)"/><stop offset="0.5006071790614667" stop-color="rgb(95, 169, 65)"/><stop offset="0.5513030436889663" stop-color="rgb(116, 178, 64)"/><stop offset="0.6019989083164657" stop-color="rgb(138, 187, 63)"/><stop offset="0.6526947729439654" stop-color="rgb(160, 196, 61)"/><stop offset="0.7033906375714648" stop-color="rgb(181, 204, 59)"/><stop offset="0.7540865021989644" stop-color="rgb(201, 212, 55)"/><stop offset="0.8047823668264641" stop-color="rgb(221, 221, 52)"/><stop offset="0.8554782314539635" stop-color="rgb(241, 229, 47)"/><stop offset="0.9061740960814632" stop-color="rgb(255, 238, 64)"/><stop offset="0.9568699607089626" stop-color="rgb(255, 247, 121)"/><stop offset="1" stop-color="rgb(255, 255, 170)"/></linearGradient></defs></svg>