<svg xmlns="http://www.w3.org/2000/svg" xmlns:xlink="http://www.w3.org/1999/xlink" version="1.1" class="marks" width="122" height="122" viewBox="0 0 122 122"><rect width="122" height="122" fill="white"/><g fill="none" stroke-miterlimit="10" transform="translate(22,5)"><g class="mark-group role-frame root" role="graphics-object" aria-roledescription="group mark container"><g transform="translate(0,0)"><path class="background" aria-hidden="true" d="M0,0h100v100h-100Z"/><g><g class="mark-group role-axis" role="graphics-symbol" aria-roledescription="axis" aria-label="X-axis for a discrete scale with 1 value: variable(s)"><g transform="translate(0.5,100.5)"><path class="background" aria-hidden="true" d="M0,0h0v0h0Z" pointer-events="none"/><g><g class="mark-rule role-axis-tick" pointer-events="none"><line transform="translate(50,0)" x2="0" y2="5" stroke="white" stroke-width="1.01" opacity="1"/></g><g class="mark-text role-axis-label" pointer-events="none"><text text-anchor="middle" transform="translate(49.5,15)" font-family="sans-serif" font-size="10px" font-style="normal" font-weight="400" fill="black" opacity="1">variable(s)</text></g></g><path class="foreground" aria-hidden="true" d="" pointer-events="none" display="none"/></g></g><g class="mark-group role-axis" role="graphics-symbol" aria-roledescription="axis" aria-label="Y-axis for a linear scale with values from −5 to 4"><g transform="translate(0.5,0.5)"><path class="background" aria-hidden="true" d="M0,0h0v0h0Z" pointer-events="none"/><g><g class="mark-rule role-axis-tick" pointer-events="none"><line transform="translate(0,89)" x2="-5" y2="0" stroke="white" stroke-width="1.01" opacity="1"/><line transform="translate(0,67)" x2="-5" y2="0" stroke="white" stroke-width="1.01" opacity="1"/><line transform="translate(0,44)" x2="-5" y2="0" stroke="white" stroke-width="1.01" opacity="1"/><line transform="translate(0,22)" x2="-5" y2="0" stroke="white" stroke-width="1.01" opacity="1"/><line transform="translate(0,0)" x2="-5" y2="0" stroke="white" stroke-width="1.01" opacity="1"/></g><g class="mark-text role-axis-label" pointer-events="none"><text text-anchor="end" transform="translate(-7,91.88888888888889)" font-family="sans-serif" font-size="10px" font-style="normal" font-weight="400" fill="white" opacity="1">−4</text><text text-anchor="end" transform="translate(-7,69.66666666666667)" font-family="sans-serif" font-size="10px" font-style="normal" font-weight="400" fill="white" opacity="1">−2</text><text text-anchor="end" transform="translate(-7,47.44444444444444)" font-family="sans-serif" font-size="10px" font-style="normal" font-weight="400" fill="white" opacity="1">0</text><text text-anchor="end" transform="translate(-7,25.22222222222222)" font-family="sans-serif" font-size="10px" font-style="normal" font-weight="400" fill="white" opacity="1">2</text><text text-anchor="end" transform="translate(-7,3)" font-family="sans-serif" font-size="10px" font-style="normal" font-weight="400" fill="white" opacity="1">4</text></g></g><path class="foreground" aria-hidden="true" d="" pointer-events="none" display="none"/></g></g><g class="mark-group role-scope" role="graphics-object" aria-roledescription="group mark container"><g transform="translate(0,0)"><path class="background" aria-hidden="true" d="M0,0h0v0h0Z"/><g><g class="mark-group role-scope" role="graphics-object" aria-roledescription="group mark container"><g transform="translate(0,0)"><path class="background" aria-hidden="true" d="M0,0h24.050632911392405v100h-24.050632911392405Z"/><g><g class="mark-area role-mark" role="graphics-symbol" aria-roledescription="area mark container"><path d="M12.029,89.011L12.031,88.14L12.034,87.269L12.04,86.399L12.048,85.528L12.059,84.657L12.075,83.787L12.096,82.916L12.124,82.045L12.159,81.175L12.201,80.304L12.25,79.433L12.308,78.562L12.371,77.692L12.441,76.821L12.516,75.95L12.596,75.08L12.68,74.209L12.769,73.338L12.866,72.467L12.971,71.597L13.088,70.726L13.221,69.855L13.371,68.985L13.543,68.114L13.738,67.243L13.957,66.372L14.202,65.502L14.472,64.631L14.77,63.76L15.094,62.89L15.445,62.019L15.824,61.148L16.229,60.277L16.66,59.407L17.115,58.536L17.59,57.665L18.082,56.795L18.584,55.924L19.089,55.053L19.591,54.182L20.081,53.312L20.55,52.441L20.991,51.57L21.393,50.7L21.749,49.829L22.052,48.958L22.296,48.088L22.475,47.217L22.586,46.346L22.627,45.475L22.598,44.605L22.5,43.734L22.337,42.863L22.113,41.993L21.834,41.122L21.509,40.251L21.146,39.38L20.753,38.51L20.338,37.639L19.91,36.768L19.474,35.898L19.038,35.027L18.605,34.156L18.18,33.285L17.767,32.415L17.37,31.544L16.992,30.673L16.635,29.803L16.303,28.932L15.998,28.061L15.72,27.19L15.47,26.32L15.246,25.449L15.044,24.578L14.862,23.708L14.695,22.837L14.537,21.966L14.382,21.096L14.226,20.225L14.064,19.354L13.894,18.483L13.716,17.613L13.531,16.742L13.341,15.871L13.153,15.001L12.971,14.13L12.8,13.259L12.645,12.388L12.508,11.518L12.392,10.647L12.296,9.776L12.22,8.906L12.161,8.035L12.118,7.164L12.086,6.293L12.064,5.423L12.05,4.552L12.04,3.681L12.034,2.811L12.017,2.811L12.011,3.681L12.001,4.552L11.986,5.423L11.964,6.293L11.933,7.164L11.889,8.035L11.831,8.906L11.755,9.776L11.659,10.647L11.543,11.518L11.406,12.388L11.251,13.259L11.08,14.13L10.897,15.001L10.709,15.871L10.52,16.742L10.335,17.613L10.157,18.483L9.987,19.354L9.825,20.225L9.669,21.096L9.514,21.966L9.356,22.837L9.188,23.708L9.006,24.578L8.805,25.449L8.581,26.32L8.33,27.19L8.053,28.061L7.747,28.932L7.416,29.803L7.059,30.673L6.681,31.544L6.283,32.415L5.871,33.285L5.446,34.156L5.013,35.027L4.576,35.898L4.141,36.768L3.712,37.639L3.298,38.51L2.905,39.38L2.541,40.251L2.216,41.122L1.938,41.993L1.714,42.863L1.55,43.734L1.452,44.605L1.423,45.475L1.464,46.346L1.575,47.217L1.755,48.088L1.998,48.958L2.302,49.829L2.658,50.7L3.06,51.57L3.5,52.441L3.969,53.312L4.459,54.182L4.961,55.053L5.467,55.924L5.969,56.795L6.46,57.665L6.936,58.536L7.39,59.407L7.821,60.277L8.227,61.148L8.605,62.019L8.957,62.89L9.281,63.76L9.578,64.631L9.849,65.502L10.094,66.372L10.313,67.243L10.508,68.114L10.679,68.985L10.83,69.855L10.962,70.726L11.08,71.597L11.185,72.467L11.281,73.338L11.371,74.209L11.455,75.08L11.534,75.95L11.609,76.821L11.679,77.692L11.743,78.562L11.8,79.433L11.85,80.304L11.892,81.175L11.927,82.045L11.954,82.916L11.975,83.787L11.991,84.657L12.003,85.528L12.011,86.399L12.016,87.269L12.02,88.14L12.022,89.011Z" fill="#4c78a8" fill-opacity="0.5" stroke="#4c78a8" stroke-width="1"/></g></g><path class="foreground" aria-hidden="true" d="" display="none"/></g><g transform="translate(25.31645569620253,0)"><path class="background" aria-hidden="true" d="M0,0h24.050632911392405v100h-24.050632911392405Z"/><g><g class="mark-area role-mark" role="graphics-symbol" aria-roledescription="area mark container"><path d="M12.03,81.066L12.033,80.321L12.039,79.576L12.047,78.832L12.059,78.087L12.076,77.343L12.1,76.598L12.132,75.853L12.174,75.109L12.228,74.364L12.294,73.619L12.373,72.875L12.466,72.13L12.572,71.386L12.691,70.641L12.821,69.896L12.964,69.152L13.118,68.407L13.288,67.662L13.474,66.918L13.681,66.173L13.914,65.429L14.178,64.684L14.476,63.939L14.811,63.195L15.182,62.45L15.588,61.705L16.02,60.961L16.472,60.216L16.932,59.472L17.387,58.727L17.828,57.982L18.244,57.238L18.63,56.493L18.983,55.748L19.305,55.004L19.603,54.259L19.882,53.515L20.151,52.77L20.418,52.025L20.686,51.281L20.958,50.536L21.232,49.791L21.503,49.047L21.762,48.302L22.002,47.558L22.214,46.813L22.389,46.068L22.525,45.324L22.62,44.579L22.675,43.834L22.696,43.09L22.692,42.345L22.671,41.601L22.64,40.856L22.606,40.111L22.567,39.367L22.52,38.622L22.453,37.877L22.35,37.133L22.193,36.388L21.962,35.644L21.645,34.899L21.231,34.154L20.72,33.41L20.123,32.665L19.457,31.92L18.746,31.176L18.019,30.431L17.305,29.687L16.628,28.942L16.01,28.197L15.464,27.453L14.996,26.708L14.604,25.963L14.282,25.219L14.018,24.474L13.799,23.729L13.614,22.985L13.451,22.24L13.3,21.496L13.157,20.751L13.019,20.006L12.886,19.262L12.757,18.517L12.636,17.772L12.524,17.028L12.424,16.283L12.337,15.539L12.263,14.794L12.203,14.049L12.154,13.305L12.117,12.56L12.088,11.815L12.068,11.071L12.053,10.326L12.043,9.582L12.036,8.837L12.032,8.092L12.029,7.348L12.021,7.348L12.019,8.092L12.014,8.837L12.008,9.582L11.997,10.326L11.983,11.071L11.962,11.815L11.934,12.56L11.896,13.305L11.848,14.049L11.787,14.794L11.714,15.539L11.626,16.283L11.526,17.028L11.415,17.772L11.294,18.517L11.165,19.262L11.031,20.006L10.893,20.751L10.75,21.496L10.6,22.24L10.437,22.985L10.251,23.729L10.033,24.474L9.769,25.219L9.446,25.963L9.055,26.708L8.587,27.453L8.041,28.197L7.423,28.942L6.746,29.687L6.031,30.431L5.304,31.176L4.593,31.92L3.927,32.665L3.33,33.41L2.82,34.154L2.406,34.899L2.088,35.644L1.858,36.388L1.701,37.133L1.598,37.877L1.531,38.622L1.483,39.367L1.445,40.111L1.41,40.856L1.38,41.601L1.359,42.345L1.354,43.09L1.376,43.834L1.431,44.579L1.525,45.324L1.661,46.068L1.837,46.813L2.048,47.558L2.288,48.302L2.548,49.047L2.818,49.791L3.092,50.536L3.364,51.281L3.633,52.025L3.9,52.77L4.169,53.515L4.448,54.259L4.745,55.004L5.068,55.748L5.421,56.493L5.807,57.238L6.223,57.982L6.663,58.727L7.119,59.472L7.579,60.216L8.03,60.961L8.463,61.705L8.868,62.45L9.24,63.195L9.575,63.939L9.873,64.684L10.136,65.429L10.369,66.173L10.577,66.918L10.763,67.662L10.932,68.407L11.087,69.152L11.229,69.896L11.36,70.641L11.478,71.386L11.584,72.13L11.677,72.875L11.757,73.619L11.823,74.364L11.876,75.109L11.919,75.853L11.951,76.598L11.975,77.343L11.992,78.087L12.004,78.832L12.012,79.576L12.017,80.321L12.021,81.066Z" fill="#f58518" fill-opacity="0.5" stroke="#f58518" stroke-width="1"/></g></g><path class="foreground" aria-hidden="true" d="" display="none"/></g><g transform="translate(50.63291139240506,0)"><path class="background" aria-hidden="true" d="M0,0h24.050632911392405v100h-24.050632911392405Z"/><g><g class="mark-area role-mark" role="graphics-symbol" aria-roledescription="area mark container"><path d="M12.029,88.636L12.031,87.788L12.035,86.94L12.041,86.093L12.05,85.245L12.064,84.398L12.082,83.55L12.105,82.703L12.135,81.855L12.171,81.007L12.213,80.16L12.259,79.312L12.31,78.465L12.363,77.617L12.417,76.77L12.472,75.922L12.528,75.074L12.585,74.227L12.645,73.379L12.709,72.532L12.781,71.684L12.861,70.836L12.954,69.989L13.062,69.141L13.186,68.294L13.331,67.446L13.498,66.599L13.69,65.751L13.907,64.903L14.149,64.056L14.414,63.208L14.7,62.361L15.006,61.513L15.332,60.665L15.679,59.818L16.053,58.97L16.462,58.123L16.914,57.275L17.416,56.428L17.972,55.58L18.58,54.732L19.23,53.885L19.907,53.037L20.59,52.19L21.255,51.342L21.877,50.495L22.438,49.647L22.923,48.799L23.323,47.952L23.635,47.104L23.859,46.257L23.997,45.409L24.051,44.561L24.023,43.714L23.914,42.866L23.728,42.019L23.469,41.171L23.143,40.324L22.761,39.476L22.335,38.628L21.878,37.781L21.401,36.933L20.913,36.086L20.417,35.238L19.914,34.39L19.402,33.543L18.877,32.695L18.339,31.848L17.787,31L17.228,30.153L16.671,29.305L16.128,28.457L15.611,27.61L15.134,26.762L14.707,25.915L14.334,25.067L14.018,24.22L13.754,23.372L13.535,22.524L13.354,21.677L13.199,20.829L13.064,19.982L12.941,19.134L12.825,18.286L12.716,17.439L12.612,16.591L12.514,15.744L12.423,14.896L12.341,14.049L12.27,13.201L12.209,12.353L12.16,11.506L12.121,10.658L12.091,9.811L12.069,8.963L12.054,8.115L12.043,7.268L12.036,6.42L12.031,5.573L12.029,4.725L12.022,4.725L12.019,5.573L12.015,6.42L12.008,7.268L11.997,8.115L11.982,8.963L11.96,9.811L11.93,10.658L11.891,11.506L11.841,12.353L11.781,13.201L11.71,14.049L11.628,14.896L11.537,15.744L11.439,16.591L11.335,17.439L11.225,18.286L11.11,19.134L10.987,19.982L10.852,20.829L10.697,21.677L10.515,22.524L10.297,23.372L10.033,24.22L9.716,25.067L9.344,25.915L8.916,26.762L8.44,27.61L7.923,28.457L7.38,29.305L6.822,30.153L6.263,31L5.712,31.848L5.174,32.695L4.649,33.543L4.137,34.39L3.634,35.238L3.138,36.086L2.649,36.933L2.172,37.781L1.716,38.628L1.29,39.476L0.908,40.324L0.582,41.171L0.322,42.019L0.136,42.866L0.028,43.714L0,44.561L0.054,45.409L0.192,46.257L0.416,47.104L0.727,47.952L1.127,48.799L1.612,49.647L2.173,50.495L2.796,51.342L3.46,52.19L4.143,53.037L4.821,53.885L5.471,54.732L6.079,55.58L6.635,56.428L7.137,57.275L7.588,58.123L7.997,58.97L8.371,59.818L8.719,60.665L9.045,61.513L9.351,62.361L9.637,63.208L9.902,64.056L10.144,64.903L10.361,65.751L10.552,66.599L10.72,67.446L10.864,68.294L10.989,69.141L11.096,69.989L11.189,70.836L11.27,71.684L11.341,72.532L11.406,73.379L11.466,74.227L11.523,75.074L11.578,75.922L11.633,76.77L11.688,77.617L11.741,78.465L11.791,79.312L11.838,80.16L11.88,81.007L11.916,81.855L11.945,82.703L11.969,83.55L11.987,84.398L12,85.245L12.009,86.093L12.016,86.94L12.02,87.788L12.022,88.636Z" fill="#e45756" fill-opacity="0.5" stroke="#e45756" stroke-width="1"/></g></g><path class="foreground" aria-hidden="true" d="" display="none"/></g><g transform="translate(75.9493670886076,0)"><path class="background" aria-hidden="true" d="M0,0h24.050632911392405v100h-24.050632911392405Z"/><g><g class="mark-area role-mark" role="graphics-symbol" aria-roledescription="area mark container"><path d="M12.029,84.846L12.031,84.021L12.035,83.196L12.041,82.372L12.049,81.547L12.062,80.722L12.079,79.898L12.102,79.073L12.133,78.248L12.172,77.424L12.222,76.599L12.282,75.774L12.354,74.95L12.438,74.125L12.535,73.3L12.646,72.476L12.771,71.651L12.913,70.826L13.072,70.002L13.252,69.177L13.455,68.353L13.685,67.528L13.944,66.703L14.235,65.879L14.561,65.054L14.921,64.229L15.314,63.405L15.734,62.58L16.176,61.755L16.63,60.931L17.084,60.106L17.525,59.281L17.94,58.457L18.319,57.632L18.654,56.807L18.943,55.983L19.189,55.158L19.4,54.333L19.589,53.509L19.773,52.684L19.965,51.859L20.18,51.035L20.425,50.21L20.701,49.385L21.004,48.561L21.321,47.736L21.636,46.911L21.932,46.087L22.189,45.262L22.392,44.437L22.528,43.613L22.589,42.788L22.57,41.964L22.471,41.139L22.297,40.314L22.051,39.49L21.743,38.665L21.381,37.84L20.975,37.016L20.538,36.191L20.08,35.366L19.612,34.542L19.143,33.717L18.682,32.892L18.235,32.068L17.803,31.243L17.388,30.418L16.989,29.594L16.607,28.769L16.24,27.944L15.888,27.12L15.553,26.295L15.235,25.47L14.938,24.646L14.662,23.821L14.409,22.996L14.177,22.172L13.967,21.347L13.774,20.522L13.596,19.698L13.429,18.873L13.272,18.048L13.122,17.224L12.979,16.399L12.843,15.575L12.714,14.75L12.595,13.925L12.487,13.101L12.391,12.276L12.309,11.451L12.239,10.627L12.183,9.802L12.139,8.977L12.104,8.153L12.079,7.328L12.061,6.503L12.048,5.679L12.04,4.854L12.034,4.029L12.03,3.205L12.02,3.205L12.017,4.029L12.011,4.854L12.002,5.679L11.99,6.503L11.971,7.328L11.946,8.153L11.912,8.977L11.868,9.802L11.811,10.627L11.742,11.451L11.66,12.276L11.564,13.101L11.456,13.925L11.337,14.75L11.208,15.575L11.072,16.399L10.928,17.224L10.779,18.048L10.621,18.873L10.455,19.698L10.277,20.522L10.084,21.347L9.873,22.172L9.642,22.996L9.388,23.821L9.113,24.646L8.815,25.47L8.498,26.295L8.162,27.12L7.811,27.944L7.444,28.769L7.061,29.594L6.663,30.418L6.248,31.243L5.816,32.068L5.368,32.892L4.907,33.717L4.439,34.542L3.971,35.366L3.513,36.191L3.075,37.016L2.67,37.84L2.308,38.665L1.999,39.49L1.754,40.314L1.579,41.139L1.481,41.964L1.462,42.788L1.522,43.613L1.658,44.437L1.861,45.262L2.119,46.087L2.414,46.911L2.73,47.736L3.047,48.561L3.349,49.385L3.626,50.21L3.87,51.035L4.085,51.859L4.278,52.684L4.461,53.509L4.651,54.333L4.862,55.158L5.107,55.983L5.396,56.807L5.731,57.632L6.11,58.457L6.526,59.281L6.967,60.106L7.42,60.931L7.874,61.755L8.316,62.58L8.737,63.405L9.13,64.229L9.49,65.054L9.815,65.879L10.107,66.703L10.366,67.528L10.596,68.353L10.799,69.177L10.979,70.002L11.138,70.826L11.279,71.651L11.405,72.476L11.516,73.3L11.613,74.125L11.697,74.95L11.769,75.774L11.829,76.599L11.878,77.424L11.918,78.248L11.948,79.073L11.972,79.898L11.989,80.722L12.001,81.547L12.01,82.372L12.016,83.196L12.019,84.021L12.022,84.846Z" fill="#72b7b2" fill-opacity="0.5" stroke="#72b7b2" stroke-width="1"/></g></g><path class="foreground" aria-hidden="true" d="" display="none"/></g></g></g><path class="foreground" aria-hidden="true" d="" display="none"/></g></g></g><path class="foreground" aria-hidden="true" d="" display="none"/></g></g></g></svg>