<svg xmlns="http://www.w3.org/2000/svg" xmlns:xlink="http://www.w3.org/1999/xlink" version="1.1" class="marks" width="190" height="138" viewBox="0 0 190 138"><rect width="190" height="138" fill="white"/><g fill="none" stroke-miterlimit="10" transform="translate(38,6)"><g class="mark-group role-frame root" role="graphics-object" aria-roledescription="group mark container"><g transform="translate(0,0)"><path class="background" aria-hidden="true" d="M0,0h100v100h-100Z" fill="lightgray"/><g><g class="mark-group role-axis" role="graphics-symbol" aria-roledescription="axis" aria-label="X-axis titled 'x' for a linear scale with values from 0.0 to 1.0"><g transform="translate(0.5,100.5)"><path class="background" aria-hidden="true" d="M0,0h0v0h0Z" pointer-events="none"/><g><g class="mark-rule role-axis-grid" pointer-events="none"><line transform="translate(0,0)" x2="0" y2="-100" stroke="white" stroke-width="0.5" stroke-dasharray="0" opacity="1"/><line transform="translate(50,0)" x2="0" y2="-100" stroke="white" stroke-width="0.5" stroke-dasharray="0" opacity="1"/><line transform="translate(100,0)" x2="0" y2="-100" stroke="white" stroke-width="0.5" stroke-dasharray="0" opacity="1"/></g><g class="mark-rule role-axis-tick" pointer-events="none"><line transform="translate(0,0)" x2="0" y2="5" stroke="black" stroke-width="1.01" opacity="1"/><line transform="translate(50,0)" x2="0" y2="5" stroke="black" stroke-width="1.01" opacity="1"/><line transform="translate(100,0)" x2="0" y2="5" stroke="black" stroke-width="1.01" opacity="1"/></g><g class="mark-text role-axis-label" pointer-events="none"><text text-anchor="middle" transform="translate(0,15)" font-family="sans-serif" font-size="10px" font-style="normal" font-weight="400" fill="black" opacity="1">0.0</text><text text-anchor="middle" transform="translate(50,15)" font-family="sans-serif" font-size="10px" font-style="normal" font-weight="400" fill="black" opacity="1">0.5</text><text text-anchor="middle" transform="translate(100,15)" font-family="sans-serif" font-size="10px" font-style="normal" font-weight="400" fill="black" opacity="1">1.0</text></g><g class="mark-rule role-axis-domain" pointer-events="none"><line transform="translate(0,0)" x2="100" y2="0" stroke="black" stroke-width="1.01" opacity="1"/></g><g class="mark-text role-axis-title" pointer-events="none"><text text-anchor="middle" transform="translate(50,30)" font-family="sans-serif" font-size="11px" font-style="normal" font-weight="400" fill="black" opacity="1">x</text></g></g><path class="foreground" aria-hidden="true" d="" pointer-events="none" display="none"/></g></g><g class="mark-group role-axis" role="graphics-symbol" aria-roledescription="axis" aria-label="Y-axis titled 'y' for a linear scale with values from 0.0 to 1.0"><g transform="translate(0.5,0.5)"><path class="background" aria-hidden="true" d="M0,0h0v0h0Z" pointer-events="none"/><g><g class="mark-rule role-axis-grid" pointer-events="none"><line transform="translate(0,100)" x2="100" y2="0" stroke="white" stroke-width="0.5" stroke-dasharray="0" opacity="1"/><line transform="translate(0,50)" x2="100" y2="0" stroke="white" stroke-width="0.5" stroke-dasharray="0" opacity="1"/><line transform="translate(0,0)" x2="100" y2="0" stroke="white" stroke-width="0.5" stroke-dasharray="0" opacity="1"/></g><g class="mark-rule role-axis-tick" pointer-events="none"><line transform="translate(0,100)" x2="-5" y2="0" stroke="black" stroke-width="1.01" opacity="1"/><line transform="translate(0,50)" x2="-5" y2="0" stroke="black" stroke-width="1.01" opacity="1"/><line transform="translate(0,0)" x2="-5" y2="0" stroke="black" stroke-width="1.01" opacity="1"/></g><g class="mark-text role-axis-label" pointer-events="none"><text text-anchor="end" transform="translate(-7,103)" font-family="sans-serif" font-size="10px" font-style="normal" font-weight="400" fill="black" opacity="1">0.0</text><text text-anchor="end" transform="translate(-7,53)" font-family="sans-serif" font-size="10px" font-style="normal" font-weight="400" fill="black" opacity="1">0.5</text><text text-anchor="end" transform="translate(-7,3)" font-family="sans-serif" font-size="10px" font-style="normal" font-weight="400" fill="black" opacity="1">1.0</text></g><g class="mark-rule role-axis-domain" pointer-events="none"><line transform="translate(0,100)" x2="0" y2="-100" stroke="black" stroke-width="1.01" opacity="1"/></g><g class="mark-text role-axis-title" pointer-events="none"><text text-anchor="middle" transform="translate(-26.9033203125,50) rotate(-90) translate(0,-2)" font-family="sans-serif" font-size="11px" font-style="normal" font-weight="400" fill="black" opacity="1">y</text></g></g><path class="foreground" aria-hidden="true" d="" pointer-events="none" display="none"/></g></g><g class="mark-group role-scope" role="graphics-object" aria-roledescription="group mark container"><g transform="translate(0,0)"><path class="background" aria-hidden="true" d="M0,0h0v0h0Z"/><g><g class="mark-symbol role-mark points" role="graphics-symbol" aria-roledescription="symbol mark container"><path transform="translate(39.5517704627001,65.48345470754559)" d="M5,0A5,5,0,1,1,-5,0A5,5,0,1,1,5,0" fill="rgb(7, 138, 66)" stroke="white" stroke-width="1" opacity="1"/><path transform="translate(83.96023681636613,43.296806346733774)" d="M5,0A5,5,0,1,1,-5,0A5,5,0,1,1,5,0" fill="rgb(121, 180, 64)" stroke="white" stroke-width="1" opacity="1"/><path transform="translate(3.1911357602888324,25.28062002599114)" d="M5,0A5,5,0,1,1,-5,0A5,5,0,1,1,5,0" fill="rgb(197, 211, 56)" stroke="white" stroke-width="1" opacity="1"/><path transform="translate(18.547591230901205,2.0833644711420796)" d="M5,0A5,5,0,1,1,-5,0A5,5,0,1,1,5,0" fill="rgb(255, 252, 149)" stroke="white" stroke-width="1" opacity="1"/><path transform="translate(41.77086762274883,75.94559621998043)" d="M5,0A5,5,0,1,1,-5,0A5,5,0,1,1,5,0" fill="rgb(0, 113, 76)" stroke="white" stroke-width="1" opacity="1"/><path transform="translate(43.79479237702304,24.888428263900884)" d="M5,0A5,5,0,1,1,-5,0A5,5,0,1,1,5,0" fill="rgb(199, 212, 56)" stroke="white" stroke-width="1" opacity="1"/><path transform="translate(49.6541986326166,2.243039756495546)" d="M5,0A5,5,0,1,1,-5,0A5,5,0,1,1,5,0" fill="rgb(255, 251, 147)" stroke="white" stroke-width="1" opacity="1"/><path transform="translate(81.66989274898448,50.38207054855997)" d="M5,0A5,5,0,1,1,-5,0A5,5,0,1,1,5,0" fill="rgb(91, 167, 65)" stroke="white" stroke-width="1" opacity="1"/><path transform="translate(77.82522091436782,45.971523949441625)" d="M5,0A5,5,0,1,1,-5,0A5,5,0,1,1,5,0" fill="rgb(110, 175, 64)" stroke="white" stroke-width="1" opacity="1"/><path transform="translate(8.584155161893092,91.08985020139005)" d="M5,0A5,5,0,1,1,-5,0A5,5,0,1,1,5,0" fill="rgb(40, 78, 68)" stroke="white" stroke-width="1" opacity="1"/><path transform="translate(57.370354352536125,35.64271426258656)" d="M5,0A5,5,0,1,1,-5,0A5,5,0,1,1,5,0" fill="rgb(155, 194, 62)" stroke="white" stroke-width="1" opacity="1"/><path transform="translate(12.668572566312408,26.84992959040744)" d="M5,0A5,5,0,1,1,-5,0A5,5,0,1,1,5,0" fill="rgb(191, 208, 57)" stroke="white" stroke-width="1" opacity="1"/><path transform="translate(21.212746538111137,11.698059897769275)" d="M5,0A5,5,0,1,1,-5,0A5,5,0,1,1,5,0" fill="rgb(253, 234, 44)" stroke="white" stroke-width="1" opacity="1"/><path transform="translate(2.9506798934502365,83.27624426612199)" d="M5,0A5,5,0,1,1,-5,0A5,5,0,1,1,5,0" fill="rgb(19, 97, 74)" stroke="white" stroke-width="1" opacity="1"/><path transform="translate(44.12984573787592,44.09889827215029)" d="M5,0A5,5,0,1,1,-5,0A5,5,0,1,1,5,0" fill="rgb(118, 179, 64)" stroke="white" stroke-width="1" opacity="1"/><path transform="translate(62.73787313191107,17.895927652806197)" d="M5,0A5,5,0,1,1,-5,0A5,5,0,1,1,5,0" fill="rgb(228, 223, 50)" stroke="white" stroke-width="1" opacity="1"/><path transform="translate(70.0151112755492,92.19221622056648)" d="M5,0A5,5,0,1,1,-5,0A5,5,0,1,1,5,0" fill="rgb(43, 75, 66)" stroke="white" stroke-width="1" opacity="1"/><path transform="translate(52.98921539249976,43.57402261201892)" d="M5,0A5,5,0,1,1,-5,0A5,5,0,1,1,5,0" fill="rgb(120, 180, 64)" stroke="white" stroke-width="1" opacity="1"/><path transform="translate(24.783100141879956,59.980950830386746)" d="M5,0A5,5,0,1,1,-5,0A5,5,0,1,1,5,0" fill="rgb(41, 148, 66)" stroke="white" stroke-width="1" opacity="1"/><path transform="translate(86.5165329145239,18.211345705133862)" d="M5,0A5,5,0,1,1,-5,0A5,5,0,1,1,5,0" fill="rgb(226, 223, 50)" stroke="white" stroke-width="1" opacity="1"/><path transform="translate(86.72704776449703,41.67440866744578)" d="M5,0A5,5,0,1,1,-5,0A5,5,0,1,1,5,0" fill="rgb(128, 183, 63)" stroke="white" stroke-width="1" opacity="1"/><path transform="translate(89.1244725902414,50.647910471277434)" d="M5,0A5,5,0,1,1,-5,0A5,5,0,1,1,5,0" fill="rgb(90, 166, 65)" stroke="white" stroke-width="1" opacity="1"/><path transform="translate(26.846807127133033,77.22977998867864)" d="M5,0A5,5,0,1,1,-5,0A5,5,0,1,1,5,0" fill="rgb(1, 110, 77)" stroke="white" stroke-width="1" opacity="1"/><path transform="translate(45.03928897608305,49.64302395059784)" d="M5,0A5,5,0,1,1,-5,0A5,5,0,1,1,5,0" fill="rgb(94, 168, 65)" stroke="white" stroke-width="1" opacity="1"/><path transform="translate(66.67459588821657,24.769640180129947)" d="M5,0A5,5,0,1,1,-5,0A5,5,0,1,1,5,0" fill="rgb(199, 212, 56)" stroke="white" stroke-width="1" opacity="1"/><path transform="translate(59.322473011100776,26.733858032614176)" d="M5,0A5,5,0,1,1,-5,0A5,5,0,1,1,5,0" fill="rgb(192, 208, 57)" stroke="white" stroke-width="1" opacity="1"/><path transform="translate(30.738569304805008,76.64971339852274)" d="M5,0A5,5,0,1,1,-5,0A5,5,0,1,1,5,0" fill="rgb(0, 112, 77)" stroke="white" stroke-width="1" opacity="1"/><path transform="translate(35.817655756418844,33.357705676953685)" d="M5,0A5,5,0,1,1,-5,0A5,5,0,1,1,5,0" fill="rgb(165, 198, 61)" stroke="white" stroke-width="1" opacity="1"/><path transform="translate(71.72037490720705,59.581845772678236)" d="M5,0A5,5,0,1,1,-5,0A5,5,0,1,1,5,0" fill="rgb(43, 149, 66)" stroke="white" stroke-width="1" opacity="1"/><path transform="translate(65.99945812510515,83.96693174736431)" d="M5,0A5,5,0,1,1,-5,0A5,5,0,1,1,5,0" fill="rgb(21, 95, 74)" stroke="white" stroke-width="1" opacity="1"/><path transform="translate(52.45995098626256,79.33546109729612)" d="M5,0A5,5,0,1,1,-5,0A5,5,0,1,1,5,0" fill="rgb(7, 106, 76)" stroke="white" stroke-width="1" opacity="1"/><path transform="translate(66.16868691315884,3.2670361970412287)" d="M5,0A5,5,0,1,1,-5,0A5,5,0,1,1,5,0" fill="rgb(255, 250, 135)" stroke="white" stroke-width="1" opacity="1"/><path transform="translate(17.323150211861858,24.561462736542627)" d="M5,0A5,5,0,1,1,-5,0A5,5,0,1,1,5,0" fill="rgb(200, 212, 56)" stroke="white" stroke-width="1" opacity="1"/><path transform="translate(74.71206822364475,86.40236642727926)" d="M5,0A5,5,0,1,1,-5,0A5,5,0,1,1,5,0" fill="rgb(29, 90, 73)" stroke="white" stroke-width="1" opacity="1"/><path transform="translate(7.237718698864848,0.2689516809881054)" d="M5,0A5,5,0,1,1,-5,0A5,5,0,1,1,5,0" fill="rgb(255, 255, 170)" stroke="white" stroke-width="1" opacity="1"/><path transform="translate(75.32086364941465,15.604337152413194)" d="M5,0A5,5,0,1,1,-5,0A5,5,0,1,1,5,0" fill="rgb(237, 227, 48)" stroke="white" stroke-width="1" opacity="1"/><path transform="translate(31.071294799973103,98.75088241840426)" d="M5,0A5,5,0,1,1,-5,0A5,5,0,1,1,5,0" fill="rgb(58, 58, 58)" stroke="white" stroke-width="1" opacity="1"/><path transform="translate(84.92339805712528,51.528361971612455)" d="M5,0A5,5,0,1,1,-5,0A5,5,0,1,1,5,0" fill="rgb(87, 165, 65)" stroke="white" stroke-width="1" opacity="1"/><path transform="translate(76.02787773755549,36.00257011298831)" d="M5,0A5,5,0,1,1,-5,0A5,5,0,1,1,5,0" fill="rgb(153, 193, 62)" stroke="white" stroke-width="1" opacity="1"/><path transform="translate(1.832617609226883,62.78689862965713)" d="M5,0A5,5,0,1,1,-5,0A5,5,0,1,1,5,0" fill="rgb(23, 143, 66)" stroke="white" stroke-width="1" opacity="1"/><path transform="translate(60.96274978218127,77.95763896476063)" d="M5,0A5,5,0,1,1,-5,0A5,5,0,1,1,5,0" fill="rgb(3, 109, 77)" stroke="white" stroke-width="1" opacity="1"/><path transform="translate(14.070595521401474,56.424805165306935)" d="M5,0A5,5,0,1,1,-5,0A5,5,0,1,1,5,0" fill="rgb(63, 155, 66)" stroke="white" stroke-width="1" opacity="1"/><path transform="translate(27.595761480018986,32.88585602909221)" d="M5,0A5,5,0,1,1,-5,0A5,5,0,1,1,5,0" fill="rgb(167, 198, 61)" stroke="white" stroke-width="1" opacity="1"/><path transform="translate(46.34020399312856,96.86001048714277)" d="M5,0A5,5,0,1,1,-5,0A5,5,0,1,1,5,0" fill="rgb(54, 63, 60)" stroke="white" stroke-width="1" opacity="1"/><path transform="translate(14.595502842829045,59.1373168644012)" d="M5,0A5,5,0,1,1,-5,0A5,5,0,1,1,5,0" fill="rgb(46, 150, 66)" stroke="white" stroke-width="1" opacity="1"/><path transform="translate(94.0919343467756,85.64650694100655)" d="M5,0A5,5,0,1,1,-5,0A5,5,0,1,1,5,0" fill="rgb(26, 92, 73)" stroke="white" stroke-width="1" opacity="1"/><path transform="translate(15.41413879718474,82.39185138373564)" d="M5,0A5,5,0,1,1,-5,0A5,5,0,1,1,5,0" fill="rgb(17, 99, 74)" stroke="white" stroke-width="1" opacity="1"/><path transform="translate(74.6792984301245,74.42659117991816)" d="M5,0A5,5,0,1,1,-5,0A5,5,0,1,1,5,0" fill="rgb(1, 117, 75)" stroke="white" stroke-width="1" opacity="1"/><path transform="translate(44.824846830589316,28.684885470928656)" d="M5,0A5,5,0,1,1,-5,0A5,5,0,1,1,5,0" fill="rgb(184, 205, 58)" stroke="white" stroke-width="1" opacity="1"/><path transform="translate(62.88243242126733,29.969239401702886)" d="M5,0A5,5,0,1,1,-5,0A5,5,0,1,1,5,0" fill="rgb(179, 203, 59)" stroke="white" stroke-width="1" opacity="1"/><path transform="translate(61.94839712796084,37.81847346583416)" d="M5,0A5,5,0,1,1,-5,0A5,5,0,1,1,5,0" fill="rgb(145, 190, 62)" stroke="white" stroke-width="1" opacity="1"/><path transform="translate(74.6866334595427,55.0189788846722)" d="M5,0A5,5,0,1,1,-5,0A5,5,0,1,1,5,0" fill="rgb(72, 158, 66)" stroke="white" stroke-width="1" opacity="1"/><path transform="translate(47.43535423263807,38.69017008486486)" d="M5,0A5,5,0,1,1,-5,0A5,5,0,1,1,5,0" fill="rgb(141, 188, 63)" stroke="white" stroke-width="1" opacity="1"/><path transform="translate(30.12065794465697,87.44228905115565)" d="M5,0A5,5,0,1,1,-5,0A5,5,0,1,1,5,0" fill="rgb(32, 88, 72)" stroke="white" stroke-width="1" opacity="1"/><path transform="translate(17.60005583314871,29.813537158672222)" d="M5,0A5,5,0,1,1,-5,0A5,5,0,1,1,5,0" fill="rgb(179, 203, 59)" stroke="white" stroke-width="1" opacity="1"/><path transform="translate(12.64281847637897,87.109402390212)" d="M5,0A5,5,0,1,1,-5,0A5,5,0,1,1,5,0" fill="rgb(31, 89, 72)" stroke="white" stroke-width="1" opacity="1"/><path transform="translate(65.45330408384692,37.09630175995646)" d="M5,0A5,5,0,1,1,-5,0A5,5,0,1,1,5,0" fill="rgb(148, 191, 62)" stroke="white" stroke-width="1" opacity="1"/><path transform="translate(10.952463097445264,38.30267331608488)" d="M5,0A5,5,0,1,1,-5,0A5,5,0,1,1,5,0" fill="rgb(143, 189, 62)" stroke="white" stroke-width="1" opacity="1"/><path transform="translate(75.6972217835587,78.04986123731284)" d="M5,0A5,5,0,1,1,-5,0A5,5,0,1,1,5,0" fill="rgb(4, 108, 76)" stroke="white" stroke-width="1" opacity="1"/><path transform="translate(78.44689186031215,28.69739698005772)" d="M5,0A5,5,0,1,1,-5,0A5,5,0,1,1,5,0" fill="rgb(184, 205, 58)" stroke="white" stroke-width="1" opacity="1"/><path transform="translate(4.561408842566761,13.645211168909299)" d="M5,0A5,5,0,1,1,-5,0A5,5,0,1,1,5,0" fill="rgb(245, 231, 46)" stroke="white" stroke-width="1" opacity="1"/><path transform="translate(48.01408140980874,71.49256895281972)" d="M5,0A5,5,0,1,1,-5,0A5,5,0,1,1,5,0" fill="rgb(2, 124, 72)" stroke="white" stroke-width="1" opacity="1"/><path transform="translate(8.269457887686727,70.79808433201794)" d="M5,0A5,5,0,1,1,-5,0A5,5,0,1,1,5,0" fill="rgb(2, 125, 71)" stroke="white" stroke-width="1" opacity="1"/><path transform="translate(63.56953251078154,96.93926817168158)" d="M5,0A5,5,0,1,1,-5,0A5,5,0,1,1,5,0" fill="rgb(54, 63, 60)" stroke="white" stroke-width="1" opacity="1"/><path transform="translate(17.95471680948577,64.57472748372352)" d="M5,0A5,5,0,1,1,-5,0A5,5,0,1,1,5,0" fill="rgb(12, 140, 66)" stroke="white" stroke-width="1" opacity="1"/><path transform="translate(8.967570591711327,4.204684230161549)" d="M5,0A5,5,0,1,1,-5,0A5,5,0,1,1,5,0" fill="rgb(255, 248, 125)" stroke="white" stroke-width="1" opacity="1"/><path transform="translate(44.023158426942864,33.69276376619293)" d="M5,0A5,5,0,1,1,-5,0A5,5,0,1,1,5,0" fill="rgb(163, 197, 61)" stroke="white" stroke-width="1" opacity="1"/><path transform="translate(64.43712192088775,37.64681827954356)" d="M5,0A5,5,0,1,1,-5,0A5,5,0,1,1,5,0" fill="rgb(146, 190, 62)" stroke="white" stroke-width="1" opacity="1"/><path transform="translate(96.55466490520244,0.27046885123073183)" d="M5,0A5,5,0,1,1,-5,0A5,5,0,1,1,5,0" fill="rgb(255, 255, 170)" stroke="white" stroke-width="1" opacity="1"/><path transform="translate(67.82939213902192,70.16608182548518)" d="M5,0A5,5,0,1,1,-5,0A5,5,0,1,1,5,0" fill="rgb(2, 127, 70)" stroke="white" stroke-width="1" opacity="1"/><path transform="translate(77.26656216852402,45.23246184189343)" d="M5,0A5,5,0,1,1,-5,0A5,5,0,1,1,5,0" fill="rgb(113, 177, 64)" stroke="white" stroke-width="1" opacity="1"/><path transform="translate(99.93528535853375,80.41837295298193)" d="M5,0A5,5,0,1,1,-5,0A5,5,0,1,1,5,0" fill="rgb(11, 103, 75)" stroke="white" stroke-width="1" opacity="1"/><path transform="translate(71.44682449203323,94.81326868320656)" d="M5,0A5,5,0,1,1,-5,0A5,5,0,1,1,5,0" fill="rgb(49, 68, 63)" stroke="white" stroke-width="1" opacity="1"/><path transform="translate(25.298853201826578,9.851842817377188)" d="M5,0A5,5,0,1,1,-5,0A5,5,0,1,1,5,0" fill="rgb(255, 237, 60)" stroke="white" stroke-width="1" opacity="1"/><path transform="translate(99.41846674432676,90.48358694911431)" d="M5,0A5,5,0,1,1,-5,0A5,5,0,1,1,5,0" fill="rgb(39, 80, 69)" stroke="white" stroke-width="1" opacity="1"/><path transform="translate(58.196852121511725,14.729656692181415)" d="M5,0A5,5,0,1,1,-5,0A5,5,0,1,1,5,0" fill="rgb(241, 229, 47)" stroke="white" stroke-width="1" opacity="1"/><path transform="translate(44.12777603034026,20.096277084228873)" d="M5,0A5,5,0,1,1,-5,0A5,5,0,1,1,5,0" fill="rgb(218, 220, 52)" stroke="white" stroke-width="1" opacity="1"/><path transform="translate(57.58400973466862,56.385098772427156)" d="M5,0A5,5,0,1,1,-5,0A5,5,0,1,1,5,0" fill="rgb(63, 155, 66)" stroke="white" stroke-width="1" opacity="1"/><path transform="translate(28.481944240346348,51.12129798515398)" d="M5,0A5,5,0,1,1,-5,0A5,5,0,1,1,5,0" fill="rgb(88, 165, 65)" stroke="white" stroke-width="1" opacity="1"/><path transform="translate(73.79425154194537,21.57897219431204)" d="M5,0A5,5,0,1,1,-5,0A5,5,0,1,1,5,0" fill="rgb(212, 217, 53)" stroke="white" stroke-width="1" opacity="1"/><path transform="translate(84.51108250468712,43.77263297592108)" d="M5,0A5,5,0,1,1,-5,0A5,5,0,1,1,5,0" fill="rgb(119, 179, 64)" stroke="white" stroke-width="1" opacity="1"/><path transform="translate(53.18102598628587,81.9832457369673)" d="M5,0A5,5,0,1,1,-5,0A5,5,0,1,1,5,0" fill="rgb(15, 100, 75)" stroke="white" stroke-width="1" opacity="1"/><path transform="translate(26.18822147971024,44.4054701571986)" d="M5,0A5,5,0,1,1,-5,0A5,5,0,1,1,5,0" fill="rgb(116, 178, 64)" stroke="white" stroke-width="1" opacity="1"/><path transform="translate(34.56922626709436,60.814380532959156)" d="M5,0A5,5,0,1,1,-5,0A5,5,0,1,1,5,0" fill="rgb(36, 147, 66)" stroke="white" stroke-width="1" opacity="1"/><path transform="translate(82.5124210585609,29.538580213059994)" d="M5,0A5,5,0,1,1,-5,0A5,5,0,1,1,5,0" fill="rgb(180, 204, 59)" stroke="white" stroke-width="1" opacity="1"/><path transform="translate(86.2388296898181,38.38850255168841)" d="M5,0A5,5,0,1,1,-5,0A5,5,0,1,1,5,0" fill="rgb(143, 189, 62)" stroke="white" stroke-width="1" opacity="1"/><path transform="translate(13.84647417091176,83.45305068794433)" d="M5,0A5,5,0,1,1,-5,0A5,5,0,1,1,5,0" fill="rgb(20, 97, 74)" stroke="white" stroke-width="1" opacity="1"/><path transform="translate(10.927261902115282,76.81892357703295)" d="M5,0A5,5,0,1,1,-5,0A5,5,0,1,1,5,0" fill="rgb(0, 111, 77)" stroke="white" stroke-width="1" opacity="1"/><path transform="translate(39.30157290908816,15.463413577873874)" d="M5,0A5,5,0,1,1,-5,0A5,5,0,1,1,5,0" fill="rgb(238, 228, 48)" stroke="white" stroke-width="1" opacity="1"/><path transform="translate(67.77975551258973,72.90308103366866)" d="M5,0A5,5,0,1,1,-5,0A5,5,0,1,1,5,0" fill="rgb(1, 120, 73)" stroke="white" stroke-width="1" opacity="1"/><path transform="translate(15.5233931285639,4.379531629534328)" d="M5,0A5,5,0,1,1,-5,0A5,5,0,1,1,5,0" fill="rgb(255, 247, 123)" stroke="white" stroke-width="1" opacity="1"/><path transform="translate(94.39061670108953,5.1295384158407735)" d="M5,0A5,5,0,1,1,-5,0A5,5,0,1,1,5,0" fill="rgb(255, 246, 114)" stroke="white" stroke-width="1" opacity="1"/><path transform="translate(52.50362930906775,46.12059426121342)" d="M5,0A5,5,0,1,1,-5,0A5,5,0,1,1,5,0" fill="rgb(109, 175, 64)" stroke="white" stroke-width="1" opacity="1"/><path transform="translate(29.52105222563529,38.675720413316725)" d="M5,0A5,5,0,1,1,-5,0A5,5,0,1,1,5,0" fill="rgb(142, 188, 63)" stroke="white" stroke-width="1" opacity="1"/><path transform="translate(44.02610217107333,16.468370752469653)" d="M5,0A5,5,0,1,1,-5,0A5,5,0,1,1,5,0" fill="rgb(233, 226, 49)" stroke="white" stroke-width="1" opacity="1"/><path transform="translate(3.3631155213632025,44.07907320601904)" d="M5,0A5,5,0,1,1,-5,0A5,5,0,1,1,5,0" fill="rgb(118, 179, 64)" stroke="white" stroke-width="1" opacity="1"/><path transform="translate(59.79014739428115,64.96990945598708)" d="M5,0A5,5,0,1,1,-5,0A5,5,0,1,1,5,0" fill="rgb(10, 139, 66)" stroke="white" stroke-width="1" opacity="1"/><path transform="translate(44.51090328467387,44.097737743179366)" d="M5,0A5,5,0,1,1,-5,0A5,5,0,1,1,5,0" fill="rgb(118, 179, 64)" stroke="white" stroke-width="1" opacity="1"/><path transform="translate(64.15341353482643,48.90913719550023)" d="M5,0A5,5,0,1,1,-5,0A5,5,0,1,1,5,0" fill="rgb(98, 170, 65)" stroke="white" stroke-width="1" opacity="1"/><path transform="translate(75.45028834129003,53.819506667897976)" d="M5,0A5,5,0,1,1,-5,0A5,5,0,1,1,5,0" fill="rgb(77, 160, 66)" stroke="white" stroke-width="1" opacity="1"/></g></g><path class="foreground" aria-hidden="true" d="" display="none"/></g></g><g class="mark-group role-legend" role="graphics-symbol" aria-roledescription="legend" aria-label="Gradient legend titled 'y' for fill color with values from 0.0 to 1.0"><g transform="translate(124,0)"><path class="background" aria-hidden="true" d="M0,0h28v96h-28Z" pointer-events="none"/><g><g class="mark-group role-legend-entry"><g transform="translate(0,16)"><path class="background" aria-hidden="true" d="M0,0h0v0h0Z" pointer-events="none"/><g><g class="mark-rect role-legend-gradient" pointer-events="none"><path d="M0,0h10v80h-10Z" fill="url(#gradient_0)" stroke="#ddd" stroke-width="0" opacity="1"/></g><g class="mark-text role-legend-label" pointer-events="none"><text text-anchor="start" transform="translate(12,78)" font-family="sans-serif" font-size="10px" font-style="normal" font-weight="400" fill="#000" opacity="1">0.0</text><text text-anchor="start" transform="translate(12,8)" font-family="sans-serif" font-size="10px" font-style="normal" font-weight="400" fill="#000" opacity="1">1.0</text></g></g><path class="foreground" aria-hidden="true" d="" pointer-events="none" display="none"/></g></g><g class="mark-text role-legend-title" pointer-events="none"><text text-anchor="start" transform="translate(0,9)" font-family="sans-serif" font-size="11px" font-style="normal" font-weight="400" fill="#000" opacity="1">y</text></g></g><path class="foreground" aria-hidden="true" d="" pointer-events="none" display="none"/></g></g></g><path class="foreground" aria-hidden="true" d="" display="none"/></g></g></g><defs><linearGradient id="gradient_0" x1="0" x2="0" y1="1" y2="0"><stop offset="0" stop-color="rgb(58, 58, 58)"/><stop offset="0.03808701139709879" stop-color="rgb(49, 68, 63)"/><stop offset="0.08885774631832585" stop-color="rgb(38, 81, 69)"/><stop offset="0.1396284812395529" stop-color="rgb(25, 93, 73)"/><stop offset="0.19039921616078" stop-color="rgb(9, 104, 76)"/><stop offset="0.24116995108200706" stop-color="rgb(1, 115, 75)"/><stop offset="0.29194068600323414" stop-color="rgb(3, 127, 70)"/><stop offset="0.34271142092446116" stop-color="rgb(10, 139, 66)"/><stop offset="0.3934821558456883" stop-color="rgb(41, 148, 66)"/><stop offset="0.4442528907669154" stop-color="rgb(72, 158, 66)"/><stop offset="0.4950236256881424" stop-color="rgb(93, 168, 65)"/><stop offset="0.5457943606093695" stop-color="rgb(114, 177, 64)"/><stop offset="0.5965650955305966" stop-color="rgb(136, 186, 63)"/><stop offset="0.6473358304518236" stop-color="rgb(158, 195, 62)"/><stop offset="0.6981065653730506" stop-color="rgb(178, 203, 59)"/><stop offset="0.7488773002942778" stop-color="rgb(199, 211, 56)"/><stop offset="0.7996480352155049" stop-color="rgb(219, 220, 52)"/><stop offset="0.8504187701367318" stop-color="rgb(239, 228, 47)"/><stop offset="0.901189505057959" stop-color="rgb(255, 237, 58)"/><stop offset="0.951960239979186" stop-color="rgb(255, 246, 116)"/><stop offset="1" stop-color="rgb(255, 255, 170)"/></linearGradient></defs></svg>