<svg xmlns="http://www.w3.org/2000/svg" xmlns:xlink="http://www.w3.org/1999/xlink" version="1.1" class="marks" width="190" height="138" viewBox="0 0 190 138"><rect width="190" height="138" fill="white"/><g fill="none" stroke-miterlimit="10" transform="translate(38,6)"><g class="mark-group role-frame root" role="graphics-object" aria-roledescription="group mark container"><g transform="translate(0,0)"><path class="background" aria-hidden="true" d="M0,0h100v100h-100Z" fill="lightgray"/><g><g class="mark-group role-axis" role="graphics-symbol" aria-roledescription="axis" aria-label="X-axis titled 'x' for a linear scale with values from 0.0 to 1.0"><g transform="translate(0.5,100.5)"><path class="background" aria-hidden="true" d="M0,0h0v0h0Z" pointer-events="none"/><g><g class="mark-rule role-axis-grid" pointer-events="none"><line transform="translate(0,0)" x2="0" y2="-100" stroke="white" stroke-width="0.5" stroke-dasharray="0" opacity="1"/><line transform="translate(50,0)" x2="0" y2="-100" stroke="white" stroke-width="0.5" stroke-dasharray="0" opacity="1"/><line transform="translate(100,0)" x2="0" y2="-100" stroke="white" stroke-width="0.5" stroke-dasharray="0" opacity="1"/></g><g class="mark-rule role-axis-tick" pointer-events="none"><line transform="translate(0,0)" x2="0" y2="5" stroke="black" stroke-width="1.01" opacity="1"/><line transform="translate(50,0)" x2="0" y2="5" stroke="black" stroke-width="1.01" opacity="1"/><line transform="translate(100,0)" x2="0" y2="5" stroke="black" stroke-width="1.01" opacity="1"/></g><g class="mark-text role-axis-label" pointer-events="none"><text text-anchor="middle" transform="translate(0,15)" font-family="sans-serif" font-size="10px" font-style="normal" font-weight="400" fill="black" opacity="1">0.0</text><text text-anchor="middle" transform="translate(50,15)" font-family="sans-serif" font-size="10px" font-style="normal" font-weight="400" fill="black" opacity="1">0.5</text><text text-anchor="middle" transform="translate(100,15)" font-family="sans-serif" font-size="10px" font-style="normal" font-weight="400" fill="black" opacity="1">1.0</text></g><g class="mark-rule role-axis-domain" pointer-events="none"><line transform="translate(0,0)" x2="100" y2="0" stroke="black" stroke-width="1.01" opacity="1"/></g><g class="mark-text role-axis-title" pointer-events="none"><text text-anchor="middle" transform="translate(50,30)" font-family="sans-serif" font-size="11px" font-style="normal" font-weight="400" fill="black" opacity="1">x</text></g></g><path class="foreground" aria-hidden="true" d="" pointer-events="none" display="none"/></g></g><g class="mark-group role-axis" role="graphics-symbol" aria-roledescription="axis" aria-label="Y-axis titled 'y' for a linear scale with values from 0.0 to 1.0"><g transform="translate(0.5,0.5)"><path class="background" aria-hidden="true" d="M0,0h0v0h0Z" pointer-events="none"/><g><g class="mark-rule role-axis-grid" pointer-events="none"><line transform="translate(0,100)" x2="100" y2="0" stroke="white" stroke-width="0.5" stroke-dasharray="0" opacity="1"/><line transform="translate(0,50)" x2="100" y2="0" stroke="white" stroke-width="0.5" stroke-dasharray="0" opacity="1"/><line transform="translate(0,0)" x2="100" y2="0" stroke="white" stroke-width="0.5" stroke-dasharray="0" opacity="1"/></g><g class="mark-rule role-axis-tick" pointer-events="none"><line transform="translate(0,100)" x2="-5" y2="0" stroke="black" stroke-width="1.01" opacity="1"/><line transform="translate(0,50)" x2="-5" y2="0" stroke="black" stroke-width="1.01" opacity="1"/><line transform="translate(0,0)" x2="-5" y2="0" stroke="black" stroke-width="1.01" opacity="1"/></g><g class="mark-text role-axis-label" pointer-events="none"><text text-anchor="end" transform="translate(-7,103)" font-family="sans-serif" font-size="10px" font-style="normal" font-weight="400" fill="black" opacity="1">0.0</text><text text-anchor="end" transform="translate(-7,53)" font-family="sans-serif" font-size="10px" font-style="normal" font-weight="400" fill="black" opacity="1">0.5</text><text text-anchor="end" transform="translate(-7,3)" font-family="sans-serif" font-size="10px" font-style="normal" font-weight="400" fill="black" opacity="1">1.0</text></g><g class="mark-rule role-axis-domain" pointer-events="none"><line transform="translate(0,100)" x2="0" y2="-100" stroke="black" stroke-width="1.01" opacity="1"/></g><g class="mark-text role-axis-title" pointer-events="none"><text text-anchor="middle" transform="translate(-26.9033203125,50) rotate(-90) translate(0,-2)" font-family="sans-serif" font-size="11px" font-style="normal" font-weight="400" fill="black" opacity="1">y</text></g></g><path class="foreground" aria-hidden="true" d="" pointer-events="none" display="none"/></g></g><g class="mark-group role-scope" role="graphics-object" aria-roledescription="group mark container"><g transform="translate(0,0)"><path class="background" aria-hidden="true" d="M0,0h0v0h0Z"/><g><g class="mark-symbol role-mark points" role="graphics-symbol" aria-roledescription="symbol mark container"><path transform="translate(5.915455836829075,13.018025999552984)" d="M5,0A5,5,0,1,1,-5,0A5,5,0,1,1,5,0" fill="rgb(247, 232, 46)" stroke="white" stroke-width="1" opacity="1"/><path transform="translate(26.77253014433837,85.96889647761094)" d="M5,0A5,5,0,1,1,-5,0A5,5,0,1,1,5,0" fill="rgb(32, 88, 72)" stroke="white" stroke-width="1" opacity="1"/><path transform="translate(47.11875904949986,8.22410440557041)" d="M5,0A5,5,0,1,1,-5,0A5,5,0,1,1,5,0" fill="rgb(255, 240, 78)" stroke="white" stroke-width="1" opacity="1"/><path transform="translate(52.58014124104425,60.131538951730064)" d="M5,0A5,5,0,1,1,-5,0A5,5,0,1,1,5,0" fill="rgb(34, 146, 66)" stroke="white" stroke-width="1" opacity="1"/><path transform="translate(89.31407153280233,79.64318730689214)" d="M5,0A5,5,0,1,1,-5,0A5,5,0,1,1,5,0" fill="rgb(13, 102, 75)" stroke="white" stroke-width="1" opacity="1"/><path transform="translate(5.765956658631333,16.074345745839423)" d="M5,0A5,5,0,1,1,-5,0A5,5,0,1,1,5,0" fill="rgb(234, 226, 49)" stroke="white" stroke-width="1" opacity="1"/><path transform="translate(96.31005136408892,1.6237093822829118)" d="M5,0A5,5,0,1,1,-5,0A5,5,0,1,1,5,0" fill="rgb(255, 253, 155)" stroke="white" stroke-width="1" opacity="1"/><path transform="translate(96.77467302690701,97.01958494657801)" d="M5,0A5,5,0,1,1,-5,0A5,5,0,1,1,5,0" fill="rgb(58, 58, 58)" stroke="white" stroke-width="1" opacity="1"/><path transform="translate(16.677672268583233,37.83195908386588)" d="M5,0A5,5,0,1,1,-5,0A5,5,0,1,1,5,0" fill="rgb(142, 189, 62)" stroke="white" stroke-width="1" opacity="1"/><path transform="translate(56.285876037597106,2.3979632032702147)" d="M5,0A5,5,0,1,1,-5,0A5,5,0,1,1,5,0" fill="rgb(255, 251, 146)" stroke="white" stroke-width="1" opacity="1"/><path transform="translate(46.12832865096782,2.1534450953538453)" d="M5,0A5,5,0,1,1,-5,0A5,5,0,1,1,5,0" fill="rgb(255, 252, 149)" stroke="white" stroke-width="1" opacity="1"/><path transform="translate(92.05899719449017,40.906433646115616)" d="M5,0A5,5,0,1,1,-5,0A5,5,0,1,1,5,0" fill="rgb(129, 183, 63)" stroke="white" stroke-width="1" opacity="1"/><path transform="translate(4.190780739502875,2.8093685536858426)" d="M5,0A5,5,0,1,1,-5,0A5,5,0,1,1,5,0" fill="rgb(255, 250, 141)" stroke="white" stroke-width="1" opacity="1"/><path transform="translate(59.51223435818315,56.608482771232495)" d="M5,0A5,5,0,1,1,-5,0A5,5,0,1,1,5,0" fill="rgb(56, 153, 66)" stroke="white" stroke-width="1" opacity="1"/><path transform="translate(94.48192526177137,7.849370041489568)" d="M5,0A5,5,0,1,1,-5,0A5,5,0,1,1,5,0" fill="rgb(255, 241, 82)" stroke="white" stroke-width="1" opacity="1"/><path transform="translate(98.80637931039226,20.55356749007663)" d="M5,0A5,5,0,1,1,-5,0A5,5,0,1,1,5,0" fill="rgb(215, 218, 53)" stroke="white" stroke-width="1" opacity="1"/><path transform="translate(64.55480850290026,88.8808959784835)" d="M5,0A5,5,0,1,1,-5,0A5,5,0,1,1,5,0" fill="rgb(39, 80, 69)" stroke="white" stroke-width="1" opacity="1"/><path transform="translate(52.509552420143265,31.437468851938643)" d="M5,0A5,5,0,1,1,-5,0A5,5,0,1,1,5,0" fill="rgb(171, 200, 60)" stroke="white" stroke-width="1" opacity="1"/><path transform="translate(50.13374828739406,14.870237843196165)" d="M5,0A5,5,0,1,1,-5,0A5,5,0,1,1,5,0" fill="rgb(239, 228, 48)" stroke="white" stroke-width="1" opacity="1"/><path transform="translate(98.40216782371324,17.88242319790743)" d="M5,0A5,5,0,1,1,-5,0A5,5,0,1,1,5,0" fill="rgb(227, 223, 50)" stroke="white" stroke-width="1" opacity="1"/><path transform="translate(0.9577806363278096,29.3461318751591)" d="M5,0A5,5,0,1,1,-5,0A5,5,0,1,1,5,0" fill="rgb(179, 203, 59)" stroke="white" stroke-width="1" opacity="1"/><path transform="translate(63.61156841343942,85.58191333958845)" d="M5,0A5,5,0,1,1,-5,0A5,5,0,1,1,5,0" fill="rgb(31, 89, 72)" stroke="white" stroke-width="1" opacity="1"/><path transform="translate(62.93522916040969,60.60555951066831)" d="M5,0A5,5,0,1,1,-5,0A5,5,0,1,1,5,0" fill="rgb(31, 145, 66)" stroke="white" stroke-width="1" opacity="1"/><path transform="translate(51.78778355653936,5.480350034453174)" d="M5,0A5,5,0,1,1,-5,0A5,5,0,1,1,5,0" fill="rgb(255, 245, 110)" stroke="white" stroke-width="1" opacity="1"/><path transform="translate(5.992051354297134,92.40998297402005)" d="M5,0A5,5,0,1,1,-5,0A5,5,0,1,1,5,0" fill="rgb(47, 70, 64)" stroke="white" stroke-width="1" opacity="1"/><path transform="translate(44.521361103876686,89.43015452023889)" d="M5,0A5,5,0,1,1,-5,0A5,5,0,1,1,5,0" fill="rgb(40, 78, 68)" stroke="white" stroke-width="1" opacity="1"/><path transform="translate(74.13711344467993,61.59941972524572)" d="M5,0A5,5,0,1,1,-5,0A5,5,0,1,1,5,0" fill="rgb(24, 143, 66)" stroke="white" stroke-width="1" opacity="1"/><path transform="translate(26.32016521747812,79.42370066652171)" d="M5,0A5,5,0,1,1,-5,0A5,5,0,1,1,5,0" fill="rgb(12, 102, 75)" stroke="white" stroke-width="1" opacity="1"/><path transform="translate(48.499043575072,72.6651566828629)" d="M5,0A5,5,0,1,1,-5,0A5,5,0,1,1,5,0" fill="rgb(1, 118, 74)" stroke="white" stroke-width="1" opacity="1"/><path transform="translate(24.256093953433545,43.73535469396437)" d="M5,0A5,5,0,1,1,-5,0A5,5,0,1,1,5,0" fill="rgb(116, 178, 64)" stroke="white" stroke-width="1" opacity="1"/><path transform="translate(98.31631004066895,27.11943428236672)" d="M5,0A5,5,0,1,1,-5,0A5,5,0,1,1,5,0" fill="rgb(188, 207, 57)" stroke="white" stroke-width="1" opacity="1"/><path transform="translate(46.12508495306209,85.08020574490155)" d="M5,0A5,5,0,1,1,-5,0A5,5,0,1,1,5,0" fill="rgb(29, 90, 73)" stroke="white" stroke-width="1" opacity="1"/><path transform="translate(16.368105403069,8.278970682763065)" d="M5,0A5,5,0,1,1,-5,0A5,5,0,1,1,5,0" fill="rgb(255, 240, 77)" stroke="white" stroke-width="1" opacity="1"/><path transform="translate(86.57078249356316,20.561148861258616)" d="M5,0A5,5,0,1,1,-5,0A5,5,0,1,1,5,0" fill="rgb(215, 218, 53)" stroke="white" stroke-width="1" opacity="1"/><path transform="translate(99.4988237771413,38.09820949714193)" d="M5,0A5,5,0,1,1,-5,0A5,5,0,1,1,5,0" fill="rgb(141, 188, 63)" stroke="white" stroke-width="1" opacity="1"/><path transform="translate(53.8214706210438,63.3793491613177)" d="M5,0A5,5,0,1,1,-5,0A5,5,0,1,1,5,0" fill="rgb(13, 140, 66)" stroke="white" stroke-width="1" opacity="1"/><path transform="translate(96.10157815790106,73.63541574572913)" d="M5,0A5,5,0,1,1,-5,0A5,5,0,1,1,5,0" fill="rgb(1, 116, 75)" stroke="white" stroke-width="1" opacity="1"/><path transform="translate(8.019648777179034,6.3931153627799)" d="M5,0A5,5,0,1,1,-5,0A5,5,0,1,1,5,0" fill="rgb(255, 244, 99)" stroke="white" stroke-width="1" opacity="1"/><path transform="translate(68.30255190784132,27.79015475466088)" d="M5,0A5,5,0,1,1,-5,0A5,5,0,1,1,5,0" fill="rgb(186, 206, 58)" stroke="white" stroke-width="1" opacity="1"/><path transform="translate(20.190147544661762,86.97787722526247)" d="M5,0A5,5,0,1,1,-5,0A5,5,0,1,1,5,0" fill="rgb(35, 85, 71)" stroke="white" stroke-width="1" opacity="1"/><path transform="translate(62.197745354368685,37.51558408785816)" d="M5,0A5,5,0,1,1,-5,0A5,5,0,1,1,5,0" fill="rgb(144, 189, 62)" stroke="white" stroke-width="1" opacity="1"/><path transform="translate(83.50331834366955,15.080921928586532)" d="M5,0A5,5,0,1,1,-5,0A5,5,0,1,1,5,0" fill="rgb(238, 228, 48)" stroke="white" stroke-width="1" opacity="1"/><path transform="translate(51.96864438376674,79.59533779975622)" d="M5,0A5,5,0,1,1,-5,0A5,5,0,1,1,5,0" fill="rgb(12, 102, 75)" stroke="white" stroke-width="1" opacity="1"/><path transform="translate(55.38966113154707,0.34240391694598804)" d="M5,0A5,5,0,1,1,-5,0A5,5,0,1,1,5,0" fill="rgb(255, 255, 170)" stroke="white" stroke-width="1" opacity="1"/><path transform="translate(31.913385273575056,90.30842138264438)" d="M5,0A5,5,0,1,1,-5,0A5,5,0,1,1,5,0" fill="rgb(42, 76, 67)" stroke="white" stroke-width="1" opacity="1"/><path transform="translate(30.404208062218895,86.81007359680665)" d="M5,0A5,5,0,1,1,-5,0A5,5,0,1,1,5,0" fill="rgb(34, 86, 71)" stroke="white" stroke-width="1" opacity="1"/><path transform="translate(48.46021597799556,83.57000354269103)" d="M5,0A5,5,0,1,1,-5,0A5,5,0,1,1,5,0" fill="rgb(25, 93, 73)" stroke="white" stroke-width="1" opacity="1"/><path transform="translate(8.874047527285233,77.00664454169379)" d="M5,0A5,5,0,1,1,-5,0A5,5,0,1,1,5,0" fill="rgb(5, 108, 76)" stroke="white" stroke-width="1" opacity="1"/><path transform="translate(56.53170336367754,44.11545345025214)" d="M5,0A5,5,0,1,1,-5,0A5,5,0,1,1,5,0" fill="rgb(115, 177, 64)" stroke="white" stroke-width="1" opacity="1"/><path transform="translate(6.353836125142198,66.41455420484348)" d="M5,0A5,5,0,1,1,-5,0A5,5,0,1,1,5,0" fill="rgb(3, 133, 68)" stroke="white" stroke-width="1" opacity="1"/><path transform="translate(61.298501035509254,10.102787333744168)" d="M5,0A5,5,0,1,1,-5,0A5,5,0,1,1,5,0" fill="rgb(255, 237, 56)" stroke="white" stroke-width="1" opacity="1"/><path transform="translate(78.68714320706727,31.23118762329452)" d="M5,0A5,5,0,1,1,-5,0A5,5,0,1,1,5,0" fill="rgb(171, 200, 60)" stroke="white" stroke-width="1" opacity="1"/><path transform="translate(26.436507971437738,56.07830615475036)" d="M5,0A5,5,0,1,1,-5,0A5,5,0,1,1,5,0" fill="rgb(59, 154, 66)" stroke="white" stroke-width="1" opacity="1"/><path transform="translate(13.54923132895397,24.062337694551438)" d="M5,0A5,5,0,1,1,-5,0A5,5,0,1,1,5,0" fill="rgb(201, 212, 55)" stroke="white" stroke-width="1" opacity="1"/><path transform="translate(79.05342116933801,38.160526453561836)" d="M5,0A5,5,0,1,1,-5,0A5,5,0,1,1,5,0" fill="rgb(141, 188, 63)" stroke="white" stroke-width="1" opacity="1"/><path transform="translate(41.761362211355525,85.6710967531138)" d="M5,0A5,5,0,1,1,-5,0A5,5,0,1,1,5,0" fill="rgb(31, 88, 72)" stroke="white" stroke-width="1" opacity="1"/><path transform="translate(63.118928735213295,33.7958914351096)" d="M5,0A5,5,0,1,1,-5,0A5,5,0,1,1,5,0" fill="rgb(161, 196, 61)" stroke="white" stroke-width="1" opacity="1"/><path transform="translate(29.231399613177654,20.30780878242553)" d="M5,0A5,5,0,1,1,-5,0A5,5,0,1,1,5,0" fill="rgb(216, 219, 53)" stroke="white" stroke-width="1" opacity="1"/><path transform="translate(87.23361107273094,84.43051616955337)" d="M5,0A5,5,0,1,1,-5,0A5,5,0,1,1,5,0" fill="rgb(27, 91, 73)" stroke="white" stroke-width="1" opacity="1"/><path transform="translate(95.16330303519021,87.90473291831505)" d="M5,0A5,5,0,1,1,-5,0A5,5,0,1,1,5,0" fill="rgb(37, 83, 70)" stroke="white" stroke-width="1" opacity="1"/><path transform="translate(96.05080602313588,7.8466270086618)" d="M5,0A5,5,0,1,1,-5,0A5,5,0,1,1,5,0" fill="rgb(255, 241, 82)" stroke="white" stroke-width="1" opacity="1"/><path transform="translate(13.493368336052248,65.66934675460917)" d="M5,0A5,5,0,1,1,-5,0A5,5,0,1,1,5,0" fill="rgb(4, 135, 67)" stroke="white" stroke-width="1" opacity="1"/><path transform="translate(82.36686561583299,48.92100575756512)" d="M5,0A5,5,0,1,1,-5,0A5,5,0,1,1,5,0" fill="rgb(94, 168, 65)" stroke="white" stroke-width="1" opacity="1"/><path transform="translate(22.835941659632642,28.199016158781454)" d="M5,0A5,5,0,1,1,-5,0A5,5,0,1,1,5,0" fill="rgb(184, 205, 58)" stroke="white" stroke-width="1" opacity="1"/><path transform="translate(76.22714155810436,66.99167990250749)" d="M5,0A5,5,0,1,1,-5,0A5,5,0,1,1,5,0" fill="rgb(3, 132, 68)" stroke="white" stroke-width="1" opacity="1"/><path transform="translate(12.829748211922176,14.147227522851335)" d="M5,0A5,5,0,1,1,-5,0A5,5,0,1,1,5,0" fill="rgb(242, 230, 47)" stroke="white" stroke-width="1" opacity="1"/><path transform="translate(1.9156634181724863,55.79070561237135)" d="M5,0A5,5,0,1,1,-5,0A5,5,0,1,1,5,0" fill="rgb(61, 155, 66)" stroke="white" stroke-width="1" opacity="1"/><path transform="translate(42.5737920744553,91.07292734875713)" d="M5,0A5,5,0,1,1,-5,0A5,5,0,1,1,5,0" fill="rgb(44, 74, 66)" stroke="white" stroke-width="1" opacity="1"/><path transform="translate(44.25731915194129,36.6278103059871)" d="M5,0A5,5,0,1,1,-5,0A5,5,0,1,1,5,0" fill="rgb(148, 191, 62)" stroke="white" stroke-width="1" opacity="1"/><path transform="translate(42.86761877796241,33.55302031384903)" d="M5,0A5,5,0,1,1,-5,0A5,5,0,1,1,5,0" fill="rgb(162, 196, 61)" stroke="white" stroke-width="1" opacity="1"/><path transform="translate(46.9577659655238,1.8590886810761598)" d="M5,0A5,5,0,1,1,-5,0A5,5,0,1,1,5,0" fill="rgb(255, 252, 152)" stroke="white" stroke-width="1" opacity="1"/><path transform="translate(7.237764718133599,92.17669541810041)" d="M5,0A5,5,0,1,1,-5,0A5,5,0,1,1,5,0" fill="rgb(47, 71, 64)" stroke="white" stroke-width="1" opacity="1"/><path transform="translate(12.098047392470779,79.38548164547143)" d="M5,0A5,5,0,1,1,-5,0A5,5,0,1,1,5,0" fill="rgb(12, 102, 75)" stroke="white" stroke-width="1" opacity="1"/><path transform="translate(92.47604583765134,63.51202126045078)" d="M5,0A5,5,0,1,1,-5,0A5,5,0,1,1,5,0" fill="rgb(12, 140, 66)" stroke="white" stroke-width="1" opacity="1"/><path transform="translate(76.06838122443308,80.10585829711835)" d="M5,0A5,5,0,1,1,-5,0A5,5,0,1,1,5,0" fill="rgb(14, 101, 75)" stroke="white" stroke-width="1" opacity="1"/><path transform="translate(53.95086509709161,30.842208651705217)" d="M5,0A5,5,0,1,1,-5,0A5,5,0,1,1,5,0" fill="rgb(173, 201, 60)" stroke="white" stroke-width="1" opacity="1"/><path transform="translate(9.564523405056457,54.63203807197316)" d="M5,0A5,5,0,1,1,-5,0A5,5,0,1,1,5,0" fill="rgb(68, 157, 66)" stroke="white" stroke-width="1" opacity="1"/><path transform="translate(95.11388595445624,28.005480138315452)" d="M5,0A5,5,0,1,1,-5,0A5,5,0,1,1,5,0" fill="rgb(185, 206, 58)" stroke="white" stroke-width="1" opacity="1"/><path transform="translate(2.2261692267821265,80.82966509949122)" d="M5,0A5,5,0,1,1,-5,0A5,5,0,1,1,5,0" fill="rgb(16, 99, 75)" stroke="white" stroke-width="1" opacity="1"/><path transform="translate(97.84083873606141,30.112505316096115)" d="M5,0A5,5,0,1,1,-5,0A5,5,0,1,1,5,0" fill="rgb(176, 202, 59)" stroke="white" stroke-width="1" opacity="1"/><path transform="translate(69.32225810870655,72.6567847732521)" d="M5,0A5,5,0,1,1,-5,0A5,5,0,1,1,5,0" fill="rgb(1, 118, 74)" stroke="white" stroke-width="1" opacity="1"/><path transform="translate(47.512386960229534,24.16062088907458)" d="M5,0A5,5,0,1,1,-5,0A5,5,0,1,1,5,0" fill="rgb(200, 212, 56)" stroke="white" stroke-width="1" opacity="1"/><path transform="translate(44.60623269044031,10.505435717829137)" d="M5,0A5,5,0,1,1,-5,0A5,5,0,1,1,5,0" fill="rgb(255, 236, 51)" stroke="white" stroke-width="1" opacity="1"/><path transform="translate(16.21570061842653,95.72272039722827)" d="M5,0A5,5,0,1,1,-5,0A5,5,0,1,1,5,0" fill="rgb(55, 62, 60)" stroke="white" stroke-width="1" opacity="1"/><path transform="translate(59.66992125272088,86.8008228010846)" d="M5,0A5,5,0,1,1,-5,0A5,5,0,1,1,5,0" fill="rgb(34, 86, 71)" stroke="white" stroke-width="1" opacity="1"/><path transform="translate(13.617571428285814,31.99910517064224)" d="M5,0A5,5,0,1,1,-5,0A5,5,0,1,1,5,0" fill="rgb(168, 199, 61)" stroke="white" stroke-width="1" opacity="1"/><path transform="translate(44.05782178275955,76.29396205763878)" d="M5,0A5,5,0,1,1,-5,0A5,5,0,1,1,5,0" fill="rgb(2, 109, 77)" stroke="white" stroke-width="1" opacity="1"/><path transform="translate(8.185173321656624,5.457238967325551)" d="M5,0A5,5,0,1,1,-5,0A5,5,0,1,1,5,0" fill="rgb(255, 245, 110)" stroke="white" stroke-width="1" opacity="1"/><path transform="translate(89.2484093734436,4.930059211884863)" d="M5,0A5,5,0,1,1,-5,0A5,5,0,1,1,5,0" fill="rgb(255, 246, 116)" stroke="white" stroke-width="1" opacity="1"/><path transform="translate(55.261791762784526,77.53607739240883)" d="M5,0A5,5,0,1,1,-5,0A5,5,0,1,1,5,0" fill="rgb(6, 107, 76)" stroke="white" stroke-width="1" opacity="1"/><path transform="translate(40.80076765324313,23.825716560384702)" d="M5,0A5,5,0,1,1,-5,0A5,5,0,1,1,5,0" fill="rgb(202, 213, 55)" stroke="white" stroke-width="1" opacity="1"/><path transform="translate(6.731353767756875,20.919808179277467)" d="M5,0A5,5,0,1,1,-5,0A5,5,0,1,1,5,0" fill="rgb(214, 218, 53)" stroke="white" stroke-width="1" opacity="1"/><path transform="translate(30.567993304331488,28.762218452730338)" d="M5,0A5,5,0,1,1,-5,0A5,5,0,1,1,5,0" fill="rgb(182, 204, 59)" stroke="white" stroke-width="1" opacity="1"/><path transform="translate(67.86412765793185,25.765412309622604)" d="M5,0A5,5,0,1,1,-5,0A5,5,0,1,1,5,0" fill="rgb(194, 209, 57)" stroke="white" stroke-width="1" opacity="1"/><path transform="translate(15.248472326234452,29.849890072743403)" d="M5,0A5,5,0,1,1,-5,0A5,5,0,1,1,5,0" fill="rgb(177, 203, 59)" stroke="white" stroke-width="1" opacity="1"/><path transform="translate(18.649281168212973,7.523191735638424)" d="M5,0A5,5,0,1,1,-5,0A5,5,0,1,1,5,0" fill="rgb(255, 242, 86)" stroke="white" stroke-width="1" opacity="1"/><path transform="translate(86.08517817405539,69.73925750172377)" d="M5,0A5,5,0,1,1,-5,0A5,5,0,1,1,5,0" fill="rgb(2, 125, 71)" stroke="white" stroke-width="1" opacity="1"/><path transform="translate(35.654838053719594,32.28461220731409)" d="M5,0A5,5,0,1,1,-5,0A5,5,0,1,1,5,0" fill="rgb(167, 198, 61)" stroke="white" stroke-width="1" opacity="1"/><path transform="translate(6.617236008442351,91.65132917407635)" d="M5,0A5,5,0,1,1,-5,0A5,5,0,1,1,5,0" fill="rgb(46, 72, 65)" stroke="white" stroke-width="1" opacity="1"/><path transform="translate(16.333760014555555,15.816433484305836)" d="M5,0A5,5,0,1,1,-5,0A5,5,0,1,1,5,0" fill="rgb(235, 227, 48)" stroke="white" stroke-width="1" opacity="1"/></g></g><path class="foreground" aria-hidden="true" d="" display="none"/></g></g><g class="mark-group role-legend" role="graphics-symbol" aria-roledescription="legend" aria-label="Gradient legend titled 'y' for fill color with values from 0.0 to 1.0"><g transform="translate(124,0)"><path class="background" aria-hidden="true" d="M0,0h28v96h-28Z" pointer-events="none"/><g><g class="mark-group role-legend-entry"><g transform="translate(0,16)"><path class="background" aria-hidden="true" d="M0,0h0v0h0Z" pointer-events="none"/><g><g class="mark-rect role-legend-gradient" pointer-events="none"><path d="M0,0h10v80h-10Z" fill="url(#gradient_0)" stroke="#ddd" stroke-width="0" opacity="1"/></g><g class="mark-text role-legend-label" pointer-events="none"><text text-anchor="start" transform="translate(12,78)" font-family="sans-serif" font-size="10px" font-style="normal" font-weight="400" fill="#000" opacity="1">0.0</text><text text-anchor="start" transform="translate(12,8)" font-family="sans-serif" font-size="10px" font-style="normal" font-weight="400" fill="#000" opacity="1">1.0</text></g></g><path class="foreground" aria-hidden="true" d="" pointer-events="none" display="none"/></g></g><g class="mark-text role-legend-title" pointer-events="none"><text text-anchor="start" transform="translate(0,9)" font-family="sans-serif" font-size="11px" font-style="normal" font-weight="400" fill="#000" opacity="1">y</text></g></g><path class="foreground" aria-hidden="true" d="" pointer-events="none" display="none"/></g></g></g><path class="foreground" aria-hidden="true" d="" display="none"/></g></g></g><defs><linearGradient id="gradient_0" x1="0" x2="0" y1="1" y2="0"><stop offset="0" stop-color="rgb(58, 58, 58)"/><stop offset="0.020889985879491" stop-color="rgb(53, 63, 61)"/><stop offset="0.07260849842556406" stop-color="rgb(42, 77, 67)"/><stop offset="0.1243270109716371" stop-color="rgb(29, 90, 73)"/><stop offset="0.1760455235177102" stop-color="rgb(14, 101, 75)"/><stop offset="0.22776403606378323" stop-color="rgb(0, 112, 76)"/><stop offset="0.2794825486098563" stop-color="rgb(2, 124, 71)"/><stop offset="0.33120106115592934" stop-color="rgb(4, 137, 66)"/><stop offset="0.3829195737020024" stop-color="rgb(34, 146, 66)"/><stop offset="0.4346380862480755" stop-color="rgb(66, 156, 66)"/><stop offset="0.48635659879414855" stop-color="rgb(89, 166, 65)"/><stop offset="0.5380751113402217" stop-color="rgb(111, 176, 64)"/><stop offset="0.5897936238862946" stop-color="rgb(133, 185, 63)"/><stop offset="0.6415121364323677" stop-color="rgb(155, 194, 62)"/><stop offset="0.6932306489784408" stop-color="rgb(177, 202, 59)"/><stop offset="0.7449491615245138" stop-color="rgb(197, 211, 56)"/><stop offset="0.7966676740705869" stop-color="rgb(218, 219, 52)"/><stop offset="0.8483861866166599" stop-color="rgb(239, 228, 48)"/><stop offset="0.9001046991627331" stop-color="rgb(255, 237, 57)"/><stop offset="0.951823211708806" stop-color="rgb(255, 246, 115)"/><stop offset="1" stop-color="rgb(255, 255, 170)"/></linearGradient></defs></svg>