<svg xmlns="http://www.w3.org/2000/svg" xmlns:xlink="http://www.w3.org/1999/xlink" version="1.1" class="marks" width="146" height="137" viewBox="0 0 146 137"><rect width="146" height="137" fill="white"/><g fill="none" stroke-miterlimit="10" transform="translate(38,5)"><g class="mark-group role-frame root" role="graphics-object" aria-roledescription="group mark container"><g transform="translate(0,0)"><path class="background" aria-hidden="true" d="M0,0h100v100h-100Z"/><g><g class="mark-group role-axis" role="graphics-symbol" aria-roledescription="axis" aria-label="X-axis titled 'x' for a linear scale with values from 0.0 to 1.0"><g transform="translate(0.5,100.5)"><path class="background" aria-hidden="true" d="M0,0h0v0h0Z" pointer-events="none"/><g><g class="mark-rule role-axis-tick" pointer-events="none"><line transform="translate(0,0)" x2="0" y2="5" stroke="black" stroke-width="1.01" opacity="1"/><line transform="translate(50,0)" x2="0" y2="5" stroke="black" stroke-width="1.01" opacity="1"/><line transform="translate(100,0)" x2="0" y2="5" stroke="black" stroke-width="1.01" opacity="1"/></g><g class="mark-text role-axis-label" pointer-events="none"><text text-anchor="middle" transform="translate(0,15)" font-family="sans-serif" font-size="10px" font-style="normal" font-weight="400" fill="black" opacity="1">0.0</text><text text-anchor="middle" transform="translate(50,15)" font-family="sans-serif" font-size="10px" font-style="normal" font-weight="400" fill="black" opacity="1">0.5</text><text text-anchor="middle" transform="translate(100,15)" font-family="sans-serif" font-size="10px" font-style="normal" font-weight="400" fill="black" opacity="1">1.0</text></g><g class="mark-rule role-axis-domain" pointer-events="none"><line transform="translate(0,0)" x2="100" y2="0" stroke="black" stroke-width="1.01" opacity="1"/></g><g class="mark-text role-axis-title" pointer-events="none"><text text-anchor="middle" transform="translate(50,30)" font-family="sans-serif" font-size="11px" font-style="normal" font-weight="400" fill="black" opacity="1">x</text></g></g><path class="foreground" aria-hidden="true" d="" pointer-events="none" display="none"/></g></g><g class="mark-group role-axis" role="graphics-symbol" aria-roledescription="axis" aria-label="Y-axis titled 'y' for a linear scale with values from 0.0 to 1.0"><g transform="translate(0.5,0.5)"><path class="background" aria-hidden="true" d="M0,0h0v0h0Z" pointer-events="none"/><g><g class="mark-rule role-axis-tick" pointer-events="none"><line transform="translate(0,100)" x2="-5" y2="0" stroke="black" stroke-width="1.01" opacity="1"/><line transform="translate(0,50)" x2="-5" y2="0" stroke="black" stroke-width="1.01" opacity="1"/><line transform="translate(0,0)" x2="-5" y2="0" stroke="black" stroke-width="1.01" opacity="1"/></g><g class="mark-text role-axis-label" pointer-events="none"><text text-anchor="end" transform="translate(-7,103)" font-family="sans-serif" font-size="10px" font-style="normal" font-weight="400" fill="black" opacity="1">0.0</text><text text-anchor="end" transform="translate(-7,53)" font-family="sans-serif" font-size="10px" font-style="normal" font-weight="400" fill="black" opacity="1">0.5</text><text text-anchor="end" transform="translate(-7,3)" font-family="sans-serif" font-size="10px" font-style="normal" font-weight="400" fill="black" opacity="1">1.0</text></g><g class="mark-rule role-axis-domain" pointer-events="none"><line transform="translate(0,100)" x2="0" y2="-100" stroke="black" stroke-width="1.01" opacity="1"/></g><g class="mark-text role-axis-title" pointer-events="none"><text text-anchor="middle" transform="translate(-26.9033203125,50) rotate(-90) translate(0,-2)" font-family="sans-serif" font-size="11px" font-style="normal" font-weight="400" fill="black" opacity="1">y</text></g></g><path class="foreground" aria-hidden="true" d="" pointer-events="none" display="none"/></g></g><g class="mark-group role-scope" clip-path="url(#clip1)" role="graphics-object" aria-roledescription="group mark container"><g transform="translate(0,0)"><path class="background" aria-hidden="true" d="M0,0h0v0h0Z"/><g><g class="mark-symbol role-mark points" role="graphics-symbol" aria-roledescription="symbol mark container"><path transform="translate(10.60865402017952,49.40031735702009)" d="M3.536,0A3.536,3.536,0,1,1,-3.536,0A3.536,3.536,0,1,1,3.536,0" fill="white" stroke="steelblue" stroke-width="1" opacity="1"/><path transform="translate(73.3410464072251,1.2464432105181777)" d="M3.536,0A3.536,3.536,0,1,1,-3.536,0A3.536,3.536,0,1,1,3.536,0" fill="white" stroke="steelblue" stroke-width="1" opacity="1"/><path transform="translate(62.95282870462624,5.18989386938803)" d="M3.536,0A3.536,3.536,0,1,1,-3.536,0A3.536,3.536,0,1,1,3.536,0" fill="white" stroke="steelblue" stroke-width="1" opacity="1"/><path transform="translate(50.38262511440511,21.617677047887483)" d="M3.536,0A3.536,3.536,0,1,1,-3.536,0A3.536,3.536,0,1,1,3.536,0" fill="white" stroke="steelblue" stroke-width="1" opacity="1"/><path transform="translate(42.63296221252853,82.16767583603159)" d="M3.536,0A3.536,3.536,0,1,1,-3.536,0A3.536,3.536,0,1,1,3.536,0" fill="white" stroke="steelblue" stroke-width="1" opacity="1"/><path transform="translate(36.104712727336654,12.8989648321004)" d="M3.536,0A3.536,3.536,0,1,1,-3.536,0A3.536,3.536,0,1,1,3.536,0" fill="white" stroke="steelblue" stroke-width="1" opacity="1"/><path transform="translate(19.516967506772566,24.325848686561713)" d="M3.536,0A3.536,3.536,0,1,1,-3.536,0A3.536,3.536,0,1,1,3.536,0" fill="white" stroke="steelblue" stroke-width="1" opacity="1"/><path transform="translate(81.53446154146037,86.82192784055023)" d="M3.536,0A3.536,3.536,0,1,1,-3.536,0A3.536,3.536,0,1,1,3.536,0" fill="white" stroke="steelblue" stroke-width="1" opacity="1"/><path transform="translate(64.75265691543223,86.85262828492235)" d="M3.536,0A3.536,3.536,0,1,1,-3.536,0A3.536,3.536,0,1,1,3.536,0" fill="white" stroke="steelblue" stroke-width="1" opacity="1"/><path transform="translate(48.07153914613499,66.07780119943769)" d="M3.536,0A3.536,3.536,0,1,1,-3.536,0A3.536,3.536,0,1,1,3.536,0" fill="white" stroke="steelblue" stroke-width="1" opacity="1"/><path transform="translate(79.65394862818509,65.46615513477725)" d="M3.536,0A3.536,3.536,0,1,1,-3.536,0A3.536,3.536,0,1,1,3.536,0" fill="white" stroke="steelblue" stroke-width="1" opacity="1"/><path transform="translate(98.74716328730334,62.67818721476856)" d="M3.536,0A3.536,3.536,0,1,1,-3.536,0A3.536,3.536,0,1,1,3.536,0" fill="white" stroke="steelblue" stroke-width="1" opacity="1"/><path transform="translate(22.103924868933944,86.315874616626)" d="M3.536,0A3.536,3.536,0,1,1,-3.536,0A3.536,3.536,0,1,1,3.536,0" fill="white" stroke="steelblue" stroke-width="1" opacity="1"/><path transform="translate(1.4133272188569523,52.73401207611408)" d="M3.536,0A3.536,3.536,0,1,1,-3.536,0A3.536,3.536,0,1,1,3.536,0" fill="white" stroke="steelblue" stroke-width="1" opacity="1"/><path transform="translate(98.45197930459955,87.2667343444052)" d="M3.536,0A3.536,3.536,0,1,1,-3.536,0A3.536,3.536,0,1,1,3.536,0" fill="white" stroke="steelblue" stroke-width="1" opacity="1"/><path transform="translate(87.48959390017596,80.25825378039193)" d="M3.536,0A3.536,3.536,0,1,1,-3.536,0A3.536,3.536,0,1,1,3.536,0" fill="white" stroke="steelblue" stroke-width="1" opacity="1"/><path transform="translate(36.70423416213397,78.25678856969355)" d="M3.536,0A3.536,3.536,0,1,1,-3.536,0A3.536,3.536,0,1,1,3.536,0" fill="white" stroke="steelblue" stroke-width="1" opacity="1"/><path transform="translate(31.193380169585772,75.45881287947098)" d="M3.536,0A3.536,3.536,0,1,1,-3.536,0A3.536,3.536,0,1,1,3.536,0" fill="white" stroke="steelblue" stroke-width="1" opacity="1"/><path transform="translate(52.27691461877016,71.41826002211616)" d="M3.536,0A3.536,3.536,0,1,1,-3.536,0A3.536,3.536,0,1,1,3.536,0" fill="white" stroke="steelblue" stroke-width="1" opacity="1"/><path transform="translate(97.05249077295285,67.07045730453366)" d="M3.536,0A3.536,3.536,0,1,1,-3.536,0A3.536,3.536,0,1,1,3.536,0" fill="white" stroke="steelblue" stroke-width="1" opacity="1"/><path transform="translate(67.06337069421366,45.17901433554526)" d="M3.536,0A3.536,3.536,0,1,1,-3.536,0A3.536,3.536,0,1,1,3.536,0" fill="white" stroke="steelblue" stroke-width="1" opacity="1"/><path transform="translate(94.47393500567945,13.106202512672493)" d="M3.536,0A3.536,3.536,0,1,1,-3.536,0A3.536,3.536,0,1,1,3.536,0" fill="white" stroke="steelblue" stroke-width="1" opacity="1"/><path transform="translate(30.677523864602062,25.18191292480133)" d="M3.536,0A3.536,3.536,0,1,1,-3.536,0A3.536,3.536,0,1,1,3.536,0" fill="white" stroke="steelblue" stroke-width="1" opacity="1"/><path transform="translate(6.64170609503314,86.67337226410618)" d="M3.536,0A3.536,3.536,0,1,1,-3.536,0A3.536,3.536,0,1,1,3.536,0" fill="white" stroke="steelblue" stroke-width="1" opacity="1"/><path transform="translate(76.12038263880788,14.652095566281886)" d="M3.536,0A3.536,3.536,0,1,1,-3.536,0A3.536,3.536,0,1,1,3.536,0" fill="white" stroke="steelblue" stroke-width="1" opacity="1"/><path transform="translate(99.86926514316896,5.728519016234612)" d="M3.536,0A3.536,3.536,0,1,1,-3.536,0A3.536,3.536,0,1,1,3.536,0" fill="white" stroke="steelblue" stroke-width="1" opacity="1"/><path transform="translate(71.86807614497633,87.25724630590904)" d="M3.536,0A3.536,3.536,0,1,1,-3.536,0A3.536,3.536,0,1,1,3.536,0" fill="white" stroke="steelblue" stroke-width="1" opacity="1"/><path transform="translate(15.58970727665059,51.807342945725885)" d="M3.536,0A3.536,3.536,0,1,1,-3.536,0A3.536,3.536,0,1,1,3.536,0" fill="white" stroke="steelblue" stroke-width="1" opacity="1"/><path transform="translate(87.3073170997819,50.56094314735948)" d="M3.536,0A3.536,3.536,0,1,1,-3.536,0A3.536,3.536,0,1,1,3.536,0" fill="white" stroke="steelblue" stroke-width="1" opacity="1"/><path transform="translate(78.22540519905102,38.976487364955894)" d="M3.536,0A3.536,3.536,0,1,1,-3.536,0A3.536,3.536,0,1,1,3.536,0" fill="white" stroke="steelblue" stroke-width="1" opacity="1"/><path transform="translate(26.35808965177837,82.56216607732327)" d="M3.536,0A3.536,3.536,0,1,1,-3.536,0A3.536,3.536,0,1,1,3.536,0" fill="white" stroke="steelblue" stroke-width="1" opacity="1"/><path transform="translate(73.32905528044552,66.57243497022614)" d="M3.536,0A3.536,3.536,0,1,1,-3.536,0A3.536,3.536,0,1,1,3.536,0" fill="white" stroke="steelblue" stroke-width="1" opacity="1"/><path transform="translate(15.529698810609915,95.21440579969787)" d="M3.536,0A3.536,3.536,0,1,1,-3.536,0A3.536,3.536,0,1,1,3.536,0" fill="white" stroke="steelblue" stroke-width="1" opacity="1"/><path transform="translate(23.79554971781861,86.80562388868688)" d="M3.536,0A3.536,3.536,0,1,1,-3.536,0A3.536,3.536,0,1,1,3.536,0" fill="white" stroke="steelblue" stroke-width="1" opacity="1"/><path transform="translate(59.78361414616346,55.78505956378446)" d="M3.536,0A3.536,3.536,0,1,1,-3.536,0A3.536,3.536,0,1,1,3.536,0" fill="white" stroke="steelblue" stroke-width="1" opacity="1"/><path transform="translate(29.4970809959458,99.66365885195077)" d="M3.536,0A3.536,3.536,0,1,1,-3.536,0A3.536,3.536,0,1,1,3.536,0" fill="white" stroke="steelblue" stroke-width="1" opacity="1"/><path transform="translate(19.190945041491204,65.85656053455776)" d="M3.536,0A3.536,3.536,0,1,1,-3.536,0A3.536,3.536,0,1,1,3.536,0" fill="white" stroke="steelblue" stroke-width="1" opacity="1"/><path transform="translate(56.764662215051665,41.999889953377355)" d="M3.536,0A3.536,3.536,0,1,1,-3.536,0A3.536,3.536,0,1,1,3.536,0" fill="white" stroke="steelblue" stroke-width="1" opacity="1"/><path transform="translate(94.31201357547286,88.03060057537245)" d="M3.536,0A3.536,3.536,0,1,1,-3.536,0A3.536,3.536,0,1,1,3.536,0" fill="white" stroke="steelblue" stroke-width="1" opacity="1"/><path transform="translate(59.32068433429992,97.28541364850268)" d="M3.536,0A3.536,3.536,0,1,1,-3.536,0A3.536,3.536,0,1,1,3.536,0" fill="white" stroke="steelblue" stroke-width="1" opacity="1"/><path transform="translate(15.816019534190207,53.874608892411956)" d="M3.536,0A3.536,3.536,0,1,1,-3.536,0A3.536,3.536,0,1,1,3.536,0" fill="white" stroke="steelblue" stroke-width="1" opacity="1"/><path transform="translate(7.288792971850788,8.826890083829086)" d="M3.536,0A3.536,3.536,0,1,1,-3.536,0A3.536,3.536,0,1,1,3.536,0" fill="white" stroke="steelblue" stroke-width="1" opacity="1"/><path transform="translate(1.4662239741149552,65.39677861529994)" d="M3.536,0A3.536,3.536,0,1,1,-3.536,0A3.536,3.536,0,1,1,3.536,0" fill="white" stroke="steelblue" stroke-width="1" opacity="1"/><path transform="translate(8.418884622660327,59.73026339893176)" d="M3.536,0A3.536,3.536,0,1,1,-3.536,0A3.536,3.536,0,1,1,3.536,0" fill="white" stroke="steelblue" stroke-width="1" opacity="1"/><path transform="translate(72.89398145346624,94.77208058609229)" d="M3.536,0A3.536,3.536,0,1,1,-3.536,0A3.536,3.536,0,1,1,3.536,0" fill="white" stroke="steelblue" stroke-width="1" opacity="1"/><path transform="translate(67.81474594907657,43.704921257802184)" d="M3.536,0A3.536,3.536,0,1,1,-3.536,0A3.536,3.536,0,1,1,3.536,0" fill="white" stroke="steelblue" stroke-width="1" opacity="1"/><path transform="translate(41.550004439895716,98.51348148615678)" d="M3.536,0A3.536,3.536,0,1,1,-3.536,0A3.536,3.536,0,1,1,3.536,0" fill="white" stroke="steelblue" stroke-width="1" opacity="1"/><path transform="translate(16.558687131131244,26.090172927012965)" d="M3.536,0A3.536,3.536,0,1,1,-3.536,0A3.536,3.536,0,1,1,3.536,0" fill="white" stroke="steelblue" stroke-width="1" opacity="1"/><path transform="translate(26.367980568119076,8.824253097202494)" d="M3.536,0A3.536,3.536,0,1,1,-3.536,0A3.536,3.536,0,1,1,3.536,0" fill="white" stroke="steelblue" stroke-width="1" opacity="1"/><path transform="translate(21.37391271197138,57.67289429067605)" d="M3.536,0A3.536,3.536,0,1,1,-3.536,0A3.536,3.536,0,1,1,3.536,0" fill="white" stroke="steelblue" stroke-width="1" opacity="1"/><path transform="translate(75.209198898334,77.94147358871898)" d="M3.536,0A3.536,3.536,0,1,1,-3.536,0A3.536,3.536,0,1,1,3.536,0" fill="white" stroke="steelblue" stroke-width="1" opacity="1"/><path transform="translate(90.3671341598113,93.86111406218338)" d="M3.536,0A3.536,3.536,0,1,1,-3.536,0A3.536,3.536,0,1,1,3.536,0" fill="white" stroke="steelblue" stroke-width="1" opacity="1"/><path transform="translate(31.04838145918878,14.48272209370829)" d="M3.536,0A3.536,3.536,0,1,1,-3.536,0A3.536,3.536,0,1,1,3.536,0" fill="white" stroke="steelblue" stroke-width="1" opacity="1"/><path transform="translate(56.830530959171135,37.5592057282904)" d="M3.536,0A3.536,3.536,0,1,1,-3.536,0A3.536,3.536,0,1,1,3.536,0" fill="white" stroke="steelblue" stroke-width="1" opacity="1"/><path transform="translate(44.13812567105361,7.656790102200617)" d="M3.536,0A3.536,3.536,0,1,1,-3.536,0A3.536,3.536,0,1,1,3.536,0" fill="white" stroke="steelblue" stroke-width="1" opacity="1"/><path transform="translate(61.16860235966411,37.9754251444805)" d="M3.536,0A3.536,3.536,0,1,1,-3.536,0A3.536,3.536,0,1,1,3.536,0" fill="white" stroke="steelblue" stroke-width="1" opacity="1"/><path transform="translate(29.61566770162898,9.543100718349585)" d="M3.536,0A3.536,3.536,0,1,1,-3.536,0A3.536,3.536,0,1,1,3.536,0" fill="white" stroke="steelblue" stroke-width="1" opacity="1"/><path transform="translate(53.081958354146664,71.27575392138846)" d="M3.536,0A3.536,3.536,0,1,1,-3.536,0A3.536,3.536,0,1,1,3.536,0" fill="white" stroke="steelblue" stroke-width="1" opacity="1"/><path transform="translate(61.06920811660912,2.993441862434676)" d="M3.536,0A3.536,3.536,0,1,1,-3.536,0A3.536,3.536,0,1,1,3.536,0" fill="white" stroke="steelblue" stroke-width="1" opacity="1"/><path transform="translate(64.1215266345506,46.904881861846405)" d="M3.536,0A3.536,3.536,0,1,1,-3.536,0A3.536,3.536,0,1,1,3.536,0" fill="white" stroke="steelblue" stroke-width="1" opacity="1"/><path transform="translate(63.18282491728059,49.31012623340186)" d="M3.536,0A3.536,3.536,0,1,1,-3.536,0A3.536,3.536,0,1,1,3.536,0" fill="white" stroke="steelblue" stroke-width="1" opacity="1"/><path transform="translate(53.44726004174119,9.662262720730485)" d="M3.536,0A3.536,3.536,0,1,1,-3.536,0A3.536,3.536,0,1,1,3.536,0" fill="white" stroke="steelblue" stroke-width="1" opacity="1"/><path transform="translate(40.958413793199234,30.286751896480567)" d="M3.536,0A3.536,3.536,0,1,1,-3.536,0A3.536,3.536,0,1,1,3.536,0" fill="white" stroke="steelblue" stroke-width="1" opacity="1"/><path transform="translate(62.01614030865451,57.232030694648)" d="M3.536,0A3.536,3.536,0,1,1,-3.536,0A3.536,3.536,0,1,1,3.536,0" fill="white" stroke="steelblue" stroke-width="1" opacity="1"/><path transform="translate(48.43176099566882,45.13360249455619)" d="M3.536,0A3.536,3.536,0,1,1,-3.536,0A3.536,3.536,0,1,1,3.536,0" fill="white" stroke="steelblue" stroke-width="1" opacity="1"/><path transform="translate(95.44241756303025,33.061866412909055)" d="M3.536,0A3.536,3.536,0,1,1,-3.536,0A3.536,3.536,0,1,1,3.536,0" fill="white" stroke="steelblue" stroke-width="1" opacity="1"/><path transform="translate(71.78962937439577,2.4706236196771703)" d="M3.536,0A3.536,3.536,0,1,1,-3.536,0A3.536,3.536,0,1,1,3.536,0" fill="white" stroke="steelblue" stroke-width="1" opacity="1"/><path transform="translate(46.722656925490405,57.61807757338462)" d="M3.536,0A3.536,3.536,0,1,1,-3.536,0A3.536,3.536,0,1,1,3.536,0" fill="white" stroke="steelblue" stroke-width="1" opacity="1"/><path transform="translate(92.40803302541289,83.27175612617631)" d="M3.536,0A3.536,3.536,0,1,1,-3.536,0A3.536,3.536,0,1,1,3.536,0" fill="white" stroke="steelblue" stroke-width="1" opacity="1"/><path transform="translate(68.89563970339479,60.03714958084602)" d="M3.536,0A3.536,3.536,0,1,1,-3.536,0A3.536,3.536,0,1,1,3.536,0" fill="white" stroke="steelblue" stroke-width="1" opacity="1"/><path transform="translate(34.28204665898703,32.80422574146403)" d="M3.536,0A3.536,3.536,0,1,1,-3.536,0A3.536,3.536,0,1,1,3.536,0" fill="white" stroke="steelblue" stroke-width="1" opacity="1"/><path transform="translate(29.51556582208622,93.42658008314763)" d="M3.536,0A3.536,3.536,0,1,1,-3.536,0A3.536,3.536,0,1,1,3.536,0" fill="white" stroke="steelblue" stroke-width="1" opacity="1"/><path transform="translate(34.10831003471861,7.804188878627116)" d="M3.536,0A3.536,3.536,0,1,1,-3.536,0A3.536,3.536,0,1,1,3.536,0" fill="white" stroke="steelblue" stroke-width="1" opacity="1"/><path transform="translate(19.68599166670747,8.514985811492103)" d="M3.536,0A3.536,3.536,0,1,1,-3.536,0A3.536,3.536,0,1,1,3.536,0" fill="white" stroke="steelblue" stroke-width="1" opacity="1"/><path transform="translate(58.354911325077715,41.02543027121494)" d="M3.536,0A3.536,3.536,0,1,1,-3.536,0A3.536,3.536,0,1,1,3.536,0" fill="white" stroke="steelblue" stroke-width="1" opacity="1"/><path transform="translate(9.434815905664228,50.243581463924095)" d="M3.536,0A3.536,3.536,0,1,1,-3.536,0A3.536,3.536,0,1,1,3.536,0" fill="white" stroke="steelblue" stroke-width="1" opacity="1"/><path transform="translate(25.38812772409559,53.65548119359465)" d="M3.536,0A3.536,3.536,0,1,1,-3.536,0A3.536,3.536,0,1,1,3.536,0" fill="white" stroke="steelblue" stroke-width="1" opacity="1"/><path transform="translate(15.060886796349926,17.024300413715398)" d="M3.536,0A3.536,3.536,0,1,1,-3.536,0A3.536,3.536,0,1,1,3.536,0" fill="white" stroke="steelblue" stroke-width="1" opacity="1"/><path transform="translate(14.842224250897063,70.85301283610504)" d="M3.536,0A3.536,3.536,0,1,1,-3.536,0A3.536,3.536,0,1,1,3.536,0" fill="white" stroke="steelblue" stroke-width="1" opacity="1"/><path transform="translate(99.54468488305528,95.28755719246416)" d="M3.536,0A3.536,3.536,0,1,1,-3.536,0A3.536,3.536,0,1,1,3.536,0" fill="white" stroke="steelblue" stroke-width="1" opacity="1"/><path transform="translate(54.27800363799364,18.663358752335935)" d="M3.536,0A3.536,3.536,0,1,1,-3.536,0A3.536,3.536,0,1,1,3.536,0" fill="white" stroke="steelblue" stroke-width="1" opacity="1"/><path transform="translate(91.31959128783122,68.04205587158404)" d="M3.536,0A3.536,3.536,0,1,1,-3.536,0A3.536,3.536,0,1,1,3.536,0" fill="white" stroke="steelblue" stroke-width="1" opacity="1"/><path transform="translate(37.06955508459268,99.46646356622894)" d="M3.536,0A3.536,3.536,0,1,1,-3.536,0A3.536,3.536,0,1,1,3.536,0" fill="white" stroke="steelblue" stroke-width="1" opacity="1"/><path transform="translate(24.241484434705473,61.87862911467374)" d="M3.536,0A3.536,3.536,0,1,1,-3.536,0A3.536,3.536,0,1,1,3.536,0" fill="white" stroke="steelblue" stroke-width="1" opacity="1"/><path transform="translate(36.22942325103761,53.47400662914751)" d="M3.536,0A3.536,3.536,0,1,1,-3.536,0A3.536,3.536,0,1,1,3.536,0" fill="white" stroke="steelblue" stroke-width="1" opacity="1"/><path transform="translate(38.38467291043576,44.85148512164155)" d="M3.536,0A3.536,3.536,0,1,1,-3.536,0A3.536,3.536,0,1,1,3.536,0" fill="white" stroke="steelblue" stroke-width="1" opacity="1"/><path transform="translate(90.9610376751766,90.11748756462923)" d="M3.536,0A3.536,3.536,0,1,1,-3.536,0A3.536,3.536,0,1,1,3.536,0" fill="white" stroke="steelblue" stroke-width="1" opacity="1"/><path transform="translate(16.541673644803446,87.87833988265898)" d="M3.536,0A3.536,3.536,0,1,1,-3.536,0A3.536,3.536,0,1,1,3.536,0" fill="white" stroke="steelblue" stroke-width="1" opacity="1"/><path transform="translate(12.496058641509222,13.049067985748042)" d="M3.536,0A3.536,3.536,0,1,1,-3.536,0A3.536,3.536,0,1,1,3.536,0" fill="white" stroke="steelblue" stroke-width="1" opacity="1"/><path transform="translate(0.11228931132989395,19.681117120775838)" d="M3.536,0A3.536,3.536,0,1,1,-3.536,0A3.536,3.536,0,1,1,3.536,0" fill="white" stroke="steelblue" stroke-width="1" opacity="1"/><path transform="translate(19.601746962626,30.456323960969545)" d="M3.536,0A3.536,3.536,0,1,1,-3.536,0A3.536,3.536,0,1,1,3.536,0" fill="white" stroke="steelblue" stroke-width="1" opacity="1"/><path transform="translate(86.72106527592119,86.71641863418617)" d="M3.536,0A3.536,3.536,0,1,1,-3.536,0A3.536,3.536,0,1,1,3.536,0" fill="white" stroke="steelblue" stroke-width="1" opacity="1"/><path transform="translate(78.76159897848004,64.39621986075811)" d="M3.536,0A3.536,3.536,0,1,1,-3.536,0A3.536,3.536,0,1,1,3.536,0" fill="white" stroke="steelblue" stroke-width="1" opacity="1"/><path transform="translate(21.501341105205384,68.41311774448029)" d="M3.536,0A3.536,3.536,0,1,1,-3.536,0A3.536,3.536,0,1,1,3.536,0" fill="white" stroke="steelblue" stroke-width="1" opacity="1"/><path transform="translate(84.68972686830547,39.417297835922795)" d="M3.536,0A3.536,3.536,0,1,1,-3.536,0A3.536,3.536,0,1,1,3.536,0" fill="white" stroke="steelblue" stroke-width="1" opacity="1"/><path transform="translate(50.59306555106643,66.3047594837432)" d="M3.536,0A3.536,3.536,0,1,1,-3.536,0A3.536,3.536,0,1,1,3.536,0" fill="white" stroke="steelblue" stroke-width="1" opacity="1"/><path transform="translate(50.89047744184045,21.59525457559084)" d="M3.536,0A3.536,3.536,0,1,1,-3.536,0A3.536,3.536,0,1,1,3.536,0" fill="white" stroke="steelblue" stroke-width="1" opacity="1"/><path transform="translate(22.871239959908795,92.16050524405262)" d="M3.536,0A3.536,3.536,0,1,1,-3.536,0A3.536,3.536,0,1,1,3.536,0" fill="white" stroke="steelblue" stroke-width="1" opacity="1"/><path transform="translate(7.663793569399335,80.26440726985649)" d="M3.536,0A3.536,3.536,0,1,1,-3.536,0A3.536,3.536,0,1,1,3.536,0" fill="white" stroke="steelblue" stroke-width="1" opacity="1"/><path transform="translate(31.29871308230654,52.1803983840114)" d="M3.536,0A3.536,3.536,0,1,1,-3.536,0A3.536,3.536,0,1,1,3.536,0" fill="white" stroke="steelblue" stroke-width="1" opacity="1"/></g></g><path class="foreground" aria-hidden="true" d="" display="none"/></g></g></g><path class="foreground" aria-hidden="true" d="" display="none"/></g></g></g><defs><clipPath id="clip1"><rect x="0" y="0" width="100" height="100"/></clipPath></defs></svg>