<svg xmlns="http://www.w3.org/2000/svg" xmlns:xlink="http://www.w3.org/1999/xlink" version="1.1" class="marks" width="190" height="138" viewBox="0 0 190 138"><rect width="190" height="138" fill="white"/><g fill="none" stroke-miterlimit="10" transform="translate(38,6)"><g class="mark-group role-frame root" role="graphics-object" aria-roledescription="group mark container"><g transform="translate(0,0)"><path class="background" aria-hidden="true" d="M0,0h100v100h-100Z" fill="lightgray"/><g><g class="mark-group role-axis" role="graphics-symbol" aria-roledescription="axis" aria-label="X-axis titled 'x' for a linear scale with values from 0.0 to 1.0"><g transform="translate(0.5,100.5)"><path class="background" aria-hidden="true" d="M0,0h0v0h0Z" pointer-events="none"/><g><g class="mark-rule role-axis-grid" pointer-events="none"><line transform="translate(0,0)" x2="0" y2="-100" stroke="white" stroke-width="0.5" stroke-dasharray="0" opacity="1"/><line transform="translate(50,0)" x2="0" y2="-100" stroke="white" stroke-width="0.5" stroke-dasharray="0" opacity="1"/><line transform="translate(100,0)" x2="0" y2="-100" stroke="white" stroke-width="0.5" stroke-dasharray="0" opacity="1"/></g><g class="mark-rule role-axis-tick" pointer-events="none"><line transform="translate(0,0)" x2="0" y2="5" stroke="black" stroke-width="1.01" opacity="1"/><line transform="translate(50,0)" x2="0" y2="5" stroke="black" stroke-width="1.01" opacity="1"/><line transform="translate(100,0)" x2="0" y2="5" stroke="black" stroke-width="1.01" opacity="1"/></g><g class="mark-text role-axis-label" pointer-events="none"><text text-anchor="middle" transform="translate(0,15)" font-family="sans-serif" font-size="10px" font-style="normal" font-weight="400" fill="black" opacity="1">0.0</text><text text-anchor="middle" transform="translate(50,15)" font-family="sans-serif" font-size="10px" font-style="normal" font-weight="400" fill="black" opacity="1">0.5</text><text text-anchor="middle" transform="translate(100,15)" font-family="sans-serif" font-size="10px" font-style="normal" font-weight="400" fill="black" opacity="1">1.0</text></g><g class="mark-rule role-axis-domain" pointer-events="none"><line transform="translate(0,0)" x2="100" y2="0" stroke="black" stroke-width="1.01" opacity="1"/></g><g class="mark-text role-axis-title" pointer-events="none"><text text-anchor="middle" transform="translate(50,30)" font-family="sans-serif" font-size="11px" font-style="normal" font-weight="400" fill="black" opacity="1">x</text></g></g><path class="foreground" aria-hidden="true" d="" pointer-events="none" display="none"/></g></g><g class="mark-group role-axis" role="graphics-symbol" aria-roledescription="axis" aria-label="Y-axis titled 'y' for a linear scale with values from 0.0 to 1.0"><g transform="translate(0.5,0.5)"><path class="background" aria-hidden="true" d="M0,0h0v0h0Z" pointer-events="none"/><g><g class="mark-rule role-axis-grid" pointer-events="none"><line transform="translate(0,100)" x2="100" y2="0" stroke="white" stroke-width="0.5" stroke-dasharray="0" opacity="1"/><line transform="translate(0,50)" x2="100" y2="0" stroke="white" stroke-width="0.5" stroke-dasharray="0" opacity="1"/><line transform="translate(0,0)" x2="100" y2="0" stroke="white" stroke-width="0.5" stroke-dasharray="0" opacity="1"/></g><g class="mark-rule role-axis-tick" pointer-events="none"><line transform="translate(0,100)" x2="-5" y2="0" stroke="black" stroke-width="1.01" opacity="1"/><line transform="translate(0,50)" x2="-5" y2="0" stroke="black" stroke-width="1.01" opacity="1"/><line transform="translate(0,0)" x2="-5" y2="0" stroke="black" stroke-width="1.01" opacity="1"/></g><g class="mark-text role-axis-label" pointer-events="none"><text text-anchor="end" transform="translate(-7,103)" font-family="sans-serif" font-size="10px" font-style="normal" font-weight="400" fill="black" opacity="1">0.0</text><text text-anchor="end" transform="translate(-7,53)" font-family="sans-serif" font-size="10px" font-style="normal" font-weight="400" fill="black" opacity="1">0.5</text><text text-anchor="end" transform="translate(-7,3)" font-family="sans-serif" font-size="10px" font-style="normal" font-weight="400" fill="black" opacity="1">1.0</text></g><g class="mark-rule role-axis-domain" pointer-events="none"><line transform="translate(0,100)" x2="0" y2="-100" stroke="black" stroke-width="1.01" opacity="1"/></g><g class="mark-text role-axis-title" pointer-events="none"><text text-anchor="middle" transform="translate(-26.9033203125,50) rotate(-90) translate(0,-2)" font-family="sans-serif" font-size="11px" font-style="normal" font-weight="400" fill="black" opacity="1">y</text></g></g><path class="foreground" aria-hidden="true" d="" pointer-events="none" display="none"/></g></g><g class="mark-group role-scope" role="graphics-object" aria-roledescription="group mark container"><g transform="translate(0,0)"><path class="background" aria-hidden="true" d="M0,0h0v0h0Z"/><g><g class="mark-symbol role-mark points" role="graphics-symbol" aria-roledescription="symbol mark container"><path transform="translate(94.42428101673055,19.344549275802525)" d="M5,0A5,5,0,1,1,-5,0A5,5,0,1,1,5,0" fill="rgb(224, 222, 51)" stroke="white" stroke-width="1" opacity="1"/><path transform="translate(27.9856759205831,64.07667551153487)" d="M5,0A5,5,0,1,1,-5,0A5,5,0,1,1,5,0" fill="rgb(19, 142, 66)" stroke="white" stroke-width="1" opacity="1"/><path transform="translate(64.02895473846144,66.511851234142)" d="M5,0A5,5,0,1,1,-5,0A5,5,0,1,1,5,0" fill="rgb(4, 137, 66)" stroke="white" stroke-width="1" opacity="1"/><path transform="translate(63.060791262577744,76.34767124231409)" d="M5,0A5,5,0,1,1,-5,0A5,5,0,1,1,5,0" fill="rgb(0, 113, 76)" stroke="white" stroke-width="1" opacity="1"/><path transform="translate(84.21124723193724,86.53999410093026)" d="M5,0A5,5,0,1,1,-5,0A5,5,0,1,1,5,0" fill="rgb(28, 91, 73)" stroke="white" stroke-width="1" opacity="1"/><path transform="translate(53.56277108660744,23.917942721329887)" d="M5,0A5,5,0,1,1,-5,0A5,5,0,1,1,5,0" fill="rgb(205, 214, 55)" stroke="white" stroke-width="1" opacity="1"/><path transform="translate(79.0813870294267,3.177553365083563)" d="M5,0A5,5,0,1,1,-5,0A5,5,0,1,1,5,0" fill="rgb(255, 251, 144)" stroke="white" stroke-width="1" opacity="1"/><path transform="translate(24.537462256142316,98.57274299618547)" d="M5,0A5,5,0,1,1,-5,0A5,5,0,1,1,5,0" fill="rgb(57, 60, 59)" stroke="white" stroke-width="1" opacity="1"/><path transform="translate(93.95805064960119,77.77906395622396)" d="M5,0A5,5,0,1,1,-5,0A5,5,0,1,1,5,0" fill="rgb(1, 110, 77)" stroke="white" stroke-width="1" opacity="1"/><path transform="translate(4.800629541789325,41.41729652152579)" d="M5,0A5,5,0,1,1,-5,0A5,5,0,1,1,5,0" fill="rgb(132, 185, 63)" stroke="white" stroke-width="1" opacity="1"/><path transform="translate(99.43707731592535,61.53788872467793)" d="M5,0A5,5,0,1,1,-5,0A5,5,0,1,1,5,0" fill="rgb(34, 146, 66)" stroke="white" stroke-width="1" opacity="1"/><path transform="translate(79.25163572964695,24.82501507324256)" d="M5,0A5,5,0,1,1,-5,0A5,5,0,1,1,5,0" fill="rgb(202, 213, 55)" stroke="white" stroke-width="1" opacity="1"/><path transform="translate(82.66332685828489,87.29682411824446)" d="M5,0A5,5,0,1,1,-5,0A5,5,0,1,1,5,0" fill="rgb(30, 89, 72)" stroke="white" stroke-width="1" opacity="1"/><path transform="translate(64.23126290804613,41.837919809561285)" d="M5,0A5,5,0,1,1,-5,0A5,5,0,1,1,5,0" fill="rgb(130, 184, 63)" stroke="white" stroke-width="1" opacity="1"/><path transform="translate(32.25438769908826,65.0297969804828)" d="M5,0A5,5,0,1,1,-5,0A5,5,0,1,1,5,0" fill="rgb(13, 140, 66)" stroke="white" stroke-width="1" opacity="1"/><path transform="translate(74.12931000836438,0.9003362877346599)" d="M5,0A5,5,0,1,1,-5,0A5,5,0,1,1,5,0" fill="rgb(255, 255, 170)" stroke="white" stroke-width="1" opacity="1"/><path transform="translate(39.84370080218119,81.95970809142625)" d="M5,0A5,5,0,1,1,-5,0A5,5,0,1,1,5,0" fill="rgb(14, 101, 75)" stroke="white" stroke-width="1" opacity="1"/><path transform="translate(79.70752716242798,75.46098782631283)" d="M5,0A5,5,0,1,1,-5,0A5,5,0,1,1,5,0" fill="rgb(1, 115, 75)" stroke="white" stroke-width="1" opacity="1"/><path transform="translate(8.070228739759578,3.4026522762270694)" d="M5,0A5,5,0,1,1,-5,0A5,5,0,1,1,5,0" fill="rgb(255, 250, 141)" stroke="white" stroke-width="1" opacity="1"/><path transform="translate(21.32196538058454,46.853463390981496)" d="M5,0A5,5,0,1,1,-5,0A5,5,0,1,1,5,0" fill="rgb(108, 175, 64)" stroke="white" stroke-width="1" opacity="1"/><path transform="translate(52.115041106369695,38.05412132682634)" d="M5,0A5,5,0,1,1,-5,0A5,5,0,1,1,5,0" fill="rgb(147, 190, 62)" stroke="white" stroke-width="1" opacity="1"/><path transform="translate(45.36533515722684,75.32574750848426)" d="M5,0A5,5,0,1,1,-5,0A5,5,0,1,1,5,0" fill="rgb(1, 116, 75)" stroke="white" stroke-width="1" opacity="1"/><path transform="translate(73.73390383153394,42.88643588483937)" d="M5,0A5,5,0,1,1,-5,0A5,5,0,1,1,5,0" fill="rgb(125, 182, 64)" stroke="white" stroke-width="1" opacity="1"/><path transform="translate(69.57962568330947,62.047831370127106)" d="M5,0A5,5,0,1,1,-5,0A5,5,0,1,1,5,0" fill="rgb(31, 145, 66)" stroke="white" stroke-width="1" opacity="1"/><path transform="translate(75.61473162994841,20.249859054029262)" d="M5,0A5,5,0,1,1,-5,0A5,5,0,1,1,5,0" fill="rgb(220, 220, 52)" stroke="white" stroke-width="1" opacity="1"/><path transform="translate(4.663279293764511,90.29305692621186)" d="M5,0A5,5,0,1,1,-5,0A5,5,0,1,1,5,0" fill="rgb(38, 82, 69)" stroke="white" stroke-width="1" opacity="1"/><path transform="translate(54.22893272721421,78.74717921087554)" d="M5,0A5,5,0,1,1,-5,0A5,5,0,1,1,5,0" fill="rgb(4, 108, 76)" stroke="white" stroke-width="1" opacity="1"/><path transform="translate(87.53231721087452,24.701123908828748)" d="M5,0A5,5,0,1,1,-5,0A5,5,0,1,1,5,0" fill="rgb(202, 213, 55)" stroke="white" stroke-width="1" opacity="1"/><path transform="translate(69.86244711698166,88.7404832805216)" d="M5,0A5,5,0,1,1,-5,0A5,5,0,1,1,5,0" fill="rgb(34, 86, 71)" stroke="white" stroke-width="1" opacity="1"/><path transform="translate(20.054548510779124,42.32372483960355)" d="M5,0A5,5,0,1,1,-5,0A5,5,0,1,1,5,0" fill="rgb(128, 183, 63)" stroke="white" stroke-width="1" opacity="1"/><path transform="translate(3.325591505203651,51.62552604245094)" d="M5,0A5,5,0,1,1,-5,0A5,5,0,1,1,5,0" fill="rgb(88, 165, 65)" stroke="white" stroke-width="1" opacity="1"/><path transform="translate(48.40815656758431,12.729467790128258)" d="M5,0A5,5,0,1,1,-5,0A5,5,0,1,1,5,0" fill="rgb(251, 233, 45)" stroke="white" stroke-width="1" opacity="1"/><path transform="translate(42.851770490826105,69.27572036753892)" d="M5,0A5,5,0,1,1,-5,0A5,5,0,1,1,5,0" fill="rgb(3, 130, 69)" stroke="white" stroke-width="1" opacity="1"/><path transform="translate(13.88312235227971,15.32606531761499)" d="M5,0A5,5,0,1,1,-5,0A5,5,0,1,1,5,0" fill="rgb(241, 229, 47)" stroke="white" stroke-width="1" opacity="1"/><path transform="translate(57.02615737034189,24.07817447811712)" d="M5,0A5,5,0,1,1,-5,0A5,5,0,1,1,5,0" fill="rgb(205, 214, 55)" stroke="white" stroke-width="1" opacity="1"/><path transform="translate(32.58738270860144,53.787700042596754)" d="M5,0A5,5,0,1,1,-5,0A5,5,0,1,1,5,0" fill="rgb(79, 161, 66)" stroke="white" stroke-width="1" opacity="1"/><path transform="translate(31.31905320038789,46.932133788820266)" d="M5,0A5,5,0,1,1,-5,0A5,5,0,1,1,5,0" fill="rgb(108, 174, 64)" stroke="white" stroke-width="1" opacity="1"/><path transform="translate(64.67858188297943,21.510875746751445)" d="M5,0A5,5,0,1,1,-5,0A5,5,0,1,1,5,0" fill="rgb(215, 218, 53)" stroke="white" stroke-width="1" opacity="1"/><path transform="translate(65.73019501827919,16.90335538062966)" d="M5,0A5,5,0,1,1,-5,0A5,5,0,1,1,5,0" fill="rgb(234, 226, 49)" stroke="white" stroke-width="1" opacity="1"/><path transform="translate(85.80056422938651,71.977878735341)" d="M5,0A5,5,0,1,1,-5,0A5,5,0,1,1,5,0" fill="rgb(2, 124, 72)" stroke="white" stroke-width="1" opacity="1"/><path transform="translate(90.31691088959344,46.807374521817614)" d="M5,0A5,5,0,1,1,-5,0A5,5,0,1,1,5,0" fill="rgb(109, 175, 64)" stroke="white" stroke-width="1" opacity="1"/><path transform="translate(65.15127429853769,75.08899060430505)" d="M5,0A5,5,0,1,1,-5,0A5,5,0,1,1,5,0" fill="rgb(1, 116, 75)" stroke="white" stroke-width="1" opacity="1"/><path transform="translate(16.977910977809994,62.659773707588684)" d="M5,0A5,5,0,1,1,-5,0A5,5,0,1,1,5,0" fill="rgb(27, 144, 66)" stroke="white" stroke-width="1" opacity="1"/><path transform="translate(22.432380759054105,2.976760618890595)" d="M5,0A5,5,0,1,1,-5,0A5,5,0,1,1,5,0" fill="rgb(255, 251, 146)" stroke="white" stroke-width="1" opacity="1"/><path transform="translate(62.55123233914139,63.5136731238987)" d="M5,0A5,5,0,1,1,-5,0A5,5,0,1,1,5,0" fill="rgb(22, 143, 66)" stroke="white" stroke-width="1" opacity="1"/><path transform="translate(19.09991323871032,73.02289979014702)" d="M5,0A5,5,0,1,1,-5,0A5,5,0,1,1,5,0" fill="rgb(2, 121, 73)" stroke="white" stroke-width="1" opacity="1"/><path transform="translate(89.980522093802,89.78402648815407)" d="M5,0A5,5,0,1,1,-5,0A5,5,0,1,1,5,0" fill="rgb(36, 83, 70)" stroke="white" stroke-width="1" opacity="1"/><path transform="translate(12.908875665777241,2.870529075689765)" d="M5,0A5,5,0,1,1,-5,0A5,5,0,1,1,5,0" fill="rgb(255, 251, 147)" stroke="white" stroke-width="1" opacity="1"/><path transform="translate(82.57363895203771,47.25699077332921)" d="M5,0A5,5,0,1,1,-5,0A5,5,0,1,1,5,0" fill="rgb(107, 174, 64)" stroke="white" stroke-width="1" opacity="1"/><path transform="translate(87.3182582528136,90.04025038836492)" d="M5,0A5,5,0,1,1,-5,0A5,5,0,1,1,5,0" fill="rgb(37, 82, 70)" stroke="white" stroke-width="1" opacity="1"/><path transform="translate(13.552535265820719,98.23357208540536)" d="M5,0A5,5,0,1,1,-5,0A5,5,0,1,1,5,0" fill="rgb(56, 61, 59)" stroke="white" stroke-width="1" opacity="1"/><path transform="translate(90.0850114117312,10.037859388975779)" d="M5,0A5,5,0,1,1,-5,0A5,5,0,1,1,5,0" fill="rgb(255, 238, 65)" stroke="white" stroke-width="1" opacity="1"/><path transform="translate(37.13612654967312,29.758504680775676)" d="M5,0A5,5,0,1,1,-5,0A5,5,0,1,1,5,0" fill="rgb(182, 204, 58)" stroke="white" stroke-width="1" opacity="1"/><path transform="translate(91.52103561458945,60.84581540669577)" d="M5,0A5,5,0,1,1,-5,0A5,5,0,1,1,5,0" fill="rgb(39, 148, 66)" stroke="white" stroke-width="1" opacity="1"/><path transform="translate(48.78432897144751,16.275083554115078)" d="M5,0A5,5,0,1,1,-5,0A5,5,0,1,1,5,0" fill="rgb(237, 227, 48)" stroke="white" stroke-width="1" opacity="1"/><path transform="translate(46.89144015186149,99.1879341471412)" d="M5,0A5,5,0,1,1,-5,0A5,5,0,1,1,5,0" fill="rgb(58, 58, 58)" stroke="white" stroke-width="1" opacity="1"/><path transform="translate(73.08602047027937,87.14008653497457)" d="M5,0A5,5,0,1,1,-5,0A5,5,0,1,1,5,0" fill="rgb(30, 89, 73)" stroke="white" stroke-width="1" opacity="1"/><path transform="translate(91.81058971483064,38.31772389279142)" d="M5,0A5,5,0,1,1,-5,0A5,5,0,1,1,5,0" fill="rgb(146, 190, 62)" stroke="white" stroke-width="1" opacity="1"/><path transform="translate(43.3143859500602,23.645064676470195)" d="M5,0A5,5,0,1,1,-5,0A5,5,0,1,1,5,0" fill="rgb(206, 215, 55)" stroke="white" stroke-width="1" opacity="1"/><path transform="translate(13.534319175915533,28.16172228389531)" d="M5,0A5,5,0,1,1,-5,0A5,5,0,1,1,5,0" fill="rgb(188, 207, 57)" stroke="white" stroke-width="1" opacity="1"/><path transform="translate(64.75755015657015,66.1915334671241)" d="M5,0A5,5,0,1,1,-5,0A5,5,0,1,1,5,0" fill="rgb(5, 137, 66)" stroke="white" stroke-width="1" opacity="1"/><path transform="translate(18.165744301223864,30.44530977719844)" d="M5,0A5,5,0,1,1,-5,0A5,5,0,1,1,5,0" fill="rgb(179, 203, 59)" stroke="white" stroke-width="1" opacity="1"/><path transform="translate(23.822403514127487,66.89984211618813)" d="M5,0A5,5,0,1,1,-5,0A5,5,0,1,1,5,0" fill="rgb(4, 136, 66)" stroke="white" stroke-width="1" opacity="1"/><path transform="translate(3.478633093861283,36.4702522248428)" d="M5,0A5,5,0,1,1,-5,0A5,5,0,1,1,5,0" fill="rgb(154, 193, 62)" stroke="white" stroke-width="1" opacity="1"/><path transform="translate(62.84403731782692,18.517820589732292)" d="M5,0A5,5,0,1,1,-5,0A5,5,0,1,1,5,0" fill="rgb(227, 223, 50)" stroke="white" stroke-width="1" opacity="1"/><path transform="translate(7.732727740561396,15.839167323547866)" d="M5,0A5,5,0,1,1,-5,0A5,5,0,1,1,5,0" fill="rgb(238, 228, 48)" stroke="white" stroke-width="1" opacity="1"/><path transform="translate(63.695075788640864,49.63191388570113)" d="M5,0A5,5,0,1,1,-5,0A5,5,0,1,1,5,0" fill="rgb(97, 169, 65)" stroke="white" stroke-width="1" opacity="1"/><path transform="translate(67.31604190469741,54.34355083818048)" d="M5,0A5,5,0,1,1,-5,0A5,5,0,1,1,5,0" fill="rgb(77, 160, 66)" stroke="white" stroke-width="1" opacity="1"/><path transform="translate(78.87662550474603,42.97507530883051)" d="M5,0A5,5,0,1,1,-5,0A5,5,0,1,1,5,0" fill="rgb(125, 182, 64)" stroke="white" stroke-width="1" opacity="1"/><path transform="translate(13.094652149705944,2.7302216328072504)" d="M5,0A5,5,0,1,1,-5,0A5,5,0,1,1,5,0" fill="rgb(255, 252, 149)" stroke="white" stroke-width="1" opacity="1"/><path transform="translate(42.01870391563776,25.308343342941843)" d="M5,0A5,5,0,1,1,-5,0A5,5,0,1,1,5,0" fill="rgb(200, 212, 56)" stroke="white" stroke-width="1" opacity="1"/><path transform="translate(53.697754160071796,22.28033719325212)" d="M5,0A5,5,0,1,1,-5,0A5,5,0,1,1,5,0" fill="rgb(212, 217, 54)" stroke="white" stroke-width="1" opacity="1"/><path transform="translate(1.5385719195782466,10.320019519813862)" d="M5,0A5,5,0,1,1,-5,0A5,5,0,1,1,5,0" fill="rgb(255, 238, 61)" stroke="white" stroke-width="1" opacity="1"/><path transform="translate(33.42447508166653,96.41799432666434)" d="M5,0A5,5,0,1,1,-5,0A5,5,0,1,1,5,0" fill="rgb(52, 65, 62)" stroke="white" stroke-width="1" opacity="1"/><path transform="translate(51.725528714196486,62.61061331893141)" d="M5,0A5,5,0,1,1,-5,0A5,5,0,1,1,5,0" fill="rgb(28, 144, 66)" stroke="white" stroke-width="1" opacity="1"/><path transform="translate(55.89312445062172,46.865201439429306)" d="M5,0A5,5,0,1,1,-5,0A5,5,0,1,1,5,0" fill="rgb(108, 175, 64)" stroke="white" stroke-width="1" opacity="1"/><path transform="translate(8.75659519550851,28.03882415311696)" d="M5,0A5,5,0,1,1,-5,0A5,5,0,1,1,5,0" fill="rgb(189, 207, 57)" stroke="white" stroke-width="1" opacity="1"/><path transform="translate(48.198721749060866,17.245083093485103)" d="M5,0A5,5,0,1,1,-5,0A5,5,0,1,1,5,0" fill="rgb(233, 226, 49)" stroke="white" stroke-width="1" opacity="1"/><path transform="translate(21.090054032172002,26.248858691696576)" d="M5,0A5,5,0,1,1,-5,0A5,5,0,1,1,5,0" fill="rgb(196, 210, 56)" stroke="white" stroke-width="1" opacity="1"/><path transform="translate(62.735434223477974,75.46352397856361)" d="M5,0A5,5,0,1,1,-5,0A5,5,0,1,1,5,0" fill="rgb(1, 115, 75)" stroke="white" stroke-width="1" opacity="1"/><path transform="translate(15.928242206561139,75.45151107675194)" d="M5,0A5,5,0,1,1,-5,0A5,5,0,1,1,5,0" fill="rgb(1, 116, 75)" stroke="white" stroke-width="1" opacity="1"/><path transform="translate(39.20612879419445,33.2273698777269)" d="M5,0A5,5,0,1,1,-5,0A5,5,0,1,1,5,0" fill="rgb(168, 199, 61)" stroke="white" stroke-width="1" opacity="1"/><path transform="translate(82.39167846067994,35.91671497681492)" d="M5,0A5,5,0,1,1,-5,0A5,5,0,1,1,5,0" fill="rgb(156, 194, 62)" stroke="white" stroke-width="1" opacity="1"/><path transform="translate(12.543309306632711,28.18156129434094)" d="M5,0A5,5,0,1,1,-5,0A5,5,0,1,1,5,0" fill="rgb(188, 207, 57)" stroke="white" stroke-width="1" opacity="1"/><path transform="translate(14.52334529853465,83.47588842013215)" d="M5,0A5,5,0,1,1,-5,0A5,5,0,1,1,5,0" fill="rgb(19, 98, 74)" stroke="white" stroke-width="1" opacity="1"/><path transform="translate(31.906592159964397,98.29835014403153)" d="M5,0A5,5,0,1,1,-5,0A5,5,0,1,1,5,0" fill="rgb(56, 60, 59)" stroke="white" stroke-width="1" opacity="1"/><path transform="translate(65.85508300312065,32.55379000151265)" d="M5,0A5,5,0,1,1,-5,0A5,5,0,1,1,5,0" fill="rgb(170, 200, 60)" stroke="white" stroke-width="1" opacity="1"/><path transform="translate(59.96683715747275,63.83474361774265)" d="M5,0A5,5,0,1,1,-5,0A5,5,0,1,1,5,0" fill="rgb(20, 142, 66)" stroke="white" stroke-width="1" opacity="1"/><path transform="translate(34.60522758221576,3.2366089397254605)" d="M5,0A5,5,0,1,1,-5,0A5,5,0,1,1,5,0" fill="rgb(255, 251, 143)" stroke="white" stroke-width="1" opacity="1"/><path transform="translate(68.17381309638174,92.39127711117582)" d="M5,0A5,5,0,1,1,-5,0A5,5,0,1,1,5,0" fill="rgb(42, 76, 67)" stroke="white" stroke-width="1" opacity="1"/><path transform="translate(86.0130657530824,21.72797295316006)" d="M5,0A5,5,0,1,1,-5,0A5,5,0,1,1,5,0" fill="rgb(214, 218, 53)" stroke="white" stroke-width="1" opacity="1"/><path transform="translate(32.72036101919789,32.42786812072583)" d="M5,0A5,5,0,1,1,-5,0A5,5,0,1,1,5,0" fill="rgb(171, 200, 60)" stroke="white" stroke-width="1" opacity="1"/><path transform="translate(55.89893273189676,56.72276662864333)" d="M5,0A5,5,0,1,1,-5,0A5,5,0,1,1,5,0" fill="rgb(64, 156, 66)" stroke="white" stroke-width="1" opacity="1"/><path transform="translate(12.485187405605714,65.87813690391029)" d="M5,0A5,5,0,1,1,-5,0A5,5,0,1,1,5,0" fill="rgb(7, 138, 66)" stroke="white" stroke-width="1" opacity="1"/><path transform="translate(26.01469310748733,38.09557613627542)" d="M5,0A5,5,0,1,1,-5,0A5,5,0,1,1,5,0" fill="rgb(147, 190, 62)" stroke="white" stroke-width="1" opacity="1"/><path transform="translate(58.110869020591515,16.37948864807447)" d="M5,0A5,5,0,1,1,-5,0A5,5,0,1,1,5,0" fill="rgb(236, 227, 48)" stroke="white" stroke-width="1" opacity="1"/><path transform="translate(62.09512849271337,24.122108717836397)" d="M5,0A5,5,0,1,1,-5,0A5,5,0,1,1,5,0" fill="rgb(204, 214, 55)" stroke="white" stroke-width="1" opacity="1"/><path transform="translate(66.36802776342827,31.60116198232582)" d="M5,0A5,5,0,1,1,-5,0A5,5,0,1,1,5,0" fill="rgb(174, 201, 60)" stroke="white" stroke-width="1" opacity="1"/><path transform="translate(36.69155684318734,35.70720622502351)" d="M5,0A5,5,0,1,1,-5,0A5,5,0,1,1,5,0" fill="rgb(157, 194, 62)" stroke="white" stroke-width="1" opacity="1"/><path transform="translate(59.23535548673199,27.323618136236394)" d="M5,0A5,5,0,1,1,-5,0A5,5,0,1,1,5,0" fill="rgb(192, 208, 57)" stroke="white" stroke-width="1" opacity="1"/></g></g><path class="foreground" aria-hidden="true" d="" display="none"/></g></g><g class="mark-group role-legend" role="graphics-symbol" aria-roledescription="legend" aria-label="Gradient legend titled 'y' for fill color with values from 0.0 to 1.0"><g transform="translate(124,0)"><path class="background" aria-hidden="true" d="M0,0h28v96h-28Z" pointer-events="none"/><g><g class="mark-group role-legend-entry"><g transform="translate(0,16)"><path class="background" aria-hidden="true" d="M0,0h0v0h0Z" pointer-events="none"/><g><g class="mark-rect role-legend-gradient" pointer-events="none"><path d="M0,0h10v80h-10Z" fill="url(#gradient_0)" stroke="#ddd" stroke-width="0" opacity="1"/></g><g class="mark-text role-legend-label" pointer-events="none"><text text-anchor="start" transform="translate(12,78)" font-family="sans-serif" font-size="10px" font-style="normal" font-weight="400" fill="#000" opacity="1">0.0</text><text text-anchor="start" transform="translate(12,8)" font-family="sans-serif" font-size="10px" font-style="normal" font-weight="400" fill="#000" opacity="1">1.0</text></g></g><path class="foreground" aria-hidden="true" d="" pointer-events="none" display="none"/></g></g><g class="mark-text role-legend-title" pointer-events="none"><text text-anchor="start" transform="translate(0,9)" font-family="sans-serif" font-size="11px" font-style="normal" font-weight="400" fill="#000" opacity="1">y</text></g></g><path class="foreground" aria-hidden="true" d="" pointer-events="none" display="none"/></g></g></g><path class="foreground" aria-hidden="true" d="" display="none"/></g></g></g><defs><linearGradient id="gradient_0" x1="0" x2="0" y1="1" y2="0"><stop offset="0" stop-color="rgb(58, 58, 58)"/><stop offset="0.04260897853187697" stop-color="rgb(48, 69, 63)"/><stop offset="0.09348009664743155" stop-color="rgb(37, 82, 70)"/><stop offset="0.14435121476298612" stop-color="rgb(23, 94, 73)"/><stop offset="0.1952223328785407" stop-color="rgb(8, 105, 76)"/><stop offset="0.24609345099409527" stop-color="rgb(1, 117, 75)"/><stop offset="0.29696456910964986" stop-color="rgb(3, 128, 70)"/><stop offset="0.3478356872252044" stop-color="rgb(13, 140, 66)"/><stop offset="0.39870680534075903" stop-color="rgb(44, 149, 66)"/><stop offset="0.4495779234563136" stop-color="rgb(74, 159, 66)"/><stop offset="0.5004490415718682" stop-color="rgb(95, 169, 65)"/><stop offset="0.5513201596874228" stop-color="rgb(116, 178, 64)"/><stop offset="0.6021912778029773" stop-color="rgb(138, 187, 63)"/><stop offset="0.6530623959185319" stop-color="rgb(160, 196, 61)"/><stop offset="0.7039335140340864" stop-color="rgb(181, 204, 59)"/><stop offset="0.7548046321496411" stop-color="rgb(201, 212, 55)"/><stop offset="0.8056757502651957" stop-color="rgb(221, 221, 51)"/><stop offset="0.8565468683807502" stop-color="rgb(242, 229, 47)"/><stop offset="0.9074179864963048" stop-color="rgb(255, 238, 65)"/><stop offset="0.9582891046118593" stop-color="rgb(255, 247, 123)"/><stop offset="1" stop-color="rgb(255, 255, 170)"/></linearGradient></defs></svg>