<svg xmlns="http://www.w3.org/2000/svg" xmlns:xlink="http://www.w3.org/1999/xlink" version="1.1" class="marks" width="146" height="137" viewBox="0 0 146 137"><rect width="146" height="137" fill="white"/><g fill="none" stroke-miterlimit="10" transform="translate(38,5)"><g class="mark-group role-frame root" role="graphics-object" aria-roledescription="group mark container"><g transform="translate(0,0)"><path class="background" aria-hidden="true" d="M0,0h100v100h-100Z"/><g><g class="mark-group role-axis" role="graphics-symbol" aria-roledescription="axis" aria-label="X-axis titled 'x' for a linear scale with values from 0.0 to 1.0"><g transform="translate(0.5,100.5)"><path class="background" aria-hidden="true" d="M0,0h0v0h0Z" pointer-events="none"/><g><g class="mark-rule role-axis-tick" pointer-events="none"><line transform="translate(0,0)" x2="0" y2="5" stroke="black" stroke-width="1.01" opacity="1"/><line transform="translate(50,0)" x2="0" y2="5" stroke="black" stroke-width="1.01" opacity="1"/><line transform="translate(100,0)" x2="0" y2="5" stroke="black" stroke-width="1.01" opacity="1"/></g><g class="mark-text role-axis-label" pointer-events="none"><text text-anchor="middle" transform="translate(0,15)" font-family="sans-serif" font-size="10px" font-style="normal" font-weight="400" fill="black" opacity="1">0.0</text><text text-anchor="middle" transform="translate(50,15)" font-family="sans-serif" font-size="10px" font-style="normal" font-weight="400" fill="black" opacity="1">0.5</text><text text-anchor="middle" transform="translate(100,15)" font-family="sans-serif" font-size="10px" font-style="normal" font-weight="400" fill="black" opacity="1">1.0</text></g><g class="mark-rule role-axis-domain" pointer-events="none"><line transform="translate(0,0)" x2="100" y2="0" stroke="black" stroke-width="1.01" opacity="1"/></g><g class="mark-text role-axis-title" pointer-events="none"><text text-anchor="middle" transform="translate(50,30)" font-family="sans-serif" font-size="11px" font-style="normal" font-weight="400" fill="black" opacity="1">x</text></g></g><path class="foreground" aria-hidden="true" d="" pointer-events="none" display="none"/></g></g><g class="mark-group role-axis" role="graphics-symbol" aria-roledescription="axis" aria-label="Y-axis titled 'y' for a linear scale with values from 0.0 to 1.0"><g transform="translate(0.5,0.5)"><path class="background" aria-hidden="true" d="M0,0h0v0h0Z" pointer-events="none"/><g><g class="mark-rule role-axis-tick" pointer-events="none"><line transform="translate(0,100)" x2="-5" y2="0" stroke="black" stroke-width="1.01" opacity="1"/><line transform="translate(0,50)" x2="-5" y2="0" stroke="black" stroke-width="1.01" opacity="1"/><line transform="translate(0,0)" x2="-5" y2="0" stroke="black" stroke-width="1.01" opacity="1"/></g><g class="mark-text role-axis-label" pointer-events="none"><text text-anchor="end" transform="translate(-7,103)" font-family="sans-serif" font-size="10px" font-style="normal" font-weight="400" fill="black" opacity="1">0.0</text><text text-anchor="end" transform="translate(-7,53)" font-family="sans-serif" font-size="10px" font-style="normal" font-weight="400" fill="black" opacity="1">0.5</text><text text-anchor="end" transform="translate(-7,3)" font-family="sans-serif" font-size="10px" font-style="normal" font-weight="400" fill="black" opacity="1">1.0</text></g><g class="mark-rule role-axis-domain" pointer-events="none"><line transform="translate(0,100)" x2="0" y2="-100" stroke="black" stroke-width="1.01" opacity="1"/></g><g class="mark-text role-axis-title" pointer-events="none"><text text-anchor="middle" transform="translate(-26.9033203125,50) rotate(-90) translate(0,-2)" font-family="sans-serif" font-size="11px" font-style="normal" font-weight="400" fill="black" opacity="1">y</text></g></g><path class="foreground" aria-hidden="true" d="" pointer-events="none" display="none"/></g></g><g class="mark-group role-scope" clip-path="url(#clip1)" role="graphics-object" aria-roledescription="group mark container"><g transform="translate(0,0)"><path class="background" aria-hidden="true" d="M0,0h0v0h0Z"/><g><g class="mark-symbol role-mark points" role="graphics-symbol" aria-roledescription="symbol mark container"><path transform="translate(4.298871613924094,48.31147303671034)" d="M3.536,0A3.536,3.536,0,1,1,-3.536,0A3.536,3.536,0,1,1,3.536,0" fill="white" stroke="steelblue" stroke-width="1" opacity="1"/><path transform="translate(24.421456388993988,51.66354696944649)" d="M3.536,0A3.536,3.536,0,1,1,-3.536,0A3.536,3.536,0,1,1,3.536,0" fill="white" stroke="steelblue" stroke-width="1" opacity="1"/><path transform="translate(7.907727518209951,83.01801652976751)" d="M3.536,0A3.536,3.536,0,1,1,-3.536,0A3.536,3.536,0,1,1,3.536,0" fill="white" stroke="steelblue" stroke-width="1" opacity="1"/><path transform="translate(66.96454591757427,33.536058544161605)" d="M3.536,0A3.536,3.536,0,1,1,-3.536,0A3.536,3.536,0,1,1,3.536,0" fill="white" stroke="steelblue" stroke-width="1" opacity="1"/><path transform="translate(57.82991817348652,40.55270476752702)" d="M3.536,0A3.536,3.536,0,1,1,-3.536,0A3.536,3.536,0,1,1,3.536,0" fill="white" stroke="steelblue" stroke-width="1" opacity="1"/><path transform="translate(81.11889603724835,24.363336392221736)" d="M3.536,0A3.536,3.536,0,1,1,-3.536,0A3.536,3.536,0,1,1,3.536,0" fill="white" stroke="steelblue" stroke-width="1" opacity="1"/><path transform="translate(64.66611841592459,3.0493358708951757)" d="M3.536,0A3.536,3.536,0,1,1,-3.536,0A3.536,3.536,0,1,1,3.536,0" fill="white" stroke="steelblue" stroke-width="1" opacity="1"/><path transform="translate(32.229001758649915,63.57007091814164)" d="M3.536,0A3.536,3.536,0,1,1,-3.536,0A3.536,3.536,0,1,1,3.536,0" fill="white" stroke="steelblue" stroke-width="1" opacity="1"/><path transform="translate(6.4395898400140705,46.58688470906374)" d="M3.536,0A3.536,3.536,0,1,1,-3.536,0A3.536,3.536,0,1,1,3.536,0" fill="white" stroke="steelblue" stroke-width="1" opacity="1"/><path transform="translate(28.16648577425728,93.60601231191038)" d="M3.536,0A3.536,3.536,0,1,1,-3.536,0A3.536,3.536,0,1,1,3.536,0" fill="white" stroke="steelblue" stroke-width="1" opacity="1"/><path transform="translate(84.41823866715052,49.077078232384075)" d="M3.536,0A3.536,3.536,0,1,1,-3.536,0A3.536,3.536,0,1,1,3.536,0" fill="white" stroke="steelblue" stroke-width="1" opacity="1"/><path transform="translate(41.07513961864237,75.39712319877412)" d="M3.536,0A3.536,3.536,0,1,1,-3.536,0A3.536,3.536,0,1,1,3.536,0" fill="white" stroke="steelblue" stroke-width="1" opacity="1"/><path transform="translate(88.37019640519853,55.02646193666948)" d="M3.536,0A3.536,3.536,0,1,1,-3.536,0A3.536,3.536,0,1,1,3.536,0" fill="white" stroke="steelblue" stroke-width="1" opacity="1"/><path transform="translate(95.45748072984277,75.78929816633368)" d="M3.536,0A3.536,3.536,0,1,1,-3.536,0A3.536,3.536,0,1,1,3.536,0" fill="white" stroke="steelblue" stroke-width="1" opacity="1"/><path transform="translate(3.7427692542651325,65.00676888468914)" d="M3.536,0A3.536,3.536,0,1,1,-3.536,0A3.536,3.536,0,1,1,3.536,0" fill="white" stroke="steelblue" stroke-width="1" opacity="1"/><path transform="translate(14.252815040786581,48.2744028010165)" d="M3.536,0A3.536,3.536,0,1,1,-3.536,0A3.536,3.536,0,1,1,3.536,0" fill="white" stroke="steelblue" stroke-width="1" opacity="1"/><path transform="translate(53.31506752408153,4.10083204802183)" d="M3.536,0A3.536,3.536,0,1,1,-3.536,0A3.536,3.536,0,1,1,3.536,0" fill="white" stroke="steelblue" stroke-width="1" opacity="1"/><path transform="translate(74.62192930534732,7.421631630134629)" d="M3.536,0A3.536,3.536,0,1,1,-3.536,0A3.536,3.536,0,1,1,3.536,0" fill="white" stroke="steelblue" stroke-width="1" opacity="1"/><path transform="translate(14.34456391005896,7.577897589772897)" d="M3.536,0A3.536,3.536,0,1,1,-3.536,0A3.536,3.536,0,1,1,3.536,0" fill="white" stroke="steelblue" stroke-width="1" opacity="1"/><path transform="translate(81.60033327088865,89.34995059727393)" d="M3.536,0A3.536,3.536,0,1,1,-3.536,0A3.536,3.536,0,1,1,3.536,0" fill="white" stroke="steelblue" stroke-width="1" opacity="1"/><path transform="translate(95.0007237141426,17.54774358447242)" d="M3.536,0A3.536,3.536,0,1,1,-3.536,0A3.536,3.536,0,1,1,3.536,0" fill="white" stroke="steelblue" stroke-width="1" opacity="1"/><path transform="translate(39.23085910973194,10.840728827835633)" d="M3.536,0A3.536,3.536,0,1,1,-3.536,0A3.536,3.536,0,1,1,3.536,0" fill="white" stroke="steelblue" stroke-width="1" opacity="1"/><path transform="translate(98.18664723412208,67.47756154471594)" d="M3.536,0A3.536,3.536,0,1,1,-3.536,0A3.536,3.536,0,1,1,3.536,0" fill="white" stroke="steelblue" stroke-width="1" opacity="1"/><path transform="translate(97.42841746220451,53.30431752617254)" d="M3.536,0A3.536,3.536,0,1,1,-3.536,0A3.536,3.536,0,1,1,3.536,0" fill="white" stroke="steelblue" stroke-width="1" opacity="1"/><path transform="translate(58.55584957273041,42.92747840968577)" d="M3.536,0A3.536,3.536,0,1,1,-3.536,0A3.536,3.536,0,1,1,3.536,0" fill="white" stroke="steelblue" stroke-width="1" opacity="1"/><path transform="translate(41.76334719054853,49.711792075620885)" d="M3.536,0A3.536,3.536,0,1,1,-3.536,0A3.536,3.536,0,1,1,3.536,0" fill="white" stroke="steelblue" stroke-width="1" opacity="1"/><path transform="translate(49.033263870145326,26.52741532227495)" d="M3.536,0A3.536,3.536,0,1,1,-3.536,0A3.536,3.536,0,1,1,3.536,0" fill="white" stroke="steelblue" stroke-width="1" opacity="1"/><path transform="translate(97.57331815216301,5.427312544369533)" d="M3.536,0A3.536,3.536,0,1,1,-3.536,0A3.536,3.536,0,1,1,3.536,0" fill="white" stroke="steelblue" stroke-width="1" opacity="1"/><path transform="translate(52.03958003219251,15.783691202629214)" d="M3.536,0A3.536,3.536,0,1,1,-3.536,0A3.536,3.536,0,1,1,3.536,0" fill="white" stroke="steelblue" stroke-width="1" opacity="1"/><path transform="translate(24.20918640461589,57.45600767793743)" d="M3.536,0A3.536,3.536,0,1,1,-3.536,0A3.536,3.536,0,1,1,3.536,0" fill="white" stroke="steelblue" stroke-width="1" opacity="1"/><path transform="translate(12.124912698001655,2.226201249595827)" d="M3.536,0A3.536,3.536,0,1,1,-3.536,0A3.536,3.536,0,1,1,3.536,0" fill="white" stroke="steelblue" stroke-width="1" opacity="1"/><path transform="translate(72.79294494126725,90.93456544598723)" d="M3.536,0A3.536,3.536,0,1,1,-3.536,0A3.536,3.536,0,1,1,3.536,0" fill="white" stroke="steelblue" stroke-width="1" opacity="1"/><path transform="translate(92.21749325315527,12.147595328207949)" d="M3.536,0A3.536,3.536,0,1,1,-3.536,0A3.536,3.536,0,1,1,3.536,0" fill="white" stroke="steelblue" stroke-width="1" opacity="1"/><path transform="translate(23.73902686336392,56.185527462576076)" d="M3.536,0A3.536,3.536,0,1,1,-3.536,0A3.536,3.536,0,1,1,3.536,0" fill="white" stroke="steelblue" stroke-width="1" opacity="1"/><path transform="translate(68.9667588378858,31.976826748818755)" d="M3.536,0A3.536,3.536,0,1,1,-3.536,0A3.536,3.536,0,1,1,3.536,0" fill="white" stroke="steelblue" stroke-width="1" opacity="1"/><path transform="translate(52.467185476213054,84.37144477128422)" d="M3.536,0A3.536,3.536,0,1,1,-3.536,0A3.536,3.536,0,1,1,3.536,0" fill="white" stroke="steelblue" stroke-width="1" opacity="1"/><path transform="translate(90.88383739509479,83.82061367452813)" d="M3.536,0A3.536,3.536,0,1,1,-3.536,0A3.536,3.536,0,1,1,3.536,0" fill="white" stroke="steelblue" stroke-width="1" opacity="1"/><path transform="translate(70.25562606116912,40.20165729064005)" d="M3.536,0A3.536,3.536,0,1,1,-3.536,0A3.536,3.536,0,1,1,3.536,0" fill="white" stroke="steelblue" stroke-width="1" opacity="1"/><path transform="translate(52.13472913492462,84.0218379467325)" d="M3.536,0A3.536,3.536,0,1,1,-3.536,0A3.536,3.536,0,1,1,3.536,0" fill="white" stroke="steelblue" stroke-width="1" opacity="1"/><path transform="translate(42.38455825845637,66.50055030956484)" d="M3.536,0A3.536,3.536,0,1,1,-3.536,0A3.536,3.536,0,1,1,3.536,0" fill="white" stroke="steelblue" stroke-width="1" opacity="1"/><path transform="translate(88.5884393989551,19.805016965517453)" d="M3.536,0A3.536,3.536,0,1,1,-3.536,0A3.536,3.536,0,1,1,3.536,0" fill="white" stroke="steelblue" stroke-width="1" opacity="1"/><path transform="translate(40.13288670022571,27.70485374206394)" d="M3.536,0A3.536,3.536,0,1,1,-3.536,0A3.536,3.536,0,1,1,3.536,0" fill="white" stroke="steelblue" stroke-width="1" opacity="1"/><path transform="translate(45.47160147867697,9.38103214108369)" d="M3.536,0A3.536,3.536,0,1,1,-3.536,0A3.536,3.536,0,1,1,3.536,0" fill="white" stroke="steelblue" stroke-width="1" opacity="1"/><path transform="translate(70.6763794904813,58.950828469267414)" d="M3.536,0A3.536,3.536,0,1,1,-3.536,0A3.536,3.536,0,1,1,3.536,0" fill="white" stroke="steelblue" stroke-width="1" opacity="1"/><path transform="translate(21.908258747339048,73.51286092933258)" d="M3.536,0A3.536,3.536,0,1,1,-3.536,0A3.536,3.536,0,1,1,3.536,0" fill="white" stroke="steelblue" stroke-width="1" opacity="1"/><path transform="translate(67.89888121042857,28.451507861937454)" d="M3.536,0A3.536,3.536,0,1,1,-3.536,0A3.536,3.536,0,1,1,3.536,0" fill="white" stroke="steelblue" stroke-width="1" opacity="1"/><path transform="translate(4.043749724438783,17.93692564237238)" d="M3.536,0A3.536,3.536,0,1,1,-3.536,0A3.536,3.536,0,1,1,3.536,0" fill="white" stroke="steelblue" stroke-width="1" opacity="1"/><path transform="translate(82.01984084354778,12.812349602499085)" d="M3.536,0A3.536,3.536,0,1,1,-3.536,0A3.536,3.536,0,1,1,3.536,0" fill="white" stroke="steelblue" stroke-width="1" opacity="1"/><path transform="translate(81.51633400778032,12.383394735625842)" d="M3.536,0A3.536,3.536,0,1,1,-3.536,0A3.536,3.536,0,1,1,3.536,0" fill="white" stroke="steelblue" stroke-width="1" opacity="1"/><path transform="translate(33.68031869310409,87.28198244098382)" d="M3.536,0A3.536,3.536,0,1,1,-3.536,0A3.536,3.536,0,1,1,3.536,0" fill="white" stroke="steelblue" stroke-width="1" opacity="1"/><path transform="translate(6.003460962257934,93.23684795452004)" d="M3.536,0A3.536,3.536,0,1,1,-3.536,0A3.536,3.536,0,1,1,3.536,0" fill="white" stroke="steelblue" stroke-width="1" opacity="1"/><path transform="translate(67.03067618320702,48.90168346770105)" d="M3.536,0A3.536,3.536,0,1,1,-3.536,0A3.536,3.536,0,1,1,3.536,0" fill="white" stroke="steelblue" stroke-width="1" opacity="1"/><path transform="translate(72.0424708788714,79.01599668493999)" d="M3.536,0A3.536,3.536,0,1,1,-3.536,0A3.536,3.536,0,1,1,3.536,0" fill="white" stroke="steelblue" stroke-width="1" opacity="1"/><path transform="translate(3.0984467099189783,16.17318729810606)" d="M3.536,0A3.536,3.536,0,1,1,-3.536,0A3.536,3.536,0,1,1,3.536,0" fill="white" stroke="steelblue" stroke-width="1" opacity="1"/><path transform="translate(41.13646137734088,71.42391039177495)" d="M3.536,0A3.536,3.536,0,1,1,-3.536,0A3.536,3.536,0,1,1,3.536,0" fill="white" stroke="steelblue" stroke-width="1" opacity="1"/><path transform="translate(18.56000503538866,81.11160435455331)" d="M3.536,0A3.536,3.536,0,1,1,-3.536,0A3.536,3.536,0,1,1,3.536,0" fill="white" stroke="steelblue" stroke-width="1" opacity="1"/><path transform="translate(22.219440486996888,11.56729251825752)" d="M3.536,0A3.536,3.536,0,1,1,-3.536,0A3.536,3.536,0,1,1,3.536,0" fill="white" stroke="steelblue" stroke-width="1" opacity="1"/><path transform="translate(47.34324767650806,66.10886798424025)" d="M3.536,0A3.536,3.536,0,1,1,-3.536,0A3.536,3.536,0,1,1,3.536,0" fill="white" stroke="steelblue" stroke-width="1" opacity="1"/><path transform="translate(20.559174433536143,14.777680428466578)" d="M3.536,0A3.536,3.536,0,1,1,-3.536,0A3.536,3.536,0,1,1,3.536,0" fill="white" stroke="steelblue" stroke-width="1" opacity="1"/><path transform="translate(0.9810495415818132,55.44683523862651)" d="M3.536,0A3.536,3.536,0,1,1,-3.536,0A3.536,3.536,0,1,1,3.536,0" fill="white" stroke="steelblue" stroke-width="1" opacity="1"/><path transform="translate(50.41690634435182,29.41997751583073)" d="M3.536,0A3.536,3.536,0,1,1,-3.536,0A3.536,3.536,0,1,1,3.536,0" fill="white" stroke="steelblue" stroke-width="1" opacity="1"/><path transform="translate(90.33164076515264,42.210725250711576)" d="M3.536,0A3.536,3.536,0,1,1,-3.536,0A3.536,3.536,0,1,1,3.536,0" fill="white" stroke="steelblue" stroke-width="1" opacity="1"/><path transform="translate(41.530481011970565,97.85846665716146)" d="M3.536,0A3.536,3.536,0,1,1,-3.536,0A3.536,3.536,0,1,1,3.536,0" fill="white" stroke="steelblue" stroke-width="1" opacity="1"/><path transform="translate(72.11880366126579,95.98629200527822)" d="M3.536,0A3.536,3.536,0,1,1,-3.536,0A3.536,3.536,0,1,1,3.536,0" fill="white" stroke="steelblue" stroke-width="1" opacity="1"/><path transform="translate(54.70719256802994,39.39801206381658)" d="M3.536,0A3.536,3.536,0,1,1,-3.536,0A3.536,3.536,0,1,1,3.536,0" fill="white" stroke="steelblue" stroke-width="1" opacity="1"/><path transform="translate(22.71221818474718,75.40993978350363)" d="M3.536,0A3.536,3.536,0,1,1,-3.536,0A3.536,3.536,0,1,1,3.536,0" fill="white" stroke="steelblue" stroke-width="1" opacity="1"/><path transform="translate(53.51550759094235,25.888159290610226)" d="M3.536,0A3.536,3.536,0,1,1,-3.536,0A3.536,3.536,0,1,1,3.536,0" fill="white" stroke="steelblue" stroke-width="1" opacity="1"/><path transform="translate(16.200954791292975,42.988441147657184)" d="M3.536,0A3.536,3.536,0,1,1,-3.536,0A3.536,3.536,0,1,1,3.536,0" fill="white" stroke="steelblue" stroke-width="1" opacity="1"/><path transform="translate(53.71035473205457,86.89101275719857)" d="M3.536,0A3.536,3.536,0,1,1,-3.536,0A3.536,3.536,0,1,1,3.536,0" fill="white" stroke="steelblue" stroke-width="1" opacity="1"/><path transform="translate(35.542310745906434,78.77945379026697)" d="M3.536,0A3.536,3.536,0,1,1,-3.536,0A3.536,3.536,0,1,1,3.536,0" fill="white" stroke="steelblue" stroke-width="1" opacity="1"/><path transform="translate(62.997921903389944,58.52604307171878)" d="M3.536,0A3.536,3.536,0,1,1,-3.536,0A3.536,3.536,0,1,1,3.536,0" fill="white" stroke="steelblue" stroke-width="1" opacity="1"/><path transform="translate(35.66024832702009,82.12635563660695)" d="M3.536,0A3.536,3.536,0,1,1,-3.536,0A3.536,3.536,0,1,1,3.536,0" fill="white" stroke="steelblue" stroke-width="1" opacity="1"/><path transform="translate(3.8604692238385807,58.96560940847506)" d="M3.536,0A3.536,3.536,0,1,1,-3.536,0A3.536,3.536,0,1,1,3.536,0" fill="white" stroke="steelblue" stroke-width="1" opacity="1"/><path transform="translate(77.00992417370661,47.071259674865814)" d="M3.536,0A3.536,3.536,0,1,1,-3.536,0A3.536,3.536,0,1,1,3.536,0" fill="white" stroke="steelblue" stroke-width="1" opacity="1"/><path transform="translate(57.799370684320614,66.06154273878757)" d="M3.536,0A3.536,3.536,0,1,1,-3.536,0A3.536,3.536,0,1,1,3.536,0" fill="white" stroke="steelblue" stroke-width="1" opacity="1"/><path transform="translate(5.337127841924039,13.820188809140754)" d="M3.536,0A3.536,3.536,0,1,1,-3.536,0A3.536,3.536,0,1,1,3.536,0" fill="white" stroke="steelblue" stroke-width="1" opacity="1"/><path transform="translate(95.37196999367579,40.30218314846352)" d="M3.536,0A3.536,3.536,0,1,1,-3.536,0A3.536,3.536,0,1,1,3.536,0" fill="white" stroke="steelblue" stroke-width="1" opacity="1"/><path transform="translate(30.778462862224963,79.42755032608144)" d="M3.536,0A3.536,3.536,0,1,1,-3.536,0A3.536,3.536,0,1,1,3.536,0" fill="white" stroke="steelblue" stroke-width="1" opacity="1"/><path transform="translate(95.75549582841737,82.382903996414)" d="M3.536,0A3.536,3.536,0,1,1,-3.536,0A3.536,3.536,0,1,1,3.536,0" fill="white" stroke="steelblue" stroke-width="1" opacity="1"/><path transform="translate(99.93167074353356,45.33870919777902)" d="M3.536,0A3.536,3.536,0,1,1,-3.536,0A3.536,3.536,0,1,1,3.536,0" fill="white" stroke="steelblue" stroke-width="1" opacity="1"/><path transform="translate(9.325621580261856,26.619273132660926)" d="M3.536,0A3.536,3.536,0,1,1,-3.536,0A3.536,3.536,0,1,1,3.536,0" fill="white" stroke="steelblue" stroke-width="1" opacity="1"/><path transform="translate(79.89127866257809,20.187179807162302)" d="M3.536,0A3.536,3.536,0,1,1,-3.536,0A3.536,3.536,0,1,1,3.536,0" fill="white" stroke="steelblue" stroke-width="1" opacity="1"/><path transform="translate(41.00035530299859,6.3082580511158675)" d="M3.536,0A3.536,3.536,0,1,1,-3.536,0A3.536,3.536,0,1,1,3.536,0" fill="white" stroke="steelblue" stroke-width="1" opacity="1"/><path transform="translate(24.074054271928034,16.258722154379246)" d="M3.536,0A3.536,3.536,0,1,1,-3.536,0A3.536,3.536,0,1,1,3.536,0" fill="white" stroke="steelblue" stroke-width="1" opacity="1"/><path transform="translate(71.84991475644479,7.651925101230727)" d="M3.536,0A3.536,3.536,0,1,1,-3.536,0A3.536,3.536,0,1,1,3.536,0" fill="white" stroke="steelblue" stroke-width="1" opacity="1"/><path transform="translate(58.29446670644213,47.016794379390646)" d="M3.536,0A3.536,3.536,0,1,1,-3.536,0A3.536,3.536,0,1,1,3.536,0" fill="white" stroke="steelblue" stroke-width="1" opacity="1"/><path transform="translate(14.00414411397406,71.65626273752314)" d="M3.536,0A3.536,3.536,0,1,1,-3.536,0A3.536,3.536,0,1,1,3.536,0" fill="white" stroke="steelblue" stroke-width="1" opacity="1"/><path transform="translate(71.29969994541985,49.46749486442721)" d="M3.536,0A3.536,3.536,0,1,1,-3.536,0A3.536,3.536,0,1,1,3.536,0" fill="white" stroke="steelblue" stroke-width="1" opacity="1"/><path transform="translate(84.27440911291653,65.71244901723645)" d="M3.536,0A3.536,3.536,0,1,1,-3.536,0A3.536,3.536,0,1,1,3.536,0" fill="white" stroke="steelblue" stroke-width="1" opacity="1"/><path transform="translate(66.29591522079316,1.7488082206292055)" d="M3.536,0A3.536,3.536,0,1,1,-3.536,0A3.536,3.536,0,1,1,3.536,0" fill="white" stroke="steelblue" stroke-width="1" opacity="1"/><path transform="translate(90.76978219469746,59.46895889434354)" d="M3.536,0A3.536,3.536,0,1,1,-3.536,0A3.536,3.536,0,1,1,3.536,0" fill="white" stroke="steelblue" stroke-width="1" opacity="1"/><path transform="translate(46.88710433323781,75.80253143050439)" d="M3.536,0A3.536,3.536,0,1,1,-3.536,0A3.536,3.536,0,1,1,3.536,0" fill="white" stroke="steelblue" stroke-width="1" opacity="1"/><path transform="translate(66.67076030873044,45.32092350788951)" d="M3.536,0A3.536,3.536,0,1,1,-3.536,0A3.536,3.536,0,1,1,3.536,0" fill="white" stroke="steelblue" stroke-width="1" opacity="1"/><path transform="translate(87.75896927878787,97.99490958038477)" d="M3.536,0A3.536,3.536,0,1,1,-3.536,0A3.536,3.536,0,1,1,3.536,0" fill="white" stroke="steelblue" stroke-width="1" opacity="1"/><path transform="translate(34.63357836226273,85.90591348254947)" d="M3.536,0A3.536,3.536,0,1,1,-3.536,0A3.536,3.536,0,1,1,3.536,0" fill="white" stroke="steelblue" stroke-width="1" opacity="1"/><path transform="translate(58.9326742568553,31.69616877707021)" d="M3.536,0A3.536,3.536,0,1,1,-3.536,0A3.536,3.536,0,1,1,3.536,0" fill="white" stroke="steelblue" stroke-width="1" opacity="1"/><path transform="translate(39.49267879079864,54.86157721995887)" d="M3.536,0A3.536,3.536,0,1,1,-3.536,0A3.536,3.536,0,1,1,3.536,0" fill="white" stroke="steelblue" stroke-width="1" opacity="1"/><path transform="translate(13.996322257906135,9.73335590163098)" d="M3.536,0A3.536,3.536,0,1,1,-3.536,0A3.536,3.536,0,1,1,3.536,0" fill="white" stroke="steelblue" stroke-width="1" opacity="1"/><path transform="translate(68.0730152618044,26.793276820822477)" d="M3.536,0A3.536,3.536,0,1,1,-3.536,0A3.536,3.536,0,1,1,3.536,0" fill="white" stroke="steelblue" stroke-width="1" opacity="1"/><path transform="translate(26.35798156661857,88.27685660073176)" d="M3.536,0A3.536,3.536,0,1,1,-3.536,0A3.536,3.536,0,1,1,3.536,0" fill="white" stroke="steelblue" stroke-width="1" opacity="1"/></g></g><path class="foreground" aria-hidden="true" d="" display="none"/></g></g></g><path class="foreground" aria-hidden="true" d="" display="none"/></g></g></g><defs><clipPath id="clip1"><rect x="0" y="0" width="100" height="100"/></clipPath></defs></svg>