<svg xmlns="http://www.w3.org/2000/svg" xmlns:xlink="http://www.w3.org/1999/xlink" version="1.1" class="marks" width="1046" height="493" viewBox="0 0 1046 493"><g fill="none" stroke-miterlimit="10" transform="translate(55,6)"><g class="mark-group role-frame root" role="graphics-object" aria-roledescription="group mark container"><g transform="translate(0,0)"><path class="background" aria-hidden="true" d="M0,0h0v0h0Z"/><g><g class="mark-group role-scope" role="graphics-object" aria-roledescription="group mark container"><g transform="translate(0,0)"><path class="background" aria-hidden="true" d="M0,0h0v0h0Z"/><g><g class="mark-group role-axis" role="graphics-symbol" aria-roledescription="axis" aria-label="X-axis titled 'Make' for a linear scale with values from 0.0 to 1.0"><g transform="translate(0.5,440.5)"><path class="background" aria-hidden="true" d="M0,0h0v0h0Z" pointer-events="none"/><g><g class="mark-text role-axis-title" pointer-events="none"><text text-anchor="middle" transform="translate(452.5,13)" font-family="sans-serif" font-size="11px" font-weight="bold" fill="#000" opacity="1">Make</text></g></g><path class="foreground" aria-hidden="true" d="" pointer-events="none" display="none"/></g></g><g class="mark-group role-axis" role="graphics-symbol" aria-roledescription="axis" aria-label="Y-axis titled 'Horsepower' for a linear scale with values from 0.0 to 1.0"><g transform="translate(-39.5,0.5)"><path class="background" aria-hidden="true" d="M0,0h0v0h0Z" pointer-events="none"/><g><g class="mark-text role-axis-title" pointer-events="none"><text text-anchor="middle" transform="translate(-4,200) rotate(-90) translate(0,-2)" font-family="sans-serif" font-size="11px" font-weight="bold" fill="#000" opacity="1">Horsepower</text></g></g><path class="foreground" aria-hidden="true" d="" pointer-events="none" display="none"/></g></g><g class="mark-group role-scope" role="graphics-object" aria-roledescription="group mark container"><g transform="translate(0,0)"><path class="background" aria-hidden="true" d="M0,0h15v400h-15Z" stroke="gray" stroke-width="0.1"/><g><g class="mark-group role-axis" role="graphics-symbol" aria-roledescription="axis" aria-label="X-axis titled '3' for a discrete scale with 1 value: mazda"><g transform="translate(0.5,401.5)"><path class="background" aria-hidden="true" d="M0,0h0v0h0Z" pointer-events="none"/><g><g class="mark-rule role-axis-tick" pointer-events="none"><line transform="translate(7,0)" x2="0" y2="0" stroke="#888" stroke-width="1" opacity="1"/></g><g class="mark-text role-axis-label" pointer-events="none"><text text-anchor="end" transform="translate(7,2) rotate(-90)" font-family="sans-serif" font-size="10px" fill="#000" opacity="1">mazda</text></g><g class="mark-text role-axis-title" pointer-events="none"><text text-anchor="middle" transform="translate(7.5,44.0146484375)" font-family="sans-serif" font-size="10px" font-style="normal" font-weight="400" fill="#000" opacity="1">3</text></g></g><path class="foreground" aria-hidden="true" d="" pointer-events="none" display="none"/></g></g><g class="mark-group role-axis" role="graphics-symbol" aria-roledescription="axis" aria-label="Y-axis for a linear scale with values from 0 to 200"><g transform="translate(-0.5,0.5)"><path class="background" aria-hidden="true" d="M0,0h0v0h0Z" pointer-events="none"/><g><g class="mark-rule role-axis-tick" pointer-events="none"><line transform="translate(0,400)" x2="-5" y2="0" stroke="#888" stroke-width="1" opacity="1"/><line transform="translate(0,360)" x2="-5" y2="0" stroke="#888" stroke-width="1" opacity="1"/><line transform="translate(0,320)" x2="-5" y2="0" stroke="#888" stroke-width="1" opacity="1"/><line transform="translate(0,280)" x2="-5" y2="0" stroke="#888" stroke-width="1" opacity="1"/><line transform="translate(0,240)" x2="-5" y2="0" stroke="#888" stroke-width="1" opacity="1"/><line transform="translate(0,200)" x2="-5" y2="0" stroke="#888" stroke-width="1" opacity="1"/><line transform="translate(0,160)" x2="-5" y2="0" stroke="#888" stroke-width="1" opacity="1"/><line transform="translate(0,120)" x2="-5" y2="0" stroke="#888" stroke-width="1" opacity="1"/><line transform="translate(0,80)" x2="-5" y2="0" stroke="#888" stroke-width="1" opacity="1"/><line transform="translate(0,40)" x2="-5" y2="0" stroke="#888" stroke-width="1" opacity="1"/><line transform="translate(0,0)" x2="-5" y2="0" stroke="#888" stroke-width="1" opacity="1"/></g><g class="mark-text role-axis-label" pointer-events="none"><text text-anchor="end" transform="translate(-7,403)" font-family="sans-serif" font-size="10px" fill="#000" opacity="1">0</text><text text-anchor="end" transform="translate(-7,363)" font-family="sans-serif" font-size="10px" fill="#000" opacity="1">20</text><text text-anchor="end" transform="translate(-7,323)" font-family="sans-serif" font-size="10px" fill="#000" opacity="1">40</text><text text-anchor="end" transform="translate(-7,283)" font-family="sans-serif" font-size="10px" fill="#000" opacity="1">60</text><text text-anchor="end" transform="translate(-7,243)" font-family="sans-serif" font-size="10px" fill="#000" opacity="1">80</text><text text-anchor="end" transform="translate(-7,203)" font-family="sans-serif" font-size="10px" fill="#000" opacity="1">100</text><text text-anchor="end" transform="translate(-7,163)" font-family="sans-serif" font-size="10px" fill="#000" opacity="1">120</text><text text-anchor="end" transform="translate(-7,123.00000000000001)" font-family="sans-serif" font-size="10px" fill="#000" opacity="1">140</text><text text-anchor="end" transform="translate(-7,82.99999999999999)" font-family="sans-serif" font-size="10px" fill="#000" opacity="1">160</text><text text-anchor="end" transform="translate(-7,42.99999999999999)" font-family="sans-serif" font-size="10px" fill="#000" opacity="1">180</text><text text-anchor="end" transform="translate(-7,3)" font-family="sans-serif" font-size="10px" fill="#000" opacity="1">200</text></g></g><path class="foreground" aria-hidden="true" d="" pointer-events="none" display="none"/></g></g><g class="mark-group role-scope" role="graphics-object" aria-roledescription="group mark container"><g transform="translate(0,0)"><path class="background" aria-hidden="true" d="M0,0h0v0h0Z"/><g><g class="mark-rect role-mark" role="graphics-symbol" aria-roledescription="rect mark container"><path d="M0,201.49999999999997h15v198.50000000000003h-15Z" fill="rgb(245, 126, 87)" stroke="white" stroke-width="0.5" opacity="1"/></g></g><path class="foreground" aria-hidden="true" d="" display="none"/></g></g></g><path class="foreground" aria-hidden="true" d="" display="none"/></g></g><g class="mark-group role-scope" role="graphics-object" aria-roledescription="group mark container"><g transform="translate(20,0)"><path class="background" aria-hidden="true" d="M0,0h435v400h-435Z" stroke="gray" stroke-width="0.1"/><g><g class="mark-group role-axis" role="graphics-symbol" aria-roledescription="axis" aria-label="X-axis titled '4' for a discrete scale with 29 values: mercedes-benz, mazda, vw, renault, oldsmobile, ending with saab"><g transform="translate(0.5,401.5)"><path class="background" aria-hidden="true" d="M0,0h0v0h0Z" pointer-events="none"/><g><g class="mark-rule role-axis-tick" pointer-events="none"><line transform="translate(7,0)" x2="0" y2="0" stroke="#888" stroke-width="1" opacity="1"/><line transform="translate(22,0)" x2="0" y2="0" stroke="#888" stroke-width="1" opacity="1"/><line transform="translate(37,0)" x2="0" y2="0" stroke="#888" stroke-width="1" opacity="1"/><line transform="translate(52,0)" x2="0" y2="0" stroke="#888" stroke-width="1" opacity="1"/><line transform="translate(67,0)" x2="0" y2="0" stroke="#888" stroke-width="1" opacity="1"/><line transform="translate(82,0)" x2="0" y2="0" stroke="#888" stroke-width="1" opacity="1"/><line transform="translate(97,0)" x2="0" y2="0" stroke="#888" stroke-width="1" opacity="1"/><line transform="translate(112,0)" x2="0" y2="0" stroke="#888" stroke-width="1" opacity="1"/><line transform="translate(127,0)" x2="0" y2="0" stroke="#888" stroke-width="1" opacity="1"/><line transform="translate(142,0)" x2="0" y2="0" stroke="#888" stroke-width="1" opacity="1"/><line transform="translate(157,0)" x2="0" y2="0" stroke="#888" stroke-width="1" opacity="1"/><line transform="translate(172,0)" x2="0" y2="0" stroke="#888" stroke-width="1" opacity="1"/><line transform="translate(187,0)" x2="0" y2="0" stroke="#888" stroke-width="1" opacity="1"/><line transform="translate(202,0)" x2="0" y2="0" stroke="#888" stroke-width="1" opacity="1"/><line transform="translate(217,0)" x2="0" y2="0" stroke="#888" stroke-width="1" opacity="1"/><line transform="translate(232,0)" x2="0" y2="0" stroke="#888" stroke-width="1" opacity="1"/><line transform="translate(247,0)" x2="0" y2="0" stroke="#888" stroke-width="1" opacity="1"/><line transform="translate(262,0)" x2="0" y2="0" stroke="#888" stroke-width="1" opacity="1"/><line transform="translate(277,0)" x2="0" y2="0" stroke="#888" stroke-width="1" opacity="1"/><line transform="translate(292,0)" x2="0" y2="0" stroke="#888" stroke-width="1" opacity="1"/><line transform="translate(307,0)" x2="0" y2="0" stroke="#888" stroke-width="1" opacity="1"/><line transform="translate(322,0)" x2="0" y2="0" stroke="#888" stroke-width="1" opacity="1"/><line transform="translate(337,0)" x2="0" y2="0" stroke="#888" stroke-width="1" opacity="1"/><line transform="translate(352,0)" x2="0" y2="0" stroke="#888" stroke-width="1" opacity="1"/><line transform="translate(367,0)" x2="0" y2="0" stroke="#888" stroke-width="1" opacity="1"/><line transform="translate(382,0)" x2="0" y2="0" stroke="#888" stroke-width="1" opacity="1"/><line transform="translate(397,0)" x2="0" y2="0" stroke="#888" stroke-width="1" opacity="1"/><line transform="translate(412,0)" x2="0" y2="0" stroke="#888" stroke-width="1" opacity="1"/><line transform="translate(427,0)" x2="0" y2="0" stroke="#888" stroke-width="1" opacity="1"/></g><g class="mark-text role-axis-label" pointer-events="none"><text text-anchor="end" transform="translate(7,2) rotate(-90)" font-family="sans-serif" font-size="10px" fill="#000" opacity="1">mercedes-benz</text><text text-anchor="end" transform="translate(22,2) rotate(-90)" font-family="sans-serif" font-size="10px" fill="#000" opacity="1">mazda</text><text text-anchor="end" transform="translate(37,2) rotate(-90)" font-family="sans-serif" font-size="10px" fill="#000" opacity="1">vw</text><text text-anchor="end" transform="translate(52,2) rotate(-90)" font-family="sans-serif" font-size="10px" fill="#000" opacity="1">renault</text><text text-anchor="end" transform="translate(67,2) rotate(-90)" font-family="sans-serif" font-size="10px" fill="#000" opacity="1">oldsmobile</text><text text-anchor="end" transform="translate(82,2) rotate(-90)" font-family="sans-serif" font-size="10px" fill="#000" opacity="1">mercury</text><text text-anchor="end" transform="translate(97,2) rotate(-90)" font-family="sans-serif" font-size="10px" fill="#000" opacity="1">peugeot</text><text text-anchor="end" transform="translate(112,2) rotate(-90)" font-family="sans-serif" font-size="10px" fill="#000" opacity="1">triumph</text><text text-anchor="end" transform="translate(127,2) rotate(-90)" font-family="sans-serif" font-size="10px" fill="#000" opacity="1">nissan</text><text text-anchor="end" transform="translate(142,2) rotate(-90)" font-family="sans-serif" font-size="10px" fill="#000" opacity="1">chevrolet</text><text text-anchor="end" transform="translate(157,2) rotate(-90)" font-family="sans-serif" font-size="10px" fill="#000" opacity="1">opel</text><text text-anchor="end" transform="translate(172,2) rotate(-90)" font-family="sans-serif" font-size="10px" fill="#000" opacity="1">fiat</text><text text-anchor="end" transform="translate(187,2) rotate(-90)" font-family="sans-serif" font-size="10px" fill="#000" opacity="1">pontiac</text><text text-anchor="end" transform="translate(202,2) rotate(-90)" font-family="sans-serif" font-size="10px" fill="#000" opacity="1">buick</text><text text-anchor="end" transform="translate(217,2) rotate(-90)" font-family="sans-serif" font-size="10px" fill="#000" opacity="1">amc</text><text text-anchor="end" transform="translate(232,2) rotate(-90)" font-family="sans-serif" font-size="10px" fill="#000" opacity="1">ford</text><text text-anchor="end" transform="translate(247,2) rotate(-90)" font-family="sans-serif" font-size="10px" fill="#000" opacity="1">capri</text><text text-anchor="end" transform="translate(262,2) rotate(-90)" font-family="sans-serif" font-size="10px" fill="#000" opacity="1">chrysler</text><text text-anchor="end" transform="translate(277,2) rotate(-90)" font-family="sans-serif" font-size="10px" fill="#000" opacity="1">subaru</text><text text-anchor="end" transform="translate(292,2) rotate(-90)" font-family="sans-serif" font-size="10px" fill="#000" opacity="1">audi</text><text text-anchor="end" transform="translate(307,2) rotate(-90)" font-family="sans-serif" font-size="10px" fill="#000" opacity="1">toyota</text><text text-anchor="end" transform="translate(322,2) rotate(-90)" font-family="sans-serif" font-size="10px" fill="#000" opacity="1">honda</text><text text-anchor="end" transform="translate(337,2) rotate(-90)" font-family="sans-serif" font-size="10px" fill="#000" opacity="1">datsun</text><text text-anchor="end" transform="translate(352,2) rotate(-90)" font-family="sans-serif" font-size="10px" fill="#000" opacity="1">plymouth</text><text text-anchor="end" transform="translate(367,2) rotate(-90)" font-family="sans-serif" font-size="10px" fill="#000" opacity="1">dodge</text><text text-anchor="end" transform="translate(382,2) rotate(-90)" font-family="sans-serif" font-size="10px" fill="#000" opacity="1">volvo</text><text text-anchor="end" transform="translate(397,2) rotate(-90)" font-family="sans-serif" font-size="10px" fill="#000" opacity="1">bmw</text><text text-anchor="end" transform="translate(412,2) rotate(-90)" font-family="sans-serif" font-size="10px" fill="#000" opacity="1">citroen</text><text text-anchor="end" transform="translate(427,2) rotate(-90)" font-family="sans-serif" font-size="10px" fill="#000" opacity="1">saab</text></g><g class="mark-text role-axis-title" pointer-events="none"><text text-anchor="middle" transform="translate(217.5,82.9208984375)" font-family="sans-serif" font-size="10px" font-style="normal" font-weight="400" fill="#000" opacity="1">4</text></g></g><path class="foreground" aria-hidden="true" d="" pointer-events="none" display="none"/></g></g><g class="mark-group role-axis"><g transform="translate(-0.5,0.5)"><path class="background" aria-hidden="true" d="M0,0h0v0h0Z" pointer-events="none"/><g/><path class="foreground" aria-hidden="true" d="" pointer-events="none" display="none"/></g></g><g class="mark-group role-scope" role="graphics-object" aria-roledescription="group mark container"><g transform="translate(0,0)"><path class="background" aria-hidden="true" d="M0,0h0v0h0Z"/><g><g class="mark-rect role-mark" role="graphics-symbol" aria-roledescription="rect mark container"><path d="M0,266h15v134h-15Z" fill="rgb(153, 213, 148)" stroke="white" stroke-width="0.5" opacity="1"/><path d="M15,266.25h15v133.75h-15Z" fill="rgb(244, 232, 144)" stroke="white" stroke-width="0.5" opacity="1"/><path d="M30,273.1304347826087h15v126.86956521739131h-15Z" fill="rgb(244, 232, 144)" stroke="white" stroke-width="0.5" opacity="1"/><path d="M45,260h15v140h-15Z" fill="rgb(249, 228, 142)" stroke="white" stroke-width="0.5" opacity="1"/><path d="M60,229.99999999999997h15v170.00000000000003h-15Z" fill="rgb(244, 233, 145)" stroke="white" stroke-width="0.5" opacity="1"/><path d="M75,244h15v156h-15Z" fill="rgb(253, 199, 124)" stroke="white" stroke-width="0.5" opacity="1"/><path d="M90,236.85714285714283h15v163.14285714285717h-15Z" fill="rgb(202, 233, 151)" stroke="white" stroke-width="0.5" opacity="1"/><path d="M105,224.00000000000003h15v175.99999999999997h-15Z" fill="rgb(253, 182, 114)" stroke="white" stroke-width="0.5" opacity="1"/><path d="M120,224.00000000000003h15v175.99999999999997h-15Z" fill="rgb(253, 164, 103)" stroke="white" stroke-width="0.5" opacity="1"/><path d="M135,245.24999999999997h15v154.75000000000003h-15Z" fill="rgb(237, 239, 148)" stroke="white" stroke-width="0.5" opacity="1"/><path d="M150,238h15v162h-15Z" fill="rgb(253, 186, 116)" stroke="white" stroke-width="0.5" opacity="1"/><path d="M165,253.24999999999997h15v146.75000000000003h-15Z" fill="rgb(253, 199, 124)" stroke="white" stroke-width="0.5" opacity="1"/><path d="M180,227.59999999999997h15v172.40000000000003h-15Z" fill="rgb(254, 222, 138)" stroke="white" stroke-width="0.5" opacity="1"/><path d="M195,230.66666666666666h15v169.33333333333334h-15Z" fill="rgb(253, 202, 126)" stroke="white" stroke-width="0.5" opacity="1"/><path d="M210,229.99999999999997h15v170.00000000000003h-15Z" fill="rgb(235, 240, 149)" stroke="white" stroke-width="0.5" opacity="1"/><path d="M225,237.75h15v162.25h-15Z" fill="rgb(252, 226, 140)" stroke="white" stroke-width="0.5" opacity="1"/><path d="M240,216h15v184h-15Z" fill="rgb(253, 176, 110)" stroke="white" stroke-width="0.5" opacity="1"/><path d="M255,216h15v184h-15Z" fill="rgb(253, 164, 103)" stroke="white" stroke-width="0.5" opacity="1"/><path d="M270,253.00000000000003h15v146.99999999999997h-15Z" fill="rgb(250, 228, 141)" stroke="white" stroke-width="0.5" opacity="1"/><path d="M285,225.2h15v174.8h-15Z" fill="rgb(253, 184, 115)" stroke="white" stroke-width="0.5" opacity="1"/><path d="M300,240.2608695652174h15v159.7391304347826h-15Z" fill="rgb(254, 220, 137)" stroke="white" stroke-width="0.5" opacity="1"/><path d="M315,264.3076923076923h15v135.69230769230768h-15Z" fill="rgb(254, 210, 131)" stroke="white" stroke-width="0.5" opacity="1"/><path d="M330,242.10000000000002h15v157.89999999999998h-15Z" fill="rgb(250, 227, 141)" stroke="white" stroke-width="0.5" opacity="1"/><path d="M345,246.2h15v153.8h-15Z" fill="rgb(253, 196, 122)" stroke="white" stroke-width="0.5" opacity="1"/><path d="M360,233.16666666666666h15v166.83333333333334h-15Z" fill="rgb(253, 175, 110)" stroke="white" stroke-width="0.5" opacity="1"/><path d="M375,188h15v212h-15Z" fill="rgb(253, 181, 113)" stroke="white" stroke-width="0.5" opacity="1"/><path d="M390,177h15v223h-15Z" fill="rgb(236, 108, 85)" stroke="white" stroke-width="0.5" opacity="1"/><path d="M405,170.00000000000003h15v229.99999999999997h-15Z" fill="rgb(245, 232, 144)" stroke="white" stroke-width="0.5" opacity="1"/><path d="M420,181.99999999999997h15v218.00000000000003h-15Z" fill="rgb(253, 186, 116)" stroke="white" stroke-width="0.5" opacity="1"/></g></g><path class="foreground" aria-hidden="true" d="" display="none"/></g></g></g><path class="foreground" aria-hidden="true" d="" display="none"/></g></g><g class="mark-group role-scope" role="graphics-object" aria-roledescription="group mark container"><g transform="translate(460,0)"><path class="background" aria-hidden="true" d="M0,0h30v400h-30Z" stroke="gray" stroke-width="0.1"/><g><g class="mark-group role-axis" role="graphics-symbol" aria-roledescription="axis" aria-label="X-axis titled '5' for a discrete scale with 2 values: mercedes, audi"><g transform="translate(0.5,401.5)"><path class="background" aria-hidden="true" d="M0,0h0v0h0Z" pointer-events="none"/><g><g class="mark-rule role-axis-tick" pointer-events="none"><line transform="translate(7,0)" x2="0" y2="0" stroke="#888" stroke-width="1" opacity="1"/><line transform="translate(22,0)" x2="0" y2="0" stroke="#888" stroke-width="1" opacity="1"/></g><g class="mark-text role-axis-label" pointer-events="none"><text text-anchor="end" transform="translate(7,2) rotate(-90)" font-family="sans-serif" font-size="10px" fill="#000" opacity="1">mercedes</text><text text-anchor="end" transform="translate(22,2) rotate(-90)" font-family="sans-serif" font-size="10px" fill="#000" opacity="1">audi</text></g><g class="mark-text role-axis-title" pointer-events="none"><text text-anchor="middle" transform="translate(15,57.90625)" font-family="sans-serif" font-size="10px" font-style="normal" font-weight="400" fill="#000" opacity="1">5</text></g></g><path class="foreground" aria-hidden="true" d="" pointer-events="none" display="none"/></g></g><g class="mark-group role-axis"><g transform="translate(-0.5,0.5)"><path class="background" aria-hidden="true" d="M0,0h0v0h0Z" pointer-events="none"/><g/><path class="foreground" aria-hidden="true" d="" pointer-events="none" display="none"/></g></g><g class="mark-group role-scope" role="graphics-object" aria-roledescription="group mark container"><g transform="translate(0,0)"><path class="background" aria-hidden="true" d="M0,0h0v0h0Z"/><g><g class="mark-rect role-mark" role="graphics-symbol" aria-roledescription="rect mark container"><path d="M0,246h15v154h-15Z" fill="rgb(202, 233, 151)" stroke="white" stroke-width="0.5" opacity="1"/><path d="M15,229.99999999999997h15v170.00000000000003h-15Z" fill="rgb(241, 235, 146)" stroke="white" stroke-width="0.5" opacity="1"/></g></g><path class="foreground" aria-hidden="true" d="" display="none"/></g></g></g><path class="foreground" aria-hidden="true" d="" display="none"/></g></g><g class="mark-group role-scope" role="graphics-object" aria-roledescription="group mark container"><g transform="translate(495,0)"><path class="background" aria-hidden="true" d="M0,0h225v400h-225Z" stroke="gray" stroke-width="0.1"/><g><g class="mark-group role-axis" role="graphics-symbol" aria-roledescription="axis" aria-label="X-axis titled '6' for a discrete scale with 15 values: chrysler, plymouth, mercury, dodge, ford, ending with buick"><g transform="translate(0.5,401.5)"><path class="background" aria-hidden="true" d="M0,0h0v0h0Z" pointer-events="none"/><g><g class="mark-rule role-axis-tick" pointer-events="none"><line transform="translate(7,0)" x2="0" y2="0" stroke="#888" stroke-width="1" opacity="1"/><line transform="translate(22,0)" x2="0" y2="0" stroke="#888" stroke-width="1" opacity="1"/><line transform="translate(37,0)" x2="0" y2="0" stroke="#888" stroke-width="1" opacity="1"/><line transform="translate(52,0)" x2="0" y2="0" stroke="#888" stroke-width="1" opacity="1"/><line transform="translate(67,0)" x2="0" y2="0" stroke="#888" stroke-width="1" opacity="1"/><line transform="translate(82,0)" x2="0" y2="0" stroke="#888" stroke-width="1" opacity="1"/><line transform="translate(97,0)" x2="0" y2="0" stroke="#888" stroke-width="1" opacity="1"/><line transform="translate(112,0)" x2="0" y2="0" stroke="#888" stroke-width="1" opacity="1"/><line transform="translate(127,0)" x2="0" y2="0" stroke="#888" stroke-width="1" opacity="1"/><line transform="translate(142,0)" x2="0" y2="0" stroke="#888" stroke-width="1" opacity="1"/><line transform="translate(157,0)" x2="0" y2="0" stroke="#888" stroke-width="1" opacity="1"/><line transform="translate(172,0)" x2="0" y2="0" stroke="#888" stroke-width="1" opacity="1"/><line transform="translate(187,0)" x2="0" y2="0" stroke="#888" stroke-width="1" opacity="1"/><line transform="translate(202,0)" x2="0" y2="0" stroke="#888" stroke-width="1" opacity="1"/><line transform="translate(217,0)" x2="0" y2="0" stroke="#888" stroke-width="1" opacity="1"/></g><g class="mark-text role-axis-label" pointer-events="none"><text text-anchor="end" transform="translate(7,2) rotate(-90)" font-family="sans-serif" font-size="10px" fill="#000" opacity="1">chrysler</text><text text-anchor="end" transform="translate(22,2) rotate(-90)" font-family="sans-serif" font-size="10px" fill="#000" opacity="1">plymouth</text><text text-anchor="end" transform="translate(37,2) rotate(-90)" font-family="sans-serif" font-size="10px" fill="#000" opacity="1">mercury</text><text text-anchor="end" transform="translate(52,2) rotate(-90)" font-family="sans-serif" font-size="10px" fill="#000" opacity="1">dodge</text><text text-anchor="end" transform="translate(67,2) rotate(-90)" font-family="sans-serif" font-size="10px" fill="#000" opacity="1">ford</text><text text-anchor="end" transform="translate(82,2) rotate(-90)" font-family="sans-serif" font-size="10px" fill="#000" opacity="1">chevrolet</text><text text-anchor="end" transform="translate(97,2) rotate(-90)" font-family="sans-serif" font-size="10px" fill="#000" opacity="1">pontiac</text><text text-anchor="end" transform="translate(112,2) rotate(-90)" font-family="sans-serif" font-size="10px" fill="#000" opacity="1">oldsmobile</text><text text-anchor="end" transform="translate(127,2) rotate(-90)" font-family="sans-serif" font-size="10px" fill="#000" opacity="1">amc</text><text text-anchor="end" transform="translate(142,2) rotate(-90)" font-family="sans-serif" font-size="10px" fill="#000" opacity="1">mercedes-benz</text><text text-anchor="end" transform="translate(157,2) rotate(-90)" font-family="sans-serif" font-size="10px" fill="#000" opacity="1">toyota</text><text text-anchor="end" transform="translate(172,2) rotate(-90)" font-family="sans-serif" font-size="10px" fill="#000" opacity="1">volvo</text><text text-anchor="end" transform="translate(187,2) rotate(-90)" font-family="sans-serif" font-size="10px" fill="#000" opacity="1">datsun</text><text text-anchor="end" transform="translate(202,2) rotate(-90)" font-family="sans-serif" font-size="10px" fill="#000" opacity="1">peugeot</text><text text-anchor="end" transform="translate(217,2) rotate(-90)" font-family="sans-serif" font-size="10px" fill="#000" opacity="1">buick</text></g><g class="mark-text role-axis-title" pointer-events="none"><text text-anchor="middle" transform="translate(112.5,82.9208984375)" font-family="sans-serif" font-size="10px" font-style="normal" font-weight="400" fill="#000" opacity="1">6</text></g></g><path class="foreground" aria-hidden="true" d="" pointer-events="none" display="none"/></g></g><g class="mark-group role-axis"><g transform="translate(-0.5,0.5)"><path class="background" aria-hidden="true" d="M0,0h0v0h0Z" pointer-events="none"/><g/><path class="foreground" aria-hidden="true" d="" pointer-events="none" display="none"/></g></g><g class="mark-group role-scope" role="graphics-object" aria-roledescription="group mark container"><g transform="translate(0,0)"><path class="background" aria-hidden="true" d="M0,0h0v0h0Z"/><g><g class="mark-rect role-mark" role="graphics-symbol" aria-roledescription="rect mark container"><path d="M0,229.99999999999997h15v170.00000000000003h-15Z" fill="rgb(253, 225, 140)" stroke="white" stroke-width="0.5" opacity="1"/><path d="M15,201.8181818181818h15v198.1818181818182h-15Z" fill="rgb(253, 225, 139)" stroke="white" stroke-width="0.5" opacity="1"/><path d="M30,225.5h15v174.5h-15Z" fill="rgb(245, 232, 144)" stroke="white" stroke-width="0.5" opacity="1"/><path d="M45,195.00000000000003h15v204.99999999999997h-15Z" fill="rgb(241, 236, 146)" stroke="white" stroke-width="0.5" opacity="1"/><path d="M60,223.33333333333334h15v176.66666666666666h-15Z" fill="rgb(251, 227, 141)" stroke="white" stroke-width="0.5" opacity="1"/><path d="M75,191.8181818181818h15v208.1818181818182h-15Z" fill="rgb(254, 207, 129)" stroke="white" stroke-width="0.5" opacity="1"/><path d="M90,185h15v215h-15Z" fill="rgb(254, 224, 139)" stroke="white" stroke-width="0.5" opacity="1"/><path d="M105,200h15v200h-15Z" fill="rgb(253, 178, 111)" stroke="white" stroke-width="0.5" opacity="1"/><path d="M120,200.94117647058823h15v199.05882352941177h-15Z" fill="rgb(254, 216, 134)" stroke="white" stroke-width="0.5" opacity="1"/><path d="M135,160h15v240h-15Z" fill="rgb(252, 226, 140)" stroke="white" stroke-width="0.5" opacity="1"/><path d="M150,169.33333333333334h15v230.66666666666666h-15Z" fill="rgb(252, 144, 91)" stroke="white" stroke-width="0.5" opacity="1"/><path d="M165,199.00000000000003h15v200.99999999999997h-15Z" fill="rgb(253, 225, 140)" stroke="white" stroke-width="0.5" opacity="1"/><path d="M180,167.33333333333334h15v232.66666666666666h-15Z" fill="rgb(244, 125, 87)" stroke="white" stroke-width="0.5" opacity="1"/><path d="M195,134h15v266h-15Z" fill="rgb(254, 204, 127)" stroke="white" stroke-width="0.5" opacity="1"/><path d="M210,167.14285714285714h15v232.85714285714286h-15Z" fill="rgb(254, 220, 137)" stroke="white" stroke-width="0.5" opacity="1"/></g></g><path class="foreground" aria-hidden="true" d="" display="none"/></g></g></g><path class="foreground" aria-hidden="true" d="" display="none"/></g></g><g class="mark-group role-scope" role="graphics-object" aria-roledescription="group mark container"><g transform="translate(725,0)"><path class="background" aria-hidden="true" d="M0,0h180v400h-180Z" stroke="gray" stroke-width="0.1"/><g><g class="mark-group role-axis" role="graphics-symbol" aria-roledescription="axis" aria-label="X-axis titled '8' for a discrete scale with 12 values: oldsmobile, cadillac, amc, hi, mercury, ending with pontiac"><g transform="translate(0.5,401.5)"><path class="background" aria-hidden="true" d="M0,0h0v0h0Z" pointer-events="none"/><g><g class="mark-rule role-axis-tick" pointer-events="none"><line transform="translate(7,0)" x2="0" y2="0" stroke="#888" stroke-width="1" opacity="1"/><line transform="translate(22,0)" x2="0" y2="0" stroke="#888" stroke-width="1" opacity="1"/><line transform="translate(37,0)" x2="0" y2="0" stroke="#888" stroke-width="1" opacity="1"/><line transform="translate(52,0)" x2="0" y2="0" stroke="#888" stroke-width="1" opacity="1"/><line transform="translate(67,0)" x2="0" y2="0" stroke="#888" stroke-width="1" opacity="1"/><line transform="translate(82,0)" x2="0" y2="0" stroke="#888" stroke-width="1" opacity="1"/><line transform="translate(97,0)" x2="0" y2="0" stroke="#888" stroke-width="1" opacity="1"/><line transform="translate(112,0)" x2="0" y2="0" stroke="#888" stroke-width="1" opacity="1"/><line transform="translate(127,0)" x2="0" y2="0" stroke="#888" stroke-width="1" opacity="1"/><line transform="translate(142,0)" x2="0" y2="0" stroke="#888" stroke-width="1" opacity="1"/><line transform="translate(157,0)" x2="0" y2="0" stroke="#888" stroke-width="1" opacity="1"/><line transform="translate(172,0)" x2="0" y2="0" stroke="#888" stroke-width="1" opacity="1"/></g><g class="mark-text role-axis-label" pointer-events="none"><text text-anchor="end" transform="translate(7,2) rotate(-90)" font-family="sans-serif" font-size="10px" fill="#000" opacity="1">oldsmobile</text><text text-anchor="end" transform="translate(22,2) rotate(-90)" font-family="sans-serif" font-size="10px" fill="#000" opacity="1">cadillac</text><text text-anchor="end" transform="translate(37,2) rotate(-90)" font-family="sans-serif" font-size="10px" fill="#000" opacity="1">amc</text><text text-anchor="end" transform="translate(52,2) rotate(-90)" font-family="sans-serif" font-size="10px" fill="#000" opacity="1">hi</text><text text-anchor="end" transform="translate(67,2) rotate(-90)" font-family="sans-serif" font-size="10px" fill="#000" opacity="1">mercury</text><text text-anchor="end" transform="translate(82,2) rotate(-90)" font-family="sans-serif" font-size="10px" fill="#000" opacity="1">dodge</text><text text-anchor="end" transform="translate(97,2) rotate(-90)" font-family="sans-serif" font-size="10px" fill="#000" opacity="1">plymouth</text><text text-anchor="end" transform="translate(112,2) rotate(-90)" font-family="sans-serif" font-size="10px" fill="#000" opacity="1">ford</text><text text-anchor="end" transform="translate(127,2) rotate(-90)" font-family="sans-serif" font-size="10px" fill="#000" opacity="1">chrysler</text><text text-anchor="end" transform="translate(142,2) rotate(-90)" font-family="sans-serif" font-size="10px" fill="#000" opacity="1">chevrolet</text><text text-anchor="end" transform="translate(157,2) rotate(-90)" font-family="sans-serif" font-size="10px" fill="#000" opacity="1">buick</text><text text-anchor="end" transform="translate(172,2) rotate(-90)" font-family="sans-serif" font-size="10px" fill="#000" opacity="1">pontiac</text></g><g class="mark-text role-axis-title" pointer-events="none"><text text-anchor="middle" transform="translate(90,61.802734375)" font-family="sans-serif" font-size="10px" font-style="normal" font-weight="400" fill="#000" opacity="1">8</text></g></g><path class="foreground" aria-hidden="true" d="" pointer-events="none" display="none"/></g></g><g class="mark-group role-axis"><g transform="translate(-0.5,0.5)"><path class="background" aria-hidden="true" d="M0,0h0v0h0Z" pointer-events="none"/><g/><path class="foreground" aria-hidden="true" d="" pointer-events="none" display="none"/></g></g><g class="mark-group role-scope" role="graphics-object" aria-roledescription="group mark container"><g transform="translate(0,0)"><path class="background" aria-hidden="true" d="M0,0h0v0h0Z"/><g><g class="mark-rect role-mark" role="graphics-symbol" aria-roledescription="rect mark container"><path d="M0,132.85714285714283h15v267.14285714285717h-15Z" fill="rgb(254, 213, 133)" stroke="white" stroke-width="0.5" opacity="1"/><path d="M15,95.00000000000001h15v305h-15Z" fill="rgb(253, 172, 107)" stroke="white" stroke-width="0.5" opacity="1"/><path d="M30,86.66666666666667h15v313.3333333333333h-15Z" fill="rgb(225, 87, 82)" stroke="white" stroke-width="0.5" opacity="1"/><path d="M45,14.000000000000012h15v386h-15Z" fill="rgb(236, 240, 149)" stroke="white" stroke-width="0.5" opacity="1"/><path d="M60,74.80000000000003h15v325.2h-15Z" fill="rgb(236, 109, 85)" stroke="white" stroke-width="0.5" opacity="1"/><path d="M75,88.33333333333333h15v311.6666666666667h-15Z" fill="rgb(239, 116, 86)" stroke="white" stroke-width="0.5" opacity="1"/><path d="M90,78.18181818181817h15v321.8181818181818h-15Z" fill="rgb(229, 94, 83)" stroke="white" stroke-width="0.5" opacity="1"/><path d="M105,98h15v302h-15Z" fill="rgb(240, 117, 86)" stroke="white" stroke-width="0.5" opacity="1"/><path d="M120,27.499999999999993h15v372.5h-15Z" fill="rgb(229, 94, 83)" stroke="white" stroke-width="0.5" opacity="1"/><path d="M135,98.09523809523806h15v301.9047619047619h-15Z" fill="rgb(237, 110, 85)" stroke="white" stroke-width="0.5" opacity="1"/><path d="M150,42.85714285714284h15v357.14285714285717h-15Z" fill="rgb(235, 108, 85)" stroke="white" stroke-width="0.5" opacity="1"/><path d="M165,20.000000000000018h15v380h-15Z" fill="rgb(213, 62, 79)" stroke="white" stroke-width="0.5" opacity="1"/></g></g><path class="foreground" aria-hidden="true" d="" display="none"/></g></g></g><path class="foreground" aria-hidden="true" d="" display="none"/></g></g></g><path class="foreground" aria-hidden="true" d="" display="none"/></g></g><g class="mark-group role-legend" role="graphics-symbol" aria-roledescription="legend" aria-label="Gradient legend titled 'Acceleration' for fill color with values from 11 to 22"><g transform="translate(924,0)"><path class="background" aria-hidden="true" d="M0,0h67v216h-67Z" pointer-events="none"/><g><g class="mark-group role-legend-entry"><g transform="translate(0,16)"><path class="background" aria-hidden="true" d="M0,0h0v0h0Z" pointer-events="none"/><g><g class="mark-rect role-legend-gradient" pointer-events="none"><path d="M0,0h16v200h-16Z" fill="url(#gradient_0)" stroke="#ddd" stroke-width="0" opacity="1"/></g><g class="mark-text role-legend-label" pointer-events="none"><text text-anchor="start" transform="translate(18,185.93333333333334)" font-family="sans-serif" font-size="10px" fill="#000" opacity="1">12</text><text text-anchor="start" transform="translate(18,148.6)" font-family="sans-serif" font-size="10px" fill="#000" opacity="1">14</text><text text-anchor="start" transform="translate(18,111.26666666666667)" font-family="sans-serif" font-size="10px" fill="#000" opacity="1">16</text><text text-anchor="start" transform="translate(18,73.93333333333334)" font-family="sans-serif" font-size="10px" fill="#000" opacity="1">18</text><text text-anchor="start" transform="translate(18,36.60000000000001)" font-family="sans-serif" font-size="10px" fill="#000" opacity="1">20</text></g></g><path class="foreground" aria-hidden="true" d="" pointer-events="none" display="none"/></g></g><g class="mark-text role-legend-title" pointer-events="none"><text text-anchor="start" transform="translate(0,9)" font-family="sans-serif" font-size="11px" font-weight="bold" fill="#000" opacity="1">Acceleration</text></g></g><path class="foreground" aria-hidden="true" d="" pointer-events="none" display="none"/></g></g></g><path class="foreground" aria-hidden="true" d="" display="none"/></g></g></g><defs><linearGradient id="gradient_0" x1="0" x2="0" y1="1" y2="0"><stop offset="0" stop-color="rgb(213, 62, 79)"/><stop offset="0.08533333333333336" stop-color="rgb(226, 89, 82)"/><stop offset="0.17866666666666667" stop-color="rgb(241, 118, 86)"/><stop offset="0.272" stop-color="rgb(252, 148, 93)"/><stop offset="0.36533333333333334" stop-color="rgb(253, 179, 112)"/><stop offset="0.45866666666666667" stop-color="rgb(254, 210, 131)"/><stop offset="0.5519999999999999" stop-color="rgb(249, 228, 142)"/><stop offset="0.6453333333333333" stop-color="rgb(240, 236, 147)"/><stop offset="0.7386666666666666" stop-color="rgb(231, 244, 151)"/><stop offset="0.832" stop-color="rgb(205, 235, 151)"/><stop offset="0.9253333333333332" stop-color="rgb(176, 223, 149)"/><stop offset="1" stop-color="rgb(153, 213, 148)"/></linearGradient></defs></svg>