<svg xmlns="http://www.w3.org/2000/svg" xmlns:xlink="http://www.w3.org/1999/xlink" version="1.1" class="marks" width="655" height="447" viewBox="0 0 655 447"><g fill="none" stroke-miterlimit="10" transform="translate(52,5)"><g class="mark-group role-frame root" role="graphics-object" aria-roledescription="group mark container"><g transform="translate(0,0)"><path class="background" aria-hidden="true" d="M0,0h600v400h-600Z"/><g><g class="mark-group role-axis" role="graphics-symbol" aria-roledescription="axis" aria-label="X-axis titled 'x' for a linear scale with values from −6 to 5"><g transform="translate(0.5,410.5)"><path class="background" aria-hidden="true" d="M0,0h0v0h0Z" pointer-events="none"/><g><g class="mark-rule role-axis-tick" pointer-events="none"><line transform="translate(0,0)" x2="0" y2="5" stroke="#888" stroke-width="1" opacity="1"/><line transform="translate(55,0)" x2="0" y2="5" stroke="#888" stroke-width="1" opacity="1"/><line transform="translate(109,0)" x2="0" y2="5" stroke="#888" stroke-width="1" opacity="1"/><line transform="translate(164,0)" x2="0" y2="5" stroke="#888" stroke-width="1" opacity="1"/><line transform="translate(218,0)" x2="0" y2="5" stroke="#888" stroke-width="1" opacity="1"/><line transform="translate(273,0)" x2="0" y2="5" stroke="#888" stroke-width="1" opacity="1"/><line transform="translate(327,0)" x2="0" y2="5" stroke="#888" stroke-width="1" opacity="1"/><line transform="translate(382,0)" x2="0" y2="5" stroke="#888" stroke-width="1" opacity="1"/><line transform="translate(436,0)" x2="0" y2="5" stroke="#888" stroke-width="1" opacity="1"/><line transform="translate(491,0)" x2="0" y2="5" stroke="#888" stroke-width="1" opacity="1"/><line transform="translate(545,0)" x2="0" y2="5" stroke="#888" stroke-width="1" opacity="1"/><line transform="translate(600,0)" x2="0" y2="5" stroke="#888" stroke-width="1" opacity="1"/></g><g class="mark-text role-axis-label" pointer-events="none"><text text-anchor="middle" transform="translate(0,15)" font-family="sans-serif" font-size="10px" fill="#000" opacity="1">−6</text><text text-anchor="middle" transform="translate(54.54545454545455,15)" font-family="sans-serif" font-size="10px" fill="#000" opacity="1">−5</text><text text-anchor="middle" transform="translate(109.0909090909091,15)" font-family="sans-serif" font-size="10px" fill="#000" opacity="1">−4</text><text text-anchor="middle" transform="translate(163.63636363636363,15)" font-family="sans-serif" font-size="10px" fill="#000" opacity="1">−3</text><text text-anchor="middle" transform="translate(218.1818181818182,15)" font-family="sans-serif" font-size="10px" fill="#000" opacity="1">−2</text><text text-anchor="middle" transform="translate(272.7272727272727,15)" font-family="sans-serif" font-size="10px" fill="#000" opacity="1">−1</text><text text-anchor="middle" transform="translate(327.27272727272725,15)" font-family="sans-serif" font-size="10px" fill="#000" opacity="1">0</text><text text-anchor="middle" transform="translate(381.8181818181818,15)" font-family="sans-serif" font-size="10px" fill="#000" opacity="1">1</text><text text-anchor="middle" transform="translate(436.3636363636364,15)" font-family="sans-serif" font-size="10px" fill="#000" opacity="1">2</text><text text-anchor="middle" transform="translate(490.90909090909093,15)" font-family="sans-serif" font-size="10px" fill="#000" opacity="1">3</text><text text-anchor="middle" transform="translate(545.4545454545454,15)" font-family="sans-serif" font-size="10px" fill="#000" opacity="1">4</text><text text-anchor="middle" transform="translate(600,15)" font-family="sans-serif" font-size="10px" fill="#000" opacity="1">5</text></g><g class="mark-text role-axis-title" pointer-events="none"><text text-anchor="middle" transform="translate(300,30)" font-family="sans-serif" font-size="11px" font-weight="bold" fill="#000" opacity="1">x</text></g></g><path class="foreground" aria-hidden="true" d="" pointer-events="none" display="none"/></g></g><g class="mark-group role-axis" role="graphics-symbol" aria-roledescription="axis" aria-label="Y-axis titled 'pdf of x' for a linear scale with values from 0.0 to 0.4"><g transform="translate(-9.5,0.5)"><path class="background" aria-hidden="true" d="M0,0h0v0h0Z" pointer-events="none"/><g><g class="mark-rule role-axis-grid" pointer-events="none"><line transform="translate(10,400)" x2="600" y2="0" stroke="lightgray" stroke-width="1" stroke-dasharray="0" opacity="1"/><line transform="translate(10,350)" x2="600" y2="0" stroke="lightgray" stroke-width="1" stroke-dasharray="0" opacity="1"/><line transform="translate(10,300)" x2="600" y2="0" stroke="lightgray" stroke-width="1" stroke-dasharray="0" opacity="1"/><line transform="translate(10,250)" x2="600" y2="0" stroke="lightgray" stroke-width="1" stroke-dasharray="0" opacity="1"/><line transform="translate(10,200)" x2="600" y2="0" stroke="lightgray" stroke-width="1" stroke-dasharray="0" opacity="1"/><line transform="translate(10,150)" x2="600" y2="0" stroke="lightgray" stroke-width="1" stroke-dasharray="0" opacity="1"/><line transform="translate(10,100)" x2="600" y2="0" stroke="lightgray" stroke-width="1" stroke-dasharray="0" opacity="1"/><line transform="translate(10,50)" x2="600" y2="0" stroke="lightgray" stroke-width="1" stroke-dasharray="0" opacity="1"/><line transform="translate(10,0)" x2="600" y2="0" stroke="lightgray" stroke-width="1" stroke-dasharray="0" opacity="1"/></g><g class="mark-rule role-axis-tick" pointer-events="none"><line transform="translate(0,400)" x2="-5" y2="0" stroke="#888" stroke-width="1" opacity="1"/><line transform="translate(0,350)" x2="-5" y2="0" stroke="#888" stroke-width="1" opacity="1"/><line transform="translate(0,300)" x2="-5" y2="0" stroke="#888" stroke-width="1" opacity="1"/><line transform="translate(0,250)" x2="-5" y2="0" stroke="#888" stroke-width="1" opacity="1"/><line transform="translate(0,200)" x2="-5" y2="0" stroke="#888" stroke-width="1" opacity="1"/><line transform="translate(0,150)" x2="-5" y2="0" stroke="#888" stroke-width="1" opacity="1"/><line transform="translate(0,100)" x2="-5" y2="0" stroke="#888" stroke-width="1" opacity="1"/><line transform="translate(0,50)" x2="-5" y2="0" stroke="#888" stroke-width="1" opacity="1"/><line transform="translate(0,0)" x2="-5" y2="0" stroke="#888" stroke-width="1" opacity="1"/></g><g class="mark-text role-axis-label" pointer-events="none"><text text-anchor="end" transform="translate(-7,403)" font-family="sans-serif" font-size="10px" fill="#000" opacity="1">0.00</text><text text-anchor="end" transform="translate(-7,353)" font-family="sans-serif" font-size="10px" fill="#000" opacity="1">0.05</text><text text-anchor="end" transform="translate(-7,303)" font-family="sans-serif" font-size="10px" fill="#000" opacity="1">0.10</text><text text-anchor="end" transform="translate(-7,253)" font-family="sans-serif" font-size="10px" fill="#000" opacity="1">0.15</text><text text-anchor="end" transform="translate(-7,203)" font-family="sans-serif" font-size="10px" fill="#000" opacity="1">0.20</text><text text-anchor="end" transform="translate(-7,153)" font-family="sans-serif" font-size="10px" fill="#000" opacity="1">0.25</text><text text-anchor="end" transform="translate(-7,103.00000000000004)" font-family="sans-serif" font-size="10px" fill="#000" opacity="1">0.30</text><text text-anchor="end" transform="translate(-7,53.00000000000004)" font-family="sans-serif" font-size="10px" fill="#000" opacity="1">0.35</text><text text-anchor="end" transform="translate(-7,3)" font-family="sans-serif" font-size="10px" fill="#000" opacity="1">0.40</text></g><g class="mark-text role-axis-title" pointer-events="none"><text text-anchor="middle" transform="translate(-30.462890625,200) rotate(-90) translate(0,-2)" font-family="sans-serif" font-size="11px" font-weight="bold" fill="#000" opacity="1">pdf of x</text></g></g><path class="foreground" aria-hidden="true" d="" pointer-events="none" display="none"/></g></g><g class="mark-group role-scope" role="graphics-object" aria-roledescription="group mark container"><g transform="translate(0,0)"><path class="background" aria-hidden="true" d="M0,0h0v0h0Z"/><g><g class="mark-rect role-mark" role="graphics-symbol" aria-roledescription="rect mark container"><path d="M38.5277571327711,399.99929875834596h22.835231541159807v0.0007012416540419508h-22.835231541159807Z" fill="steelblue" stroke="white" stroke-width="0.5" opacity="1"/><path d="M61.86298867393091,399.9901826168433h22.835231541159807v0.009817383156700998h-22.835231541159807Z" fill="steelblue" stroke="white" stroke-width="0.5" opacity="1"/><path d="M85.19822021509071,399.94390066767573h22.835231541159757v0.05609933232426556h-22.835231541159757Z" fill="steelblue" stroke="white" stroke-width="0.5" opacity="1"/><path d="M108.53345175625047,399.68257127793197h22.835231541159814v0.31742872206802986h-22.835231541159814Z" fill="steelblue" stroke="white" stroke-width="0.5" opacity="1"/><path d="M131.86868329741029,398.55240347881625h22.83523154115983v1.4475965211837547h-22.83523154115983Z" fill="steelblue" stroke="white" stroke-width="0.5" opacity="1"/><path d="M155.2039148385701,394.538963745452h22.8352315411598v5.461036254547992h-22.8352315411598Z" fill="steelblue" stroke="white" stroke-width="0.5" opacity="1"/><path d="M178.5391463797299,382.7024721194707h22.83523154115977v17.297527880529287h-22.83523154115977Z" fill="steelblue" stroke="white" stroke-width="0.5" opacity="1"/><path d="M201.87437792088969,354.35781696820595h22.8352315411598v45.64218303179405h-22.8352315411598Z" fill="steelblue" stroke="white" stroke-width="0.5" opacity="1"/><path d="M225.20960946204949,299.2579877481969h22.8352315411598v100.74201225180309h-22.8352315411598Z" fill="steelblue" stroke="white" stroke-width="0.5" opacity="1"/><path d="M248.54484100320929,214.0877476662983h22.83523154115983v185.9122523337017h-22.83523154115983Z" fill="steelblue" stroke="white" stroke-width="0.5" opacity="1"/><path d="M271.8800725443691,113.88101654375582h22.83523154115977v286.11898345624417h-22.83523154115977Z" fill="steelblue" stroke="white" stroke-width="0.5" opacity="1"/><path d="M295.2153040855289,31.544493985886035h22.835231541159885v368.45550601411395h-22.835231541159885Z" fill="steelblue" stroke="white" stroke-width="0.5" opacity="1"/><path d="M318.55053562668877,4.546456557621381h22.835231541159658v395.45354344237865h-22.835231541159658Z" fill="steelblue" stroke="white" stroke-width="0.5" opacity="1"/><path d="M341.8857671678484,45.04760327633366h22.835231541159885v354.9523967236663h-22.835231541159885Z" fill="steelblue" stroke="white" stroke-width="0.5" opacity="1"/><path d="M365.2209987090083,134.61112232087532h22.83523154115977v265.3888776791247h-22.83523154115977Z" fill="steelblue" stroke="white" stroke-width="0.5" opacity="1"/><path d="M388.5562302501681,233.6893218748283h22.83523154115983v166.3106781251717h-22.83523154115983Z" fill="steelblue" stroke="white" stroke-width="0.5" opacity="1"/><path d="M411.8914617913279,313.25360242700793h22.83523154115983v86.74639757299207h-22.83523154115983Z" fill="steelblue" stroke="white" stroke-width="0.5" opacity="1"/><path d="M435.22669333248774,362.1467417669924h22.835231541159715v37.85325823300758h-22.835231541159715Z" fill="steelblue" stroke="white" stroke-width="0.5" opacity="1"/><path d="M458.56192487364746,386.2589360416103h22.83523154115977v13.741063958389702h-22.83523154115977Z" fill="steelblue" stroke="white" stroke-width="0.5" opacity="1"/><path d="M481.8971564148072,395.77268156214956h22.83523154115983v4.2273184378504425h-22.83523154115983Z" fill="steelblue" stroke="white" stroke-width="0.5" opacity="1"/><path d="M505.23238795596706,398.9441638162139h22.83523154115983v1.0558361837860843h-22.83523154115983Z" fill="steelblue" stroke="white" stroke-width="0.5" opacity="1"/><path d="M528.5676194971269,399.7639153098021h22.83523154115983v0.236084690197913h-22.83523154115983Z" fill="steelblue" stroke="white" stroke-width="0.5" opacity="1"/><path d="M551.9028510382867,399.96119796180903h22.835231541159715v0.038802038190965504h-22.835231541159715Z" fill="steelblue" stroke="white" stroke-width="0.5" opacity="1"/><path d="M575.2380825794464,399.9932213306775h22.83523154115983v0.006778669322500264h-22.83523154115983Z" fill="steelblue" stroke="white" stroke-width="0.5" opacity="1"/></g></g><path class="foreground" aria-hidden="true" d="" display="none"/></g></g></g><path class="foreground" aria-hidden="true" d="" display="none"/></g></g></g></svg>