<svg xmlns="http://www.w3.org/2000/svg" xmlns:xlink="http://www.w3.org/1999/xlink" version="1.1" class="marks" width="659" height="447" viewBox="0 0 659 447"><g fill="none" stroke-miterlimit="10" transform="translate(52,5)"><g class="mark-group role-frame root" role="graphics-object" aria-roledescription="group mark container"><g transform="translate(0,0)"><path class="background" aria-hidden="true" d="M0,0h600v400h-600Z"/><g><g class="mark-group role-axis" role="graphics-symbol" aria-roledescription="axis" aria-label="X-axis titled 'x' for a linear scale with values from −4 to 4"><g transform="translate(0.5,410.5)"><path class="background" aria-hidden="true" d="M0,0h0v0h0Z" pointer-events="none"/><g><g class="mark-rule role-axis-tick" pointer-events="none"><line transform="translate(0,0)" x2="0" y2="5" stroke="black" stroke-width="1.01" opacity="1"/><line transform="translate(38,0)" x2="0" y2="5" stroke="black" stroke-width="1.01" opacity="1"/><line transform="translate(75,0)" x2="0" y2="5" stroke="black" stroke-width="1.01" opacity="1"/><line transform="translate(113,0)" x2="0" y2="5" stroke="black" stroke-width="1.01" opacity="1"/><line transform="translate(150,0)" x2="0" y2="5" stroke="black" stroke-width="1.01" opacity="1"/><line transform="translate(188,0)" x2="0" y2="5" stroke="black" stroke-width="1.01" opacity="1"/><line transform="translate(225,0)" x2="0" y2="5" stroke="black" stroke-width="1.01" opacity="1"/><line transform="translate(263,0)" x2="0" y2="5" stroke="black" stroke-width="1.01" opacity="1"/><line transform="translate(300,0)" x2="0" y2="5" stroke="black" stroke-width="1.01" opacity="1"/><line transform="translate(338,0)" x2="0" y2="5" stroke="black" stroke-width="1.01" opacity="1"/><line transform="translate(375,0)" x2="0" y2="5" stroke="black" stroke-width="1.01" opacity="1"/><line transform="translate(413,0)" x2="0" y2="5" stroke="black" stroke-width="1.01" opacity="1"/><line transform="translate(450,0)" x2="0" y2="5" stroke="black" stroke-width="1.01" opacity="1"/><line transform="translate(488,0)" x2="0" y2="5" stroke="black" stroke-width="1.01" opacity="1"/><line transform="translate(525,0)" x2="0" y2="5" stroke="black" stroke-width="1.01" opacity="1"/><line transform="translate(563,0)" x2="0" y2="5" stroke="black" stroke-width="1.01" opacity="1"/><line transform="translate(600,0)" x2="0" y2="5" stroke="black" stroke-width="1.01" opacity="1"/></g><g class="mark-text role-axis-label" pointer-events="none"><text text-anchor="middle" transform="translate(0,15)" font-family="sans-serif" font-size="10px" font-style="normal" font-weight="400" fill="black" opacity="1">−4.0</text><text text-anchor="middle" transform="translate(37.5,15)" font-family="sans-serif" font-size="10px" font-style="normal" font-weight="400" fill="black" opacity="1">−3.5</text><text text-anchor="middle" transform="translate(75,15)" font-family="sans-serif" font-size="10px" font-style="normal" font-weight="400" fill="black" opacity="1">−3.0</text><text text-anchor="middle" transform="translate(112.5,15)" font-family="sans-serif" font-size="10px" font-style="normal" font-weight="400" fill="black" opacity="1">−2.5</text><text text-anchor="middle" transform="translate(150,15)" font-family="sans-serif" font-size="10px" font-style="normal" font-weight="400" fill="black" opacity="1">−2.0</text><text text-anchor="middle" transform="translate(187.5,15)" font-family="sans-serif" font-size="10px" font-style="normal" font-weight="400" fill="black" opacity="1">−1.5</text><text text-anchor="middle" transform="translate(225,15)" font-family="sans-serif" font-size="10px" font-style="normal" font-weight="400" fill="black" opacity="1">−1.0</text><text text-anchor="middle" transform="translate(262.5,15)" font-family="sans-serif" font-size="10px" font-style="normal" font-weight="400" fill="black" opacity="1">−0.5</text><text text-anchor="middle" transform="translate(300,15)" font-family="sans-serif" font-size="10px" font-style="normal" font-weight="400" fill="black" opacity="1">0.0</text><text text-anchor="middle" transform="translate(337.5,15)" font-family="sans-serif" font-size="10px" font-style="normal" font-weight="400" fill="black" opacity="1">0.5</text><text text-anchor="middle" transform="translate(375,15)" font-family="sans-serif" font-size="10px" font-style="normal" font-weight="400" fill="black" opacity="1">1.0</text><text text-anchor="middle" transform="translate(412.5,15)" font-family="sans-serif" font-size="10px" font-style="normal" font-weight="400" fill="black" opacity="1">1.5</text><text text-anchor="middle" transform="translate(450,15)" font-family="sans-serif" font-size="10px" font-style="normal" font-weight="400" fill="black" opacity="1">2.0</text><text text-anchor="middle" transform="translate(487.5,15)" font-family="sans-serif" font-size="10px" font-style="normal" font-weight="400" fill="black" opacity="1">2.5</text><text text-anchor="middle" transform="translate(525,15)" font-family="sans-serif" font-size="10px" font-style="normal" font-weight="400" fill="black" opacity="1">3.0</text><text text-anchor="middle" transform="translate(562.5,15)" font-family="sans-serif" font-size="10px" font-style="normal" font-weight="400" fill="black" opacity="1">3.5</text><text text-anchor="middle" transform="translate(600,15)" font-family="sans-serif" font-size="10px" font-style="normal" font-weight="400" fill="black" opacity="1">4.0</text></g><g class="mark-text role-axis-title" pointer-events="none"><text text-anchor="middle" transform="translate(300,30)" font-family="sans-serif" font-size="11px" font-style="normal" font-weight="400" fill="black" opacity="1">x</text></g></g><path class="foreground" aria-hidden="true" d="" pointer-events="none" display="none"/></g></g><g class="mark-group role-axis" role="graphics-symbol" aria-roledescription="axis" aria-label="Y-axis titled 'pdf' for a linear scale with values from 0.0 to 0.5"><g transform="translate(-9.5,0.5)"><path class="background" aria-hidden="true" d="M0,0h0v0h0Z" pointer-events="none"/><g><g class="mark-rule role-axis-grid" pointer-events="none"><line transform="translate(10,400)" x2="600" y2="0" stroke="lightgray" stroke-width="0.5" stroke-dasharray="0" opacity="1"/><line transform="translate(10,356)" x2="600" y2="0" stroke="lightgray" stroke-width="0.5" stroke-dasharray="0" opacity="1"/><line transform="translate(10,311)" x2="600" y2="0" stroke="lightgray" stroke-width="0.5" stroke-dasharray="0" opacity="1"/><line transform="translate(10,267)" x2="600" y2="0" stroke="lightgray" stroke-width="0.5" stroke-dasharray="0" opacity="1"/><line transform="translate(10,222)" x2="600" y2="0" stroke="lightgray" stroke-width="0.5" stroke-dasharray="0" opacity="1"/><line transform="translate(10,178)" x2="600" y2="0" stroke="lightgray" stroke-width="0.5" stroke-dasharray="0" opacity="1"/><line transform="translate(10,133)" x2="600" y2="0" stroke="lightgray" stroke-width="0.5" stroke-dasharray="0" opacity="1"/><line transform="translate(10,89)" x2="600" y2="0" stroke="lightgray" stroke-width="0.5" stroke-dasharray="0" opacity="1"/><line transform="translate(10,44)" x2="600" y2="0" stroke="lightgray" stroke-width="0.5" stroke-dasharray="0" opacity="1"/><line transform="translate(10,0)" x2="600" y2="0" stroke="lightgray" stroke-width="0.5" stroke-dasharray="0" opacity="1"/></g><g class="mark-rule role-axis-tick" pointer-events="none"><line transform="translate(0,400)" x2="-5" y2="0" stroke="black" stroke-width="1.01" opacity="1"/><line transform="translate(0,356)" x2="-5" y2="0" stroke="black" stroke-width="1.01" opacity="1"/><line transform="translate(0,311)" x2="-5" y2="0" stroke="black" stroke-width="1.01" opacity="1"/><line transform="translate(0,267)" x2="-5" y2="0" stroke="black" stroke-width="1.01" opacity="1"/><line transform="translate(0,222)" x2="-5" y2="0" stroke="black" stroke-width="1.01" opacity="1"/><line transform="translate(0,178)" x2="-5" y2="0" stroke="black" stroke-width="1.01" opacity="1"/><line transform="translate(0,133)" x2="-5" y2="0" stroke="black" stroke-width="1.01" opacity="1"/><line transform="translate(0,89)" x2="-5" y2="0" stroke="black" stroke-width="1.01" opacity="1"/><line transform="translate(0,44)" x2="-5" y2="0" stroke="black" stroke-width="1.01" opacity="1"/><line transform="translate(0,0)" x2="-5" y2="0" stroke="black" stroke-width="1.01" opacity="1"/></g><g class="mark-text role-axis-label" pointer-events="none"><text text-anchor="end" transform="translate(-7,403)" font-family="sans-serif" font-size="10px" font-style="normal" font-weight="400" fill="black" opacity="1">0.00</text><text text-anchor="end" transform="translate(-7,358.55555555555554)" font-family="sans-serif" font-size="10px" font-style="normal" font-weight="400" fill="black" opacity="1">0.05</text><text text-anchor="end" transform="translate(-7,314.11111111111114)" font-family="sans-serif" font-size="10px" font-style="normal" font-weight="400" fill="black" opacity="1">0.10</text><text text-anchor="end" transform="translate(-7,269.6666666666667)" font-family="sans-serif" font-size="10px" font-style="normal" font-weight="400" fill="black" opacity="1">0.15</text><text text-anchor="end" transform="translate(-7,225.22222222222223)" font-family="sans-serif" font-size="10px" font-style="normal" font-weight="400" fill="black" opacity="1">0.20</text><text text-anchor="end" transform="translate(-7,180.77777777777777)" font-family="sans-serif" font-size="10px" font-style="normal" font-weight="400" fill="black" opacity="1">0.25</text><text text-anchor="end" transform="translate(-7,136.33333333333334)" font-family="sans-serif" font-size="10px" font-style="normal" font-weight="400" fill="black" opacity="1">0.30</text><text text-anchor="end" transform="translate(-7,91.88888888888893)" font-family="sans-serif" font-size="10px" font-style="normal" font-weight="400" fill="black" opacity="1">0.35</text><text text-anchor="end" transform="translate(-7,47.44444444444442)" font-family="sans-serif" font-size="10px" font-style="normal" font-weight="400" fill="black" opacity="1">0.40</text><text text-anchor="end" transform="translate(-7,3)" font-family="sans-serif" font-size="10px" font-style="normal" font-weight="400" fill="black" opacity="1">0.45</text></g><g class="mark-text role-axis-title" pointer-events="none"><text text-anchor="middle" transform="translate(-30.462890625,200) rotate(-90) translate(0,-2)" font-family="sans-serif" font-size="11px" font-style="normal" font-weight="400" fill="black" opacity="1">pdf</text></g></g><path class="foreground" aria-hidden="true" d="" pointer-events="none" display="none"/></g></g><g class="mark-group role-scope" clip-path="url(#clip1)" role="graphics-object" aria-roledescription="group mark container"><g transform="translate(0,0)"><path class="background" aria-hidden="true" d="M0,0h0v0h0Z"/><g><g class="mark-rect role-mark" role="graphics-symbol" aria-roledescription="rect mark container"><path d="M111.0795309963839,385.94365700736694h46.928172961919486v14.056342992633063h-46.928172961919486Z" fill="steelblue" stroke="white" stroke-width="0.5" opacity="1"/><path d="M158.50770395830338,273.4929130663022h46.928172961919444v126.50708693369779h-46.928172961919444Z" fill="steelblue" stroke="white" stroke-width="0.5" opacity="1"/><path d="M205.93587692022282,175.09851211787063h46.92817296191947v224.90148788212937h-46.92817296191947Z" fill="steelblue" stroke="white" stroke-width="0.5" opacity="1"/><path d="M253.3640498821423,90.76045416207216h46.92817296191947v309.23954583792784h-46.92817296191947Z" fill="steelblue" stroke="white" stroke-width="0.5" opacity="1"/><path d="M300.79222284406177,62.647768176805975h46.92817296191947v337.352231823194h-46.92817296191947Z" fill="steelblue" stroke="white" stroke-width="0.5" opacity="1"/><path d="M348.22039580598124,118.87314014733832h46.92817296191953v281.1268598526617h-46.92817296191953Z" fill="steelblue" stroke="white" stroke-width="0.5" opacity="1"/><path d="M395.64856876790077,287.5492560589353h46.92817296191947v112.45074394106467h-46.92817296191947Z" fill="steelblue" stroke="white" stroke-width="0.5" opacity="1"/></g></g><path class="foreground" aria-hidden="true" d="" display="none"/></g></g><g class="mark-group role-scope" clip-path="url(#clip2)" role="graphics-object" aria-roledescription="group mark container"><g transform="translate(0,0)"><path class="background" aria-hidden="true" d="M0,0h0v0h0Z"/><g><g class="mark-area role-mark" role="graphics-symbol" aria-roledescription="area mark container"><path d="M21.971071095511697,399.8995723035643L27.114648171624644,399.8329738291362L32.258225247737556,399.7303659086204L37.40180232385051,399.5774197449723L42.54537939996346,399.3568625328258L47.68895647607637,399.0491388084668L52.83253355218932,398.633640884017L57.976110628302266,398.0904137285077L63.119687704415185,397.40203286102496L68.26326478052813,396.5551375437654L73.40684185664105,395.5409515891484L78.550418932754,394.3541309248792L83.69399600886695,392.9895163421576L88.83757308497987,391.4368647526573L93.98115016109281,389.6743207317569L99.12472723720576,387.66211317456856L104.26830431331867,385.33848634845435L109.41188138943161,382.61995303523906L114.55545846554458,379.4074134921132L119.69903554165748,375.5984971833639L124.84261261777043,371.1048412529314L129.98618969388338,365.8713039507231L135.1297667699963,359.8928211990448L140.27334384610924,353.2242254746783L145.4169209222222,345.9791539778066L150.5604979983351,338.31617069544853L155.70407507444804,330.4130605131569L160.847652150561,322.4332808292184L165.9912292266739,314.491000009264L171.13480630278684,306.622308093809L176.27838337889978,298.7696249810379L181.42196045501274,290.78404090274626L186.56553753112567,282.44673563656943L191.70911460723863,273.50652720208217L196.85269168335154,263.7269593939236L201.99626875946447,252.93404219616656L207.1398458355774,241.05539866199877L212.28342291169037,228.14326793125207L217.4269999878033,214.37717398723413L222.57057706391623,200.0462763331862L227.71415414002917,185.51544198987844L232.85773121614207,171.18195568221722L238.00130829225503,157.4308910259724L243.14488536836797,144.59638354955007L248.28846244448093,132.93378582154998L253.43203952059383,122.60473086917555L258.57561659670677,113.67437607027378L263.7191936728197,106.1182571575464L268.86277074893263,99.8355690157628L274.0063478250456,94.66617215604725L279.1499249011585,90.40971826390955L284.2935019772715,86.84637981330611L289.4370790533844,83.75924734498889L294.58065612949736,80.95828813504293L299.7242332056103,78.30492963887097L304.8678102817232,75.73518138895308L310.01138735783616,73.27819035277719L315.15496443394903,71.06664343531905L320.298541510062,69.33573803088203L325.44211858617496,68.40858669455545L330.5856956622879,68.66776251446854L335.7292727384009,70.51493562209785L340.8728498145138,74.32281094936317L346.0164268906267,80.38542622553426L351.1600039667396,88.87390368404256L356.30358104285256,99.80466056847538L361.44715811896555,113.02573623185972L366.5907351950785,128.22438713439186L371.73431227119136,144.95579366974516L376.8778893473043,162.68919193475173L382.0214664234173,180.86468021858778L387.1650434995302,198.9520060475054L392.30862057564315,216.50226727130644L397.452197651756,233.18478887871174L402.59577472786907,248.80422310194223L407.73935180398195,263.2965932284908L412.8829288800949,276.70679164083214L418.0265059562078,289.1531627882502L423.1700830323208,300.7866345773652L428.31366010843374,311.75210194135695L433.4572371845466,322.1584816227147L438.60081426065955,332.0614508076383L443.7443913367725,341.4599730070958L448.88796841288547,350.3049702621985L454.0315454889984,358.5164740015953L459.1751225651113,366.00459787058264L464.31869964122427,372.689768094138L469.4622767173372,378.5186184974107L474.60585379345014,383.47344809744567L479.74943086956307,387.5747423522976L484.89300794567595,390.87762360412154L490.036585021789,393.4639957456946L495.18016209790187,395.4325062650244L500.3237391740148,396.8883227781892L505.46731625012774,397.9342573995351L510.6108933262406,398.6641514753798L515.7544704023536,399.1588206608909L520.8980474784665,399.48437307555173L526.0416245545795,399.6924075535776L531.1852016306924,399.82147581806214L531.1852016306924,400L526.0416245545795,400L520.8980474784665,400L515.7544704023536,400L510.6108933262406,400L505.46731625012774,400L500.3237391740148,400L495.18016209790187,400L490.036585021789,400L484.89300794567595,400L479.74943086956307,400L474.60585379345014,400L469.4622767173372,400L464.31869964122427,400L459.1751225651113,400L454.0315454889984,400L448.88796841288547,400L443.7443913367725,400L438.60081426065955,400L433.4572371845466,400L428.31366010843374,400L423.1700830323208,400L418.0265059562078,400L412.8829288800949,400L407.73935180398195,400L402.59577472786907,400L397.452197651756,400L392.30862057564315,400L387.1650434995302,400L382.0214664234173,400L376.8778893473043,400L371.73431227119136,400L366.5907351950785,400L361.44715811896555,400L356.30358104285256,400L351.1600039667396,400L346.0164268906267,400L340.8728498145138,400L335.7292727384009,400L330.5856956622879,400L325.44211858617496,400L320.298541510062,400L315.15496443394903,400L310.01138735783616,400L304.8678102817232,400L299.7242332056103,400L294.58065612949736,400L289.4370790533844,400L284.2935019772715,400L279.1499249011585,400L274.0063478250456,400L268.86277074893263,400L263.7191936728197,400L258.57561659670677,400L253.43203952059383,400L248.28846244448093,400L243.14488536836797,400L238.00130829225503,400L232.85773121614207,400L227.71415414002917,400L222.57057706391623,400L217.4269999878033,400L212.28342291169037,400L207.1398458355774,400L201.99626875946447,400L196.85269168335154,400L191.70911460723863,400L186.56553753112567,400L181.42196045501274,400L176.27838337889978,400L171.13480630278684,400L165.9912292266739,400L160.847652150561,400L155.70407507444804,400L150.5604979983351,400L145.4169209222222,400L140.27334384610924,400L135.1297667699963,400L129.98618969388338,400L124.84261261777043,400L119.69903554165748,400L114.55545846554458,400L109.41188138943161,400L104.26830431331867,400L99.12472723720576,400L93.98115016109281,400L88.83757308497987,400L83.69399600886695,400L78.550418932754,400L73.40684185664105,400L68.26326478052813,400L63.119687704415185,400L57.976110628302266,400L52.83253355218932,400L47.68895647607637,400L42.54537939996346,400L37.40180232385051,400L32.258225247737556,400L27.114648171624644,400L21.971071095511697,400Z" fill="red" fill-opacity="0.3" stroke="red" stroke-width="1" opacity="1"/></g></g><path class="foreground" aria-hidden="true" d="" display="none"/></g></g><g class="mark-group role-scope" clip-path="url(#clip3)" role="graphics-object" aria-roledescription="group mark container"><g transform="translate(0,0)"><path class="background" aria-hidden="true" d="M0,0h0v0h0Z"/><g><g class="mark-area role-mark" role="graphics-symbol" aria-roledescription="area mark container"><path d="M89.7377656095247,395.77870629602L93.97970172810602,394.94628669744543L98.22163784668732,393.9719002978735L102.46357396526864,392.83600872841953L106.70551008384996,391.5172930335543L110.9474462024313,389.9926595090753L115.18938232101257,388.23728204463214L119.43131843959391,386.2246866645641L123.67325455817523,383.926883818806L127.91519067675652,381.31455363172415L132.15712679533783,378.3572887474915L136.39906291391918,375.02389859735L140.6409990325005,371.2827778446593L144.8829351510818,367.10234043390176L149.12487126966312,362.45151908527976L153.36680738824444,357.3003282535817L157.60874350682573,351.6204865368318L161.85067962540705,345.38609231756146L166.09261574398838,338.5743441005545L170.3345518625697,331.1662946408605L174.57648798115102,323.14762561090083L178.8184240997323,314.5094273208813L183.06036021831363,305.2489659744151L187.30229633689493,295.37041920680707L191.54423245547625,284.88555931235027L195.78616857405757,273.8143627107072L200.0281046926389,262.1855239139592L204.2700408112202,250.03685260540465L208.5119769298015,237.4155334816087L212.75391304838283,224.37823027236766L216.99584916696412,210.9910178463928L221.23778528554544,197.32912951366987L225.47972140412676,183.47651049989406L229.7216575227081,169.5251730161341L233.96359364128944,155.57435327164097L238.20552975987073,141.72947604700653L242.44746587845205,128.10093790367895L246.68940199703334,114.80272558140837L250.93133811561466,101.95089144305558L255.173274234196,89.66191277707023L259.4152103527773,78.05096617521752L263.6571464713586,67.23015189078177L267.8990825899399,57.30670589274243L272.14101870852124,48.38123913224237L276.38295482710254,40.54604422910555L280.62489094568383,33.88350930582176L284.8668270642652,28.46467702326536L289.10876318284653,24.347984028986104L293.3506993014278,21.578212081581015L297.5926354200091,20.185677172010408L301.8345715385904,20.185677172010408L306.07650765717176,21.578212081581015L310.31844377575305,24.347984028986104L314.5603798943344,28.464677023265406L318.8023160129157,33.88350930582176L323.04425213149705,40.54604422910555L327.28618825007834,48.38123913224237L331.52812436865963,57.30670589274247L335.7700604872409,67.23015189078181L340.0119966058223,78.05096617521761L344.25393272440357,89.66191277707027L348.4958688429849,101.95089144305571L352.7378049615662,114.80272558140845L356.97974108014756,128.100937903679L361.2216771987289,141.72947604700653L365.46361331731015,155.57435327164103L369.70554943589144,169.5251730161342L373.9474855544728,183.47651049989412L378.18942167305414,197.32912951366987L382.43135779163543,210.9910178463928L386.67329391021667,224.37823027236766L390.9152300287981,237.4155334816087L395.15716614737937,250.03685260540465L399.39910226596066,262.1855239139592L403.641038384542,273.8143627107072L407.8829745031233,284.88555931235027L412.12491062170466,295.37041920680707L416.3668467402859,305.2489659744151L420.6087828588673,314.5094273208813L424.85071897744854,323.14762561090083L429.0926550960299,331.1662946408605L433.3345912146112,338.5743441005545L437.57652733319253,345.38609231756146L441.8184634517738,351.6204865368318L446.0603995703551,357.3003282535817L450.3023356889365,362.45151908527976L454.54427180751776,367.10234043390176L458.78620792609905,371.2827778446593L463.0281440446804,375.02389859735L467.27008016326175,378.3572887474915L471.51201628184305,381.31455363172415L475.7539524004243,383.926883818806L479.9958885190057,386.2246866645641L484.237824637587,388.23728204463214L488.4797607561683,389.9926595090753L492.7216968747496,391.5172930335543L496.9636329933309,392.83600872841953L501.20556911191227,393.9719002978735L505.4475052304935,394.94628669744543L509.6894413490749,395.77870629602L509.6894413490749,400L505.4475052304935,400L501.20556911191227,400L496.9636329933309,400L492.7216968747496,400L488.4797607561683,400L484.237824637587,400L479.9958885190057,400L475.7539524004243,400L471.51201628184305,400L467.27008016326175,400L463.0281440446804,400L458.78620792609905,400L454.54427180751776,400L450.3023356889365,400L446.0603995703551,400L441.8184634517738,400L437.57652733319253,400L433.3345912146112,400L429.0926550960299,400L424.85071897744854,400L420.6087828588673,400L416.3668467402859,400L412.12491062170466,400L407.8829745031233,400L403.641038384542,400L399.39910226596066,400L395.15716614737937,400L390.9152300287981,400L386.67329391021667,400L382.43135779163543,400L378.18942167305414,400L373.9474855544728,400L369.70554943589144,400L365.46361331731015,400L361.2216771987289,400L356.97974108014756,400L352.7378049615662,400L348.4958688429849,400L344.25393272440357,400L340.0119966058223,400L335.7700604872409,400L331.52812436865963,400L327.28618825007834,400L323.04425213149705,400L318.8023160129157,400L314.5603798943344,400L310.31844377575305,400L306.07650765717176,400L301.8345715385904,400L297.5926354200091,400L293.3506993014278,400L289.10876318284653,400L284.8668270642652,400L280.62489094568383,400L276.38295482710254,400L272.14101870852124,400L267.8990825899399,400L263.6571464713586,400L259.4152103527773,400L255.173274234196,400L250.93133811561466,400L246.68940199703334,400L242.44746587845205,400L238.20552975987073,400L233.96359364128944,400L229.7216575227081,400L225.47972140412676,400L221.23778528554544,400L216.99584916696412,400L212.75391304838283,400L208.5119769298015,400L204.2700408112202,400L200.0281046926389,400L195.78616857405757,400L191.54423245547625,400L187.30229633689493,400L183.06036021831363,400L178.8184240997323,400L174.57648798115102,400L170.3345518625697,400L166.09261574398838,400L161.85067962540705,400L157.60874350682573,400L153.36680738824444,400L149.12487126966312,400L144.8829351510818,400L140.6409990325005,400L136.39906291391918,400L132.15712679533783,400L127.91519067675652,400L123.67325455817523,400L119.43131843959391,400L115.18938232101257,400L110.9474462024313,400L106.70551008384996,400L102.46357396526864,400L98.22163784668732,400L93.97970172810602,400L89.7377656095247,400Z" fill="green" fill-opacity="0.3" stroke="green" stroke-width="1" opacity="1"/></g></g><path class="foreground" aria-hidden="true" d="" display="none"/></g></g></g><path class="foreground" aria-hidden="true" d="" display="none"/></g></g></g><defs><clipPath id="clip1"><rect x="0" y="0" width="600" height="400"/></clipPath><clipPath id="clip2"><rect x="0" y="0" width="600" height="400"/></clipPath><clipPath id="clip3"><rect x="0" y="0" width="600" height="400"/></clipPath></defs></svg>