<svg xmlns="http://www.w3.org/2000/svg" xmlns:xlink="http://www.w3.org/1999/xlink" version="1.1" class="marks" width="801" height="201" viewBox="0 0 801 201"><g fill="none" stroke-miterlimit="10" transform="translate(1,0)"><g class="mark-group role-frame root" role="graphics-object" aria-roledescription="group mark container"><g transform="translate(0,0)"><path class="background" aria-hidden="true" d="M0,0h800v200h-800Z"/><g><g class="mark-group role-axis"><g transform="translate(0.5,201.5)"><path class="background" aria-hidden="true" d="M0,0h0v0h0Z" pointer-events="none"/><g/><path class="foreground" aria-hidden="true" d="" pointer-events="none" display="none"/></g></g><g class="mark-group role-axis"><g transform="translate(-0.5,0.5)"><path class="background" aria-hidden="true" d="M0,0h0v0h0Z" pointer-events="none"/><g/><path class="foreground" aria-hidden="true" d="" pointer-events="none" display="none"/></g></g><g class="mark-group role-scope" clip-path="url(#clip1)" role="graphics-object" aria-roledescription="group mark container"><g transform="translate(0,0)"><path class="background" aria-hidden="true" d="M0,0h0v0h0Z"/><g><g class="mark-line role-mark" role="graphics-symbol" aria-roledescription="line mark container"><path d="M0,100L0.007999966666707319,100L0.003999983333353659,99.16667708331153Z" fill="darkgreen" fill-opacity="0.001" stroke="steelblue" stroke-width="0" stroke-dasharray="0" opacity="1"/></g></g><path class="foreground" aria-hidden="true" d="" display="none"/></g><g transform="translate(0,0)"><path class="background" aria-hidden="true" d="M0,0h0v0h0Z"/><g><g class="mark-line role-mark" role="graphics-symbol" aria-roledescription="line mark container"><path d="M0,100L0.8157331762239961,100L0.40786658811199805,91.59406335477284Z" fill="darkgreen" fill-opacity="0.010100000000000001" stroke="steelblue" stroke-width="0" stroke-dasharray="0" opacity="1"/></g></g><path class="foreground" aria-hidden="true" d="" display="none"/></g><g transform="translate(0,0)"><path class="background" aria-hidden="true" d="M0,0h0v0h0Z"/><g><g class="mark-line role-mark" role="graphics-symbol" aria-roledescription="line mark container"><path d="M0,100L2.944592238576139,100L1.47229611928807,84.07367139428774Z" fill="darkgreen" fill-opacity="0.019200000000000002" stroke="steelblue" stroke-width="0" stroke-dasharray="0" opacity="1"/></g></g><path class="foreground" aria-hidden="true" d="" display="none"/></g><g transform="translate(0,0)"><path class="background" aria-hidden="true" d="M0,0h0v0h0Z"/><g><g class="mark-line role-mark" role="graphics-symbol" aria-roledescription="line mark container"><path d="M0,100L6.385760568008054,100L3.192880284004028,76.65236869681125Z" fill="darkgreen" fill-opacity="0.028300000000000002" stroke="steelblue" stroke-width="0" stroke-dasharray="0" opacity="1"/></g></g><path class="foreground" aria-hidden="true" d="" display="none"/></g><g transform="translate(0,0)"><path class="background" aria-hidden="true" d="M0,0h0v0h0Z"/><g><g class="mark-line role-mark" role="graphics-symbol" aria-roledescription="line mark container"><path d="M0,100L11.124976283654417,100L5.562488141827209,69.37668078464287Z" fill="darkgreen" fill-opacity="0.0374" stroke="steelblue" stroke-width="0" stroke-dasharray="0" opacity="1"/></g></g><path class="foreground" aria-hidden="true" d="" display="none"/></g><g transform="translate(0,0)"><path class="background" aria-hidden="true" d="M0,0h0v0h0Z"/><g><g class="mark-line role-mark" role="graphics-symbol" aria-roledescription="line mark container"><path d="M0,100L17.1425765070946,100L8.571288253547298,62.29263039798225Z" fill="darkgreen" fill-opacity="0.0465" stroke="steelblue" stroke-width="0" stroke-dasharray="0" opacity="1"/></g></g><path class="foreground" aria-hidden="true" d="" display="none"/></g><g transform="translate(0,0)"><path class="background" aria-hidden="true" d="M0,0h0v0h0Z"/><g><g class="mark-line role-mark" role="graphics-symbol" aria-roledescription="line mark container"><path d="M0,100L24.413558457492677,100L12.206779228746337,55.44557814301423Z" fill="darkgreen" fill-opacity="0.055600000000000004" stroke="steelblue" stroke-width="0" stroke-dasharray="0" opacity="1"/></g></g><path class="foreground" aria-hidden="true" d="" display="none"/></g><g transform="translate(0,0)"><path class="background" aria-hidden="true" d="M0,0h0v0h0Z"/><g><g class="mark-line role-mark" role="graphics-symbol" aria-roledescription="line mark container"><path d="M0,100L32.907657175606516,100L16.453828587803258,48.88006506002429Z" fill="darkgreen" fill-opacity="0.06470000000000001" stroke="steelblue" stroke-width="0" stroke-dasharray="0" opacity="1"/></g></g><path class="foreground" aria-hidden="true" d="" display="none"/></g><g transform="translate(0,0)"><path class="background" aria-hidden="true" d="M0,0h0v0h0Z"/><g><g class="mark-line role-mark" role="graphics-symbol" aria-roledescription="line mark container"><path d="M0,100L42.58943966202843,100L21.294719831014216,42.63965756893309Z" fill="darkgreen" fill-opacity="0.0738" stroke="steelblue" stroke-width="0" stroke-dasharray="0" opacity="1"/></g></g><path class="foreground" aria-hidden="true" d="" display="none"/></g><g transform="translate(0,0)"><path class="background" aria-hidden="true" d="M0,0h0v0h0Z"/><g><g class="mark-line role-mark" role="graphics-symbol" aria-roledescription="line mark container"><path d="M0,100L53.41841516961418,100L26.709207584807082,36.76679524330797Z" fill="darkgreen" fill-opacity="0.0829" stroke="steelblue" stroke-width="0" stroke-dasharray="0" opacity="1"/></g></g><path class="foreground" aria-hidden="true" d="" display="none"/></g><g transform="translate(0,0)"><path class="background" aria-hidden="true" d="M0,0h0v0h0Z"/><g><g class="mark-line role-mark" role="graphics-symbol" aria-roledescription="line mark container"><path d="M0,100L65.34916134532452,100L32.67458067266226,31.30264185637639Z" fill="darkgreen" fill-opacity="0.092" stroke="steelblue" stroke-width="0" stroke-dasharray="0" opacity="1"/></g></g><path class="foreground" aria-hidden="true" d="" display="none"/></g><g transform="translate(0,0)"><path class="background" aria-hidden="true" d="M0,0h0v0h0Z"/><g><g class="mark-line role-mark" role="graphics-symbol" aria-roledescription="line mark container"><path d="M0,100L78.3314658727598,100L39.1657329363799,26.28694013384798Z" fill="darkgreen" fill-opacity="0.10110000000000001" stroke="steelblue" stroke-width="0" stroke-dasharray="0" opacity="1"/></g></g><path class="foreground" aria-hidden="true" d="" display="none"/></g><g transform="translate(0,0)"><path class="background" aria-hidden="true" d="M0,0h0v0h0Z"/><g><g class="mark-line role-mark" role="graphics-symbol" aria-roledescription="line mark container"><path d="M0,100L92.31048322362825,100L46.15524161181413,21.757870638473186Z" fill="darkgreen" fill-opacity="0.1102" stroke="steelblue" stroke-width="0" stroke-dasharray="0" opacity="1"/></g></g><path class="foreground" aria-hidden="true" d="" display="none"/></g><g transform="translate(0,0)"><path class="background" aria-hidden="true" d="M0,0h0v0h0Z"/><g><g class="mark-line role-mark" role="graphics-symbol" aria-roledescription="line mark container"><path d="M0,100L107.22690608436241,100L53.613453042181206,17.75191520025028Z" fill="darkgreen" fill-opacity="0.1193" stroke="steelblue" stroke-width="0" stroke-dasharray="0" opacity="1"/></g></g><path class="foreground" aria-hidden="true" d="" display="none"/></g><g transform="translate(0,0)"><path class="background" aria-hidden="true" d="M0,0h0v0h0Z"/><g><g class="mark-line role-mark" role="graphics-symbol" aria-roledescription="line mark container"><path d="M0,100L123.01715098319815,100L61.50857549159908,14.303725294067316Z" fill="darkgreen" fill-opacity="0.12840000000000001" stroke="steelblue" stroke-width="0" stroke-dasharray="0" opacity="1"/></g></g><path class="foreground" aria-hidden="true" d="" display="none"/></g><g transform="translate(0,0)"><path class="background" aria-hidden="true" d="M0,0h0v0h0Z"/><g><g class="mark-line role-mark" role="graphics-symbol" aria-roledescription="line mark container"><path d="M0,100L139.61355760335925,100L69.80677880167961,11.445995753362626Z" fill="darkgreen" fill-opacity="0.1375" stroke="steelblue" stroke-width="0" stroke-dasharray="0" opacity="1"/></g></g><path class="foreground" aria-hidden="true" d="" display="none"/></g><g transform="translate(0,0)"><path class="background" aria-hidden="true" d="M0,0h0v0h0Z"/><g><g class="mark-line role-mark" role="graphics-symbol" aria-roledescription="line mark container"><path d="M0,100L156.94460122965407,100L78.47230061482703,9.209344194139547Z" fill="darkgreen" fill-opacity="0.1466" stroke="steelblue" stroke-width="0" stroke-dasharray="0" opacity="1"/></g></g><path class="foreground" aria-hidden="true" d="" display="none"/></g><g transform="translate(0,0)"><path class="background" aria-hidden="true" d="M0,0h0v0h0Z"/><g><g class="mark-line role-mark" role="graphics-symbol" aria-roledescription="line mark container"><path d="M0,100L174.93511773888898,100L87.46755886944449,7.622196508414603Z" fill="darkgreen" fill-opacity="0.15570000000000003" stroke="steelblue" stroke-width="0" stroke-dasharray="0" opacity="1"/></g></g><path class="foreground" aria-hidden="true" d="" display="none"/></g><g transform="translate(0,0)"><path class="background" aria-hidden="true" d="M0,0h0v0h0Z"/><g><g class="mark-line role-mark" role="graphics-symbol" aria-roledescription="line mark container"><path d="M0,100L193.5065405091309,100L96.75327025456545,6.710678769951528Z" fill="darkgreen" fill-opacity="0.1648" stroke="steelblue" stroke-width="0" stroke-dasharray="0" opacity="1"/></g></g><path class="foreground" aria-hidden="true" d="" display="none"/></g><g transform="translate(0,0)"><path class="background" aria-hidden="true" d="M0,0h0v0h0Z"/><g><g class="mark-line role-mark" role="graphics-symbol" aria-roledescription="line mark container"><path d="M0,100L212.5771485891025,100L106.28857429455122,6.498515877979405Z" fill="darkgreen" fill-opacity="0.1739" stroke="steelblue" stroke-width="0" stroke-dasharray="0" opacity="1"/></g></g><path class="foreground" aria-hidden="true" d="" display="none"/></g><g transform="translate(0,0)"><path class="background" aria-hidden="true" d="M0,0h0v0h0Z"/><g><g class="mark-line role-mark" role="graphics-symbol" aria-roledescription="line mark container"><path d="M0,100L232.06232543695745,100L116.03116271847873,7.00693724655137Z" fill="darkgreen" fill-opacity="0.18299999999999997" stroke="steelblue" stroke-width="0" stroke-dasharray="0" opacity="1"/></g></g><path class="foreground" aria-hidden="true" d="" display="none"/></g><g transform="translate(0,0)"><path class="background" aria-hidden="true" d="M0,0h0v0h0Z"/><g><g class="mark-line role-mark" role="graphics-symbol" aria-roledescription="line mark container"><path d="M0,100L251.87482750744263,100L125.93741375372132,8.254589828321901Z" fill="darkgreen" fill-opacity="0.1921" stroke="steelblue" stroke-width="0" stroke-dasharray="0" opacity="1"/></g></g><path class="foreground" aria-hidden="true" d="" display="none"/></g><g transform="translate(0,0)"><path class="background" aria-hidden="true" d="M0,0h0v0h0Z"/><g><g class="mark-line role-mark" role="graphics-symbol" aria-roledescription="line mark container"><path d="M0,100L271.9250619380896,100L135.9625309690448,10.257458741849469Z" fill="darkgreen" fill-opacity="0.2012" stroke="steelblue" stroke-width="0" stroke-dasharray="0" opacity="1"/></g></g><path class="foreground" aria-hidden="true" d="" display="none"/></g><g transform="translate(0,0)"><path class="background" aria-hidden="true" d="M0,0h0v0h0Z"/><g><g class="mark-line role-mark" role="graphics-symbol" aria-roledescription="line mark container"><path d="M0,100L292.12137255866526,100L146.06068627933263,13.028795751117439Z" fill="darkgreen" fill-opacity="0.21030000000000001" stroke="steelblue" stroke-width="0" stroke-dasharray="0" opacity="1"/></g></g><path class="foreground" aria-hidden="true" d="" display="none"/></g><g transform="translate(0,0)"><path class="background" aria-hidden="true" d="M0,0h0v0h0Z"/><g><g class="mark-line role-mark" role="graphics-symbol" aria-roledescription="line mark container"><path d="M0,100L312.3703334237203,100L156.18516671186015,16.579055824866074Z" fill="darkgreen" fill-opacity="0.21939999999999998" stroke="steelblue" stroke-width="0" stroke-dasharray="0" opacity="1"/></g></g><path class="foreground" aria-hidden="true" d="" display="none"/></g><g transform="translate(0,0)"><path class="background" aria-hidden="true" d="M0,0h0v0h0Z"/><g><g class="mark-line role-mark" role="graphics-symbol" aria-roledescription="line mark container"><path d="M0,100L332.5770490457716,100L166.2885245228858,20.915841981589534Z" fill="darkgreen" fill-opacity="0.2285" stroke="steelblue" stroke-width="0" stroke-dasharray="0" opacity="1"/></g></g><path class="foreground" aria-hidden="true" d="" display="none"/></g><g transform="translate(0,0)"><path class="background" aria-hidden="true" d="M0,0h0v0h0Z"/><g><g class="mark-line role-mark" role="graphics-symbol" aria-roledescription="line mark container"><path d="M0,100L352.6454604864951,100L176.32273024324755,26.043858603733526Z" fill="darkgreen" fill-opacity="0.23759999999999998" stroke="steelblue" stroke-width="0" stroke-dasharray="0" opacity="1"/></g></g><path class="foreground" aria-hidden="true" d="" display="none"/></g><g transform="translate(0,0)"><path class="background" aria-hidden="true" d="M0,0h0v0h0Z"/><g><g class="mark-line role-mark" role="graphics-symbol" aria-roledescription="line mark container"><path d="M0,100L372.47865644535443,100L186.2393282226772,31.964873381788593Z" fill="darkgreen" fill-opacity="0.24670000000000003" stroke="steelblue" stroke-width="0" stroke-dasharray="0" opacity="1"/></g></g><path class="foreground" aria-hidden="true" d="" display="none"/></g><g transform="translate(0,0)"><path class="background" aria-hidden="true" d="M0,0h0v0h0Z"/><g><g class="mark-line role-mark" role="graphics-symbol" aria-roledescription="line mark container"><path d="M0,100L391.97918846938427,100L195.98959423469213,38.67768802566622Z" fill="darkgreen" fill-opacity="0.25579999999999997" stroke="steelblue" stroke-width="0" stroke-dasharray="0" opacity="1"/></g></g><path class="foreground" aria-hidden="true" d="" display="none"/></g><g transform="translate(0,0)"><path class="background" aria-hidden="true" d="M0,0h0v0h0Z"/><g><g class="mark-line role-mark" role="graphics-symbol" aria-roledescription="line mark container"><path d="M0,100L411.0493893944407,100L205.52469469722035,46.178117857033186Z" fill="darkgreen" fill-opacity="0.2649" stroke="steelblue" stroke-width="0" stroke-dasharray="0" opacity="1"/></g></g><path class="foreground" aria-hidden="true" d="" display="none"/></g><g transform="translate(0,0)"><path class="background" aria-hidden="true" d="M0,0h0v0h0Z"/><g><g class="mark-line role-mark" role="graphics-symbol" aria-roledescription="line mark container"><path d="M0,100L429.5916941171525,100L214.79584705857624,54.45898037222086Z" fill="darkgreen" fill-opacity="0.274" stroke="steelblue" stroke-width="0" stroke-dasharray="0" opacity="1"/></g></g><path class="foreground" aria-hidden="true" d="" display="none"/></g><g transform="translate(0,0)"><path class="background" aria-hidden="true" d="M0,0h0v0h0Z"/><g><g class="mark-line role-mark" role="graphics-symbol" aria-roledescription="line mark container"><path d="M0,100L447.50896178809774,100L223.75448089404887,63.510092840986296Z" fill="darkgreen" fill-opacity="0.2831" stroke="steelblue" stroke-width="0" stroke-dasharray="0" opacity="1"/></g></g><path class="foreground" aria-hidden="true" d="" display="none"/></g><g transform="translate(0,0)"><path class="background" aria-hidden="true" d="M0,0h0v0h0Z"/><g><g class="mark-line role-mark" role="graphics-symbol" aria-roledescription="line mark container"><path d="M0,100L464.70479851040886,100L232.35239925520438,73.31827898183892Z" fill="darkgreen" fill-opacity="0.2922" stroke="steelblue" stroke-width="0" stroke-dasharray="0" opacity="1"/></g></g><path class="foreground" aria-hidden="true" d="" display="none"/></g></g><g class="mark-group role-scope" clip-path="url(#clip2)" role="graphics-object" aria-roledescription="group mark container"><g transform="translate(0,0)"><path class="background" aria-hidden="true" d="M0,0h0v0h0Z"/><g><g class="mark-line role-mark" role="graphics-symbol" aria-roledescription="line mark container"><path d="M0,100L0.007999966666707319,100L0.012399948333396348,100.83332291668847Z" fill="darkgreen" fill-opacity="0.001" stroke="steelblue" stroke-width="0" stroke-dasharray="0" opacity="1"/></g></g><path class="foreground" aria-hidden="true" d="" display="none"/></g><g transform="translate(0,0)"><path class="background" aria-hidden="true" d="M0,0h0v0h0Z"/><g><g class="mark-line role-mark" role="graphics-symbol" aria-roledescription="line mark container"><path d="M0,100L0.8157331762239961,100L1.264386423147194,108.40593664522716Z" fill="darkgreen" fill-opacity="0.010100000000000001" stroke="steelblue" stroke-width="0" stroke-dasharray="0" opacity="1"/></g></g><path class="foreground" aria-hidden="true" d="" display="none"/></g><g transform="translate(0,0)"><path class="background" aria-hidden="true" d="M0,0h0v0h0Z"/><g><g class="mark-line role-mark" role="graphics-symbol" aria-roledescription="line mark container"><path d="M0,100L2.944592238576139,100L4.564117969793017,115.92632860571226Z" fill="darkgreen" fill-opacity="0.019200000000000002" stroke="steelblue" stroke-width="0" stroke-dasharray="0" opacity="1"/></g></g><path class="foreground" aria-hidden="true" d="" display="none"/></g><g transform="translate(0,0)"><path class="background" aria-hidden="true" d="M0,0h0v0h0Z"/><g><g class="mark-line role-mark" role="graphics-symbol" aria-roledescription="line mark container"><path d="M0,100L6.385760568008054,100L9.897928880412486,123.34763130318875Z" fill="darkgreen" fill-opacity="0.028300000000000002" stroke="steelblue" stroke-width="0" stroke-dasharray="0" opacity="1"/></g></g><path class="foreground" aria-hidden="true" d="" display="none"/></g><g transform="translate(0,0)"><path class="background" aria-hidden="true" d="M0,0h0v0h0Z"/><g><g class="mark-line role-mark" role="graphics-symbol" aria-roledescription="line mark container"><path d="M0,100L11.124976283654417,100L17.243713239664345,130.62331921535713Z" fill="darkgreen" fill-opacity="0.0374" stroke="steelblue" stroke-width="0" stroke-dasharray="0" opacity="1"/></g></g><path class="foreground" aria-hidden="true" d="" display="none"/></g><g transform="translate(0,0)"><path class="background" aria-hidden="true" d="M0,0h0v0h0Z"/><g><g class="mark-line role-mark" role="graphics-symbol" aria-roledescription="line mark container"><path d="M0,100L17.1425765070946,100L26.57099358599663,137.70736960201774Z" fill="darkgreen" fill-opacity="0.0465" stroke="steelblue" stroke-width="0" stroke-dasharray="0" opacity="1"/></g></g><path class="foreground" aria-hidden="true" d="" display="none"/></g><g transform="translate(0,0)"><path class="background" aria-hidden="true" d="M0,0h0v0h0Z"/><g><g class="mark-line role-mark" role="graphics-symbol" aria-roledescription="line mark container"><path d="M0,100L24.413558457492677,100L37.84101560911364,144.55442185698578Z" fill="darkgreen" fill-opacity="0.055600000000000004" stroke="steelblue" stroke-width="0" stroke-dasharray="0" opacity="1"/></g></g><path class="foreground" aria-hidden="true" d="" display="none"/></g><g transform="translate(0,0)"><path class="background" aria-hidden="true" d="M0,0h0v0h0Z"/><g><g class="mark-line role-mark" role="graphics-symbol" aria-roledescription="line mark container"><path d="M0,100L32.907657175606516,100L51.00686862219009,151.1199349399757Z" fill="darkgreen" fill-opacity="0.06470000000000001" stroke="steelblue" stroke-width="0" stroke-dasharray="0" opacity="1"/></g></g><path class="foreground" aria-hidden="true" d="" display="none"/></g><g transform="translate(0,0)"><path class="background" aria-hidden="true" d="M0,0h0v0h0Z"/><g><g class="mark-line role-mark" role="graphics-symbol" aria-roledescription="line mark container"><path d="M0,100L42.58943966202843,100L66.01363147614407,157.36034243106693Z" fill="darkgreen" fill-opacity="0.0738" stroke="steelblue" stroke-width="0" stroke-dasharray="0" opacity="1"/></g></g><path class="foreground" aria-hidden="true" d="" display="none"/></g><g transform="translate(0,0)"><path class="background" aria-hidden="true" d="M0,0h0v0h0Z"/><g><g class="mark-line role-mark" role="graphics-symbol" aria-roledescription="line mark container"><path d="M0,100L53.41841516961418,100L82.79854351290196,163.23320475669203Z" fill="darkgreen" fill-opacity="0.0829" stroke="steelblue" stroke-width="0" stroke-dasharray="0" opacity="1"/></g></g><path class="foreground" aria-hidden="true" d="" display="none"/></g><g transform="translate(0,0)"><path class="background" aria-hidden="true" d="M0,0h0v0h0Z"/><g><g class="mark-line role-mark" role="graphics-symbol" aria-roledescription="line mark container"><path d="M0,100L65.34916134532452,100L101.29120008525301,168.6973581436236Z" fill="darkgreen" fill-opacity="0.092" stroke="steelblue" stroke-width="0" stroke-dasharray="0" opacity="1"/></g></g><path class="foreground" aria-hidden="true" d="" display="none"/></g><g transform="translate(0,0)"><path class="background" aria-hidden="true" d="M0,0h0v0h0Z"/><g><g class="mark-line role-mark" role="graphics-symbol" aria-roledescription="line mark container"><path d="M0,100L78.3314658727598,100L121.41377210277768,173.713059866152Z" fill="darkgreen" fill-opacity="0.10110000000000001" stroke="steelblue" stroke-width="0" stroke-dasharray="0" opacity="1"/></g></g><path class="foreground" aria-hidden="true" d="" display="none"/></g><g transform="translate(0,0)"><path class="background" aria-hidden="true" d="M0,0h0v0h0Z"/><g><g class="mark-line role-mark" role="graphics-symbol" aria-roledescription="line mark container"><path d="M0,100L92.31048322362825,100L143.0812489966238,178.2421293615268Z" fill="darkgreen" fill-opacity="0.1102" stroke="steelblue" stroke-width="0" stroke-dasharray="0" opacity="1"/></g></g><path class="foreground" aria-hidden="true" d="" display="none"/></g><g transform="translate(0,0)"><path class="background" aria-hidden="true" d="M0,0h0v0h0Z"/><g><g class="mark-line role-mark" role="graphics-symbol" aria-roledescription="line mark container"><path d="M0,100L107.22690608436241,100L166.2017044307617,182.2480847997497Z" fill="darkgreen" fill-opacity="0.1193" stroke="steelblue" stroke-width="0" stroke-dasharray="0" opacity="1"/></g></g><path class="foreground" aria-hidden="true" d="" display="none"/></g><g transform="translate(0,0)"><path class="background" aria-hidden="true" d="M0,0h0v0h0Z"/><g><g class="mark-line role-mark" role="graphics-symbol" aria-roledescription="line mark container"><path d="M0,100L123.01715098319815,100L190.67658402395716,185.69627470593267Z" fill="darkgreen" fill-opacity="0.12840000000000001" stroke="steelblue" stroke-width="0" stroke-dasharray="0" opacity="1"/></g></g><path class="foreground" aria-hidden="true" d="" display="none"/></g><g transform="translate(0,0)"><path class="background" aria-hidden="true" d="M0,0h0v0h0Z"/><g><g class="mark-line role-mark" role="graphics-symbol" aria-roledescription="line mark container"><path d="M0,100L139.61355760335925,100L216.40101428520683,188.55400424663736Z" fill="darkgreen" fill-opacity="0.1375" stroke="steelblue" stroke-width="0" stroke-dasharray="0" opacity="1"/></g></g><path class="foreground" aria-hidden="true" d="" display="none"/></g><g transform="translate(0,0)"><path class="background" aria-hidden="true" d="M0,0h0v0h0Z"/><g><g class="mark-line role-mark" role="graphics-symbol" aria-roledescription="line mark container"><path d="M0,100L156.94460122965407,100L243.2641319059638,190.79065580586047Z" fill="darkgreen" fill-opacity="0.1466" stroke="steelblue" stroke-width="0" stroke-dasharray="0" opacity="1"/></g></g><path class="foreground" aria-hidden="true" d="" display="none"/></g><g transform="translate(0,0)"><path class="background" aria-hidden="true" d="M0,0h0v0h0Z"/><g><g class="mark-line role-mark" role="graphics-symbol" aria-roledescription="line mark container"><path d="M0,100L174.93511773888898,100L271.1494324952779,192.3778034915854Z" fill="darkgreen" fill-opacity="0.15570000000000003" stroke="steelblue" stroke-width="0" stroke-dasharray="0" opacity="1"/></g></g><path class="foreground" aria-hidden="true" d="" display="none"/></g><g transform="translate(0,0)"><path class="background" aria-hidden="true" d="M0,0h0v0h0Z"/><g><g class="mark-line role-mark" role="graphics-symbol" aria-roledescription="line mark container"><path d="M0,100L193.5065405091309,100L299.9351377891529,193.28932123004847Z" fill="darkgreen" fill-opacity="0.1648" stroke="steelblue" stroke-width="0" stroke-dasharray="0" opacity="1"/></g></g><path class="foreground" aria-hidden="true" d="" display="none"/></g><g transform="translate(0,0)"><path class="background" aria-hidden="true" d="M0,0h0v0h0Z"/><g><g class="mark-line role-mark" role="graphics-symbol" aria-roledescription="line mark container"><path d="M0,100L212.5771485891025,100L329.4945803131088,193.5014841220206Z" fill="darkgreen" fill-opacity="0.1739" stroke="steelblue" stroke-width="0" stroke-dasharray="0" opacity="1"/></g></g><path class="foreground" aria-hidden="true" d="" display="none"/></g><g transform="translate(0,0)"><path class="background" aria-hidden="true" d="M0,0h0v0h0Z"/><g><g class="mark-line role-mark" role="graphics-symbol" aria-roledescription="line mark container"><path d="M0,100L232.06232543695745,100L359.69660442728406,192.99306275344864Z" fill="darkgreen" fill-opacity="0.18299999999999997" stroke="steelblue" stroke-width="0" stroke-dasharray="0" opacity="1"/></g></g><path class="foreground" aria-hidden="true" d="" display="none"/></g><g transform="translate(0,0)"><path class="background" aria-hidden="true" d="M0,0h0v0h0Z"/><g><g class="mark-line role-mark" role="graphics-symbol" aria-roledescription="line mark container"><path d="M0,100L251.87482750744263,100L390.40598263653607,191.7454101716781Z" fill="darkgreen" fill-opacity="0.1921" stroke="steelblue" stroke-width="0" stroke-dasharray="0" opacity="1"/></g></g><path class="foreground" aria-hidden="true" d="" display="none"/></g><g transform="translate(0,0)"><path class="background" aria-hidden="true" d="M0,0h0v0h0Z"/><g><g class="mark-line role-mark" role="graphics-symbol" aria-roledescription="line mark container"><path d="M0,100L271.9250619380896,100L421.4838460040388,189.7425412581505Z" fill="darkgreen" fill-opacity="0.2012" stroke="steelblue" stroke-width="0" stroke-dasharray="0" opacity="1"/></g></g><path class="foreground" aria-hidden="true" d="" display="none"/></g><g transform="translate(0,0)"><path class="background" aria-hidden="true" d="M0,0h0v0h0Z"/><g><g class="mark-line role-mark" role="graphics-symbol" aria-roledescription="line mark container"><path d="M0,100L292.12137255866526,100L452.7881274659311,186.97120424888257Z" fill="darkgreen" fill-opacity="0.21030000000000001" stroke="steelblue" stroke-width="0" stroke-dasharray="0" opacity="1"/></g></g><path class="foreground" aria-hidden="true" d="" display="none"/></g><g transform="translate(0,0)"><path class="background" aria-hidden="true" d="M0,0h0v0h0Z"/><g><g class="mark-line role-mark" role="graphics-symbol" aria-roledescription="line mark container"><path d="M0,100L312.3703334237203,100L484.1740168067664,183.4209441751339Z" fill="darkgreen" fill-opacity="0.21939999999999998" stroke="steelblue" stroke-width="0" stroke-dasharray="0" opacity="1"/></g></g><path class="foreground" aria-hidden="true" d="" display="none"/></g><g transform="translate(0,0)"><path class="background" aria-hidden="true" d="M0,0h0v0h0Z"/><g><g class="mark-line role-mark" role="graphics-symbol" aria-roledescription="line mark container"><path d="M0,100L332.5770490457716,100L515.494426020946,179.08415801841045Z" fill="darkgreen" fill-opacity="0.2285" stroke="steelblue" stroke-width="0" stroke-dasharray="0" opacity="1"/></g></g><path class="foreground" aria-hidden="true" d="" display="none"/></g><g transform="translate(0,0)"><path class="background" aria-hidden="true" d="M0,0h0v0h0Z"/><g><g class="mark-line role-mark" role="graphics-symbol" aria-roledescription="line mark container"><path d="M0,100L352.6454604864951,100L546.6004637540675,173.9561413962665Z" fill="darkgreen" fill-opacity="0.23759999999999998" stroke="steelblue" stroke-width="0" stroke-dasharray="0" opacity="1"/></g></g><path class="foreground" aria-hidden="true" d="" display="none"/></g><g transform="translate(0,0)"><path class="background" aria-hidden="true" d="M0,0h0v0h0Z"/><g><g class="mark-line role-mark" role="graphics-symbol" aria-roledescription="line mark container"><path d="M0,100L372.47865644535443,100L577.3419174902994,168.03512661821142Z" fill="darkgreen" fill-opacity="0.24670000000000003" stroke="steelblue" stroke-width="0" stroke-dasharray="0" opacity="1"/></g></g><path class="foreground" aria-hidden="true" d="" display="none"/></g><g transform="translate(0,0)"><path class="background" aria-hidden="true" d="M0,0h0v0h0Z"/><g><g class="mark-line role-mark" role="graphics-symbol" aria-roledescription="line mark container"><path d="M0,100L391.97918846938427,100L607.5677421275456,161.3223119743338Z" fill="darkgreen" fill-opacity="0.25579999999999997" stroke="steelblue" stroke-width="0" stroke-dasharray="0" opacity="1"/></g></g><path class="foreground" aria-hidden="true" d="" display="none"/></g><g transform="translate(0,0)"><path class="background" aria-hidden="true" d="M0,0h0v0h0Z"/><g><g class="mark-line role-mark" role="graphics-symbol" aria-roledescription="line mark container"><path d="M0,100L411.0493893944407,100L637.1265535613832,153.8218821429668Z" fill="darkgreen" fill-opacity="0.2649" stroke="steelblue" stroke-width="0" stroke-dasharray="0" opacity="1"/></g></g><path class="foreground" aria-hidden="true" d="" display="none"/></g><g transform="translate(0,0)"><path class="background" aria-hidden="true" d="M0,0h0v0h0Z"/><g><g class="mark-line role-mark" role="graphics-symbol" aria-roledescription="line mark container"><path d="M0,100L429.5916941171525,100L665.8671258815865,145.54101962777915Z" fill="darkgreen" fill-opacity="0.274" stroke="steelblue" stroke-width="0" stroke-dasharray="0" opacity="1"/></g></g><path class="foreground" aria-hidden="true" d="" display="none"/></g><g transform="translate(0,0)"><path class="background" aria-hidden="true" d="M0,0h0v0h0Z"/><g><g class="mark-line role-mark" role="graphics-symbol" aria-roledescription="line mark container"><path d="M0,100L447.50896178809774,100L693.6388907715515,136.48990715901368Z" fill="darkgreen" fill-opacity="0.2831" stroke="steelblue" stroke-width="0" stroke-dasharray="0" opacity="1"/></g></g><path class="foreground" aria-hidden="true" d="" display="none"/></g><g transform="translate(0,0)"><path class="background" aria-hidden="true" d="M0,0h0v0h0Z"/><g><g class="mark-line role-mark" role="graphics-symbol" aria-roledescription="line mark container"><path d="M0,100L464.70479851040886,100L720.2924376911336,126.68172101816108Z" fill="darkgreen" fill-opacity="0.2922" stroke="steelblue" stroke-width="0" stroke-dasharray="0" opacity="1"/></g></g><path class="foreground" aria-hidden="true" d="" display="none"/></g></g></g><path class="foreground" aria-hidden="true" d="" display="none"/></g></g></g><defs><clipPath id="clip1"><rect x="0" y="0" width="800" height="200"/></clipPath><clipPath id="clip2"><rect x="0" y="0" width="800" height="200"/></clipPath></defs></svg>