<svg xmlns="http://www.w3.org/2000/svg" xmlns:xlink="http://www.w3.org/1999/xlink" version="1.1" class="marks" width="721" height="438" viewBox="0 0 721 438"><g fill="none" stroke-miterlimit="10" transform="translate(37,5)"><g class="mark-group role-frame root" role="graphics-object" aria-roledescription="group mark container"><g transform="translate(0,0)"><path class="background" aria-hidden="true" d="M0,0h600v400h-600Z"/><g><g class="mark-group role-axis" role="graphics-symbol" aria-roledescription="axis" aria-label="X-axis titled 'x' for a linear scale with values from 0 to 100"><g transform="translate(0.5,401.5)"><path class="background" aria-hidden="true" d="M0,0h0v0h0Z" pointer-events="none"/><g><g class="mark-rule role-axis-grid" pointer-events="none"><line transform="translate(0,-1)" x2="0" y2="-400" stroke="lightgray" stroke-width="0.5" stroke-dasharray="0" opacity="1"/><line transform="translate(30,-1)" x2="0" y2="-400" stroke="lightgray" stroke-width="0.5" stroke-dasharray="0" opacity="1"/><line transform="translate(60,-1)" x2="0" y2="-400" stroke="lightgray" stroke-width="0.5" stroke-dasharray="0" opacity="1"/><line transform="translate(90,-1)" x2="0" y2="-400" stroke="lightgray" stroke-width="0.5" stroke-dasharray="0" opacity="1"/><line transform="translate(120,-1)" x2="0" y2="-400" stroke="lightgray" stroke-width="0.5" stroke-dasharray="0" opacity="1"/><line transform="translate(150,-1)" x2="0" y2="-400" stroke="lightgray" stroke-width="0.5" stroke-dasharray="0" opacity="1"/><line transform="translate(180,-1)" x2="0" y2="-400" stroke="lightgray" stroke-width="0.5" stroke-dasharray="0" opacity="1"/><line transform="translate(210,-1)" x2="0" y2="-400" stroke="lightgray" stroke-width="0.5" stroke-dasharray="0" opacity="1"/><line transform="translate(240,-1)" x2="0" y2="-400" stroke="lightgray" stroke-width="0.5" stroke-dasharray="0" opacity="1"/><line transform="translate(270,-1)" x2="0" y2="-400" stroke="lightgray" stroke-width="0.5" stroke-dasharray="0" opacity="1"/><line transform="translate(300,-1)" x2="0" y2="-400" stroke="lightgray" stroke-width="0.5" stroke-dasharray="0" opacity="1"/><line transform="translate(330,-1)" x2="0" y2="-400" stroke="lightgray" stroke-width="0.5" stroke-dasharray="0" opacity="1"/><line transform="translate(360,-1)" x2="0" y2="-400" stroke="lightgray" stroke-width="0.5" stroke-dasharray="0" opacity="1"/><line transform="translate(390,-1)" x2="0" y2="-400" stroke="lightgray" stroke-width="0.5" stroke-dasharray="0" opacity="1"/><line transform="translate(420,-1)" x2="0" y2="-400" stroke="lightgray" stroke-width="0.5" stroke-dasharray="0" opacity="1"/><line transform="translate(450,-1)" x2="0" y2="-400" stroke="lightgray" stroke-width="0.5" stroke-dasharray="0" opacity="1"/><line transform="translate(480,-1)" x2="0" y2="-400" stroke="lightgray" stroke-width="0.5" stroke-dasharray="0" opacity="1"/><line transform="translate(510,-1)" x2="0" y2="-400" stroke="lightgray" stroke-width="0.5" stroke-dasharray="0" opacity="1"/><line transform="translate(540,-1)" x2="0" y2="-400" stroke="lightgray" stroke-width="0.5" stroke-dasharray="0" opacity="1"/><line transform="translate(570,-1)" x2="0" y2="-400" stroke="lightgray" stroke-width="0.5" stroke-dasharray="0" opacity="1"/><line transform="translate(600,-1)" x2="0" y2="-400" stroke="lightgray" stroke-width="0.5" stroke-dasharray="0" opacity="1"/></g><g class="mark-rule role-axis-tick" pointer-events="none"><line transform="translate(0,0)" x2="0" y2="5" stroke="black" stroke-width="1.01" opacity="1"/><line transform="translate(30,0)" x2="0" y2="5" stroke="black" stroke-width="1.01" opacity="1"/><line transform="translate(60,0)" x2="0" y2="5" stroke="black" stroke-width="1.01" opacity="1"/><line transform="translate(90,0)" x2="0" y2="5" stroke="black" stroke-width="1.01" opacity="1"/><line transform="translate(120,0)" x2="0" y2="5" stroke="black" stroke-width="1.01" opacity="1"/><line transform="translate(150,0)" x2="0" y2="5" stroke="black" stroke-width="1.01" opacity="1"/><line transform="translate(180,0)" x2="0" y2="5" stroke="black" stroke-width="1.01" opacity="1"/><line transform="translate(210,0)" x2="0" y2="5" stroke="black" stroke-width="1.01" opacity="1"/><line transform="translate(240,0)" x2="0" y2="5" stroke="black" stroke-width="1.01" opacity="1"/><line transform="translate(270,0)" x2="0" y2="5" stroke="black" stroke-width="1.01" opacity="1"/><line transform="translate(300,0)" x2="0" y2="5" stroke="black" stroke-width="1.01" opacity="1"/><line transform="translate(330,0)" x2="0" y2="5" stroke="black" stroke-width="1.01" opacity="1"/><line transform="translate(360,0)" x2="0" y2="5" stroke="black" stroke-width="1.01" opacity="1"/><line transform="translate(390,0)" x2="0" y2="5" stroke="black" stroke-width="1.01" opacity="1"/><line transform="translate(420,0)" x2="0" y2="5" stroke="black" stroke-width="1.01" opacity="1"/><line transform="translate(450,0)" x2="0" y2="5" stroke="black" stroke-width="1.01" opacity="1"/><line transform="translate(480,0)" x2="0" y2="5" stroke="black" stroke-width="1.01" opacity="1"/><line transform="translate(510,0)" x2="0" y2="5" stroke="black" stroke-width="1.01" opacity="1"/><line transform="translate(540,0)" x2="0" y2="5" stroke="black" stroke-width="1.01" opacity="1"/><line transform="translate(570,0)" x2="0" y2="5" stroke="black" stroke-width="1.01" opacity="1"/><line transform="translate(600,0)" x2="0" y2="5" stroke="black" stroke-width="1.01" opacity="1"/></g><g class="mark-text role-axis-label" pointer-events="none"><text text-anchor="middle" transform="translate(0,15)" font-family="sans-serif" font-size="10px" font-style="normal" font-weight="400" fill="black" opacity="1">0</text><text text-anchor="middle" transform="translate(30,15)" font-family="sans-serif" font-size="10px" font-style="normal" font-weight="400" fill="black" opacity="1">5</text><text text-anchor="middle" transform="translate(60,15)" font-family="sans-serif" font-size="10px" font-style="normal" font-weight="400" fill="black" opacity="1">10</text><text text-anchor="middle" transform="translate(90,15)" font-family="sans-serif" font-size="10px" font-style="normal" font-weight="400" fill="black" opacity="1">15</text><text text-anchor="middle" transform="translate(120,15)" font-family="sans-serif" font-size="10px" font-style="normal" font-weight="400" fill="black" opacity="1">20</text><text text-anchor="middle" transform="translate(150,15)" font-family="sans-serif" font-size="10px" font-style="normal" font-weight="400" fill="black" opacity="1">25</text><text text-anchor="middle" transform="translate(180,15)" font-family="sans-serif" font-size="10px" font-style="normal" font-weight="400" fill="black" opacity="1">30</text><text text-anchor="middle" transform="translate(210,15)" font-family="sans-serif" font-size="10px" font-style="normal" font-weight="400" fill="black" opacity="1">35</text><text text-anchor="middle" transform="translate(240,15)" font-family="sans-serif" font-size="10px" font-style="normal" font-weight="400" fill="black" opacity="1">40</text><text text-anchor="middle" transform="translate(270,15)" font-family="sans-serif" font-size="10px" font-style="normal" font-weight="400" fill="black" opacity="1">45</text><text text-anchor="middle" transform="translate(300,15)" font-family="sans-serif" font-size="10px" font-style="normal" font-weight="400" fill="black" opacity="1">50</text><text text-anchor="middle" transform="translate(330,15)" font-family="sans-serif" font-size="10px" font-style="normal" font-weight="400" fill="black" opacity="1">55</text><text text-anchor="middle" transform="translate(360,15)" font-family="sans-serif" font-size="10px" font-style="normal" font-weight="400" fill="black" opacity="1">60</text><text text-anchor="middle" transform="translate(390,15)" font-family="sans-serif" font-size="10px" font-style="normal" font-weight="400" fill="black" opacity="1">65</text><text text-anchor="middle" transform="translate(420,15)" font-family="sans-serif" font-size="10px" font-style="normal" font-weight="400" fill="black" opacity="1">70</text><text text-anchor="middle" transform="translate(450,15)" font-family="sans-serif" font-size="10px" font-style="normal" font-weight="400" fill="black" opacity="1">75</text><text text-anchor="middle" transform="translate(480,15)" font-family="sans-serif" font-size="10px" font-style="normal" font-weight="400" fill="black" opacity="1">80</text><text text-anchor="middle" transform="translate(510,15)" font-family="sans-serif" font-size="10px" font-style="normal" font-weight="400" fill="black" opacity="1">85</text><text text-anchor="middle" transform="translate(540,15)" font-family="sans-serif" font-size="10px" font-style="normal" font-weight="400" fill="black" opacity="1">90</text><text text-anchor="middle" transform="translate(570,15)" font-family="sans-serif" font-size="10px" font-style="normal" font-weight="400" fill="black" opacity="1">95</text><text text-anchor="middle" transform="translate(600,15)" font-family="sans-serif" font-size="10px" font-style="normal" font-weight="400" fill="black" opacity="1">100</text></g><g class="mark-rule role-axis-domain" pointer-events="none"><line transform="translate(0,0)" x2="600" y2="0" stroke="black" stroke-width="1.01" opacity="1"/></g><g class="mark-text role-axis-title" pointer-events="none"><text text-anchor="middle" transform="translate(300,30)" font-family="sans-serif" font-size="11px" font-style="normal" font-weight="400" fill="black" opacity="1">x</text></g></g><path class="foreground" aria-hidden="true" d="" pointer-events="none" display="none"/></g></g><g class="mark-group role-axis" role="graphics-symbol" aria-roledescription="axis" aria-label="Y-axis titled 'y2' for a linear scale with values from 5.0 to 6.0"><g transform="translate(-0.5,0.5)"><path class="background" aria-hidden="true" d="M0,0h0v0h0Z" pointer-events="none"/><g><g class="mark-rule role-axis-grid" pointer-events="none"><line transform="translate(1,400)" x2="600" y2="0" stroke="lightgray" stroke-width="0.5" stroke-dasharray="0" opacity="1"/><line transform="translate(1,360)" x2="600" y2="0" stroke="lightgray" stroke-width="0.5" stroke-dasharray="0" opacity="1"/><line transform="translate(1,320)" x2="600" y2="0" stroke="lightgray" stroke-width="0.5" stroke-dasharray="0" opacity="1"/><line transform="translate(1,280)" x2="600" y2="0" stroke="lightgray" stroke-width="0.5" stroke-dasharray="0" opacity="1"/><line transform="translate(1,240)" x2="600" y2="0" stroke="lightgray" stroke-width="0.5" stroke-dasharray="0" opacity="1"/><line transform="translate(1,200)" x2="600" y2="0" stroke="lightgray" stroke-width="0.5" stroke-dasharray="0" opacity="1"/><line transform="translate(1,160)" x2="600" y2="0" stroke="lightgray" stroke-width="0.5" stroke-dasharray="0" opacity="1"/><line transform="translate(1,120)" x2="600" y2="0" stroke="lightgray" stroke-width="0.5" stroke-dasharray="0" opacity="1"/><line transform="translate(1,80)" x2="600" y2="0" stroke="lightgray" stroke-width="0.5" stroke-dasharray="0" opacity="1"/><line transform="translate(1,40)" x2="600" y2="0" stroke="lightgray" stroke-width="0.5" stroke-dasharray="0" opacity="1"/><line transform="translate(1,0)" x2="600" y2="0" stroke="lightgray" stroke-width="0.5" stroke-dasharray="0" opacity="1"/></g><g class="mark-rule role-axis-tick" pointer-events="none"><line transform="translate(0,400)" x2="-5" y2="0" stroke="black" stroke-width="1.01" opacity="1"/><line transform="translate(0,360)" x2="-5" y2="0" stroke="black" stroke-width="1.01" opacity="1"/><line transform="translate(0,320)" x2="-5" y2="0" stroke="black" stroke-width="1.01" opacity="1"/><line transform="translate(0,280)" x2="-5" y2="0" stroke="black" stroke-width="1.01" opacity="1"/><line transform="translate(0,240)" x2="-5" y2="0" stroke="black" stroke-width="1.01" opacity="1"/><line transform="translate(0,200)" x2="-5" y2="0" stroke="black" stroke-width="1.01" opacity="1"/><line transform="translate(0,160)" x2="-5" y2="0" stroke="black" stroke-width="1.01" opacity="1"/><line transform="translate(0,120)" x2="-5" y2="0" stroke="black" stroke-width="1.01" opacity="1"/><line transform="translate(0,80)" x2="-5" y2="0" stroke="black" stroke-width="1.01" opacity="1"/><line transform="translate(0,40)" x2="-5" y2="0" stroke="black" stroke-width="1.01" opacity="1"/><line transform="translate(0,0)" x2="-5" y2="0" stroke="black" stroke-width="1.01" opacity="1"/></g><g class="mark-text role-axis-label" pointer-events="none"><text text-anchor="end" transform="translate(-7,403)" font-family="sans-serif" font-size="10px" font-style="normal" font-weight="400" fill="black" opacity="1">5.0</text><text text-anchor="end" transform="translate(-7,363.0000000000001)" font-family="sans-serif" font-size="10px" font-style="normal" font-weight="400" fill="black" opacity="1">5.1</text><text text-anchor="end" transform="translate(-7,322.99999999999994)" font-family="sans-serif" font-size="10px" font-style="normal" font-weight="400" fill="black" opacity="1">5.2</text><text text-anchor="end" transform="translate(-7,283.00000000000006)" font-family="sans-serif" font-size="10px" font-style="normal" font-weight="400" fill="black" opacity="1">5.3</text><text text-anchor="end" transform="translate(-7,242.99999999999986)" font-family="sans-serif" font-size="10px" font-style="normal" font-weight="400" fill="black" opacity="1">5.4</text><text text-anchor="end" transform="translate(-7,203)" font-family="sans-serif" font-size="10px" font-style="normal" font-weight="400" fill="black" opacity="1">5.5</text><text text-anchor="end" transform="translate(-7,163.00000000000014)" font-family="sans-serif" font-size="10px" font-style="normal" font-weight="400" fill="black" opacity="1">5.6</text><text text-anchor="end" transform="translate(-7,122.99999999999993)" font-family="sans-serif" font-size="10px" font-style="normal" font-weight="400" fill="black" opacity="1">5.7</text><text text-anchor="end" transform="translate(-7,83.00000000000007)" font-family="sans-serif" font-size="10px" font-style="normal" font-weight="400" fill="black" opacity="1">5.8</text><text text-anchor="end" transform="translate(-7,42.99999999999986)" font-family="sans-serif" font-size="10px" font-style="normal" font-weight="400" fill="black" opacity="1">5.9</text><text text-anchor="end" transform="translate(-7,3)" font-family="sans-serif" font-size="10px" font-style="normal" font-weight="400" fill="black" opacity="1">6.0</text></g><g class="mark-rule role-axis-domain" pointer-events="none"><line transform="translate(0,400)" x2="0" y2="-400" stroke="black" stroke-width="1.01" opacity="1"/></g><g class="mark-text role-axis-title" pointer-events="none"><text text-anchor="middle" transform="translate(-24.9013671875,200) rotate(-90) translate(0,-2)" font-family="sans-serif" font-size="11px" font-style="normal" font-weight="400" fill="black" opacity="1">y2</text></g></g><path class="foreground" aria-hidden="true" d="" pointer-events="none" display="none"/></g></g><g class="mark-group role-axis" role="graphics-symbol" aria-roledescription="axis" aria-label="Y-axis titled 'y2' for a linear scale with values from 5.0 to 6.0"><g transform="translate(601.5,0.5)"><path class="background" aria-hidden="true" d="M0,0h0v0h0Z" pointer-events="none"/><g><g class="mark-rule role-axis-tick" pointer-events="none"><line transform="translate(0,400)" x2="5" y2="0" stroke="black" stroke-width="1.01" opacity="1"/><line transform="translate(0,360)" x2="5" y2="0" stroke="black" stroke-width="1.01" opacity="1"/><line transform="translate(0,320)" x2="5" y2="0" stroke="black" stroke-width="1.01" opacity="1"/><line transform="translate(0,280)" x2="5" y2="0" stroke="black" stroke-width="1.01" opacity="1"/><line transform="translate(0,240)" x2="5" y2="0" stroke="black" stroke-width="1.01" opacity="1"/><line transform="translate(0,200)" x2="5" y2="0" stroke="black" stroke-width="1.01" opacity="1"/><line transform="translate(0,160)" x2="5" y2="0" stroke="black" stroke-width="1.01" opacity="1"/><line transform="translate(0,120)" x2="5" y2="0" stroke="black" stroke-width="1.01" opacity="1"/><line transform="translate(0,80)" x2="5" y2="0" stroke="black" stroke-width="1.01" opacity="1"/><line transform="translate(0,40)" x2="5" y2="0" stroke="black" stroke-width="1.01" opacity="1"/><line transform="translate(0,0)" x2="5" y2="0" stroke="black" stroke-width="1.01" opacity="1"/></g><g class="mark-text role-axis-label" pointer-events="none"><text text-anchor="start" transform="translate(7,403)" font-family="sans-serif" font-size="10px" font-style="normal" font-weight="400" fill="black" opacity="1">5.0</text><text text-anchor="start" transform="translate(7,363.0000000000001)" font-family="sans-serif" font-size="10px" font-style="normal" font-weight="400" fill="black" opacity="1">5.1</text><text text-anchor="start" transform="translate(7,322.99999999999994)" font-family="sans-serif" font-size="10px" font-style="normal" font-weight="400" fill="black" opacity="1">5.2</text><text text-anchor="start" transform="translate(7,283.00000000000006)" font-family="sans-serif" font-size="10px" font-style="normal" font-weight="400" fill="black" opacity="1">5.3</text><text text-anchor="start" transform="translate(7,242.99999999999986)" font-family="sans-serif" font-size="10px" font-style="normal" font-weight="400" fill="black" opacity="1">5.4</text><text text-anchor="start" transform="translate(7,203)" font-family="sans-serif" font-size="10px" font-style="normal" font-weight="400" fill="black" opacity="1">5.5</text><text text-anchor="start" transform="translate(7,163.00000000000014)" font-family="sans-serif" font-size="10px" font-style="normal" font-weight="400" fill="black" opacity="1">5.6</text><text text-anchor="start" transform="translate(7,122.99999999999993)" font-family="sans-serif" font-size="10px" font-style="normal" font-weight="400" fill="black" opacity="1">5.7</text><text text-anchor="start" transform="translate(7,83.00000000000007)" font-family="sans-serif" font-size="10px" font-style="normal" font-weight="400" fill="black" opacity="1">5.8</text><text text-anchor="start" transform="translate(7,42.99999999999986)" font-family="sans-serif" font-size="10px" font-style="normal" font-weight="400" fill="black" opacity="1">5.9</text><text text-anchor="start" transform="translate(7,3)" font-family="sans-serif" font-size="10px" font-style="normal" font-weight="400" fill="black" opacity="1">6.0</text></g><g class="mark-rule role-axis-domain" pointer-events="none"><line transform="translate(0,400)" x2="0" y2="-400" stroke="black" stroke-width="1.01" opacity="1"/></g><g class="mark-text role-axis-title" pointer-events="none"><text text-anchor="middle" transform="translate(24.9013671875,200) rotate(90) translate(0,-2)" font-family="sans-serif" font-size="11px" font-style="normal" font-weight="400" fill="black" opacity="1">y2</text></g></g><path class="foreground" aria-hidden="true" d="" pointer-events="none" display="none"/></g></g><g class="mark-group role-scope" clip-path="url(#clip1)" role="graphics-object" aria-roledescription="group mark container"><g transform="translate(0,0)"><path class="background" aria-hidden="true" d="M0,0h0v0h0Z"/><g><g class="mark-line role-mark" role="graphics-symbol" aria-roledescription="line mark container"><path d="M6,7.823916072084103L18,63.640266061758055L24,219.83347580949192L30,369.9034032323958L36,174.89535869138456L42.00000000000001,129.9138384635249L48,199.255766848184L60,210.3168164284689L66,370.8617784281472L78,138.1626809508674L84.00000000000001,167.74763056687368L90,90.77130812928047L96,273.55599407256756L108,237.9254400376215L114,272.1441889779168L120,47.96499759689432L126,184.2764543792942L132,243.7707330088962L138,17.204272412305954L144,286.48533400298106L186,48.84912025553483L192,279.28872274863573L216,254.95459825719104L228,257.4748242942309L234,393.22524841687357L240,123.12466854547175L245.99999999999997,334.29807748216405L252,251.38665798553427L258,210.71825452552133L276,212.24352145052805L318,314.0996104789558L324,375.5275247865658L330,205.6853384765123L348,311.6946994715221L354,395.38810378229243L360,135.28950181664464L372,324.8746088028707L378,327.98937187766484L384,49.24370826303743L390,378.78403487247175L402,321.11879556400777L408.00000000000006,380.00760836003843L450,58.47630570774349L456,105.41758070664144L468,234.86862905396572L480,267.75890573517637L504,312.9252124319535L516,290.89975024669565L528,195.66108100029817L534,331.19439720031994L540,210.64653880908537L570,320.9414426481956L576,384.18573449404437L582,159.80509559214903L588,136.42861435717924L594,363.89691027481314L600,236.92742338546964" stroke="#4c78a8" stroke-width="1" stroke-dasharray="0" opacity="1"/></g></g><path class="foreground" aria-hidden="true" d="" display="none"/></g><g transform="translate(0,0)"><path class="background" aria-hidden="true" d="M0,0h0v0h0Z"/><g><g class="mark-line role-mark" role="graphics-symbol" aria-roledescription="line mark container"><path d="M12,172.61506457019422L54,89.6650567080119L72,13.420691509319838L102.00000000000001,218.44788655523325L150,188.79946027249622L156,86.76250621225954L162,31.36152691835221L168.00000000000003,261.36862322712136L174,218.81333927857014L180,357.3314514867782L198,200.5936019893877L204.00000000000003,210.53618371918537L210,244.94178268094586L222,272.26103941401794L264,218.37266738552543L270,127.4127998258404L282,224.83318722179888L288,172.06737989158432L294,11.542631141976756L300,117.24828770580622L306,93.62988236791026L312,67.16097387456728L336.00000000000006,145.78187213704936L341.99999999999994,27.848584072476967L366,90.56345670433501L396,179.2905327106542L413.99999999999994,334.75950570486253L420,158.80924660244665L426,7.6585362816068425L432,362.0434281691459L438,357.39319012833624L444,158.44569107659154L462,98.37617090448454L474,339.6657866740295L486.00000000000006,223.14422560925954L491.99999999999994,208.09056098189345L498,289.18458852435265L510,21.77969987920285L522,36.83427839468081L546,143.31408190180213L552,156.48581675807307L558,28.13282763580567L564,150.61672581347878" stroke="#f58518" stroke-width="1" stroke-dasharray="0" opacity="1"/></g></g><path class="foreground" aria-hidden="true" d="" display="none"/></g></g><g class="mark-group role-scope" clip-path="url(#clip2)" role="graphics-object" aria-roledescription="group mark container"><g transform="translate(0,0)"><path class="background" aria-hidden="true" d="M0,0h0v0h0Z"/><g><g class="mark-symbol role-mark" role="graphics-symbol" aria-roledescription="symbol mark container"><path transform="translate(6,7.823916072084103)" d="M3.5355339059327378,0A3.5355339059327378,3.5355339059327378,0,1,1,-3.5355339059327378,0A3.5355339059327378,3.5355339059327378,0,1,1,3.5355339059327378,0" fill="white" stroke="#4c78a8" stroke-width="1" opacity="1"/><path transform="translate(18,63.640266061758055)" d="M3.5355339059327378,0A3.5355339059327378,3.5355339059327378,0,1,1,-3.5355339059327378,0A3.5355339059327378,3.5355339059327378,0,1,1,3.5355339059327378,0" fill="white" stroke="#4c78a8" stroke-width="1" opacity="1"/><path transform="translate(24,219.83347580949192)" d="M3.5355339059327378,0A3.5355339059327378,3.5355339059327378,0,1,1,-3.5355339059327378,0A3.5355339059327378,3.5355339059327378,0,1,1,3.5355339059327378,0" fill="white" stroke="#4c78a8" stroke-width="1" opacity="1"/><path transform="translate(30,369.9034032323958)" d="M3.5355339059327378,0A3.5355339059327378,3.5355339059327378,0,1,1,-3.5355339059327378,0A3.5355339059327378,3.5355339059327378,0,1,1,3.5355339059327378,0" fill="white" stroke="#4c78a8" stroke-width="1" opacity="1"/><path transform="translate(36,174.89535869138456)" d="M3.5355339059327378,0A3.5355339059327378,3.5355339059327378,0,1,1,-3.5355339059327378,0A3.5355339059327378,3.5355339059327378,0,1,1,3.5355339059327378,0" fill="white" stroke="#4c78a8" stroke-width="1" opacity="1"/><path transform="translate(42.00000000000001,129.9138384635249)" d="M3.5355339059327378,0A3.5355339059327378,3.5355339059327378,0,1,1,-3.5355339059327378,0A3.5355339059327378,3.5355339059327378,0,1,1,3.5355339059327378,0" fill="white" stroke="#4c78a8" stroke-width="1" opacity="1"/><path transform="translate(48,199.255766848184)" d="M3.5355339059327378,0A3.5355339059327378,3.5355339059327378,0,1,1,-3.5355339059327378,0A3.5355339059327378,3.5355339059327378,0,1,1,3.5355339059327378,0" fill="white" stroke="#4c78a8" stroke-width="1" opacity="1"/><path transform="translate(60,210.3168164284689)" d="M3.5355339059327378,0A3.5355339059327378,3.5355339059327378,0,1,1,-3.5355339059327378,0A3.5355339059327378,3.5355339059327378,0,1,1,3.5355339059327378,0" fill="white" stroke="#4c78a8" stroke-width="1" opacity="1"/><path transform="translate(66,370.8617784281472)" d="M3.5355339059327378,0A3.5355339059327378,3.5355339059327378,0,1,1,-3.5355339059327378,0A3.5355339059327378,3.5355339059327378,0,1,1,3.5355339059327378,0" fill="white" stroke="#4c78a8" stroke-width="1" opacity="1"/><path transform="translate(78,138.1626809508674)" d="M3.5355339059327378,0A3.5355339059327378,3.5355339059327378,0,1,1,-3.5355339059327378,0A3.5355339059327378,3.5355339059327378,0,1,1,3.5355339059327378,0" fill="white" stroke="#4c78a8" stroke-width="1" opacity="1"/><path transform="translate(84.00000000000001,167.74763056687368)" d="M3.5355339059327378,0A3.5355339059327378,3.5355339059327378,0,1,1,-3.5355339059327378,0A3.5355339059327378,3.5355339059327378,0,1,1,3.5355339059327378,0" fill="white" stroke="#4c78a8" stroke-width="1" opacity="1"/><path transform="translate(90,90.77130812928047)" d="M3.5355339059327378,0A3.5355339059327378,3.5355339059327378,0,1,1,-3.5355339059327378,0A3.5355339059327378,3.5355339059327378,0,1,1,3.5355339059327378,0" fill="white" stroke="#4c78a8" stroke-width="1" opacity="1"/><path transform="translate(96,273.55599407256756)" d="M3.5355339059327378,0A3.5355339059327378,3.5355339059327378,0,1,1,-3.5355339059327378,0A3.5355339059327378,3.5355339059327378,0,1,1,3.5355339059327378,0" fill="white" stroke="#4c78a8" stroke-width="1" opacity="1"/><path transform="translate(108,237.9254400376215)" d="M3.5355339059327378,0A3.5355339059327378,3.5355339059327378,0,1,1,-3.5355339059327378,0A3.5355339059327378,3.5355339059327378,0,1,1,3.5355339059327378,0" fill="white" stroke="#4c78a8" stroke-width="1" opacity="1"/><path transform="translate(114,272.1441889779168)" d="M3.5355339059327378,0A3.5355339059327378,3.5355339059327378,0,1,1,-3.5355339059327378,0A3.5355339059327378,3.5355339059327378,0,1,1,3.5355339059327378,0" fill="white" stroke="#4c78a8" stroke-width="1" opacity="1"/><path transform="translate(120,47.96499759689432)" d="M3.5355339059327378,0A3.5355339059327378,3.5355339059327378,0,1,1,-3.5355339059327378,0A3.5355339059327378,3.5355339059327378,0,1,1,3.5355339059327378,0" fill="white" stroke="#4c78a8" stroke-width="1" opacity="1"/><path transform="translate(126,184.2764543792942)" d="M3.5355339059327378,0A3.5355339059327378,3.5355339059327378,0,1,1,-3.5355339059327378,0A3.5355339059327378,3.5355339059327378,0,1,1,3.5355339059327378,0" fill="white" stroke="#4c78a8" stroke-width="1" opacity="1"/><path transform="translate(132,243.7707330088962)" d="M3.5355339059327378,0A3.5355339059327378,3.5355339059327378,0,1,1,-3.5355339059327378,0A3.5355339059327378,3.5355339059327378,0,1,1,3.5355339059327378,0" fill="white" stroke="#4c78a8" stroke-width="1" opacity="1"/><path transform="translate(138,17.204272412305954)" d="M3.5355339059327378,0A3.5355339059327378,3.5355339059327378,0,1,1,-3.5355339059327378,0A3.5355339059327378,3.5355339059327378,0,1,1,3.5355339059327378,0" fill="white" stroke="#4c78a8" stroke-width="1" opacity="1"/><path transform="translate(144,286.48533400298106)" d="M3.5355339059327378,0A3.5355339059327378,3.5355339059327378,0,1,1,-3.5355339059327378,0A3.5355339059327378,3.5355339059327378,0,1,1,3.5355339059327378,0" fill="white" stroke="#4c78a8" stroke-width="1" opacity="1"/><path transform="translate(186,48.84912025553483)" d="M3.5355339059327378,0A3.5355339059327378,3.5355339059327378,0,1,1,-3.5355339059327378,0A3.5355339059327378,3.5355339059327378,0,1,1,3.5355339059327378,0" fill="white" stroke="#4c78a8" stroke-width="1" opacity="1"/><path transform="translate(192,279.28872274863573)" d="M3.5355339059327378,0A3.5355339059327378,3.5355339059327378,0,1,1,-3.5355339059327378,0A3.5355339059327378,3.5355339059327378,0,1,1,3.5355339059327378,0" fill="white" stroke="#4c78a8" stroke-width="1" opacity="1"/><path transform="translate(216,254.95459825719104)" d="M3.5355339059327378,0A3.5355339059327378,3.5355339059327378,0,1,1,-3.5355339059327378,0A3.5355339059327378,3.5355339059327378,0,1,1,3.5355339059327378,0" fill="white" stroke="#4c78a8" stroke-width="1" opacity="1"/><path transform="translate(228,257.4748242942309)" d="M3.5355339059327378,0A3.5355339059327378,3.5355339059327378,0,1,1,-3.5355339059327378,0A3.5355339059327378,3.5355339059327378,0,1,1,3.5355339059327378,0" fill="white" stroke="#4c78a8" stroke-width="1" opacity="1"/><path transform="translate(234,393.22524841687357)" d="M3.5355339059327378,0A3.5355339059327378,3.5355339059327378,0,1,1,-3.5355339059327378,0A3.5355339059327378,3.5355339059327378,0,1,1,3.5355339059327378,0" fill="white" stroke="#4c78a8" stroke-width="1" opacity="1"/><path transform="translate(240,123.12466854547175)" d="M3.5355339059327378,0A3.5355339059327378,3.5355339059327378,0,1,1,-3.5355339059327378,0A3.5355339059327378,3.5355339059327378,0,1,1,3.5355339059327378,0" fill="white" stroke="#4c78a8" stroke-width="1" opacity="1"/><path transform="translate(245.99999999999997,334.29807748216405)" d="M3.5355339059327378,0A3.5355339059327378,3.5355339059327378,0,1,1,-3.5355339059327378,0A3.5355339059327378,3.5355339059327378,0,1,1,3.5355339059327378,0" fill="white" stroke="#4c78a8" stroke-width="1" opacity="1"/><path transform="translate(252,251.38665798553427)" d="M3.5355339059327378,0A3.5355339059327378,3.5355339059327378,0,1,1,-3.5355339059327378,0A3.5355339059327378,3.5355339059327378,0,1,1,3.5355339059327378,0" fill="white" stroke="#4c78a8" stroke-width="1" opacity="1"/><path transform="translate(258,210.71825452552133)" d="M3.5355339059327378,0A3.5355339059327378,3.5355339059327378,0,1,1,-3.5355339059327378,0A3.5355339059327378,3.5355339059327378,0,1,1,3.5355339059327378,0" fill="white" stroke="#4c78a8" stroke-width="1" opacity="1"/><path transform="translate(276,212.24352145052805)" d="M3.5355339059327378,0A3.5355339059327378,3.5355339059327378,0,1,1,-3.5355339059327378,0A3.5355339059327378,3.5355339059327378,0,1,1,3.5355339059327378,0" fill="white" stroke="#4c78a8" stroke-width="1" opacity="1"/><path transform="translate(318,314.0996104789558)" d="M3.5355339059327378,0A3.5355339059327378,3.5355339059327378,0,1,1,-3.5355339059327378,0A3.5355339059327378,3.5355339059327378,0,1,1,3.5355339059327378,0" fill="white" stroke="#4c78a8" stroke-width="1" opacity="1"/><path transform="translate(324,375.5275247865658)" d="M3.5355339059327378,0A3.5355339059327378,3.5355339059327378,0,1,1,-3.5355339059327378,0A3.5355339059327378,3.5355339059327378,0,1,1,3.5355339059327378,0" fill="white" stroke="#4c78a8" stroke-width="1" opacity="1"/><path transform="translate(330,205.6853384765123)" d="M3.5355339059327378,0A3.5355339059327378,3.5355339059327378,0,1,1,-3.5355339059327378,0A3.5355339059327378,3.5355339059327378,0,1,1,3.5355339059327378,0" fill="white" stroke="#4c78a8" stroke-width="1" opacity="1"/><path transform="translate(348,311.6946994715221)" d="M3.5355339059327378,0A3.5355339059327378,3.5355339059327378,0,1,1,-3.5355339059327378,0A3.5355339059327378,3.5355339059327378,0,1,1,3.5355339059327378,0" fill="white" stroke="#4c78a8" stroke-width="1" opacity="1"/><path transform="translate(354,395.38810378229243)" d="M3.5355339059327378,0A3.5355339059327378,3.5355339059327378,0,1,1,-3.5355339059327378,0A3.5355339059327378,3.5355339059327378,0,1,1,3.5355339059327378,0" fill="white" stroke="#4c78a8" stroke-width="1" opacity="1"/><path transform="translate(360,135.28950181664464)" d="M3.5355339059327378,0A3.5355339059327378,3.5355339059327378,0,1,1,-3.5355339059327378,0A3.5355339059327378,3.5355339059327378,0,1,1,3.5355339059327378,0" fill="white" stroke="#4c78a8" stroke-width="1" opacity="1"/><path transform="translate(372,324.8746088028707)" d="M3.5355339059327378,0A3.5355339059327378,3.5355339059327378,0,1,1,-3.5355339059327378,0A3.5355339059327378,3.5355339059327378,0,1,1,3.5355339059327378,0" fill="white" stroke="#4c78a8" stroke-width="1" opacity="1"/><path transform="translate(378,327.98937187766484)" d="M3.5355339059327378,0A3.5355339059327378,3.5355339059327378,0,1,1,-3.5355339059327378,0A3.5355339059327378,3.5355339059327378,0,1,1,3.5355339059327378,0" fill="white" stroke="#4c78a8" stroke-width="1" opacity="1"/><path transform="translate(384,49.24370826303743)" d="M3.5355339059327378,0A3.5355339059327378,3.5355339059327378,0,1,1,-3.5355339059327378,0A3.5355339059327378,3.5355339059327378,0,1,1,3.5355339059327378,0" fill="white" stroke="#4c78a8" stroke-width="1" opacity="1"/><path transform="translate(390,378.78403487247175)" d="M3.5355339059327378,0A3.5355339059327378,3.5355339059327378,0,1,1,-3.5355339059327378,0A3.5355339059327378,3.5355339059327378,0,1,1,3.5355339059327378,0" fill="white" stroke="#4c78a8" stroke-width="1" opacity="1"/><path transform="translate(402,321.11879556400777)" d="M3.5355339059327378,0A3.5355339059327378,3.5355339059327378,0,1,1,-3.5355339059327378,0A3.5355339059327378,3.5355339059327378,0,1,1,3.5355339059327378,0" fill="white" stroke="#4c78a8" stroke-width="1" opacity="1"/><path transform="translate(408.00000000000006,380.00760836003843)" d="M3.5355339059327378,0A3.5355339059327378,3.5355339059327378,0,1,1,-3.5355339059327378,0A3.5355339059327378,3.5355339059327378,0,1,1,3.5355339059327378,0" fill="white" stroke="#4c78a8" stroke-width="1" opacity="1"/><path transform="translate(450,58.47630570774349)" d="M3.5355339059327378,0A3.5355339059327378,3.5355339059327378,0,1,1,-3.5355339059327378,0A3.5355339059327378,3.5355339059327378,0,1,1,3.5355339059327378,0" fill="white" stroke="#4c78a8" stroke-width="1" opacity="1"/><path transform="translate(456,105.41758070664144)" d="M3.5355339059327378,0A3.5355339059327378,3.5355339059327378,0,1,1,-3.5355339059327378,0A3.5355339059327378,3.5355339059327378,0,1,1,3.5355339059327378,0" fill="white" stroke="#4c78a8" stroke-width="1" opacity="1"/><path transform="translate(468,234.86862905396572)" d="M3.5355339059327378,0A3.5355339059327378,3.5355339059327378,0,1,1,-3.5355339059327378,0A3.5355339059327378,3.5355339059327378,0,1,1,3.5355339059327378,0" fill="white" stroke="#4c78a8" stroke-width="1" opacity="1"/><path transform="translate(480,267.75890573517637)" d="M3.5355339059327378,0A3.5355339059327378,3.5355339059327378,0,1,1,-3.5355339059327378,0A3.5355339059327378,3.5355339059327378,0,1,1,3.5355339059327378,0" fill="white" stroke="#4c78a8" stroke-width="1" opacity="1"/><path transform="translate(504,312.9252124319535)" d="M3.5355339059327378,0A3.5355339059327378,3.5355339059327378,0,1,1,-3.5355339059327378,0A3.5355339059327378,3.5355339059327378,0,1,1,3.5355339059327378,0" fill="white" stroke="#4c78a8" stroke-width="1" opacity="1"/><path transform="translate(516,290.89975024669565)" d="M3.5355339059327378,0A3.5355339059327378,3.5355339059327378,0,1,1,-3.5355339059327378,0A3.5355339059327378,3.5355339059327378,0,1,1,3.5355339059327378,0" fill="white" stroke="#4c78a8" stroke-width="1" opacity="1"/><path transform="translate(528,195.66108100029817)" d="M3.5355339059327378,0A3.5355339059327378,3.5355339059327378,0,1,1,-3.5355339059327378,0A3.5355339059327378,3.5355339059327378,0,1,1,3.5355339059327378,0" fill="white" stroke="#4c78a8" stroke-width="1" opacity="1"/><path transform="translate(534,331.19439720031994)" d="M3.5355339059327378,0A3.5355339059327378,3.5355339059327378,0,1,1,-3.5355339059327378,0A3.5355339059327378,3.5355339059327378,0,1,1,3.5355339059327378,0" fill="white" stroke="#4c78a8" stroke-width="1" opacity="1"/><path transform="translate(540,210.64653880908537)" d="M3.5355339059327378,0A3.5355339059327378,3.5355339059327378,0,1,1,-3.5355339059327378,0A3.5355339059327378,3.5355339059327378,0,1,1,3.5355339059327378,0" fill="white" stroke="#4c78a8" stroke-width="1" opacity="1"/><path transform="translate(570,320.9414426481956)" d="M3.5355339059327378,0A3.5355339059327378,3.5355339059327378,0,1,1,-3.5355339059327378,0A3.5355339059327378,3.5355339059327378,0,1,1,3.5355339059327378,0" fill="white" stroke="#4c78a8" stroke-width="1" opacity="1"/><path transform="translate(576,384.18573449404437)" d="M3.5355339059327378,0A3.5355339059327378,3.5355339059327378,0,1,1,-3.5355339059327378,0A3.5355339059327378,3.5355339059327378,0,1,1,3.5355339059327378,0" fill="white" stroke="#4c78a8" stroke-width="1" opacity="1"/><path transform="translate(582,159.80509559214903)" d="M3.5355339059327378,0A3.5355339059327378,3.5355339059327378,0,1,1,-3.5355339059327378,0A3.5355339059327378,3.5355339059327378,0,1,1,3.5355339059327378,0" fill="white" stroke="#4c78a8" stroke-width="1" opacity="1"/><path transform="translate(588,136.42861435717924)" d="M3.5355339059327378,0A3.5355339059327378,3.5355339059327378,0,1,1,-3.5355339059327378,0A3.5355339059327378,3.5355339059327378,0,1,1,3.5355339059327378,0" fill="white" stroke="#4c78a8" stroke-width="1" opacity="1"/><path transform="translate(594,363.89691027481314)" d="M3.5355339059327378,0A3.5355339059327378,3.5355339059327378,0,1,1,-3.5355339059327378,0A3.5355339059327378,3.5355339059327378,0,1,1,3.5355339059327378,0" fill="white" stroke="#4c78a8" stroke-width="1" opacity="1"/><path transform="translate(600,236.92742338546964)" d="M3.5355339059327378,0A3.5355339059327378,3.5355339059327378,0,1,1,-3.5355339059327378,0A3.5355339059327378,3.5355339059327378,0,1,1,3.5355339059327378,0" fill="white" stroke="#4c78a8" stroke-width="1" opacity="1"/></g></g><path class="foreground" aria-hidden="true" d="" display="none"/></g><g transform="translate(0,0)"><path class="background" aria-hidden="true" d="M0,0h0v0h0Z"/><g><g class="mark-symbol role-mark" role="graphics-symbol" aria-roledescription="symbol mark container"><path transform="translate(12,172.61506457019422)" d="M3.5355339059327378,0A3.5355339059327378,3.5355339059327378,0,1,1,-3.5355339059327378,0A3.5355339059327378,3.5355339059327378,0,1,1,3.5355339059327378,0" fill="white" stroke="#f58518" stroke-width="1" opacity="1"/><path transform="translate(54,89.6650567080119)" d="M3.5355339059327378,0A3.5355339059327378,3.5355339059327378,0,1,1,-3.5355339059327378,0A3.5355339059327378,3.5355339059327378,0,1,1,3.5355339059327378,0" fill="white" stroke="#f58518" stroke-width="1" opacity="1"/><path transform="translate(72,13.420691509319838)" d="M3.5355339059327378,0A3.5355339059327378,3.5355339059327378,0,1,1,-3.5355339059327378,0A3.5355339059327378,3.5355339059327378,0,1,1,3.5355339059327378,0" fill="white" stroke="#f58518" stroke-width="1" opacity="1"/><path transform="translate(102.00000000000001,218.44788655523325)" d="M3.5355339059327378,0A3.5355339059327378,3.5355339059327378,0,1,1,-3.5355339059327378,0A3.5355339059327378,3.5355339059327378,0,1,1,3.5355339059327378,0" fill="white" stroke="#f58518" stroke-width="1" opacity="1"/><path transform="translate(150,188.79946027249622)" d="M3.5355339059327378,0A3.5355339059327378,3.5355339059327378,0,1,1,-3.5355339059327378,0A3.5355339059327378,3.5355339059327378,0,1,1,3.5355339059327378,0" fill="white" stroke="#f58518" stroke-width="1" opacity="1"/><path transform="translate(156,86.76250621225954)" d="M3.5355339059327378,0A3.5355339059327378,3.5355339059327378,0,1,1,-3.5355339059327378,0A3.5355339059327378,3.5355339059327378,0,1,1,3.5355339059327378,0" fill="white" stroke="#f58518" stroke-width="1" opacity="1"/><path transform="translate(162,31.36152691835221)" d="M3.5355339059327378,0A3.5355339059327378,3.5355339059327378,0,1,1,-3.5355339059327378,0A3.5355339059327378,3.5355339059327378,0,1,1,3.5355339059327378,0" fill="white" stroke="#f58518" stroke-width="1" opacity="1"/><path transform="translate(168.00000000000003,261.36862322712136)" d="M3.5355339059327378,0A3.5355339059327378,3.5355339059327378,0,1,1,-3.5355339059327378,0A3.5355339059327378,3.5355339059327378,0,1,1,3.5355339059327378,0" fill="white" stroke="#f58518" stroke-width="1" opacity="1"/><path transform="translate(174,218.81333927857014)" d="M3.5355339059327378,0A3.5355339059327378,3.5355339059327378,0,1,1,-3.5355339059327378,0A3.5355339059327378,3.5355339059327378,0,1,1,3.5355339059327378,0" fill="white" stroke="#f58518" stroke-width="1" opacity="1"/><path transform="translate(180,357.3314514867782)" d="M3.5355339059327378,0A3.5355339059327378,3.5355339059327378,0,1,1,-3.5355339059327378,0A3.5355339059327378,3.5355339059327378,0,1,1,3.5355339059327378,0" fill="white" stroke="#f58518" stroke-width="1" opacity="1"/><path transform="translate(198,200.5936019893877)" d="M3.5355339059327378,0A3.5355339059327378,3.5355339059327378,0,1,1,-3.5355339059327378,0A3.5355339059327378,3.5355339059327378,0,1,1,3.5355339059327378,0" fill="white" stroke="#f58518" stroke-width="1" opacity="1"/><path transform="translate(204.00000000000003,210.53618371918537)" d="M3.5355339059327378,0A3.5355339059327378,3.5355339059327378,0,1,1,-3.5355339059327378,0A3.5355339059327378,3.5355339059327378,0,1,1,3.5355339059327378,0" fill="white" stroke="#f58518" stroke-width="1" opacity="1"/><path transform="translate(210,244.94178268094586)" d="M3.5355339059327378,0A3.5355339059327378,3.5355339059327378,0,1,1,-3.5355339059327378,0A3.5355339059327378,3.5355339059327378,0,1,1,3.5355339059327378,0" fill="white" stroke="#f58518" stroke-width="1" opacity="1"/><path transform="translate(222,272.26103941401794)" d="M3.5355339059327378,0A3.5355339059327378,3.5355339059327378,0,1,1,-3.5355339059327378,0A3.5355339059327378,3.5355339059327378,0,1,1,3.5355339059327378,0" fill="white" stroke="#f58518" stroke-width="1" opacity="1"/><path transform="translate(264,218.37266738552543)" d="M3.5355339059327378,0A3.5355339059327378,3.5355339059327378,0,1,1,-3.5355339059327378,0A3.5355339059327378,3.5355339059327378,0,1,1,3.5355339059327378,0" fill="white" stroke="#f58518" stroke-width="1" opacity="1"/><path transform="translate(270,127.4127998258404)" d="M3.5355339059327378,0A3.5355339059327378,3.5355339059327378,0,1,1,-3.5355339059327378,0A3.5355339059327378,3.5355339059327378,0,1,1,3.5355339059327378,0" fill="white" stroke="#f58518" stroke-width="1" opacity="1"/><path transform="translate(282,224.83318722179888)" d="M3.5355339059327378,0A3.5355339059327378,3.5355339059327378,0,1,1,-3.5355339059327378,0A3.5355339059327378,3.5355339059327378,0,1,1,3.5355339059327378,0" fill="white" stroke="#f58518" stroke-width="1" opacity="1"/><path transform="translate(288,172.06737989158432)" d="M3.5355339059327378,0A3.5355339059327378,3.5355339059327378,0,1,1,-3.5355339059327378,0A3.5355339059327378,3.5355339059327378,0,1,1,3.5355339059327378,0" fill="white" stroke="#f58518" stroke-width="1" opacity="1"/><path transform="translate(294,11.542631141976756)" d="M3.5355339059327378,0A3.5355339059327378,3.5355339059327378,0,1,1,-3.5355339059327378,0A3.5355339059327378,3.5355339059327378,0,1,1,3.5355339059327378,0" fill="white" stroke="#f58518" stroke-width="1" opacity="1"/><path transform="translate(300,117.24828770580622)" d="M3.5355339059327378,0A3.5355339059327378,3.5355339059327378,0,1,1,-3.5355339059327378,0A3.5355339059327378,3.5355339059327378,0,1,1,3.5355339059327378,0" fill="white" stroke="#f58518" stroke-width="1" opacity="1"/><path transform="translate(306,93.62988236791026)" d="M3.5355339059327378,0A3.5355339059327378,3.5355339059327378,0,1,1,-3.5355339059327378,0A3.5355339059327378,3.5355339059327378,0,1,1,3.5355339059327378,0" fill="white" stroke="#f58518" stroke-width="1" opacity="1"/><path transform="translate(312,67.16097387456728)" d="M3.5355339059327378,0A3.5355339059327378,3.5355339059327378,0,1,1,-3.5355339059327378,0A3.5355339059327378,3.5355339059327378,0,1,1,3.5355339059327378,0" fill="white" stroke="#f58518" stroke-width="1" opacity="1"/><path transform="translate(336.00000000000006,145.78187213704936)" d="M3.5355339059327378,0A3.5355339059327378,3.5355339059327378,0,1,1,-3.5355339059327378,0A3.5355339059327378,3.5355339059327378,0,1,1,3.5355339059327378,0" fill="white" stroke="#f58518" stroke-width="1" opacity="1"/><path transform="translate(341.99999999999994,27.848584072476967)" d="M3.5355339059327378,0A3.5355339059327378,3.5355339059327378,0,1,1,-3.5355339059327378,0A3.5355339059327378,3.5355339059327378,0,1,1,3.5355339059327378,0" fill="white" stroke="#f58518" stroke-width="1" opacity="1"/><path transform="translate(366,90.56345670433501)" d="M3.5355339059327378,0A3.5355339059327378,3.5355339059327378,0,1,1,-3.5355339059327378,0A3.5355339059327378,3.5355339059327378,0,1,1,3.5355339059327378,0" fill="white" stroke="#f58518" stroke-width="1" opacity="1"/><path transform="translate(396,179.2905327106542)" d="M3.5355339059327378,0A3.5355339059327378,3.5355339059327378,0,1,1,-3.5355339059327378,0A3.5355339059327378,3.5355339059327378,0,1,1,3.5355339059327378,0" fill="white" stroke="#f58518" stroke-width="1" opacity="1"/><path transform="translate(413.99999999999994,334.75950570486253)" d="M3.5355339059327378,0A3.5355339059327378,3.5355339059327378,0,1,1,-3.5355339059327378,0A3.5355339059327378,3.5355339059327378,0,1,1,3.5355339059327378,0" fill="white" stroke="#f58518" stroke-width="1" opacity="1"/><path transform="translate(420,158.80924660244665)" d="M3.5355339059327378,0A3.5355339059327378,3.5355339059327378,0,1,1,-3.5355339059327378,0A3.5355339059327378,3.5355339059327378,0,1,1,3.5355339059327378,0" fill="white" stroke="#f58518" stroke-width="1" opacity="1"/><path transform="translate(426,7.6585362816068425)" d="M3.5355339059327378,0A3.5355339059327378,3.5355339059327378,0,1,1,-3.5355339059327378,0A3.5355339059327378,3.5355339059327378,0,1,1,3.5355339059327378,0" fill="white" stroke="#f58518" stroke-width="1" opacity="1"/><path transform="translate(432,362.0434281691459)" d="M3.5355339059327378,0A3.5355339059327378,3.5355339059327378,0,1,1,-3.5355339059327378,0A3.5355339059327378,3.5355339059327378,0,1,1,3.5355339059327378,0" fill="white" stroke="#f58518" stroke-width="1" opacity="1"/><path transform="translate(438,357.39319012833624)" d="M3.5355339059327378,0A3.5355339059327378,3.5355339059327378,0,1,1,-3.5355339059327378,0A3.5355339059327378,3.5355339059327378,0,1,1,3.5355339059327378,0" fill="white" stroke="#f58518" stroke-width="1" opacity="1"/><path transform="translate(444,158.44569107659154)" d="M3.5355339059327378,0A3.5355339059327378,3.5355339059327378,0,1,1,-3.5355339059327378,0A3.5355339059327378,3.5355339059327378,0,1,1,3.5355339059327378,0" fill="white" stroke="#f58518" stroke-width="1" opacity="1"/><path transform="translate(462,98.37617090448454)" d="M3.5355339059327378,0A3.5355339059327378,3.5355339059327378,0,1,1,-3.5355339059327378,0A3.5355339059327378,3.5355339059327378,0,1,1,3.5355339059327378,0" fill="white" stroke="#f58518" stroke-width="1" opacity="1"/><path transform="translate(474,339.6657866740295)" d="M3.5355339059327378,0A3.5355339059327378,3.5355339059327378,0,1,1,-3.5355339059327378,0A3.5355339059327378,3.5355339059327378,0,1,1,3.5355339059327378,0" fill="white" stroke="#f58518" stroke-width="1" opacity="1"/><path transform="translate(486.00000000000006,223.14422560925954)" d="M3.5355339059327378,0A3.5355339059327378,3.5355339059327378,0,1,1,-3.5355339059327378,0A3.5355339059327378,3.5355339059327378,0,1,1,3.5355339059327378,0" fill="white" stroke="#f58518" stroke-width="1" opacity="1"/><path transform="translate(491.99999999999994,208.09056098189345)" d="M3.5355339059327378,0A3.5355339059327378,3.5355339059327378,0,1,1,-3.5355339059327378,0A3.5355339059327378,3.5355339059327378,0,1,1,3.5355339059327378,0" fill="white" stroke="#f58518" stroke-width="1" opacity="1"/><path transform="translate(498,289.18458852435265)" d="M3.5355339059327378,0A3.5355339059327378,3.5355339059327378,0,1,1,-3.5355339059327378,0A3.5355339059327378,3.5355339059327378,0,1,1,3.5355339059327378,0" fill="white" stroke="#f58518" stroke-width="1" opacity="1"/><path transform="translate(510,21.77969987920285)" d="M3.5355339059327378,0A3.5355339059327378,3.5355339059327378,0,1,1,-3.5355339059327378,0A3.5355339059327378,3.5355339059327378,0,1,1,3.5355339059327378,0" fill="white" stroke="#f58518" stroke-width="1" opacity="1"/><path transform="translate(522,36.83427839468081)" d="M3.5355339059327378,0A3.5355339059327378,3.5355339059327378,0,1,1,-3.5355339059327378,0A3.5355339059327378,3.5355339059327378,0,1,1,3.5355339059327378,0" fill="white" stroke="#f58518" stroke-width="1" opacity="1"/><path transform="translate(546,143.31408190180213)" d="M3.5355339059327378,0A3.5355339059327378,3.5355339059327378,0,1,1,-3.5355339059327378,0A3.5355339059327378,3.5355339059327378,0,1,1,3.5355339059327378,0" fill="white" stroke="#f58518" stroke-width="1" opacity="1"/><path transform="translate(552,156.48581675807307)" d="M3.5355339059327378,0A3.5355339059327378,3.5355339059327378,0,1,1,-3.5355339059327378,0A3.5355339059327378,3.5355339059327378,0,1,1,3.5355339059327378,0" fill="white" stroke="#f58518" stroke-width="1" opacity="1"/><path transform="translate(558,28.13282763580567)" d="M3.5355339059327378,0A3.5355339059327378,3.5355339059327378,0,1,1,-3.5355339059327378,0A3.5355339059327378,3.5355339059327378,0,1,1,3.5355339059327378,0" fill="white" stroke="#f58518" stroke-width="1" opacity="1"/><path transform="translate(564,150.61672581347878)" d="M3.5355339059327378,0A3.5355339059327378,3.5355339059327378,0,1,1,-3.5355339059327378,0A3.5355339059327378,3.5355339059327378,0,1,1,3.5355339059327378,0" fill="white" stroke="#f58518" stroke-width="1" opacity="1"/></g></g><path class="foreground" aria-hidden="true" d="" display="none"/></g></g><g class="mark-group role-legend" role="graphics-symbol" aria-roledescription="legend" aria-label="Symbol legend titled 'group' for stroke color with 2 values: 1, 2"><g transform="translate(655,0)"><path class="background" aria-hidden="true" d="M0,0h29v39h-29Z" pointer-events="none"/><g><g class="mark-group role-legend-entry"><g transform="translate(0,16)"><path class="background" aria-hidden="true" d="M0,0h0v0h0Z" pointer-events="none"/><g><g class="mark-group role-scope" role="graphics-object" aria-roledescription="group mark container"><g transform="translate(0,0)"><path class="background" aria-hidden="true" d="M0,0h21.5615234375v11h-21.5615234375Z" pointer-events="none" opacity="1"/><g><g class="mark-symbol role-legend-symbol" pointer-events="none"><path transform="translate(6,6)" d="M-5,0L5,0" stroke="#4c78a8" stroke-width="1.5" stroke-dasharray="0" opacity="1"/></g><g class="mark-text role-legend-label" pointer-events="none"><text text-anchor="start" transform="translate(16,9)" font-family="sans-serif" font-size="10px" font-style="normal" font-weight="400" fill="#000" opacity="1">1</text></g></g><path class="foreground" aria-hidden="true" d="" pointer-events="none" display="none"/></g><g transform="translate(0,12)"><path class="background" aria-hidden="true" d="M0,0h21.5615234375v11h-21.5615234375Z" pointer-events="none" opacity="1"/><g><g class="mark-symbol role-legend-symbol" pointer-events="none"><path transform="translate(6,6)" d="M-5,0L5,0" stroke="#f58518" stroke-width="1.5" stroke-dasharray="0" opacity="1"/></g><g class="mark-text role-legend-label" pointer-events="none"><text text-anchor="start" transform="translate(16,9)" font-family="sans-serif" font-size="10px" font-style="normal" font-weight="400" fill="#000" opacity="1">2</text></g></g><path class="foreground" aria-hidden="true" d="" pointer-events="none" display="none"/></g></g></g><path class="foreground" aria-hidden="true" d="" pointer-events="none" display="none"/></g></g><g class="mark-text role-legend-title" pointer-events="none"><text text-anchor="start" transform="translate(0,9)" font-family="sans-serif" font-size="11px" font-style="normal" font-weight="400" fill="#000" opacity="1">group</text></g></g><path class="foreground" aria-hidden="true" d="" pointer-events="none" display="none"/></g></g></g><path class="foreground" aria-hidden="true" d="" display="none"/></g></g></g><defs><clipPath id="clip1"><rect x="0" y="0" width="600" height="400"/></clipPath><clipPath id="clip2"><rect x="0" y="0" width="600" height="400"/></clipPath></defs></svg>