<svg xmlns="http://www.w3.org/2000/svg" xmlns:xlink="http://www.w3.org/1999/xlink" version="1.1" class="marks" width="724" height="438" viewBox="0 0 724 438"><g fill="none" stroke-miterlimit="10" transform="translate(37,5)"><g class="mark-group role-frame root" role="graphics-object" aria-roledescription="group mark container"><g transform="translate(0,0)"><path class="background" aria-hidden="true" d="M0,0h600v400h-600Z"/><g><g class="mark-group role-axis" role="graphics-symbol" aria-roledescription="axis" aria-label="X-axis titled 'x' for a linear scale with values from 0 to 100"><g transform="translate(0.5,401.5)"><path class="background" aria-hidden="true" d="M0,0h0v0h0Z" pointer-events="none"/><g><g class="mark-rule role-axis-grid" pointer-events="none"><line transform="translate(0,-1)" x2="0" y2="-400" stroke="lightgray" stroke-width="1" stroke-dasharray="0" opacity="1"/><line transform="translate(30,-1)" x2="0" y2="-400" stroke="lightgray" stroke-width="1" stroke-dasharray="0" opacity="1"/><line transform="translate(60,-1)" x2="0" y2="-400" stroke="lightgray" stroke-width="1" stroke-dasharray="0" opacity="1"/><line transform="translate(90,-1)" x2="0" y2="-400" stroke="lightgray" stroke-width="1" stroke-dasharray="0" opacity="1"/><line transform="translate(120,-1)" x2="0" y2="-400" stroke="lightgray" stroke-width="1" stroke-dasharray="0" opacity="1"/><line transform="translate(150,-1)" x2="0" y2="-400" stroke="lightgray" stroke-width="1" stroke-dasharray="0" opacity="1"/><line transform="translate(180,-1)" x2="0" y2="-400" stroke="lightgray" stroke-width="1" stroke-dasharray="0" opacity="1"/><line transform="translate(210,-1)" x2="0" y2="-400" stroke="lightgray" stroke-width="1" stroke-dasharray="0" opacity="1"/><line transform="translate(240,-1)" x2="0" y2="-400" stroke="lightgray" stroke-width="1" stroke-dasharray="0" opacity="1"/><line transform="translate(270,-1)" x2="0" y2="-400" stroke="lightgray" stroke-width="1" stroke-dasharray="0" opacity="1"/><line transform="translate(300,-1)" x2="0" y2="-400" stroke="lightgray" stroke-width="1" stroke-dasharray="0" opacity="1"/><line transform="translate(330,-1)" x2="0" y2="-400" stroke="lightgray" stroke-width="1" stroke-dasharray="0" opacity="1"/><line transform="translate(360,-1)" x2="0" y2="-400" stroke="lightgray" stroke-width="1" stroke-dasharray="0" opacity="1"/><line transform="translate(390,-1)" x2="0" y2="-400" stroke="lightgray" stroke-width="1" stroke-dasharray="0" opacity="1"/><line transform="translate(420,-1)" x2="0" y2="-400" stroke="lightgray" stroke-width="1" stroke-dasharray="0" opacity="1"/><line transform="translate(450,-1)" x2="0" y2="-400" stroke="lightgray" stroke-width="1" stroke-dasharray="0" opacity="1"/><line transform="translate(480,-1)" x2="0" y2="-400" stroke="lightgray" stroke-width="1" stroke-dasharray="0" opacity="1"/><line transform="translate(510,-1)" x2="0" y2="-400" stroke="lightgray" stroke-width="1" stroke-dasharray="0" opacity="1"/><line transform="translate(540,-1)" x2="0" y2="-400" stroke="lightgray" stroke-width="1" stroke-dasharray="0" opacity="1"/><line transform="translate(570,-1)" x2="0" y2="-400" stroke="lightgray" stroke-width="1" stroke-dasharray="0" opacity="1"/><line transform="translate(600,-1)" x2="0" y2="-400" stroke="lightgray" stroke-width="1" stroke-dasharray="0" opacity="1"/></g><g class="mark-rule role-axis-tick" pointer-events="none"><line transform="translate(0,0)" x2="0" y2="5" stroke="#888" stroke-width="1" opacity="1"/><line transform="translate(30,0)" x2="0" y2="5" stroke="#888" stroke-width="1" opacity="1"/><line transform="translate(60,0)" x2="0" y2="5" stroke="#888" stroke-width="1" opacity="1"/><line transform="translate(90,0)" x2="0" y2="5" stroke="#888" stroke-width="1" opacity="1"/><line transform="translate(120,0)" x2="0" y2="5" stroke="#888" stroke-width="1" opacity="1"/><line transform="translate(150,0)" x2="0" y2="5" stroke="#888" stroke-width="1" opacity="1"/><line transform="translate(180,0)" x2="0" y2="5" stroke="#888" stroke-width="1" opacity="1"/><line transform="translate(210,0)" x2="0" y2="5" stroke="#888" stroke-width="1" opacity="1"/><line transform="translate(240,0)" x2="0" y2="5" stroke="#888" stroke-width="1" opacity="1"/><line transform="translate(270,0)" x2="0" y2="5" stroke="#888" stroke-width="1" opacity="1"/><line transform="translate(300,0)" x2="0" y2="5" stroke="#888" stroke-width="1" opacity="1"/><line transform="translate(330,0)" x2="0" y2="5" stroke="#888" stroke-width="1" opacity="1"/><line transform="translate(360,0)" x2="0" y2="5" stroke="#888" stroke-width="1" opacity="1"/><line transform="translate(390,0)" x2="0" y2="5" stroke="#888" stroke-width="1" opacity="1"/><line transform="translate(420,0)" x2="0" y2="5" stroke="#888" stroke-width="1" opacity="1"/><line transform="translate(450,0)" x2="0" y2="5" stroke="#888" stroke-width="1" opacity="1"/><line transform="translate(480,0)" x2="0" y2="5" stroke="#888" stroke-width="1" opacity="1"/><line transform="translate(510,0)" x2="0" y2="5" stroke="#888" stroke-width="1" opacity="1"/><line transform="translate(540,0)" x2="0" y2="5" stroke="#888" stroke-width="1" opacity="1"/><line transform="translate(570,0)" x2="0" y2="5" stroke="#888" stroke-width="1" opacity="1"/><line transform="translate(600,0)" x2="0" y2="5" stroke="#888" stroke-width="1" opacity="1"/></g><g class="mark-text role-axis-label" pointer-events="none"><text text-anchor="middle" transform="translate(0,15)" font-family="sans-serif" font-size="10px" fill="#000" opacity="1">0</text><text text-anchor="middle" transform="translate(30,15)" font-family="sans-serif" font-size="10px" fill="#000" opacity="1">5</text><text text-anchor="middle" transform="translate(60,15)" font-family="sans-serif" font-size="10px" fill="#000" opacity="1">10</text><text text-anchor="middle" transform="translate(90,15)" font-family="sans-serif" font-size="10px" fill="#000" opacity="1">15</text><text text-anchor="middle" transform="translate(120,15)" font-family="sans-serif" font-size="10px" fill="#000" opacity="1">20</text><text text-anchor="middle" transform="translate(150,15)" font-family="sans-serif" font-size="10px" fill="#000" opacity="1">25</text><text text-anchor="middle" transform="translate(180,15)" font-family="sans-serif" font-size="10px" fill="#000" opacity="1">30</text><text text-anchor="middle" transform="translate(210,15)" font-family="sans-serif" font-size="10px" fill="#000" opacity="1">35</text><text text-anchor="middle" transform="translate(240,15)" font-family="sans-serif" font-size="10px" fill="#000" opacity="1">40</text><text text-anchor="middle" transform="translate(270,15)" font-family="sans-serif" font-size="10px" fill="#000" opacity="1">45</text><text text-anchor="middle" transform="translate(300,15)" font-family="sans-serif" font-size="10px" fill="#000" opacity="1">50</text><text text-anchor="middle" transform="translate(330,15)" font-family="sans-serif" font-size="10px" fill="#000" opacity="1">55</text><text text-anchor="middle" transform="translate(360,15)" font-family="sans-serif" font-size="10px" fill="#000" opacity="1">60</text><text text-anchor="middle" transform="translate(390,15)" font-family="sans-serif" font-size="10px" fill="#000" opacity="1">65</text><text text-anchor="middle" transform="translate(420,15)" font-family="sans-serif" font-size="10px" fill="#000" opacity="1">70</text><text text-anchor="middle" transform="translate(450,15)" font-family="sans-serif" font-size="10px" fill="#000" opacity="1">75</text><text text-anchor="middle" transform="translate(480,15)" font-family="sans-serif" font-size="10px" fill="#000" opacity="1">80</text><text text-anchor="middle" transform="translate(510,15)" font-family="sans-serif" font-size="10px" fill="#000" opacity="1">85</text><text text-anchor="middle" transform="translate(540,15)" font-family="sans-serif" font-size="10px" fill="#000" opacity="1">90</text><text text-anchor="middle" transform="translate(570,15)" font-family="sans-serif" font-size="10px" fill="#000" opacity="1">95</text><text text-anchor="middle" transform="translate(600,15)" font-family="sans-serif" font-size="10px" fill="#000" opacity="1">100</text></g><g class="mark-rule role-axis-domain" pointer-events="none"><line transform="translate(0,0)" x2="600" y2="0" stroke="black" stroke-width="1" opacity="1"/></g><g class="mark-text role-axis-title" pointer-events="none"><text text-anchor="middle" transform="translate(300,30)" font-family="sans-serif" font-size="11px" font-weight="bold" fill="#000" opacity="1">x</text></g></g><path class="foreground" aria-hidden="true" d="" pointer-events="none" display="none"/></g></g><g class="mark-group role-axis" role="graphics-symbol" aria-roledescription="axis" aria-label="Y-axis titled 'y2' for a linear scale with values from 5.0 to 6.0"><g transform="translate(-0.5,0.5)"><path class="background" aria-hidden="true" d="M0,0h0v0h0Z" pointer-events="none"/><g><g class="mark-rule role-axis-grid" pointer-events="none"><line transform="translate(1,400)" x2="600" y2="0" stroke="lightgray" stroke-width="1" stroke-dasharray="0" opacity="1"/><line transform="translate(1,360)" x2="600" y2="0" stroke="lightgray" stroke-width="1" stroke-dasharray="0" opacity="1"/><line transform="translate(1,320)" x2="600" y2="0" stroke="lightgray" stroke-width="1" stroke-dasharray="0" opacity="1"/><line transform="translate(1,280)" x2="600" y2="0" stroke="lightgray" stroke-width="1" stroke-dasharray="0" opacity="1"/><line transform="translate(1,240)" x2="600" y2="0" stroke="lightgray" stroke-width="1" stroke-dasharray="0" opacity="1"/><line transform="translate(1,200)" x2="600" y2="0" stroke="lightgray" stroke-width="1" stroke-dasharray="0" opacity="1"/><line transform="translate(1,160)" x2="600" y2="0" stroke="lightgray" stroke-width="1" stroke-dasharray="0" opacity="1"/><line transform="translate(1,120)" x2="600" y2="0" stroke="lightgray" stroke-width="1" stroke-dasharray="0" opacity="1"/><line transform="translate(1,80)" x2="600" y2="0" stroke="lightgray" stroke-width="1" stroke-dasharray="0" opacity="1"/><line transform="translate(1,40)" x2="600" y2="0" stroke="lightgray" stroke-width="1" stroke-dasharray="0" opacity="1"/><line transform="translate(1,0)" x2="600" y2="0" stroke="lightgray" stroke-width="1" stroke-dasharray="0" opacity="1"/></g><g class="mark-rule role-axis-tick" pointer-events="none"><line transform="translate(0,400)" x2="-5" y2="0" stroke="#888" stroke-width="1" opacity="1"/><line transform="translate(0,360)" x2="-5" y2="0" stroke="#888" stroke-width="1" opacity="1"/><line transform="translate(0,320)" x2="-5" y2="0" stroke="#888" stroke-width="1" opacity="1"/><line transform="translate(0,280)" x2="-5" y2="0" stroke="#888" stroke-width="1" opacity="1"/><line transform="translate(0,240)" x2="-5" y2="0" stroke="#888" stroke-width="1" opacity="1"/><line transform="translate(0,200)" x2="-5" y2="0" stroke="#888" stroke-width="1" opacity="1"/><line transform="translate(0,160)" x2="-5" y2="0" stroke="#888" stroke-width="1" opacity="1"/><line transform="translate(0,120)" x2="-5" y2="0" stroke="#888" stroke-width="1" opacity="1"/><line transform="translate(0,80)" x2="-5" y2="0" stroke="#888" stroke-width="1" opacity="1"/><line transform="translate(0,40)" x2="-5" y2="0" stroke="#888" stroke-width="1" opacity="1"/><line transform="translate(0,0)" x2="-5" y2="0" stroke="#888" stroke-width="1" opacity="1"/></g><g class="mark-text role-axis-label" pointer-events="none"><text text-anchor="end" transform="translate(-7,403)" font-family="sans-serif" font-size="10px" fill="#000" opacity="1">5.0</text><text text-anchor="end" transform="translate(-7,363.0000000000001)" font-family="sans-serif" font-size="10px" fill="#000" opacity="1">5.1</text><text text-anchor="end" transform="translate(-7,322.99999999999994)" font-family="sans-serif" font-size="10px" fill="#000" opacity="1">5.2</text><text text-anchor="end" transform="translate(-7,283.00000000000006)" font-family="sans-serif" font-size="10px" fill="#000" opacity="1">5.3</text><text text-anchor="end" transform="translate(-7,242.99999999999986)" font-family="sans-serif" font-size="10px" fill="#000" opacity="1">5.4</text><text text-anchor="end" transform="translate(-7,203)" font-family="sans-serif" font-size="10px" fill="#000" opacity="1">5.5</text><text text-anchor="end" transform="translate(-7,163.00000000000014)" font-family="sans-serif" font-size="10px" fill="#000" opacity="1">5.6</text><text text-anchor="end" transform="translate(-7,122.99999999999993)" font-family="sans-serif" font-size="10px" fill="#000" opacity="1">5.7</text><text text-anchor="end" transform="translate(-7,83.00000000000007)" font-family="sans-serif" font-size="10px" fill="#000" opacity="1">5.8</text><text text-anchor="end" transform="translate(-7,42.99999999999986)" font-family="sans-serif" font-size="10px" fill="#000" opacity="1">5.9</text><text text-anchor="end" transform="translate(-7,3)" font-family="sans-serif" font-size="10px" fill="#000" opacity="1">6.0</text></g><g class="mark-rule role-axis-domain" pointer-events="none"><line transform="translate(0,400)" x2="0" y2="-400" stroke="black" stroke-width="1" opacity="1"/></g><g class="mark-text role-axis-title" pointer-events="none"><text text-anchor="middle" transform="translate(-24.9013671875,200) rotate(-90) translate(0,-2)" font-family="sans-serif" font-size="11px" font-weight="bold" fill="#000" opacity="1">y2</text></g></g><path class="foreground" aria-hidden="true" d="" pointer-events="none" display="none"/></g></g><g class="mark-group role-axis" role="graphics-symbol" aria-roledescription="axis" aria-label="Y-axis titled 'y2' for a linear scale with values from 5.0 to 6.0"><g transform="translate(601.5,0.5)"><path class="background" aria-hidden="true" d="M0,0h0v0h0Z" pointer-events="none"/><g><g class="mark-rule role-axis-tick" pointer-events="none"><line transform="translate(0,400)" x2="5" y2="0" stroke="#888" stroke-width="1" opacity="1"/><line transform="translate(0,360)" x2="5" y2="0" stroke="#888" stroke-width="1" opacity="1"/><line transform="translate(0,320)" x2="5" y2="0" stroke="#888" stroke-width="1" opacity="1"/><line transform="translate(0,280)" x2="5" y2="0" stroke="#888" stroke-width="1" opacity="1"/><line transform="translate(0,240)" x2="5" y2="0" stroke="#888" stroke-width="1" opacity="1"/><line transform="translate(0,200)" x2="5" y2="0" stroke="#888" stroke-width="1" opacity="1"/><line transform="translate(0,160)" x2="5" y2="0" stroke="#888" stroke-width="1" opacity="1"/><line transform="translate(0,120)" x2="5" y2="0" stroke="#888" stroke-width="1" opacity="1"/><line transform="translate(0,80)" x2="5" y2="0" stroke="#888" stroke-width="1" opacity="1"/><line transform="translate(0,40)" x2="5" y2="0" stroke="#888" stroke-width="1" opacity="1"/><line transform="translate(0,0)" x2="5" y2="0" stroke="#888" stroke-width="1" opacity="1"/></g><g class="mark-text role-axis-label" pointer-events="none"><text text-anchor="start" transform="translate(7,403)" font-family="sans-serif" font-size="10px" fill="#000" opacity="1">5.0</text><text text-anchor="start" transform="translate(7,363.0000000000001)" font-family="sans-serif" font-size="10px" fill="#000" opacity="1">5.1</text><text text-anchor="start" transform="translate(7,322.99999999999994)" font-family="sans-serif" font-size="10px" fill="#000" opacity="1">5.2</text><text text-anchor="start" transform="translate(7,283.00000000000006)" font-family="sans-serif" font-size="10px" fill="#000" opacity="1">5.3</text><text text-anchor="start" transform="translate(7,242.99999999999986)" font-family="sans-serif" font-size="10px" fill="#000" opacity="1">5.4</text><text text-anchor="start" transform="translate(7,203)" font-family="sans-serif" font-size="10px" fill="#000" opacity="1">5.5</text><text text-anchor="start" transform="translate(7,163.00000000000014)" font-family="sans-serif" font-size="10px" fill="#000" opacity="1">5.6</text><text text-anchor="start" transform="translate(7,122.99999999999993)" font-family="sans-serif" font-size="10px" fill="#000" opacity="1">5.7</text><text text-anchor="start" transform="translate(7,83.00000000000007)" font-family="sans-serif" font-size="10px" fill="#000" opacity="1">5.8</text><text text-anchor="start" transform="translate(7,42.99999999999986)" font-family="sans-serif" font-size="10px" fill="#000" opacity="1">5.9</text><text text-anchor="start" transform="translate(7,3)" font-family="sans-serif" font-size="10px" fill="#000" opacity="1">6.0</text></g><g class="mark-rule role-axis-domain" pointer-events="none"><line transform="translate(0,400)" x2="0" y2="-400" stroke="black" stroke-width="1" opacity="1"/></g><g class="mark-text role-axis-title" pointer-events="none"><text text-anchor="middle" transform="translate(24.9013671875,200) rotate(90) translate(0,-2)" font-family="sans-serif" font-size="11px" font-weight="bold" fill="#000" opacity="1">y2</text></g></g><path class="foreground" aria-hidden="true" d="" pointer-events="none" display="none"/></g></g><g class="mark-group role-scope" role="graphics-object" aria-roledescription="group mark container"><g transform="translate(0,0)"><path class="background" aria-hidden="true" d="M0,0h0v0h0Z"/><g><g class="mark-line role-mark" role="graphics-symbol" aria-roledescription="line mark container"><path d="M6,335.32992729865646L24,330.04521554151654L42.00000000000001,299.99420174348614L48,139.48297620775242L54,217.1615004371372L60,294.274404960019L66,81.68784671469851L84.00000000000001,86.15756854852457L102.00000000000001,238.54498131375408L114,222.50591479305442L120,216.7642894539572L126,57.92208254263116L132,363.1893507813242L138,189.2847192966375L144,26.371058511020706L150,166.28823032224L156,106.76914200861027L162,128.5535151669862L168.00000000000003,340.89327747432844L174,300.611899620495L186,167.9988252077301L204.00000000000003,213.36024246299843L228,123.62895017755697L240,292.46610396241584L252,161.29012245395984L258,194.33887678281891L264,123.66965246262644L270,144.22321734629904L282,301.35575041829486L288,69.47807574472407L300,308.0910546976227L318,297.2935065530347L336.00000000000006,108.84492487925321L341.99999999999994,287.6590597456399L384,195.44216031640252L402,146.14525067612726L426,343.87072879735604L432,105.15308832686969L438,112.39122351816633L444,72.53594562589392L462,200.05436319762495L480,399.4286839890659L486.00000000000006,378.2279399892303L491.99999999999994,250.43263506999517L516,155.34577871911603L558,135.87999018261598L576,205.40502055877L588,185.0076498798103L600,284.6856716613484" stroke="#4c78a8" stroke-width="1" stroke-dasharray="0" opacity="1"/></g></g><path class="foreground" aria-hidden="true" d="" display="none"/></g><g transform="translate(0,0)"><path class="background" aria-hidden="true" d="M0,0h0v0h0Z"/><g><g class="mark-line role-mark" role="graphics-symbol" aria-roledescription="line mark container"><path d="M12,318.16274058211854L18,246.5123478488536L30,387.5345831854528L36,180.51853985053407L72,317.9386936323542L78,155.85531008885596L90,51.796820292457824L96,290.1220978140227L108,60.86349795265029L180,162.76667347562147L192,48.15466544974534L198,326.10122501966003L210,112.93693228455588L216,271.3628047919553L222,285.1905516793977L234,168.05424579951307L245.99999999999997,168.3771469972495L276,386.15353081471966L294,287.34549552896954L306,324.51283449429343L312,98.94608223643395L324,44.02710868782087L330,148.56694361387957L348,381.7844682374119L354,307.7103076310017L360,348.6145200819635L366,16.268533494203297L372,192.07607928224348L378,335.54414338236995L390,56.50433354510511L396,79.16364980628607L408.00000000000006,61.88630393640864L413.99999999999994,286.477312760384L420,117.51553121329223L450,143.04802040384388L456,142.68421773362405L468,83.12640043885473L474,321.4594790690139L498,368.2039372695254L504,262.00761882048306L510,162.04624103931417L522,371.8410982593582L528,289.4465910785815L534,104.68077114646128L540,379.2529110910877L546,183.54424607243908L552,176.22345108326982L564,182.88288106886483L570,151.1566251130393L582,24.223156294856807L594,238.82104387112582" stroke="#f58518" stroke-width="1" stroke-dasharray="0" opacity="1"/></g></g><path class="foreground" aria-hidden="true" d="" display="none"/></g></g><g class="mark-group role-scope" role="graphics-object" aria-roledescription="group mark container"><g transform="translate(0,0)"><path class="background" aria-hidden="true" d="M0,0h0v0h0Z"/><g><g class="mark-symbol role-mark" role="graphics-symbol" aria-roledescription="symbol mark container"><path transform="translate(6,335.32992729865646)" d="M3.5355339059327378,0A3.5355339059327378,3.5355339059327378,0,1,1,-3.5355339059327378,0A3.5355339059327378,3.5355339059327378,0,1,1,3.5355339059327378,0" fill="white" stroke="#4c78a8" stroke-width="1" opacity="1"/><path transform="translate(24,330.04521554151654)" d="M3.5355339059327378,0A3.5355339059327378,3.5355339059327378,0,1,1,-3.5355339059327378,0A3.5355339059327378,3.5355339059327378,0,1,1,3.5355339059327378,0" fill="white" stroke="#4c78a8" stroke-width="1" opacity="1"/><path transform="translate(42.00000000000001,299.99420174348614)" d="M3.5355339059327378,0A3.5355339059327378,3.5355339059327378,0,1,1,-3.5355339059327378,0A3.5355339059327378,3.5355339059327378,0,1,1,3.5355339059327378,0" fill="white" stroke="#4c78a8" stroke-width="1" opacity="1"/><path transform="translate(48,139.48297620775242)" d="M3.5355339059327378,0A3.5355339059327378,3.5355339059327378,0,1,1,-3.5355339059327378,0A3.5355339059327378,3.5355339059327378,0,1,1,3.5355339059327378,0" fill="white" stroke="#4c78a8" stroke-width="1" opacity="1"/><path transform="translate(54,217.1615004371372)" d="M3.5355339059327378,0A3.5355339059327378,3.5355339059327378,0,1,1,-3.5355339059327378,0A3.5355339059327378,3.5355339059327378,0,1,1,3.5355339059327378,0" fill="white" stroke="#4c78a8" stroke-width="1" opacity="1"/><path transform="translate(60,294.274404960019)" d="M3.5355339059327378,0A3.5355339059327378,3.5355339059327378,0,1,1,-3.5355339059327378,0A3.5355339059327378,3.5355339059327378,0,1,1,3.5355339059327378,0" fill="white" stroke="#4c78a8" stroke-width="1" opacity="1"/><path transform="translate(66,81.68784671469851)" d="M3.5355339059327378,0A3.5355339059327378,3.5355339059327378,0,1,1,-3.5355339059327378,0A3.5355339059327378,3.5355339059327378,0,1,1,3.5355339059327378,0" fill="white" stroke="#4c78a8" stroke-width="1" opacity="1"/><path transform="translate(84.00000000000001,86.15756854852457)" d="M3.5355339059327378,0A3.5355339059327378,3.5355339059327378,0,1,1,-3.5355339059327378,0A3.5355339059327378,3.5355339059327378,0,1,1,3.5355339059327378,0" fill="white" stroke="#4c78a8" stroke-width="1" opacity="1"/><path transform="translate(102.00000000000001,238.54498131375408)" d="M3.5355339059327378,0A3.5355339059327378,3.5355339059327378,0,1,1,-3.5355339059327378,0A3.5355339059327378,3.5355339059327378,0,1,1,3.5355339059327378,0" fill="white" stroke="#4c78a8" stroke-width="1" opacity="1"/><path transform="translate(114,222.50591479305442)" d="M3.5355339059327378,0A3.5355339059327378,3.5355339059327378,0,1,1,-3.5355339059327378,0A3.5355339059327378,3.5355339059327378,0,1,1,3.5355339059327378,0" fill="white" stroke="#4c78a8" stroke-width="1" opacity="1"/><path transform="translate(120,216.7642894539572)" d="M3.5355339059327378,0A3.5355339059327378,3.5355339059327378,0,1,1,-3.5355339059327378,0A3.5355339059327378,3.5355339059327378,0,1,1,3.5355339059327378,0" fill="white" stroke="#4c78a8" stroke-width="1" opacity="1"/><path transform="translate(126,57.92208254263116)" d="M3.5355339059327378,0A3.5355339059327378,3.5355339059327378,0,1,1,-3.5355339059327378,0A3.5355339059327378,3.5355339059327378,0,1,1,3.5355339059327378,0" fill="white" stroke="#4c78a8" stroke-width="1" opacity="1"/><path transform="translate(132,363.1893507813242)" d="M3.5355339059327378,0A3.5355339059327378,3.5355339059327378,0,1,1,-3.5355339059327378,0A3.5355339059327378,3.5355339059327378,0,1,1,3.5355339059327378,0" fill="white" stroke="#4c78a8" stroke-width="1" opacity="1"/><path transform="translate(138,189.2847192966375)" d="M3.5355339059327378,0A3.5355339059327378,3.5355339059327378,0,1,1,-3.5355339059327378,0A3.5355339059327378,3.5355339059327378,0,1,1,3.5355339059327378,0" fill="white" stroke="#4c78a8" stroke-width="1" opacity="1"/><path transform="translate(144,26.371058511020706)" d="M3.5355339059327378,0A3.5355339059327378,3.5355339059327378,0,1,1,-3.5355339059327378,0A3.5355339059327378,3.5355339059327378,0,1,1,3.5355339059327378,0" fill="white" stroke="#4c78a8" stroke-width="1" opacity="1"/><path transform="translate(150,166.28823032224)" d="M3.5355339059327378,0A3.5355339059327378,3.5355339059327378,0,1,1,-3.5355339059327378,0A3.5355339059327378,3.5355339059327378,0,1,1,3.5355339059327378,0" fill="white" stroke="#4c78a8" stroke-width="1" opacity="1"/><path transform="translate(156,106.76914200861027)" d="M3.5355339059327378,0A3.5355339059327378,3.5355339059327378,0,1,1,-3.5355339059327378,0A3.5355339059327378,3.5355339059327378,0,1,1,3.5355339059327378,0" fill="white" stroke="#4c78a8" stroke-width="1" opacity="1"/><path transform="translate(162,128.5535151669862)" d="M3.5355339059327378,0A3.5355339059327378,3.5355339059327378,0,1,1,-3.5355339059327378,0A3.5355339059327378,3.5355339059327378,0,1,1,3.5355339059327378,0" fill="white" stroke="#4c78a8" stroke-width="1" opacity="1"/><path transform="translate(168.00000000000003,340.89327747432844)" d="M3.5355339059327378,0A3.5355339059327378,3.5355339059327378,0,1,1,-3.5355339059327378,0A3.5355339059327378,3.5355339059327378,0,1,1,3.5355339059327378,0" fill="white" stroke="#4c78a8" stroke-width="1" opacity="1"/><path transform="translate(174,300.611899620495)" d="M3.5355339059327378,0A3.5355339059327378,3.5355339059327378,0,1,1,-3.5355339059327378,0A3.5355339059327378,3.5355339059327378,0,1,1,3.5355339059327378,0" fill="white" stroke="#4c78a8" stroke-width="1" opacity="1"/><path transform="translate(186,167.9988252077301)" d="M3.5355339059327378,0A3.5355339059327378,3.5355339059327378,0,1,1,-3.5355339059327378,0A3.5355339059327378,3.5355339059327378,0,1,1,3.5355339059327378,0" fill="white" stroke="#4c78a8" stroke-width="1" opacity="1"/><path transform="translate(204.00000000000003,213.36024246299843)" d="M3.5355339059327378,0A3.5355339059327378,3.5355339059327378,0,1,1,-3.5355339059327378,0A3.5355339059327378,3.5355339059327378,0,1,1,3.5355339059327378,0" fill="white" stroke="#4c78a8" stroke-width="1" opacity="1"/><path transform="translate(228,123.62895017755697)" d="M3.5355339059327378,0A3.5355339059327378,3.5355339059327378,0,1,1,-3.5355339059327378,0A3.5355339059327378,3.5355339059327378,0,1,1,3.5355339059327378,0" fill="white" stroke="#4c78a8" stroke-width="1" opacity="1"/><path transform="translate(240,292.46610396241584)" d="M3.5355339059327378,0A3.5355339059327378,3.5355339059327378,0,1,1,-3.5355339059327378,0A3.5355339059327378,3.5355339059327378,0,1,1,3.5355339059327378,0" fill="white" stroke="#4c78a8" stroke-width="1" opacity="1"/><path transform="translate(252,161.29012245395984)" d="M3.5355339059327378,0A3.5355339059327378,3.5355339059327378,0,1,1,-3.5355339059327378,0A3.5355339059327378,3.5355339059327378,0,1,1,3.5355339059327378,0" fill="white" stroke="#4c78a8" stroke-width="1" opacity="1"/><path transform="translate(258,194.33887678281891)" d="M3.5355339059327378,0A3.5355339059327378,3.5355339059327378,0,1,1,-3.5355339059327378,0A3.5355339059327378,3.5355339059327378,0,1,1,3.5355339059327378,0" fill="white" stroke="#4c78a8" stroke-width="1" opacity="1"/><path transform="translate(264,123.66965246262644)" d="M3.5355339059327378,0A3.5355339059327378,3.5355339059327378,0,1,1,-3.5355339059327378,0A3.5355339059327378,3.5355339059327378,0,1,1,3.5355339059327378,0" fill="white" stroke="#4c78a8" stroke-width="1" opacity="1"/><path transform="translate(270,144.22321734629904)" d="M3.5355339059327378,0A3.5355339059327378,3.5355339059327378,0,1,1,-3.5355339059327378,0A3.5355339059327378,3.5355339059327378,0,1,1,3.5355339059327378,0" fill="white" stroke="#4c78a8" stroke-width="1" opacity="1"/><path transform="translate(282,301.35575041829486)" d="M3.5355339059327378,0A3.5355339059327378,3.5355339059327378,0,1,1,-3.5355339059327378,0A3.5355339059327378,3.5355339059327378,0,1,1,3.5355339059327378,0" fill="white" stroke="#4c78a8" stroke-width="1" opacity="1"/><path transform="translate(288,69.47807574472407)" d="M3.5355339059327378,0A3.5355339059327378,3.5355339059327378,0,1,1,-3.5355339059327378,0A3.5355339059327378,3.5355339059327378,0,1,1,3.5355339059327378,0" fill="white" stroke="#4c78a8" stroke-width="1" opacity="1"/><path transform="translate(300,308.0910546976227)" d="M3.5355339059327378,0A3.5355339059327378,3.5355339059327378,0,1,1,-3.5355339059327378,0A3.5355339059327378,3.5355339059327378,0,1,1,3.5355339059327378,0" fill="white" stroke="#4c78a8" stroke-width="1" opacity="1"/><path transform="translate(318,297.2935065530347)" d="M3.5355339059327378,0A3.5355339059327378,3.5355339059327378,0,1,1,-3.5355339059327378,0A3.5355339059327378,3.5355339059327378,0,1,1,3.5355339059327378,0" fill="white" stroke="#4c78a8" stroke-width="1" opacity="1"/><path transform="translate(336.00000000000006,108.84492487925321)" d="M3.5355339059327378,0A3.5355339059327378,3.5355339059327378,0,1,1,-3.5355339059327378,0A3.5355339059327378,3.5355339059327378,0,1,1,3.5355339059327378,0" fill="white" stroke="#4c78a8" stroke-width="1" opacity="1"/><path transform="translate(341.99999999999994,287.6590597456399)" d="M3.5355339059327378,0A3.5355339059327378,3.5355339059327378,0,1,1,-3.5355339059327378,0A3.5355339059327378,3.5355339059327378,0,1,1,3.5355339059327378,0" fill="white" stroke="#4c78a8" stroke-width="1" opacity="1"/><path transform="translate(384,195.44216031640252)" d="M3.5355339059327378,0A3.5355339059327378,3.5355339059327378,0,1,1,-3.5355339059327378,0A3.5355339059327378,3.5355339059327378,0,1,1,3.5355339059327378,0" fill="white" stroke="#4c78a8" stroke-width="1" opacity="1"/><path transform="translate(402,146.14525067612726)" d="M3.5355339059327378,0A3.5355339059327378,3.5355339059327378,0,1,1,-3.5355339059327378,0A3.5355339059327378,3.5355339059327378,0,1,1,3.5355339059327378,0" fill="white" stroke="#4c78a8" stroke-width="1" opacity="1"/><path transform="translate(426,343.87072879735604)" d="M3.5355339059327378,0A3.5355339059327378,3.5355339059327378,0,1,1,-3.5355339059327378,0A3.5355339059327378,3.5355339059327378,0,1,1,3.5355339059327378,0" fill="white" stroke="#4c78a8" stroke-width="1" opacity="1"/><path transform="translate(432,105.15308832686969)" d="M3.5355339059327378,0A3.5355339059327378,3.5355339059327378,0,1,1,-3.5355339059327378,0A3.5355339059327378,3.5355339059327378,0,1,1,3.5355339059327378,0" fill="white" stroke="#4c78a8" stroke-width="1" opacity="1"/><path transform="translate(438,112.39122351816633)" d="M3.5355339059327378,0A3.5355339059327378,3.5355339059327378,0,1,1,-3.5355339059327378,0A3.5355339059327378,3.5355339059327378,0,1,1,3.5355339059327378,0" fill="white" stroke="#4c78a8" stroke-width="1" opacity="1"/><path transform="translate(444,72.53594562589392)" d="M3.5355339059327378,0A3.5355339059327378,3.5355339059327378,0,1,1,-3.5355339059327378,0A3.5355339059327378,3.5355339059327378,0,1,1,3.5355339059327378,0" fill="white" stroke="#4c78a8" stroke-width="1" opacity="1"/><path transform="translate(462,200.05436319762495)" d="M3.5355339059327378,0A3.5355339059327378,3.5355339059327378,0,1,1,-3.5355339059327378,0A3.5355339059327378,3.5355339059327378,0,1,1,3.5355339059327378,0" fill="white" stroke="#4c78a8" stroke-width="1" opacity="1"/><path transform="translate(480,399.4286839890659)" d="M3.5355339059327378,0A3.5355339059327378,3.5355339059327378,0,1,1,-3.5355339059327378,0A3.5355339059327378,3.5355339059327378,0,1,1,3.5355339059327378,0" fill="white" stroke="#4c78a8" stroke-width="1" opacity="1"/><path transform="translate(486.00000000000006,378.2279399892303)" d="M3.5355339059327378,0A3.5355339059327378,3.5355339059327378,0,1,1,-3.5355339059327378,0A3.5355339059327378,3.5355339059327378,0,1,1,3.5355339059327378,0" fill="white" stroke="#4c78a8" stroke-width="1" opacity="1"/><path transform="translate(491.99999999999994,250.43263506999517)" d="M3.5355339059327378,0A3.5355339059327378,3.5355339059327378,0,1,1,-3.5355339059327378,0A3.5355339059327378,3.5355339059327378,0,1,1,3.5355339059327378,0" fill="white" stroke="#4c78a8" stroke-width="1" opacity="1"/><path transform="translate(516,155.34577871911603)" d="M3.5355339059327378,0A3.5355339059327378,3.5355339059327378,0,1,1,-3.5355339059327378,0A3.5355339059327378,3.5355339059327378,0,1,1,3.5355339059327378,0" fill="white" stroke="#4c78a8" stroke-width="1" opacity="1"/><path transform="translate(558,135.87999018261598)" d="M3.5355339059327378,0A3.5355339059327378,3.5355339059327378,0,1,1,-3.5355339059327378,0A3.5355339059327378,3.5355339059327378,0,1,1,3.5355339059327378,0" fill="white" stroke="#4c78a8" stroke-width="1" opacity="1"/><path transform="translate(576,205.40502055877)" d="M3.5355339059327378,0A3.5355339059327378,3.5355339059327378,0,1,1,-3.5355339059327378,0A3.5355339059327378,3.5355339059327378,0,1,1,3.5355339059327378,0" fill="white" stroke="#4c78a8" stroke-width="1" opacity="1"/><path transform="translate(588,185.0076498798103)" d="M3.5355339059327378,0A3.5355339059327378,3.5355339059327378,0,1,1,-3.5355339059327378,0A3.5355339059327378,3.5355339059327378,0,1,1,3.5355339059327378,0" fill="white" stroke="#4c78a8" stroke-width="1" opacity="1"/><path transform="translate(600,284.6856716613484)" d="M3.5355339059327378,0A3.5355339059327378,3.5355339059327378,0,1,1,-3.5355339059327378,0A3.5355339059327378,3.5355339059327378,0,1,1,3.5355339059327378,0" fill="white" stroke="#4c78a8" stroke-width="1" opacity="1"/></g></g><path class="foreground" aria-hidden="true" d="" display="none"/></g><g transform="translate(0,0)"><path class="background" aria-hidden="true" d="M0,0h0v0h0Z"/><g><g class="mark-symbol role-mark" role="graphics-symbol" aria-roledescription="symbol mark container"><path transform="translate(12,318.16274058211854)" d="M3.5355339059327378,0A3.5355339059327378,3.5355339059327378,0,1,1,-3.5355339059327378,0A3.5355339059327378,3.5355339059327378,0,1,1,3.5355339059327378,0" fill="white" stroke="#f58518" stroke-width="1" opacity="1"/><path transform="translate(18,246.5123478488536)" d="M3.5355339059327378,0A3.5355339059327378,3.5355339059327378,0,1,1,-3.5355339059327378,0A3.5355339059327378,3.5355339059327378,0,1,1,3.5355339059327378,0" fill="white" stroke="#f58518" stroke-width="1" opacity="1"/><path transform="translate(30,387.5345831854528)" d="M3.5355339059327378,0A3.5355339059327378,3.5355339059327378,0,1,1,-3.5355339059327378,0A3.5355339059327378,3.5355339059327378,0,1,1,3.5355339059327378,0" fill="white" stroke="#f58518" stroke-width="1" opacity="1"/><path transform="translate(36,180.51853985053407)" d="M3.5355339059327378,0A3.5355339059327378,3.5355339059327378,0,1,1,-3.5355339059327378,0A3.5355339059327378,3.5355339059327378,0,1,1,3.5355339059327378,0" fill="white" stroke="#f58518" stroke-width="1" opacity="1"/><path transform="translate(72,317.9386936323542)" d="M3.5355339059327378,0A3.5355339059327378,3.5355339059327378,0,1,1,-3.5355339059327378,0A3.5355339059327378,3.5355339059327378,0,1,1,3.5355339059327378,0" fill="white" stroke="#f58518" stroke-width="1" opacity="1"/><path transform="translate(78,155.85531008885596)" d="M3.5355339059327378,0A3.5355339059327378,3.5355339059327378,0,1,1,-3.5355339059327378,0A3.5355339059327378,3.5355339059327378,0,1,1,3.5355339059327378,0" fill="white" stroke="#f58518" stroke-width="1" opacity="1"/><path transform="translate(90,51.796820292457824)" d="M3.5355339059327378,0A3.5355339059327378,3.5355339059327378,0,1,1,-3.5355339059327378,0A3.5355339059327378,3.5355339059327378,0,1,1,3.5355339059327378,0" fill="white" stroke="#f58518" stroke-width="1" opacity="1"/><path transform="translate(96,290.1220978140227)" d="M3.5355339059327378,0A3.5355339059327378,3.5355339059327378,0,1,1,-3.5355339059327378,0A3.5355339059327378,3.5355339059327378,0,1,1,3.5355339059327378,0" fill="white" stroke="#f58518" stroke-width="1" opacity="1"/><path transform="translate(108,60.86349795265029)" d="M3.5355339059327378,0A3.5355339059327378,3.5355339059327378,0,1,1,-3.5355339059327378,0A3.5355339059327378,3.5355339059327378,0,1,1,3.5355339059327378,0" fill="white" stroke="#f58518" stroke-width="1" opacity="1"/><path transform="translate(180,162.76667347562147)" d="M3.5355339059327378,0A3.5355339059327378,3.5355339059327378,0,1,1,-3.5355339059327378,0A3.5355339059327378,3.5355339059327378,0,1,1,3.5355339059327378,0" fill="white" stroke="#f58518" stroke-width="1" opacity="1"/><path transform="translate(192,48.15466544974534)" d="M3.5355339059327378,0A3.5355339059327378,3.5355339059327378,0,1,1,-3.5355339059327378,0A3.5355339059327378,3.5355339059327378,0,1,1,3.5355339059327378,0" fill="white" stroke="#f58518" stroke-width="1" opacity="1"/><path transform="translate(198,326.10122501966003)" d="M3.5355339059327378,0A3.5355339059327378,3.5355339059327378,0,1,1,-3.5355339059327378,0A3.5355339059327378,3.5355339059327378,0,1,1,3.5355339059327378,0" fill="white" stroke="#f58518" stroke-width="1" opacity="1"/><path transform="translate(210,112.93693228455588)" d="M3.5355339059327378,0A3.5355339059327378,3.5355339059327378,0,1,1,-3.5355339059327378,0A3.5355339059327378,3.5355339059327378,0,1,1,3.5355339059327378,0" fill="white" stroke="#f58518" stroke-width="1" opacity="1"/><path transform="translate(216,271.3628047919553)" d="M3.5355339059327378,0A3.5355339059327378,3.5355339059327378,0,1,1,-3.5355339059327378,0A3.5355339059327378,3.5355339059327378,0,1,1,3.5355339059327378,0" fill="white" stroke="#f58518" stroke-width="1" opacity="1"/><path transform="translate(222,285.1905516793977)" d="M3.5355339059327378,0A3.5355339059327378,3.5355339059327378,0,1,1,-3.5355339059327378,0A3.5355339059327378,3.5355339059327378,0,1,1,3.5355339059327378,0" fill="white" stroke="#f58518" stroke-width="1" opacity="1"/><path transform="translate(234,168.05424579951307)" d="M3.5355339059327378,0A3.5355339059327378,3.5355339059327378,0,1,1,-3.5355339059327378,0A3.5355339059327378,3.5355339059327378,0,1,1,3.5355339059327378,0" fill="white" stroke="#f58518" stroke-width="1" opacity="1"/><path transform="translate(245.99999999999997,168.3771469972495)" d="M3.5355339059327378,0A3.5355339059327378,3.5355339059327378,0,1,1,-3.5355339059327378,0A3.5355339059327378,3.5355339059327378,0,1,1,3.5355339059327378,0" fill="white" stroke="#f58518" stroke-width="1" opacity="1"/><path transform="translate(276,386.15353081471966)" d="M3.5355339059327378,0A3.5355339059327378,3.5355339059327378,0,1,1,-3.5355339059327378,0A3.5355339059327378,3.5355339059327378,0,1,1,3.5355339059327378,0" fill="white" stroke="#f58518" stroke-width="1" opacity="1"/><path transform="translate(294,287.34549552896954)" d="M3.5355339059327378,0A3.5355339059327378,3.5355339059327378,0,1,1,-3.5355339059327378,0A3.5355339059327378,3.5355339059327378,0,1,1,3.5355339059327378,0" fill="white" stroke="#f58518" stroke-width="1" opacity="1"/><path transform="translate(306,324.51283449429343)" d="M3.5355339059327378,0A3.5355339059327378,3.5355339059327378,0,1,1,-3.5355339059327378,0A3.5355339059327378,3.5355339059327378,0,1,1,3.5355339059327378,0" fill="white" stroke="#f58518" stroke-width="1" opacity="1"/><path transform="translate(312,98.94608223643395)" d="M3.5355339059327378,0A3.5355339059327378,3.5355339059327378,0,1,1,-3.5355339059327378,0A3.5355339059327378,3.5355339059327378,0,1,1,3.5355339059327378,0" fill="white" stroke="#f58518" stroke-width="1" opacity="1"/><path transform="translate(324,44.02710868782087)" d="M3.5355339059327378,0A3.5355339059327378,3.5355339059327378,0,1,1,-3.5355339059327378,0A3.5355339059327378,3.5355339059327378,0,1,1,3.5355339059327378,0" fill="white" stroke="#f58518" stroke-width="1" opacity="1"/><path transform="translate(330,148.56694361387957)" d="M3.5355339059327378,0A3.5355339059327378,3.5355339059327378,0,1,1,-3.5355339059327378,0A3.5355339059327378,3.5355339059327378,0,1,1,3.5355339059327378,0" fill="white" stroke="#f58518" stroke-width="1" opacity="1"/><path transform="translate(348,381.7844682374119)" d="M3.5355339059327378,0A3.5355339059327378,3.5355339059327378,0,1,1,-3.5355339059327378,0A3.5355339059327378,3.5355339059327378,0,1,1,3.5355339059327378,0" fill="white" stroke="#f58518" stroke-width="1" opacity="1"/><path transform="translate(354,307.7103076310017)" d="M3.5355339059327378,0A3.5355339059327378,3.5355339059327378,0,1,1,-3.5355339059327378,0A3.5355339059327378,3.5355339059327378,0,1,1,3.5355339059327378,0" fill="white" stroke="#f58518" stroke-width="1" opacity="1"/><path transform="translate(360,348.6145200819635)" d="M3.5355339059327378,0A3.5355339059327378,3.5355339059327378,0,1,1,-3.5355339059327378,0A3.5355339059327378,3.5355339059327378,0,1,1,3.5355339059327378,0" fill="white" stroke="#f58518" stroke-width="1" opacity="1"/><path transform="translate(366,16.268533494203297)" d="M3.5355339059327378,0A3.5355339059327378,3.5355339059327378,0,1,1,-3.5355339059327378,0A3.5355339059327378,3.5355339059327378,0,1,1,3.5355339059327378,0" fill="white" stroke="#f58518" stroke-width="1" opacity="1"/><path transform="translate(372,192.07607928224348)" d="M3.5355339059327378,0A3.5355339059327378,3.5355339059327378,0,1,1,-3.5355339059327378,0A3.5355339059327378,3.5355339059327378,0,1,1,3.5355339059327378,0" fill="white" stroke="#f58518" stroke-width="1" opacity="1"/><path transform="translate(378,335.54414338236995)" d="M3.5355339059327378,0A3.5355339059327378,3.5355339059327378,0,1,1,-3.5355339059327378,0A3.5355339059327378,3.5355339059327378,0,1,1,3.5355339059327378,0" fill="white" stroke="#f58518" stroke-width="1" opacity="1"/><path transform="translate(390,56.50433354510511)" d="M3.5355339059327378,0A3.5355339059327378,3.5355339059327378,0,1,1,-3.5355339059327378,0A3.5355339059327378,3.5355339059327378,0,1,1,3.5355339059327378,0" fill="white" stroke="#f58518" stroke-width="1" opacity="1"/><path transform="translate(396,79.16364980628607)" d="M3.5355339059327378,0A3.5355339059327378,3.5355339059327378,0,1,1,-3.5355339059327378,0A3.5355339059327378,3.5355339059327378,0,1,1,3.5355339059327378,0" fill="white" stroke="#f58518" stroke-width="1" opacity="1"/><path transform="translate(408.00000000000006,61.88630393640864)" d="M3.5355339059327378,0A3.5355339059327378,3.5355339059327378,0,1,1,-3.5355339059327378,0A3.5355339059327378,3.5355339059327378,0,1,1,3.5355339059327378,0" fill="white" stroke="#f58518" stroke-width="1" opacity="1"/><path transform="translate(413.99999999999994,286.477312760384)" d="M3.5355339059327378,0A3.5355339059327378,3.5355339059327378,0,1,1,-3.5355339059327378,0A3.5355339059327378,3.5355339059327378,0,1,1,3.5355339059327378,0" fill="white" stroke="#f58518" stroke-width="1" opacity="1"/><path transform="translate(420,117.51553121329223)" d="M3.5355339059327378,0A3.5355339059327378,3.5355339059327378,0,1,1,-3.5355339059327378,0A3.5355339059327378,3.5355339059327378,0,1,1,3.5355339059327378,0" fill="white" stroke="#f58518" stroke-width="1" opacity="1"/><path transform="translate(450,143.04802040384388)" d="M3.5355339059327378,0A3.5355339059327378,3.5355339059327378,0,1,1,-3.5355339059327378,0A3.5355339059327378,3.5355339059327378,0,1,1,3.5355339059327378,0" fill="white" stroke="#f58518" stroke-width="1" opacity="1"/><path transform="translate(456,142.68421773362405)" d="M3.5355339059327378,0A3.5355339059327378,3.5355339059327378,0,1,1,-3.5355339059327378,0A3.5355339059327378,3.5355339059327378,0,1,1,3.5355339059327378,0" fill="white" stroke="#f58518" stroke-width="1" opacity="1"/><path transform="translate(468,83.12640043885473)" d="M3.5355339059327378,0A3.5355339059327378,3.5355339059327378,0,1,1,-3.5355339059327378,0A3.5355339059327378,3.5355339059327378,0,1,1,3.5355339059327378,0" fill="white" stroke="#f58518" stroke-width="1" opacity="1"/><path transform="translate(474,321.4594790690139)" d="M3.5355339059327378,0A3.5355339059327378,3.5355339059327378,0,1,1,-3.5355339059327378,0A3.5355339059327378,3.5355339059327378,0,1,1,3.5355339059327378,0" fill="white" stroke="#f58518" stroke-width="1" opacity="1"/><path transform="translate(498,368.2039372695254)" d="M3.5355339059327378,0A3.5355339059327378,3.5355339059327378,0,1,1,-3.5355339059327378,0A3.5355339059327378,3.5355339059327378,0,1,1,3.5355339059327378,0" fill="white" stroke="#f58518" stroke-width="1" opacity="1"/><path transform="translate(504,262.00761882048306)" d="M3.5355339059327378,0A3.5355339059327378,3.5355339059327378,0,1,1,-3.5355339059327378,0A3.5355339059327378,3.5355339059327378,0,1,1,3.5355339059327378,0" fill="white" stroke="#f58518" stroke-width="1" opacity="1"/><path transform="translate(510,162.04624103931417)" d="M3.5355339059327378,0A3.5355339059327378,3.5355339059327378,0,1,1,-3.5355339059327378,0A3.5355339059327378,3.5355339059327378,0,1,1,3.5355339059327378,0" fill="white" stroke="#f58518" stroke-width="1" opacity="1"/><path transform="translate(522,371.8410982593582)" d="M3.5355339059327378,0A3.5355339059327378,3.5355339059327378,0,1,1,-3.5355339059327378,0A3.5355339059327378,3.5355339059327378,0,1,1,3.5355339059327378,0" fill="white" stroke="#f58518" stroke-width="1" opacity="1"/><path transform="translate(528,289.4465910785815)" d="M3.5355339059327378,0A3.5355339059327378,3.5355339059327378,0,1,1,-3.5355339059327378,0A3.5355339059327378,3.5355339059327378,0,1,1,3.5355339059327378,0" fill="white" stroke="#f58518" stroke-width="1" opacity="1"/><path transform="translate(534,104.68077114646128)" d="M3.5355339059327378,0A3.5355339059327378,3.5355339059327378,0,1,1,-3.5355339059327378,0A3.5355339059327378,3.5355339059327378,0,1,1,3.5355339059327378,0" fill="white" stroke="#f58518" stroke-width="1" opacity="1"/><path transform="translate(540,379.2529110910877)" d="M3.5355339059327378,0A3.5355339059327378,3.5355339059327378,0,1,1,-3.5355339059327378,0A3.5355339059327378,3.5355339059327378,0,1,1,3.5355339059327378,0" fill="white" stroke="#f58518" stroke-width="1" opacity="1"/><path transform="translate(546,183.54424607243908)" d="M3.5355339059327378,0A3.5355339059327378,3.5355339059327378,0,1,1,-3.5355339059327378,0A3.5355339059327378,3.5355339059327378,0,1,1,3.5355339059327378,0" fill="white" stroke="#f58518" stroke-width="1" opacity="1"/><path transform="translate(552,176.22345108326982)" d="M3.5355339059327378,0A3.5355339059327378,3.5355339059327378,0,1,1,-3.5355339059327378,0A3.5355339059327378,3.5355339059327378,0,1,1,3.5355339059327378,0" fill="white" stroke="#f58518" stroke-width="1" opacity="1"/><path transform="translate(564,182.88288106886483)" d="M3.5355339059327378,0A3.5355339059327378,3.5355339059327378,0,1,1,-3.5355339059327378,0A3.5355339059327378,3.5355339059327378,0,1,1,3.5355339059327378,0" fill="white" stroke="#f58518" stroke-width="1" opacity="1"/><path transform="translate(570,151.1566251130393)" d="M3.5355339059327378,0A3.5355339059327378,3.5355339059327378,0,1,1,-3.5355339059327378,0A3.5355339059327378,3.5355339059327378,0,1,1,3.5355339059327378,0" fill="white" stroke="#f58518" stroke-width="1" opacity="1"/><path transform="translate(582,24.223156294856807)" d="M3.5355339059327378,0A3.5355339059327378,3.5355339059327378,0,1,1,-3.5355339059327378,0A3.5355339059327378,3.5355339059327378,0,1,1,3.5355339059327378,0" fill="white" stroke="#f58518" stroke-width="1" opacity="1"/><path transform="translate(594,238.82104387112582)" d="M3.5355339059327378,0A3.5355339059327378,3.5355339059327378,0,1,1,-3.5355339059327378,0A3.5355339059327378,3.5355339059327378,0,1,1,3.5355339059327378,0" fill="white" stroke="#f58518" stroke-width="1" opacity="1"/></g></g><path class="foreground" aria-hidden="true" d="" display="none"/></g></g><g class="mark-group role-legend" role="graphics-symbol" aria-roledescription="legend" aria-label="Symbol legend titled 'group' for stroke color with 2 values: 2, 1"><g transform="translate(655,0)"><path class="background" aria-hidden="true" d="M0,0h32v40h-32Z" pointer-events="none"/><g><g class="mark-group role-legend-entry"><g transform="translate(0,16)"><path class="background" aria-hidden="true" d="M0,0h0v0h0Z" pointer-events="none"/><g><g class="mark-group role-scope" role="graphics-object" aria-roledescription="group mark container"><g transform="translate(0,0)"><path class="background" aria-hidden="true" d="M0,0h21.5615234375v11h-21.5615234375Z" pointer-events="none" opacity="1"/><g><g class="mark-symbol role-legend-symbol" pointer-events="none"><path transform="translate(6,6)" d="M-5,0L5,0" stroke="#4c78a8" stroke-width="1.5" stroke-dasharray="0" opacity="1"/></g><g class="mark-text role-legend-label" pointer-events="none"><text text-anchor="start" transform="translate(16,9)" font-family="sans-serif" font-size="10px" fill="#000" opacity="1">2</text></g></g><path class="foreground" aria-hidden="true" d="" pointer-events="none" display="none"/></g><g transform="translate(0,13)"><path class="background" aria-hidden="true" d="M0,0h21.5615234375v11h-21.5615234375Z" pointer-events="none" opacity="1"/><g><g class="mark-symbol role-legend-symbol" pointer-events="none"><path transform="translate(6,6)" d="M-5,0L5,0" stroke="#f58518" stroke-width="1.5" stroke-dasharray="0" opacity="1"/></g><g class="mark-text role-legend-label" pointer-events="none"><text text-anchor="start" transform="translate(16,9)" font-family="sans-serif" font-size="10px" fill="#000" opacity="1">1</text></g></g><path class="foreground" aria-hidden="true" d="" pointer-events="none" display="none"/></g></g></g><path class="foreground" aria-hidden="true" d="" pointer-events="none" display="none"/></g></g><g class="mark-text role-legend-title" pointer-events="none"><text text-anchor="start" transform="translate(0,9)" font-family="sans-serif" font-size="11px" font-weight="bold" fill="#000" opacity="1">group</text></g></g><path class="foreground" aria-hidden="true" d="" pointer-events="none" display="none"/></g></g></g><path class="foreground" aria-hidden="true" d="" display="none"/></g></g></g></svg>