<svg xmlns="http://www.w3.org/2000/svg" xmlns:xlink="http://www.w3.org/1999/xlink" version="1.1" class="marks" width="138" height="132" viewBox="0 0 138 132"><rect width="138" height="132" fill="white"/><g fill="none" stroke-miterlimit="10" transform="translate(38,0)"><g class="mark-group role-frame root" role="graphics-object" aria-roledescription="group mark container"><g transform="translate(0,0)"><path class="background" aria-hidden="true" d="M0,0h100v100h-100Z"/><g><g class="mark-group role-axis" role="graphics-symbol" aria-roledescription="axis" aria-label="X-axis titled 'x' for a linear scale with values from −4 to 12"><g transform="translate(0,100)"><path class="background" aria-hidden="true" d="M0,0h0v0h0Z" pointer-events="none"/><g><g class="mark-rule role-axis-grid" pointer-events="none"><line transform="translate(25,0)" x2="0" y2="-100" stroke="lightgray" stroke-width="0.5" stroke-dasharray="3" opacity="1"/><line transform="translate(56,0)" x2="0" y2="-100" stroke="lightgray" stroke-width="0.5" stroke-dasharray="3" opacity="1"/><line transform="translate(88,0)" x2="0" y2="-100" stroke="lightgray" stroke-width="0.5" stroke-dasharray="3" opacity="1"/></g><g class="mark-rule role-axis-tick" pointer-events="none"><line transform="translate(25,0)" x2="0" y2="5" stroke="black" stroke-width="1.01" opacity="1"/><line transform="translate(56,0)" x2="0" y2="5" stroke="black" stroke-width="1.01" opacity="1"/><line transform="translate(88,0)" x2="0" y2="5" stroke="black" stroke-width="1.01" opacity="1"/></g><g class="mark-text role-axis-label" pointer-events="none"><text text-anchor="middle" transform="translate(25,15)" font-family="sans-serif" font-size="10px" font-style="normal" font-weight="400" fill="black" opacity="1">0</text><text text-anchor="middle" transform="translate(56.25,15)" font-family="sans-serif" font-size="10px" font-style="normal" font-weight="400" fill="black" opacity="1">5</text><text text-anchor="middle" transform="translate(87.5,15)" font-family="sans-serif" font-size="10px" font-style="normal" font-weight="400" fill="black" opacity="1">10</text></g><g class="mark-rule role-axis-domain" pointer-events="none"><line transform="translate(0,0)" x2="100" y2="0" stroke="black" stroke-width="1.01" opacity="1"/></g><g class="mark-text role-axis-title" pointer-events="none"><text text-anchor="middle" transform="translate(50,30)" font-family="sans-serif" font-size="11px" font-style="normal" font-weight="400" fill="black" opacity="1">x</text></g></g><path class="foreground" aria-hidden="true" d="" pointer-events="none" display="none"/></g></g><g class="mark-group role-axis" role="graphics-symbol" aria-roledescription="axis" aria-label="Y-axis titled 'pdf' for a linear scale with values from 0.0 to 0.5"><g transform="translate(0,0)"><path class="background" aria-hidden="true" d="M0,0h0v0h0Z" pointer-events="none"/><g><g class="mark-rule role-axis-grid" pointer-events="none"><line transform="translate(0,100)" x2="100" y2="0" stroke="lightgray" stroke-width="0.5" stroke-dasharray="3" opacity="1"/><line transform="translate(0,60)" x2="100" y2="0" stroke="lightgray" stroke-width="0.5" stroke-dasharray="3" opacity="1"/><line transform="translate(0,20)" x2="100" y2="0" stroke="lightgray" stroke-width="0.5" stroke-dasharray="3" opacity="1"/></g><g class="mark-rule role-axis-tick" pointer-events="none"><line transform="translate(0,100)" x2="-5" y2="0" stroke="black" stroke-width="1.01" opacity="1"/><line transform="translate(0,60)" x2="-5" y2="0" stroke="black" stroke-width="1.01" opacity="1"/><line transform="translate(0,20)" x2="-5" y2="0" stroke="black" stroke-width="1.01" opacity="1"/></g><g class="mark-text role-axis-label" pointer-events="none"><text text-anchor="end" transform="translate(-7,103)" font-family="sans-serif" font-size="10px" font-style="normal" font-weight="400" fill="black" opacity="1">0.0</text><text text-anchor="end" transform="translate(-7,63)" font-family="sans-serif" font-size="10px" font-style="normal" font-weight="400" fill="black" opacity="1">0.2</text><text text-anchor="end" transform="translate(-7,22.999999999999996)" font-family="sans-serif" font-size="10px" font-style="normal" font-weight="400" fill="black" opacity="1">0.4</text></g><g class="mark-rule role-axis-domain" pointer-events="none"><line transform="translate(0,100)" x2="0" y2="-100" stroke="black" stroke-width="1.01" opacity="1"/></g><g class="mark-text role-axis-title" pointer-events="none"><text text-anchor="middle" transform="translate(-26.9033203125,50) rotate(-90) translate(0,-2)" font-family="sans-serif" font-size="11px" font-style="normal" font-weight="400" fill="black" opacity="1">pdf</text></g></g><path class="foreground" aria-hidden="true" d="" pointer-events="none" display="none"/></g></g><g class="mark-group role-scope" clip-path="url(#clip1)" role="graphics-object" aria-roledescription="group mark container"><g transform="translate(0,0)"><path class="background" aria-hidden="true" d="M0,0h0v0h0Z"/><g><g class="mark-area role-mark" role="graphics-symbol" aria-roledescription="area mark container"><path d="M12.428,99.957L12.909,99.933L13.391,99.897L13.873,99.846L14.354,99.776L14.836,99.68L15.318,99.554L15.8,99.393L16.281,99.191L16.763,98.946L17.245,98.656L17.726,98.323L18.208,97.951L18.69,97.546L19.172,97.116L19.653,96.67L20.135,96.215L20.617,95.756L21.099,95.295L21.58,94.825L22.062,94.334L22.544,93.805L23.025,93.21L23.507,92.518L23.989,91.694L24.471,90.698L24.952,89.489L25.434,88.026L25.916,86.268L26.398,84.174L26.879,81.71L27.361,78.845L27.843,75.558L28.324,71.84L28.806,67.702L29.288,63.174L29.77,58.316L30.251,53.21L30.733,47.967L31.215,42.721L31.697,37.618L32.178,32.817L32.66,28.469L33.142,24.716L33.623,21.675L34.105,19.437L34.587,18.054L35.069,17.546L35.55,17.893L36.032,19.044L36.514,20.916L36.995,23.406L37.477,26.396L37.959,29.757L38.441,33.359L38.922,37.078L39.404,40.801L39.886,44.427L40.368,47.876L40.849,51.088L41.331,54.022L41.813,56.657L42.294,58.994L42.776,61.045L43.258,62.836L43.74,64.402L44.221,65.784L44.703,67.025L45.185,68.167L45.667,69.254L46.148,70.324L46.63,71.414L47.112,72.553L47.593,73.769L48.075,75.079L48.557,76.496L49.039,78.023L49.52,79.652L50.002,81.368L50.484,83.147L50.965,84.958L51.447,86.765L51.929,88.53L52.411,90.217L52.892,91.795L53.374,93.236L53.856,94.523L54.338,95.646L54.819,96.603L55.301,97.4L55.783,98.048L56.264,98.564L56.746,98.964L57.228,99.268L57.71,99.493L58.191,99.656L58.673,99.772L59.155,99.852L59.637,99.906L60.118,99.941L60.118,100L59.637,100L59.155,100L58.673,100L58.191,100L57.71,100L57.228,100L56.746,100L56.264,100L55.783,100L55.301,100L54.819,100L54.338,100L53.856,100L53.374,100L52.892,100L52.411,100L51.929,100L51.447,100L50.965,100L50.484,100L50.002,100L49.52,100L49.039,100L48.557,100L48.075,100L47.593,100L47.112,100L46.63,100L46.148,100L45.667,100L45.185,100L44.703,100L44.221,100L43.74,100L43.258,100L42.776,100L42.294,100L41.813,100L41.331,100L40.849,100L40.368,100L39.886,100L39.404,100L38.922,100L38.441,100L37.959,100L37.477,100L36.995,100L36.514,100L36.032,100L35.55,100L35.069,100L34.587,100L34.105,100L33.623,100L33.142,100L32.66,100L32.178,100L31.697,100L31.215,100L30.733,100L30.251,100L29.77,100L29.288,100L28.806,100L28.324,100L27.843,100L27.361,100L26.879,100L26.398,100L25.916,100L25.434,100L24.952,100L24.471,100L23.989,100L23.507,100L23.025,100L22.544,100L22.062,100L21.58,100L21.099,100L20.617,100L20.135,100L19.653,100L19.172,100L18.69,100L18.208,100L17.726,100L17.245,100L16.763,100L16.281,100L15.8,100L15.318,100L14.836,100L14.354,100L13.873,100L13.391,100L12.909,100L12.428,100Z" fill="#4c78a8" fill-opacity="0.5" stroke="#4c78a8" stroke-width="1" opacity="1"/></g></g><path class="foreground" aria-hidden="true" d="" display="none"/></g><g transform="translate(0,0)"><path class="background" aria-hidden="true" d="M0,0h0v0h0Z"/><g><g class="mark-area role-mark" role="graphics-symbol" aria-roledescription="area mark container"><path d="M42.428,99.895L42.894,99.842L43.36,99.766L43.827,99.659L44.293,99.51L44.759,99.307L45.225,99.035L45.691,98.676L46.157,98.21L46.624,97.614L47.09,96.866L47.556,95.941L48.022,94.817L48.488,93.471L48.954,91.886L49.421,90.047L49.887,87.945L50.353,85.579L50.819,82.954L51.285,80.08L51.752,76.978L52.218,73.67L52.684,70.187L53.15,66.561L53.616,62.829L54.082,59.03L54.549,55.203L55.015,51.391L55.481,47.637L55.947,43.985L56.413,40.484L56.879,37.18L57.346,34.125L57.812,31.367L58.278,28.954L58.744,26.928L59.21,25.326L59.677,24.176L60.143,23.493L60.609,23.282L61.075,23.535L61.541,24.231L62.007,25.34L62.474,26.824L62.94,28.641L63.406,30.744L63.872,33.091L64.338,35.641L64.804,38.356L65.271,41.205L65.737,44.161L66.203,47.2L66.669,50.298L67.135,53.432L67.602,56.577L68.068,59.705L68.534,62.782L69,65.773L69.466,68.64L69.932,71.345L70.399,73.852L70.865,76.13L71.331,78.155L71.797,79.914L72.263,81.404L72.729,82.633L73.196,83.622L73.662,84.401L74.128,85.007L74.594,85.484L75.06,85.877L75.526,86.229L75.993,86.581L76.459,86.966L76.925,87.41L77.391,87.931L77.857,88.535L78.324,89.223L78.79,89.986L79.256,90.809L79.722,91.672L80.188,92.556L80.654,93.438L81.121,94.297L81.587,95.115L82.053,95.877L82.519,96.571L82.985,97.192L83.451,97.735L83.918,98.201L84.384,98.593L84.85,98.916L85.316,99.179L85.782,99.387L86.249,99.55L86.715,99.675L87.181,99.769L87.647,99.838L88.113,99.889L88.579,99.925L88.579,100L88.113,100L87.647,100L87.181,100L86.715,100L86.249,100L85.782,100L85.316,100L84.85,100L84.384,100L83.918,100L83.451,100L82.985,100L82.519,100L82.053,100L81.587,100L81.121,100L80.654,100L80.188,100L79.722,100L79.256,100L78.79,100L78.324,100L77.857,100L77.391,100L76.925,100L76.459,100L75.993,100L75.526,100L75.06,100L74.594,100L74.128,100L73.662,100L73.196,100L72.729,100L72.263,100L71.797,100L71.331,100L70.865,100L70.399,100L69.932,100L69.466,100L69,100L68.534,100L68.068,100L67.602,100L67.135,100L66.669,100L66.203,100L65.737,100L65.271,100L64.804,100L64.338,100L63.872,100L63.406,100L62.94,100L62.474,100L62.007,100L61.541,100L61.075,100L60.609,100L60.143,100L59.677,100L59.21,100L58.744,100L58.278,100L57.812,100L57.346,100L56.879,100L56.413,100L55.947,100L55.481,100L55.015,100L54.549,100L54.082,100L53.616,100L53.15,100L52.684,100L52.218,100L51.752,100L51.285,100L50.819,100L50.353,100L49.887,100L49.421,100L48.954,100L48.488,100L48.022,100L47.556,100L47.09,100L46.624,100L46.157,100L45.691,100L45.225,100L44.759,100L44.293,100L43.827,100L43.36,100L42.894,100L42.428,100Z" fill="#f58518" fill-opacity="0.5" stroke="#f58518" stroke-width="1" opacity="1"/></g></g><path class="foreground" aria-hidden="true" d="" display="none"/></g><g transform="translate(0,0)"><path class="background" aria-hidden="true" d="M0,0h0v0h0Z"/><g><g class="mark-area role-mark" role="graphics-symbol" aria-roledescription="area mark container"><path d="M3.547,99.935L3.921,99.898L4.294,99.845L4.667,99.769L5.04,99.663L5.414,99.517L5.787,99.323L6.16,99.069L6.533,98.747L6.907,98.346L7.28,97.859L7.653,97.283L8.026,96.619L8.4,95.873L8.773,95.058L9.146,94.191L9.519,93.296L9.893,92.401L10.266,91.535L10.639,90.725L11.012,89.996L11.386,89.365L11.759,88.839L12.132,88.417L12.505,88.081L12.879,87.803L13.252,87.542L13.625,87.248L13.998,86.86L14.372,86.312L14.745,85.538L15.118,84.467L15.491,83.037L15.865,81.191L16.238,78.884L16.611,76.084L16.984,72.781L17.358,68.984L17.731,64.728L18.104,60.069L18.477,55.088L18.851,49.884L19.224,44.57L19.597,39.267L19.97,34.096L20.344,29.17L20.717,24.589L21.09,20.435L21.463,16.771L21.837,13.64L22.21,11.065L22.583,9.055L22.956,7.605L23.33,6.699L23.703,6.315L24.076,6.425L24.449,6.992L24.822,7.976L25.196,9.33L25.569,11.002L25.942,12.94L26.315,15.088L26.689,17.398L27.062,19.827L27.435,22.342L27.808,24.928L28.182,27.579L28.555,30.305L28.928,33.124L29.301,36.063L29.675,39.144L30.048,42.389L30.421,45.807L30.794,49.394L31.168,53.132L31.541,56.988L31.914,60.917L32.287,64.864L32.661,68.767L33.034,72.566L33.407,76.202L33.78,79.621L34.154,82.783L34.527,85.655L34.9,88.219L35.273,90.467L35.647,92.402L36.02,94.038L36.393,95.397L36.766,96.504L37.14,97.389L37.513,98.083L37.886,98.617L38.259,99.02L38.633,99.318L39.006,99.534L39.379,99.688L39.752,99.795L40.126,99.867L40.499,99.916L40.499,100L40.126,100L39.752,100L39.379,100L39.006,100L38.633,100L38.259,100L37.886,100L37.513,100L37.14,100L36.766,100L36.393,100L36.02,100L35.647,100L35.273,100L34.9,100L34.527,100L34.154,100L33.78,100L33.407,100L33.034,100L32.661,100L32.287,100L31.914,100L31.541,100L31.168,100L30.794,100L30.421,100L30.048,100L29.675,100L29.301,100L28.928,100L28.555,100L28.182,100L27.808,100L27.435,100L27.062,100L26.689,100L26.315,100L25.942,100L25.569,100L25.196,100L24.822,100L24.449,100L24.076,100L23.703,100L23.33,100L22.956,100L22.583,100L22.21,100L21.837,100L21.463,100L21.09,100L20.717,100L20.344,100L19.97,100L19.597,100L19.224,100L18.851,100L18.477,100L18.104,100L17.731,100L17.358,100L16.984,100L16.611,100L16.238,100L15.865,100L15.491,100L15.118,100L14.745,100L14.372,100L13.998,100L13.625,100L13.252,100L12.879,100L12.505,100L12.132,100L11.759,100L11.386,100L11.012,100L10.639,100L10.266,100L9.893,100L9.519,100L9.146,100L8.773,100L8.4,100L8.026,100L7.653,100L7.28,100L6.907,100L6.533,100L6.16,100L5.787,100L5.414,100L5.04,100L4.667,100L4.294,100L3.921,100L3.547,100Z" fill="#e45756" fill-opacity="0.5" stroke="#e45756" stroke-width="1" opacity="1"/></g></g><path class="foreground" aria-hidden="true" d="" display="none"/></g></g></g><path class="foreground" aria-hidden="true" d="" display="none"/></g></g></g><defs><clipPath id="clip1"><rect x="0" y="0" width="100" height="100"/></clipPath></defs></svg>