<svg xmlns="http://www.w3.org/2000/svg" xmlns:xlink="http://www.w3.org/1999/xlink" version="1.1" class="marks" width="141" height="132" viewBox="0 0 141 132"><rect width="141" height="132" fill="white"/><g fill="none" stroke-miterlimit="10" transform="translate(37,0)"><g class="mark-group role-frame root" role="graphics-object" aria-roledescription="group mark container"><g transform="translate(0,0)"><path class="background" aria-hidden="true" d="M0,0h100v100h-100Z"/><g><g class="mark-group role-axis" role="graphics-symbol" aria-roledescription="axis" aria-label="X-axis titled 'x' for a linear scale with values from −5 to 4"><g transform="translate(0,100)"><path class="background" aria-hidden="true" d="M0,0h0v0h0Z" pointer-events="none"/><g><g class="mark-rule role-axis-grid" pointer-events="none"><line transform="translate(11,0)" x2="0" y2="-100" stroke="lightgray" stroke-width="0.5" stroke-dasharray="3" opacity="1"/><line transform="translate(33,0)" x2="0" y2="-100" stroke="lightgray" stroke-width="0.5" stroke-dasharray="3" opacity="1"/><line transform="translate(56,0)" x2="0" y2="-100" stroke="lightgray" stroke-width="0.5" stroke-dasharray="3" opacity="1"/><line transform="translate(78,0)" x2="0" y2="-100" stroke="lightgray" stroke-width="0.5" stroke-dasharray="3" opacity="1"/><line transform="translate(100,0)" x2="0" y2="-100" stroke="lightgray" stroke-width="0.5" stroke-dasharray="3" opacity="1"/></g><g class="mark-rule role-axis-tick" pointer-events="none"><line transform="translate(11,0)" x2="0" y2="5" stroke="black" stroke-width="1.01" opacity="1"/><line transform="translate(33,0)" x2="0" y2="5" stroke="black" stroke-width="1.01" opacity="1"/><line transform="translate(56,0)" x2="0" y2="5" stroke="black" stroke-width="1.01" opacity="1"/><line transform="translate(78,0)" x2="0" y2="5" stroke="black" stroke-width="1.01" opacity="1"/><line transform="translate(100,0)" x2="0" y2="5" stroke="black" stroke-width="1.01" opacity="1"/></g><g class="mark-text role-axis-label" pointer-events="none"><text text-anchor="middle" transform="translate(11.11111111111111,15)" font-family="sans-serif" font-size="10px" font-style="normal" font-weight="400" fill="black" opacity="1">−4</text><text text-anchor="middle" transform="translate(33.33333333333333,15)" font-family="sans-serif" font-size="10px" font-style="normal" font-weight="400" fill="black" opacity="1">−2</text><text text-anchor="middle" transform="translate(55.55555555555556,15)" font-family="sans-serif" font-size="10px" font-style="normal" font-weight="400" fill="black" opacity="1">0</text><text text-anchor="middle" transform="translate(77.77777777777779,15)" font-family="sans-serif" font-size="10px" font-style="normal" font-weight="400" fill="black" opacity="1">2</text><text text-anchor="middle" transform="translate(100,15)" font-family="sans-serif" font-size="10px" font-style="normal" font-weight="400" fill="black" opacity="1">4</text></g><g class="mark-rule role-axis-domain" pointer-events="none"><line transform="translate(0,0)" x2="100" y2="0" stroke="black" stroke-width="1.01" opacity="1"/></g><g class="mark-text role-axis-title" pointer-events="none"><text text-anchor="middle" transform="translate(50,30)" font-family="sans-serif" font-size="11px" font-style="normal" font-weight="400" fill="black" opacity="1">x</text></g></g><path class="foreground" aria-hidden="true" d="" pointer-events="none" display="none"/></g></g><g class="mark-group role-axis" role="graphics-symbol" aria-roledescription="axis" aria-label="Y-axis titled 'y' for a linear scale with values from −3 to 5"><g transform="translate(0,0)"><path class="background" aria-hidden="true" d="M0,0h0v0h0Z" pointer-events="none"/><g><g class="mark-rule role-axis-grid" pointer-events="none"><line transform="translate(0,88)" x2="100" y2="0" stroke="lightgray" stroke-width="0.5" stroke-dasharray="3" opacity="1"/><line transform="translate(0,63)" x2="100" y2="0" stroke="lightgray" stroke-width="0.5" stroke-dasharray="3" opacity="1"/><line transform="translate(0,38)" x2="100" y2="0" stroke="lightgray" stroke-width="0.5" stroke-dasharray="3" opacity="1"/><line transform="translate(0,13)" x2="100" y2="0" stroke="lightgray" stroke-width="0.5" stroke-dasharray="3" opacity="1"/></g><g class="mark-rule role-axis-tick" pointer-events="none"><line transform="translate(0,88)" x2="-5" y2="0" stroke="black" stroke-width="1.01" opacity="1"/><line transform="translate(0,63)" x2="-5" y2="0" stroke="black" stroke-width="1.01" opacity="1"/><line transform="translate(0,38)" x2="-5" y2="0" stroke="black" stroke-width="1.01" opacity="1"/><line transform="translate(0,13)" x2="-5" y2="0" stroke="black" stroke-width="1.01" opacity="1"/></g><g class="mark-text role-axis-label" pointer-events="none"><text text-anchor="end" transform="translate(-7,90.5)" font-family="sans-serif" font-size="10px" font-style="normal" font-weight="400" fill="black" opacity="1">−2</text><text text-anchor="end" transform="translate(-7,65.5)" font-family="sans-serif" font-size="10px" font-style="normal" font-weight="400" fill="black" opacity="1">0</text><text text-anchor="end" transform="translate(-7,40.5)" font-family="sans-serif" font-size="10px" font-style="normal" font-weight="400" fill="black" opacity="1">2</text><text text-anchor="end" transform="translate(-7,15.5)" font-family="sans-serif" font-size="10px" font-style="normal" font-weight="400" fill="black" opacity="1">4</text></g><g class="mark-rule role-axis-domain" pointer-events="none"><line transform="translate(0,100)" x2="0" y2="-100" stroke="black" stroke-width="1.01" opacity="1"/></g><g class="mark-text role-axis-title" pointer-events="none"><text text-anchor="middle" transform="translate(-25.7412109375,50) rotate(-90) translate(0,-2)" font-family="sans-serif" font-size="11px" font-style="normal" font-weight="400" fill="black" opacity="1">y</text></g></g><path class="foreground" aria-hidden="true" d="" pointer-events="none" display="none"/></g></g><g class="mark-group role-scope" clip-path="url(#clip1)" role="graphics-object" aria-roledescription="group mark container"><g transform="translate(0,0)"><path class="background" aria-hidden="true" d="M0,0h0v0h0Z"/><g><g class="mark-rect role-mark" role="graphics-symbol" aria-roledescription="rect mark container"><path d="M10.126532475721087,76.56925498265046h21.007772231049643v22.480469854481h-21.007772231049643Z" fill="rgb(68, 1, 84)" opacity="1"/><path d="M31.134304706770727,76.56925498265046h21.007772231049643v22.480469854481h-21.007772231049643Z" fill="rgb(62, 75, 137)" opacity="1"/><path d="M52.14207693782037,76.56925498265046h21.007772231049636v22.480469854481h-21.007772231049636Z" fill="rgb(57, 87, 140)" opacity="1"/><path d="M73.14984916887,76.56925498265046h21.007772231049657v22.480469854481h-21.007772231049657Z" fill="rgb(70, 8, 91)" opacity="1"/><path d="M10.126532475721087,54.08878512816946h21.007772231049643v22.480469854481h-21.007772231049643Z" fill="rgb(71, 12, 95)" opacity="1"/><path d="M31.134304706770727,54.08878512816946h21.007772231049643v22.480469854481h-21.007772231049643Z" fill="rgb(61, 188, 116)" opacity="1"/><path d="M52.14207693782037,54.08878512816946h21.007772231049636v22.480469854481h-21.007772231049636Z" fill="rgb(253, 231, 37)" opacity="1"/><path d="M73.14984916887,54.08878512816946h21.007772231049657v22.480469854481h-21.007772231049657Z" fill="rgb(70, 49, 126)" opacity="1"/><path d="M10.126532475721087,31.608315273688458h21.007772231049643v22.480469854481004h-21.007772231049643Z" fill="rgb(69, 5, 88)" opacity="1"/><path d="M31.134304706770727,31.608315273688458h21.007772231049643v22.480469854481004h-21.007772231049643Z" fill="rgb(49, 103, 142)" opacity="1"/><path d="M52.14207693782037,31.608315273688458h21.007772231049636v22.480469854481004h-21.007772231049636Z" fill="rgb(45, 112, 142)" opacity="1"/><path d="M73.14984916887,31.608315273688458h21.007772231049657v22.480469854481004h-21.007772231049657Z" fill="rgb(71, 17, 100)" opacity="1"/><path d="M31.134304706770727,9.127845419207459h21.007772231049643v22.480469854481h-21.007772231049643Z" fill="rgb(69, 6, 89)" opacity="1"/><path d="M52.14207693782037,9.127845419207459h21.007772231049636v22.480469854481h-21.007772231049636Z" fill="rgb(68, 2, 85)" opacity="1"/></g></g><path class="foreground" aria-hidden="true" d="" display="none"/></g></g></g><path class="foreground" aria-hidden="true" d="" display="none"/></g></g></g><defs><clipPath id="clip1"><rect x="0" y="0" width="100" height="100"/></clipPath></defs></svg>