<svg xmlns="http://www.w3.org/2000/svg" xmlns:xlink="http://www.w3.org/1999/xlink" version="1.1" class="marks" width="153" height="138" viewBox="0 0 153 138"><rect width="153" height="138" fill="white"/><g fill="none" stroke-miterlimit="10" transform="translate(35,6)"><g class="mark-group role-frame root" role="graphics-object" aria-roledescription="group mark container"><g transform="translate(0,0)"><path class="background" aria-hidden="true" d="M0,0h100v100h-100Z"/><g><g class="mark-group role-axis" role="graphics-symbol" aria-roledescription="axis" aria-label="X-axis titled 'gdpPercap' for a linear scale with values from 0 to 28,000"><g transform="translate(0.5,100.5)"><path class="background" aria-hidden="true" d="M0,0h0v0h0Z" pointer-events="none"/><g><g class="mark-rule role-axis-grid" pointer-events="none"><line transform="translate(0,0)" x2="0" y2="-100" stroke="lightgray" stroke-width="0.4" stroke-dasharray="0" opacity="1"/><line transform="translate(7,0)" x2="0" y2="-100" stroke="lightgray" stroke-width="0.4" stroke-dasharray="0" opacity="1"/><line transform="translate(14,0)" x2="0" y2="-100" stroke="lightgray" stroke-width="0.4" stroke-dasharray="0" opacity="1"/><line transform="translate(21,0)" x2="0" y2="-100" stroke="lightgray" stroke-width="0.4" stroke-dasharray="0" opacity="1"/><line transform="translate(29,0)" x2="0" y2="-100" stroke="lightgray" stroke-width="0.4" stroke-dasharray="0" opacity="1"/><line transform="translate(36,0)" x2="0" y2="-100" stroke="lightgray" stroke-width="0.4" stroke-dasharray="0" opacity="1"/><line transform="translate(43,0)" x2="0" y2="-100" stroke="lightgray" stroke-width="0.4" stroke-dasharray="0" opacity="1"/><line transform="translate(50,0)" x2="0" y2="-100" stroke="lightgray" stroke-width="0.4" stroke-dasharray="0" opacity="1"/><line transform="translate(57,0)" x2="0" y2="-100" stroke="lightgray" stroke-width="0.4" stroke-dasharray="0" opacity="1"/><line transform="translate(64,0)" x2="0" y2="-100" stroke="lightgray" stroke-width="0.4" stroke-dasharray="0" opacity="1"/><line transform="translate(71,0)" x2="0" y2="-100" stroke="lightgray" stroke-width="0.4" stroke-dasharray="0" opacity="1"/><line transform="translate(79,0)" x2="0" y2="-100" stroke="lightgray" stroke-width="0.4" stroke-dasharray="0" opacity="1"/><line transform="translate(86,0)" x2="0" y2="-100" stroke="lightgray" stroke-width="0.4" stroke-dasharray="0" opacity="1"/><line transform="translate(93,0)" x2="0" y2="-100" stroke="lightgray" stroke-width="0.4" stroke-dasharray="0" opacity="1"/><line transform="translate(100,0)" x2="0" y2="-100" stroke="lightgray" stroke-width="0.4" stroke-dasharray="0" opacity="1"/></g><g class="mark-rule role-axis-tick" pointer-events="none"><line transform="translate(0,0)" x2="0" y2="5" stroke="white" stroke-width="1.01" opacity="1"/><line transform="translate(7,0)" x2="0" y2="5" stroke="white" stroke-width="1.01" opacity="1"/><line transform="translate(14,0)" x2="0" y2="5" stroke="white" stroke-width="1.01" opacity="1"/><line transform="translate(21,0)" x2="0" y2="5" stroke="white" stroke-width="1.01" opacity="1"/><line transform="translate(29,0)" x2="0" y2="5" stroke="white" stroke-width="1.01" opacity="1"/><line transform="translate(36,0)" x2="0" y2="5" stroke="white" stroke-width="1.01" opacity="1"/><line transform="translate(43,0)" x2="0" y2="5" stroke="white" stroke-width="1.01" opacity="1"/><line transform="translate(50,0)" x2="0" y2="5" stroke="white" stroke-width="1.01" opacity="1"/><line transform="translate(57,0)" x2="0" y2="5" stroke="white" stroke-width="1.01" opacity="1"/><line transform="translate(64,0)" x2="0" y2="5" stroke="white" stroke-width="1.01" opacity="1"/><line transform="translate(71,0)" x2="0" y2="5" stroke="white" stroke-width="1.01" opacity="1"/><line transform="translate(79,0)" x2="0" y2="5" stroke="white" stroke-width="1.01" opacity="1"/><line transform="translate(86,0)" x2="0" y2="5" stroke="white" stroke-width="1.01" opacity="1"/><line transform="translate(93,0)" x2="0" y2="5" stroke="white" stroke-width="1.01" opacity="1"/><line transform="translate(100,0)" x2="0" y2="5" stroke="white" stroke-width="1.01" opacity="1"/></g><g class="mark-text role-axis-label" pointer-events="none"><text text-anchor="middle" transform="translate(0,15)" font-family="sans-serif" font-size="10px" font-style="normal" font-weight="400" fill="white" opacity="1">0</text><text text-anchor="middle" transform="translate(7.142857142857142,15)" font-family="sans-serif" font-size="10px" font-style="normal" font-weight="400" fill="white" opacity="0">2,000</text><text text-anchor="middle" transform="translate(14.285714285714285,15)" font-family="sans-serif" font-size="10px" font-style="normal" font-weight="400" fill="white" opacity="0">4,000</text><text text-anchor="middle" transform="translate(21.428571428571427,15)" font-family="sans-serif" font-size="10px" font-style="normal" font-weight="400" fill="white" opacity="0">6,000</text><text text-anchor="middle" transform="translate(28.57142857142857,15)" font-family="sans-serif" font-size="10px" font-style="normal" font-weight="400" fill="white" opacity="0">8,000</text><text text-anchor="middle" transform="translate(35.714285714285715,15)" font-family="sans-serif" font-size="10px" font-style="normal" font-weight="400" fill="white" opacity="0">10,000</text><text text-anchor="middle" transform="translate(42.857142857142854,15)" font-family="sans-serif" font-size="10px" font-style="normal" font-weight="400" fill="white" opacity="0">12,000</text><text text-anchor="middle" transform="translate(50,15)" font-family="sans-serif" font-size="10px" font-style="normal" font-weight="400" fill="white" opacity="0">14,000</text><text text-anchor="middle" transform="translate(57.14285714285714,15)" font-family="sans-serif" font-size="10px" font-style="normal" font-weight="400" fill="white" opacity="0">16,000</text><text text-anchor="middle" transform="translate(64.28571428571429,15)" font-family="sans-serif" font-size="10px" font-style="normal" font-weight="400" fill="white" opacity="0">18,000</text><text text-anchor="middle" transform="translate(71.42857142857143,15)" font-family="sans-serif" font-size="10px" font-style="normal" font-weight="400" fill="white" opacity="0">20,000</text><text text-anchor="middle" transform="translate(78.57142857142857,15)" font-family="sans-serif" font-size="10px" font-style="normal" font-weight="400" fill="white" opacity="0">22,000</text><text text-anchor="middle" transform="translate(85.71428571428571,15)" font-family="sans-serif" font-size="10px" font-style="normal" font-weight="400" fill="white" opacity="0">24,000</text><text text-anchor="middle" transform="translate(92.85714285714286,15)" font-family="sans-serif" font-size="10px" font-style="normal" font-weight="400" fill="white" opacity="0">26,000</text><text text-anchor="middle" transform="translate(100,15)" font-family="sans-serif" font-size="10px" font-style="normal" font-weight="400" fill="white" opacity="1">28,000</text></g><g class="mark-text role-axis-title" pointer-events="none"><text text-anchor="middle" transform="translate(50,30)" font-family="sans-serif" font-size="11px" font-style="normal" font-weight="400" fill="white" opacity="1">gdpPercap</text></g></g><path class="foreground" aria-hidden="true" d="" pointer-events="none" display="none"/></g></g><g class="mark-group role-axis" role="graphics-symbol" aria-roledescription="axis" aria-label="Y-axis titled 'lifeExp' for a linear scale with values from 56 to 78"><g transform="translate(0.5,0.5)"><path class="background" aria-hidden="true" d="M0,0h0v0h0Z" pointer-events="none"/><g><g class="mark-rule role-axis-grid" pointer-events="none"><line transform="translate(0,100)" x2="100" y2="0" stroke="lightgray" stroke-width="0.4" stroke-dasharray="0" opacity="1"/><line transform="translate(0,91)" x2="100" y2="0" stroke="lightgray" stroke-width="0.4" stroke-dasharray="0" opacity="1"/><line transform="translate(0,82)" x2="100" y2="0" stroke="lightgray" stroke-width="0.4" stroke-dasharray="0" opacity="1"/><line transform="translate(0,73)" x2="100" y2="0" stroke="lightgray" stroke-width="0.4" stroke-dasharray="0" opacity="1"/><line transform="translate(0,64)" x2="100" y2="0" stroke="lightgray" stroke-width="0.4" stroke-dasharray="0" opacity="1"/><line transform="translate(0,55)" x2="100" y2="0" stroke="lightgray" stroke-width="0.4" stroke-dasharray="0" opacity="1"/><line transform="translate(0,45)" x2="100" y2="0" stroke="lightgray" stroke-width="0.4" stroke-dasharray="0" opacity="1"/><line transform="translate(0,36)" x2="100" y2="0" stroke="lightgray" stroke-width="0.4" stroke-dasharray="0" opacity="1"/><line transform="translate(0,27)" x2="100" y2="0" stroke="lightgray" stroke-width="0.4" stroke-dasharray="0" opacity="1"/><line transform="translate(0,18)" x2="100" y2="0" stroke="lightgray" stroke-width="0.4" stroke-dasharray="0" opacity="1"/><line transform="translate(0,9)" x2="100" y2="0" stroke="lightgray" stroke-width="0.4" stroke-dasharray="0" opacity="1"/><line transform="translate(0,0)" x2="100" y2="0" stroke="lightgray" stroke-width="0.4" stroke-dasharray="0" opacity="1"/></g><g class="mark-rule role-axis-tick" pointer-events="none"><line transform="translate(0,100)" x2="-5" y2="0" stroke="white" stroke-width="1.01" opacity="1"/><line transform="translate(0,91)" x2="-5" y2="0" stroke="white" stroke-width="1.01" opacity="1"/><line transform="translate(0,82)" x2="-5" y2="0" stroke="white" stroke-width="1.01" opacity="1"/><line transform="translate(0,73)" x2="-5" y2="0" stroke="white" stroke-width="1.01" opacity="1"/><line transform="translate(0,64)" x2="-5" y2="0" stroke="white" stroke-width="1.01" opacity="1"/><line transform="translate(0,55)" x2="-5" y2="0" stroke="white" stroke-width="1.01" opacity="1"/><line transform="translate(0,45)" x2="-5" y2="0" stroke="white" stroke-width="1.01" opacity="1"/><line transform="translate(0,36)" x2="-5" y2="0" stroke="white" stroke-width="1.01" opacity="1"/><line transform="translate(0,27)" x2="-5" y2="0" stroke="white" stroke-width="1.01" opacity="1"/><line transform="translate(0,18)" x2="-5" y2="0" stroke="white" stroke-width="1.01" opacity="1"/><line transform="translate(0,9)" x2="-5" y2="0" stroke="white" stroke-width="1.01" opacity="1"/><line transform="translate(0,0)" x2="-5" y2="0" stroke="white" stroke-width="1.01" opacity="1"/></g><g class="mark-text role-axis-label" pointer-events="none"><text text-anchor="end" transform="translate(-7,103)" font-family="sans-serif" font-size="10px" font-style="normal" font-weight="400" fill="white" opacity="1">56</text><text text-anchor="end" transform="translate(-7,93.9090909090909)" font-family="sans-serif" font-size="10px" font-style="normal" font-weight="400" fill="white" opacity="0">58</text><text text-anchor="end" transform="translate(-7,84.81818181818181)" font-family="sans-serif" font-size="10px" font-style="normal" font-weight="400" fill="white" opacity="1">60</text><text text-anchor="end" transform="translate(-7,75.72727272727273)" font-family="sans-serif" font-size="10px" font-style="normal" font-weight="400" fill="white" opacity="0">62</text><text text-anchor="end" transform="translate(-7,66.63636363636363)" font-family="sans-serif" font-size="10px" font-style="normal" font-weight="400" fill="white" opacity="1">64</text><text text-anchor="end" transform="translate(-7,57.54545454545454)" font-family="sans-serif" font-size="10px" font-style="normal" font-weight="400" fill="white" opacity="0">66</text><text text-anchor="end" transform="translate(-7,48.45454545454546)" font-family="sans-serif" font-size="10px" font-style="normal" font-weight="400" fill="white" opacity="1">68</text><text text-anchor="end" transform="translate(-7,39.36363636363637)" font-family="sans-serif" font-size="10px" font-style="normal" font-weight="400" fill="white" opacity="0">70</text><text text-anchor="end" transform="translate(-7,30.27272727272727)" font-family="sans-serif" font-size="10px" font-style="normal" font-weight="400" fill="white" opacity="1">72</text><text text-anchor="end" transform="translate(-7,21.181818181818176)" font-family="sans-serif" font-size="10px" font-style="normal" font-weight="400" fill="white" opacity="0">74</text><text text-anchor="end" transform="translate(-7,12.090909090909093)" font-family="sans-serif" font-size="10px" font-style="normal" font-weight="400" fill="white" opacity="1">76</text><text text-anchor="end" transform="translate(-7,3)" font-family="sans-serif" font-size="10px" font-style="normal" font-weight="400" fill="white" opacity="0">78</text></g><g class="mark-text role-axis-title" pointer-events="none"><text text-anchor="middle" transform="translate(-23.724609375,50) rotate(-90) translate(0,-2)" font-family="sans-serif" font-size="11px" font-style="normal" font-weight="400" fill="white" opacity="1">lifeExp</text></g></g><path class="foreground" aria-hidden="true" d="" pointer-events="none" display="none"/></g></g><g class="mark-group role-scope" role="graphics-object" aria-roledescription="group mark container"><g transform="translate(0,0)"><path class="background" aria-hidden="true" d="M0,0h0v0h0Z"/><g><g class="mark-symbol role-mark points" role="graphics-symbol" aria-roledescription="symbol mark container"><path transform="translate(9.660714285714286,76.81818181818181)" d="M3.162,0A3.162,3.162,0,1,1,-3.162,0A3.162,3.162,0,1,1,3.162,0" fill="white" stroke="#4c78a8" stroke-width="1" opacity="1"/><path transform="translate(7.271428571428571,32.136363636363605)" d="M3.162,0A3.162,3.162,0,1,1,-3.162,0A3.162,3.162,0,1,1,3.162,0" fill="white" stroke="#f58518" stroke-width="1" opacity="1"/><path transform="translate(31.732142857142858,13.99999999999999)" d="M3.162,0A3.162,3.162,0,1,1,-3.162,0A3.162,3.162,0,1,1,3.162,0" fill="white" stroke="#f58518" stroke-width="1" opacity="1"/><path transform="translate(30.70357142857143,33.50000000000002)" d="M3.162,0A3.162,3.162,0,1,1,-3.162,0A3.162,3.162,0,1,1,3.162,0" fill="white" stroke="#e45756" stroke-width="1" opacity="1"/><path transform="translate(3.092857142857143,87.36363636363636)" d="M3.162,0A3.162,3.162,0,1,1,-3.162,0A3.162,3.162,0,1,1,3.162,0" fill="white" stroke="#4c78a8" stroke-width="1" opacity="1"/><path transform="translate(29.596428571428575,39.363636363636346)" d="M3.162,0A3.162,3.162,0,1,1,-3.162,0A3.162,3.162,0,1,1,3.162,0" fill="white" stroke="#f58518" stroke-width="1" opacity="1"/><path transform="translate(9.653571428571428,40.7272727272727)" d="M3.162,0A3.162,3.162,0,1,1,-3.162,0A3.162,3.162,0,1,1,3.162,0" fill="white" stroke="#72b7b2" stroke-width="1" opacity="1"/><path transform="translate(74.11071428571428,47.18181818181816)" d="M3.162,0A3.162,3.162,0,1,1,-3.162,0A3.162,3.162,0,1,1,3.162,0" fill="white" stroke="#54a24b" stroke-width="1" opacity="1"/><path transform="translate(61.78928571428571,33.59090909090909)" d="M3.162,0A3.162,3.162,0,1,1,-3.162,0A3.162,3.162,0,1,1,3.162,0" fill="white" stroke="#54a24b" stroke-width="1" opacity="1"/><path transform="translate(11.989285714285716,40.954545454545475)" d="M3.162,0A3.162,3.162,0,1,1,-3.162,0A3.162,3.162,0,1,1,3.162,0" fill="white" stroke="#4c78a8" stroke-width="1" opacity="1"/><path transform="translate(92.91428571428571,7.954545454545459)" d="M3.162,0A3.162,3.162,0,1,1,-3.162,0A3.162,3.162,0,1,1,3.162,0" fill="white" stroke="#54a24b" stroke-width="1" opacity="1"/><path transform="translate(29.25357142857143,31.818181818181824)" d="M3.162,0A3.162,3.162,0,1,1,-3.162,0A3.162,3.162,0,1,1,3.162,0" fill="white" stroke="#72b7b2" stroke-width="1" opacity="1"/><path transform="translate(47.90357142857143,25.136363636363647)" d="M3.162,0A3.162,3.162,0,1,1,-3.162,0A3.162,3.162,0,1,1,3.162,0" fill="white" stroke="#eeca3b" stroke-width="1" opacity="1"/><path transform="translate(74.86071428571428,21.7727272727273)" d="M3.162,0A3.162,3.162,0,1,1,-3.162,0A3.162,3.162,0,1,1,3.162,0" fill="white" stroke="#4c78a8" stroke-width="1" opacity="1"/><path transform="translate(11.164285714285715,97.54545454545455)" d="M3.162,0A3.162,3.162,0,1,1,-3.162,0A3.162,3.162,0,1,1,3.162,0" fill="white" stroke="#4c78a8" stroke-width="1" opacity="1"/><path transform="translate(80.5,8.181818181818167)" d="M3.162,0A3.162,3.162,0,1,1,-3.162,0A3.162,3.162,0,1,1,3.162,0" fill="white" stroke="#e45756" stroke-width="1" opacity="1"/><path transform="translate(40.41428571428571,4.909090909090896)" d="M3.162,0A3.162,3.162,0,1,1,-3.162,0A3.162,3.162,0,1,1,3.162,0" fill="white" stroke="#e45756" stroke-width="1" opacity="1"/><path transform="translate(13.67142857142857,73.68181818181819)" d="M3.162,0A3.162,3.162,0,1,1,-3.162,0A3.162,3.162,0,1,1,3.162,0" fill="white" stroke="#4c78a8" stroke-width="1" opacity="1"/><path transform="translate(6.682142857142857,92.90909090909089)" d="M3.162,0A3.162,3.162,0,1,1,-3.162,0A3.162,3.162,0,1,1,3.162,0" fill="white" stroke="#4c78a8" stroke-width="1" opacity="1"/><path transform="translate(7.439285714285715,88.90909090909092)" d="M3.162,0A3.162,3.162,0,1,1,-3.162,0A3.162,3.162,0,1,1,3.162,0" fill="white" stroke="#4c78a8" stroke-width="1" opacity="1"/></g><g class="mark-text role-mark DONOTCHANGE_label_for_points" role="graphics-object" aria-roledescription="text mark container"><text text-anchor="start" transform="translate(0,0)" font-family="Times" font-size="8px" font-style="normal" font-weight="400" fill="#4c78a8" opacity="0">Benin</text><text text-anchor="start" transform="translate(0,0)" font-family="Times" font-size="8px" font-style="normal" font-weight="400" fill="#f58518" opacity="0">North Korea</text><text text-anchor="middle" transform="translate(31.732142857142858,25.16227766016837)" font-family="Times" font-size="8px" font-style="normal" font-weight="400" fill="#f58518" opacity="1">China</text><text text-anchor="start" transform="translate(35.86584908873981,35.50000000000002)" font-family="Times" font-size="8px" font-style="normal" font-weight="400" fill="#e45756" opacity="1">Iraq</text><text text-anchor="start" transform="translate(0,0)" font-family="Times" font-size="8px" font-style="normal" font-weight="400" fill="#4c78a8" opacity="0">Congo, Dem. Rep.</text><text text-anchor="middle" transform="translate(29.596428571428575,50.525914023804724)" font-family="Times" font-size="8px" font-style="normal" font-weight="400" fill="#f58518" opacity="1">Indonesia</text><text text-anchor="start" transform="translate(0,0)" font-family="Times" font-size="8px" font-style="normal" font-weight="400" fill="#72b7b2" opacity="0">Nepal</text><text text-anchor="middle" transform="translate(74.11071428571428,58.34409584198654)" font-family="Times" font-size="8px" font-style="normal" font-weight="400" fill="#54a24b" opacity="1">Kazakhstan</text><text text-anchor="start" transform="translate(66.9515633744541,35.59090909090909)" font-family="Times" font-size="8px" font-style="normal" font-weight="400" fill="#54a24b" opacity="1">Belarus</text><text text-anchor="start" transform="translate(0,0)" font-family="Times" font-size="8px" font-style="normal" font-weight="400" fill="#4c78a8" opacity="0">Sao Tome and Principe</text><text text-anchor="start" transform="translate(0,0)" font-family="Times" font-size="8px" font-style="normal" font-weight="400" fill="#54a24b" opacity="0">Estonia</text><text text-anchor="start" transform="translate(0,0)" font-family="Times" font-size="8px" font-style="normal" font-weight="400" fill="#72b7b2" opacity="0">Bhutan</text><text text-anchor="start" transform="translate(0,0)" font-family="Times" font-size="8px" font-style="normal" font-weight="400" fill="#eeca3b" opacity="0">Grenada</text><text text-anchor="start" transform="translate(0,0)" font-family="Times" font-size="8px" font-style="normal" font-weight="400" fill="#4c78a8" opacity="0">Seychelles</text><text text-anchor="start" transform="translate(0,0)" font-family="Times" font-size="8px" font-style="normal" font-weight="400" fill="#4c78a8" opacity="0">Zambia</text><text text-anchor="end" transform="translate(75.33772233983161,10.181818181818167)" font-family="Times" font-size="8px" font-style="normal" font-weight="400" fill="#e45756" opacity="1">Libya</text><text text-anchor="end" transform="translate(35.25200805411733,6.909090909090896)" font-family="Times" font-size="8px" font-style="normal" font-weight="400" fill="#e45756" opacity="1">Jordan</text><text text-anchor="middle" transform="translate(13.67142857142857,66.5195405216498)" font-family="Times" font-size="8px" font-style="normal" font-weight="400" fill="#4c78a8" opacity="1">Ghana</text><text text-anchor="start" transform="translate(0,0)" font-family="Times" font-size="8px" font-style="normal" font-weight="400" fill="#4c78a8" opacity="0">Guinea</text><text text-anchor="start" transform="translate(12.601563374454095,90.90909090909092)" font-family="Times" font-size="8px" font-style="normal" font-weight="400" fill="#4c78a8" opacity="1">Mali</text></g></g><path class="foreground" aria-hidden="true" d="" display="none"/></g></g></g><path class="foreground" aria-hidden="true" d="" display="none"/></g></g></g></svg>