<svg xmlns="http://www.w3.org/2000/svg" xmlns:xlink="http://www.w3.org/1999/xlink" version="1.1" class="marks" width="190" height="137" viewBox="0 0 190 137"><rect width="190" height="137" fill="white"/><g fill="none" stroke-miterlimit="10" transform="translate(38,5)"><g class="mark-group role-frame root" role="graphics-object" aria-roledescription="group mark container"><g transform="translate(0,0)"><path class="background" aria-hidden="true" d="M0,0h100v100h-100Z" fill="lightgray"/><g><g class="mark-group role-axis" role="graphics-symbol" aria-roledescription="axis" aria-label="X-axis titled 'x' for a linear scale with values from 0.0 to 1.0"><g transform="translate(0.5,100.5)"><path class="background" aria-hidden="true" d="M0,0h0v0h0Z" pointer-events="none"/><g><g class="mark-rule role-axis-grid" pointer-events="none"><line transform="translate(0,0)" x2="0" y2="-100" stroke="white" stroke-width="0.5" stroke-dasharray="0" opacity="1"/><line transform="translate(50,0)" x2="0" y2="-100" stroke="white" stroke-width="0.5" stroke-dasharray="0" opacity="1"/><line transform="translate(100,0)" x2="0" y2="-100" stroke="white" stroke-width="0.5" stroke-dasharray="0" opacity="1"/></g><g class="mark-rule role-axis-tick" pointer-events="none"><line transform="translate(0,0)" x2="0" y2="5" stroke="black" stroke-width="1.01" opacity="1"/><line transform="translate(50,0)" x2="0" y2="5" stroke="black" stroke-width="1.01" opacity="1"/><line transform="translate(100,0)" x2="0" y2="5" stroke="black" stroke-width="1.01" opacity="1"/></g><g class="mark-text role-axis-label" pointer-events="none"><text text-anchor="middle" transform="translate(0,15)" font-family="sans-serif" font-size="10px" font-style="normal" font-weight="400" fill="black" opacity="1">0.0</text><text text-anchor="middle" transform="translate(50,15)" font-family="sans-serif" font-size="10px" font-style="normal" font-weight="400" fill="black" opacity="1">0.5</text><text text-anchor="middle" transform="translate(100,15)" font-family="sans-serif" font-size="10px" font-style="normal" font-weight="400" fill="black" opacity="1">1.0</text></g><g class="mark-rule role-axis-domain" pointer-events="none"><line transform="translate(0,0)" x2="100" y2="0" stroke="black" stroke-width="1.01" opacity="1"/></g><g class="mark-text role-axis-title" pointer-events="none"><text text-anchor="middle" transform="translate(50,30)" font-family="sans-serif" font-size="11px" font-style="normal" font-weight="400" fill="black" opacity="1">x</text></g></g><path class="foreground" aria-hidden="true" d="" pointer-events="none" display="none"/></g></g><g class="mark-group role-axis" role="graphics-symbol" aria-roledescription="axis" aria-label="Y-axis titled 'y' for a linear scale with values from 0.0 to 1.0"><g transform="translate(0.5,0.5)"><path class="background" aria-hidden="true" d="M0,0h0v0h0Z" pointer-events="none"/><g><g class="mark-rule role-axis-grid" pointer-events="none"><line transform="translate(0,100)" x2="100" y2="0" stroke="white" stroke-width="0.5" stroke-dasharray="0" opacity="1"/><line transform="translate(0,50)" x2="100" y2="0" stroke="white" stroke-width="0.5" stroke-dasharray="0" opacity="1"/><line transform="translate(0,0)" x2="100" y2="0" stroke="white" stroke-width="0.5" stroke-dasharray="0" opacity="1"/></g><g class="mark-rule role-axis-tick" pointer-events="none"><line transform="translate(0,100)" x2="-5" y2="0" stroke="black" stroke-width="1.01" opacity="1"/><line transform="translate(0,50)" x2="-5" y2="0" stroke="black" stroke-width="1.01" opacity="1"/><line transform="translate(0,0)" x2="-5" y2="0" stroke="black" stroke-width="1.01" opacity="1"/></g><g class="mark-text role-axis-label" pointer-events="none"><text text-anchor="end" transform="translate(-7,103)" font-family="sans-serif" font-size="10px" font-style="normal" font-weight="400" fill="black" opacity="1">0.0</text><text text-anchor="end" transform="translate(-7,53)" font-family="sans-serif" font-size="10px" font-style="normal" font-weight="400" fill="black" opacity="1">0.5</text><text text-anchor="end" transform="translate(-7,3)" font-family="sans-serif" font-size="10px" font-style="normal" font-weight="400" fill="black" opacity="1">1.0</text></g><g class="mark-rule role-axis-domain" pointer-events="none"><line transform="translate(0,100)" x2="0" y2="-100" stroke="black" stroke-width="1.01" opacity="1"/></g><g class="mark-text role-axis-title" pointer-events="none"><text text-anchor="middle" transform="translate(-26.9033203125,50) rotate(-90) translate(0,-2)" font-family="sans-serif" font-size="11px" font-style="normal" font-weight="400" fill="black" opacity="1">y</text></g></g><path class="foreground" aria-hidden="true" d="" pointer-events="none" display="none"/></g></g><g class="mark-group role-scope" role="graphics-object" aria-roledescription="group mark container"><g transform="translate(0,0)"><path class="background" aria-hidden="true" d="M0,0h0v0h0Z"/><g><g class="mark-symbol role-mark points" role="graphics-symbol" aria-roledescription="symbol mark container"><path transform="translate(20.06805904992288,66.15346848261748)" d="M5,0A5,5,0,1,1,-5,0A5,5,0,1,1,5,0" fill="rgb(10, 139, 66)" stroke="white" stroke-width="1" opacity="1"/><path transform="translate(14.835210849992041,67.04843876081551)" d="M5,0A5,5,0,1,1,-5,0A5,5,0,1,1,5,0" fill="rgb(4, 137, 66)" stroke="white" stroke-width="1" opacity="1"/><path transform="translate(37.10938501609178,39.86876348213588)" d="M5,0A5,5,0,1,1,-5,0A5,5,0,1,1,5,0" fill="rgb(143, 189, 62)" stroke="white" stroke-width="1" opacity="1"/><path transform="translate(52.89937794794082,78.47429131358398)" d="M5,0A5,5,0,1,1,-5,0A5,5,0,1,1,5,0" fill="rgb(2, 109, 77)" stroke="white" stroke-width="1" opacity="1"/><path transform="translate(63.98248999887245,93.03307279571112)" d="M5,0A5,5,0,1,1,-5,0A5,5,0,1,1,5,0" fill="rgb(43, 75, 66)" stroke="white" stroke-width="1" opacity="1"/><path transform="translate(90.310080233571,75.01203909198641)" d="M5,0A5,5,0,1,1,-5,0A5,5,0,1,1,5,0" fill="rgb(1, 118, 74)" stroke="white" stroke-width="1" opacity="1"/><path transform="translate(75.38391946485079,20.954319334105286)" d="M5,0A5,5,0,1,1,-5,0A5,5,0,1,1,5,0" fill="rgb(223, 221, 51)" stroke="white" stroke-width="1" opacity="1"/><path transform="translate(86.9806527133214,5.155840802426647)" d="M5,0A5,5,0,1,1,-5,0A5,5,0,1,1,5,0" fill="rgb(255, 250, 139)" stroke="white" stroke-width="1" opacity="1"/><path transform="translate(17.93172412487817,41.6907179873738)" d="M5,0A5,5,0,1,1,-5,0A5,5,0,1,1,5,0" fill="rgb(135, 186, 63)" stroke="white" stroke-width="1" opacity="1"/><path transform="translate(70.76535956078126,10.521485975077816)" d="M5,0A5,5,0,1,1,-5,0A5,5,0,1,1,5,0" fill="rgb(255, 240, 76)" stroke="white" stroke-width="1" opacity="1"/><path transform="translate(82.7250278623646,4.123430294719332)" d="M5,0A5,5,0,1,1,-5,0A5,5,0,1,1,5,0" fill="rgb(255, 252, 151)" stroke="white" stroke-width="1" opacity="1"/><path transform="translate(57.527834220323534,12.819896936986652)" d="M5,0A5,5,0,1,1,-5,0A5,5,0,1,1,5,0" fill="rgb(255, 236, 49)" stroke="white" stroke-width="1" opacity="1"/><path transform="translate(98.9500908418891,31.301257682021934)" d="M5,0A5,5,0,1,1,-5,0A5,5,0,1,1,5,0" fill="rgb(180, 204, 59)" stroke="white" stroke-width="1" opacity="1"/><path transform="translate(56.52939101240666,52.63250338313421)" d="M5,0A5,5,0,1,1,-5,0A5,5,0,1,1,5,0" fill="rgb(88, 165, 65)" stroke="white" stroke-width="1" opacity="1"/><path transform="translate(21.122218225864852,34.31854058321513)" d="M5,0A5,5,0,1,1,-5,0A5,5,0,1,1,5,0" fill="rgb(168, 199, 61)" stroke="white" stroke-width="1" opacity="1"/><path transform="translate(33.48480731980696,4.429100872154246)" d="M5,0A5,5,0,1,1,-5,0A5,5,0,1,1,5,0" fill="rgb(255, 251, 148)" stroke="white" stroke-width="1" opacity="1"/><path transform="translate(74.18376706028434,10.20856450468095)" d="M5,0A5,5,0,1,1,-5,0A5,5,0,1,1,5,0" fill="rgb(255, 241, 80)" stroke="white" stroke-width="1" opacity="1"/><path transform="translate(91.32558770696856,90.67363179841507)" d="M5,0A5,5,0,1,1,-5,0A5,5,0,1,1,5,0" fill="rgb(38, 81, 69)" stroke="white" stroke-width="1" opacity="1"/><path transform="translate(11.907258630907192,3.6673146597278383)" d="M5,0A5,5,0,1,1,-5,0A5,5,0,1,1,5,0" fill="rgb(255, 253, 156)" stroke="white" stroke-width="1" opacity="1"/><path transform="translate(69.82291784009101,83.26992046177828)" d="M5,0A5,5,0,1,1,-5,0A5,5,0,1,1,5,0" fill="rgb(17, 99, 74)" stroke="white" stroke-width="1" opacity="1"/><path transform="translate(35.85756758500362,23.22070694949412)" d="M5,0A5,5,0,1,1,-5,0A5,5,0,1,1,5,0" fill="rgb(213, 217, 53)" stroke="white" stroke-width="1" opacity="1"/><path transform="translate(79.84539944998404,55.177411685543255)" d="M5,0A5,5,0,1,1,-5,0A5,5,0,1,1,5,0" fill="rgb(77, 160, 66)" stroke="white" stroke-width="1" opacity="1"/><path transform="translate(83.22379823264838,17.940916378857487)" d="M5,0A5,5,0,1,1,-5,0A5,5,0,1,1,5,0" fill="rgb(235, 227, 48)" stroke="white" stroke-width="1" opacity="1"/><path transform="translate(79.05469294079536,55.1560361197859)" d="M5,0A5,5,0,1,1,-5,0A5,5,0,1,1,5,0" fill="rgb(77, 160, 66)" stroke="white" stroke-width="1" opacity="1"/><path transform="translate(28.14012384035096,8.88463681255941)" d="M5,0A5,5,0,1,1,-5,0A5,5,0,1,1,5,0" fill="rgb(255, 243, 95)" stroke="white" stroke-width="1" opacity="1"/><path transform="translate(21.72287102909143,80.03579545656766)" d="M5,0A5,5,0,1,1,-5,0A5,5,0,1,1,5,0" fill="rgb(7, 106, 76)" stroke="white" stroke-width="1" opacity="1"/><path transform="translate(65.68977422107778,40.149317634882244)" d="M5,0A5,5,0,1,1,-5,0A5,5,0,1,1,5,0" fill="rgb(142, 188, 63)" stroke="white" stroke-width="1" opacity="1"/><path transform="translate(2.821892268252413,88.46232957455098)" d="M5,0A5,5,0,1,1,-5,0A5,5,0,1,1,5,0" fill="rgb(33, 87, 72)" stroke="white" stroke-width="1" opacity="1"/><path transform="translate(14.184511986945381,57.120952237751524)" d="M5,0A5,5,0,1,1,-5,0A5,5,0,1,1,5,0" fill="rgb(67, 156, 66)" stroke="white" stroke-width="1" opacity="1"/><path transform="translate(8.968001756452038,48.1708275122449)" d="M5,0A5,5,0,1,1,-5,0A5,5,0,1,1,5,0" fill="rgb(107, 174, 64)" stroke="white" stroke-width="1" opacity="1"/><path transform="translate(86.33499668637248,63.53338924441137)" d="M5,0A5,5,0,1,1,-5,0A5,5,0,1,1,5,0" fill="rgb(26, 144, 66)" stroke="white" stroke-width="1" opacity="1"/><path transform="translate(26.73245001359661,91.76416375595026)" d="M5,0A5,5,0,1,1,-5,0A5,5,0,1,1,5,0" fill="rgb(41, 78, 68)" stroke="white" stroke-width="1" opacity="1"/><path transform="translate(6.674397195910364,65.78471218689258)" d="M5,0A5,5,0,1,1,-5,0A5,5,0,1,1,5,0" fill="rgb(12, 139, 66)" stroke="white" stroke-width="1" opacity="1"/><path transform="translate(79.69879012678248,15.314967485815)" d="M5,0A5,5,0,1,1,-5,0A5,5,0,1,1,5,0" fill="rgb(246, 231, 46)" stroke="white" stroke-width="1" opacity="1"/><path transform="translate(71.54514496618923,78.24503199451989)" d="M5,0A5,5,0,1,1,-5,0A5,5,0,1,1,5,0" fill="rgb(1, 110, 77)" stroke="white" stroke-width="1" opacity="1"/><path transform="translate(21.98203935056071,97.46883411913066)" d="M5,0A5,5,0,1,1,-5,0A5,5,0,1,1,5,0" fill="rgb(54, 63, 60)" stroke="white" stroke-width="1" opacity="1"/><path transform="translate(10.702746641049165,7.041069777535968)" d="M5,0A5,5,0,1,1,-5,0A5,5,0,1,1,5,0" fill="rgb(255, 247, 117)" stroke="white" stroke-width="1" opacity="1"/><path transform="translate(38.743425570183106,48.69599905637059)" d="M5,0A5,5,0,1,1,-5,0A5,5,0,1,1,5,0" fill="rgb(104, 173, 65)" stroke="white" stroke-width="1" opacity="1"/><path transform="translate(94.1263159594837,4.1823654585193)" d="M5,0A5,5,0,1,1,-5,0A5,5,0,1,1,5,0" fill="rgb(255, 252, 150)" stroke="white" stroke-width="1" opacity="1"/><path transform="translate(35.40894452259192,11.73590795437135)" d="M5,0A5,5,0,1,1,-5,0A5,5,0,1,1,5,0" fill="rgb(255, 238, 62)" stroke="white" stroke-width="1" opacity="1"/><path transform="translate(59.75572402744449,30.788710464249768)" d="M5,0A5,5,0,1,1,-5,0A5,5,0,1,1,5,0" fill="rgb(182, 205, 58)" stroke="white" stroke-width="1" opacity="1"/><path transform="translate(37.03622191283683,15.367359925904767)" d="M5,0A5,5,0,1,1,-5,0A5,5,0,1,1,5,0" fill="rgb(246, 231, 46)" stroke="white" stroke-width="1" opacity="1"/><path transform="translate(27.650201276187325,98.98897294435699)" d="M5,0A5,5,0,1,1,-5,0A5,5,0,1,1,5,0" fill="rgb(57, 59, 58)" stroke="white" stroke-width="1" opacity="1"/><path transform="translate(23.106647399316348,15.18349310663064)" d="M5,0A5,5,0,1,1,-5,0A5,5,0,1,1,5,0" fill="rgb(247, 232, 46)" stroke="white" stroke-width="1" opacity="1"/><path transform="translate(40.984573240590116,40.25182815723753)" d="M5,0A5,5,0,1,1,-5,0A5,5,0,1,1,5,0" fill="rgb(142, 188, 63)" stroke="white" stroke-width="1" opacity="1"/><path transform="translate(48.0112763708306,65.90938060100976)" d="M5,0A5,5,0,1,1,-5,0A5,5,0,1,1,5,0" fill="rgb(11, 139, 66)" stroke="white" stroke-width="1" opacity="1"/><path transform="translate(99.21922302415254,48.47247994033501)" d="M5,0A5,5,0,1,1,-5,0A5,5,0,1,1,5,0" fill="rgb(105, 173, 65)" stroke="white" stroke-width="1" opacity="1"/><path transform="translate(81.36374257839951,13.245949678760493)" d="M5,0A5,5,0,1,1,-5,0A5,5,0,1,1,5,0" fill="rgb(255, 235, 44)" stroke="white" stroke-width="1" opacity="1"/><path transform="translate(94.7657324123891,96.54129364276342)" d="M5,0A5,5,0,1,1,-5,0A5,5,0,1,1,5,0" fill="rgb(52, 65, 62)" stroke="white" stroke-width="1" opacity="1"/><path transform="translate(3.373716766035584,31.06620414776128)" d="M5,0A5,5,0,1,1,-5,0A5,5,0,1,1,5,0" fill="rgb(181, 204, 59)" stroke="white" stroke-width="1" opacity="1"/><path transform="translate(45.26084633178169,92.77548364458868)" d="M5,0A5,5,0,1,1,-5,0A5,5,0,1,1,5,0" fill="rgb(43, 76, 66)" stroke="white" stroke-width="1" opacity="1"/><path transform="translate(9.818494469496098,66.89229123350562)" d="M5,0A5,5,0,1,1,-5,0A5,5,0,1,1,5,0" fill="rgb(5, 137, 66)" stroke="white" stroke-width="1" opacity="1"/><path transform="translate(67.73796425066965,97.48068272624293)" d="M5,0A5,5,0,1,1,-5,0A5,5,0,1,1,5,0" fill="rgb(54, 63, 60)" stroke="white" stroke-width="1" opacity="1"/><path transform="translate(25.420134742735357,79.03497809847696)" d="M5,0A5,5,0,1,1,-5,0A5,5,0,1,1,5,0" fill="rgb(4, 108, 76)" stroke="white" stroke-width="1" opacity="1"/><path transform="translate(17.63124568569777,52.378408630783625)" d="M5,0A5,5,0,1,1,-5,0A5,5,0,1,1,5,0" fill="rgb(89, 166, 65)" stroke="white" stroke-width="1" opacity="1"/><path transform="translate(41.0899975240098,82.63961933849723)" d="M5,0A5,5,0,1,1,-5,0A5,5,0,1,1,5,0" fill="rgb(15, 100, 75)" stroke="white" stroke-width="1" opacity="1"/><path transform="translate(68.03486804458178,12.337247856547595)" d="M5,0A5,5,0,1,1,-5,0A5,5,0,1,1,5,0" fill="rgb(255, 237, 55)" stroke="white" stroke-width="1" opacity="1"/><path transform="translate(69.56175276329269,78.0492410007092)" d="M5,0A5,5,0,1,1,-5,0A5,5,0,1,1,5,0" fill="rgb(1, 110, 77)" stroke="white" stroke-width="1" opacity="1"/><path transform="translate(6.264494773499041,87.07617969144896)" d="M5,0A5,5,0,1,1,-5,0A5,5,0,1,1,5,0" fill="rgb(29, 90, 73)" stroke="white" stroke-width="1" opacity="1"/><path transform="translate(76.09779470468492,55.327878995335375)" d="M5,0A5,5,0,1,1,-5,0A5,5,0,1,1,5,0" fill="rgb(76, 160, 66)" stroke="white" stroke-width="1" opacity="1"/><path transform="translate(88.6964804797986,58.41903608073253)" d="M5,0A5,5,0,1,1,-5,0A5,5,0,1,1,5,0" fill="rgb(58, 154, 66)" stroke="white" stroke-width="1" opacity="1"/><path transform="translate(32.65203478441098,31.33591203941363)" d="M5,0A5,5,0,1,1,-5,0A5,5,0,1,1,5,0" fill="rgb(180, 204, 59)" stroke="white" stroke-width="1" opacity="1"/><path transform="translate(90.61663612611352,41.95229778491585)" d="M5,0A5,5,0,1,1,-5,0A5,5,0,1,1,5,0" fill="rgb(134, 185, 63)" stroke="white" stroke-width="1" opacity="1"/><path transform="translate(87.66725770177244,2.513694006869671)" d="M5,0A5,5,0,1,1,-5,0A5,5,0,1,1,5,0" fill="rgb(255, 255, 170)" stroke="white" stroke-width="1" opacity="1"/><path transform="translate(88.16345570117927,58.51915061932158)" d="M5,0A5,5,0,1,1,-5,0A5,5,0,1,1,5,0" fill="rgb(58, 154, 66)" stroke="white" stroke-width="1" opacity="1"/><path transform="translate(64.47400004980952,11.595914362327154)" d="M5,0A5,5,0,1,1,-5,0A5,5,0,1,1,5,0" fill="rgb(255, 238, 64)" stroke="white" stroke-width="1" opacity="1"/><path transform="translate(8.736801620688283,12.218781012262703)" d="M5,0A5,5,0,1,1,-5,0A5,5,0,1,1,5,0" fill="rgb(255, 237, 56)" stroke="white" stroke-width="1" opacity="1"/><path transform="translate(10.354043360633003,32.58406869647147)" d="M5,0A5,5,0,1,1,-5,0A5,5,0,1,1,5,0" fill="rgb(175, 202, 60)" stroke="white" stroke-width="1" opacity="1"/><path transform="translate(26.15180998275941,85.64083501625659)" d="M5,0A5,5,0,1,1,-5,0A5,5,0,1,1,5,0" fill="rgb(24, 93, 73)" stroke="white" stroke-width="1" opacity="1"/><path transform="translate(60.70273411325297,11.661333851226264)" d="M5,0A5,5,0,1,1,-5,0A5,5,0,1,1,5,0" fill="rgb(255, 238, 63)" stroke="white" stroke-width="1" opacity="1"/><path transform="translate(30.332217075529133,78.19816069213513)" d="M5,0A5,5,0,1,1,-5,0A5,5,0,1,1,5,0" fill="rgb(1, 110, 77)" stroke="white" stroke-width="1" opacity="1"/><path transform="translate(37.79164735986645,82.52449286597043)" d="M5,0A5,5,0,1,1,-5,0A5,5,0,1,1,5,0" fill="rgb(15, 100, 75)" stroke="white" stroke-width="1" opacity="1"/><path transform="translate(36.46659522507488,13.845245426114584)" d="M5,0A5,5,0,1,1,-5,0A5,5,0,1,1,5,0" fill="rgb(253, 234, 45)" stroke="white" stroke-width="1" opacity="1"/><path transform="translate(56.38358608619729,71.46859818791906)" d="M5,0A5,5,0,1,1,-5,0A5,5,0,1,1,5,0" fill="rgb(2, 126, 71)" stroke="white" stroke-width="1" opacity="1"/><path transform="translate(86.66597373397764,31.834524149133514)" d="M5,0A5,5,0,1,1,-5,0A5,5,0,1,1,5,0" fill="rgb(178, 203, 59)" stroke="white" stroke-width="1" opacity="1"/><path transform="translate(73.35413224265379,19.324622245441713)" d="M5,0A5,5,0,1,1,-5,0A5,5,0,1,1,5,0" fill="rgb(230, 224, 50)" stroke="white" stroke-width="1" opacity="1"/><path transform="translate(39.823293971750395,11.074497016390994)" d="M5,0A5,5,0,1,1,-5,0A5,5,0,1,1,5,0" fill="rgb(255, 239, 70)" stroke="white" stroke-width="1" opacity="1"/><path transform="translate(10.640178772275577,45.701863025989255)" d="M5,0A5,5,0,1,1,-5,0A5,5,0,1,1,5,0" fill="rgb(117, 179, 64)" stroke="white" stroke-width="1" opacity="1"/><path transform="translate(64.99290211865942,64.79846120494446)" d="M5,0A5,5,0,1,1,-5,0A5,5,0,1,1,5,0" fill="rgb(18, 141, 66)" stroke="white" stroke-width="1" opacity="1"/><path transform="translate(57.93757636117436,11.699088812918934)" d="M5,0A5,5,0,1,1,-5,0A5,5,0,1,1,5,0" fill="rgb(255, 238, 62)" stroke="white" stroke-width="1" opacity="1"/><path transform="translate(88.31480796955164,12.908772398563418)" d="M5,0A5,5,0,1,1,-5,0A5,5,0,1,1,5,0" fill="rgb(255, 236, 48)" stroke="white" stroke-width="1" opacity="1"/><path transform="translate(16.791729628711117,50.016883360423805)" d="M5,0A5,5,0,1,1,-5,0A5,5,0,1,1,5,0" fill="rgb(99, 170, 65)" stroke="white" stroke-width="1" opacity="1"/><path transform="translate(1.7845768470898027,18.890498385448563)" d="M5,0A5,5,0,1,1,-5,0A5,5,0,1,1,5,0" fill="rgb(231, 225, 49)" stroke="white" stroke-width="1" opacity="1"/><path transform="translate(33.51155117125765,28.473098349815363)" d="M5,0A5,5,0,1,1,-5,0A5,5,0,1,1,5,0" fill="rgb(192, 209, 57)" stroke="white" stroke-width="1" opacity="1"/><path transform="translate(37.56150573210959,89.42641711871585)" d="M5,0A5,5,0,1,1,-5,0A5,5,0,1,1,5,0" fill="rgb(35, 85, 71)" stroke="white" stroke-width="1" opacity="1"/><path transform="translate(22.644883201085708,47.38363234466942)" d="M5,0A5,5,0,1,1,-5,0A5,5,0,1,1,5,0" fill="rgb(110, 175, 64)" stroke="white" stroke-width="1" opacity="1"/><path transform="translate(94.95362253769292,88.44852568007009)" d="M5,0A5,5,0,1,1,-5,0A5,5,0,1,1,5,0" fill="rgb(33, 87, 72)" stroke="white" stroke-width="1" opacity="1"/><path transform="translate(27.812870872598005,12.343869804640805)" d="M5,0A5,5,0,1,1,-5,0A5,5,0,1,1,5,0" fill="rgb(255, 237, 55)" stroke="white" stroke-width="1" opacity="1"/><path transform="translate(62.057898680154665,34.57398855930484)" d="M5,0A5,5,0,1,1,-5,0A5,5,0,1,1,5,0" fill="rgb(167, 198, 61)" stroke="white" stroke-width="1" opacity="1"/><path transform="translate(17.507022981884546,80.22673308474457)" d="M5,0A5,5,0,1,1,-5,0A5,5,0,1,1,5,0" fill="rgb(8, 106, 76)" stroke="white" stroke-width="1" opacity="1"/><path transform="translate(30.22657820842747,51.790191419828524)" d="M5,0A5,5,0,1,1,-5,0A5,5,0,1,1,5,0" fill="rgb(91, 167, 65)" stroke="white" stroke-width="1" opacity="1"/><path transform="translate(4.914128343606561,34.81842428138915)" d="M5,0A5,5,0,1,1,-5,0A5,5,0,1,1,5,0" fill="rgb(166, 198, 61)" stroke="white" stroke-width="1" opacity="1"/><path transform="translate(93.08941329128635,61.82446094478868)" d="M5,0A5,5,0,1,1,-5,0A5,5,0,1,1,5,0" fill="rgb(37, 147, 66)" stroke="white" stroke-width="1" opacity="1"/><path transform="translate(64.43258048235668,56.13891739927179)" d="M5,0A5,5,0,1,1,-5,0A5,5,0,1,1,5,0" fill="rgb(73, 158, 66)" stroke="white" stroke-width="1" opacity="1"/><path transform="translate(89.4947068162998,14.148794353244487)" d="M5,0A5,5,0,1,1,-5,0A5,5,0,1,1,5,0" fill="rgb(251, 233, 45)" stroke="white" stroke-width="1" opacity="1"/><path transform="translate(84.30391594105664,46.74889151862035)" d="M5,0A5,5,0,1,1,-5,0A5,5,0,1,1,5,0" fill="rgb(113, 177, 64)" stroke="white" stroke-width="1" opacity="1"/><path transform="translate(58.0805804067997,45.54433403472527)" d="M5,0A5,5,0,1,1,-5,0A5,5,0,1,1,5,0" fill="rgb(118, 179, 64)" stroke="white" stroke-width="1" opacity="1"/><path transform="translate(36.14270709417436,50.39310995054591)" d="M5,0A5,5,0,1,1,-5,0A5,5,0,1,1,5,0" fill="rgb(97, 169, 65)" stroke="white" stroke-width="1" opacity="1"/><path transform="translate(71.99877501006634,3.5775975603694055)" d="M5,0A5,5,0,1,1,-5,0A5,5,0,1,1,5,0" fill="rgb(255, 253, 158)" stroke="white" stroke-width="1" opacity="1"/><path transform="translate(93.75281687589724,99.28572800805651)" d="M5,0A5,5,0,1,1,-5,0A5,5,0,1,1,5,0" fill="rgb(58, 58, 58)" stroke="white" stroke-width="1" opacity="1"/></g></g><path class="foreground" aria-hidden="true" d="" display="none"/></g></g><g class="mark-group role-legend" role="graphics-symbol" aria-roledescription="legend" aria-label="Gradient legend titled 'y' for fill color with values from 0.0 to 1.0"><g transform="translate(124,0)"><path class="background" aria-hidden="true" d="M0,0h28v96h-28Z" pointer-events="none"/><g><g class="mark-group role-legend-entry"><g transform="translate(0,16)"><path class="background" aria-hidden="true" d="M0,0h0v0h0Z" pointer-events="none"/><g><g class="mark-rect role-legend-gradient" pointer-events="none"><path d="M0,0h10v80h-10Z" fill="url(#gradient_0)" stroke="#ddd" stroke-width="0" opacity="1"/></g><g class="mark-text role-legend-label" pointer-events="none"><text text-anchor="start" transform="translate(12,78)" font-family="sans-serif" font-size="10px" font-style="normal" font-weight="400" fill="#000" opacity="1">0.0</text><text text-anchor="start" transform="translate(12,8)" font-family="sans-serif" font-size="10px" font-style="normal" font-weight="400" fill="#000" opacity="1">1.0</text></g></g><path class="foreground" aria-hidden="true" d="" pointer-events="none" display="none"/></g></g><g class="mark-text role-legend-title" pointer-events="none"><text text-anchor="start" transform="translate(0,9)" font-family="sans-serif" font-size="11px" font-style="normal" font-weight="400" fill="#000" opacity="1">y</text></g></g><path class="foreground" aria-hidden="true" d="" pointer-events="none" display="none"/></g></g></g><path class="foreground" aria-hidden="true" d="" display="none"/></g></g></g><defs><linearGradient id="gradient_0" x1="0" x2="0" y1="1" y2="0"><stop offset="0" stop-color="rgb(58, 58, 58)"/><stop offset="0.04428684435840158" stop-color="rgb(48, 70, 64)"/><stop offset="0.0959546640090527" stop-color="rgb(36, 83, 70)"/><stop offset="0.14762248365970382" stop-color="rgb(22, 95, 74)"/><stop offset="0.19929030331035497" stop-color="rgb(7, 106, 76)"/><stop offset="0.25095812296100606" stop-color="rgb(1, 118, 74)"/><stop offset="0.3026259426116572" stop-color="rgb(3, 130, 69)"/><stop offset="0.3542937622623083" stop-color="rgb(17, 141, 66)"/><stop offset="0.40596158191295945" stop-color="rgb(48, 151, 66)"/><stop offset="0.4576294015636106" stop-color="rgb(77, 160, 66)"/><stop offset="0.5092972212142617" stop-color="rgb(99, 170, 65)"/><stop offset="0.5609650408649128" stop-color="rgb(120, 180, 64)"/><stop offset="0.612632860515564" stop-color="rgb(143, 189, 62)"/><stop offset="0.6643006801662151" stop-color="rgb(165, 198, 61)"/><stop offset="0.7159684998168662" stop-color="rgb(186, 206, 58)"/><stop offset="0.7676363194675173" stop-color="rgb(206, 214, 55)"/><stop offset="0.8193041391181685" stop-color="rgb(227, 223, 50)"/><stop offset="0.8709719587688195" stop-color="rgb(248, 232, 46)"/><stop offset="0.9226397784194708" stop-color="rgb(255, 241, 82)"/><stop offset="0.9743075980701218" stop-color="rgb(255, 250, 141)"/><stop offset="1" stop-color="rgb(255, 255, 170)"/></linearGradient></defs></svg>