<svg xmlns="http://www.w3.org/2000/svg" xmlns:xlink="http://www.w3.org/1999/xlink" version="1.1" class="marks" width="146" height="137" viewBox="0 0 146 137"><rect width="146" height="137" fill="white"/><g fill="none" stroke-miterlimit="10" transform="translate(38,5)"><g class="mark-group role-frame root" role="graphics-object" aria-roledescription="group mark container"><g transform="translate(0,0)"><path class="background" aria-hidden="true" d="M0,0h100v100h-100Z"/><g><g class="mark-group role-axis" role="graphics-symbol" aria-roledescription="axis" aria-label="X-axis titled 'x' for a linear scale with values from 0.0 to 1.0"><g transform="translate(0.5,100.5)"><path class="background" aria-hidden="true" d="M0,0h0v0h0Z" pointer-events="none"/><g><g class="mark-rule role-axis-tick" pointer-events="none"><line transform="translate(0,0)" x2="0" y2="5" stroke="black" stroke-width="1.01" opacity="1"/><line transform="translate(50,0)" x2="0" y2="5" stroke="black" stroke-width="1.01" opacity="1"/><line transform="translate(100,0)" x2="0" y2="5" stroke="black" stroke-width="1.01" opacity="1"/></g><g class="mark-text role-axis-label" pointer-events="none"><text text-anchor="middle" transform="translate(0,15)" font-family="sans-serif" font-size="10px" font-style="normal" font-weight="400" fill="black" opacity="1">0.0</text><text text-anchor="middle" transform="translate(50,15)" font-family="sans-serif" font-size="10px" font-style="normal" font-weight="400" fill="black" opacity="1">0.5</text><text text-anchor="middle" transform="translate(100,15)" font-family="sans-serif" font-size="10px" font-style="normal" font-weight="400" fill="black" opacity="1">1.0</text></g><g class="mark-rule role-axis-domain" pointer-events="none"><line transform="translate(0,0)" x2="100" y2="0" stroke="black" stroke-width="1.01" opacity="1"/></g><g class="mark-text role-axis-title" pointer-events="none"><text text-anchor="middle" transform="translate(50,30)" font-family="sans-serif" font-size="11px" font-style="normal" font-weight="400" fill="black" opacity="1">x</text></g></g><path class="foreground" aria-hidden="true" d="" pointer-events="none" display="none"/></g></g><g class="mark-group role-axis" role="graphics-symbol" aria-roledescription="axis" aria-label="Y-axis titled 'y' for a linear scale with values from 0.0 to 1.0"><g transform="translate(0.5,0.5)"><path class="background" aria-hidden="true" d="M0,0h0v0h0Z" pointer-events="none"/><g><g class="mark-rule role-axis-tick" pointer-events="none"><line transform="translate(0,100)" x2="-5" y2="0" stroke="black" stroke-width="1.01" opacity="1"/><line transform="translate(0,50)" x2="-5" y2="0" stroke="black" stroke-width="1.01" opacity="1"/><line transform="translate(0,0)" x2="-5" y2="0" stroke="black" stroke-width="1.01" opacity="1"/></g><g class="mark-text role-axis-label" pointer-events="none"><text text-anchor="end" transform="translate(-7,103)" font-family="sans-serif" font-size="10px" font-style="normal" font-weight="400" fill="black" opacity="1">0.0</text><text text-anchor="end" transform="translate(-7,53)" font-family="sans-serif" font-size="10px" font-style="normal" font-weight="400" fill="black" opacity="1">0.5</text><text text-anchor="end" transform="translate(-7,3)" font-family="sans-serif" font-size="10px" font-style="normal" font-weight="400" fill="black" opacity="1">1.0</text></g><g class="mark-rule role-axis-domain" pointer-events="none"><line transform="translate(0,100)" x2="0" y2="-100" stroke="black" stroke-width="1.01" opacity="1"/></g><g class="mark-text role-axis-title" pointer-events="none"><text text-anchor="middle" transform="translate(-26.9033203125,50) rotate(-90) translate(0,-2)" font-family="sans-serif" font-size="11px" font-style="normal" font-weight="400" fill="black" opacity="1">y</text></g></g><path class="foreground" aria-hidden="true" d="" pointer-events="none" display="none"/></g></g><g class="mark-group role-scope" clip-path="url(#clip1)" role="graphics-object" aria-roledescription="group mark container"><g transform="translate(0,0)"><path class="background" aria-hidden="true" d="M0,0h0v0h0Z"/><g><g class="mark-symbol role-mark points" role="graphics-symbol" aria-roledescription="symbol mark container"><path transform="translate(17.444653981485114,13.048334707048792)" d="M3.536,0A3.536,3.536,0,1,1,-3.536,0A3.536,3.536,0,1,1,3.536,0" fill="white" stroke="steelblue" stroke-width="1" opacity="1"/><path transform="translate(54.52218771083034,9.588860804453214)" d="M3.536,0A3.536,3.536,0,1,1,-3.536,0A3.536,3.536,0,1,1,3.536,0" fill="white" stroke="steelblue" stroke-width="1" opacity="1"/><path transform="translate(58.38140457231324,3.727342630927355)" d="M3.536,0A3.536,3.536,0,1,1,-3.536,0A3.536,3.536,0,1,1,3.536,0" fill="white" stroke="steelblue" stroke-width="1" opacity="1"/><path transform="translate(90.26856514174973,24.879118401771404)" d="M3.536,0A3.536,3.536,0,1,1,-3.536,0A3.536,3.536,0,1,1,3.536,0" fill="white" stroke="steelblue" stroke-width="1" opacity="1"/><path transform="translate(73.78232272113556,10.474667616263423)" d="M3.536,0A3.536,3.536,0,1,1,-3.536,0A3.536,3.536,0,1,1,3.536,0" fill="white" stroke="steelblue" stroke-width="1" opacity="1"/><path transform="translate(9.673844360716954,99.26654840627332)" d="M3.536,0A3.536,3.536,0,1,1,-3.536,0A3.536,3.536,0,1,1,3.536,0" fill="white" stroke="steelblue" stroke-width="1" opacity="1"/><path transform="translate(1.127600173914467,86.48298015234684)" d="M3.536,0A3.536,3.536,0,1,1,-3.536,0A3.536,3.536,0,1,1,3.536,0" fill="white" stroke="steelblue" stroke-width="1" opacity="1"/><path transform="translate(13.015704496135417,16.50305763182781)" d="M3.536,0A3.536,3.536,0,1,1,-3.536,0A3.536,3.536,0,1,1,3.536,0" fill="white" stroke="steelblue" stroke-width="1" opacity="1"/><path transform="translate(17.695901190842854,8.510513881904425)" d="M3.536,0A3.536,3.536,0,1,1,-3.536,0A3.536,3.536,0,1,1,3.536,0" fill="white" stroke="steelblue" stroke-width="1" opacity="1"/><path transform="translate(69.24356917300454,66.7375884506734)" d="M3.536,0A3.536,3.536,0,1,1,-3.536,0A3.536,3.536,0,1,1,3.536,0" fill="white" stroke="steelblue" stroke-width="1" opacity="1"/><path transform="translate(35.46236871247457,46.4512543979971)" d="M3.536,0A3.536,3.536,0,1,1,-3.536,0A3.536,3.536,0,1,1,3.536,0" fill="white" stroke="steelblue" stroke-width="1" opacity="1"/><path transform="translate(84.23926208938323,17.46422752198483)" d="M3.536,0A3.536,3.536,0,1,1,-3.536,0A3.536,3.536,0,1,1,3.536,0" fill="white" stroke="steelblue" stroke-width="1" opacity="1"/><path transform="translate(21.351588553438727,38.50963696437606)" d="M3.536,0A3.536,3.536,0,1,1,-3.536,0A3.536,3.536,0,1,1,3.536,0" fill="white" stroke="steelblue" stroke-width="1" opacity="1"/><path transform="translate(66.1675741562067,87.67492735973009)" d="M3.536,0A3.536,3.536,0,1,1,-3.536,0A3.536,3.536,0,1,1,3.536,0" fill="white" stroke="steelblue" stroke-width="1" opacity="1"/><path transform="translate(88.64110417859182,74.3432311530032)" d="M3.536,0A3.536,3.536,0,1,1,-3.536,0A3.536,3.536,0,1,1,3.536,0" fill="white" stroke="steelblue" stroke-width="1" opacity="1"/><path transform="translate(79.98724062170311,7.833614977133996)" d="M3.536,0A3.536,3.536,0,1,1,-3.536,0A3.536,3.536,0,1,1,3.536,0" fill="white" stroke="steelblue" stroke-width="1" opacity="1"/><path transform="translate(4.841936415672077,73.5542378091839)" d="M3.536,0A3.536,3.536,0,1,1,-3.536,0A3.536,3.536,0,1,1,3.536,0" fill="white" stroke="steelblue" stroke-width="1" opacity="1"/><path transform="translate(87.64135626755706,67.73182627346083)" d="M3.536,0A3.536,3.536,0,1,1,-3.536,0A3.536,3.536,0,1,1,3.536,0" fill="white" stroke="steelblue" stroke-width="1" opacity="1"/><path transform="translate(80.60785907468262,74.37259700387222)" d="M3.536,0A3.536,3.536,0,1,1,-3.536,0A3.536,3.536,0,1,1,3.536,0" fill="white" stroke="steelblue" stroke-width="1" opacity="1"/><path transform="translate(62.718321040497806,54.84165278094649)" d="M3.536,0A3.536,3.536,0,1,1,-3.536,0A3.536,3.536,0,1,1,3.536,0" fill="white" stroke="steelblue" stroke-width="1" opacity="1"/><path transform="translate(40.49328650818196,45.68946859472904)" d="M3.536,0A3.536,3.536,0,1,1,-3.536,0A3.536,3.536,0,1,1,3.536,0" fill="white" stroke="steelblue" stroke-width="1" opacity="1"/><path transform="translate(55.097011351107824,43.065525806623505)" d="M3.536,0A3.536,3.536,0,1,1,-3.536,0A3.536,3.536,0,1,1,3.536,0" fill="white" stroke="steelblue" stroke-width="1" opacity="1"/><path transform="translate(47.14223774083709,87.79392217456477)" d="M3.536,0A3.536,3.536,0,1,1,-3.536,0A3.536,3.536,0,1,1,3.536,0" fill="white" stroke="steelblue" stroke-width="1" opacity="1"/><path transform="translate(12.627232154663648,90.41181271482405)" d="M3.536,0A3.536,3.536,0,1,1,-3.536,0A3.536,3.536,0,1,1,3.536,0" fill="white" stroke="steelblue" stroke-width="1" opacity="1"/><path transform="translate(68.46539463478959,22.961680619937397)" d="M3.536,0A3.536,3.536,0,1,1,-3.536,0A3.536,3.536,0,1,1,3.536,0" fill="white" stroke="steelblue" stroke-width="1" opacity="1"/><path transform="translate(26.112585631335193,70.2765659462657)" d="M3.536,0A3.536,3.536,0,1,1,-3.536,0A3.536,3.536,0,1,1,3.536,0" fill="white" stroke="steelblue" stroke-width="1" opacity="1"/><path transform="translate(42.13375648029659,2.8856997516526595)" d="M3.536,0A3.536,3.536,0,1,1,-3.536,0A3.536,3.536,0,1,1,3.536,0" fill="white" stroke="steelblue" stroke-width="1" opacity="1"/><path transform="translate(88.95310530086911,72.3297680960475)" d="M3.536,0A3.536,3.536,0,1,1,-3.536,0A3.536,3.536,0,1,1,3.536,0" fill="white" stroke="steelblue" stroke-width="1" opacity="1"/><path transform="translate(78.48032815120827,7.503911723365886)" d="M3.536,0A3.536,3.536,0,1,1,-3.536,0A3.536,3.536,0,1,1,3.536,0" fill="white" stroke="steelblue" stroke-width="1" opacity="1"/><path transform="translate(23.733767819123987,66.57209912450308)" d="M3.536,0A3.536,3.536,0,1,1,-3.536,0A3.536,3.536,0,1,1,3.536,0" fill="white" stroke="steelblue" stroke-width="1" opacity="1"/><path transform="translate(36.67745786096754,10.85426462580692)" d="M3.536,0A3.536,3.536,0,1,1,-3.536,0A3.536,3.536,0,1,1,3.536,0" fill="white" stroke="steelblue" stroke-width="1" opacity="1"/><path transform="translate(65.13235559869138,50.4459298275108)" d="M3.536,0A3.536,3.536,0,1,1,-3.536,0A3.536,3.536,0,1,1,3.536,0" fill="white" stroke="steelblue" stroke-width="1" opacity="1"/><path transform="translate(8.258974455351487,17.677865918842116)" d="M3.536,0A3.536,3.536,0,1,1,-3.536,0A3.536,3.536,0,1,1,3.536,0" fill="white" stroke="steelblue" stroke-width="1" opacity="1"/><path transform="translate(35.079167923542364,99.60026889873691)" d="M3.536,0A3.536,3.536,0,1,1,-3.536,0A3.536,3.536,0,1,1,3.536,0" fill="white" stroke="steelblue" stroke-width="1" opacity="1"/><path transform="translate(50.25756172600148,4.484752486571086)" d="M3.536,0A3.536,3.536,0,1,1,-3.536,0A3.536,3.536,0,1,1,3.536,0" fill="white" stroke="steelblue" stroke-width="1" opacity="1"/><path transform="translate(37.8489883692103,32.35150786372193)" d="M3.536,0A3.536,3.536,0,1,1,-3.536,0A3.536,3.536,0,1,1,3.536,0" fill="white" stroke="steelblue" stroke-width="1" opacity="1"/><path transform="translate(21.56613113282857,19.73204005167061)" d="M3.536,0A3.536,3.536,0,1,1,-3.536,0A3.536,3.536,0,1,1,3.536,0" fill="white" stroke="steelblue" stroke-width="1" opacity="1"/><path transform="translate(1.4830750473899035,39.4946188781921)" d="M3.536,0A3.536,3.536,0,1,1,-3.536,0A3.536,3.536,0,1,1,3.536,0" fill="white" stroke="steelblue" stroke-width="1" opacity="1"/><path transform="translate(54.24370683929931,20.584359290890063)" d="M3.536,0A3.536,3.536,0,1,1,-3.536,0A3.536,3.536,0,1,1,3.536,0" fill="white" stroke="steelblue" stroke-width="1" opacity="1"/><path transform="translate(37.52572704218357,30.951958618570742)" d="M3.536,0A3.536,3.536,0,1,1,-3.536,0A3.536,3.536,0,1,1,3.536,0" fill="white" stroke="steelblue" stroke-width="1" opacity="1"/><path transform="translate(28.981036787336688,85.60395069706266)" d="M3.536,0A3.536,3.536,0,1,1,-3.536,0A3.536,3.536,0,1,1,3.536,0" fill="white" stroke="steelblue" stroke-width="1" opacity="1"/><path transform="translate(28.473296106237488,1.5620969253131611)" d="M3.536,0A3.536,3.536,0,1,1,-3.536,0A3.536,3.536,0,1,1,3.536,0" fill="white" stroke="steelblue" stroke-width="1" opacity="1"/><path transform="translate(48.08354289564587,61.03820848106073)" d="M3.536,0A3.536,3.536,0,1,1,-3.536,0A3.536,3.536,0,1,1,3.536,0" fill="white" stroke="steelblue" stroke-width="1" opacity="1"/><path transform="translate(97.9336493263972,66.34525596129998)" d="M3.536,0A3.536,3.536,0,1,1,-3.536,0A3.536,3.536,0,1,1,3.536,0" fill="white" stroke="steelblue" stroke-width="1" opacity="1"/><path transform="translate(76.30224210656816,67.00656571395615)" d="M3.536,0A3.536,3.536,0,1,1,-3.536,0A3.536,3.536,0,1,1,3.536,0" fill="white" stroke="steelblue" stroke-width="1" opacity="1"/><path transform="translate(54.96709348694847,73.06177536542366)" d="M3.536,0A3.536,3.536,0,1,1,-3.536,0A3.536,3.536,0,1,1,3.536,0" fill="white" stroke="steelblue" stroke-width="1" opacity="1"/><path transform="translate(82.20744970266921,12.560789981112963)" d="M3.536,0A3.536,3.536,0,1,1,-3.536,0A3.536,3.536,0,1,1,3.536,0" fill="white" stroke="steelblue" stroke-width="1" opacity="1"/><path transform="translate(21.371325955782584,88.70923529528785)" d="M3.536,0A3.536,3.536,0,1,1,-3.536,0A3.536,3.536,0,1,1,3.536,0" fill="white" stroke="steelblue" stroke-width="1" opacity="1"/><path transform="translate(32.43057646722853,27.94497253405205)" d="M3.536,0A3.536,3.536,0,1,1,-3.536,0A3.536,3.536,0,1,1,3.536,0" fill="white" stroke="steelblue" stroke-width="1" opacity="1"/><path transform="translate(46.38163264700824,79.03775257450566)" d="M3.536,0A3.536,3.536,0,1,1,-3.536,0A3.536,3.536,0,1,1,3.536,0" fill="white" stroke="steelblue" stroke-width="1" opacity="1"/><path transform="translate(52.458811835478556,71.14410622884051)" d="M3.536,0A3.536,3.536,0,1,1,-3.536,0A3.536,3.536,0,1,1,3.536,0" fill="white" stroke="steelblue" stroke-width="1" opacity="1"/><path transform="translate(63.35245251902592,43.479798873040245)" d="M3.536,0A3.536,3.536,0,1,1,-3.536,0A3.536,3.536,0,1,1,3.536,0" fill="white" stroke="steelblue" stroke-width="1" opacity="1"/><path transform="translate(38.90900394539555,0.5731505126822967)" d="M3.536,0A3.536,3.536,0,1,1,-3.536,0A3.536,3.536,0,1,1,3.536,0" fill="white" stroke="steelblue" stroke-width="1" opacity="1"/><path transform="translate(22.13058505297588,26.58431892141643)" d="M3.536,0A3.536,3.536,0,1,1,-3.536,0A3.536,3.536,0,1,1,3.536,0" fill="white" stroke="steelblue" stroke-width="1" opacity="1"/><path transform="translate(77.42062784526088,83.01435423102916)" d="M3.536,0A3.536,3.536,0,1,1,-3.536,0A3.536,3.536,0,1,1,3.536,0" fill="white" stroke="steelblue" stroke-width="1" opacity="1"/><path transform="translate(29.731445732800978,40.89430074228644)" d="M3.536,0A3.536,3.536,0,1,1,-3.536,0A3.536,3.536,0,1,1,3.536,0" fill="white" stroke="steelblue" stroke-width="1" opacity="1"/><path transform="translate(62.965448877413344,8.127535111202222)" d="M3.536,0A3.536,3.536,0,1,1,-3.536,0A3.536,3.536,0,1,1,3.536,0" fill="white" stroke="steelblue" stroke-width="1" opacity="1"/><path transform="translate(93.11160699092146,25.423635259902046)" d="M3.536,0A3.536,3.536,0,1,1,-3.536,0A3.536,3.536,0,1,1,3.536,0" fill="white" stroke="steelblue" stroke-width="1" opacity="1"/><path transform="translate(56.01544462516459,60.27219921797754)" d="M3.536,0A3.536,3.536,0,1,1,-3.536,0A3.536,3.536,0,1,1,3.536,0" fill="white" stroke="steelblue" stroke-width="1" opacity="1"/><path transform="translate(82.91299063078796,96.25186974691711)" d="M3.536,0A3.536,3.536,0,1,1,-3.536,0A3.536,3.536,0,1,1,3.536,0" fill="white" stroke="steelblue" stroke-width="1" opacity="1"/><path transform="translate(98.6103363819651,54.6880738830863)" d="M3.536,0A3.536,3.536,0,1,1,-3.536,0A3.536,3.536,0,1,1,3.536,0" fill="white" stroke="steelblue" stroke-width="1" opacity="1"/><path transform="translate(53.69570936090506,15.589004824588649)" d="M3.536,0A3.536,3.536,0,1,1,-3.536,0A3.536,3.536,0,1,1,3.536,0" fill="white" stroke="steelblue" stroke-width="1" opacity="1"/><path transform="translate(98.17292147946786,27.79556238191584)" d="M3.536,0A3.536,3.536,0,1,1,-3.536,0A3.536,3.536,0,1,1,3.536,0" fill="white" stroke="steelblue" stroke-width="1" opacity="1"/><path transform="translate(8.624787264932198,45.95322953347758)" d="M3.536,0A3.536,3.536,0,1,1,-3.536,0A3.536,3.536,0,1,1,3.536,0" fill="white" stroke="steelblue" stroke-width="1" opacity="1"/><path transform="translate(44.73868750102059,29.401156128906656)" d="M3.536,0A3.536,3.536,0,1,1,-3.536,0A3.536,3.536,0,1,1,3.536,0" fill="white" stroke="steelblue" stroke-width="1" opacity="1"/><path transform="translate(17.78802883176742,91.03973552263116)" d="M3.536,0A3.536,3.536,0,1,1,-3.536,0A3.536,3.536,0,1,1,3.536,0" fill="white" stroke="steelblue" stroke-width="1" opacity="1"/><path transform="translate(75.13910165151233,34.43130886903894)" d="M3.536,0A3.536,3.536,0,1,1,-3.536,0A3.536,3.536,0,1,1,3.536,0" fill="white" stroke="steelblue" stroke-width="1" opacity="1"/><path transform="translate(68.4960973192844,90.25955449204504)" d="M3.536,0A3.536,3.536,0,1,1,-3.536,0A3.536,3.536,0,1,1,3.536,0" fill="white" stroke="steelblue" stroke-width="1" opacity="1"/><path transform="translate(7.583748909807008,76.18741080464808)" d="M3.536,0A3.536,3.536,0,1,1,-3.536,0A3.536,3.536,0,1,1,3.536,0" fill="white" stroke="steelblue" stroke-width="1" opacity="1"/><path transform="translate(58.14201705577327,10.442069740638704)" d="M3.536,0A3.536,3.536,0,1,1,-3.536,0A3.536,3.536,0,1,1,3.536,0" fill="white" stroke="steelblue" stroke-width="1" opacity="1"/><path transform="translate(64.94134513251872,0.946288667165085)" d="M3.536,0A3.536,3.536,0,1,1,-3.536,0A3.536,3.536,0,1,1,3.536,0" fill="white" stroke="steelblue" stroke-width="1" opacity="1"/><path transform="translate(1.2387525098669694,37.141090733329754)" d="M3.536,0A3.536,3.536,0,1,1,-3.536,0A3.536,3.536,0,1,1,3.536,0" fill="white" stroke="steelblue" stroke-width="1" opacity="1"/><path transform="translate(48.03279503132802,19.797692372283727)" d="M3.536,0A3.536,3.536,0,1,1,-3.536,0A3.536,3.536,0,1,1,3.536,0" fill="white" stroke="steelblue" stroke-width="1" opacity="1"/><path transform="translate(37.357536617231226,73.38364933142422)" d="M3.536,0A3.536,3.536,0,1,1,-3.536,0A3.536,3.536,0,1,1,3.536,0" fill="white" stroke="steelblue" stroke-width="1" opacity="1"/><path transform="translate(66.4804895899642,39.6560754701618)" d="M3.536,0A3.536,3.536,0,1,1,-3.536,0A3.536,3.536,0,1,1,3.536,0" fill="white" stroke="steelblue" stroke-width="1" opacity="1"/><path transform="translate(96.9197582551976,22.781024120192207)" d="M3.536,0A3.536,3.536,0,1,1,-3.536,0A3.536,3.536,0,1,1,3.536,0" fill="white" stroke="steelblue" stroke-width="1" opacity="1"/><path transform="translate(92.83148224450437,35.22471851552981)" d="M3.536,0A3.536,3.536,0,1,1,-3.536,0A3.536,3.536,0,1,1,3.536,0" fill="white" stroke="steelblue" stroke-width="1" opacity="1"/><path transform="translate(2.759383271134641,94.2987043180526)" d="M3.536,0A3.536,3.536,0,1,1,-3.536,0A3.536,3.536,0,1,1,3.536,0" fill="white" stroke="steelblue" stroke-width="1" opacity="1"/><path transform="translate(5.917082163641629,93.56586132680268)" d="M3.536,0A3.536,3.536,0,1,1,-3.536,0A3.536,3.536,0,1,1,3.536,0" fill="white" stroke="steelblue" stroke-width="1" opacity="1"/><path transform="translate(90.51014843064901,2.1854851661543218)" d="M3.536,0A3.536,3.536,0,1,1,-3.536,0A3.536,3.536,0,1,1,3.536,0" fill="white" stroke="steelblue" stroke-width="1" opacity="1"/><path transform="translate(72.56369649897763,11.87797157725633)" d="M3.536,0A3.536,3.536,0,1,1,-3.536,0A3.536,3.536,0,1,1,3.536,0" fill="white" stroke="steelblue" stroke-width="1" opacity="1"/><path transform="translate(3.926558756495946,74.23801017269078)" d="M3.536,0A3.536,3.536,0,1,1,-3.536,0A3.536,3.536,0,1,1,3.536,0" fill="white" stroke="steelblue" stroke-width="1" opacity="1"/><path transform="translate(16.95743309599497,64.3660395666161)" d="M3.536,0A3.536,3.536,0,1,1,-3.536,0A3.536,3.536,0,1,1,3.536,0" fill="white" stroke="steelblue" stroke-width="1" opacity="1"/><path transform="translate(40.45329663305858,20.51325196095728)" d="M3.536,0A3.536,3.536,0,1,1,-3.536,0A3.536,3.536,0,1,1,3.536,0" fill="white" stroke="steelblue" stroke-width="1" opacity="1"/><path transform="translate(75.6590350126913,49.454427303292235)" d="M3.536,0A3.536,3.536,0,1,1,-3.536,0A3.536,3.536,0,1,1,3.536,0" fill="white" stroke="steelblue" stroke-width="1" opacity="1"/><path transform="translate(9.545334152146335,38.27576437437502)" d="M3.536,0A3.536,3.536,0,1,1,-3.536,0A3.536,3.536,0,1,1,3.536,0" fill="white" stroke="steelblue" stroke-width="1" opacity="1"/><path transform="translate(13.373407685109918,94.07340754532282)" d="M3.536,0A3.536,3.536,0,1,1,-3.536,0A3.536,3.536,0,1,1,3.536,0" fill="white" stroke="steelblue" stroke-width="1" opacity="1"/><path transform="translate(90.61295143592557,87.30249719532873)" d="M3.536,0A3.536,3.536,0,1,1,-3.536,0A3.536,3.536,0,1,1,3.536,0" fill="white" stroke="steelblue" stroke-width="1" opacity="1"/><path transform="translate(87.0599281746561,74.04014732181145)" d="M3.536,0A3.536,3.536,0,1,1,-3.536,0A3.536,3.536,0,1,1,3.536,0" fill="white" stroke="steelblue" stroke-width="1" opacity="1"/><path transform="translate(64.38633673962244,90.03667892770206)" d="M3.536,0A3.536,3.536,0,1,1,-3.536,0A3.536,3.536,0,1,1,3.536,0" fill="white" stroke="steelblue" stroke-width="1" opacity="1"/><path transform="translate(83.1343021643785,76.86076877378915)" d="M3.536,0A3.536,3.536,0,1,1,-3.536,0A3.536,3.536,0,1,1,3.536,0" fill="white" stroke="steelblue" stroke-width="1" opacity="1"/><path transform="translate(18.26875027075331,88.48114325443397)" d="M3.536,0A3.536,3.536,0,1,1,-3.536,0A3.536,3.536,0,1,1,3.536,0" fill="white" stroke="steelblue" stroke-width="1" opacity="1"/><path transform="translate(94.9906253977124,71.95714926390822)" d="M3.536,0A3.536,3.536,0,1,1,-3.536,0A3.536,3.536,0,1,1,3.536,0" fill="white" stroke="steelblue" stroke-width="1" opacity="1"/><path transform="translate(6.494771315276282,15.664087186069287)" d="M3.536,0A3.536,3.536,0,1,1,-3.536,0A3.536,3.536,0,1,1,3.536,0" fill="white" stroke="steelblue" stroke-width="1" opacity="1"/><path transform="translate(51.61533925938515,57.07671302828194)" d="M3.536,0A3.536,3.536,0,1,1,-3.536,0A3.536,3.536,0,1,1,3.536,0" fill="white" stroke="steelblue" stroke-width="1" opacity="1"/><path transform="translate(90.2749365343223,3.175120602939341)" d="M3.536,0A3.536,3.536,0,1,1,-3.536,0A3.536,3.536,0,1,1,3.536,0" fill="white" stroke="steelblue" stroke-width="1" opacity="1"/><path transform="translate(51.84125068062953,98.43181432854543)" d="M3.536,0A3.536,3.536,0,1,1,-3.536,0A3.536,3.536,0,1,1,3.536,0" fill="white" stroke="steelblue" stroke-width="1" opacity="1"/><path transform="translate(62.12352284380318,46.55555695472048)" d="M3.536,0A3.536,3.536,0,1,1,-3.536,0A3.536,3.536,0,1,1,3.536,0" fill="white" stroke="steelblue" stroke-width="1" opacity="1"/><path transform="translate(71.50693666365517,48.9276201570273)" d="M3.536,0A3.536,3.536,0,1,1,-3.536,0A3.536,3.536,0,1,1,3.536,0" fill="white" stroke="steelblue" stroke-width="1" opacity="1"/><path transform="translate(16.311039075553037,29.56893340540061)" d="M3.536,0A3.536,3.536,0,1,1,-3.536,0A3.536,3.536,0,1,1,3.536,0" fill="white" stroke="steelblue" stroke-width="1" opacity="1"/></g></g><path class="foreground" aria-hidden="true" d="" display="none"/></g></g></g><path class="foreground" aria-hidden="true" d="" display="none"/></g></g></g><defs><clipPath id="clip1"><rect x="0" y="0" width="100" height="100"/></clipPath></defs></svg>