<svg xmlns="http://www.w3.org/2000/svg" xmlns:xlink="http://www.w3.org/1999/xlink" version="1.1" class="marks" width="129" height="133" viewBox="0 0 129 133"><rect width="129" height="133" fill="white"/><g fill="none" stroke-miterlimit="10" transform="translate(29,1)"><g class="mark-group role-frame root" role="graphics-object" aria-roledescription="group mark container"><g transform="translate(0,0)"><path class="background" aria-hidden="true" d="M0,0h100v100h-100Z"/><g><g class="mark-group role-axis" role="graphics-symbol" aria-roledescription="axis" aria-label="X-axis titled 'low' for a linear scale with values from −0.4 to 2.6"><g transform="translate(0.5,100.5)"><path class="background" aria-hidden="true" d="M0,0h0v0h0Z" pointer-events="none"/><g><g class="mark-rule role-axis-tick" pointer-events="none"><line transform="translate(13,0)" x2="0" y2="5" stroke="black" stroke-width="1.01" opacity="1"/><line transform="translate(47,0)" x2="0" y2="5" stroke="black" stroke-width="1.01" opacity="1"/><line transform="translate(80,0)" x2="0" y2="5" stroke="black" stroke-width="1.01" opacity="1"/></g><g class="mark-text role-axis-label" pointer-events="none"><text text-anchor="middle" transform="translate(13.333333333333334,15)" font-family="sans-serif" font-size="10px" font-style="normal" font-weight="400" fill="black" opacity="1">0</text><text text-anchor="middle" transform="translate(46.666666666666664,15)" font-family="sans-serif" font-size="10px" font-style="normal" font-weight="400" fill="black" opacity="1">1</text><text text-anchor="middle" transform="translate(80,15)" font-family="sans-serif" font-size="10px" font-style="normal" font-weight="400" fill="black" opacity="1">2</text></g><g class="mark-rule role-axis-domain" pointer-events="none"><line transform="translate(0,0)" x2="100" y2="0" stroke="black" stroke-width="1.01" opacity="1"/></g><g class="mark-text role-axis-title" pointer-events="none"><text text-anchor="middle" transform="translate(50,30)" font-family="sans-serif" font-size="11px" font-style="normal" font-weight="400" fill="white" opacity="1">low</text></g></g><path class="foreground" aria-hidden="true" d="" pointer-events="none" display="none"/></g></g><g class="mark-group role-axis" role="graphics-symbol" aria-roledescription="axis" aria-label="Y-axis titled 'y' for a linear scale with values from 1 to 5"><g transform="translate(0.5,0.5)"><path class="background" aria-hidden="true" d="M0,0h0v0h0Z" pointer-events="none"/><g><g class="mark-rule role-axis-tick" pointer-events="none"><line transform="translate(0,88)" x2="-5" y2="0" stroke="black" stroke-width="1.01" opacity="1"/><line transform="translate(0,63)" x2="-5" y2="0" stroke="black" stroke-width="1.01" opacity="1"/><line transform="translate(0,38)" x2="-5" y2="0" stroke="black" stroke-width="1.01" opacity="1"/><line transform="translate(0,13)" x2="-5" y2="0" stroke="black" stroke-width="1.01" opacity="1"/></g><g class="mark-text role-axis-label" pointer-events="none"><text text-anchor="end" transform="translate(-7,90.5)" font-family="sans-serif" font-size="10px" font-style="normal" font-weight="400" fill="black" opacity="1">1</text><text text-anchor="end" transform="translate(-7,65.5)" font-family="sans-serif" font-size="10px" font-style="normal" font-weight="400" fill="black" opacity="1">2</text><text text-anchor="end" transform="translate(-7,40.5)" font-family="sans-serif" font-size="10px" font-style="normal" font-weight="400" fill="black" opacity="1">3</text><text text-anchor="end" transform="translate(-7,15.5)" font-family="sans-serif" font-size="10px" font-style="normal" font-weight="400" fill="black" opacity="1">4</text></g><g class="mark-rule role-axis-domain" pointer-events="none"><line transform="translate(0,100)" x2="0" y2="-100" stroke="black" stroke-width="1.01" opacity="1"/></g><g class="mark-text role-axis-title" pointer-events="none"><text text-anchor="middle" transform="translate(-17.3623046875,50) rotate(-90) translate(0,-2)" font-family="sans-serif" font-size="11px" font-style="normal" font-weight="400" fill="white" opacity="1">y</text></g></g><path class="foreground" aria-hidden="true" d="" pointer-events="none" display="none"/></g></g><g class="mark-group role-scope" role="graphics-object" aria-roledescription="group mark container"><g transform="translate(0,0)"><path class="background" aria-hidden="true" d="M0,0h0v0h0Z"/><g><g class="mark-rect role-mark" role="graphics-symbol" aria-roledescription="rect mark container"><path d="M31.09131757212445,87.5h25.77315192376584v0h-25.77315192376584Z" stroke="#4682b4" stroke-width="1" opacity="1"/><path d="M14.769049059547426,62.5h58.92613868344087v0h-58.92613868344087Z" stroke="#4682b4" stroke-width="1" opacity="1"/><path d="M19.936240146169645,37.5h69.99101981063885v0h-69.99101981063885Z" stroke="#4682b4" stroke-width="1" opacity="1"/><path d="M19.01236340756362,12.5h52.11797790177513v0h-52.11797790177513Z" stroke="#4682b4" stroke-width="1" opacity="1"/></g></g><path class="foreground" aria-hidden="true" d="" display="none"/></g></g><g class="mark-group role-scope" role="graphics-object" aria-roledescription="group mark container"><g transform="translate(0,0)"><path class="background" aria-hidden="true" d="M0,0h0v0h0Z"/><g><g class="mark-symbol role-mark points" role="graphics-symbol" aria-roledescription="symbol mark container"><path transform="translate(31.09131757212445,87.5) rotate(90)" d="M-3.536,0L3.536,0" fill="white" stroke="steelblue" stroke-width="1" opacity="1"/><path transform="translate(14.769049059547426,62.5) rotate(90)" d="M-3.536,0L3.536,0" fill="white" stroke="steelblue" stroke-width="1" opacity="1"/><path transform="translate(19.936240146169645,37.5) rotate(90)" d="M-3.536,0L3.536,0" fill="white" stroke="steelblue" stroke-width="1" opacity="1"/><path transform="translate(19.01236340756362,12.5) rotate(90)" d="M-3.536,0L3.536,0" fill="white" stroke="steelblue" stroke-width="1" opacity="1"/></g></g><path class="foreground" aria-hidden="true" d="" display="none"/></g></g><g class="mark-group role-scope" role="graphics-object" aria-roledescription="group mark container"><g transform="translate(0,0)"><path class="background" aria-hidden="true" d="M0,0h0v0h0Z"/><g><g class="mark-symbol role-mark points" role="graphics-symbol" aria-roledescription="symbol mark container"><path transform="translate(56.86446949589029,87.5) rotate(90)" d="M-3.536,0L3.536,0" fill="white" stroke="steelblue" stroke-width="1" opacity="1"/><path transform="translate(73.6951877429883,62.5) rotate(90)" d="M-3.536,0L3.536,0" fill="white" stroke="steelblue" stroke-width="1" opacity="1"/><path transform="translate(89.9272599568085,37.5) rotate(90)" d="M-3.536,0L3.536,0" fill="white" stroke="steelblue" stroke-width="1" opacity="1"/><path transform="translate(71.13034130933875,12.5) rotate(90)" d="M-3.536,0L3.536,0" fill="white" stroke="steelblue" stroke-width="1" opacity="1"/></g></g><path class="foreground" aria-hidden="true" d="" display="none"/></g></g><g class="mark-rule role-mark" role="graphics-symbol" aria-roledescription="rule mark container"><line transform="translate(46.666666666666664,0)" x2="0" y2="100" stroke="grey" stroke-width="1" stroke-dasharray="2" opacity="1"/></g></g><path class="foreground" aria-hidden="true" d="" display="none"/></g></g></g></svg>