<svg xmlns="http://www.w3.org/2000/svg" xmlns:xlink="http://www.w3.org/1999/xlink" version="1.1" class="marks" width="123" height="122" viewBox="0 0 123 122"><rect width="123" height="122" fill="white"/><g fill="none" stroke-miterlimit="10" transform="translate(22,5)"><g class="mark-group role-frame root" role="graphics-object" aria-roledescription="group mark container"><g transform="translate(0,0)"><path class="background" aria-hidden="true" d="M0,0h100v100h-100Z"/><g><g class="mark-group role-axis" role="graphics-symbol" aria-roledescription="axis" aria-label="X-axis for a discrete scale with 1 value: variable(s)"><g transform="translate(0.5,100.5)"><path class="background" aria-hidden="true" d="M0,0h0v0h0Z" pointer-events="none"/><g><g class="mark-rule role-axis-tick" pointer-events="none"><line transform="translate(50,0)" x2="0" y2="5" stroke="white" stroke-width="1.01" opacity="1"/></g><g class="mark-text role-axis-label" pointer-events="none"><text text-anchor="middle" transform="translate(49.5,15)" font-family="sans-serif" font-size="10px" font-style="normal" font-weight="400" fill="black" opacity="1">variable(s)</text></g></g><path class="foreground" aria-hidden="true" d="" pointer-events="none" display="none"/></g></g><g class="mark-group role-axis" role="graphics-symbol" aria-roledescription="axis" aria-label="Y-axis for a linear scale with values from −5 to 5"><g transform="translate(0.5,0.5)"><path class="background" aria-hidden="true" d="M0,0h0v0h0Z" pointer-events="none"/><g><g class="mark-rule role-axis-tick" pointer-events="none"><line transform="translate(0,100)" x2="-5" y2="0" stroke="white" stroke-width="1.01" opacity="1"/><line transform="translate(0,50)" x2="-5" y2="0" stroke="white" stroke-width="1.01" opacity="1"/><line transform="translate(0,0)" x2="-5" y2="0" stroke="white" stroke-width="1.01" opacity="1"/></g><g class="mark-text role-axis-label" pointer-events="none"><text text-anchor="end" transform="translate(-7,103)" font-family="sans-serif" font-size="10px" font-style="normal" font-weight="400" fill="white" opacity="1">−5</text><text text-anchor="end" transform="translate(-7,53)" font-family="sans-serif" font-size="10px" font-style="normal" font-weight="400" fill="white" opacity="1">0</text><text text-anchor="end" transform="translate(-7,3)" font-family="sans-serif" font-size="10px" font-style="normal" font-weight="400" fill="white" opacity="1">5</text></g></g><path class="foreground" aria-hidden="true" d="" pointer-events="none" display="none"/></g></g><g class="mark-group role-scope" role="graphics-object" aria-roledescription="group mark container"><g transform="translate(0,0)"><path class="background" aria-hidden="true" d="M0,0h0v0h0Z"/><g><g class="mark-group role-scope" role="graphics-object" aria-roledescription="group mark container"><g transform="translate(0,0)"><path class="background" aria-hidden="true" d="M0,0h24.050632911392405v100h-24.050632911392405Z"/><g><g class="mark-area role-mark" role="graphics-symbol" aria-roledescription="area mark container"><path d="M12.031,82.156L12.035,81.428L12.042,80.699L12.053,79.97L12.07,79.242L12.095,78.513L12.131,77.785L12.181,77.056L12.249,76.327L12.338,75.599L12.45,74.87L12.588,74.142L12.751,73.413L12.939,72.684L13.151,71.956L13.386,71.227L13.64,70.499L13.915,69.77L14.21,69.041L14.529,68.313L14.877,67.584L15.261,66.856L15.687,66.127L16.16,65.398L16.685,64.67L17.261,63.941L17.884,63.213L18.544,62.484L19.229,61.755L19.924,61.027L20.609,60.298L21.268,59.57L21.88,58.841L22.432,58.112L22.91,57.384L23.306,56.655L23.616,55.927L23.841,55.198L23.983,54.469L24.05,53.741L24.051,53.012L23.995,52.284L23.895,51.555L23.76,50.826L23.599,50.098L23.42,49.369L23.226,48.64L23.02,47.912L22.798,47.183L22.554,46.455L22.282,45.726L21.972,44.997L21.617,44.269L21.211,43.54L20.752,42.812L20.243,42.083L19.692,41.354L19.108,40.626L18.506,39.897L17.903,39.169L17.313,38.44L16.753,37.711L16.234,36.983L15.766,36.254L15.355,35.526L15.003,34.797L14.709,34.068L14.467,33.34L14.269,32.611L14.107,31.883L13.969,31.154L13.846,30.425L13.73,29.697L13.614,28.968L13.495,28.24L13.373,27.511L13.248,26.782L13.124,26.054L13.003,25.325L12.89,24.597L12.786,23.868L12.691,23.139L12.606,22.411L12.53,21.682L12.46,20.954L12.397,20.225L12.339,19.496L12.286,18.768L12.237,18.039L12.194,17.311L12.156,16.582L12.124,15.853L12.098,15.125L12.077,14.396L12.061,13.668L12.049,12.939L12.041,12.21L12.035,11.482L12.031,10.753L12.029,10.025L12.022,10.025L12.019,10.753L12.016,11.482L12.01,12.21L12.002,12.939L11.99,13.668L11.974,14.396L11.953,15.125L11.927,15.853L11.895,16.582L11.857,17.311L11.814,18.039L11.765,18.768L11.712,19.496L11.653,20.225L11.59,20.954L11.521,21.682L11.445,22.411L11.36,23.139L11.265,23.868L11.161,24.597L11.047,25.325L10.927,26.054L10.803,26.782L10.678,27.511L10.555,28.24L10.436,28.968L10.321,29.697L10.204,30.425L10.082,31.154L9.944,31.883L9.782,32.611L9.584,33.34L9.342,34.068L9.048,34.797L8.696,35.526L8.285,36.254L7.817,36.983L7.298,37.711L6.737,38.44L6.148,39.169L5.544,39.897L4.943,40.626L4.359,41.354L3.807,42.083L3.298,42.812L2.839,43.54L2.433,44.269L2.078,44.997L1.769,45.726L1.496,46.455L1.253,47.183L1.031,47.912L0.824,48.64L0.631,49.369L0.452,50.098L0.291,50.826L0.156,51.555L0.055,52.284L0,53.012L0.001,53.741L0.068,54.469L0.21,55.198L0.434,55.927L0.745,56.655L1.141,57.384L1.619,58.112L2.17,58.841L2.783,59.57L3.441,60.298L4.127,61.027L4.821,61.755L5.507,62.484L6.167,63.213L6.79,63.941L7.365,64.67L7.89,65.398L8.364,66.127L8.79,66.856L9.173,67.584L9.521,68.313L9.841,69.041L10.136,69.77L10.41,70.499L10.665,71.227L10.899,71.956L11.112,72.684L11.3,73.413L11.463,74.142L11.6,74.87L11.712,75.599L11.801,76.327L11.869,77.056L11.92,77.785L11.956,78.513L11.981,79.242L11.998,79.97L12.009,80.699L12.016,81.428L12.02,82.156Z" fill="#4c78a8" fill-opacity="0.5" stroke="#4c78a8" stroke-width="1"/></g></g><path class="foreground" aria-hidden="true" d="" display="none"/></g><g transform="translate(25.31645569620253,0)"><path class="background" aria-hidden="true" d="M0,0h24.050632911392405v100h-24.050632911392405Z"/><g><g class="mark-area role-mark" role="graphics-symbol" aria-roledescription="area mark container"><path d="M12.03,83.304L12.034,82.611L12.039,81.919L12.047,81.226L12.059,80.533L12.075,79.84L12.098,79.148L12.127,78.455L12.165,77.762L12.212,77.069L12.268,76.377L12.332,75.684L12.404,74.991L12.483,74.298L12.567,73.606L12.656,72.913L12.75,72.22L12.852,71.527L12.964,70.835L13.094,70.142L13.25,69.449L13.441,68.756L13.676,68.064L13.965,67.371L14.316,66.678L14.732,65.985L15.214,65.293L15.76,64.6L16.36,63.907L17.005,63.214L17.679,62.521L18.368,61.829L19.054,61.136L19.723,60.443L20.359,59.75L20.95,59.058L21.487,58.365L21.961,57.672L22.369,56.979L22.709,56.287L22.981,55.594L23.191,54.901L23.344,54.208L23.448,53.516L23.51,52.823L23.535,52.13L23.53,51.437L23.494,50.745L23.427,50.052L23.323,49.359L23.177,48.666L22.985,47.974L22.742,47.281L22.448,46.588L22.11,45.895L21.736,45.203L21.339,44.51L20.933,43.817L20.534,43.124L20.153,42.432L19.802,41.739L19.484,41.046L19.2,40.353L18.946,39.661L18.716,38.968L18.499,38.275L18.288,37.582L18.073,36.89L17.848,36.197L17.606,35.504L17.344,34.811L17.06,34.119L16.754,33.426L16.429,32.733L16.086,32.04L15.73,31.348L15.367,30.655L15.003,29.962L14.646,29.269L14.301,28.576L13.975,27.884L13.673,27.191L13.398,26.498L13.152,25.805L12.937,25.113L12.752,24.42L12.595,23.727L12.465,23.034L12.359,22.342L12.274,21.649L12.207,20.956L12.155,20.263L12.117,19.571L12.088,18.878L12.067,18.185L12.053,17.492L12.043,16.8L12.036,16.107L12.032,15.414L12.029,14.721L12.021,14.721L12.019,15.414L12.014,16.107L12.008,16.8L11.998,17.492L11.983,18.185L11.963,18.878L11.934,19.571L11.895,20.263L11.844,20.956L11.777,21.649L11.692,22.342L11.586,23.034L11.456,23.727L11.299,24.42L11.114,25.113L10.899,25.805L10.653,26.498L10.378,27.191L10.076,27.884L9.75,28.576L9.405,29.269L9.047,29.962L8.684,30.655L8.321,31.348L7.965,32.04L7.622,32.733L7.296,33.426L6.991,34.119L6.707,34.811L6.445,35.504L6.203,36.197L5.978,36.89L5.763,37.582L5.551,38.275L5.335,38.968L5.104,39.661L4.85,40.353L4.567,41.046L4.249,41.739L3.897,42.432L3.517,43.124L3.118,43.817L2.712,44.51L2.315,45.203L1.94,45.895L1.602,46.588L1.309,47.281L1.066,47.974L0.873,48.666L0.728,49.359L0.624,50.052L0.556,50.745L0.521,51.437L0.515,52.13L0.541,52.823L0.603,53.516L0.706,54.208L0.859,54.901L1.069,55.594L1.342,56.287L1.682,56.979L2.089,57.672L2.564,58.365L3.1,59.058L3.691,59.75L4.328,60.443L4.996,61.136L5.683,61.829L6.371,62.521L7.046,63.214L7.69,63.907L8.291,64.6L8.836,65.293L9.319,65.985L9.735,66.678L10.086,67.371L10.375,68.064L10.61,68.756L10.801,69.449L10.956,70.142L11.086,70.835L11.199,71.527L11.3,72.22L11.394,72.913L11.483,73.606L11.568,74.298L11.646,74.991L11.719,75.684L11.783,76.377L11.839,77.069L11.885,77.762L11.923,78.455L11.953,79.148L11.975,79.84L11.992,80.533L12.004,81.226L12.012,81.919L12.017,82.611L12.02,83.304Z" fill="#f58518" fill-opacity="0.5" stroke="#f58518" stroke-width="1"/></g></g><path class="foreground" aria-hidden="true" d="" display="none"/></g><g transform="translate(50.63291139240506,0)"><path class="background" aria-hidden="true" d="M0,0h24.050632911392405v100h-24.050632911392405Z"/><g><g class="mark-area role-mark" role="graphics-symbol" aria-roledescription="area mark container"><path d="M12.029,91.286L12.031,90.488L12.035,89.69L12.04,88.892L12.049,88.094L12.06,87.296L12.077,86.498L12.1,85.7L12.13,84.903L12.169,84.105L12.217,83.307L12.276,82.509L12.345,81.711L12.426,80.913L12.517,80.115L12.617,79.317L12.727,78.519L12.846,77.722L12.972,76.924L13.106,76.126L13.249,75.328L13.402,74.53L13.568,73.732L13.751,72.934L13.952,72.136L14.176,71.339L14.424,70.541L14.699,69.743L15,68.945L15.325,68.147L15.672,67.349L16.037,66.551L16.415,65.753L16.803,64.956L17.197,64.158L17.598,63.36L18.004,62.562L18.419,61.764L18.842,60.966L19.277,60.168L19.723,59.37L20.179,58.572L20.639,57.775L21.097,56.977L21.541,56.179L21.959,55.381L22.336,54.583L22.658,53.785L22.91,52.987L23.079,52.189L23.157,51.392L23.137,50.594L23.021,49.796L22.815,48.998L22.532,48.2L22.188,47.402L21.804,46.604L21.399,45.806L20.992,45.009L20.596,44.211L20.221,43.413L19.868,42.615L19.533,41.817L19.209,41.019L18.885,40.221L18.552,39.423L18.201,38.626L17.831,37.828L17.441,37.03L17.037,36.232L16.627,35.434L16.222,34.636L15.832,33.838L15.464,33.04L15.125,32.242L14.817,31.445L14.54,30.647L14.292,29.849L14.067,29.051L13.861,28.253L13.669,27.455L13.488,26.657L13.314,25.859L13.148,25.062L12.988,24.264L12.838,23.466L12.698,22.668L12.57,21.87L12.457,21.072L12.36,20.274L12.278,19.476L12.211,18.679L12.159,17.881L12.119,17.083L12.089,16.285L12.067,15.487L12.052,14.689L12.042,13.891L12.035,13.093L12.031,12.295L12.019,12.295L12.015,13.093L12.009,13.891L11.998,14.689L11.983,15.487L11.962,16.285L11.932,17.083L11.892,17.881L11.839,18.679L11.773,19.476L11.691,20.274L11.593,21.072L11.48,21.87L11.353,22.668L11.213,23.466L11.062,24.264L10.903,25.062L10.736,25.859L10.563,26.657L10.381,27.455L10.189,28.253L9.984,29.051L9.759,29.849L9.51,30.647L9.234,31.445L8.926,32.242L8.587,33.04L8.219,33.838L7.828,34.636L7.423,35.434L7.014,36.232L6.61,37.03L6.22,37.828L5.849,38.626L5.499,39.423L5.166,40.221L4.842,41.019L4.517,41.817L4.183,42.615L3.83,43.413L3.454,44.211L3.059,45.009L2.652,45.806L2.247,46.604L1.862,47.402L1.519,48.2L1.235,48.998L1.03,49.796L0.914,50.594L0.894,51.392L0.971,52.189L1.141,52.987L1.393,53.785L1.714,54.583L2.092,55.381L2.51,56.179L2.954,56.977L3.411,57.775L3.872,58.572L4.327,59.37L4.773,60.168L5.208,60.966L5.632,61.764L6.046,62.562L6.453,63.36L6.853,64.158L7.248,64.956L7.636,65.753L8.014,66.551L8.378,67.349L8.725,68.147L9.051,68.945L9.352,69.743L9.627,70.541L9.875,71.339L10.099,72.136L10.3,72.934L10.482,73.732L10.648,74.53L10.802,75.328L10.945,76.126L11.079,76.924L11.205,77.722L11.323,78.519L11.433,79.317L11.534,80.115L11.625,80.913L11.705,81.711L11.775,82.509L11.834,83.307L11.882,84.105L11.92,84.903L11.951,85.7L11.973,86.498L11.99,87.296L12.002,88.094L12.01,88.892L12.016,89.69L12.02,90.488L12.022,91.286Z" fill="#e45756" fill-opacity="0.5" stroke="#e45756" stroke-width="1"/></g></g><path class="foreground" aria-hidden="true" d="" display="none"/></g><g transform="translate(75.9493670886076,0)"><path class="background" aria-hidden="true" d="M0,0h24.050632911392405v100h-24.050632911392405Z"/><g><g class="mark-area role-mark" role="graphics-symbol" aria-roledescription="area mark container"><path d="M12.029,91.427L12.032,90.595L12.037,89.763L12.044,88.93L12.056,88.098L12.073,87.265L12.096,86.433L12.129,85.601L12.171,84.768L12.223,83.936L12.286,83.103L12.359,82.271L12.44,81.439L12.526,80.606L12.615,79.774L12.704,78.941L12.793,78.109L12.881,77.277L12.972,76.444L13.072,75.612L13.189,74.779L13.333,73.947L13.514,73.115L13.741,72.282L14.018,71.45L14.348,70.617L14.724,69.785L15.137,68.953L15.575,68.12L16.024,67.288L16.472,66.455L16.913,65.623L17.346,64.791L17.776,63.958L18.212,63.126L18.665,62.293L19.146,61.461L19.659,60.629L20.204,59.796L20.77,58.964L21.344,58.131L21.904,57.299L22.43,56.467L22.898,55.634L23.292,54.802L23.596,53.969L23.804,53.137L23.913,52.305L23.926,51.472L23.849,50.64L23.692,49.807L23.465,48.975L23.179,48.143L22.84,47.31L22.454,46.478L22.025,45.645L21.553,44.813L21.04,43.981L20.487,43.148L19.899,42.316L19.286,41.483L18.659,40.651L18.034,39.818L17.428,38.986L16.854,38.154L16.324,37.321L15.845,36.489L15.415,35.656L15.032,34.824L14.686,33.992L14.371,33.159L14.078,32.327L13.803,31.494L13.546,30.662L13.308,29.83L13.094,28.997L12.907,28.165L12.752,27.332L12.63,26.5L12.538,25.668L12.473,24.835L12.429,24.003L12.399,23.17L12.375,22.338L12.354,21.506L12.33,20.673L12.302,19.841L12.269,19.008L12.234,18.176L12.198,17.344L12.163,16.511L12.131,15.679L12.104,14.846L12.081,14.014L12.063,13.182L12.05,12.349L12.041,11.517L12.035,10.684L12.031,9.852L12.029,9.02L12.022,9.02L12.02,9.852L12.016,10.684L12.009,11.517L12,12.349L11.987,13.182L11.97,14.014L11.947,14.846L11.92,15.679L11.888,16.511L11.853,17.344L11.816,18.176L11.781,19.008L11.749,19.841L11.721,20.673L11.697,21.506L11.675,22.338L11.652,23.17L11.622,24.003L11.578,24.835L11.513,25.668L11.421,26.5L11.298,27.332L11.143,28.165L10.957,28.997L10.742,29.83L10.505,30.662L10.247,31.494L9.972,32.327L9.68,33.159L9.364,33.992L9.019,34.824L8.635,35.656L8.206,36.489L7.726,37.321L7.197,38.154L6.623,38.986L6.016,39.818L5.391,40.651L4.765,41.483L4.151,42.316L3.564,43.148L3.011,43.981L2.498,44.813L2.026,45.645L1.597,46.478L1.211,47.31L0.872,48.143L0.585,48.975L0.359,49.807L0.202,50.64L0.125,51.472L0.138,52.305L0.246,53.137L0.454,53.969L0.759,54.802L1.152,55.634L1.621,56.467L2.146,57.299L2.707,58.131L3.28,58.964L3.847,59.796L4.391,60.629L4.904,61.461L5.385,62.293L5.839,63.126L6.275,63.958L6.705,64.791L7.138,65.623L7.579,66.455L8.027,67.288L8.476,68.12L8.914,68.953L9.327,69.785L9.703,70.617L10.032,71.45L10.31,72.282L10.537,73.115L10.718,73.947L10.862,74.779L10.978,75.612L11.078,76.444L11.17,77.277L11.258,78.109L11.346,78.941L11.436,79.774L11.525,80.606L11.611,81.439L11.692,82.271L11.764,83.103L11.827,83.936L11.88,84.768L11.922,85.601L11.954,86.433L11.978,87.265L11.995,88.098L12.007,88.93L12.014,89.763L12.019,90.595L12.022,91.427Z" fill="#72b7b2" fill-opacity="0.5" stroke="#72b7b2" stroke-width="1"/></g></g><path class="foreground" aria-hidden="true" d="" display="none"/></g></g></g><path class="foreground" aria-hidden="true" d="" display="none"/></g></g></g><path class="foreground" aria-hidden="true" d="" display="none"/></g></g></g></svg>