<svg xmlns="http://www.w3.org/2000/svg" xmlns:xlink="http://www.w3.org/1999/xlink" version="1.1" class="marks" width="190" height="138" viewBox="0 0 190 138"><rect width="190" height="138" fill="white"/><g fill="none" stroke-miterlimit="10" transform="translate(38,6)"><g class="mark-group role-frame root" role="graphics-object" aria-roledescription="group mark container"><g transform="translate(0,0)"><path class="background" aria-hidden="true" d="M0,0h100v100h-100Z" fill="lightgray"/><g><g class="mark-group role-axis" role="graphics-symbol" aria-roledescription="axis" aria-label="X-axis titled 'x' for a linear scale with values from 0.0 to 1.0"><g transform="translate(0.5,100.5)"><path class="background" aria-hidden="true" d="M0,0h0v0h0Z" pointer-events="none"/><g><g class="mark-rule role-axis-grid" pointer-events="none"><line transform="translate(0,0)" x2="0" y2="-100" stroke="white" stroke-width="0.5" stroke-dasharray="0" opacity="1"/><line transform="translate(50,0)" x2="0" y2="-100" stroke="white" stroke-width="0.5" stroke-dasharray="0" opacity="1"/><line transform="translate(100,0)" x2="0" y2="-100" stroke="white" stroke-width="0.5" stroke-dasharray="0" opacity="1"/></g><g class="mark-rule role-axis-tick" pointer-events="none"><line transform="translate(0,0)" x2="0" y2="5" stroke="black" stroke-width="1.01" opacity="1"/><line transform="translate(50,0)" x2="0" y2="5" stroke="black" stroke-width="1.01" opacity="1"/><line transform="translate(100,0)" x2="0" y2="5" stroke="black" stroke-width="1.01" opacity="1"/></g><g class="mark-text role-axis-label" pointer-events="none"><text text-anchor="middle" transform="translate(0,15)" font-family="sans-serif" font-size="10px" font-style="normal" font-weight="400" fill="black" opacity="1">0.0</text><text text-anchor="middle" transform="translate(50,15)" font-family="sans-serif" font-size="10px" font-style="normal" font-weight="400" fill="black" opacity="1">0.5</text><text text-anchor="middle" transform="translate(100,15)" font-family="sans-serif" font-size="10px" font-style="normal" font-weight="400" fill="black" opacity="1">1.0</text></g><g class="mark-rule role-axis-domain" pointer-events="none"><line transform="translate(0,0)" x2="100" y2="0" stroke="black" stroke-width="1.01" opacity="1"/></g><g class="mark-text role-axis-title" pointer-events="none"><text text-anchor="middle" transform="translate(50,30)" font-family="sans-serif" font-size="11px" font-style="normal" font-weight="400" fill="black" opacity="1">x</text></g></g><path class="foreground" aria-hidden="true" d="" pointer-events="none" display="none"/></g></g><g class="mark-group role-axis" role="graphics-symbol" aria-roledescription="axis" aria-label="Y-axis titled 'y' for a linear scale with values from 0.0 to 1.0"><g transform="translate(0.5,0.5)"><path class="background" aria-hidden="true" d="M0,0h0v0h0Z" pointer-events="none"/><g><g class="mark-rule role-axis-grid" pointer-events="none"><line transform="translate(0,100)" x2="100" y2="0" stroke="white" stroke-width="0.5" stroke-dasharray="0" opacity="1"/><line transform="translate(0,50)" x2="100" y2="0" stroke="white" stroke-width="0.5" stroke-dasharray="0" opacity="1"/><line transform="translate(0,0)" x2="100" y2="0" stroke="white" stroke-width="0.5" stroke-dasharray="0" opacity="1"/></g><g class="mark-rule role-axis-tick" pointer-events="none"><line transform="translate(0,100)" x2="-5" y2="0" stroke="black" stroke-width="1.01" opacity="1"/><line transform="translate(0,50)" x2="-5" y2="0" stroke="black" stroke-width="1.01" opacity="1"/><line transform="translate(0,0)" x2="-5" y2="0" stroke="black" stroke-width="1.01" opacity="1"/></g><g class="mark-text role-axis-label" pointer-events="none"><text text-anchor="end" transform="translate(-7,103)" font-family="sans-serif" font-size="10px" font-style="normal" font-weight="400" fill="black" opacity="1">0.0</text><text text-anchor="end" transform="translate(-7,53)" font-family="sans-serif" font-size="10px" font-style="normal" font-weight="400" fill="black" opacity="1">0.5</text><text text-anchor="end" transform="translate(-7,3)" font-family="sans-serif" font-size="10px" font-style="normal" font-weight="400" fill="black" opacity="1">1.0</text></g><g class="mark-rule role-axis-domain" pointer-events="none"><line transform="translate(0,100)" x2="0" y2="-100" stroke="black" stroke-width="1.01" opacity="1"/></g><g class="mark-text role-axis-title" pointer-events="none"><text text-anchor="middle" transform="translate(-26.9033203125,50) rotate(-90) translate(0,-2)" font-family="sans-serif" font-size="11px" font-style="normal" font-weight="400" fill="black" opacity="1">y</text></g></g><path class="foreground" aria-hidden="true" d="" pointer-events="none" display="none"/></g></g><g class="mark-group role-scope" role="graphics-object" aria-roledescription="group mark container"><g transform="translate(0,0)"><path class="background" aria-hidden="true" d="M0,0h0v0h0Z"/><g><g class="mark-symbol role-mark points" role="graphics-symbol" aria-roledescription="symbol mark container"><path transform="translate(95.52238835773377,13.679992035051002)" d="M5,0A5,5,0,1,1,-5,0A5,5,0,1,1,5,0" fill="rgb(244, 230, 46)" stroke="white" stroke-width="1" opacity="1"/><path transform="translate(31.414927529778215,45.23770430809263)" d="M5,0A5,5,0,1,1,-5,0A5,5,0,1,1,5,0" fill="rgb(113, 177, 64)" stroke="white" stroke-width="1" opacity="1"/><path transform="translate(50.57435596454856,49.47038549912543)" d="M5,0A5,5,0,1,1,-5,0A5,5,0,1,1,5,0" fill="rgb(95, 168, 65)" stroke="white" stroke-width="1" opacity="1"/><path transform="translate(19.220144283325702,89.31463671845869)" d="M5,0A5,5,0,1,1,-5,0A5,5,0,1,1,5,0" fill="rgb(36, 83, 70)" stroke="white" stroke-width="1" opacity="1"/><path transform="translate(23.450955241188677,88.70893240621169)" d="M5,0A5,5,0,1,1,-5,0A5,5,0,1,1,5,0" fill="rgb(35, 85, 71)" stroke="white" stroke-width="1" opacity="1"/><path transform="translate(15.022056783796355,11.743009516552549)" d="M5,0A5,5,0,1,1,-5,0A5,5,0,1,1,5,0" fill="rgb(252, 234, 45)" stroke="white" stroke-width="1" opacity="1"/><path transform="translate(83.89961637318004,32.66782551737691)" d="M5,0A5,5,0,1,1,-5,0A5,5,0,1,1,5,0" fill="rgb(167, 198, 61)" stroke="white" stroke-width="1" opacity="1"/><path transform="translate(96.34889180227563,51.91112001454324)" d="M5,0A5,5,0,1,1,-5,0A5,5,0,1,1,5,0" fill="rgb(85, 164, 65)" stroke="white" stroke-width="1" opacity="1"/><path transform="translate(69.05320399819156,81.81642791327002)" d="M5,0A5,5,0,1,1,-5,0A5,5,0,1,1,5,0" fill="rgb(15, 100, 75)" stroke="white" stroke-width="1" opacity="1"/><path transform="translate(31.205056325165724,21.70813244887708)" d="M5,0A5,5,0,1,1,-5,0A5,5,0,1,1,5,0" fill="rgb(211, 216, 54)" stroke="white" stroke-width="1" opacity="1"/><path transform="translate(68.1525863442026,89.5545467330685)" d="M5,0A5,5,0,1,1,-5,0A5,5,0,1,1,5,0" fill="rgb(37, 82, 70)" stroke="white" stroke-width="1" opacity="1"/><path transform="translate(28.385893914864702,20.580388424174433)" d="M5,0A5,5,0,1,1,-5,0A5,5,0,1,1,5,0" fill="rgb(216, 218, 53)" stroke="white" stroke-width="1" opacity="1"/><path transform="translate(4.088561665537815,76.29911186442793)" d="M5,0A5,5,0,1,1,-5,0A5,5,0,1,1,5,0" fill="rgb(0, 112, 76)" stroke="white" stroke-width="1" opacity="1"/><path transform="translate(10.35950943105105,89.43603614931259)" d="M5,0A5,5,0,1,1,-5,0A5,5,0,1,1,5,0" fill="rgb(37, 83, 70)" stroke="white" stroke-width="1" opacity="1"/><path transform="translate(91.9319839829314,77.97140471885535)" d="M5,0A5,5,0,1,1,-5,0A5,5,0,1,1,5,0" fill="rgb(3, 109, 76)" stroke="white" stroke-width="1" opacity="1"/><path transform="translate(59.66747497514844,22.79296702373851)" d="M5,0A5,5,0,1,1,-5,0A5,5,0,1,1,5,0" fill="rgb(207, 215, 55)" stroke="white" stroke-width="1" opacity="1"/><path transform="translate(59.51164715690999,52.609225452527795)" d="M5,0A5,5,0,1,1,-5,0A5,5,0,1,1,5,0" fill="rgb(82, 162, 66)" stroke="white" stroke-width="1" opacity="1"/><path transform="translate(85.06459470646949,86.41198800913877)" d="M5,0A5,5,0,1,1,-5,0A5,5,0,1,1,5,0" fill="rgb(29, 90, 73)" stroke="white" stroke-width="1" opacity="1"/><path transform="translate(22.725040925583794,58.30915101247977)" d="M5,0A5,5,0,1,1,-5,0A5,5,0,1,1,5,0" fill="rgb(51, 152, 66)" stroke="white" stroke-width="1" opacity="1"/><path transform="translate(38.803740084096404,11.234281803985269)" d="M5,0A5,5,0,1,1,-5,0A5,5,0,1,1,5,0" fill="rgb(254, 235, 44)" stroke="white" stroke-width="1" opacity="1"/><path transform="translate(13.074768014759997,58.735490909654956)" d="M5,0A5,5,0,1,1,-5,0A5,5,0,1,1,5,0" fill="rgb(48, 151, 66)" stroke="white" stroke-width="1" opacity="1"/><path transform="translate(84.01540280999565,29.777720454348266)" d="M5,0A5,5,0,1,1,-5,0A5,5,0,1,1,5,0" fill="rgb(179, 203, 59)" stroke="white" stroke-width="1" opacity="1"/><path transform="translate(90.17082136035883,14.18921467483859)" d="M5,0A5,5,0,1,1,-5,0A5,5,0,1,1,5,0" fill="rgb(242, 230, 47)" stroke="white" stroke-width="1" opacity="1"/><path transform="translate(79.43658237081465,52.761850944777834)" d="M5,0A5,5,0,1,1,-5,0A5,5,0,1,1,5,0" fill="rgb(81, 162, 66)" stroke="white" stroke-width="1" opacity="1"/><path transform="translate(95.3534545570014,34.039063579162665)" d="M5,0A5,5,0,1,1,-5,0A5,5,0,1,1,5,0" fill="rgb(161, 196, 61)" stroke="white" stroke-width="1" opacity="1"/><path transform="translate(74.92436026171976,36.656912030316334)" d="M5,0A5,5,0,1,1,-5,0A5,5,0,1,1,5,0" fill="rgb(150, 192, 62)" stroke="white" stroke-width="1" opacity="1"/><path transform="translate(13.48283789011181,0.04892911170770731)" d="M5,0A5,5,0,1,1,-5,0A5,5,0,1,1,5,0" fill="rgb(255, 255, 170)" stroke="white" stroke-width="1" opacity="1"/><path transform="translate(73.63185622473183,67.65059884080567)" d="M5,0A5,5,0,1,1,-5,0A5,5,0,1,1,5,0" fill="rgb(3, 133, 68)" stroke="white" stroke-width="1" opacity="1"/><path transform="translate(7.6540418872600995,18.18587738394125)" d="M5,0A5,5,0,1,1,-5,0A5,5,0,1,1,5,0" fill="rgb(226, 223, 51)" stroke="white" stroke-width="1" opacity="1"/><path transform="translate(10.403599990258561,51.23560972376079)" d="M5,0A5,5,0,1,1,-5,0A5,5,0,1,1,5,0" fill="rgb(87, 165, 65)" stroke="white" stroke-width="1" opacity="1"/><path transform="translate(2.081741382582758,91.76720237850482)" d="M5,0A5,5,0,1,1,-5,0A5,5,0,1,1,5,0" fill="rgb(42, 77, 67)" stroke="white" stroke-width="1" opacity="1"/><path transform="translate(71.11081014347323,19.43969523722455)" d="M5,0A5,5,0,1,1,-5,0A5,5,0,1,1,5,0" fill="rgb(220, 220, 52)" stroke="white" stroke-width="1" opacity="1"/><path transform="translate(26.26644300366031,95.79611557026693)" d="M5,0A5,5,0,1,1,-5,0A5,5,0,1,1,5,0" fill="rgb(51, 66, 62)" stroke="white" stroke-width="1" opacity="1"/><path transform="translate(72.84165870848449,44.220970467635865)" d="M5,0A5,5,0,1,1,-5,0A5,5,0,1,1,5,0" fill="rgb(117, 178, 64)" stroke="white" stroke-width="1" opacity="1"/><path transform="translate(86.59700386231111,44.423741077294544)" d="M5,0A5,5,0,1,1,-5,0A5,5,0,1,1,5,0" fill="rgb(116, 178, 64)" stroke="white" stroke-width="1" opacity="1"/><path transform="translate(56.58195418552262,69.55061240771381)" d="M5,0A5,5,0,1,1,-5,0A5,5,0,1,1,5,0" fill="rgb(3, 128, 70)" stroke="white" stroke-width="1" opacity="1"/><path transform="translate(48.571513813320536,9.378881763894976)" d="M5,0A5,5,0,1,1,-5,0A5,5,0,1,1,5,0" fill="rgb(255, 238, 63)" stroke="white" stroke-width="1" opacity="1"/><path transform="translate(63.0197722888118,27.479494252294078)" d="M5,0A5,5,0,1,1,-5,0A5,5,0,1,1,5,0" fill="rgb(188, 207, 57)" stroke="white" stroke-width="1" opacity="1"/><path transform="translate(36.160416547192916,20.7170924477733)" d="M5,0A5,5,0,1,1,-5,0A5,5,0,1,1,5,0" fill="rgb(215, 218, 53)" stroke="white" stroke-width="1" opacity="1"/><path transform="translate(61.92871463881602,1.7549466943296843)" d="M5,0A5,5,0,1,1,-5,0A5,5,0,1,1,5,0" fill="rgb(255, 252, 150)" stroke="white" stroke-width="1" opacity="1"/><path transform="translate(19.548753950014508,62.4328953480432)" d="M5,0A5,5,0,1,1,-5,0A5,5,0,1,1,5,0" fill="rgb(25, 144, 66)" stroke="white" stroke-width="1" opacity="1"/><path transform="translate(38.15422677701127,96.26643431332084)" d="M5,0A5,5,0,1,1,-5,0A5,5,0,1,1,5,0" fill="rgb(52, 65, 61)" stroke="white" stroke-width="1" opacity="1"/><path transform="translate(0.18075010417610837,48.34615794465709)" d="M5,0A5,5,0,1,1,-5,0A5,5,0,1,1,5,0" fill="rgb(100, 171, 65)" stroke="white" stroke-width="1" opacity="1"/><path transform="translate(21.999316633983355,75.28864431897743)" d="M5,0A5,5,0,1,1,-5,0A5,5,0,1,1,5,0" fill="rgb(1, 115, 75)" stroke="white" stroke-width="1" opacity="1"/><path transform="translate(47.0350926569589,4.082446931077987)" d="M5,0A5,5,0,1,1,-5,0A5,5,0,1,1,5,0" fill="rgb(255, 248, 124)" stroke="white" stroke-width="1" opacity="1"/><path transform="translate(54.18043176318801,68.88693634973234)" d="M5,0A5,5,0,1,1,-5,0A5,5,0,1,1,5,0" fill="rgb(3, 130, 69)" stroke="white" stroke-width="1" opacity="1"/><path transform="translate(62.73806061616535,81.64205537398416)" d="M5,0A5,5,0,1,1,-5,0A5,5,0,1,1,5,0" fill="rgb(14, 101, 75)" stroke="white" stroke-width="1" opacity="1"/><path transform="translate(7.447309539432756,88.55514607811907)" d="M5,0A5,5,0,1,1,-5,0A5,5,0,1,1,5,0" fill="rgb(35, 85, 71)" stroke="white" stroke-width="1" opacity="1"/><path transform="translate(65.11177947091,29.803303287694938)" d="M5,0A5,5,0,1,1,-5,0A5,5,0,1,1,5,0" fill="rgb(179, 203, 59)" stroke="white" stroke-width="1" opacity="1"/><path transform="translate(7.762511237009006,71.72099491796973)" d="M5,0A5,5,0,1,1,-5,0A5,5,0,1,1,5,0" fill="rgb(2, 123, 72)" stroke="white" stroke-width="1" opacity="1"/><path transform="translate(22.10737417083172,98.46275510221402)" d="M5,0A5,5,0,1,1,-5,0A5,5,0,1,1,5,0" fill="rgb(57, 59, 58)" stroke="white" stroke-width="1" opacity="1"/><path transform="translate(31.189008504243198,3.334809817434148)" d="M5,0A5,5,0,1,1,-5,0A5,5,0,1,1,5,0" fill="rgb(255, 249, 132)" stroke="white" stroke-width="1" opacity="1"/><path transform="translate(5.8707666872737985,89.20658063108377)" d="M5,0A5,5,0,1,1,-5,0A5,5,0,1,1,5,0" fill="rgb(36, 83, 70)" stroke="white" stroke-width="1" opacity="1"/><path transform="translate(10.161136321491625,31.173107448887404)" d="M5,0A5,5,0,1,1,-5,0A5,5,0,1,1,5,0" fill="rgb(173, 201, 60)" stroke="white" stroke-width="1" opacity="1"/><path transform="translate(34.32259783523958,2.6906538420981008)" d="M5,0A5,5,0,1,1,-5,0A5,5,0,1,1,5,0" fill="rgb(255, 250, 140)" stroke="white" stroke-width="1" opacity="1"/><path transform="translate(51.08371346621149,37.31201884653675)" d="M5,0A5,5,0,1,1,-5,0A5,5,0,1,1,5,0" fill="rgb(147, 190, 62)" stroke="white" stroke-width="1" opacity="1"/><path transform="translate(71.3849166502703,15.172893831590873)" d="M5,0A5,5,0,1,1,-5,0A5,5,0,1,1,5,0" fill="rgb(238, 228, 48)" stroke="white" stroke-width="1" opacity="1"/><path transform="translate(68.11802595767375,50.37703638971117)" d="M5,0A5,5,0,1,1,-5,0A5,5,0,1,1,5,0" fill="rgb(91, 167, 65)" stroke="white" stroke-width="1" opacity="1"/><path transform="translate(47.506616520053356,17.75099395597497)" d="M5,0A5,5,0,1,1,-5,0A5,5,0,1,1,5,0" fill="rgb(227, 223, 50)" stroke="white" stroke-width="1" opacity="1"/><path transform="translate(83.8675851028743,93.20810008438995)" d="M5,0A5,5,0,1,1,-5,0A5,5,0,1,1,5,0" fill="rgb(45, 73, 65)" stroke="white" stroke-width="1" opacity="1"/><path transform="translate(64.97060649989359,39.14767759176656)" d="M5,0A5,5,0,1,1,-5,0A5,5,0,1,1,5,0" fill="rgb(139, 187, 63)" stroke="white" stroke-width="1" opacity="1"/><path transform="translate(66.02956417215259,61.983901731202515)" d="M5,0A5,5,0,1,1,-5,0A5,5,0,1,1,5,0" fill="rgb(28, 144, 66)" stroke="white" stroke-width="1" opacity="1"/><path transform="translate(87.29079986139823,46.15488407598456)" d="M5,0A5,5,0,1,1,-5,0A5,5,0,1,1,5,0" fill="rgb(109, 175, 64)" stroke="white" stroke-width="1" opacity="1"/><path transform="translate(46.46338147088556,49.685747126345916)" d="M5,0A5,5,0,1,1,-5,0A5,5,0,1,1,5,0" fill="rgb(94, 168, 65)" stroke="white" stroke-width="1" opacity="1"/><path transform="translate(91.0570223880414,39.6542329040814)" d="M5,0A5,5,0,1,1,-5,0A5,5,0,1,1,5,0" fill="rgb(137, 186, 63)" stroke="white" stroke-width="1" opacity="1"/><path transform="translate(68.51535718514006,73.13943183793286)" d="M5,0A5,5,0,1,1,-5,0A5,5,0,1,1,5,0" fill="rgb(1, 120, 73)" stroke="white" stroke-width="1" opacity="1"/><path transform="translate(27.459302744305624,72.97909823879665)" d="M5,0A5,5,0,1,1,-5,0A5,5,0,1,1,5,0" fill="rgb(1, 120, 73)" stroke="white" stroke-width="1" opacity="1"/><path transform="translate(26.654277906427172,17.998691669308098)" d="M5,0A5,5,0,1,1,-5,0A5,5,0,1,1,5,0" fill="rgb(226, 223, 50)" stroke="white" stroke-width="1" opacity="1"/><path transform="translate(32.18578187227197,43.3916757162653)" d="M5,0A5,5,0,1,1,-5,0A5,5,0,1,1,5,0" fill="rgb(120, 180, 64)" stroke="white" stroke-width="1" opacity="1"/><path transform="translate(13.945477297401398,32.05248051317626)" d="M5,0A5,5,0,1,1,-5,0A5,5,0,1,1,5,0" fill="rgb(170, 200, 60)" stroke="white" stroke-width="1" opacity="1"/><path transform="translate(74.60654030946588,98.24106114017978)" d="M5,0A5,5,0,1,1,-5,0A5,5,0,1,1,5,0" fill="rgb(57, 60, 59)" stroke="white" stroke-width="1" opacity="1"/><path transform="translate(99.36762266205996,98.0330275673048)" d="M5,0A5,5,0,1,1,-5,0A5,5,0,1,1,5,0" fill="rgb(56, 60, 59)" stroke="white" stroke-width="1" opacity="1"/><path transform="translate(91.5655450230334,17.242713823822665)" d="M5,0A5,5,0,1,1,-5,0A5,5,0,1,1,5,0" fill="rgb(229, 224, 50)" stroke="white" stroke-width="1" opacity="1"/><path transform="translate(33.89140601678987,45.24841508183468)" d="M5,0A5,5,0,1,1,-5,0A5,5,0,1,1,5,0" fill="rgb(113, 177, 64)" stroke="white" stroke-width="1" opacity="1"/><path transform="translate(0.16317308491911042,3.527544766399049)" d="M5,0A5,5,0,1,1,-5,0A5,5,0,1,1,5,0" fill="rgb(255, 249, 130)" stroke="white" stroke-width="1" opacity="1"/><path transform="translate(6.424579700799438,11.79640493879479)" d="M5,0A5,5,0,1,1,-5,0A5,5,0,1,1,5,0" fill="rgb(252, 234, 45)" stroke="white" stroke-width="1" opacity="1"/><path transform="translate(72.83447846185605,98.8138491214667)" d="M5,0A5,5,0,1,1,-5,0A5,5,0,1,1,5,0" fill="rgb(58, 58, 58)" stroke="white" stroke-width="1" opacity="1"/><path transform="translate(0.12418154732759534,14.796698477161918)" d="M5,0A5,5,0,1,1,-5,0A5,5,0,1,1,5,0" fill="rgb(240, 228, 47)" stroke="white" stroke-width="1" opacity="1"/><path transform="translate(9.539684719058306,62.49796560878293)" d="M5,0A5,5,0,1,1,-5,0A5,5,0,1,1,5,0" fill="rgb(25, 143, 66)" stroke="white" stroke-width="1" opacity="1"/><path transform="translate(6.699295835554708,43.29511790024395)" d="M5,0A5,5,0,1,1,-5,0A5,5,0,1,1,5,0" fill="rgb(121, 180, 64)" stroke="white" stroke-width="1" opacity="1"/><path transform="translate(83.57480886594989,21.05623275151739)" d="M5,0A5,5,0,1,1,-5,0A5,5,0,1,1,5,0" fill="rgb(214, 218, 53)" stroke="white" stroke-width="1" opacity="1"/><path transform="translate(85.98675250338039,51.70678762904713)" d="M5,0A5,5,0,1,1,-5,0A5,5,0,1,1,5,0" fill="rgb(85, 164, 65)" stroke="white" stroke-width="1" opacity="1"/><path transform="translate(93.47683803229366,81.17275542409288)" d="M5,0A5,5,0,1,1,-5,0A5,5,0,1,1,5,0" fill="rgb(13, 102, 75)" stroke="white" stroke-width="1" opacity="1"/><path transform="translate(12.527801402616934,79.70835795487879)" d="M5,0A5,5,0,1,1,-5,0A5,5,0,1,1,5,0" fill="rgb(9, 105, 76)" stroke="white" stroke-width="1" opacity="1"/><path transform="translate(22.667399036185863,37.88535678286935)" d="M5,0A5,5,0,1,1,-5,0A5,5,0,1,1,5,0" fill="rgb(145, 189, 62)" stroke="white" stroke-width="1" opacity="1"/><path transform="translate(53.17687730353913,1.1545896580976378)" d="M5,0A5,5,0,1,1,-5,0A5,5,0,1,1,5,0" fill="rgb(255, 253, 157)" stroke="white" stroke-width="1" opacity="1"/><path transform="translate(36.014737091115165,74.58470897050029)" d="M5,0A5,5,0,1,1,-5,0A5,5,0,1,1,5,0" fill="rgb(1, 116, 75)" stroke="white" stroke-width="1" opacity="1"/><path transform="translate(53.263289700567064,94.0733690370291)" d="M5,0A5,5,0,1,1,-5,0A5,5,0,1,1,5,0" fill="rgb(47, 71, 64)" stroke="white" stroke-width="1" opacity="1"/><path transform="translate(98.5607920227195,18.670084134596465)" d="M5,0A5,5,0,1,1,-5,0A5,5,0,1,1,5,0" fill="rgb(224, 222, 51)" stroke="white" stroke-width="1" opacity="1"/><path transform="translate(10.781152835849117,59.25467769159714)" d="M5,0A5,5,0,1,1,-5,0A5,5,0,1,1,5,0" fill="rgb(45, 150, 66)" stroke="white" stroke-width="1" opacity="1"/><path transform="translate(48.417061956442375,29.754069121199443)" d="M5,0A5,5,0,1,1,-5,0A5,5,0,1,1,5,0" fill="rgb(179, 203, 59)" stroke="white" stroke-width="1" opacity="1"/><path transform="translate(64.73619530716354,80.75578833632487)" d="M5,0A5,5,0,1,1,-5,0A5,5,0,1,1,5,0" fill="rgb(12, 102, 75)" stroke="white" stroke-width="1" opacity="1"/><path transform="translate(42.84968546041977,60.688981914281214)" d="M5,0A5,5,0,1,1,-5,0A5,5,0,1,1,5,0" fill="rgb(36, 147, 66)" stroke="white" stroke-width="1" opacity="1"/><path transform="translate(29.4450590027559,98.1483587800207)" d="M5,0A5,5,0,1,1,-5,0A5,5,0,1,1,5,0" fill="rgb(56, 60, 59)" stroke="white" stroke-width="1" opacity="1"/><path transform="translate(82.28991353334082,84.81805044499352)" d="M5,0A5,5,0,1,1,-5,0A5,5,0,1,1,5,0" fill="rgb(24, 94, 73)" stroke="white" stroke-width="1" opacity="1"/><path transform="translate(86.25033524101707,52.36884583927321)" d="M5,0A5,5,0,1,1,-5,0A5,5,0,1,1,5,0" fill="rgb(83, 163, 66)" stroke="white" stroke-width="1" opacity="1"/><path transform="translate(50.86673382675587,9.452977895647162)" d="M5,0A5,5,0,1,1,-5,0A5,5,0,1,1,5,0" fill="rgb(255, 238, 62)" stroke="white" stroke-width="1" opacity="1"/><path transform="translate(4.774025590367936,70.40799597117122)" d="M5,0A5,5,0,1,1,-5,0A5,5,0,1,1,5,0" fill="rgb(2, 126, 71)" stroke="white" stroke-width="1" opacity="1"/><path transform="translate(97.4227866248907,25.972401321651127)" d="M5,0A5,5,0,1,1,-5,0A5,5,0,1,1,5,0" fill="rgb(194, 209, 57)" stroke="white" stroke-width="1" opacity="1"/><path transform="translate(87.29563726860108,48.89679129757879)" d="M5,0A5,5,0,1,1,-5,0A5,5,0,1,1,5,0" fill="rgb(97, 170, 65)" stroke="white" stroke-width="1" opacity="1"/></g></g><path class="foreground" aria-hidden="true" d="" display="none"/></g></g><g class="mark-group role-legend" role="graphics-symbol" aria-roledescription="legend" aria-label="Gradient legend titled 'y' for fill color with values from 0.0 to 1.0"><g transform="translate(124,0)"><path class="background" aria-hidden="true" d="M0,0h28v96h-28Z" pointer-events="none"/><g><g class="mark-group role-legend-entry"><g transform="translate(0,16)"><path class="background" aria-hidden="true" d="M0,0h0v0h0Z" pointer-events="none"/><g><g class="mark-rect role-legend-gradient" pointer-events="none"><path d="M0,0h10v80h-10Z" fill="url(#gradient_0)" stroke="#ddd" stroke-width="0" opacity="1"/></g><g class="mark-text role-legend-label" pointer-events="none"><text text-anchor="start" transform="translate(12,78)" font-family="sans-serif" font-size="10px" font-style="normal" font-weight="400" fill="#000" opacity="1">0.0</text><text text-anchor="start" transform="translate(12,8)" font-family="sans-serif" font-size="10px" font-style="normal" font-weight="400" fill="#000" opacity="1">1.0</text></g></g><path class="foreground" aria-hidden="true" d="" pointer-events="none" display="none"/></g></g><g class="mark-text role-legend-title" pointer-events="none"><text text-anchor="start" transform="translate(0,9)" font-family="sans-serif" font-size="11px" font-style="normal" font-weight="400" fill="#000" opacity="1">y</text></g></g><path class="foreground" aria-hidden="true" d="" pointer-events="none" display="none"/></g></g></g><path class="foreground" aria-hidden="true" d="" display="none"/></g></g></g><defs><linearGradient id="gradient_0" x1="0" x2="0" y1="1" y2="0"><stop offset="0" stop-color="rgb(58, 58, 58)"/><stop offset="0.038615422572000804" stop-color="rgb(49, 68, 63)"/><stop offset="0.08924068505898453" stop-color="rgb(38, 81, 69)"/><stop offset="0.13986594754596823" stop-color="rgb(24, 93, 73)"/><stop offset="0.190491210032952" stop-color="rgb(9, 104, 76)"/><stop offset="0.2411164725199357" stop-color="rgb(1, 115, 75)"/><stop offset="0.2917417350069194" stop-color="rgb(3, 127, 70)"/><stop offset="0.3423669974939031" stop-color="rgb(10, 139, 66)"/><stop offset="0.3929922599808869" stop-color="rgb(41, 148, 66)"/><stop offset="0.4436175224678706" stop-color="rgb(71, 158, 66)"/><stop offset="0.4942427849548543" stop-color="rgb(93, 167, 65)"/><stop offset="0.544868047441838" stop-color="rgb(114, 177, 64)"/><stop offset="0.5954933099288218" stop-color="rgb(135, 186, 63)"/><stop offset="0.6461185724158055" stop-color="rgb(157, 194, 62)"/><stop offset="0.6967438349027891" stop-color="rgb(178, 203, 59)"/><stop offset="0.7473690973897729" stop-color="rgb(198, 211, 56)"/><stop offset="0.7979943598767567" stop-color="rgb(218, 219, 52)"/><stop offset="0.8486196223637403" stop-color="rgb(239, 228, 48)"/><stop offset="0.8992448848507241" stop-color="rgb(255, 237, 56)"/><stop offset="0.9498701473377078" stop-color="rgb(255, 246, 113)"/><stop offset="1" stop-color="rgb(255, 255, 170)"/></linearGradient></defs></svg>