<svg xmlns="http://www.w3.org/2000/svg" xmlns:xlink="http://www.w3.org/1999/xlink" version="1.1" class="marks" width="146" height="137" viewBox="0 0 146 137"><rect width="146" height="137" fill="white"/><g fill="none" stroke-miterlimit="10" transform="translate(38,5)"><g class="mark-group role-frame root" role="graphics-object" aria-roledescription="group mark container"><g transform="translate(0,0)"><path class="background" aria-hidden="true" d="M0,0h100v100h-100Z"/><g><g class="mark-group role-axis" role="graphics-symbol" aria-roledescription="axis" aria-label="X-axis titled 'x' for a linear scale with values from 0.0 to 1.0"><g transform="translate(0.5,100.5)"><path class="background" aria-hidden="true" d="M0,0h0v0h0Z" pointer-events="none"/><g><g class="mark-rule role-axis-tick" pointer-events="none"><line transform="translate(0,0)" x2="0" y2="5" stroke="black" stroke-width="1.01" opacity="1"/><line transform="translate(50,0)" x2="0" y2="5" stroke="black" stroke-width="1.01" opacity="1"/><line transform="translate(100,0)" x2="0" y2="5" stroke="black" stroke-width="1.01" opacity="1"/></g><g class="mark-text role-axis-label" pointer-events="none"><text text-anchor="middle" transform="translate(0,15)" font-family="sans-serif" font-size="10px" font-style="normal" font-weight="400" fill="black" opacity="1">0.0</text><text text-anchor="middle" transform="translate(50,15)" font-family="sans-serif" font-size="10px" font-style="normal" font-weight="400" fill="black" opacity="1">0.5</text><text text-anchor="middle" transform="translate(100,15)" font-family="sans-serif" font-size="10px" font-style="normal" font-weight="400" fill="black" opacity="1">1.0</text></g><g class="mark-rule role-axis-domain" pointer-events="none"><line transform="translate(0,0)" x2="100" y2="0" stroke="black" stroke-width="1.01" opacity="1"/></g><g class="mark-text role-axis-title" pointer-events="none"><text text-anchor="middle" transform="translate(50,30)" font-family="sans-serif" font-size="11px" font-style="normal" font-weight="400" fill="black" opacity="1">x</text></g></g><path class="foreground" aria-hidden="true" d="" pointer-events="none" display="none"/></g></g><g class="mark-group role-axis" role="graphics-symbol" aria-roledescription="axis" aria-label="Y-axis titled 'y' for a linear scale with values from 0.0 to 1.0"><g transform="translate(0.5,0.5)"><path class="background" aria-hidden="true" d="M0,0h0v0h0Z" pointer-events="none"/><g><g class="mark-rule role-axis-tick" pointer-events="none"><line transform="translate(0,100)" x2="-5" y2="0" stroke="black" stroke-width="1.01" opacity="1"/><line transform="translate(0,50)" x2="-5" y2="0" stroke="black" stroke-width="1.01" opacity="1"/><line transform="translate(0,0)" x2="-5" y2="0" stroke="black" stroke-width="1.01" opacity="1"/></g><g class="mark-text role-axis-label" pointer-events="none"><text text-anchor="end" transform="translate(-7,103)" font-family="sans-serif" font-size="10px" font-style="normal" font-weight="400" fill="black" opacity="1">0.0</text><text text-anchor="end" transform="translate(-7,53)" font-family="sans-serif" font-size="10px" font-style="normal" font-weight="400" fill="black" opacity="1">0.5</text><text text-anchor="end" transform="translate(-7,3)" font-family="sans-serif" font-size="10px" font-style="normal" font-weight="400" fill="black" opacity="1">1.0</text></g><g class="mark-rule role-axis-domain" pointer-events="none"><line transform="translate(0,100)" x2="0" y2="-100" stroke="black" stroke-width="1.01" opacity="1"/></g><g class="mark-text role-axis-title" pointer-events="none"><text text-anchor="middle" transform="translate(-26.9033203125,50) rotate(-90) translate(0,-2)" font-family="sans-serif" font-size="11px" font-style="normal" font-weight="400" fill="black" opacity="1">y</text></g></g><path class="foreground" aria-hidden="true" d="" pointer-events="none" display="none"/></g></g><g class="mark-group role-scope" clip-path="url(#clip1)" role="graphics-object" aria-roledescription="group mark container"><g transform="translate(0,0)"><path class="background" aria-hidden="true" d="M0,0h0v0h0Z"/><g><g class="mark-symbol role-mark points" role="graphics-symbol" aria-roledescription="symbol mark container"><path transform="translate(62.62001399837306,33.940926125928115)" d="M3.536,0A3.536,3.536,0,1,1,-3.536,0A3.536,3.536,0,1,1,3.536,0" fill="white" stroke="steelblue" stroke-width="1" opacity="1"/><path transform="translate(15.42249137337144,75.42664109595675)" d="M3.536,0A3.536,3.536,0,1,1,-3.536,0A3.536,3.536,0,1,1,3.536,0" fill="white" stroke="steelblue" stroke-width="1" opacity="1"/><path transform="translate(30.27383474732277,71.34607982652767)" d="M3.536,0A3.536,3.536,0,1,1,-3.536,0A3.536,3.536,0,1,1,3.536,0" fill="white" stroke="steelblue" stroke-width="1" opacity="1"/><path transform="translate(23.097027312891438,72.66100314951976)" d="M3.536,0A3.536,3.536,0,1,1,-3.536,0A3.536,3.536,0,1,1,3.536,0" fill="white" stroke="steelblue" stroke-width="1" opacity="1"/><path transform="translate(21.94449538908173,90.66546916093728)" d="M3.536,0A3.536,3.536,0,1,1,-3.536,0A3.536,3.536,0,1,1,3.536,0" fill="white" stroke="steelblue" stroke-width="1" opacity="1"/><path transform="translate(84.10755616945116,57.871022431684196)" d="M3.536,0A3.536,3.536,0,1,1,-3.536,0A3.536,3.536,0,1,1,3.536,0" fill="white" stroke="steelblue" stroke-width="1" opacity="1"/><path transform="translate(42.12847285818901,11.36159202705469)" d="M3.536,0A3.536,3.536,0,1,1,-3.536,0A3.536,3.536,0,1,1,3.536,0" fill="white" stroke="steelblue" stroke-width="1" opacity="1"/><path transform="translate(15.110400541128522,49.219068248299415)" d="M3.536,0A3.536,3.536,0,1,1,-3.536,0A3.536,3.536,0,1,1,3.536,0" fill="white" stroke="steelblue" stroke-width="1" opacity="1"/><path transform="translate(96.39432028123822,14.408627473778957)" d="M3.536,0A3.536,3.536,0,1,1,-3.536,0A3.536,3.536,0,1,1,3.536,0" fill="white" stroke="steelblue" stroke-width="1" opacity="1"/><path transform="translate(9.878574960283137,69.19640744505074)" d="M3.536,0A3.536,3.536,0,1,1,-3.536,0A3.536,3.536,0,1,1,3.536,0" fill="white" stroke="steelblue" stroke-width="1" opacity="1"/><path transform="translate(66.05873432381587,46.340167891648456)" d="M3.536,0A3.536,3.536,0,1,1,-3.536,0A3.536,3.536,0,1,1,3.536,0" fill="white" stroke="steelblue" stroke-width="1" opacity="1"/><path transform="translate(50.81721294584048,39.62666351919732)" d="M3.536,0A3.536,3.536,0,1,1,-3.536,0A3.536,3.536,0,1,1,3.536,0" fill="white" stroke="steelblue" stroke-width="1" opacity="1"/><path transform="translate(55.48776131138777,80.09382905552454)" d="M3.536,0A3.536,3.536,0,1,1,-3.536,0A3.536,3.536,0,1,1,3.536,0" fill="white" stroke="steelblue" stroke-width="1" opacity="1"/><path transform="translate(24.47943935615433,45.68213021013337)" d="M3.536,0A3.536,3.536,0,1,1,-3.536,0A3.536,3.536,0,1,1,3.536,0" fill="white" stroke="steelblue" stroke-width="1" opacity="1"/><path transform="translate(31.632103089272235,74.40436389519188)" d="M3.536,0A3.536,3.536,0,1,1,-3.536,0A3.536,3.536,0,1,1,3.536,0" fill="white" stroke="steelblue" stroke-width="1" opacity="1"/><path transform="translate(71.96145392103976,32.78891291856594)" d="M3.536,0A3.536,3.536,0,1,1,-3.536,0A3.536,3.536,0,1,1,3.536,0" fill="white" stroke="steelblue" stroke-width="1" opacity="1"/><path transform="translate(9.091594378461899,10.480904393554303)" d="M3.536,0A3.536,3.536,0,1,1,-3.536,0A3.536,3.536,0,1,1,3.536,0" fill="white" stroke="steelblue" stroke-width="1" opacity="1"/><path transform="translate(87.36264661231769,99.6680860878167)" d="M3.536,0A3.536,3.536,0,1,1,-3.536,0A3.536,3.536,0,1,1,3.536,0" fill="white" stroke="steelblue" stroke-width="1" opacity="1"/><path transform="translate(85.91088775944338,58.73556349439987)" d="M3.536,0A3.536,3.536,0,1,1,-3.536,0A3.536,3.536,0,1,1,3.536,0" fill="white" stroke="steelblue" stroke-width="1" opacity="1"/><path transform="translate(26.583157409754442,45.881744413427796)" d="M3.536,0A3.536,3.536,0,1,1,-3.536,0A3.536,3.536,0,1,1,3.536,0" fill="white" stroke="steelblue" stroke-width="1" opacity="1"/><path transform="translate(82.1996850625128,33.288365932592)" d="M3.536,0A3.536,3.536,0,1,1,-3.536,0A3.536,3.536,0,1,1,3.536,0" fill="white" stroke="steelblue" stroke-width="1" opacity="1"/><path transform="translate(52.7936136068731,69.05922501005189)" d="M3.536,0A3.536,3.536,0,1,1,-3.536,0A3.536,3.536,0,1,1,3.536,0" fill="white" stroke="steelblue" stroke-width="1" opacity="1"/><path transform="translate(13.933941248166647,4.26629690939313)" d="M3.536,0A3.536,3.536,0,1,1,-3.536,0A3.536,3.536,0,1,1,3.536,0" fill="white" stroke="steelblue" stroke-width="1" opacity="1"/><path transform="translate(79.6438900160707,18.3928513381578)" d="M3.536,0A3.536,3.536,0,1,1,-3.536,0A3.536,3.536,0,1,1,3.536,0" fill="white" stroke="steelblue" stroke-width="1" opacity="1"/><path transform="translate(50.04607859632624,56.90737856377419)" d="M3.536,0A3.536,3.536,0,1,1,-3.536,0A3.536,3.536,0,1,1,3.536,0" fill="white" stroke="steelblue" stroke-width="1" opacity="1"/><path transform="translate(55.343707483625145,42.6839010742161)" d="M3.536,0A3.536,3.536,0,1,1,-3.536,0A3.536,3.536,0,1,1,3.536,0" fill="white" stroke="steelblue" stroke-width="1" opacity="1"/><path transform="translate(4.0192960374264235,56.447280190636896)" d="M3.536,0A3.536,3.536,0,1,1,-3.536,0A3.536,3.536,0,1,1,3.536,0" fill="white" stroke="steelblue" stroke-width="1" opacity="1"/><path transform="translate(84.0899610050058,96.01199566106877)" d="M3.536,0A3.536,3.536,0,1,1,-3.536,0A3.536,3.536,0,1,1,3.536,0" fill="white" stroke="steelblue" stroke-width="1" opacity="1"/><path transform="translate(72.67346989894087,54.790144053008795)" d="M3.536,0A3.536,3.536,0,1,1,-3.536,0A3.536,3.536,0,1,1,3.536,0" fill="white" stroke="steelblue" stroke-width="1" opacity="1"/><path transform="translate(9.326879615313056,64.46175134329938)" d="M3.536,0A3.536,3.536,0,1,1,-3.536,0A3.536,3.536,0,1,1,3.536,0" fill="white" stroke="steelblue" stroke-width="1" opacity="1"/><path transform="translate(4.2333579906852155,52.57566520180471)" d="M3.536,0A3.536,3.536,0,1,1,-3.536,0A3.536,3.536,0,1,1,3.536,0" fill="white" stroke="steelblue" stroke-width="1" opacity="1"/><path transform="translate(21.160911703961627,25.374805594189997)" d="M3.536,0A3.536,3.536,0,1,1,-3.536,0A3.536,3.536,0,1,1,3.536,0" fill="white" stroke="steelblue" stroke-width="1" opacity="1"/><path transform="translate(16.373897002617845,93.88531381538172)" d="M3.536,0A3.536,3.536,0,1,1,-3.536,0A3.536,3.536,0,1,1,3.536,0" fill="white" stroke="steelblue" stroke-width="1" opacity="1"/><path transform="translate(24.998576059198584,50.93100552439371)" d="M3.536,0A3.536,3.536,0,1,1,-3.536,0A3.536,3.536,0,1,1,3.536,0" fill="white" stroke="steelblue" stroke-width="1" opacity="1"/><path transform="translate(71.30440989797742,28.56849629882309)" d="M3.536,0A3.536,3.536,0,1,1,-3.536,0A3.536,3.536,0,1,1,3.536,0" fill="white" stroke="steelblue" stroke-width="1" opacity="1"/><path transform="translate(2.4427974191683743,77.88679578163492)" d="M3.536,0A3.536,3.536,0,1,1,-3.536,0A3.536,3.536,0,1,1,3.536,0" fill="white" stroke="steelblue" stroke-width="1" opacity="1"/><path transform="translate(33.63730625192992,47.28227665377682)" d="M3.536,0A3.536,3.536,0,1,1,-3.536,0A3.536,3.536,0,1,1,3.536,0" fill="white" stroke="steelblue" stroke-width="1" opacity="1"/><path transform="translate(75.13898156050698,21.77306594707783)" d="M3.536,0A3.536,3.536,0,1,1,-3.536,0A3.536,3.536,0,1,1,3.536,0" fill="white" stroke="steelblue" stroke-width="1" opacity="1"/><path transform="translate(20.98424955620225,88.47030737253333)" d="M3.536,0A3.536,3.536,0,1,1,-3.536,0A3.536,3.536,0,1,1,3.536,0" fill="white" stroke="steelblue" stroke-width="1" opacity="1"/><path transform="translate(59.45638417653099,61.37935147467378)" d="M3.536,0A3.536,3.536,0,1,1,-3.536,0A3.536,3.536,0,1,1,3.536,0" fill="white" stroke="steelblue" stroke-width="1" opacity="1"/><path transform="translate(69.35369309876349,11.443236213941999)" d="M3.536,0A3.536,3.536,0,1,1,-3.536,0A3.536,3.536,0,1,1,3.536,0" fill="white" stroke="steelblue" stroke-width="1" opacity="1"/><path transform="translate(13.366609378277317,77.97799430360882)" d="M3.536,0A3.536,3.536,0,1,1,-3.536,0A3.536,3.536,0,1,1,3.536,0" fill="white" stroke="steelblue" stroke-width="1" opacity="1"/><path transform="translate(33.07054754974569,78.75554463482514)" d="M3.536,0A3.536,3.536,0,1,1,-3.536,0A3.536,3.536,0,1,1,3.536,0" fill="white" stroke="steelblue" stroke-width="1" opacity="1"/><path transform="translate(19.97022727540678,54.845356457315184)" d="M3.536,0A3.536,3.536,0,1,1,-3.536,0A3.536,3.536,0,1,1,3.536,0" fill="white" stroke="steelblue" stroke-width="1" opacity="1"/><path transform="translate(27.464105930790637,98.13681859739519)" d="M3.536,0A3.536,3.536,0,1,1,-3.536,0A3.536,3.536,0,1,1,3.536,0" fill="white" stroke="steelblue" stroke-width="1" opacity="1"/><path transform="translate(46.532735977789464,46.562898533571726)" d="M3.536,0A3.536,3.536,0,1,1,-3.536,0A3.536,3.536,0,1,1,3.536,0" fill="white" stroke="steelblue" stroke-width="1" opacity="1"/><path transform="translate(25.090798971591475,58.403318182056516)" d="M3.536,0A3.536,3.536,0,1,1,-3.536,0A3.536,3.536,0,1,1,3.536,0" fill="white" stroke="steelblue" stroke-width="1" opacity="1"/><path transform="translate(17.17651221358507,76.1058272351027)" d="M3.536,0A3.536,3.536,0,1,1,-3.536,0A3.536,3.536,0,1,1,3.536,0" fill="white" stroke="steelblue" stroke-width="1" opacity="1"/><path transform="translate(90.26677344208359,23.389557639756475)" d="M3.536,0A3.536,3.536,0,1,1,-3.536,0A3.536,3.536,0,1,1,3.536,0" fill="white" stroke="steelblue" stroke-width="1" opacity="1"/><path transform="translate(40.08846541968797,25.81045366534053)" d="M3.536,0A3.536,3.536,0,1,1,-3.536,0A3.536,3.536,0,1,1,3.536,0" fill="white" stroke="steelblue" stroke-width="1" opacity="1"/><path transform="translate(31.49007289603405,54.172413756508554)" d="M3.536,0A3.536,3.536,0,1,1,-3.536,0A3.536,3.536,0,1,1,3.536,0" fill="white" stroke="steelblue" stroke-width="1" opacity="1"/><path transform="translate(94.7259553171098,16.763206061567317)" d="M3.536,0A3.536,3.536,0,1,1,-3.536,0A3.536,3.536,0,1,1,3.536,0" fill="white" stroke="steelblue" stroke-width="1" opacity="1"/><path transform="translate(24.44204377227034,89.24081076634205)" d="M3.536,0A3.536,3.536,0,1,1,-3.536,0A3.536,3.536,0,1,1,3.536,0" fill="white" stroke="steelblue" stroke-width="1" opacity="1"/><path transform="translate(24.70755123185605,81.61793987132647)" d="M3.536,0A3.536,3.536,0,1,1,-3.536,0A3.536,3.536,0,1,1,3.536,0" fill="white" stroke="steelblue" stroke-width="1" opacity="1"/><path transform="translate(59.848520574792666,12.590003992642185)" d="M3.536,0A3.536,3.536,0,1,1,-3.536,0A3.536,3.536,0,1,1,3.536,0" fill="white" stroke="steelblue" stroke-width="1" opacity="1"/><path transform="translate(18.241588674294253,13.70147887395914)" d="M3.536,0A3.536,3.536,0,1,1,-3.536,0A3.536,3.536,0,1,1,3.536,0" fill="white" stroke="steelblue" stroke-width="1" opacity="1"/><path transform="translate(10.214409164832439,14.780262029097003)" d="M3.536,0A3.536,3.536,0,1,1,-3.536,0A3.536,3.536,0,1,1,3.536,0" fill="white" stroke="steelblue" stroke-width="1" opacity="1"/><path transform="translate(84.78883607661878,22.681828737598263)" d="M3.536,0A3.536,3.536,0,1,1,-3.536,0A3.536,3.536,0,1,1,3.536,0" fill="white" stroke="steelblue" stroke-width="1" opacity="1"/><path transform="translate(38.44053996905882,22.405832988398423)" d="M3.536,0A3.536,3.536,0,1,1,-3.536,0A3.536,3.536,0,1,1,3.536,0" fill="white" stroke="steelblue" stroke-width="1" opacity="1"/><path transform="translate(51.480766763322194,42.65979252567384)" d="M3.536,0A3.536,3.536,0,1,1,-3.536,0A3.536,3.536,0,1,1,3.536,0" fill="white" stroke="steelblue" stroke-width="1" opacity="1"/><path transform="translate(96.94559946720611,36.20335831188979)" d="M3.536,0A3.536,3.536,0,1,1,-3.536,0A3.536,3.536,0,1,1,3.536,0" fill="white" stroke="steelblue" stroke-width="1" opacity="1"/><path transform="translate(17.243883550900343,46.49318550038717)" d="M3.536,0A3.536,3.536,0,1,1,-3.536,0A3.536,3.536,0,1,1,3.536,0" fill="white" stroke="steelblue" stroke-width="1" opacity="1"/><path transform="translate(7.169843270081532,31.0686985242552)" d="M3.536,0A3.536,3.536,0,1,1,-3.536,0A3.536,3.536,0,1,1,3.536,0" fill="white" stroke="steelblue" stroke-width="1" opacity="1"/><path transform="translate(96.63480638214513,43.13937816585008)" d="M3.536,0A3.536,3.536,0,1,1,-3.536,0A3.536,3.536,0,1,1,3.536,0" fill="white" stroke="steelblue" stroke-width="1" opacity="1"/><path transform="translate(41.843719580742324,18.297923347263236)" d="M3.536,0A3.536,3.536,0,1,1,-3.536,0A3.536,3.536,0,1,1,3.536,0" fill="white" stroke="steelblue" stroke-width="1" opacity="1"/><path transform="translate(45.97746101503598,37.65025821140044)" d="M3.536,0A3.536,3.536,0,1,1,-3.536,0A3.536,3.536,0,1,1,3.536,0" fill="white" stroke="steelblue" stroke-width="1" opacity="1"/><path transform="translate(38.28118440580437,79.64552650676079)" d="M3.536,0A3.536,3.536,0,1,1,-3.536,0A3.536,3.536,0,1,1,3.536,0" fill="white" stroke="steelblue" stroke-width="1" opacity="1"/><path transform="translate(97.5375401945059,87.12618726278657)" d="M3.536,0A3.536,3.536,0,1,1,-3.536,0A3.536,3.536,0,1,1,3.536,0" fill="white" stroke="steelblue" stroke-width="1" opacity="1"/><path transform="translate(11.772326044494651,91.39424623619095)" d="M3.536,0A3.536,3.536,0,1,1,-3.536,0A3.536,3.536,0,1,1,3.536,0" fill="white" stroke="steelblue" stroke-width="1" opacity="1"/><path transform="translate(9.680217512521317,94.23017284253801)" d="M3.536,0A3.536,3.536,0,1,1,-3.536,0A3.536,3.536,0,1,1,3.536,0" fill="white" stroke="steelblue" stroke-width="1" opacity="1"/><path transform="translate(14.01554253856795,95.97130119163214)" d="M3.536,0A3.536,3.536,0,1,1,-3.536,0A3.536,3.536,0,1,1,3.536,0" fill="white" stroke="steelblue" stroke-width="1" opacity="1"/><path transform="translate(38.0829931904738,33.16402202581652)" d="M3.536,0A3.536,3.536,0,1,1,-3.536,0A3.536,3.536,0,1,1,3.536,0" fill="white" stroke="steelblue" stroke-width="1" opacity="1"/><path transform="translate(70.55525778905344,2.755912032039176)" d="M3.536,0A3.536,3.536,0,1,1,-3.536,0A3.536,3.536,0,1,1,3.536,0" fill="white" stroke="steelblue" stroke-width="1" opacity="1"/><path transform="translate(43.138540628613555,34.899694346820056)" d="M3.536,0A3.536,3.536,0,1,1,-3.536,0A3.536,3.536,0,1,1,3.536,0" fill="white" stroke="steelblue" stroke-width="1" opacity="1"/><path transform="translate(46.718765119339686,69.7820149546996)" d="M3.536,0A3.536,3.536,0,1,1,-3.536,0A3.536,3.536,0,1,1,3.536,0" fill="white" stroke="steelblue" stroke-width="1" opacity="1"/><path transform="translate(60.38773563448684,41.2870898368485)" d="M3.536,0A3.536,3.536,0,1,1,-3.536,0A3.536,3.536,0,1,1,3.536,0" fill="white" stroke="steelblue" stroke-width="1" opacity="1"/><path transform="translate(49.62355117942716,47.22169718979815)" d="M3.536,0A3.536,3.536,0,1,1,-3.536,0A3.536,3.536,0,1,1,3.536,0" fill="white" stroke="steelblue" stroke-width="1" opacity="1"/><path transform="translate(86.91951027571625,49.896718602254985)" d="M3.536,0A3.536,3.536,0,1,1,-3.536,0A3.536,3.536,0,1,1,3.536,0" fill="white" stroke="steelblue" stroke-width="1" opacity="1"/><path transform="translate(36.34866029980175,97.83460444434118)" d="M3.536,0A3.536,3.536,0,1,1,-3.536,0A3.536,3.536,0,1,1,3.536,0" fill="white" stroke="steelblue" stroke-width="1" opacity="1"/><path transform="translate(88.00216423125084,40.839504568572295)" d="M3.536,0A3.536,3.536,0,1,1,-3.536,0A3.536,3.536,0,1,1,3.536,0" fill="white" stroke="steelblue" stroke-width="1" opacity="1"/><path transform="translate(11.44199467010375,89.35695077214513)" d="M3.536,0A3.536,3.536,0,1,1,-3.536,0A3.536,3.536,0,1,1,3.536,0" fill="white" stroke="steelblue" stroke-width="1" opacity="1"/><path transform="translate(49.99784617384068,11.319721232145142)" d="M3.536,0A3.536,3.536,0,1,1,-3.536,0A3.536,3.536,0,1,1,3.536,0" fill="white" stroke="steelblue" stroke-width="1" opacity="1"/><path transform="translate(44.105275383651055,29.9111642863899)" d="M3.536,0A3.536,3.536,0,1,1,-3.536,0A3.536,3.536,0,1,1,3.536,0" fill="white" stroke="steelblue" stroke-width="1" opacity="1"/><path transform="translate(55.640204305603916,74.73414745909446)" d="M3.536,0A3.536,3.536,0,1,1,-3.536,0A3.536,3.536,0,1,1,3.536,0" fill="white" stroke="steelblue" stroke-width="1" opacity="1"/><path transform="translate(69.31189349785434,27.70362883171832)" d="M3.536,0A3.536,3.536,0,1,1,-3.536,0A3.536,3.536,0,1,1,3.536,0" fill="white" stroke="steelblue" stroke-width="1" opacity="1"/><path transform="translate(82.16748832479935,86.56593238534089)" d="M3.536,0A3.536,3.536,0,1,1,-3.536,0A3.536,3.536,0,1,1,3.536,0" fill="white" stroke="steelblue" stroke-width="1" opacity="1"/><path transform="translate(30.999037039225453,7.1636539972997015)" d="M3.536,0A3.536,3.536,0,1,1,-3.536,0A3.536,3.536,0,1,1,3.536,0" fill="white" stroke="steelblue" stroke-width="1" opacity="1"/><path transform="translate(43.89562835377851,71.32076858093285)" d="M3.536,0A3.536,3.536,0,1,1,-3.536,0A3.536,3.536,0,1,1,3.536,0" fill="white" stroke="steelblue" stroke-width="1" opacity="1"/><path transform="translate(5.28974836171553,26.62149933683834)" d="M3.536,0A3.536,3.536,0,1,1,-3.536,0A3.536,3.536,0,1,1,3.536,0" fill="white" stroke="steelblue" stroke-width="1" opacity="1"/><path transform="translate(70.31877494765226,19.944470351333933)" d="M3.536,0A3.536,3.536,0,1,1,-3.536,0A3.536,3.536,0,1,1,3.536,0" fill="white" stroke="steelblue" stroke-width="1" opacity="1"/><path transform="translate(2.6750815206177725,20.651426300092712)" d="M3.536,0A3.536,3.536,0,1,1,-3.536,0A3.536,3.536,0,1,1,3.536,0" fill="white" stroke="steelblue" stroke-width="1" opacity="1"/><path transform="translate(7.428377679704578,74.26620215350881)" d="M3.536,0A3.536,3.536,0,1,1,-3.536,0A3.536,3.536,0,1,1,3.536,0" fill="white" stroke="steelblue" stroke-width="1" opacity="1"/><path transform="translate(13.806324131888148,17.90068894998211)" d="M3.536,0A3.536,3.536,0,1,1,-3.536,0A3.536,3.536,0,1,1,3.536,0" fill="white" stroke="steelblue" stroke-width="1" opacity="1"/><path transform="translate(5.17927231928107,33.11421244724971)" d="M3.536,0A3.536,3.536,0,1,1,-3.536,0A3.536,3.536,0,1,1,3.536,0" fill="white" stroke="steelblue" stroke-width="1" opacity="1"/><path transform="translate(48.28994057768401,65.97326618514924)" d="M3.536,0A3.536,3.536,0,1,1,-3.536,0A3.536,3.536,0,1,1,3.536,0" fill="white" stroke="steelblue" stroke-width="1" opacity="1"/><path transform="translate(84.72460224841565,4.9273964210298615)" d="M3.536,0A3.536,3.536,0,1,1,-3.536,0A3.536,3.536,0,1,1,3.536,0" fill="white" stroke="steelblue" stroke-width="1" opacity="1"/><path transform="translate(73.62829381982652,91.5530729433436)" d="M3.536,0A3.536,3.536,0,1,1,-3.536,0A3.536,3.536,0,1,1,3.536,0" fill="white" stroke="steelblue" stroke-width="1" opacity="1"/><path transform="translate(50.007192303629985,99.7889473624218)" d="M3.536,0A3.536,3.536,0,1,1,-3.536,0A3.536,3.536,0,1,1,3.536,0" fill="white" stroke="steelblue" stroke-width="1" opacity="1"/><path transform="translate(54.819689332732246,13.607314404088388)" d="M3.536,0A3.536,3.536,0,1,1,-3.536,0A3.536,3.536,0,1,1,3.536,0" fill="white" stroke="steelblue" stroke-width="1" opacity="1"/><path transform="translate(26.2271807888519,37.689585015550165)" d="M3.536,0A3.536,3.536,0,1,1,-3.536,0A3.536,3.536,0,1,1,3.536,0" fill="white" stroke="steelblue" stroke-width="1" opacity="1"/></g></g><path class="foreground" aria-hidden="true" d="" display="none"/></g></g></g><path class="foreground" aria-hidden="true" d="" display="none"/></g></g></g><defs><clipPath id="clip1"><rect x="0" y="0" width="100" height="100"/></clipPath></defs></svg>