<svg xmlns="http://www.w3.org/2000/svg" xmlns:xlink="http://www.w3.org/1999/xlink" version="1.1" class="marks" width="122" height="122" viewBox="0 0 122 122"><rect width="122" height="122" fill="white"/><g fill="none" stroke-miterlimit="10" transform="translate(21,5)"><g class="mark-group role-frame root" role="graphics-object" aria-roledescription="group mark container"><g transform="translate(0,0)"><path class="background" aria-hidden="true" d="M0,0h100v100h-100Z"/><g><g class="mark-group role-axis" role="graphics-symbol" aria-roledescription="axis" aria-label="X-axis for a discrete scale with 1 value: variable(s)"><g transform="translate(0.5,100.5)"><path class="background" aria-hidden="true" d="M0,0h0v0h0Z" pointer-events="none"/><g><g class="mark-rule role-axis-tick" pointer-events="none"><line transform="translate(50,0)" x2="0" y2="5" stroke="white" stroke-width="1.01" opacity="1"/></g><g class="mark-text role-axis-label" pointer-events="none"><text text-anchor="middle" transform="translate(49.5,15)" font-family="sans-serif" font-size="10px" font-style="normal" font-weight="400" fill="black" opacity="1">variable(s)</text></g></g><path class="foreground" aria-hidden="true" d="" pointer-events="none" display="none"/></g></g><g class="mark-group role-axis" role="graphics-symbol" aria-roledescription="axis" aria-label="Y-axis for a linear scale with values from −3 to 4"><g transform="translate(0.5,0.5)"><path class="background" aria-hidden="true" d="M0,0h0v0h0Z" pointer-events="none"/><g><g class="mark-rule role-axis-tick" pointer-events="none"><line transform="translate(0,86)" x2="-5" y2="0" stroke="white" stroke-width="1.01" opacity="1"/><line transform="translate(0,57)" x2="-5" y2="0" stroke="white" stroke-width="1.01" opacity="1"/><line transform="translate(0,29)" x2="-5" y2="0" stroke="white" stroke-width="1.01" opacity="1"/><line transform="translate(0,0)" x2="-5" y2="0" stroke="white" stroke-width="1.01" opacity="1"/></g><g class="mark-text role-axis-label" pointer-events="none"><text text-anchor="end" transform="translate(-7,88.71428571428572)" font-family="sans-serif" font-size="10px" font-style="normal" font-weight="400" fill="white" opacity="1">−2</text><text text-anchor="end" transform="translate(-7,60.14285714285714)" font-family="sans-serif" font-size="10px" font-style="normal" font-weight="400" fill="white" opacity="1">0</text><text text-anchor="end" transform="translate(-7,31.57142857142857)" font-family="sans-serif" font-size="10px" font-style="normal" font-weight="400" fill="white" opacity="1">2</text><text text-anchor="end" transform="translate(-7,3)" font-family="sans-serif" font-size="10px" font-style="normal" font-weight="400" fill="white" opacity="1">4</text></g></g><path class="foreground" aria-hidden="true" d="" pointer-events="none" display="none"/></g></g><g class="mark-group role-scope" role="graphics-object" aria-roledescription="group mark container"><g transform="translate(0,0)"><path class="background" aria-hidden="true" d="M0,0h0v0h0Z"/><g><g class="mark-rect role-mark" role="graphics-symbol" aria-roledescription="rect mark container"><path d="M0,49.07862314635456h24.050632911392405v17.09985714382975h-24.050632911392405Z" fill="#4c78a8" stroke="white" stroke-width="1" opacity="1"/><path d="M25.31645569620253,44.67918479865515h24.050632911392405v22.097000905037838h-24.050632911392405Z" fill="#f58518" stroke="white" stroke-width="1" opacity="1"/><path d="M50.63291139240506,47.622840163847854h24.050632911392405v20.827995056212387h-24.050632911392405Z" fill="#e45756" stroke="white" stroke-width="1" opacity="1"/><path d="M75.9493670886076,47.98260254887505h24.050632911392405v19.41307871010018h-24.050632911392405Z" fill="#72b7b2" stroke="white" stroke-width="1" opacity="1"/></g><g class="mark-rule role-mark" role="graphics-symbol" aria-roledescription="rule mark container"><line transform="translate(0,56.34049043421688)" x2="24.050632911392405" y2="0" fill="#4c78a8" stroke="white" stroke-width="1" opacity="1"/><line transform="translate(25.31645569620253,54.554206229415094)" x2="24.050632911392405" y2="0" fill="#f58518" stroke="white" stroke-width="1" opacity="1"/><line transform="translate(50.63291139240506,57.74566984388416)" x2="24.050632911392412" y2="0" fill="#e45756" stroke="white" stroke-width="1" opacity="1"/><line transform="translate(75.9493670886076,59.62110823004559)" x2="24.0506329113924" y2="0" fill="#72b7b2" stroke="white" stroke-width="1" opacity="1"/></g><g class="mark-symbol role-mark" role="graphics-symbol" aria-roledescription="symbol mark container"><path transform="translate(12.025316455696203,57.33916025731648)" d="M-3.1622776601683795,0L0,-3.1622776601683795L3.1622776601683795,0L0,3.1622776601683795Z" fill="#4c78a8" stroke="white" stroke-width="1" opacity="1"/><path transform="translate(37.34177215189874,55.198834417562615)" d="M-3.1622776601683795,0L0,-3.1622776601683795L3.1622776601683795,0L0,3.1622776601683795Z" fill="#f58518" stroke="white" stroke-width="1" opacity="1"/><path transform="translate(62.65822784810126,57.732727861764424)" d="M-3.1622776601683795,0L0,-3.1622776601683795L3.1622776601683795,0L0,3.1622776601683795Z" fill="#e45756" stroke="white" stroke-width="1" opacity="1"/><path transform="translate(87.9746835443038,58.045941526353026)" d="M-3.1622776601683795,0L0,-3.1622776601683795L3.1622776601683795,0L0,3.1622776601683795Z" fill="#72b7b2" stroke="white" stroke-width="1" opacity="1"/></g><g class="mark-rule role-mark" role="graphics-symbol" aria-roledescription="rule mark container"><line transform="translate(12.025316455696203,66.17848029018431)" x2="0" y2="25.649785715744656" fill="#4c78a8" stroke="black" stroke-width="1" stroke-dasharray="0" opacity="1"/><line transform="translate(37.34177215189874,66.77618570369299)" x2="0" y2="24.399120044695707" fill="#f58518" stroke="black" stroke-width="1" stroke-dasharray="0" opacity="1"/><line transform="translate(62.65822784810126,68.45083522006024)" x2="0" y2="18.59159991822085" fill="#e45756" stroke="black" stroke-width="1" stroke-dasharray="0" opacity="1"/><line transform="translate(87.9746835443038,67.39568125897523)" x2="0" y2="25.285308270958694" fill="#72b7b2" stroke="black" stroke-width="1" stroke-dasharray="0" opacity="1"/></g><g class="mark-rule role-mark" role="graphics-symbol" aria-roledescription="rule mark container"><line transform="translate(12.025316455696203,49.07862314635456)" x2="0" y2="-25.649785715744642" fill="#4c78a8" stroke="black" stroke-width="1" stroke-dasharray="0" opacity="1"/><line transform="translate(37.34177215189874,44.67918479865515)" x2="0" y2="-33.14550135755677" fill="#f58518" stroke="black" stroke-width="1" stroke-dasharray="0" opacity="1"/><line transform="translate(62.65822784810126,47.622840163847854)" x2="0" y2="-31.241992584318577" fill="#e45756" stroke="black" stroke-width="1" stroke-dasharray="0" opacity="1"/><line transform="translate(87.9746835443038,47.98260254887505)" x2="0" y2="-29.119618065150284" fill="#72b7b2" stroke="black" stroke-width="1" stroke-dasharray="0" opacity="1"/></g><g class="mark-rule role-mark lower_fence" role="graphics-symbol" aria-roledescription="rule mark container"><line transform="translate(6.012658227848101,91.82826600592897)" x2="12.025316455696204" y2="0" fill="#4c78a8" stroke="black" stroke-width="1" opacity="1"/><line transform="translate(31.32911392405063,91.1753057483887)" x2="12.025316455696206" y2="0" fill="#f58518" stroke="black" stroke-width="1" opacity="1"/><line transform="translate(56.64556962025316,87.04243513828109)" x2="12.025316455696206" y2="0" fill="#e45756" stroke="black" stroke-width="1" opacity="1"/><line transform="translate(81.96202531645571,92.68098952993392)" x2="12.0253164556962" y2="0" fill="#72b7b2" stroke="black" stroke-width="1" opacity="1"/></g><g class="mark-rule role-mark upper_fence" role="graphics-symbol" aria-roledescription="rule mark container"><line transform="translate(6.012658227848101,23.428837430609917)" x2="12.025316455696204" y2="0" fill="#4c78a8" stroke="black" stroke-width="1" opacity="1"/><line transform="translate(31.32911392405063,11.533683441098386)" x2="12.025316455696206" y2="0" fill="#f58518" stroke="black" stroke-width="1" opacity="1"/><line transform="translate(56.64556962025316,16.380847579529277)" x2="12.025316455696206" y2="0" fill="#e45756" stroke="black" stroke-width="1" opacity="1"/><line transform="translate(81.96202531645571,18.862984483724766)" x2="12.0253164556962" y2="0" fill="#72b7b2" stroke="black" stroke-width="1" opacity="1"/></g></g><path class="foreground" aria-hidden="true" d="" display="none"/></g></g><g class="mark-group role-scope" role="graphics-object" aria-roledescription="group mark container"><g transform="translate(0,0)"><path class="background" aria-hidden="true" d="M0,0h0v0h0Z"/><g><g class="mark-symbol role-mark" role="graphics-symbol" aria-roledescription="symbol mark container"><path transform="translate(12.025316455696203,94.69796286373814)" d="M2.7386127875258306,0A2.7386127875258306,2.7386127875258306,0,1,1,-2.7386127875258306,0A2.7386127875258306,2.7386127875258306,0,1,1,2.7386127875258306,0" fill="#4c78a8" stroke="white" stroke-width="1" opacity="1"/><path transform="translate(12.025316455696203,21.36771569040442)" d="M2.7386127875258306,0A2.7386127875258306,2.7386127875258306,0,1,1,-2.7386127875258306,0A2.7386127875258306,2.7386127875258306,0,1,1,2.7386127875258306,0" fill="#4c78a8" stroke="white" stroke-width="1" opacity="1"/><path transform="translate(37.34177215189874,2.3840944287125576)" d="M2.7386127875258306,0A2.7386127875258306,2.7386127875258306,0,1,1,-2.7386127875258306,0A2.7386127875258306,2.7386127875258306,0,1,1,2.7386127875258306,0" fill="#f58518" stroke="white" stroke-width="1" opacity="1"/><path transform="translate(62.65822784810126,16.177539582318268)" d="M2.7386127875258306,0A2.7386127875258306,2.7386127875258306,0,1,1,-2.7386127875258306,0A2.7386127875258306,2.7386127875258306,0,1,1,2.7386127875258306,0" fill="#e45756" stroke="white" stroke-width="1" opacity="1"/><path transform="translate(87.9746835443038,17.53252168175321)" d="M2.7386127875258306,0A2.7386127875258306,2.7386127875258306,0,1,1,-2.7386127875258306,0A2.7386127875258306,2.7386127875258306,0,1,1,2.7386127875258306,0" fill="#72b7b2" stroke="white" stroke-width="1" opacity="1"/></g></g><path class="foreground" aria-hidden="true" d="" display="none"/></g></g></g><path class="foreground" aria-hidden="true" d="" display="none"/></g></g></g></svg>