<svg xmlns="http://www.w3.org/2000/svg" xmlns:xlink="http://www.w3.org/1999/xlink" version="1.1" class="marks" width="145" height="137" viewBox="0 0 145 137"><rect width="145" height="137" fill="white"/><g fill="none" stroke-miterlimit="10" transform="translate(37,5)"><g class="mark-group role-frame root" role="graphics-object" aria-roledescription="group mark container"><g transform="translate(0,0)"><path class="background" aria-hidden="true" d="M0,0h100v100h-100Z"/><g><g class="mark-group role-axis" role="graphics-symbol" aria-roledescription="axis" aria-label="X-axis titled 'x' for a linear scale with values from 0.0 to 1.0"><g transform="translate(0.5,100.5)"><path class="background" aria-hidden="true" d="M0,0h0v0h0Z" pointer-events="none"/><g><g class="mark-rule role-axis-tick" pointer-events="none"><line transform="translate(0,0)" x2="0" y2="5" stroke="black" stroke-width="1.01" opacity="1"/><line transform="translate(50,0)" x2="0" y2="5" stroke="black" stroke-width="1.01" opacity="1"/><line transform="translate(100,0)" x2="0" y2="5" stroke="black" stroke-width="1.01" opacity="1"/></g><g class="mark-text role-axis-label" pointer-events="none"><text text-anchor="middle" transform="translate(0,15)" font-family="sans-serif" font-size="10px" font-style="normal" font-weight="400" fill="black" opacity="1">0.0</text><text text-anchor="middle" transform="translate(50,15)" font-family="sans-serif" font-size="10px" font-style="normal" font-weight="400" fill="black" opacity="1">0.5</text><text text-anchor="middle" transform="translate(100,15)" font-family="sans-serif" font-size="10px" font-style="normal" font-weight="400" fill="black" opacity="1">1.0</text></g><g class="mark-rule role-axis-domain" pointer-events="none"><line transform="translate(0,0)" x2="100" y2="0" stroke="black" stroke-width="1.01" opacity="1"/></g><g class="mark-text role-axis-title" pointer-events="none"><text text-anchor="middle" transform="translate(50,30)" font-family="sans-serif" font-size="11px" font-style="normal" font-weight="400" fill="black" opacity="1">x</text></g></g><path class="foreground" aria-hidden="true" d="" pointer-events="none" display="none"/></g></g><g class="mark-group role-axis" role="graphics-symbol" aria-roledescription="axis" aria-label="Y-axis titled 'y' for a linear scale with values from 0.0 to 1.0"><g transform="translate(0.5,0.5)"><path class="background" aria-hidden="true" d="M0,0h0v0h0Z" pointer-events="none"/><g><g class="mark-rule role-axis-tick" pointer-events="none"><line transform="translate(0,100)" x2="-5" y2="0" stroke="black" stroke-width="1.01" opacity="1"/><line transform="translate(0,50)" x2="-5" y2="0" stroke="black" stroke-width="1.01" opacity="1"/><line transform="translate(0,0)" x2="-5" y2="0" stroke="black" stroke-width="1.01" opacity="1"/></g><g class="mark-text role-axis-label" pointer-events="none"><text text-anchor="end" transform="translate(-7,103)" font-family="sans-serif" font-size="10px" font-style="normal" font-weight="400" fill="black" opacity="1">0.0</text><text text-anchor="end" transform="translate(-7,53)" font-family="sans-serif" font-size="10px" font-style="normal" font-weight="400" fill="black" opacity="1">0.5</text><text text-anchor="end" transform="translate(-7,3)" font-family="sans-serif" font-size="10px" font-style="normal" font-weight="400" fill="black" opacity="1">1.0</text></g><g class="mark-rule role-axis-domain" pointer-events="none"><line transform="translate(0,100)" x2="0" y2="-100" stroke="black" stroke-width="1.01" opacity="1"/></g><g class="mark-text role-axis-title" pointer-events="none"><text text-anchor="middle" transform="translate(-26,50) rotate(-90) translate(0,-2)" font-family="sans-serif" font-size="11px" font-style="normal" font-weight="400" fill="black" opacity="1">y</text></g></g><path class="foreground" aria-hidden="true" d="" pointer-events="none" display="none"/></g></g><g class="mark-group role-scope" clip-path="url(#clip1)" role="graphics-object" aria-roledescription="group mark container"><g transform="translate(0,0)"><path class="background" aria-hidden="true" d="M0,0h0v0h0Z"/><g><g class="mark-symbol role-mark points" role="graphics-symbol" aria-roledescription="symbol mark container"><path transform="translate(78.44374018571412,72.83908261003931)" d="M3.5355339059327378,0A3.5355339059327378,3.5355339059327378,0,1,1,-3.5355339059327378,0A3.5355339059327378,3.5355339059327378,0,1,1,3.5355339059327378,0" fill="white" stroke="steelblue" stroke-width="1" opacity="1"/><path transform="translate(11.821385962225895,21.739173075662464)" d="M3.5355339059327378,0A3.5355339059327378,3.5355339059327378,0,1,1,-3.5355339059327378,0A3.5355339059327378,3.5355339059327378,0,1,1,3.5355339059327378,0" fill="white" stroke="steelblue" stroke-width="1" opacity="1"/><path transform="translate(6.257964797977245,72.01518287136207)" d="M3.5355339059327378,0A3.5355339059327378,3.5355339059327378,0,1,1,-3.5355339059327378,0A3.5355339059327378,3.5355339059327378,0,1,1,3.5355339059327378,0" fill="white" stroke="steelblue" stroke-width="1" opacity="1"/><path transform="translate(36.38515379619347,7.356988482502103)" d="M3.5355339059327378,0A3.5355339059327378,3.5355339059327378,0,1,1,-3.5355339059327378,0A3.5355339059327378,3.5355339059327378,0,1,1,3.5355339059327378,0" fill="white" stroke="steelblue" stroke-width="1" opacity="1"/><path transform="translate(26.56411819087453,59.521463363522564)" d="M3.5355339059327378,0A3.5355339059327378,3.5355339059327378,0,1,1,-3.5355339059327378,0A3.5355339059327378,3.5355339059327378,0,1,1,3.5355339059327378,0" fill="white" stroke="steelblue" stroke-width="1" opacity="1"/><path transform="translate(99.14401453075494,71.86761697745344)" d="M3.5355339059327378,0A3.5355339059327378,3.5355339059327378,0,1,1,-3.5355339059327378,0A3.5355339059327378,3.5355339059327378,0,1,1,3.5355339059327378,0" fill="white" stroke="steelblue" stroke-width="1" opacity="1"/><path transform="translate(78.66693510026059,90.79578575018154)" d="M3.5355339059327378,0A3.5355339059327378,3.5355339059327378,0,1,1,-3.5355339059327378,0A3.5355339059327378,3.5355339059327378,0,1,1,3.5355339059327378,0" fill="white" stroke="steelblue" stroke-width="1" opacity="1"/><path transform="translate(50.768346676971156,22.365755504757956)" d="M3.5355339059327378,0A3.5355339059327378,3.5355339059327378,0,1,1,-3.5355339059327378,0A3.5355339059327378,3.5355339059327378,0,1,1,3.5355339059327378,0" fill="white" stroke="steelblue" stroke-width="1" opacity="1"/><path transform="translate(78.65790538218097,68.46796273610724)" d="M3.5355339059327378,0A3.5355339059327378,3.5355339059327378,0,1,1,-3.5355339059327378,0A3.5355339059327378,3.5355339059327378,0,1,1,3.5355339059327378,0" fill="white" stroke="steelblue" stroke-width="1" opacity="1"/><path transform="translate(37.312863387916984,9.68407012862067)" d="M3.5355339059327378,0A3.5355339059327378,3.5355339059327378,0,1,1,-3.5355339059327378,0A3.5355339059327378,3.5355339059327378,0,1,1,3.5355339059327378,0" fill="white" stroke="steelblue" stroke-width="1" opacity="1"/><path transform="translate(19.442437974332837,5.223659215023757)" d="M3.5355339059327378,0A3.5355339059327378,3.5355339059327378,0,1,1,-3.5355339059327378,0A3.5355339059327378,3.5355339059327378,0,1,1,3.5355339059327378,0" fill="white" stroke="steelblue" stroke-width="1" opacity="1"/><path transform="translate(11.76054659268887,23.42415830311264)" d="M3.5355339059327378,0A3.5355339059327378,3.5355339059327378,0,1,1,-3.5355339059327378,0A3.5355339059327378,3.5355339059327378,0,1,1,3.5355339059327378,0" fill="white" stroke="steelblue" stroke-width="1" opacity="1"/><path transform="translate(7.215930796542603,26.74242393613424)" d="M3.5355339059327378,0A3.5355339059327378,3.5355339059327378,0,1,1,-3.5355339059327378,0A3.5355339059327378,3.5355339059327378,0,1,1,3.5355339059327378,0" fill="white" stroke="steelblue" stroke-width="1" opacity="1"/><path transform="translate(5.965905632854818,60.83897922621125)" d="M3.5355339059327378,0A3.5355339059327378,3.5355339059327378,0,1,1,-3.5355339059327378,0A3.5355339059327378,3.5355339059327378,0,1,1,3.5355339059327378,0" fill="white" stroke="steelblue" stroke-width="1" opacity="1"/><path transform="translate(49.5596414567554,78.05962961068052)" d="M3.5355339059327378,0A3.5355339059327378,3.5355339059327378,0,1,1,-3.5355339059327378,0A3.5355339059327378,3.5355339059327378,0,1,1,3.5355339059327378,0" fill="white" stroke="steelblue" stroke-width="1" opacity="1"/><path transform="translate(46.096585360713284,9.441330028422268)" d="M3.5355339059327378,0A3.5355339059327378,3.5355339059327378,0,1,1,-3.5355339059327378,0A3.5355339059327378,3.5355339059327378,0,1,1,3.5355339059327378,0" fill="white" stroke="steelblue" stroke-width="1" opacity="1"/><path transform="translate(11.28167219644377,48.41319612584793)" d="M3.5355339059327378,0A3.5355339059327378,3.5355339059327378,0,1,1,-3.5355339059327378,0A3.5355339059327378,3.5355339059327378,0,1,1,3.5355339059327378,0" fill="white" stroke="steelblue" stroke-width="1" opacity="1"/><path transform="translate(56.34314856357921,2.0465183295554468)" d="M3.5355339059327378,0A3.5355339059327378,3.5355339059327378,0,1,1,-3.5355339059327378,0A3.5355339059327378,3.5355339059327378,0,1,1,3.5355339059327378,0" fill="white" stroke="steelblue" stroke-width="1" opacity="1"/><path transform="translate(76.39710042197827,3.2030957156279016)" d="M3.5355339059327378,0A3.5355339059327378,3.5355339059327378,0,1,1,-3.5355339059327378,0A3.5355339059327378,3.5355339059327378,0,1,1,3.5355339059327378,0" fill="white" stroke="steelblue" stroke-width="1" opacity="1"/><path transform="translate(45.14452553703254,65.76305496447196)" d="M3.5355339059327378,0A3.5355339059327378,3.5355339059327378,0,1,1,-3.5355339059327378,0A3.5355339059327378,3.5355339059327378,0,1,1,3.5355339059327378,0" fill="white" stroke="steelblue" stroke-width="1" opacity="1"/><path transform="translate(23.24105174090876,46.765329234724895)" d="M3.5355339059327378,0A3.5355339059327378,3.5355339059327378,0,1,1,-3.5355339059327378,0A3.5355339059327378,3.5355339059327378,0,1,1,3.5355339059327378,0" fill="white" stroke="steelblue" stroke-width="1" opacity="1"/><path transform="translate(82.75426604374206,77.75497773900373)" d="M3.5355339059327378,0A3.5355339059327378,3.5355339059327378,0,1,1,-3.5355339059327378,0A3.5355339059327378,3.5355339059327378,0,1,1,3.5355339059327378,0" fill="white" stroke="steelblue" stroke-width="1" opacity="1"/><path transform="translate(70.72392258694136,55.55980669479001)" d="M3.5355339059327378,0A3.5355339059327378,3.5355339059327378,0,1,1,-3.5355339059327378,0A3.5355339059327378,3.5355339059327378,0,1,1,3.5355339059327378,0" fill="white" stroke="steelblue" stroke-width="1" opacity="1"/><path transform="translate(26.77967443444803,57.33142321421547)" d="M3.5355339059327378,0A3.5355339059327378,3.5355339059327378,0,1,1,-3.5355339059327378,0A3.5355339059327378,3.5355339059327378,0,1,1,3.5355339059327378,0" fill="white" stroke="steelblue" stroke-width="1" opacity="1"/><path transform="translate(15.323812153200855,13.829050027080193)" d="M3.5355339059327378,0A3.5355339059327378,3.5355339059327378,0,1,1,-3.5355339059327378,0A3.5355339059327378,3.5355339059327378,0,1,1,3.5355339059327378,0" fill="white" stroke="steelblue" stroke-width="1" opacity="1"/><path transform="translate(46.081434024326505,44.60950499781882)" d="M3.5355339059327378,0A3.5355339059327378,3.5355339059327378,0,1,1,-3.5355339059327378,0A3.5355339059327378,3.5355339059327378,0,1,1,3.5355339059327378,0" fill="white" stroke="steelblue" stroke-width="1" opacity="1"/><path transform="translate(64.2226672415593,98.84016704067743)" d="M3.5355339059327378,0A3.5355339059327378,3.5355339059327378,0,1,1,-3.5355339059327378,0A3.5355339059327378,3.5355339059327378,0,1,1,3.5355339059327378,0" fill="white" stroke="steelblue" stroke-width="1" opacity="1"/><path transform="translate(0.2286388539050943,78.62396923600731)" d="M3.5355339059327378,0A3.5355339059327378,3.5355339059327378,0,1,1,-3.5355339059327378,0A3.5355339059327378,3.5355339059327378,0,1,1,3.5355339059327378,0" fill="white" stroke="steelblue" stroke-width="1" opacity="1"/><path transform="translate(48.19170032085434,38.52675033687426)" d="M3.5355339059327378,0A3.5355339059327378,3.5355339059327378,0,1,1,-3.5355339059327378,0A3.5355339059327378,3.5355339059327378,0,1,1,3.5355339059327378,0" fill="white" stroke="steelblue" stroke-width="1" opacity="1"/><path transform="translate(25.127085994609722,31.15995811824438)" d="M3.5355339059327378,0A3.5355339059327378,3.5355339059327378,0,1,1,-3.5355339059327378,0A3.5355339059327378,3.5355339059327378,0,1,1,3.5355339059327378,0" fill="white" stroke="steelblue" stroke-width="1" opacity="1"/><path transform="translate(96.18360487021302,19.06722796976719)" d="M3.5355339059327378,0A3.5355339059327378,3.5355339059327378,0,1,1,-3.5355339059327378,0A3.5355339059327378,3.5355339059327378,0,1,1,3.5355339059327378,0" fill="white" stroke="steelblue" stroke-width="1" opacity="1"/><path transform="translate(13.776428112359207,24.959846427495012)" d="M3.5355339059327378,0A3.5355339059327378,3.5355339059327378,0,1,1,-3.5355339059327378,0A3.5355339059327378,3.5355339059327378,0,1,1,3.5355339059327378,0" fill="white" stroke="steelblue" stroke-width="1" opacity="1"/><path transform="translate(97.77381827214246,48.25528878741723)" d="M3.5355339059327378,0A3.5355339059327378,3.5355339059327378,0,1,1,-3.5355339059327378,0A3.5355339059327378,3.5355339059327378,0,1,1,3.5355339059327378,0" fill="white" stroke="steelblue" stroke-width="1" opacity="1"/><path transform="translate(82.97974030057854,84.49345247075252)" d="M3.5355339059327378,0A3.5355339059327378,3.5355339059327378,0,1,1,-3.5355339059327378,0A3.5355339059327378,3.5355339059327378,0,1,1,3.5355339059327378,0" fill="white" stroke="steelblue" stroke-width="1" opacity="1"/><path transform="translate(57.0610313950178,14.634661806962047)" d="M3.5355339059327378,0A3.5355339059327378,3.5355339059327378,0,1,1,-3.5355339059327378,0A3.5355339059327378,3.5355339059327378,0,1,1,3.5355339059327378,0" fill="white" stroke="steelblue" stroke-width="1" opacity="1"/><path transform="translate(13.604480517838125,93.62409843497487)" d="M3.5355339059327378,0A3.5355339059327378,3.5355339059327378,0,1,1,-3.5355339059327378,0A3.5355339059327378,3.5355339059327378,0,1,1,3.5355339059327378,0" fill="white" stroke="steelblue" stroke-width="1" opacity="1"/><path transform="translate(86.41288255813886,66.9899730858871)" d="M3.5355339059327378,0A3.5355339059327378,3.5355339059327378,0,1,1,-3.5355339059327378,0A3.5355339059327378,3.5355339059327378,0,1,1,3.5355339059327378,0" fill="white" stroke="steelblue" stroke-width="1" opacity="1"/><path transform="translate(14.494558389613832,90.2086328189273)" d="M3.5355339059327378,0A3.5355339059327378,3.5355339059327378,0,1,1,-3.5355339059327378,0A3.5355339059327378,3.5355339059327378,0,1,1,3.5355339059327378,0" fill="white" stroke="steelblue" stroke-width="1" opacity="1"/><path transform="translate(61.92688730611058,84.52236271038323)" d="M3.5355339059327378,0A3.5355339059327378,3.5355339059327378,0,1,1,-3.5355339059327378,0A3.5355339059327378,3.5355339059327378,0,1,1,3.5355339059327378,0" fill="white" stroke="steelblue" stroke-width="1" opacity="1"/><path transform="translate(90.21441031526992,63.56267480206005)" d="M3.5355339059327378,0A3.5355339059327378,3.5355339059327378,0,1,1,-3.5355339059327378,0A3.5355339059327378,3.5355339059327378,0,1,1,3.5355339059327378,0" fill="white" stroke="steelblue" stroke-width="1" opacity="1"/><path transform="translate(67.39013154966922,24.647489277046162)" d="M3.5355339059327378,0A3.5355339059327378,3.5355339059327378,0,1,1,-3.5355339059327378,0A3.5355339059327378,3.5355339059327378,0,1,1,3.5355339059327378,0" fill="white" stroke="steelblue" stroke-width="1" opacity="1"/><path transform="translate(57.532032190085104,48.9284293460527)" d="M3.5355339059327378,0A3.5355339059327378,3.5355339059327378,0,1,1,-3.5355339059327378,0A3.5355339059327378,3.5355339059327378,0,1,1,3.5355339059327378,0" fill="white" stroke="steelblue" stroke-width="1" opacity="1"/><path transform="translate(96.0255279289396,21.513407534899397)" d="M3.5355339059327378,0A3.5355339059327378,3.5355339059327378,0,1,1,-3.5355339059327378,0A3.5355339059327378,3.5355339059327378,0,1,1,3.5355339059327378,0" fill="white" stroke="steelblue" stroke-width="1" opacity="1"/><path transform="translate(53.951267315404635,49.61089073035269)" d="M3.5355339059327378,0A3.5355339059327378,3.5355339059327378,0,1,1,-3.5355339059327378,0A3.5355339059327378,3.5355339059327378,0,1,1,3.5355339059327378,0" fill="white" stroke="steelblue" stroke-width="1" opacity="1"/><path transform="translate(36.06760266536858,66.58950526172616)" d="M3.5355339059327378,0A3.5355339059327378,3.5355339059327378,0,1,1,-3.5355339059327378,0A3.5355339059327378,3.5355339059327378,0,1,1,3.5355339059327378,0" fill="white" stroke="steelblue" stroke-width="1" opacity="1"/><path transform="translate(26.80902563574401,35.34415524428422)" d="M3.5355339059327378,0A3.5355339059327378,3.5355339059327378,0,1,1,-3.5355339059327378,0A3.5355339059327378,3.5355339059327378,0,1,1,3.5355339059327378,0" fill="white" stroke="steelblue" stroke-width="1" opacity="1"/><path transform="translate(37.049776194188986,70.46262915517067)" d="M3.5355339059327378,0A3.5355339059327378,3.5355339059327378,0,1,1,-3.5355339059327378,0A3.5355339059327378,3.5355339059327378,0,1,1,3.5355339059327378,0" fill="white" stroke="steelblue" stroke-width="1" opacity="1"/><path transform="translate(66.82989060098376,34.76044595122212)" d="M3.5355339059327378,0A3.5355339059327378,3.5355339059327378,0,1,1,-3.5355339059327378,0A3.5355339059327378,3.5355339059327378,0,1,1,3.5355339059327378,0" fill="white" stroke="steelblue" stroke-width="1" opacity="1"/><path transform="translate(40.80596424327931,20.335142208789236)" d="M3.5355339059327378,0A3.5355339059327378,3.5355339059327378,0,1,1,-3.5355339059327378,0A3.5355339059327378,3.5355339059327378,0,1,1,3.5355339059327378,0" fill="white" stroke="steelblue" stroke-width="1" opacity="1"/><path transform="translate(85.118221126297,59.35868927614587)" d="M3.5355339059327378,0A3.5355339059327378,3.5355339059327378,0,1,1,-3.5355339059327378,0A3.5355339059327378,3.5355339059327378,0,1,1,3.5355339059327378,0" fill="white" stroke="steelblue" stroke-width="1" opacity="1"/><path transform="translate(65.07466436969885,88.67093658921377)" d="M3.5355339059327378,0A3.5355339059327378,3.5355339059327378,0,1,1,-3.5355339059327378,0A3.5355339059327378,3.5355339059327378,0,1,1,3.5355339059327378,0" fill="white" stroke="steelblue" stroke-width="1" opacity="1"/><path transform="translate(83.7539760258639,4.486019252080298)" d="M3.5355339059327378,0A3.5355339059327378,3.5355339059327378,0,1,1,-3.5355339059327378,0A3.5355339059327378,3.5355339059327378,0,1,1,3.5355339059327378,0" fill="white" stroke="steelblue" stroke-width="1" opacity="1"/><path transform="translate(11.640961119995097,79.22939135276293)" d="M3.5355339059327378,0A3.5355339059327378,3.5355339059327378,0,1,1,-3.5355339059327378,0A3.5355339059327378,3.5355339059327378,0,1,1,3.5355339059327378,0" fill="white" stroke="steelblue" stroke-width="1" opacity="1"/><path transform="translate(0.08436843119798976,79.60788548658493)" d="M3.5355339059327378,0A3.5355339059327378,3.5355339059327378,0,1,1,-3.5355339059327378,0A3.5355339059327378,3.5355339059327378,0,1,1,3.5355339059327378,0" fill="white" stroke="steelblue" stroke-width="1" opacity="1"/><path transform="translate(24.905704075539713,6.334894025900861)" d="M3.5355339059327378,0A3.5355339059327378,3.5355339059327378,0,1,1,-3.5355339059327378,0A3.5355339059327378,3.5355339059327378,0,1,1,3.5355339059327378,0" fill="white" stroke="steelblue" stroke-width="1" opacity="1"/><path transform="translate(87.61363735196464,70.53887168337299)" d="M3.5355339059327378,0A3.5355339059327378,3.5355339059327378,0,1,1,-3.5355339059327378,0A3.5355339059327378,3.5355339059327378,0,1,1,3.5355339059327378,0" fill="white" stroke="steelblue" stroke-width="1" opacity="1"/><path transform="translate(1.377439630657462,49.43633997794819)" d="M3.5355339059327378,0A3.5355339059327378,3.5355339059327378,0,1,1,-3.5355339059327378,0A3.5355339059327378,3.5355339059327378,0,1,1,3.5355339059327378,0" fill="white" stroke="steelblue" stroke-width="1" opacity="1"/><path transform="translate(20.614882533909483,54.42249743786325)" d="M3.5355339059327378,0A3.5355339059327378,3.5355339059327378,0,1,1,-3.5355339059327378,0A3.5355339059327378,3.5355339059327378,0,1,1,3.5355339059327378,0" fill="white" stroke="steelblue" stroke-width="1" opacity="1"/><path transform="translate(45.50291200249775,26.519986620432334)" d="M3.5355339059327378,0A3.5355339059327378,3.5355339059327378,0,1,1,-3.5355339059327378,0A3.5355339059327378,3.5355339059327378,0,1,1,3.5355339059327378,0" fill="white" stroke="steelblue" stroke-width="1" opacity="1"/><path transform="translate(81.40341486343866,24.82671573832047)" d="M3.5355339059327378,0A3.5355339059327378,3.5355339059327378,0,1,1,-3.5355339059327378,0A3.5355339059327378,3.5355339059327378,0,1,1,3.5355339059327378,0" fill="white" stroke="steelblue" stroke-width="1" opacity="1"/><path transform="translate(32.9824052986037,30.724614017635364)" d="M3.5355339059327378,0A3.5355339059327378,3.5355339059327378,0,1,1,-3.5355339059327378,0A3.5355339059327378,3.5355339059327378,0,1,1,3.5355339059327378,0" fill="white" stroke="steelblue" stroke-width="1" opacity="1"/><path transform="translate(78.8256759128771,53.06411589353329)" d="M3.5355339059327378,0A3.5355339059327378,3.5355339059327378,0,1,1,-3.5355339059327378,0A3.5355339059327378,3.5355339059327378,0,1,1,3.5355339059327378,0" fill="white" stroke="steelblue" stroke-width="1" opacity="1"/><path transform="translate(76.434274678964,46.652365375938246)" d="M3.5355339059327378,0A3.5355339059327378,3.5355339059327378,0,1,1,-3.5355339059327378,0A3.5355339059327378,3.5355339059327378,0,1,1,3.5355339059327378,0" fill="white" stroke="steelblue" stroke-width="1" opacity="1"/><path transform="translate(98.2887476466851,54.617705126495586)" d="M3.5355339059327378,0A3.5355339059327378,3.5355339059327378,0,1,1,-3.5355339059327378,0A3.5355339059327378,3.5355339059327378,0,1,1,3.5355339059327378,0" fill="white" stroke="steelblue" stroke-width="1" opacity="1"/><path transform="translate(46.22752824640509,50.920388480285496)" d="M3.5355339059327378,0A3.5355339059327378,3.5355339059327378,0,1,1,-3.5355339059327378,0A3.5355339059327378,3.5355339059327378,0,1,1,3.5355339059327378,0" fill="white" stroke="steelblue" stroke-width="1" opacity="1"/><path transform="translate(99.20050418065026,51.769483580376665)" d="M3.5355339059327378,0A3.5355339059327378,3.5355339059327378,0,1,1,-3.5355339059327378,0A3.5355339059327378,3.5355339059327378,0,1,1,3.5355339059327378,0" fill="white" stroke="steelblue" stroke-width="1" opacity="1"/><path transform="translate(4.846424719504794,72.30189579571224)" d="M3.5355339059327378,0A3.5355339059327378,3.5355339059327378,0,1,1,-3.5355339059327378,0A3.5355339059327378,3.5355339059327378,0,1,1,3.5355339059327378,0" fill="white" stroke="steelblue" stroke-width="1" opacity="1"/><path transform="translate(0.5513422976215043,46.92276408707223)" d="M3.5355339059327378,0A3.5355339059327378,3.5355339059327378,0,1,1,-3.5355339059327378,0A3.5355339059327378,3.5355339059327378,0,1,1,3.5355339059327378,0" fill="white" stroke="steelblue" stroke-width="1" opacity="1"/><path transform="translate(91.04919590628852,43.03021625399742)" d="M3.5355339059327378,0A3.5355339059327378,3.5355339059327378,0,1,1,-3.5355339059327378,0A3.5355339059327378,3.5355339059327378,0,1,1,3.5355339059327378,0" fill="white" stroke="steelblue" stroke-width="1" opacity="1"/><path transform="translate(80.63322134909373,13.799198551190361)" d="M3.5355339059327378,0A3.5355339059327378,3.5355339059327378,0,1,1,-3.5355339059327378,0A3.5355339059327378,3.5355339059327378,0,1,1,3.5355339059327378,0" fill="white" stroke="steelblue" stroke-width="1" opacity="1"/><path transform="translate(62.210411516065946,46.63948354534087)" d="M3.5355339059327378,0A3.5355339059327378,3.5355339059327378,0,1,1,-3.5355339059327378,0A3.5355339059327378,3.5355339059327378,0,1,1,3.5355339059327378,0" fill="white" stroke="steelblue" stroke-width="1" opacity="1"/><path transform="translate(38.76723819432606,92.94619707443094)" d="M3.5355339059327378,0A3.5355339059327378,3.5355339059327378,0,1,1,-3.5355339059327378,0A3.5355339059327378,3.5355339059327378,0,1,1,3.5355339059327378,0" fill="white" stroke="steelblue" stroke-width="1" opacity="1"/><path transform="translate(48.81879538948032,76.3795395581043)" d="M3.5355339059327378,0A3.5355339059327378,3.5355339059327378,0,1,1,-3.5355339059327378,0A3.5355339059327378,3.5355339059327378,0,1,1,3.5355339059327378,0" fill="white" stroke="steelblue" stroke-width="1" opacity="1"/><path transform="translate(28.391063204868928,3.9125836666071057)" d="M3.5355339059327378,0A3.5355339059327378,3.5355339059327378,0,1,1,-3.5355339059327378,0A3.5355339059327378,3.5355339059327378,0,1,1,3.5355339059327378,0" fill="white" stroke="steelblue" stroke-width="1" opacity="1"/><path transform="translate(14.191627480771995,25.651755852526925)" d="M3.5355339059327378,0A3.5355339059327378,3.5355339059327378,0,1,1,-3.5355339059327378,0A3.5355339059327378,3.5355339059327378,0,1,1,3.5355339059327378,0" fill="white" stroke="steelblue" stroke-width="1" opacity="1"/><path transform="translate(66.80851757806154,55.24880773641947)" d="M3.5355339059327378,0A3.5355339059327378,3.5355339059327378,0,1,1,-3.5355339059327378,0A3.5355339059327378,3.5355339059327378,0,1,1,3.5355339059327378,0" fill="white" stroke="steelblue" stroke-width="1" opacity="1"/><path transform="translate(22.427917183652113,80.59810164574716)" d="M3.5355339059327378,0A3.5355339059327378,3.5355339059327378,0,1,1,-3.5355339059327378,0A3.5355339059327378,3.5355339059327378,0,1,1,3.5355339059327378,0" fill="white" stroke="steelblue" stroke-width="1" opacity="1"/><path transform="translate(14.781171681967031,75.3866372040261)" d="M3.5355339059327378,0A3.5355339059327378,3.5355339059327378,0,1,1,-3.5355339059327378,0A3.5355339059327378,3.5355339059327378,0,1,1,3.5355339059327378,0" fill="white" stroke="steelblue" stroke-width="1" opacity="1"/><path transform="translate(27.84165669073704,92.7018590039078)" d="M3.5355339059327378,0A3.5355339059327378,3.5355339059327378,0,1,1,-3.5355339059327378,0A3.5355339059327378,3.5355339059327378,0,1,1,3.5355339059327378,0" fill="white" stroke="steelblue" stroke-width="1" opacity="1"/><path transform="translate(83.1791735664613,0.7367683459541197)" d="M3.5355339059327378,0A3.5355339059327378,3.5355339059327378,0,1,1,-3.5355339059327378,0A3.5355339059327378,3.5355339059327378,0,1,1,3.5355339059327378,0" fill="white" stroke="steelblue" stroke-width="1" opacity="1"/><path transform="translate(57.66259749671245,30.72695006314391)" d="M3.5355339059327378,0A3.5355339059327378,3.5355339059327378,0,1,1,-3.5355339059327378,0A3.5355339059327378,3.5355339059327378,0,1,1,3.5355339059327378,0" fill="white" stroke="steelblue" stroke-width="1" opacity="1"/><path transform="translate(99.97652323398538,96.39976241006273)" d="M3.5355339059327378,0A3.5355339059327378,3.5355339059327378,0,1,1,-3.5355339059327378,0A3.5355339059327378,3.5355339059327378,0,1,1,3.5355339059327378,0" fill="white" stroke="steelblue" stroke-width="1" opacity="1"/><path transform="translate(67.81835829588208,89.21639227571409)" d="M3.5355339059327378,0A3.5355339059327378,3.5355339059327378,0,1,1,-3.5355339059327378,0A3.5355339059327378,3.5355339059327378,0,1,1,3.5355339059327378,0" fill="white" stroke="steelblue" stroke-width="1" opacity="1"/><path transform="translate(24.621832073018023,82.51770430751199)" d="M3.5355339059327378,0A3.5355339059327378,3.5355339059327378,0,1,1,-3.5355339059327378,0A3.5355339059327378,3.5355339059327378,0,1,1,3.5355339059327378,0" fill="white" stroke="steelblue" stroke-width="1" opacity="1"/><path transform="translate(2.7792452205238516,33.877383133782836)" d="M3.5355339059327378,0A3.5355339059327378,3.5355339059327378,0,1,1,-3.5355339059327378,0A3.5355339059327378,3.5355339059327378,0,1,1,3.5355339059327378,0" fill="white" stroke="steelblue" stroke-width="1" opacity="1"/><path transform="translate(84.3238255113391,20.038927085343495)" d="M3.5355339059327378,0A3.5355339059327378,3.5355339059327378,0,1,1,-3.5355339059327378,0A3.5355339059327378,3.5355339059327378,0,1,1,3.5355339059327378,0" fill="white" stroke="steelblue" stroke-width="1" opacity="1"/><path transform="translate(27.362383684060266,67.25514048883163)" d="M3.5355339059327378,0A3.5355339059327378,3.5355339059327378,0,1,1,-3.5355339059327378,0A3.5355339059327378,3.5355339059327378,0,1,1,3.5355339059327378,0" fill="white" stroke="steelblue" stroke-width="1" opacity="1"/><path transform="translate(85.90406290746097,49.78995400516932)" d="M3.5355339059327378,0A3.5355339059327378,3.5355339059327378,0,1,1,-3.5355339059327378,0A3.5355339059327378,3.5355339059327378,0,1,1,3.5355339059327378,0" fill="white" stroke="steelblue" stroke-width="1" opacity="1"/><path transform="translate(30.6169980172019,52.14172281737676)" d="M3.5355339059327378,0A3.5355339059327378,3.5355339059327378,0,1,1,-3.5355339059327378,0A3.5355339059327378,3.5355339059327378,0,1,1,3.5355339059327378,0" fill="white" stroke="steelblue" stroke-width="1" opacity="1"/><path transform="translate(27.0771438803761,57.5793722766318)" d="M3.5355339059327378,0A3.5355339059327378,3.5355339059327378,0,1,1,-3.5355339059327378,0A3.5355339059327378,3.5355339059327378,0,1,1,3.5355339059327378,0" fill="white" stroke="steelblue" stroke-width="1" opacity="1"/><path transform="translate(8.735785200082502,93.3304610749888)" d="M3.5355339059327378,0A3.5355339059327378,3.5355339059327378,0,1,1,-3.5355339059327378,0A3.5355339059327378,3.5355339059327378,0,1,1,3.5355339059327378,0" fill="white" stroke="steelblue" stroke-width="1" opacity="1"/><path transform="translate(28.55397009213275,10.00923533545911)" d="M3.5355339059327378,0A3.5355339059327378,3.5355339059327378,0,1,1,-3.5355339059327378,0A3.5355339059327378,3.5355339059327378,0,1,1,3.5355339059327378,0" fill="white" stroke="steelblue" stroke-width="1" opacity="1"/><path transform="translate(69.49631588335691,77.1616154212275)" d="M3.5355339059327378,0A3.5355339059327378,3.5355339059327378,0,1,1,-3.5355339059327378,0A3.5355339059327378,3.5355339059327378,0,1,1,3.5355339059327378,0" fill="white" stroke="steelblue" stroke-width="1" opacity="1"/><path transform="translate(35.92797519687705,89.85082054062293)" d="M3.5355339059327378,0A3.5355339059327378,3.5355339059327378,0,1,1,-3.5355339059327378,0A3.5355339059327378,3.5355339059327378,0,1,1,3.5355339059327378,0" fill="white" stroke="steelblue" stroke-width="1" opacity="1"/><path transform="translate(30.353732117492825,59.15143306735969)" d="M3.5355339059327378,0A3.5355339059327378,3.5355339059327378,0,1,1,-3.5355339059327378,0A3.5355339059327378,3.5355339059327378,0,1,1,3.5355339059327378,0" fill="white" stroke="steelblue" stroke-width="1" opacity="1"/><path transform="translate(72.4306096347724,9.345444493498167)" d="M3.5355339059327378,0A3.5355339059327378,3.5355339059327378,0,1,1,-3.5355339059327378,0A3.5355339059327378,3.5355339059327378,0,1,1,3.5355339059327378,0" fill="white" stroke="steelblue" stroke-width="1" opacity="1"/><path transform="translate(6.967805143796535,64.86789018857012)" d="M3.5355339059327378,0A3.5355339059327378,3.5355339059327378,0,1,1,-3.5355339059327378,0A3.5355339059327378,3.5355339059327378,0,1,1,3.5355339059327378,0" fill="white" stroke="steelblue" stroke-width="1" opacity="1"/><path transform="translate(4.224805062704728,63.56700388875785)" d="M3.5355339059327378,0A3.5355339059327378,3.5355339059327378,0,1,1,-3.5355339059327378,0A3.5355339059327378,3.5355339059327378,0,1,1,3.5355339059327378,0" fill="white" stroke="steelblue" stroke-width="1" opacity="1"/><path transform="translate(22.473107677837767,50.19538201267578)" d="M3.5355339059327378,0A3.5355339059327378,3.5355339059327378,0,1,1,-3.5355339059327378,0A3.5355339059327378,3.5355339059327378,0,1,1,3.5355339059327378,0" fill="white" stroke="steelblue" stroke-width="1" opacity="1"/><path transform="translate(9.033070861222425,87.88948468192335)" d="M3.5355339059327378,0A3.5355339059327378,3.5355339059327378,0,1,1,-3.5355339059327378,0A3.5355339059327378,3.5355339059327378,0,1,1,3.5355339059327378,0" fill="white" stroke="steelblue" stroke-width="1" opacity="1"/></g></g><path class="foreground" aria-hidden="true" d="" display="none"/></g></g></g><path class="foreground" aria-hidden="true" d="" display="none"/></g></g></g><defs><clipPath id="clip1"><rect x="0" y="0" width="100" height="100"/></clipPath></defs></svg>