<svg xmlns="http://www.w3.org/2000/svg" xmlns:xlink="http://www.w3.org/1999/xlink" version="1.1" class="marks" width="188" height="138" viewBox="0 0 188 138"><rect width="188" height="138" fill="white"/><g fill="none" stroke-miterlimit="10" transform="translate(37,6)"><g class="mark-group role-frame root" role="graphics-object" aria-roledescription="group mark container"><g transform="translate(0,0)"><path class="background" aria-hidden="true" d="M0,0h100v100h-100Z" fill="lightgray"/><g><g class="mark-group role-axis" role="graphics-symbol" aria-roledescription="axis" aria-label="X-axis titled 'x' for a linear scale with values from 0.0 to 1.0"><g transform="translate(0.5,100.5)"><path class="background" aria-hidden="true" d="M0,0h0v0h0Z" pointer-events="none"/><g><g class="mark-rule role-axis-grid" pointer-events="none"><line transform="translate(0,0)" x2="0" y2="-100" stroke="white" stroke-width="0.5" stroke-dasharray="0" opacity="1"/><line transform="translate(50,0)" x2="0" y2="-100" stroke="white" stroke-width="0.5" stroke-dasharray="0" opacity="1"/><line transform="translate(100,0)" x2="0" y2="-100" stroke="white" stroke-width="0.5" stroke-dasharray="0" opacity="1"/></g><g class="mark-rule role-axis-tick" pointer-events="none"><line transform="translate(0,0)" x2="0" y2="5" stroke="black" stroke-width="1.01" opacity="1"/><line transform="translate(50,0)" x2="0" y2="5" stroke="black" stroke-width="1.01" opacity="1"/><line transform="translate(100,0)" x2="0" y2="5" stroke="black" stroke-width="1.01" opacity="1"/></g><g class="mark-text role-axis-label" pointer-events="none"><text text-anchor="middle" transform="translate(0,15)" font-family="sans-serif" font-size="10px" font-style="normal" font-weight="400" fill="black" opacity="1">0.0</text><text text-anchor="middle" transform="translate(50,15)" font-family="sans-serif" font-size="10px" font-style="normal" font-weight="400" fill="black" opacity="1">0.5</text><text text-anchor="middle" transform="translate(100,15)" font-family="sans-serif" font-size="10px" font-style="normal" font-weight="400" fill="black" opacity="1">1.0</text></g><g class="mark-rule role-axis-domain" pointer-events="none"><line transform="translate(0,0)" x2="100" y2="0" stroke="black" stroke-width="1.01" opacity="1"/></g><g class="mark-text role-axis-title" pointer-events="none"><text text-anchor="middle" transform="translate(50,30)" font-family="sans-serif" font-size="11px" font-style="normal" font-weight="400" fill="black" opacity="1">x</text></g></g><path class="foreground" aria-hidden="true" d="" pointer-events="none" display="none"/></g></g><g class="mark-group role-axis" role="graphics-symbol" aria-roledescription="axis" aria-label="Y-axis titled 'y' for a linear scale with values from 0.0 to 1.0"><g transform="translate(0.5,0.5)"><path class="background" aria-hidden="true" d="M0,0h0v0h0Z" pointer-events="none"/><g><g class="mark-rule role-axis-grid" pointer-events="none"><line transform="translate(0,100)" x2="100" y2="0" stroke="white" stroke-width="0.5" stroke-dasharray="0" opacity="1"/><line transform="translate(0,50)" x2="100" y2="0" stroke="white" stroke-width="0.5" stroke-dasharray="0" opacity="1"/><line transform="translate(0,0)" x2="100" y2="0" stroke="white" stroke-width="0.5" stroke-dasharray="0" opacity="1"/></g><g class="mark-rule role-axis-tick" pointer-events="none"><line transform="translate(0,100)" x2="-5" y2="0" stroke="black" stroke-width="1.01" opacity="1"/><line transform="translate(0,50)" x2="-5" y2="0" stroke="black" stroke-width="1.01" opacity="1"/><line transform="translate(0,0)" x2="-5" y2="0" stroke="black" stroke-width="1.01" opacity="1"/></g><g class="mark-text role-axis-label" pointer-events="none"><text text-anchor="end" transform="translate(-7,103)" font-family="sans-serif" font-size="10px" font-style="normal" font-weight="400" fill="black" opacity="1">0.0</text><text text-anchor="end" transform="translate(-7,53)" font-family="sans-serif" font-size="10px" font-style="normal" font-weight="400" fill="black" opacity="1">0.5</text><text text-anchor="end" transform="translate(-7,3)" font-family="sans-serif" font-size="10px" font-style="normal" font-weight="400" fill="black" opacity="1">1.0</text></g><g class="mark-rule role-axis-domain" pointer-events="none"><line transform="translate(0,100)" x2="0" y2="-100" stroke="black" stroke-width="1.01" opacity="1"/></g><g class="mark-text role-axis-title" pointer-events="none"><text text-anchor="middle" transform="translate(-26,50) rotate(-90) translate(0,-2)" font-family="sans-serif" font-size="11px" font-style="normal" font-weight="400" fill="black" opacity="1">y</text></g></g><path class="foreground" aria-hidden="true" d="" pointer-events="none" display="none"/></g></g><g class="mark-group role-scope" role="graphics-object" aria-roledescription="group mark container"><g transform="translate(0,0)"><path class="background" aria-hidden="true" d="M0,0h0v0h0Z"/><g><g class="mark-symbol role-mark points" role="graphics-symbol" aria-roledescription="symbol mark container"><path transform="translate(26.82308166886529,79.62142194991446)" d="M5,0A5,5,0,1,1,-5,0A5,5,0,1,1,5,0" fill="rgb(8, 105, 76)" stroke="white" stroke-width="1" opacity="1"/><path transform="translate(88.12739248672922,96.79171278274323)" d="M5,0A5,5,0,1,1,-5,0A5,5,0,1,1,5,0" fill="rgb(54, 63, 60)" stroke="white" stroke-width="1" opacity="1"/><path transform="translate(30.20459218944753,61.422764951951905)" d="M5,0A5,5,0,1,1,-5,0A5,5,0,1,1,5,0" fill="rgb(32, 146, 66)" stroke="white" stroke-width="1" opacity="1"/><path transform="translate(11.880507377659733,0.5177100952575842)" d="M5,0A5,5,0,1,1,-5,0A5,5,0,1,1,5,0" fill="rgb(255, 255, 170)" stroke="white" stroke-width="1" opacity="1"/><path transform="translate(30.783897084532708,80.9627986264171)" d="M5,0A5,5,0,1,1,-5,0A5,5,0,1,1,5,0" fill="rgb(12, 102, 75)" stroke="white" stroke-width="1" opacity="1"/><path transform="translate(73.7224241098973,15.973548300100449)" d="M5,0A5,5,0,1,1,-5,0A5,5,0,1,1,5,0" fill="rgb(236, 227, 48)" stroke="white" stroke-width="1" opacity="1"/><path transform="translate(76.82790364796594,74.4445323810108)" d="M5,0A5,5,0,1,1,-5,0A5,5,0,1,1,5,0" fill="rgb(1, 117, 75)" stroke="white" stroke-width="1" opacity="1"/><path transform="translate(20.188545056272634,0.8231434279144856)" d="M5,0A5,5,0,1,1,-5,0A5,5,0,1,1,5,0" fill="rgb(255, 254, 166)" stroke="white" stroke-width="1" opacity="1"/><path transform="translate(50.42640601854984,83.99039538419385)" d="M5,0A5,5,0,1,1,-5,0A5,5,0,1,1,5,0" fill="rgb(22, 95, 74)" stroke="white" stroke-width="1" opacity="1"/><path transform="translate(55.84657897900367,7.0281922580620275)" d="M5,0A5,5,0,1,1,-5,0A5,5,0,1,1,5,0" fill="rgb(255, 243, 95)" stroke="white" stroke-width="1" opacity="1"/><path transform="translate(59.25741950380687,59.05469552959388)" d="M5,0A5,5,0,1,1,-5,0A5,5,0,1,1,5,0" fill="rgb(47, 150, 66)" stroke="white" stroke-width="1" opacity="1"/><path transform="translate(75.89892728878405,12.176035781754358)" d="M5,0A5,5,0,1,1,-5,0A5,5,0,1,1,5,0" fill="rgb(252, 234, 45)" stroke="white" stroke-width="1" opacity="1"/><path transform="translate(11.638255218399262,16.59692728153671)" d="M5,0A5,5,0,1,1,-5,0A5,5,0,1,1,5,0" fill="rgb(234, 226, 49)" stroke="white" stroke-width="1" opacity="1"/><path transform="translate(60.2959383506897,91.77945730060574)" d="M5,0A5,5,0,1,1,-5,0A5,5,0,1,1,5,0" fill="rgb(42, 76, 67)" stroke="white" stroke-width="1" opacity="1"/><path transform="translate(27.705333977483924,59.53782964959334)" d="M5,0A5,5,0,1,1,-5,0A5,5,0,1,1,5,0" fill="rgb(44, 149, 66)" stroke="white" stroke-width="1" opacity="1"/><path transform="translate(97.6777638127377,23.312126623124783)" d="M5,0A5,5,0,1,1,-5,0A5,5,0,1,1,5,0" fill="rgb(206, 214, 55)" stroke="white" stroke-width="1" opacity="1"/><path transform="translate(94.36641808450884,81.6644400864671)" d="M5,0A5,5,0,1,1,-5,0A5,5,0,1,1,5,0" fill="rgb(15, 100, 75)" stroke="white" stroke-width="1" opacity="1"/><path transform="translate(31.65603842964493,14.875241170402475)" d="M5,0A5,5,0,1,1,-5,0A5,5,0,1,1,5,0" fill="rgb(241, 229, 47)" stroke="white" stroke-width="1" opacity="1"/><path transform="translate(32.90613583095043,75.54947670216802)" d="M5,0A5,5,0,1,1,-5,0A5,5,0,1,1,5,0" fill="rgb(0, 114, 76)" stroke="white" stroke-width="1" opacity="1"/><path transform="translate(66.55314521892925,47.020522210342264)" d="M5,0A5,5,0,1,1,-5,0A5,5,0,1,1,5,0" fill="rgb(106, 173, 65)" stroke="white" stroke-width="1" opacity="1"/><path transform="translate(48.61077956963247,89.62793733917282)" d="M5,0A5,5,0,1,1,-5,0A5,5,0,1,1,5,0" fill="rgb(37, 82, 70)" stroke="white" stroke-width="1" opacity="1"/><path transform="translate(15.302133068953516,10.72500797715633)" d="M5,0A5,5,0,1,1,-5,0A5,5,0,1,1,5,0" fill="rgb(255, 236, 52)" stroke="white" stroke-width="1" opacity="1"/><path transform="translate(49.32807553790119,25.18719251422734)" d="M5,0A5,5,0,1,1,-5,0A5,5,0,1,1,5,0" fill="rgb(198, 211, 56)" stroke="white" stroke-width="1" opacity="1"/><path transform="translate(7.283993232806008,43.25178059750839)" d="M5,0A5,5,0,1,1,-5,0A5,5,0,1,1,5,0" fill="rgb(122, 181, 64)" stroke="white" stroke-width="1" opacity="1"/><path transform="translate(70.15123726289102,61.20086698734259)" d="M5,0A5,5,0,1,1,-5,0A5,5,0,1,1,5,0" fill="rgb(34, 146, 66)" stroke="white" stroke-width="1" opacity="1"/><path transform="translate(87.54386380474297,98.66732665152877)" d="M5,0A5,5,0,1,1,-5,0A5,5,0,1,1,5,0" fill="rgb(58, 58, 58)" stroke="white" stroke-width="1" opacity="1"/><path transform="translate(88.86420787648092,29.9215031472453)" d="M5,0A5,5,0,1,1,-5,0A5,5,0,1,1,5,0" fill="rgb(179, 203, 59)" stroke="white" stroke-width="1" opacity="1"/><path transform="translate(76.35672477492834,19.668908446889255)" d="M5,0A5,5,0,1,1,-5,0A5,5,0,1,1,5,0" fill="rgb(221, 221, 52)" stroke="white" stroke-width="1" opacity="1"/><path transform="translate(29.4133304465241,37.89881919601448)" d="M5,0A5,5,0,1,1,-5,0A5,5,0,1,1,5,0" fill="rgb(145, 190, 62)" stroke="white" stroke-width="1" opacity="1"/><path transform="translate(24.076043019270934,57.16486501829547)" d="M5,0A5,5,0,1,1,-5,0A5,5,0,1,1,5,0" fill="rgb(59, 154, 66)" stroke="white" stroke-width="1" opacity="1"/><path transform="translate(94.8501593487359,87.8097704021747)" d="M5,0A5,5,0,1,1,-5,0A5,5,0,1,1,5,0" fill="rgb(33, 87, 72)" stroke="white" stroke-width="1" opacity="1"/><path transform="translate(87.37299707658673,9.239248103714182)" d="M5,0A5,5,0,1,1,-5,0A5,5,0,1,1,5,0" fill="rgb(255, 239, 69)" stroke="white" stroke-width="1" opacity="1"/><path transform="translate(86.9329373000464,50.46371481856239)" d="M5,0A5,5,0,1,1,-5,0A5,5,0,1,1,5,0" fill="rgb(91, 167, 65)" stroke="white" stroke-width="1" opacity="1"/><path transform="translate(88.30937184825048,46.466997430345266)" d="M5,0A5,5,0,1,1,-5,0A5,5,0,1,1,5,0" fill="rgb(108, 175, 64)" stroke="white" stroke-width="1" opacity="1"/><path transform="translate(95.52737100950893,75.09140347278748)" d="M5,0A5,5,0,1,1,-5,0A5,5,0,1,1,5,0" fill="rgb(1, 115, 75)" stroke="white" stroke-width="1" opacity="1"/><path transform="translate(89.32694248488392,56.96942469947969)" d="M5,0A5,5,0,1,1,-5,0A5,5,0,1,1,5,0" fill="rgb(60, 154, 66)" stroke="white" stroke-width="1" opacity="1"/><path transform="translate(38.193742261862475,16.27675121437514)" d="M5,0A5,5,0,1,1,-5,0A5,5,0,1,1,5,0" fill="rgb(235, 227, 48)" stroke="white" stroke-width="1" opacity="1"/><path transform="translate(48.251333056005144,77.21871247566925)" d="M5,0A5,5,0,1,1,-5,0A5,5,0,1,1,5,0" fill="rgb(1, 110, 77)" stroke="white" stroke-width="1" opacity="1"/><path transform="translate(64.16826797434108,40.25104498785992)" d="M5,0A5,5,0,1,1,-5,0A5,5,0,1,1,5,0" fill="rgb(135, 186, 63)" stroke="white" stroke-width="1" opacity="1"/><path transform="translate(23.73126224991722,52.789280068149104)" d="M5,0A5,5,0,1,1,-5,0A5,5,0,1,1,5,0" fill="rgb(82, 162, 66)" stroke="white" stroke-width="1" opacity="1"/><path transform="translate(93.89614402127235,84.75378690449669)" d="M5,0A5,5,0,1,1,-5,0A5,5,0,1,1,5,0" fill="rgb(24, 94, 73)" stroke="white" stroke-width="1" opacity="1"/><path transform="translate(63.78002441764146,93.08838019415789)" d="M5,0A5,5,0,1,1,-5,0A5,5,0,1,1,5,0" fill="rgb(45, 73, 65)" stroke="white" stroke-width="1" opacity="1"/><path transform="translate(96.37022948684937,88.04616399791857)" d="M5,0A5,5,0,1,1,-5,0A5,5,0,1,1,5,0" fill="rgb(34, 86, 72)" stroke="white" stroke-width="1" opacity="1"/><path transform="translate(19.612267710282893,43.18201411981657)" d="M5,0A5,5,0,1,1,-5,0A5,5,0,1,1,5,0" fill="rgb(122, 181, 64)" stroke="white" stroke-width="1" opacity="1"/><path transform="translate(27.53795841216624,7.396596982025083)" d="M5,0A5,5,0,1,1,-5,0A5,5,0,1,1,5,0" fill="rgb(255, 242, 91)" stroke="white" stroke-width="1" opacity="1"/><path transform="translate(49.65941450038224,3.177645086040115)" d="M5,0A5,5,0,1,1,-5,0A5,5,0,1,1,5,0" fill="rgb(255, 250, 139)" stroke="white" stroke-width="1" opacity="1"/><path transform="translate(15.365556491439325,68.56726498083648)" d="M5,0A5,5,0,1,1,-5,0A5,5,0,1,1,5,0" fill="rgb(3, 131, 69)" stroke="white" stroke-width="1" opacity="1"/><path transform="translate(22.602081089825134,37.2600740358794)" d="M5,0A5,5,0,1,1,-5,0A5,5,0,1,1,5,0" fill="rgb(148, 191, 62)" stroke="white" stroke-width="1" opacity="1"/><path transform="translate(71.85893447509615,65.22759139028736)" d="M5,0A5,5,0,1,1,-5,0A5,5,0,1,1,5,0" fill="rgb(9, 138, 66)" stroke="white" stroke-width="1" opacity="1"/><path transform="translate(94.42928423206635,92.07124683191802)" d="M5,0A5,5,0,1,1,-5,0A5,5,0,1,1,5,0" fill="rgb(43, 76, 66)" stroke="white" stroke-width="1" opacity="1"/><path transform="translate(88.58512969357214,77.73348513032714)" d="M5,0A5,5,0,1,1,-5,0A5,5,0,1,1,5,0" fill="rgb(3, 109, 77)" stroke="white" stroke-width="1" opacity="1"/><path transform="translate(22.370066710650793,2.3488770252915736)" d="M5,0A5,5,0,1,1,-5,0A5,5,0,1,1,5,0" fill="rgb(255, 252, 149)" stroke="white" stroke-width="1" opacity="1"/><path transform="translate(76.81265844891311,89.87834975541887)" d="M5,0A5,5,0,1,1,-5,0A5,5,0,1,1,5,0" fill="rgb(38, 81, 69)" stroke="white" stroke-width="1" opacity="1"/><path transform="translate(99.33565236935937,75.42478659288966)" d="M5,0A5,5,0,1,1,-5,0A5,5,0,1,1,5,0" fill="rgb(1, 114, 76)" stroke="white" stroke-width="1" opacity="1"/><path transform="translate(7.905582067880934,95.50179646501728)" d="M5,0A5,5,0,1,1,-5,0A5,5,0,1,1,5,0" fill="rgb(51, 66, 62)" stroke="white" stroke-width="1" opacity="1"/><path transform="translate(98.09928120693962,32.45441628813597)" d="M5,0A5,5,0,1,1,-5,0A5,5,0,1,1,5,0" fill="rgb(169, 199, 60)" stroke="white" stroke-width="1" opacity="1"/><path transform="translate(45.919203769988485,58.156888587620735)" d="M5,0A5,5,0,1,1,-5,0A5,5,0,1,1,5,0" fill="rgb(53, 152, 66)" stroke="white" stroke-width="1" opacity="1"/><path transform="translate(54.147485472235104,98.20607626949536)" d="M5,0A5,5,0,1,1,-5,0A5,5,0,1,1,5,0" fill="rgb(57, 59, 59)" stroke="white" stroke-width="1" opacity="1"/><path transform="translate(64.21792165844832,34.57237245471706)" d="M5,0A5,5,0,1,1,-5,0A5,5,0,1,1,5,0" fill="rgb(160, 196, 61)" stroke="white" stroke-width="1" opacity="1"/><path transform="translate(24.00296018937412,3.3231952581331825)" d="M5,0A5,5,0,1,1,-5,0A5,5,0,1,1,5,0" fill="rgb(255, 250, 138)" stroke="white" stroke-width="1" opacity="1"/><path transform="translate(0.8060717211500257,22.663410802188324)" d="M5,0A5,5,0,1,1,-5,0A5,5,0,1,1,5,0" fill="rgb(209, 215, 54)" stroke="white" stroke-width="1" opacity="1"/><path transform="translate(20.664242440398795,84.70207653493169)" d="M5,0A5,5,0,1,1,-5,0A5,5,0,1,1,5,0" fill="rgb(24, 94, 73)" stroke="white" stroke-width="1" opacity="1"/><path transform="translate(37.04563635500296,36.23487985182836)" d="M5,0A5,5,0,1,1,-5,0A5,5,0,1,1,5,0" fill="rgb(153, 193, 62)" stroke="white" stroke-width="1" opacity="1"/><path transform="translate(43.98993345828814,14.367563884624223)" d="M5,0A5,5,0,1,1,-5,0A5,5,0,1,1,5,0" fill="rgb(243, 230, 47)" stroke="white" stroke-width="1" opacity="1"/><path transform="translate(2.296405637044896,96.13900720243073)" d="M5,0A5,5,0,1,1,-5,0A5,5,0,1,1,5,0" fill="rgb(52, 65, 61)" stroke="white" stroke-width="1" opacity="1"/><path transform="translate(53.797071629137164,23.875745659140247)" d="M5,0A5,5,0,1,1,-5,0A5,5,0,1,1,5,0" fill="rgb(204, 213, 55)" stroke="white" stroke-width="1" opacity="1"/><path transform="translate(7.965116164112307,95.50560497421733)" d="M5,0A5,5,0,1,1,-5,0A5,5,0,1,1,5,0" fill="rgb(51, 66, 62)" stroke="white" stroke-width="1" opacity="1"/><path transform="translate(60.6744641942104,73.50751405659234)" d="M5,0A5,5,0,1,1,-5,0A5,5,0,1,1,5,0" fill="rgb(1, 119, 74)" stroke="white" stroke-width="1" opacity="1"/><path transform="translate(91.4215036983029,7.179520713162823)" d="M5,0A5,5,0,1,1,-5,0A5,5,0,1,1,5,0" fill="rgb(255, 243, 93)" stroke="white" stroke-width="1" opacity="1"/><path transform="translate(1.3462915834452693,25.927289399115928)" d="M5,0A5,5,0,1,1,-5,0A5,5,0,1,1,5,0" fill="rgb(195, 210, 56)" stroke="white" stroke-width="1" opacity="1"/><path transform="translate(64.63948106634876,53.6454268358974)" d="M5,0A5,5,0,1,1,-5,0A5,5,0,1,1,5,0" fill="rgb(78, 161, 66)" stroke="white" stroke-width="1" opacity="1"/><path transform="translate(84.6451299167409,4.025675286023822)" d="M5,0A5,5,0,1,1,-5,0A5,5,0,1,1,5,0" fill="rgb(255, 249, 129)" stroke="white" stroke-width="1" opacity="1"/><path transform="translate(13.668823462872037,46.814553569151116)" d="M5,0A5,5,0,1,1,-5,0A5,5,0,1,1,5,0" fill="rgb(107, 174, 64)" stroke="white" stroke-width="1" opacity="1"/><path transform="translate(43.32495010382157,47.36457345565077)" d="M5,0A5,5,0,1,1,-5,0A5,5,0,1,1,5,0" fill="rgb(104, 173, 65)" stroke="white" stroke-width="1" opacity="1"/><path transform="translate(45.21944408837945,13.019138255644258)" d="M5,0A5,5,0,1,1,-5,0A5,5,0,1,1,5,0" fill="rgb(248, 232, 45)" stroke="white" stroke-width="1" opacity="1"/><path transform="translate(24.74800817558466,77.96728444479784)" d="M5,0A5,5,0,1,1,-5,0A5,5,0,1,1,5,0" fill="rgb(3, 109, 76)" stroke="white" stroke-width="1" opacity="1"/><path transform="translate(32.85574041833441,3.57624230099417)" d="M5,0A5,5,0,1,1,-5,0A5,5,0,1,1,5,0" fill="rgb(255, 249, 135)" stroke="white" stroke-width="1" opacity="1"/><path transform="translate(23.541221415340708,53.557682980843325)" d="M5,0A5,5,0,1,1,-5,0A5,5,0,1,1,5,0" fill="rgb(78, 161, 66)" stroke="white" stroke-width="1" opacity="1"/><path transform="translate(42.3008435026762,61.692654508850175)" d="M5,0A5,5,0,1,1,-5,0A5,5,0,1,1,5,0" fill="rgb(31, 145, 66)" stroke="white" stroke-width="1" opacity="1"/><path transform="translate(99.76184140615443,76.38464093069885)" d="M5,0A5,5,0,1,1,-5,0A5,5,0,1,1,5,0" fill="rgb(0, 112, 77)" stroke="white" stroke-width="1" opacity="1"/><path transform="translate(44.83909896345843,4.420330860609056)" d="M5,0A5,5,0,1,1,-5,0A5,5,0,1,1,5,0" fill="rgb(255, 248, 125)" stroke="white" stroke-width="1" opacity="1"/><path transform="translate(84.7728954868167,20.928162629485737)" d="M5,0A5,5,0,1,1,-5,0A5,5,0,1,1,5,0" fill="rgb(216, 218, 53)" stroke="white" stroke-width="1" opacity="1"/><path transform="translate(34.60008614491248,52.96186707964403)" d="M5,0A5,5,0,1,1,-5,0A5,5,0,1,1,5,0" fill="rgb(81, 162, 66)" stroke="white" stroke-width="1" opacity="1"/><path transform="translate(75.91207164987489,43.0342329834396)" d="M5,0A5,5,0,1,1,-5,0A5,5,0,1,1,5,0" fill="rgb(123, 181, 64)" stroke="white" stroke-width="1" opacity="1"/><path transform="translate(69.31426964695943,0.5439466111005431)" d="M5,0A5,5,0,1,1,-5,0A5,5,0,1,1,5,0" fill="rgb(255, 255, 170)" stroke="white" stroke-width="1" opacity="1"/><path transform="translate(16.45265405776688,38.35485416274403)" d="M5,0A5,5,0,1,1,-5,0A5,5,0,1,1,5,0" fill="rgb(143, 189, 62)" stroke="white" stroke-width="1" opacity="1"/><path transform="translate(19.41332976956097,88.52977792114658)" d="M5,0A5,5,0,1,1,-5,0A5,5,0,1,1,5,0" fill="rgb(35, 85, 71)" stroke="white" stroke-width="1" opacity="1"/><path transform="translate(1.8318740916457354,61.84504599170424)" d="M5,0A5,5,0,1,1,-5,0A5,5,0,1,1,5,0" fill="rgb(30, 145, 66)" stroke="white" stroke-width="1" opacity="1"/><path transform="translate(21.915070255882707,61.48341928825458)" d="M5,0A5,5,0,1,1,-5,0A5,5,0,1,1,5,0" fill="rgb(32, 146, 66)" stroke="white" stroke-width="1" opacity="1"/><path transform="translate(50.273527465430945,90.27655555636439)" d="M5,0A5,5,0,1,1,-5,0A5,5,0,1,1,5,0" fill="rgb(39, 80, 69)" stroke="white" stroke-width="1" opacity="1"/><path transform="translate(30.23446484410801,32.64887362260701)" d="M5,0A5,5,0,1,1,-5,0A5,5,0,1,1,5,0" fill="rgb(168, 199, 61)" stroke="white" stroke-width="1" opacity="1"/><path transform="translate(67.67165980401299,92.70174072281033)" d="M5,0A5,5,0,1,1,-5,0A5,5,0,1,1,5,0" fill="rgb(44, 74, 66)" stroke="white" stroke-width="1" opacity="1"/><path transform="translate(75.02469287627412,85.0509220840797)" d="M5,0A5,5,0,1,1,-5,0A5,5,0,1,1,5,0" fill="rgb(25, 93, 73)" stroke="white" stroke-width="1" opacity="1"/><path transform="translate(94.73208087768738,81.12273153958436)" d="M5,0A5,5,0,1,1,-5,0A5,5,0,1,1,5,0" fill="rgb(13, 102, 75)" stroke="white" stroke-width="1" opacity="1"/><path transform="translate(32.65374994087674,51.05069387440958)" d="M5,0A5,5,0,1,1,-5,0A5,5,0,1,1,5,0" fill="rgb(89, 166, 65)" stroke="white" stroke-width="1" opacity="1"/><path transform="translate(43.681465796367725,8.356111350809936)" d="M5,0A5,5,0,1,1,-5,0A5,5,0,1,1,5,0" fill="rgb(255, 241, 79)" stroke="white" stroke-width="1" opacity="1"/><path transform="translate(94.76478048115106,94.78644466644889)" d="M5,0A5,5,0,1,1,-5,0A5,5,0,1,1,5,0" fill="rgb(49, 68, 63)" stroke="white" stroke-width="1" opacity="1"/><path transform="translate(16.571830253316257,55.942802362809594)" d="M5,0A5,5,0,1,1,-5,0A5,5,0,1,1,5,0" fill="rgb(66, 156, 66)" stroke="white" stroke-width="1" opacity="1"/><path transform="translate(98.48640629205467,44.04338254492094)" d="M5,0A5,5,0,1,1,-5,0A5,5,0,1,1,5,0" fill="rgb(118, 179, 64)" stroke="white" stroke-width="1" opacity="1"/><path transform="translate(60.69471309697001,81.70786256126516)" d="M5,0A5,5,0,1,1,-5,0A5,5,0,1,1,5,0" fill="rgb(15, 100, 75)" stroke="white" stroke-width="1" opacity="1"/></g></g><path class="foreground" aria-hidden="true" d="" display="none"/></g></g><g class="mark-group role-legend" role="graphics-symbol" aria-roledescription="legend" aria-label="Gradient legend titled 'y' for fill color with values from 0.0 to 1.0"><g transform="translate(124,0)"><path class="background" aria-hidden="true" d="M0,0h27v96h-27Z" pointer-events="none"/><g><g class="mark-group role-legend-entry"><g transform="translate(0,16)"><path class="background" aria-hidden="true" d="M0,0h0v0h0Z" pointer-events="none"/><g><g class="mark-rect role-legend-gradient" pointer-events="none"><path d="M0,0h10v80h-10Z" fill="url(#gradient_0)" stroke="#ddd" stroke-width="0" opacity="1"/></g><g class="mark-text role-legend-label" pointer-events="none"><text text-anchor="start" transform="translate(12,78)" font-family="sans-serif" font-size="10px" font-style="normal" font-weight="400" fill="#000" opacity="1">0.0</text><text text-anchor="start" transform="translate(12,8)" font-family="sans-serif" font-size="10px" font-style="normal" font-weight="400" fill="#000" opacity="1">1.0</text></g></g><path class="foreground" aria-hidden="true" d="" pointer-events="none" display="none"/></g></g><g class="mark-text role-legend-title" pointer-events="none"><text text-anchor="start" transform="translate(0,9)" font-family="sans-serif" font-size="11px" font-style="normal" font-weight="400" fill="#000" opacity="1">y</text></g></g><path class="foreground" aria-hidden="true" d="" pointer-events="none" display="none"/></g></g></g><path class="foreground" aria-hidden="true" d="" display="none"/></g></g></g><defs><linearGradient id="gradient_0" x1="0" x2="0" y1="1" y2="0"><stop offset="0" stop-color="rgb(58, 58, 58)"/><stop offset="0.03736465592227975" stop-color="rgb(50, 68, 63)"/><stop offset="0.08830728998884686" stop-color="rgb(38, 81, 69)"/><stop offset="0.13924992405541398" stop-color="rgb(25, 93, 73)"/><stop offset="0.1901925581219811" stop-color="rgb(10, 104, 76)"/><stop offset="0.2411351921885482" stop-color="rgb(1, 115, 75)"/><stop offset="0.2920778262551153" stop-color="rgb(3, 127, 70)"/><stop offset="0.34302046032168243" stop-color="rgb(10, 139, 66)"/><stop offset="0.39396309438824956" stop-color="rgb(41, 148, 66)"/><stop offset="0.4449057284548167" stop-color="rgb(72, 158, 66)"/><stop offset="0.4958483625213838" stop-color="rgb(93, 168, 65)"/><stop offset="0.5467909965879509" stop-color="rgb(114, 177, 64)"/><stop offset="0.597733630654518" stop-color="rgb(136, 186, 63)"/><stop offset="0.6486762647210852" stop-color="rgb(158, 195, 61)"/><stop offset="0.6996188987876522" stop-color="rgb(179, 203, 59)"/><stop offset="0.7505615328542193" stop-color="rgb(199, 212, 56)"/><stop offset="0.8015041669207865" stop-color="rgb(220, 220, 52)"/><stop offset="0.8524468009873536" stop-color="rgb(240, 229, 47)"/><stop offset="0.9033894350539208" stop-color="rgb(255, 238, 60)"/><stop offset="0.9543320691204877" stop-color="rgb(255, 247, 118)"/><stop offset="1" stop-color="rgb(255, 255, 170)"/></linearGradient></defs></svg>